M48
; DRILL file {KiCad 5.1.5-52549c5~84~ubuntu18.04.1} date Wed 22 Jan 2020 11:35:18 AM EST
; FORMAT={-:-/ absolute / inch / decimal}
; #@! TF.CreationDate,2020-01-22T11:35:18-05:00
; #@! TF.GenerationSoftware,Kicad,Pcbnew,5.1.5-52549c5~84~ubuntu18.04.1
; #@! TF.FileFunction,Plated,1,2,PTH
FMAT,2
INCH
T1C0.0315
T2C0.0394
T3C0.0400
T4C0.0433
T5C0.0472
%
G90
G05
T1
X4.7946Y-3.7615
X4.7946Y-3.8615
X4.7946Y-3.9615
T2
X4.1727Y-5.1582
X4.2434Y-5.0875
X7.6292Y-2.9182
X7.6999Y-2.8475
X6.7536Y-3.3907
X6.8536Y-3.3907
X5.7237Y-2.3907
X5.7237Y-2.4907
X5.7237Y-2.5907
X5.7237Y-2.6907
X5.7237Y-2.7907
X5.7237Y-2.8907
X5.7237Y-2.9907
X5.7237Y-3.0907
X5.7237Y-3.1907
X5.7237Y-3.2907
X5.7237Y-3.3907
X4.1845Y-2.8475
X4.2552Y-2.9182
X4.2316Y-3.7922
X4.5308Y-3.7922
X7.6373Y-5.0955
X7.708Y-5.1663
T3
X5.004Y-4.06
X5.104Y-4.06
X5.204Y-4.06
X5.304Y-4.06
X5.404Y-4.06
X5.504Y-4.06
X5.604Y-4.06
X5.704Y-4.06
X6.3121Y-2.1804
X6.3121Y-3.0804
X6.4371Y-3.0804
X6.7371Y-3.0804
X6.8621Y-2.1804
X6.8621Y-3.0804
X5.7666Y-5.5828
X5.8373Y-5.5121
X5.908Y-5.4414
X5.9787Y-2.6129
X6.0494Y-2.5422
X6.1201Y-2.4715
X4.9832Y-2.2938
X4.9832Y-2.3938
X4.9832Y-2.4938
X4.9832Y-2.5938
X4.9832Y-2.6938
X4.9832Y-2.7938
X4.9832Y-2.8938
X4.9832Y-2.9938
X4.9832Y-3.0938
X4.9832Y-3.1938
X4.9832Y-3.2938
X4.9832Y-3.3938
X5.0332Y-2.1938
X5.1332Y-2.1938
X5.2332Y-2.1938
X5.2832Y-3.3938
X5.3332Y-2.1938
X5.3832Y-3.3938
X5.4332Y-2.1938
X5.4832Y-2.6438
X5.4832Y-2.7438
X5.4832Y-3.3938
X5.5332Y-2.1938
X5.5832Y-2.2938
X5.5832Y-2.3938
X5.5832Y-2.4938
X5.5832Y-2.5938
X5.5832Y-2.6938
X5.5832Y-2.7938
X5.5832Y-2.8938
X5.5832Y-2.9938
X5.5832Y-3.0938
X5.5832Y-3.1938
X5.5832Y-3.2938
X5.5832Y-3.3938
T4
X6.3103Y-4.0718
X6.4103Y-4.0718
X6.5103Y-4.0718
T5
X6.0781Y-3.556
X6.0781Y-4.056
X4.8261Y-3.0954
X4.8261Y-3.5954
X7.2158Y-3.8789
X7.4127Y-3.8789
X5.893Y-3.556
X5.893Y-4.056
T0
M30
