G04 #@! TF.GenerationSoftware,KiCad,Pcbnew,5.1.5-52549c5~84~ubuntu18.04.1*
G04 #@! TF.CreationDate,2020-01-22T12:05:47-05:00*
G04 #@! TF.ProjectId,GeaiRareDit_PCB_Kicad5,47656169-5261-4726-9544-69745f504342,1.0*
G04 #@! TF.SameCoordinates,Original*
G04 #@! TF.FileFunction,Copper,L1,Top*
G04 #@! TF.FilePolarity,Positive*
%FSLAX46Y46*%
G04 Gerber Fmt 4.6, Leading zero omitted, Abs format (unit mm)*
G04 Created by KiCad (PCBNEW 5.1.5-52549c5~84~ubuntu18.04.1) date 2020-01-22 12:05:47*
%MOMM*%
%LPD*%
G04 APERTURE LIST*
%ADD10C,2.032000*%
%ADD11R,1.700000X1.700000*%
%ADD12O,1.700000X1.700000*%
%ADD13R,1.905000X2.000000*%
%ADD14O,1.905000X2.000000*%
%ADD15C,1.500000*%
%ADD16R,1.500000X1.500000*%
%ADD17C,2.400000*%
%ADD18O,2.400000X2.400000*%
%ADD19C,0.100000*%
%ADD20C,1.700000*%
%ADD21R,2.000000X2.000000*%
%ADD22C,2.000000*%
%ADD23R,2.400000X2.400000*%
%ADD24C,0.500000*%
%ADD25C,0.254000*%
G04 APERTURE END LIST*
D10*
X151859501Y-66368411D03*
X153655552Y-64572360D03*
X155451604Y-62776308D03*
X146471347Y-141802562D03*
X148267399Y-140006511D03*
X150063450Y-138210460D03*
D11*
X145382500Y-60723000D03*
D12*
X145382500Y-63263000D03*
X145382500Y-65803000D03*
X145382500Y-68343000D03*
X145382500Y-70883000D03*
X145382500Y-73423000D03*
X145382500Y-75963000D03*
X145382500Y-78503000D03*
X145382500Y-81043000D03*
X145382500Y-83583000D03*
X145382500Y-86123000D03*
D13*
X160282500Y-103423000D03*
D14*
X162822500Y-103423000D03*
X165362500Y-103423000D03*
D15*
X121782500Y-98083000D03*
X121782500Y-95543000D03*
D16*
X121782500Y-100623000D03*
D10*
X127842500Y-55723000D03*
X130382500Y-55723000D03*
X132922500Y-55723000D03*
X135462500Y-55723000D03*
X138002500Y-55723000D03*
X140542500Y-55723000D03*
X126572500Y-58263000D03*
X126572500Y-60803000D03*
X126572500Y-63343000D03*
X126572500Y-65883000D03*
X126572500Y-68423000D03*
X126572500Y-70963000D03*
X126572500Y-73503000D03*
X126572500Y-76043000D03*
X126572500Y-78583000D03*
X126572500Y-81123000D03*
X126572500Y-83663000D03*
X126572500Y-86203000D03*
X141812500Y-58263000D03*
X141812500Y-60803000D03*
X141812500Y-63343000D03*
X141812500Y-65883000D03*
X141812500Y-68423000D03*
X141812500Y-70963000D03*
X141812500Y-73503000D03*
X141812500Y-76043000D03*
X141812500Y-78583000D03*
X141812500Y-81123000D03*
X141812500Y-83663000D03*
X141812500Y-86203000D03*
X139272500Y-67153000D03*
X139272500Y-69693000D03*
X139272500Y-86203000D03*
X136732500Y-86203000D03*
X134192500Y-86203000D03*
D17*
X122582500Y-91323000D03*
D18*
X122582500Y-78623000D03*
D10*
X127102500Y-103123000D03*
X129642500Y-103123000D03*
X132182500Y-103123000D03*
X134722500Y-103123000D03*
X137262500Y-103123000D03*
X139802500Y-103123000D03*
X142342500Y-103123000D03*
X144882500Y-103123000D03*
G04 #@! TA.AperFunction,ComponentPad*
D19*
G36*
X106580418Y-129223000D02*
G01*
X107782500Y-128020918D01*
X108984582Y-129223000D01*
X107782500Y-130425082D01*
X106580418Y-129223000D01*
G37*
G04 #@! TD.AperFunction*
D20*
X105986449Y-131019051D02*
X105986449Y-131019051D01*
G04 #@! TA.AperFunction,ComponentPad*
D19*
G36*
X194984582Y-74123000D02*
G01*
X193782500Y-75325082D01*
X192580418Y-74123000D01*
X193782500Y-72920918D01*
X194984582Y-74123000D01*
G37*
G04 #@! TD.AperFunction*
D20*
X195578551Y-72326949D02*
X195578551Y-72326949D01*
D11*
X174082500Y-86123000D03*
D12*
X171542500Y-86123000D03*
D18*
X154382500Y-90323000D03*
D17*
X154382500Y-103023000D03*
D20*
X106286449Y-72326949D02*
X106286449Y-72326949D01*
G04 #@! TA.AperFunction,ComponentPad*
D19*
G36*
X108082500Y-72920918D02*
G01*
X109284582Y-74123000D01*
X108082500Y-75325082D01*
X106880418Y-74123000D01*
X108082500Y-72920918D01*
G37*
G04 #@! TD.AperFunction*
D17*
X149682500Y-103023000D03*
D18*
X149682500Y-90323000D03*
D20*
X195782500Y-131223000D02*
X195782500Y-131223000D01*
G04 #@! TA.AperFunction,ComponentPad*
D19*
G36*
X193986449Y-130629031D02*
G01*
X192784367Y-129426949D01*
X193986449Y-128224867D01*
X195188531Y-129426949D01*
X193986449Y-130629031D01*
G37*
G04 #@! TD.AperFunction*
D21*
X115082500Y-96323000D03*
D22*
X107482500Y-96323000D03*
D23*
X183282500Y-98523000D03*
D17*
X188282500Y-98523000D03*
D10*
X171122500Y-78243000D03*
X163502500Y-78243000D03*
X174297500Y-78243000D03*
X160327500Y-78243000D03*
X160327500Y-55383000D03*
X174297500Y-55383000D03*
D24*
X143249340Y-58263000D02*
X143309340Y-58323000D01*
X141812500Y-58263000D02*
X143249340Y-58263000D01*
X143309340Y-58323000D02*
X145982500Y-58323000D01*
X145982500Y-58323000D02*
X149582500Y-61923000D01*
X149582500Y-85523000D02*
X154382500Y-90323000D01*
X149582500Y-61923000D02*
X149582500Y-85523000D01*
X154382500Y-90323000D02*
X165382500Y-101323000D01*
X165362500Y-101343000D02*
X165362500Y-103423000D01*
X165382500Y-101323000D02*
X165362500Y-101343000D01*
X171122500Y-83163000D02*
X174082500Y-86123000D01*
X171122500Y-78243000D02*
X171122500Y-83163000D01*
X171382500Y-86123000D02*
X171542500Y-86123000D01*
X163502500Y-78243000D02*
X171382500Y-86123000D01*
X126572500Y-70963000D02*
X121112500Y-76423000D01*
X121112500Y-76423000D02*
X105882500Y-76423000D01*
X105882500Y-76423000D02*
X103282500Y-79023000D01*
X103282500Y-124723000D02*
X107782500Y-129223000D01*
X103282500Y-79023000D02*
X103282500Y-124723000D01*
X125556501Y-69438999D02*
X126572500Y-68423000D01*
X120271459Y-74724041D02*
X125556501Y-69438999D01*
X108683541Y-74724041D02*
X120271459Y-74724041D01*
X108082500Y-74123000D02*
X108683541Y-74724041D01*
X120885444Y-91323000D02*
X119082500Y-93125944D01*
X122582500Y-91323000D02*
X120885444Y-91323000D01*
X119082500Y-95383000D02*
X121782500Y-98083000D01*
X119082500Y-93125944D02*
X119082500Y-95383000D01*
X122843160Y-95543000D02*
X124582500Y-97282340D01*
X121782500Y-95543000D02*
X122843160Y-95543000D01*
X124582500Y-97282340D02*
X124582500Y-104623000D01*
X124582500Y-104623000D02*
X125682500Y-105723000D01*
X151682500Y-105723000D02*
X154382500Y-103023000D01*
X125682500Y-105723000D02*
X151682500Y-105723000D01*
X159882500Y-103023000D02*
X160282500Y-103423000D01*
X154382500Y-103023000D02*
X159882500Y-103023000D01*
X128009340Y-83663000D02*
X128882500Y-84536160D01*
X126572500Y-83663000D02*
X128009340Y-83663000D01*
X128882500Y-101343000D02*
X127102500Y-103123000D01*
X128882500Y-84536160D02*
X128882500Y-101343000D01*
X139272500Y-67153000D02*
X130482500Y-75943000D01*
X130482500Y-101423000D02*
X132182500Y-103123000D01*
X130482500Y-75943000D02*
X130482500Y-101423000D01*
X138256501Y-70708999D02*
X138256501Y-70748999D01*
X139272500Y-69693000D02*
X138256501Y-70708999D01*
X138256501Y-70748999D02*
X132082500Y-76923000D01*
X132082500Y-100483000D02*
X134722500Y-103123000D01*
X132082500Y-76923000D02*
X132082500Y-100483000D01*
X122622500Y-78583000D02*
X122582500Y-78623000D01*
X126572500Y-78583000D02*
X122622500Y-78583000D01*
X125135660Y-86203000D02*
X125055660Y-86123000D01*
X126572500Y-86203000D02*
X125135660Y-86203000D01*
X125055660Y-86123000D02*
X120682500Y-86123000D01*
X115082500Y-91723000D02*
X115082500Y-96323000D01*
X120682500Y-86123000D02*
X115082500Y-91723000D01*
X149383888Y-141123000D02*
X148267399Y-140006511D01*
X151282500Y-141123000D02*
X149383888Y-141123000D01*
X162782500Y-104963000D02*
X162782500Y-129623000D01*
X162822500Y-103423000D02*
X162822500Y-104923000D01*
X162782500Y-129623000D02*
X151282500Y-141123000D01*
X162822500Y-104923000D02*
X162782500Y-104963000D01*
X153655552Y-84996052D02*
X153655552Y-64572360D01*
X166282500Y-106323000D02*
X167782500Y-104823000D01*
X167782500Y-104823000D02*
X167782500Y-99123000D01*
X162822500Y-104923000D02*
X164222500Y-106323000D01*
X167782500Y-99123000D02*
X153655552Y-84996052D01*
X164222500Y-106323000D02*
X166282500Y-106323000D01*
X145328000Y-65883000D02*
X145355000Y-65910000D01*
X145328000Y-76043000D02*
X145355000Y-76070000D01*
X145328000Y-73503000D02*
X145355000Y-73530000D01*
X145328000Y-70963000D02*
X145355000Y-70990000D01*
X145328000Y-68423000D02*
X145355000Y-68450000D01*
X145328000Y-86203000D02*
X145355000Y-86230000D01*
X145328000Y-83663000D02*
X145355000Y-83690000D01*
X145328000Y-81123000D02*
X145355000Y-81150000D01*
X145328000Y-78583000D02*
X145355000Y-78610000D01*
X145328000Y-60803000D02*
X145355000Y-60830000D01*
X145328000Y-63343000D02*
X145355000Y-63370000D01*
X145302500Y-63343000D02*
X145382500Y-63263000D01*
X141812500Y-63343000D02*
X145302500Y-63343000D01*
X145302500Y-65883000D02*
X145382500Y-65803000D01*
X141812500Y-65883000D02*
X145302500Y-65883000D01*
X145302500Y-68423000D02*
X145382500Y-68343000D01*
X141812500Y-68423000D02*
X145302500Y-68423000D01*
X145302500Y-70963000D02*
X145382500Y-70883000D01*
X141812500Y-70963000D02*
X145302500Y-70963000D01*
X145302500Y-73503000D02*
X145382500Y-73423000D01*
X141812500Y-73503000D02*
X145302500Y-73503000D01*
X145302500Y-76043000D02*
X145382500Y-75963000D01*
X141812500Y-76043000D02*
X145302500Y-76043000D01*
X145302500Y-78583000D02*
X145382500Y-78503000D01*
X141812500Y-78583000D02*
X145302500Y-78583000D01*
X145302500Y-81123000D02*
X145382500Y-81043000D01*
X141812500Y-81123000D02*
X145302500Y-81123000D01*
X145302500Y-83663000D02*
X145382500Y-83583000D01*
X141812500Y-83663000D02*
X145302500Y-83663000D01*
X145302500Y-86203000D02*
X145382500Y-86123000D01*
X141812500Y-86203000D02*
X145302500Y-86203000D01*
D25*
G36*
X186722501Y-52996382D02*
G01*
X186722500Y-56090083D01*
X186643600Y-56093390D01*
X186619961Y-56096000D01*
X185382500Y-56096000D01*
X185357724Y-56098440D01*
X185325704Y-56109408D01*
X184393553Y-56575484D01*
X184232188Y-56623282D01*
X184193343Y-56637728D01*
X184154352Y-56651766D01*
X184148053Y-56654571D01*
X184148039Y-56654576D01*
X184148027Y-56654582D01*
X183094219Y-57130395D01*
X183057687Y-57149983D01*
X183020969Y-57169179D01*
X183015107Y-57172814D01*
X183015095Y-57172820D01*
X183015085Y-57172827D01*
X182035602Y-57787256D01*
X182002097Y-57811599D01*
X181968293Y-57835622D01*
X181962968Y-57840027D01*
X181075926Y-58581709D01*
X181046007Y-58610400D01*
X181015804Y-58638762D01*
X181011134Y-58643842D01*
X181011126Y-58643849D01*
X181011120Y-58643857D01*
X180232949Y-59499056D01*
X180207180Y-59531569D01*
X180181127Y-59563741D01*
X180177190Y-59569406D01*
X180177182Y-59569416D01*
X180177176Y-59569426D01*
X179783135Y-60142759D01*
X179292697Y-60633197D01*
X179276903Y-60652443D01*
X179265167Y-60674399D01*
X179258524Y-60695450D01*
X179124083Y-61300436D01*
X178957038Y-61632567D01*
X178940982Y-61670763D01*
X178924519Y-61708806D01*
X178922254Y-61715313D01*
X178922246Y-61715332D01*
X178922241Y-61715350D01*
X178547714Y-62809252D01*
X178536993Y-62849264D01*
X178525843Y-62889199D01*
X178524477Y-62895974D01*
X178301872Y-64030604D01*
X178296679Y-64071712D01*
X178291053Y-64112779D01*
X178290619Y-64119676D01*
X178224060Y-65274018D01*
X178224494Y-65315467D01*
X178224494Y-65356900D01*
X178225000Y-65363777D01*
X178225000Y-65363793D01*
X178225002Y-65363807D01*
X178315720Y-66516489D01*
X178321773Y-66557482D01*
X178327398Y-66598546D01*
X178328832Y-66605293D01*
X178328834Y-66605305D01*
X178328837Y-66605316D01*
X178575154Y-67735024D01*
X178586725Y-67774854D01*
X178597861Y-67814737D01*
X178600197Y-67821225D01*
X178600201Y-67821239D01*
X178600207Y-67821252D01*
X178997562Y-68907077D01*
X179014411Y-68944922D01*
X179030876Y-68982970D01*
X179034069Y-68989075D01*
X179034078Y-68989095D01*
X179034088Y-68989112D01*
X179129260Y-69168860D01*
X179258524Y-69750550D01*
X179266281Y-69774207D01*
X179278504Y-69795897D01*
X179292697Y-69812803D01*
X179763591Y-70283697D01*
X180297162Y-71026241D01*
X180323580Y-71058175D01*
X180349659Y-71090380D01*
X180354382Y-71095409D01*
X180354389Y-71095418D01*
X180354397Y-71095425D01*
X181150307Y-71934139D01*
X181180803Y-71962182D01*
X181211023Y-71990560D01*
X181216394Y-71994909D01*
X182118775Y-72717852D01*
X182152777Y-72741485D01*
X182186586Y-72765511D01*
X182192490Y-72769086D01*
X182192497Y-72769091D01*
X182192504Y-72769094D01*
X182333182Y-72853288D01*
X182792697Y-73312803D01*
X182811943Y-73328597D01*
X182833899Y-73340333D01*
X182859782Y-73347951D01*
X183337884Y-73434879D01*
X184328191Y-73857281D01*
X184367316Y-73870906D01*
X184406321Y-73884949D01*
X184412973Y-73886806D01*
X184412981Y-73886808D01*
X185528257Y-74191913D01*
X185568866Y-74200101D01*
X185609419Y-74208721D01*
X185616263Y-74209659D01*
X185616267Y-74209659D01*
X186762634Y-74360581D01*
X186803998Y-74363183D01*
X186845326Y-74366218D01*
X186852237Y-74366218D01*
X188008481Y-74360164D01*
X188049812Y-74357129D01*
X188091172Y-74354527D01*
X188098020Y-74353589D01*
X188262243Y-74330217D01*
X188359782Y-74347951D01*
X188384595Y-74349983D01*
X188409328Y-74347134D01*
X188434080Y-74339054D01*
X188544278Y-74290077D01*
X189242743Y-74190671D01*
X189283285Y-74182054D01*
X189323906Y-74173863D01*
X189330550Y-74172007D01*
X189330561Y-74172005D01*
X189330571Y-74172002D01*
X189502593Y-74123000D01*
X191942346Y-74123000D01*
X191954606Y-74247482D01*
X191990916Y-74367180D01*
X192049881Y-74477494D01*
X192129233Y-74574185D01*
X193331315Y-75776267D01*
X193428006Y-75855619D01*
X193538320Y-75914584D01*
X193658018Y-75950894D01*
X193782500Y-75963154D01*
X193906982Y-75950894D01*
X194026680Y-75914584D01*
X194136994Y-75855619D01*
X194233685Y-75776267D01*
X195435767Y-74574185D01*
X195515119Y-74477494D01*
X195574084Y-74367180D01*
X195610394Y-74247482D01*
X195622654Y-74123000D01*
X195610394Y-73998518D01*
X195574084Y-73878820D01*
X195534357Y-73804497D01*
X195647366Y-73810358D01*
X195935443Y-73768429D01*
X196209804Y-73671105D01*
X196345469Y-73598586D01*
X196422239Y-73350242D01*
X195578551Y-72506554D01*
X195564409Y-72520697D01*
X195384804Y-72341092D01*
X195398946Y-72326949D01*
X195758156Y-72326949D01*
X196601844Y-73170637D01*
X196850188Y-73093867D01*
X196922707Y-72958202D01*
X197020031Y-72683841D01*
X197061960Y-72395764D01*
X197046882Y-72105043D01*
X196975376Y-71822849D01*
X196850192Y-71560028D01*
X196602310Y-71482795D01*
X195758156Y-72326949D01*
X195398946Y-72326949D01*
X194555258Y-71483261D01*
X194306914Y-71560031D01*
X194234395Y-71695696D01*
X194137071Y-71970057D01*
X194095142Y-72258134D01*
X194101003Y-72371143D01*
X194026680Y-72331416D01*
X193906982Y-72295106D01*
X193782500Y-72282846D01*
X193658018Y-72295106D01*
X193538320Y-72331416D01*
X193428006Y-72390381D01*
X193331315Y-72469733D01*
X192129233Y-73671815D01*
X192049881Y-73768506D01*
X191990916Y-73878820D01*
X191954606Y-73998518D01*
X191942346Y-74123000D01*
X189502593Y-74123000D01*
X190442585Y-73855236D01*
X190481569Y-73841201D01*
X190520715Y-73827569D01*
X190527049Y-73824828D01*
X190527057Y-73824825D01*
X190527064Y-73824822D01*
X191585802Y-73360067D01*
X191622520Y-73340872D01*
X191659453Y-73322053D01*
X191665365Y-73318473D01*
X192651239Y-72714329D01*
X192685023Y-72690320D01*
X192719051Y-72666670D01*
X192724422Y-72662320D01*
X193619182Y-71929967D01*
X193649397Y-71901593D01*
X193679897Y-71873547D01*
X193684621Y-71868517D01*
X193684629Y-71868509D01*
X193684636Y-71868501D01*
X194209522Y-71303656D01*
X194734863Y-71303656D01*
X195578551Y-72147344D01*
X196422705Y-71303190D01*
X196345472Y-71055308D01*
X196082651Y-70930124D01*
X195800457Y-70858618D01*
X195509736Y-70843540D01*
X195221659Y-70885469D01*
X194947298Y-70982793D01*
X194811633Y-71055312D01*
X194734863Y-71303656D01*
X194209522Y-71303656D01*
X194471719Y-71021499D01*
X194497790Y-70989304D01*
X194524217Y-70957360D01*
X194528220Y-70951726D01*
X195193075Y-70005733D01*
X195214556Y-69970265D01*
X195236382Y-69935063D01*
X195239577Y-69928951D01*
X195239584Y-69928939D01*
X195239589Y-69928927D01*
X195769901Y-68901466D01*
X195786379Y-68863389D01*
X195803216Y-68825572D01*
X195805552Y-68819084D01*
X195805558Y-68819070D01*
X195805562Y-68819057D01*
X196191525Y-67729131D01*
X196202672Y-67689207D01*
X196214232Y-67649418D01*
X196215669Y-67642658D01*
X196450144Y-66510422D01*
X196455768Y-66469364D01*
X196461823Y-66428364D01*
X196462329Y-66421472D01*
X196499038Y-65883000D01*
X199609120Y-65883000D01*
X199722500Y-65996381D01*
X199722501Y-137449618D01*
X199609120Y-137563000D01*
X196515417Y-137563000D01*
X196512110Y-137484100D01*
X196508509Y-137451486D01*
X196506105Y-137418743D01*
X196505095Y-137411906D01*
X196330198Y-136268950D01*
X196321157Y-136228503D01*
X196312541Y-136187969D01*
X196310613Y-136181332D01*
X195982218Y-135072688D01*
X195967772Y-135033843D01*
X195953734Y-134994852D01*
X195950929Y-134988553D01*
X195950924Y-134988539D01*
X195950918Y-134988527D01*
X195475105Y-133934719D01*
X195455517Y-133898187D01*
X195436321Y-133861469D01*
X195432686Y-133855607D01*
X195432680Y-133855595D01*
X195432673Y-133855585D01*
X194818244Y-132876102D01*
X194793901Y-132842597D01*
X194769878Y-132808793D01*
X194765473Y-132803468D01*
X194299603Y-132246293D01*
X194938812Y-132246293D01*
X195015582Y-132494637D01*
X195151247Y-132567156D01*
X195425608Y-132664480D01*
X195713685Y-132706409D01*
X196004406Y-132691331D01*
X196286600Y-132619825D01*
X196549421Y-132494641D01*
X196626654Y-132246759D01*
X195782500Y-131402605D01*
X194938812Y-132246293D01*
X194299603Y-132246293D01*
X194023791Y-131916426D01*
X193995100Y-131886507D01*
X193966738Y-131856304D01*
X193961658Y-131851634D01*
X193961651Y-131851626D01*
X193961643Y-131851620D01*
X193106444Y-131073449D01*
X193073931Y-131047680D01*
X193041759Y-131021627D01*
X193036094Y-131017690D01*
X193036084Y-131017682D01*
X193036074Y-131017676D01*
X192083180Y-130362770D01*
X192047526Y-130341684D01*
X192012061Y-130320206D01*
X192005903Y-130317068D01*
X190972933Y-129797538D01*
X190934737Y-129781482D01*
X190896694Y-129765019D01*
X190890187Y-129762754D01*
X190890168Y-129762746D01*
X190890150Y-129762741D01*
X189909384Y-129426949D01*
X192146295Y-129426949D01*
X192158555Y-129551431D01*
X192194865Y-129671129D01*
X192253830Y-129781443D01*
X192333182Y-129878134D01*
X193535264Y-131080216D01*
X193631955Y-131159568D01*
X193742269Y-131218533D01*
X193861967Y-131254843D01*
X193986449Y-131267103D01*
X194110931Y-131254843D01*
X194230629Y-131218533D01*
X194304952Y-131178806D01*
X194299091Y-131291815D01*
X194341020Y-131579892D01*
X194438344Y-131854253D01*
X194510863Y-131989918D01*
X194759207Y-132066688D01*
X195602895Y-131223000D01*
X195962105Y-131223000D01*
X196806259Y-132067154D01*
X197054141Y-131989921D01*
X197179325Y-131727100D01*
X197250831Y-131444906D01*
X197265909Y-131154185D01*
X197223980Y-130866108D01*
X197126656Y-130591747D01*
X197054137Y-130456082D01*
X196805793Y-130379312D01*
X195962105Y-131223000D01*
X195602895Y-131223000D01*
X195588753Y-131208858D01*
X195768358Y-131029253D01*
X195782500Y-131043395D01*
X196626188Y-130199707D01*
X196549418Y-129951363D01*
X196413753Y-129878844D01*
X196139392Y-129781520D01*
X195851315Y-129739591D01*
X195738306Y-129745452D01*
X195778033Y-129671129D01*
X195814343Y-129551431D01*
X195826603Y-129426949D01*
X195814343Y-129302467D01*
X195778033Y-129182769D01*
X195719068Y-129072455D01*
X195639716Y-128975764D01*
X194437634Y-127773682D01*
X194340943Y-127694330D01*
X194230629Y-127635365D01*
X194110931Y-127599055D01*
X193986449Y-127586795D01*
X193861967Y-127599055D01*
X193742269Y-127635365D01*
X193631955Y-127694330D01*
X193535264Y-127773682D01*
X192333182Y-128975764D01*
X192253830Y-129072455D01*
X192194865Y-129182769D01*
X192158555Y-129302467D01*
X192146295Y-129426949D01*
X189909384Y-129426949D01*
X189796248Y-129388214D01*
X189756236Y-129377493D01*
X189716301Y-129366343D01*
X189709530Y-129364978D01*
X189709527Y-129364977D01*
X189709524Y-129364977D01*
X188574896Y-129142372D01*
X188533788Y-129137179D01*
X188492721Y-129131553D01*
X188485824Y-129131119D01*
X187331482Y-129064560D01*
X187290033Y-129064994D01*
X187248599Y-129064994D01*
X187241723Y-129065500D01*
X187241707Y-129065500D01*
X187241693Y-129065502D01*
X186089011Y-129156220D01*
X186048024Y-129162272D01*
X186006953Y-129167898D01*
X186000206Y-129169332D01*
X186000194Y-129169334D01*
X186000183Y-129169337D01*
X184870476Y-129415654D01*
X184830623Y-129427232D01*
X184790763Y-129438361D01*
X184784280Y-129440695D01*
X184784260Y-129440701D01*
X184784243Y-129440709D01*
X183698424Y-129838062D01*
X183660597Y-129854903D01*
X183622530Y-129871376D01*
X183616412Y-129874575D01*
X183616405Y-129874578D01*
X183616399Y-129874582D01*
X182594543Y-130415627D01*
X182559350Y-130437447D01*
X182523872Y-130458933D01*
X182518250Y-130462929D01*
X182518239Y-130462936D01*
X182518230Y-130462944D01*
X181579259Y-131137662D01*
X181547325Y-131164080D01*
X181515120Y-131190159D01*
X181510091Y-131194882D01*
X181510082Y-131194889D01*
X181510075Y-131194897D01*
X180671361Y-131990807D01*
X180643318Y-132021303D01*
X180614940Y-132051523D01*
X180610591Y-132056894D01*
X179887648Y-132959275D01*
X179864015Y-132993277D01*
X179839989Y-133027086D01*
X179836414Y-133032990D01*
X179836409Y-133032997D01*
X179836406Y-133033004D01*
X179752212Y-133173682D01*
X179292697Y-133633197D01*
X179276903Y-133652443D01*
X179265167Y-133674399D01*
X179259292Y-133692198D01*
X179091189Y-134364610D01*
X178748219Y-135168691D01*
X178734578Y-135207862D01*
X178720552Y-135246821D01*
X178718693Y-135253478D01*
X178413587Y-136368757D01*
X178405399Y-136409366D01*
X178396779Y-136449919D01*
X178395841Y-136456766D01*
X178244919Y-137603134D01*
X178242317Y-137644498D01*
X178239282Y-137685826D01*
X178239282Y-137692737D01*
X178245336Y-138848981D01*
X178248371Y-138890312D01*
X178250973Y-138931672D01*
X178251911Y-138938520D01*
X178414829Y-140083243D01*
X178423446Y-140123785D01*
X178431637Y-140164406D01*
X178433493Y-140171050D01*
X178433495Y-140171061D01*
X178433498Y-140171071D01*
X178659846Y-140965670D01*
X178756481Y-141738752D01*
X178761975Y-141763035D01*
X178772102Y-141785779D01*
X178783330Y-141802336D01*
X179200360Y-142323624D01*
X179245433Y-142426302D01*
X179264628Y-142463020D01*
X179283447Y-142499953D01*
X179287027Y-142505865D01*
X179891171Y-143491739D01*
X179915180Y-143525523D01*
X179938830Y-143559551D01*
X179943180Y-143564922D01*
X180675533Y-144459682D01*
X180703907Y-144489897D01*
X180731953Y-144520397D01*
X180736983Y-144525121D01*
X180736991Y-144525129D01*
X180736999Y-144525136D01*
X181584001Y-145312219D01*
X181616196Y-145338290D01*
X181648140Y-145364717D01*
X181653768Y-145368716D01*
X181653772Y-145368719D01*
X181653774Y-145368720D01*
X182599767Y-146033575D01*
X182635235Y-146055056D01*
X182670437Y-146076882D01*
X182676549Y-146080077D01*
X182676561Y-146080084D01*
X182676573Y-146080089D01*
X183704034Y-146610401D01*
X183742111Y-146626879D01*
X183779928Y-146643716D01*
X183786416Y-146646052D01*
X183786430Y-146646058D01*
X183786443Y-146646062D01*
X184876369Y-147032025D01*
X184916293Y-147043172D01*
X184956082Y-147054732D01*
X184962838Y-147056168D01*
X184962841Y-147056169D01*
X184962844Y-147056169D01*
X186095078Y-147290644D01*
X186136136Y-147296268D01*
X186177136Y-147302323D01*
X186184028Y-147302829D01*
X186722500Y-147339538D01*
X186722501Y-150449618D01*
X186609120Y-150563000D01*
X115155881Y-150563000D01*
X115042500Y-150449620D01*
X115042500Y-147355917D01*
X115121400Y-147352610D01*
X115154023Y-147349009D01*
X115186757Y-147346605D01*
X115193594Y-147345595D01*
X116336550Y-147170698D01*
X116376988Y-147161659D01*
X116417531Y-147153041D01*
X116424168Y-147151113D01*
X117532812Y-146822718D01*
X117571657Y-146808272D01*
X117610648Y-146794234D01*
X117616947Y-146791429D01*
X117616961Y-146791424D01*
X117616973Y-146791418D01*
X118670782Y-146315605D01*
X118707295Y-146296027D01*
X118744032Y-146276821D01*
X118749893Y-146273186D01*
X118749905Y-146273180D01*
X118749915Y-146273173D01*
X119729398Y-145658744D01*
X119762869Y-145634426D01*
X119796707Y-145610379D01*
X119802032Y-145605973D01*
X120689073Y-144864291D01*
X120718950Y-144835640D01*
X120749196Y-144807237D01*
X120753874Y-144802150D01*
X121532051Y-143946944D01*
X121557820Y-143914431D01*
X121583873Y-143882259D01*
X121587810Y-143876594D01*
X121587818Y-143876584D01*
X121587824Y-143876574D01*
X122242730Y-142923680D01*
X122263793Y-142888064D01*
X122285295Y-142852561D01*
X122288432Y-142846403D01*
X122557552Y-142311318D01*
X122980064Y-141804303D01*
X122994051Y-141783707D01*
X123003751Y-141760778D01*
X123008723Y-141737025D01*
X123089508Y-141009956D01*
X123217286Y-140636748D01*
X123228010Y-140596725D01*
X123239157Y-140556801D01*
X123240523Y-140550026D01*
X123463128Y-139415397D01*
X123468322Y-139374283D01*
X123473947Y-139333222D01*
X123474381Y-139326324D01*
X123540940Y-138171983D01*
X123540506Y-138130534D01*
X123540506Y-138089099D01*
X123540000Y-138082223D01*
X123540000Y-138082208D01*
X123539998Y-138082195D01*
X123519856Y-137826262D01*
X148449562Y-137826262D01*
X148568597Y-138083460D01*
X149936450Y-138083460D01*
X149936450Y-136715607D01*
X150190450Y-136715607D01*
X150190450Y-138083460D01*
X151558303Y-138083460D01*
X151677338Y-137826262D01*
X151571374Y-137518790D01*
X151407462Y-137237899D01*
X151191900Y-136994383D01*
X150932972Y-136797600D01*
X150640629Y-136655112D01*
X150447648Y-136596572D01*
X150190450Y-136715607D01*
X149936450Y-136715607D01*
X149679252Y-136596572D01*
X149371780Y-136702536D01*
X149090889Y-136866448D01*
X148847373Y-137082010D01*
X148650590Y-137340938D01*
X148508102Y-137633281D01*
X148449562Y-137826262D01*
X123519856Y-137826262D01*
X123488094Y-137422688D01*
X123508723Y-137237025D01*
X123509034Y-137212130D01*
X123504482Y-137187654D01*
X123499231Y-137172972D01*
X123461515Y-137084967D01*
X123449280Y-136929511D01*
X123443228Y-136888524D01*
X123437602Y-136847453D01*
X123436168Y-136840706D01*
X123436166Y-136840694D01*
X123436163Y-136840683D01*
X123189846Y-135710976D01*
X123178268Y-135671123D01*
X123167139Y-135631263D01*
X123164805Y-135624780D01*
X123164799Y-135624760D01*
X123164791Y-135624743D01*
X122767438Y-134538924D01*
X122750597Y-134501097D01*
X122734124Y-134463030D01*
X122730922Y-134456906D01*
X122730922Y-134456905D01*
X122730918Y-134456899D01*
X122189873Y-133435043D01*
X122168053Y-133399850D01*
X122146567Y-133364372D01*
X122142571Y-133358750D01*
X122142564Y-133358739D01*
X122142556Y-133358730D01*
X121467838Y-132419759D01*
X121441420Y-132387825D01*
X121415341Y-132355620D01*
X121410618Y-132350591D01*
X121410611Y-132350582D01*
X121410603Y-132350575D01*
X120614693Y-131511861D01*
X120584197Y-131483818D01*
X120553977Y-131455440D01*
X120548606Y-131451091D01*
X120058362Y-131058331D01*
X121710590Y-131058331D01*
X121710590Y-131387669D01*
X121774840Y-131710678D01*
X121900872Y-132014947D01*
X122083842Y-132288781D01*
X122316719Y-132521658D01*
X122590553Y-132704628D01*
X122894822Y-132830660D01*
X123217831Y-132894910D01*
X123547169Y-132894910D01*
X123870178Y-132830660D01*
X124174447Y-132704628D01*
X124448281Y-132521658D01*
X124681158Y-132288781D01*
X124864128Y-132014947D01*
X124990160Y-131710678D01*
X125054410Y-131387669D01*
X125054410Y-131058331D01*
X124990160Y-130735322D01*
X124864128Y-130431053D01*
X124681158Y-130157219D01*
X124448281Y-129924342D01*
X124174447Y-129741372D01*
X123870178Y-129615340D01*
X123547169Y-129551090D01*
X123217831Y-129551090D01*
X122894822Y-129615340D01*
X122590553Y-129741372D01*
X122316719Y-129924342D01*
X122083842Y-130157219D01*
X121900872Y-130431053D01*
X121774840Y-130735322D01*
X121710590Y-131058331D01*
X120058362Y-131058331D01*
X119646225Y-130728148D01*
X119612223Y-130704515D01*
X119578414Y-130680489D01*
X119572510Y-130676914D01*
X119572503Y-130676909D01*
X119572496Y-130676906D01*
X118580356Y-130083122D01*
X118543459Y-130064322D01*
X118506704Y-130045107D01*
X118500368Y-130042366D01*
X118500362Y-130042363D01*
X118500357Y-130042361D01*
X117436809Y-129588719D01*
X117397638Y-129575078D01*
X117358679Y-129561052D01*
X117352027Y-129559194D01*
X117352019Y-129559192D01*
X116236743Y-129254087D01*
X116196134Y-129245899D01*
X116155581Y-129237279D01*
X116148737Y-129236341D01*
X116148733Y-129236341D01*
X115546964Y-129157117D01*
X115434080Y-129106946D01*
X115410447Y-129099113D01*
X115385741Y-129096041D01*
X115357593Y-129098466D01*
X115255922Y-129118800D01*
X115002366Y-129085419D01*
X114961006Y-129082817D01*
X114919675Y-129079782D01*
X114912763Y-129079782D01*
X113756519Y-129085836D01*
X113715194Y-129088871D01*
X113673827Y-129091473D01*
X113666980Y-129092411D01*
X112522256Y-129255329D01*
X112481695Y-129263950D01*
X112441094Y-129272137D01*
X112434453Y-129273992D01*
X112434438Y-129273995D01*
X112434425Y-129274000D01*
X111322415Y-129590764D01*
X111283447Y-129604793D01*
X111244284Y-129618431D01*
X111237951Y-129621172D01*
X111237943Y-129621175D01*
X111237936Y-129621178D01*
X110179198Y-130085933D01*
X110142501Y-130105118D01*
X110105546Y-130123947D01*
X110099635Y-130127527D01*
X109113761Y-130731671D01*
X109079953Y-130755697D01*
X109045950Y-130779330D01*
X109040579Y-130783679D01*
X108145818Y-131516033D01*
X108115626Y-131544385D01*
X108085102Y-131572453D01*
X108080372Y-131577491D01*
X107293281Y-132424501D01*
X107267205Y-132456701D01*
X107240783Y-132488640D01*
X107236786Y-132494266D01*
X107236780Y-132494273D01*
X107236776Y-132494280D01*
X106571925Y-133440267D01*
X106550464Y-133475703D01*
X106528618Y-133510937D01*
X106525420Y-133517055D01*
X106525416Y-133517061D01*
X106525416Y-133517062D01*
X105995099Y-134544534D01*
X105978656Y-134582531D01*
X105961783Y-134620428D01*
X105959450Y-134626911D01*
X105959442Y-134626930D01*
X105959437Y-134626948D01*
X105573475Y-135716869D01*
X105562331Y-135756781D01*
X105550768Y-135796582D01*
X105549331Y-135803342D01*
X105314856Y-136935578D01*
X105309233Y-136976628D01*
X105303177Y-137017635D01*
X105302671Y-137024528D01*
X105265962Y-137563000D01*
X102155881Y-137563000D01*
X102042500Y-137449620D01*
X102042500Y-132042810D01*
X105142295Y-132042810D01*
X105219528Y-132290692D01*
X105482349Y-132415876D01*
X105764543Y-132487382D01*
X106055264Y-132502460D01*
X106343341Y-132460531D01*
X106617702Y-132363207D01*
X106753367Y-132290688D01*
X106830137Y-132042344D01*
X105986449Y-131198656D01*
X105142295Y-132042810D01*
X102042500Y-132042810D01*
X102042500Y-130950236D01*
X104503040Y-130950236D01*
X104518118Y-131240957D01*
X104589624Y-131523151D01*
X104714808Y-131785972D01*
X104962690Y-131863205D01*
X105806844Y-131019051D01*
X104963156Y-130175363D01*
X104714812Y-130252133D01*
X104642293Y-130387798D01*
X104544969Y-130662159D01*
X104503040Y-130950236D01*
X102042500Y-130950236D01*
X102042500Y-72395764D01*
X104803040Y-72395764D01*
X104844969Y-72683841D01*
X104942293Y-72958202D01*
X105014812Y-73093867D01*
X105263156Y-73170637D01*
X106106844Y-72326949D01*
X105262690Y-71482795D01*
X105014808Y-71560028D01*
X104889624Y-71822849D01*
X104818118Y-72105043D01*
X104803040Y-72395764D01*
X102042500Y-72395764D01*
X102042500Y-71303190D01*
X105442295Y-71303190D01*
X106286449Y-72147344D01*
X107130137Y-71303656D01*
X107053367Y-71055312D01*
X106917702Y-70982793D01*
X106643341Y-70885469D01*
X106355264Y-70843540D01*
X106064543Y-70858618D01*
X105782349Y-70930124D01*
X105519528Y-71055308D01*
X105442295Y-71303190D01*
X102042500Y-71303190D01*
X102042500Y-65996380D01*
X102155881Y-65883000D01*
X105249583Y-65883000D01*
X105252890Y-65961900D01*
X105256491Y-65994523D01*
X105258895Y-66027257D01*
X105259905Y-66034094D01*
X105434802Y-67177050D01*
X105443841Y-67217488D01*
X105452459Y-67258031D01*
X105454387Y-67264668D01*
X105782782Y-68373312D01*
X105797228Y-68412157D01*
X105811266Y-68451148D01*
X105814071Y-68457447D01*
X105814076Y-68457461D01*
X105814082Y-68457473D01*
X106289895Y-69511282D01*
X106309473Y-69547795D01*
X106328679Y-69584532D01*
X106332314Y-69590393D01*
X106332320Y-69590405D01*
X106332327Y-69590415D01*
X106946756Y-70569898D01*
X106971074Y-70603369D01*
X106995121Y-70637207D01*
X106999527Y-70642532D01*
X107741209Y-71529573D01*
X107769860Y-71559450D01*
X107798263Y-71589696D01*
X107803350Y-71594374D01*
X108658556Y-72372551D01*
X108691069Y-72398320D01*
X108723241Y-72424373D01*
X108728906Y-72428310D01*
X108728916Y-72428318D01*
X108728926Y-72428324D01*
X109681820Y-73083230D01*
X109717436Y-73104293D01*
X109752939Y-73125795D01*
X109759097Y-73128932D01*
X110792068Y-73648462D01*
X110830282Y-73664526D01*
X110868306Y-73680981D01*
X110874818Y-73683248D01*
X110874832Y-73683254D01*
X110874845Y-73683258D01*
X111329851Y-73839041D01*
X109852821Y-73839041D01*
X109815119Y-73768506D01*
X109735767Y-73671815D01*
X108533685Y-72469733D01*
X108436994Y-72390381D01*
X108326680Y-72331416D01*
X108206982Y-72295106D01*
X108082500Y-72282846D01*
X107958018Y-72295106D01*
X107838320Y-72331416D01*
X107763997Y-72371143D01*
X107769858Y-72258134D01*
X107727929Y-71970057D01*
X107630605Y-71695696D01*
X107558086Y-71560031D01*
X107309742Y-71483261D01*
X106466054Y-72326949D01*
X106480197Y-72341092D01*
X106300592Y-72520697D01*
X106286449Y-72506554D01*
X105442761Y-73350242D01*
X105519531Y-73598586D01*
X105655196Y-73671105D01*
X105929557Y-73768429D01*
X106217634Y-73810358D01*
X106330643Y-73804497D01*
X106290916Y-73878820D01*
X106254606Y-73998518D01*
X106242346Y-74123000D01*
X106254606Y-74247482D01*
X106290916Y-74367180D01*
X106349881Y-74477494D01*
X106429233Y-74574185D01*
X107393048Y-75538000D01*
X105925965Y-75538000D01*
X105882499Y-75533719D01*
X105839033Y-75538000D01*
X105839023Y-75538000D01*
X105709010Y-75550805D01*
X105542187Y-75601411D01*
X105388441Y-75683589D01*
X105388439Y-75683590D01*
X105388440Y-75683590D01*
X105287453Y-75766468D01*
X105287451Y-75766470D01*
X105253683Y-75794183D01*
X105225970Y-75827951D01*
X102687456Y-78366466D01*
X102653683Y-78394183D01*
X102543089Y-78528942D01*
X102460911Y-78682688D01*
X102410305Y-78849511D01*
X102397500Y-78979524D01*
X102397500Y-78979531D01*
X102393219Y-79023000D01*
X102397500Y-79066469D01*
X102397501Y-124679521D01*
X102393219Y-124723000D01*
X102410305Y-124896490D01*
X102460912Y-125063313D01*
X102543090Y-125217059D01*
X102625968Y-125318046D01*
X102625971Y-125318049D01*
X102653684Y-125351817D01*
X102687452Y-125379530D01*
X106106922Y-128799001D01*
X106049881Y-128868506D01*
X105990916Y-128978820D01*
X105954606Y-129098518D01*
X105942346Y-129223000D01*
X105954606Y-129347482D01*
X105990916Y-129467180D01*
X106030643Y-129541503D01*
X105917634Y-129535642D01*
X105629557Y-129577571D01*
X105355196Y-129674895D01*
X105219531Y-129747414D01*
X105142761Y-129995758D01*
X105986449Y-130839446D01*
X106000592Y-130825304D01*
X106180197Y-131004909D01*
X106166054Y-131019051D01*
X107009742Y-131862739D01*
X107258086Y-131785969D01*
X107330605Y-131650304D01*
X107427929Y-131375943D01*
X107469858Y-131087866D01*
X107463997Y-130974857D01*
X107538320Y-131014584D01*
X107658018Y-131050894D01*
X107782500Y-131063154D01*
X107906982Y-131050894D01*
X108026680Y-131014584D01*
X108136994Y-130955619D01*
X108233685Y-130876267D01*
X109435767Y-129674185D01*
X109515119Y-129577494D01*
X109574084Y-129467180D01*
X109610394Y-129347482D01*
X109622654Y-129223000D01*
X109610394Y-129098518D01*
X109574084Y-128978820D01*
X109515119Y-128868506D01*
X109435767Y-128771815D01*
X108233685Y-127569733D01*
X108136994Y-127490381D01*
X108026680Y-127431416D01*
X107906982Y-127395106D01*
X107782500Y-127382846D01*
X107658018Y-127395106D01*
X107538320Y-127431416D01*
X107428006Y-127490381D01*
X107358501Y-127547422D01*
X104167500Y-124356422D01*
X104167500Y-123648254D01*
X104209912Y-123750645D01*
X104447337Y-124105977D01*
X104749523Y-124408163D01*
X105104855Y-124645588D01*
X105499679Y-124809130D01*
X105918823Y-124892503D01*
X106346177Y-124892503D01*
X106765321Y-124809130D01*
X107160145Y-124645588D01*
X107515477Y-124408163D01*
X107817663Y-124105977D01*
X108055088Y-123750645D01*
X108218630Y-123355821D01*
X108302003Y-122936677D01*
X108302003Y-122509323D01*
X108218630Y-122090179D01*
X108055088Y-121695355D01*
X107817663Y-121340023D01*
X107515477Y-121037837D01*
X107160145Y-120800412D01*
X106765321Y-120636870D01*
X106346177Y-120553497D01*
X105918823Y-120553497D01*
X105499679Y-120636870D01*
X105104855Y-120800412D01*
X104749523Y-121037837D01*
X104447337Y-121340023D01*
X104209912Y-121695355D01*
X104167500Y-121797746D01*
X104167500Y-101373000D01*
X120394428Y-101373000D01*
X120406688Y-101497482D01*
X120442998Y-101617180D01*
X120501963Y-101727494D01*
X120581315Y-101824185D01*
X120678006Y-101903537D01*
X120788320Y-101962502D01*
X120908018Y-101998812D01*
X121032500Y-102011072D01*
X121496750Y-102008000D01*
X121655500Y-101849250D01*
X121655500Y-100750000D01*
X121909500Y-100750000D01*
X121909500Y-101849250D01*
X122068250Y-102008000D01*
X122532500Y-102011072D01*
X122656982Y-101998812D01*
X122776680Y-101962502D01*
X122886994Y-101903537D01*
X122983685Y-101824185D01*
X123063037Y-101727494D01*
X123122002Y-101617180D01*
X123158312Y-101497482D01*
X123170572Y-101373000D01*
X123167500Y-100908750D01*
X123008750Y-100750000D01*
X121909500Y-100750000D01*
X121655500Y-100750000D01*
X120556250Y-100750000D01*
X120397500Y-100908750D01*
X120394428Y-101373000D01*
X104167500Y-101373000D01*
X104167500Y-97458413D01*
X106526692Y-97458413D01*
X106622456Y-97722814D01*
X106912071Y-97863704D01*
X107223608Y-97945384D01*
X107545095Y-97964718D01*
X107864175Y-97920961D01*
X108168588Y-97815795D01*
X108342544Y-97722814D01*
X108438308Y-97458413D01*
X107482500Y-96502605D01*
X106526692Y-97458413D01*
X104167500Y-97458413D01*
X104167500Y-96385595D01*
X105840782Y-96385595D01*
X105884539Y-96704675D01*
X105989705Y-97009088D01*
X106082686Y-97183044D01*
X106347087Y-97278808D01*
X107302895Y-96323000D01*
X107662105Y-96323000D01*
X108617913Y-97278808D01*
X108882314Y-97183044D01*
X109023204Y-96893429D01*
X109104884Y-96581892D01*
X109124218Y-96260405D01*
X109080461Y-95941325D01*
X108975295Y-95636912D01*
X108882314Y-95462956D01*
X108617913Y-95367192D01*
X107662105Y-96323000D01*
X107302895Y-96323000D01*
X106347087Y-95367192D01*
X106082686Y-95462956D01*
X105941796Y-95752571D01*
X105860116Y-96064108D01*
X105840782Y-96385595D01*
X104167500Y-96385595D01*
X104167500Y-95187587D01*
X106526692Y-95187587D01*
X107482500Y-96143395D01*
X108438308Y-95187587D01*
X108342544Y-94923186D01*
X108052929Y-94782296D01*
X107741392Y-94700616D01*
X107419905Y-94681282D01*
X107100825Y-94725039D01*
X106796412Y-94830205D01*
X106622456Y-94923186D01*
X106526692Y-95187587D01*
X104167500Y-95187587D01*
X104167500Y-81648254D01*
X104209912Y-81750645D01*
X104447337Y-82105977D01*
X104749523Y-82408163D01*
X105104855Y-82645588D01*
X105499679Y-82809130D01*
X105918823Y-82892503D01*
X106346177Y-82892503D01*
X106765321Y-82809130D01*
X107160145Y-82645588D01*
X107515477Y-82408163D01*
X107817663Y-82105977D01*
X108055088Y-81750645D01*
X108218630Y-81355821D01*
X108302003Y-80936677D01*
X108302003Y-80509323D01*
X108218630Y-80090179D01*
X108055088Y-79695355D01*
X107817663Y-79340023D01*
X107515477Y-79037837D01*
X107160145Y-78800412D01*
X106765321Y-78636870D01*
X106346177Y-78553497D01*
X105918823Y-78553497D01*
X105499679Y-78636870D01*
X105104855Y-78800412D01*
X104749523Y-79037837D01*
X104447337Y-79340023D01*
X104209912Y-79695355D01*
X104167500Y-79797746D01*
X104167500Y-79389578D01*
X106249079Y-77308000D01*
X121069031Y-77308000D01*
X121112500Y-77312281D01*
X121155969Y-77308000D01*
X121155977Y-77308000D01*
X121285990Y-77295195D01*
X121327952Y-77282466D01*
X121157162Y-77453256D01*
X120956344Y-77753801D01*
X120818018Y-78087750D01*
X120747500Y-78442268D01*
X120747500Y-78803732D01*
X120818018Y-79158250D01*
X120956344Y-79492199D01*
X121157162Y-79792744D01*
X121412756Y-80048338D01*
X121713301Y-80249156D01*
X122047250Y-80387482D01*
X122401768Y-80458000D01*
X122763232Y-80458000D01*
X123117750Y-80387482D01*
X123451699Y-80249156D01*
X123752244Y-80048338D01*
X124007838Y-79792744D01*
X124208656Y-79492199D01*
X124218680Y-79468000D01*
X125178198Y-79468000D01*
X125290085Y-79635451D01*
X125507634Y-79853000D01*
X125290085Y-80070549D01*
X125109403Y-80340958D01*
X124984947Y-80641421D01*
X124921500Y-80960391D01*
X124921500Y-81285609D01*
X124984947Y-81604579D01*
X125109403Y-81905042D01*
X125290085Y-82175451D01*
X125507634Y-82393000D01*
X125290085Y-82610549D01*
X125109403Y-82880958D01*
X124984947Y-83181421D01*
X124921500Y-83500391D01*
X124921500Y-83825609D01*
X124984947Y-84144579D01*
X125109403Y-84445042D01*
X125290085Y-84715451D01*
X125507634Y-84933000D01*
X125290085Y-85150549D01*
X125223470Y-85250246D01*
X125099137Y-85238000D01*
X125099129Y-85238000D01*
X125055660Y-85233719D01*
X125012191Y-85238000D01*
X120725969Y-85238000D01*
X120682500Y-85233719D01*
X120639031Y-85238000D01*
X120639023Y-85238000D01*
X120523806Y-85249348D01*
X120509009Y-85250805D01*
X120458403Y-85266157D01*
X120342187Y-85301411D01*
X120188441Y-85383589D01*
X120188439Y-85383590D01*
X120188440Y-85383590D01*
X120087453Y-85466468D01*
X120087451Y-85466470D01*
X120053683Y-85494183D01*
X120025970Y-85527951D01*
X114487456Y-91066466D01*
X114453683Y-91094183D01*
X114343089Y-91228942D01*
X114260911Y-91382688D01*
X114210305Y-91549511D01*
X114197500Y-91679524D01*
X114197500Y-91679531D01*
X114193219Y-91723000D01*
X114197500Y-91766469D01*
X114197501Y-94684928D01*
X114082500Y-94684928D01*
X113958018Y-94697188D01*
X113838320Y-94733498D01*
X113728006Y-94792463D01*
X113631315Y-94871815D01*
X113551963Y-94968506D01*
X113492998Y-95078820D01*
X113456688Y-95198518D01*
X113444428Y-95323000D01*
X113444428Y-97323000D01*
X113456688Y-97447482D01*
X113492998Y-97567180D01*
X113551963Y-97677494D01*
X113631315Y-97774185D01*
X113728006Y-97853537D01*
X113838320Y-97912502D01*
X113958018Y-97948812D01*
X114082500Y-97961072D01*
X116082500Y-97961072D01*
X116206982Y-97948812D01*
X116326680Y-97912502D01*
X116436994Y-97853537D01*
X116533685Y-97774185D01*
X116613037Y-97677494D01*
X116672002Y-97567180D01*
X116708312Y-97447482D01*
X116720572Y-97323000D01*
X116720572Y-95323000D01*
X116708312Y-95198518D01*
X116672002Y-95078820D01*
X116613037Y-94968506D01*
X116533685Y-94871815D01*
X116436994Y-94792463D01*
X116326680Y-94733498D01*
X116206982Y-94697188D01*
X116082500Y-94684928D01*
X115967500Y-94684928D01*
X115967500Y-92089578D01*
X121049079Y-87008000D01*
X124764311Y-87008000D01*
X124795347Y-87024589D01*
X124962170Y-87075195D01*
X125092183Y-87088000D01*
X125092193Y-87088000D01*
X125135659Y-87092281D01*
X125178255Y-87088086D01*
X125290085Y-87255451D01*
X125520049Y-87485415D01*
X125790458Y-87666097D01*
X126090921Y-87790553D01*
X126409891Y-87854000D01*
X126735109Y-87854000D01*
X127054079Y-87790553D01*
X127354542Y-87666097D01*
X127624951Y-87485415D01*
X127854915Y-87255451D01*
X127997500Y-87042058D01*
X127997501Y-100976420D01*
X127462632Y-101511290D01*
X127265109Y-101472000D01*
X126939891Y-101472000D01*
X126620921Y-101535447D01*
X126320458Y-101659903D01*
X126050049Y-101840585D01*
X125820085Y-102070549D01*
X125639403Y-102340958D01*
X125514947Y-102641421D01*
X125467500Y-102879953D01*
X125467500Y-97325805D01*
X125471781Y-97282339D01*
X125467500Y-97238873D01*
X125467500Y-97238863D01*
X125454695Y-97108850D01*
X125404089Y-96942027D01*
X125321911Y-96788281D01*
X125291500Y-96751225D01*
X125239032Y-96687293D01*
X125239030Y-96687291D01*
X125211317Y-96653523D01*
X125177550Y-96625811D01*
X123499694Y-94947956D01*
X123471977Y-94914183D01*
X123337219Y-94803589D01*
X123183473Y-94721411D01*
X123016650Y-94670805D01*
X122886637Y-94658000D01*
X122886629Y-94658000D01*
X122852859Y-94654674D01*
X122665386Y-94467201D01*
X122438543Y-94315629D01*
X122186489Y-94211225D01*
X121918911Y-94158000D01*
X121646089Y-94158000D01*
X121378511Y-94211225D01*
X121126457Y-94315629D01*
X120899614Y-94467201D01*
X120706701Y-94660114D01*
X120555129Y-94886957D01*
X120450725Y-95139011D01*
X120397500Y-95406589D01*
X120397500Y-95446422D01*
X119967500Y-95016422D01*
X119967500Y-93492522D01*
X121081105Y-92378917D01*
X121157162Y-92492744D01*
X121412756Y-92748338D01*
X121713301Y-92949156D01*
X122047250Y-93087482D01*
X122401768Y-93158000D01*
X122763232Y-93158000D01*
X123117750Y-93087482D01*
X123451699Y-92949156D01*
X123752244Y-92748338D01*
X124007838Y-92492744D01*
X124208656Y-92192199D01*
X124346982Y-91858250D01*
X124417500Y-91503732D01*
X124417500Y-91142268D01*
X124346982Y-90787750D01*
X124208656Y-90453801D01*
X124007838Y-90153256D01*
X123752244Y-89897662D01*
X123451699Y-89696844D01*
X123117750Y-89558518D01*
X122763232Y-89488000D01*
X122401768Y-89488000D01*
X122047250Y-89558518D01*
X121713301Y-89696844D01*
X121412756Y-89897662D01*
X121157162Y-90153256D01*
X120966902Y-90438000D01*
X120928913Y-90438000D01*
X120885444Y-90433719D01*
X120841975Y-90438000D01*
X120841967Y-90438000D01*
X120711954Y-90450805D01*
X120545131Y-90501411D01*
X120391385Y-90583589D01*
X120290397Y-90666468D01*
X120290395Y-90666470D01*
X120256627Y-90694183D01*
X120228914Y-90727951D01*
X118487456Y-92469410D01*
X118453683Y-92497127D01*
X118343089Y-92631886D01*
X118260911Y-92785632D01*
X118225657Y-92901848D01*
X118211306Y-92949156D01*
X118210305Y-92952455D01*
X118197500Y-93082468D01*
X118197500Y-93082475D01*
X118193219Y-93125944D01*
X118197500Y-93169413D01*
X118197501Y-95339521D01*
X118193219Y-95383000D01*
X118210305Y-95556490D01*
X118260912Y-95723313D01*
X118343090Y-95877059D01*
X118425968Y-95978046D01*
X118425971Y-95978049D01*
X118453684Y-96011817D01*
X118487451Y-96039529D01*
X120397500Y-97949579D01*
X120397500Y-98219411D01*
X120450725Y-98486989D01*
X120555129Y-98739043D01*
X120706701Y-98965886D01*
X120899614Y-99158799D01*
X121015983Y-99236555D01*
X120908018Y-99247188D01*
X120788320Y-99283498D01*
X120678006Y-99342463D01*
X120581315Y-99421815D01*
X120501963Y-99518506D01*
X120442998Y-99628820D01*
X120406688Y-99748518D01*
X120394428Y-99873000D01*
X120397500Y-100337250D01*
X120556250Y-100496000D01*
X121655500Y-100496000D01*
X121655500Y-100476000D01*
X121909500Y-100476000D01*
X121909500Y-100496000D01*
X123008750Y-100496000D01*
X123167500Y-100337250D01*
X123170572Y-99873000D01*
X123158312Y-99748518D01*
X123122002Y-99628820D01*
X123063037Y-99518506D01*
X122983685Y-99421815D01*
X122886994Y-99342463D01*
X122776680Y-99283498D01*
X122656982Y-99247188D01*
X122549017Y-99236555D01*
X122665386Y-99158799D01*
X122858299Y-98965886D01*
X123009871Y-98739043D01*
X123114275Y-98486989D01*
X123167500Y-98219411D01*
X123167500Y-97946589D01*
X123114275Y-97679011D01*
X123009871Y-97426957D01*
X122858299Y-97200114D01*
X122665386Y-97007201D01*
X122438543Y-96855629D01*
X122335627Y-96813000D01*
X122438543Y-96770371D01*
X122665386Y-96618799D01*
X122666383Y-96617802D01*
X123697500Y-97648919D01*
X123697501Y-104579521D01*
X123693219Y-104623000D01*
X123710305Y-104796490D01*
X123760912Y-104963313D01*
X123843090Y-105117059D01*
X123925968Y-105218046D01*
X123925971Y-105218049D01*
X123953684Y-105251817D01*
X123987451Y-105279529D01*
X125025970Y-106318049D01*
X125053683Y-106351817D01*
X125087451Y-106379530D01*
X125087453Y-106379532D01*
X125188440Y-106462410D01*
X125188441Y-106462411D01*
X125342187Y-106544589D01*
X125458403Y-106579843D01*
X125509009Y-106595195D01*
X125523806Y-106596652D01*
X125639023Y-106608000D01*
X125639031Y-106608000D01*
X125682500Y-106612281D01*
X125725969Y-106608000D01*
X151639031Y-106608000D01*
X151682500Y-106612281D01*
X151725969Y-106608000D01*
X151725977Y-106608000D01*
X151855990Y-106595195D01*
X152022813Y-106544589D01*
X152176559Y-106462411D01*
X152311317Y-106351817D01*
X152339034Y-106318044D01*
X153865889Y-104791190D01*
X154201768Y-104858000D01*
X154563232Y-104858000D01*
X154917750Y-104787482D01*
X155251699Y-104649156D01*
X155552244Y-104448338D01*
X155807838Y-104192744D01*
X155998098Y-103908000D01*
X158691928Y-103908000D01*
X158691928Y-104423000D01*
X158704188Y-104547482D01*
X158740498Y-104667180D01*
X158799463Y-104777494D01*
X158878815Y-104874185D01*
X158975506Y-104953537D01*
X159085820Y-105012502D01*
X159205518Y-105048812D01*
X159330000Y-105061072D01*
X161235000Y-105061072D01*
X161359482Y-105048812D01*
X161479180Y-105012502D01*
X161589494Y-104953537D01*
X161686185Y-104874185D01*
X161765537Y-104777494D01*
X161810405Y-104693553D01*
X161913698Y-104778324D01*
X161910921Y-104787482D01*
X161910305Y-104789511D01*
X161897500Y-104919524D01*
X161897500Y-104919531D01*
X161893219Y-104963000D01*
X161897500Y-105006469D01*
X161897501Y-129256420D01*
X150915922Y-140238000D01*
X149904698Y-140238000D01*
X149918399Y-140169120D01*
X149918399Y-139843902D01*
X149894678Y-139724646D01*
X149936450Y-139705313D01*
X149936450Y-138517068D01*
X150049309Y-138404209D01*
X149982560Y-138337460D01*
X150190450Y-138337460D01*
X150190450Y-139705313D01*
X150447648Y-139824348D01*
X150755120Y-139718384D01*
X151036011Y-139554472D01*
X151279527Y-139338910D01*
X151476310Y-139079982D01*
X151618798Y-138787639D01*
X151677338Y-138594658D01*
X151558303Y-138337460D01*
X150190450Y-138337460D01*
X149982560Y-138337460D01*
X149869701Y-138224601D01*
X149756842Y-138337460D01*
X148568597Y-138337460D01*
X148549264Y-138379232D01*
X148430008Y-138355511D01*
X148104790Y-138355511D01*
X147785820Y-138418958D01*
X147485357Y-138543414D01*
X147214948Y-138724096D01*
X146984984Y-138954060D01*
X146804302Y-139224469D01*
X146679846Y-139524932D01*
X146616399Y-139843902D01*
X146616399Y-140151562D01*
X146308738Y-140151562D01*
X145989768Y-140215009D01*
X145689305Y-140339465D01*
X145418896Y-140520147D01*
X145188932Y-140750111D01*
X145008250Y-141020520D01*
X144883794Y-141320983D01*
X144820347Y-141639953D01*
X144820347Y-141965171D01*
X144883794Y-142284141D01*
X145008250Y-142584604D01*
X145188932Y-142855013D01*
X145418896Y-143084977D01*
X145689305Y-143265659D01*
X145989768Y-143390115D01*
X146308738Y-143453562D01*
X146633956Y-143453562D01*
X146952926Y-143390115D01*
X147253389Y-143265659D01*
X147523798Y-143084977D01*
X147753762Y-142855013D01*
X147934444Y-142584604D01*
X148058900Y-142284141D01*
X148122347Y-141965171D01*
X148122347Y-141657511D01*
X148430008Y-141657511D01*
X148627531Y-141618221D01*
X148727358Y-141718049D01*
X148755071Y-141751817D01*
X148788839Y-141779530D01*
X148788841Y-141779532D01*
X148830148Y-141813432D01*
X148889829Y-141862411D01*
X149043575Y-141944589D01*
X149210398Y-141995195D01*
X149340411Y-142008000D01*
X149340419Y-142008000D01*
X149383888Y-142012281D01*
X149427357Y-142008000D01*
X151239031Y-142008000D01*
X151282500Y-142012281D01*
X151325969Y-142008000D01*
X151325977Y-142008000D01*
X151455990Y-141995195D01*
X151622813Y-141944589D01*
X151776559Y-141862411D01*
X151911317Y-141751817D01*
X151939034Y-141718044D01*
X162598747Y-131058331D01*
X176710590Y-131058331D01*
X176710590Y-131387669D01*
X176774840Y-131710678D01*
X176900872Y-132014947D01*
X177083842Y-132288781D01*
X177316719Y-132521658D01*
X177590553Y-132704628D01*
X177894822Y-132830660D01*
X178217831Y-132894910D01*
X178547169Y-132894910D01*
X178870178Y-132830660D01*
X179174447Y-132704628D01*
X179448281Y-132521658D01*
X179681158Y-132288781D01*
X179864128Y-132014947D01*
X179990160Y-131710678D01*
X180054410Y-131387669D01*
X180054410Y-131058331D01*
X179990160Y-130735322D01*
X179864128Y-130431053D01*
X179681158Y-130157219D01*
X179448281Y-129924342D01*
X179174447Y-129741372D01*
X178870178Y-129615340D01*
X178547169Y-129551090D01*
X178217831Y-129551090D01*
X177894822Y-129615340D01*
X177590553Y-129741372D01*
X177316719Y-129924342D01*
X177083842Y-130157219D01*
X176900872Y-130431053D01*
X176774840Y-130735322D01*
X176710590Y-131058331D01*
X162598747Y-131058331D01*
X163377549Y-130279530D01*
X163411317Y-130251817D01*
X163444443Y-130211454D01*
X163501855Y-130141497D01*
X163521911Y-130117059D01*
X163604089Y-129963313D01*
X163648687Y-129816297D01*
X163654695Y-129796491D01*
X163657564Y-129767361D01*
X163667500Y-129666477D01*
X163667500Y-129666469D01*
X163671781Y-129623000D01*
X163667500Y-129579531D01*
X163667500Y-107012398D01*
X163698952Y-107038210D01*
X163728441Y-107062411D01*
X163882187Y-107144589D01*
X163998403Y-107179843D01*
X164049009Y-107195195D01*
X164063806Y-107196652D01*
X164179023Y-107208000D01*
X164179031Y-107208000D01*
X164222500Y-107212281D01*
X164265969Y-107208000D01*
X166239031Y-107208000D01*
X166282500Y-107212281D01*
X166325969Y-107208000D01*
X166325977Y-107208000D01*
X166455990Y-107195195D01*
X166622813Y-107144589D01*
X166776559Y-107062411D01*
X166911317Y-106951817D01*
X166939034Y-106918044D01*
X168377550Y-105479529D01*
X168411317Y-105451817D01*
X168439843Y-105417059D01*
X168521910Y-105317060D01*
X168521911Y-105317059D01*
X168604089Y-105163313D01*
X168654695Y-104996490D01*
X168667500Y-104866477D01*
X168667500Y-104866467D01*
X168671781Y-104823001D01*
X168667500Y-104779535D01*
X168667500Y-103190582D01*
X178972500Y-103190582D01*
X178972501Y-124255419D01*
X178975318Y-124284018D01*
X178975253Y-124293288D01*
X178976152Y-124302460D01*
X179006752Y-124593605D01*
X179018783Y-124652217D01*
X179029989Y-124710963D01*
X179032653Y-124719784D01*
X179119221Y-124999440D01*
X179142399Y-125054578D01*
X179164811Y-125110050D01*
X179169138Y-125118186D01*
X179255500Y-125277908D01*
X179255500Y-126223000D01*
X179257940Y-126247776D01*
X179265167Y-126271601D01*
X179276903Y-126293557D01*
X179292697Y-126312803D01*
X179311943Y-126328597D01*
X179333899Y-126340333D01*
X179357724Y-126347560D01*
X179382500Y-126350000D01*
X180766074Y-126350000D01*
X180767579Y-126350320D01*
X180776742Y-126351283D01*
X180776744Y-126351283D01*
X181068096Y-126379850D01*
X181068098Y-126379850D01*
X181100081Y-126383000D01*
X190664919Y-126383000D01*
X190693528Y-126380182D01*
X190702788Y-126380247D01*
X190711960Y-126379348D01*
X190991193Y-126350000D01*
X192382500Y-126350000D01*
X192407276Y-126347560D01*
X192431101Y-126340333D01*
X192453057Y-126328597D01*
X192472303Y-126312803D01*
X192488097Y-126293557D01*
X192499833Y-126271601D01*
X192507060Y-126247776D01*
X192509500Y-126223000D01*
X192509500Y-125278545D01*
X192602064Y-125104458D01*
X192624855Y-125049164D01*
X192648425Y-124994171D01*
X192651150Y-124985368D01*
X192735764Y-124705113D01*
X192747382Y-124646436D01*
X192759820Y-124587921D01*
X192760783Y-124578756D01*
X192789350Y-124287404D01*
X192789350Y-124287402D01*
X192792500Y-124255419D01*
X192792500Y-122509323D01*
X193462997Y-122509323D01*
X193462997Y-122936677D01*
X193546370Y-123355821D01*
X193709912Y-123750645D01*
X193947337Y-124105977D01*
X194249523Y-124408163D01*
X194604855Y-124645588D01*
X194999679Y-124809130D01*
X195418823Y-124892503D01*
X195846177Y-124892503D01*
X196265321Y-124809130D01*
X196660145Y-124645588D01*
X197015477Y-124408163D01*
X197317663Y-124105977D01*
X197555088Y-123750645D01*
X197718630Y-123355821D01*
X197802003Y-122936677D01*
X197802003Y-122509323D01*
X197718630Y-122090179D01*
X197555088Y-121695355D01*
X197317663Y-121340023D01*
X197015477Y-121037837D01*
X196660145Y-120800412D01*
X196265321Y-120636870D01*
X195846177Y-120553497D01*
X195418823Y-120553497D01*
X194999679Y-120636870D01*
X194604855Y-120800412D01*
X194249523Y-121037837D01*
X193947337Y-121340023D01*
X193709912Y-121695355D01*
X193546370Y-122090179D01*
X193462997Y-122509323D01*
X192792500Y-122509323D01*
X192792500Y-103190581D01*
X192789682Y-103161972D01*
X192789747Y-103152712D01*
X192788848Y-103143541D01*
X192758248Y-102852395D01*
X192746210Y-102793753D01*
X192735010Y-102735037D01*
X192732347Y-102726216D01*
X192645779Y-102446560D01*
X192622601Y-102391422D01*
X192600189Y-102335950D01*
X192595862Y-102327814D01*
X192509500Y-102168092D01*
X192509500Y-101223000D01*
X192507060Y-101198224D01*
X192499833Y-101174399D01*
X192488097Y-101152443D01*
X192472303Y-101133197D01*
X192453057Y-101117403D01*
X192431101Y-101105667D01*
X192407276Y-101098440D01*
X192382500Y-101096000D01*
X190998926Y-101096000D01*
X190997421Y-101095680D01*
X190988258Y-101094717D01*
X190988256Y-101094717D01*
X190696904Y-101066150D01*
X190696902Y-101066150D01*
X190664919Y-101063000D01*
X181100081Y-101063000D01*
X181071472Y-101065818D01*
X181062212Y-101065753D01*
X181053041Y-101066652D01*
X180773807Y-101096000D01*
X179382500Y-101096000D01*
X179357724Y-101098440D01*
X179333899Y-101105667D01*
X179311943Y-101117403D01*
X179292697Y-101133197D01*
X179276903Y-101152443D01*
X179265167Y-101174399D01*
X179257940Y-101198224D01*
X179255500Y-101223000D01*
X179255500Y-102167455D01*
X179162936Y-102341542D01*
X179140145Y-102396836D01*
X179116575Y-102451829D01*
X179113850Y-102460632D01*
X179029236Y-102740886D01*
X179017616Y-102799571D01*
X179005180Y-102858079D01*
X179004217Y-102867244D01*
X178975650Y-103158596D01*
X178972500Y-103190582D01*
X168667500Y-103190582D01*
X168667500Y-99166465D01*
X168671781Y-99122999D01*
X168667500Y-99079533D01*
X168667500Y-99079523D01*
X168654695Y-98949510D01*
X168604089Y-98782687D01*
X168521911Y-98628941D01*
X168411317Y-98494183D01*
X168377549Y-98466470D01*
X167234079Y-97323000D01*
X181444428Y-97323000D01*
X181444428Y-99723000D01*
X181456688Y-99847482D01*
X181492998Y-99967180D01*
X181551963Y-100077494D01*
X181631315Y-100174185D01*
X181728006Y-100253537D01*
X181838320Y-100312502D01*
X181958018Y-100348812D01*
X182082500Y-100361072D01*
X184482500Y-100361072D01*
X184606982Y-100348812D01*
X184726680Y-100312502D01*
X184836994Y-100253537D01*
X184933685Y-100174185D01*
X185013037Y-100077494D01*
X185072002Y-99967180D01*
X185108312Y-99847482D01*
X185112891Y-99800980D01*
X187184126Y-99800980D01*
X187304014Y-100085836D01*
X187627710Y-100246699D01*
X187976569Y-100341322D01*
X188337184Y-100366067D01*
X188695698Y-100319985D01*
X189038333Y-100204846D01*
X189260986Y-100085836D01*
X189380874Y-99800980D01*
X188282500Y-98702605D01*
X187184126Y-99800980D01*
X185112891Y-99800980D01*
X185120572Y-99723000D01*
X185120572Y-98577684D01*
X186439433Y-98577684D01*
X186485515Y-98936198D01*
X186600654Y-99278833D01*
X186719664Y-99501486D01*
X187004520Y-99621374D01*
X188102895Y-98523000D01*
X188462105Y-98523000D01*
X189560480Y-99621374D01*
X189845336Y-99501486D01*
X190006199Y-99177790D01*
X190100822Y-98828931D01*
X190125567Y-98468316D01*
X190079485Y-98109802D01*
X189964346Y-97767167D01*
X189845336Y-97544514D01*
X189560480Y-97424626D01*
X188462105Y-98523000D01*
X188102895Y-98523000D01*
X187004520Y-97424626D01*
X186719664Y-97544514D01*
X186558801Y-97868210D01*
X186464178Y-98217069D01*
X186439433Y-98577684D01*
X185120572Y-98577684D01*
X185120572Y-97323000D01*
X185112892Y-97245020D01*
X187184126Y-97245020D01*
X188282500Y-98343395D01*
X189380874Y-97245020D01*
X189260986Y-96960164D01*
X188937290Y-96799301D01*
X188588431Y-96704678D01*
X188227816Y-96679933D01*
X187869302Y-96726015D01*
X187526667Y-96841154D01*
X187304014Y-96960164D01*
X187184126Y-97245020D01*
X185112892Y-97245020D01*
X185108312Y-97198518D01*
X185072002Y-97078820D01*
X185013037Y-96968506D01*
X184933685Y-96871815D01*
X184836994Y-96792463D01*
X184726680Y-96733498D01*
X184606982Y-96697188D01*
X184482500Y-96684928D01*
X182082500Y-96684928D01*
X181958018Y-96697188D01*
X181838320Y-96733498D01*
X181728006Y-96792463D01*
X181631315Y-96871815D01*
X181551963Y-96968506D01*
X181492998Y-97078820D01*
X181456688Y-97198518D01*
X181444428Y-97323000D01*
X167234079Y-97323000D01*
X156439177Y-86528098D01*
X160437500Y-86528098D01*
X160437500Y-86997902D01*
X160529154Y-87458679D01*
X160708940Y-87892721D01*
X160969950Y-88283349D01*
X161302151Y-88615550D01*
X161692779Y-88876560D01*
X162126821Y-89056346D01*
X162587598Y-89148000D01*
X163057402Y-89148000D01*
X163518179Y-89056346D01*
X163952221Y-88876560D01*
X164342849Y-88615550D01*
X164675050Y-88283349D01*
X164936060Y-87892721D01*
X165115846Y-87458679D01*
X165207500Y-86997902D01*
X165207500Y-86528098D01*
X165115846Y-86067321D01*
X164936060Y-85633279D01*
X164675050Y-85242651D01*
X164342849Y-84910450D01*
X163952221Y-84649440D01*
X163518179Y-84469654D01*
X163057402Y-84378000D01*
X162587598Y-84378000D01*
X162126821Y-84469654D01*
X161692779Y-84649440D01*
X161302151Y-84910450D01*
X160969950Y-85242651D01*
X160708940Y-85633279D01*
X160529154Y-86067321D01*
X160437500Y-86528098D01*
X156439177Y-86528098D01*
X154540552Y-84629474D01*
X154540552Y-79389823D01*
X159360282Y-79389823D01*
X159457978Y-79655860D01*
X159750321Y-79798348D01*
X160064844Y-79881064D01*
X160389462Y-79900831D01*
X160711698Y-79856888D01*
X161019170Y-79750924D01*
X161197022Y-79655860D01*
X161294718Y-79389823D01*
X160327500Y-78422605D01*
X159360282Y-79389823D01*
X154540552Y-79389823D01*
X154540552Y-78304962D01*
X158669669Y-78304962D01*
X158713612Y-78627198D01*
X158819576Y-78934670D01*
X158914640Y-79112522D01*
X159180677Y-79210218D01*
X160147895Y-78243000D01*
X160507105Y-78243000D01*
X161474323Y-79210218D01*
X161740360Y-79112522D01*
X161882848Y-78820179D01*
X161911951Y-78709517D01*
X161914947Y-78724579D01*
X162039403Y-79025042D01*
X162220085Y-79295451D01*
X162450049Y-79525415D01*
X162720458Y-79706097D01*
X163020921Y-79830553D01*
X163339891Y-79894000D01*
X163665109Y-79894000D01*
X163862632Y-79854710D01*
X170057500Y-86049579D01*
X170057500Y-86269260D01*
X170114568Y-86556158D01*
X170226510Y-86826411D01*
X170389025Y-87069632D01*
X170595868Y-87276475D01*
X170839089Y-87438990D01*
X171109342Y-87550932D01*
X171396240Y-87608000D01*
X171688760Y-87608000D01*
X171975658Y-87550932D01*
X172245911Y-87438990D01*
X172489132Y-87276475D01*
X172620987Y-87144620D01*
X172642998Y-87217180D01*
X172701963Y-87327494D01*
X172781315Y-87424185D01*
X172878006Y-87503537D01*
X172988320Y-87562502D01*
X173108018Y-87598812D01*
X173232500Y-87611072D01*
X174932500Y-87611072D01*
X175056982Y-87598812D01*
X175176680Y-87562502D01*
X175286994Y-87503537D01*
X175383685Y-87424185D01*
X175463037Y-87327494D01*
X175522002Y-87217180D01*
X175558312Y-87097482D01*
X175570572Y-86973000D01*
X175570572Y-85273000D01*
X175558312Y-85148518D01*
X175522002Y-85028820D01*
X175463037Y-84918506D01*
X175383685Y-84821815D01*
X175286994Y-84742463D01*
X175176680Y-84683498D01*
X175056982Y-84647188D01*
X174932500Y-84634928D01*
X173846007Y-84634928D01*
X172007500Y-82796422D01*
X172007500Y-80509323D01*
X193462997Y-80509323D01*
X193462997Y-80936677D01*
X193546370Y-81355821D01*
X193709912Y-81750645D01*
X193947337Y-82105977D01*
X194249523Y-82408163D01*
X194604855Y-82645588D01*
X194999679Y-82809130D01*
X195418823Y-82892503D01*
X195846177Y-82892503D01*
X196265321Y-82809130D01*
X196660145Y-82645588D01*
X197015477Y-82408163D01*
X197317663Y-82105977D01*
X197555088Y-81750645D01*
X197718630Y-81355821D01*
X197802003Y-80936677D01*
X197802003Y-80509323D01*
X197718630Y-80090179D01*
X197555088Y-79695355D01*
X197317663Y-79340023D01*
X197015477Y-79037837D01*
X196660145Y-78800412D01*
X196265321Y-78636870D01*
X195846177Y-78553497D01*
X195418823Y-78553497D01*
X194999679Y-78636870D01*
X194604855Y-78800412D01*
X194249523Y-79037837D01*
X193947337Y-79340023D01*
X193709912Y-79695355D01*
X193546370Y-80090179D01*
X193462997Y-80509323D01*
X172007500Y-80509323D01*
X172007500Y-79637302D01*
X172174951Y-79525415D01*
X172404915Y-79295451D01*
X172585597Y-79025042D01*
X172710000Y-78724707D01*
X172834403Y-79025042D01*
X173015085Y-79295451D01*
X173245049Y-79525415D01*
X173515458Y-79706097D01*
X173815921Y-79830553D01*
X174134891Y-79894000D01*
X174460109Y-79894000D01*
X174779079Y-79830553D01*
X175079542Y-79706097D01*
X175349951Y-79525415D01*
X175579915Y-79295451D01*
X175760597Y-79025042D01*
X175885053Y-78724579D01*
X175948500Y-78405609D01*
X175948500Y-78080391D01*
X175885053Y-77761421D01*
X175760597Y-77460958D01*
X175579915Y-77190549D01*
X175349951Y-76960585D01*
X175079542Y-76779903D01*
X174779079Y-76655447D01*
X174460109Y-76592000D01*
X174134891Y-76592000D01*
X173815921Y-76655447D01*
X173515458Y-76779903D01*
X173245049Y-76960585D01*
X173015085Y-77190549D01*
X172834403Y-77460958D01*
X172710000Y-77761293D01*
X172585597Y-77460958D01*
X172404915Y-77190549D01*
X172174951Y-76960585D01*
X171904542Y-76779903D01*
X171604079Y-76655447D01*
X171285109Y-76592000D01*
X170959891Y-76592000D01*
X170640921Y-76655447D01*
X170340458Y-76779903D01*
X170070049Y-76960585D01*
X169840085Y-77190549D01*
X169659403Y-77460958D01*
X169534947Y-77761421D01*
X169471500Y-78080391D01*
X169471500Y-78405609D01*
X169534947Y-78724579D01*
X169659403Y-79025042D01*
X169840085Y-79295451D01*
X170070049Y-79525415D01*
X170237500Y-79637303D01*
X170237501Y-83119521D01*
X170233219Y-83163000D01*
X170250305Y-83336490D01*
X170300912Y-83503313D01*
X170383090Y-83657059D01*
X170465968Y-83758046D01*
X170465971Y-83758049D01*
X170493684Y-83791817D01*
X170527451Y-83819529D01*
X171354270Y-84646348D01*
X171190086Y-84679007D01*
X165114210Y-78603132D01*
X165153500Y-78405609D01*
X165153500Y-78080391D01*
X165090053Y-77761421D01*
X164965597Y-77460958D01*
X164784915Y-77190549D01*
X164554951Y-76960585D01*
X164284542Y-76779903D01*
X163984079Y-76655447D01*
X163665109Y-76592000D01*
X163339891Y-76592000D01*
X163020921Y-76655447D01*
X162720458Y-76779903D01*
X162450049Y-76960585D01*
X162220085Y-77190549D01*
X162039403Y-77460958D01*
X161914947Y-77761421D01*
X161912342Y-77774519D01*
X161835424Y-77551330D01*
X161740360Y-77373478D01*
X161474323Y-77275782D01*
X160507105Y-78243000D01*
X160147895Y-78243000D01*
X159180677Y-77275782D01*
X158914640Y-77373478D01*
X158772152Y-77665821D01*
X158689436Y-77980344D01*
X158669669Y-78304962D01*
X154540552Y-78304962D01*
X154540552Y-77096177D01*
X159360282Y-77096177D01*
X160327500Y-78063395D01*
X161294718Y-77096177D01*
X161197022Y-76830140D01*
X160904679Y-76687652D01*
X160590156Y-76604936D01*
X160265538Y-76585169D01*
X159943302Y-76629112D01*
X159635830Y-76735076D01*
X159457978Y-76830140D01*
X159360282Y-77096177D01*
X154540552Y-77096177D01*
X154540552Y-65966662D01*
X154708003Y-65854775D01*
X154937967Y-65624811D01*
X155118649Y-65354402D01*
X155243105Y-65053939D01*
X155306552Y-64734969D01*
X155306552Y-64427308D01*
X155614213Y-64427308D01*
X155933183Y-64363861D01*
X156233646Y-64239405D01*
X156504055Y-64058723D01*
X156734019Y-63828759D01*
X156914701Y-63558350D01*
X157039157Y-63257887D01*
X157102604Y-62938917D01*
X157102604Y-62613699D01*
X157039157Y-62294729D01*
X156914701Y-61994266D01*
X156734019Y-61723857D01*
X156504055Y-61493893D01*
X156233646Y-61313211D01*
X155933183Y-61188755D01*
X155614213Y-61125308D01*
X155288995Y-61125308D01*
X154970025Y-61188755D01*
X154669562Y-61313211D01*
X154399153Y-61493893D01*
X154169189Y-61723857D01*
X153988507Y-61994266D01*
X153864051Y-62294729D01*
X153800604Y-62613699D01*
X153800604Y-62921360D01*
X153492943Y-62921360D01*
X153173973Y-62984807D01*
X152873510Y-63109263D01*
X152603101Y-63289945D01*
X152373137Y-63519909D01*
X152192455Y-63790318D01*
X152067999Y-64090781D01*
X152004552Y-64409751D01*
X152004552Y-64734969D01*
X152028273Y-64854225D01*
X151986501Y-64873558D01*
X151986501Y-66061803D01*
X151873642Y-66174662D01*
X152053250Y-66354270D01*
X152166109Y-66241411D01*
X152770553Y-66241411D01*
X152770553Y-66495411D01*
X152166109Y-66495411D01*
X152053250Y-66382552D01*
X151873642Y-66562160D01*
X151986501Y-66675019D01*
X151986501Y-67863264D01*
X152243699Y-67982299D01*
X152551171Y-67876335D01*
X152770553Y-67748316D01*
X152770552Y-84952583D01*
X152766271Y-84996052D01*
X152770552Y-85039521D01*
X152770552Y-85039528D01*
X152783357Y-85169541D01*
X152833963Y-85336364D01*
X152916141Y-85490110D01*
X153026735Y-85624869D01*
X153060508Y-85652586D01*
X166897501Y-99489580D01*
X166897500Y-102966950D01*
X166836255Y-102765051D01*
X166688845Y-102489265D01*
X166490463Y-102247537D01*
X166248734Y-102049155D01*
X166247500Y-102048495D01*
X166247500Y-101520205D01*
X166254694Y-101496490D01*
X166271781Y-101323001D01*
X166269469Y-101299523D01*
X166254694Y-101149509D01*
X166204088Y-100982686D01*
X166121910Y-100828940D01*
X166039032Y-100727953D01*
X166039027Y-100727948D01*
X166011317Y-100694183D01*
X165977552Y-100666473D01*
X156150689Y-90839611D01*
X156217500Y-90503732D01*
X156217500Y-90142268D01*
X156146982Y-89787750D01*
X156008656Y-89453801D01*
X155807838Y-89153256D01*
X155552244Y-88897662D01*
X155251699Y-88696844D01*
X154917750Y-88558518D01*
X154563232Y-88488000D01*
X154201768Y-88488000D01*
X153865889Y-88554810D01*
X150467500Y-85156422D01*
X150467500Y-67258735D01*
X150515489Y-67340972D01*
X150731051Y-67584488D01*
X150989979Y-67781271D01*
X151282322Y-67923759D01*
X151475303Y-67982299D01*
X151732501Y-67863264D01*
X151732501Y-66495411D01*
X150467500Y-66495411D01*
X150467500Y-66241411D01*
X151732501Y-66241411D01*
X151732501Y-64873558D01*
X151475303Y-64754523D01*
X151167831Y-64860487D01*
X150886940Y-65024399D01*
X150643424Y-65239961D01*
X150467500Y-65471443D01*
X150467500Y-61966469D01*
X150471781Y-61923000D01*
X150467500Y-61879531D01*
X150467500Y-61879523D01*
X150454695Y-61749510D01*
X150404089Y-61582687D01*
X150321911Y-61428941D01*
X150309678Y-61414035D01*
X150239032Y-61327953D01*
X150239030Y-61327951D01*
X150211317Y-61294183D01*
X150177550Y-61266471D01*
X146639032Y-57727954D01*
X146611317Y-57694183D01*
X146476559Y-57583589D01*
X146322813Y-57501411D01*
X146155990Y-57450805D01*
X146025977Y-57438000D01*
X146025969Y-57438000D01*
X145982500Y-57433719D01*
X145939031Y-57438000D01*
X143578409Y-57438000D01*
X143422830Y-57390805D01*
X143292817Y-57378000D01*
X143292809Y-57378000D01*
X143249340Y-57373719D01*
X143206745Y-57377914D01*
X143094915Y-57210549D01*
X142864951Y-56980585D01*
X142594542Y-56799903D01*
X142294079Y-56675447D01*
X141975109Y-56612000D01*
X141934130Y-56612000D01*
X142005597Y-56505042D01*
X142130053Y-56204579D01*
X142193500Y-55885609D01*
X142193500Y-55560391D01*
X142130053Y-55241421D01*
X142121343Y-55220391D01*
X158676500Y-55220391D01*
X158676500Y-55545609D01*
X158739947Y-55864579D01*
X158864403Y-56165042D01*
X159045085Y-56435451D01*
X159275049Y-56665415D01*
X159545458Y-56846097D01*
X159845921Y-56970553D01*
X160164891Y-57034000D01*
X160490109Y-57034000D01*
X160809079Y-56970553D01*
X161109542Y-56846097D01*
X161379951Y-56665415D01*
X161609915Y-56435451D01*
X161790597Y-56165042D01*
X161915053Y-55864579D01*
X161978500Y-55545609D01*
X161978500Y-55220391D01*
X172646500Y-55220391D01*
X172646500Y-55545609D01*
X172709947Y-55864579D01*
X172834403Y-56165042D01*
X173015085Y-56435451D01*
X173245049Y-56665415D01*
X173515458Y-56846097D01*
X173815921Y-56970553D01*
X174134891Y-57034000D01*
X174460109Y-57034000D01*
X174779079Y-56970553D01*
X175079542Y-56846097D01*
X175349951Y-56665415D01*
X175579915Y-56435451D01*
X175760597Y-56165042D01*
X175885053Y-55864579D01*
X175948500Y-55545609D01*
X175948500Y-55220391D01*
X175885053Y-54901421D01*
X175760597Y-54600958D01*
X175579915Y-54330549D01*
X175349951Y-54100585D01*
X175079542Y-53919903D01*
X174779079Y-53795447D01*
X174460109Y-53732000D01*
X174134891Y-53732000D01*
X173815921Y-53795447D01*
X173515458Y-53919903D01*
X173245049Y-54100585D01*
X173015085Y-54330549D01*
X172834403Y-54600958D01*
X172709947Y-54901421D01*
X172646500Y-55220391D01*
X161978500Y-55220391D01*
X161915053Y-54901421D01*
X161790597Y-54600958D01*
X161609915Y-54330549D01*
X161379951Y-54100585D01*
X161109542Y-53919903D01*
X160809079Y-53795447D01*
X160490109Y-53732000D01*
X160164891Y-53732000D01*
X159845921Y-53795447D01*
X159545458Y-53919903D01*
X159275049Y-54100585D01*
X159045085Y-54330549D01*
X158864403Y-54600958D01*
X158739947Y-54901421D01*
X158676500Y-55220391D01*
X142121343Y-55220391D01*
X142005597Y-54940958D01*
X141824915Y-54670549D01*
X141594951Y-54440585D01*
X141324542Y-54259903D01*
X141024079Y-54135447D01*
X140705109Y-54072000D01*
X140379891Y-54072000D01*
X140060921Y-54135447D01*
X139760458Y-54259903D01*
X139490049Y-54440585D01*
X139272500Y-54658134D01*
X139054951Y-54440585D01*
X138784542Y-54259903D01*
X138484079Y-54135447D01*
X138165109Y-54072000D01*
X137839891Y-54072000D01*
X137520921Y-54135447D01*
X137220458Y-54259903D01*
X136950049Y-54440585D01*
X136732500Y-54658134D01*
X136514951Y-54440585D01*
X136244542Y-54259903D01*
X135944079Y-54135447D01*
X135625109Y-54072000D01*
X135299891Y-54072000D01*
X134980921Y-54135447D01*
X134680458Y-54259903D01*
X134410049Y-54440585D01*
X134192500Y-54658134D01*
X133974951Y-54440585D01*
X133704542Y-54259903D01*
X133404079Y-54135447D01*
X133085109Y-54072000D01*
X132759891Y-54072000D01*
X132440921Y-54135447D01*
X132140458Y-54259903D01*
X131870049Y-54440585D01*
X131652500Y-54658134D01*
X131434951Y-54440585D01*
X131164542Y-54259903D01*
X130864079Y-54135447D01*
X130545109Y-54072000D01*
X130219891Y-54072000D01*
X129900921Y-54135447D01*
X129600458Y-54259903D01*
X129330049Y-54440585D01*
X129112500Y-54658134D01*
X128894951Y-54440585D01*
X128624542Y-54259903D01*
X128324079Y-54135447D01*
X128005109Y-54072000D01*
X127679891Y-54072000D01*
X127360921Y-54135447D01*
X127060458Y-54259903D01*
X126790049Y-54440585D01*
X126560085Y-54670549D01*
X126379403Y-54940958D01*
X126254947Y-55241421D01*
X126191500Y-55560391D01*
X126191500Y-55885609D01*
X126254947Y-56204579D01*
X126379403Y-56505042D01*
X126450870Y-56612000D01*
X126409891Y-56612000D01*
X126090921Y-56675447D01*
X125790458Y-56799903D01*
X125520049Y-56980585D01*
X125290085Y-57210549D01*
X125109403Y-57480958D01*
X124984947Y-57781421D01*
X124921500Y-58100391D01*
X124921500Y-58425609D01*
X124984947Y-58744579D01*
X125109403Y-59045042D01*
X125290085Y-59315451D01*
X125507634Y-59533000D01*
X125290085Y-59750549D01*
X125109403Y-60020958D01*
X124984947Y-60321421D01*
X124921500Y-60640391D01*
X124921500Y-60965609D01*
X124984947Y-61284579D01*
X125109403Y-61585042D01*
X125290085Y-61855451D01*
X125507634Y-62073000D01*
X125290085Y-62290549D01*
X125109403Y-62560958D01*
X124984947Y-62861421D01*
X124921500Y-63180391D01*
X124921500Y-63505609D01*
X124984947Y-63824579D01*
X125109403Y-64125042D01*
X125290085Y-64395451D01*
X125520049Y-64625415D01*
X125621149Y-64692968D01*
X125605282Y-64736177D01*
X126572500Y-65703395D01*
X127539718Y-64736177D01*
X127523851Y-64692968D01*
X127624951Y-64625415D01*
X127854915Y-64395451D01*
X128035597Y-64125042D01*
X128160053Y-63824579D01*
X128223500Y-63505609D01*
X128223500Y-63180391D01*
X128160053Y-62861421D01*
X128035597Y-62560958D01*
X127854915Y-62290549D01*
X127637366Y-62073000D01*
X127854915Y-61855451D01*
X128035597Y-61585042D01*
X128160053Y-61284579D01*
X128223500Y-60965609D01*
X128223500Y-60864962D01*
X140154669Y-60864962D01*
X140198612Y-61187198D01*
X140304576Y-61494670D01*
X140399640Y-61672522D01*
X140665677Y-61770218D01*
X141632895Y-60803000D01*
X141992105Y-60803000D01*
X142959323Y-61770218D01*
X143225360Y-61672522D01*
X143367848Y-61380179D01*
X143450564Y-61065656D01*
X143470331Y-60741038D01*
X143426388Y-60418802D01*
X143320424Y-60111330D01*
X143225360Y-59933478D01*
X143060672Y-59873000D01*
X143894428Y-59873000D01*
X143897500Y-60437250D01*
X144056250Y-60596000D01*
X145255500Y-60596000D01*
X145255500Y-59396750D01*
X145096750Y-59238000D01*
X144532500Y-59234928D01*
X144408018Y-59247188D01*
X144288320Y-59283498D01*
X144178006Y-59342463D01*
X144081315Y-59421815D01*
X144001963Y-59518506D01*
X143942998Y-59628820D01*
X143906688Y-59748518D01*
X143894428Y-59873000D01*
X143060672Y-59873000D01*
X142959323Y-59835782D01*
X141992105Y-60803000D01*
X141632895Y-60803000D01*
X140665677Y-59835782D01*
X140399640Y-59933478D01*
X140257152Y-60225821D01*
X140174436Y-60540344D01*
X140154669Y-60864962D01*
X128223500Y-60864962D01*
X128223500Y-60640391D01*
X128160053Y-60321421D01*
X128035597Y-60020958D01*
X127854915Y-59750549D01*
X127637366Y-59533000D01*
X127854915Y-59315451D01*
X128035597Y-59045042D01*
X128160053Y-58744579D01*
X128223500Y-58425609D01*
X128223500Y-58100391D01*
X128160053Y-57781421D01*
X128035597Y-57480958D01*
X127964130Y-57374000D01*
X128005109Y-57374000D01*
X128324079Y-57310553D01*
X128624542Y-57186097D01*
X128894951Y-57005415D01*
X129112500Y-56787866D01*
X129330049Y-57005415D01*
X129600458Y-57186097D01*
X129900921Y-57310553D01*
X130219891Y-57374000D01*
X130545109Y-57374000D01*
X130864079Y-57310553D01*
X131164542Y-57186097D01*
X131434951Y-57005415D01*
X131652500Y-56787866D01*
X131870049Y-57005415D01*
X132140458Y-57186097D01*
X132440921Y-57310553D01*
X132759891Y-57374000D01*
X133085109Y-57374000D01*
X133404079Y-57310553D01*
X133704542Y-57186097D01*
X133974951Y-57005415D01*
X134192500Y-56787866D01*
X134410049Y-57005415D01*
X134680458Y-57186097D01*
X134980921Y-57310553D01*
X135299891Y-57374000D01*
X135625109Y-57374000D01*
X135944079Y-57310553D01*
X136244542Y-57186097D01*
X136514951Y-57005415D01*
X136732500Y-56787866D01*
X136950049Y-57005415D01*
X137220458Y-57186097D01*
X137520921Y-57310553D01*
X137839891Y-57374000D01*
X138165109Y-57374000D01*
X138484079Y-57310553D01*
X138784542Y-57186097D01*
X139054951Y-57005415D01*
X139272500Y-56787866D01*
X139490049Y-57005415D01*
X139760458Y-57186097D01*
X140060921Y-57310553D01*
X140379891Y-57374000D01*
X140420870Y-57374000D01*
X140349403Y-57480958D01*
X140224947Y-57781421D01*
X140161500Y-58100391D01*
X140161500Y-58425609D01*
X140224947Y-58744579D01*
X140349403Y-59045042D01*
X140530085Y-59315451D01*
X140760049Y-59545415D01*
X140861149Y-59612968D01*
X140845282Y-59656177D01*
X141812500Y-60623395D01*
X142779718Y-59656177D01*
X142763851Y-59612968D01*
X142864951Y-59545415D01*
X143094915Y-59315451D01*
X143172834Y-59198838D01*
X143265863Y-59208000D01*
X143265871Y-59208000D01*
X143309340Y-59212281D01*
X143352809Y-59208000D01*
X145615922Y-59208000D01*
X145657086Y-59249164D01*
X145509500Y-59396750D01*
X145509500Y-60596000D01*
X146708750Y-60596000D01*
X146856336Y-60448414D01*
X148697500Y-62289579D01*
X148697501Y-85479521D01*
X148693219Y-85523000D01*
X148710305Y-85696490D01*
X148760912Y-85863313D01*
X148843090Y-86017059D01*
X148925968Y-86118046D01*
X148925971Y-86118049D01*
X148953684Y-86151817D01*
X148987452Y-86179530D01*
X152614310Y-89806389D01*
X152547500Y-90142268D01*
X152547500Y-90503732D01*
X152618018Y-90858250D01*
X152756344Y-91192199D01*
X152957162Y-91492744D01*
X153212756Y-91748338D01*
X153513301Y-91949156D01*
X153847250Y-92087482D01*
X154201768Y-92158000D01*
X154563232Y-92158000D01*
X154899111Y-92091189D01*
X164477500Y-101669579D01*
X164477500Y-102048495D01*
X164476265Y-102049155D01*
X164234537Y-102247537D01*
X164092500Y-102420609D01*
X163950463Y-102247537D01*
X163708734Y-102049155D01*
X163432948Y-101901745D01*
X163133703Y-101810970D01*
X162822500Y-101780319D01*
X162511296Y-101810970D01*
X162212051Y-101901745D01*
X161936265Y-102049155D01*
X161810405Y-102152446D01*
X161765537Y-102068506D01*
X161686185Y-101971815D01*
X161589494Y-101892463D01*
X161479180Y-101833498D01*
X161359482Y-101797188D01*
X161235000Y-101784928D01*
X159330000Y-101784928D01*
X159205518Y-101797188D01*
X159085820Y-101833498D01*
X158975506Y-101892463D01*
X158878815Y-101971815D01*
X158799463Y-102068506D01*
X158762317Y-102138000D01*
X155998098Y-102138000D01*
X155807838Y-101853256D01*
X155552244Y-101597662D01*
X155251699Y-101396844D01*
X154917750Y-101258518D01*
X154563232Y-101188000D01*
X154201768Y-101188000D01*
X153847250Y-101258518D01*
X153513301Y-101396844D01*
X153212756Y-101597662D01*
X152957162Y-101853256D01*
X152756344Y-102153801D01*
X152618018Y-102487750D01*
X152547500Y-102842268D01*
X152547500Y-103203732D01*
X152614310Y-103539611D01*
X151315922Y-104838000D01*
X149963779Y-104838000D01*
X150217750Y-104787482D01*
X150551699Y-104649156D01*
X150852244Y-104448338D01*
X151107838Y-104192744D01*
X151308656Y-103892199D01*
X151446982Y-103558250D01*
X151517500Y-103203732D01*
X151517500Y-102842268D01*
X151446982Y-102487750D01*
X151308656Y-102153801D01*
X151107838Y-101853256D01*
X150852244Y-101597662D01*
X150551699Y-101396844D01*
X150217750Y-101258518D01*
X149863232Y-101188000D01*
X149501768Y-101188000D01*
X149147250Y-101258518D01*
X148813301Y-101396844D01*
X148512756Y-101597662D01*
X148257162Y-101853256D01*
X148056344Y-102153801D01*
X147918018Y-102487750D01*
X147847500Y-102842268D01*
X147847500Y-103203732D01*
X147918018Y-103558250D01*
X148056344Y-103892199D01*
X148257162Y-104192744D01*
X148512756Y-104448338D01*
X148813301Y-104649156D01*
X149147250Y-104787482D01*
X149401221Y-104838000D01*
X126049079Y-104838000D01*
X125467500Y-104256422D01*
X125467500Y-103366047D01*
X125514947Y-103604579D01*
X125639403Y-103905042D01*
X125820085Y-104175451D01*
X126050049Y-104405415D01*
X126320458Y-104586097D01*
X126620921Y-104710553D01*
X126939891Y-104774000D01*
X127265109Y-104774000D01*
X127584079Y-104710553D01*
X127884542Y-104586097D01*
X128154951Y-104405415D01*
X128290543Y-104269823D01*
X128675282Y-104269823D01*
X128772978Y-104535860D01*
X129065321Y-104678348D01*
X129379844Y-104761064D01*
X129704462Y-104780831D01*
X130026698Y-104736888D01*
X130334170Y-104630924D01*
X130512022Y-104535860D01*
X130609718Y-104269823D01*
X129642500Y-103302605D01*
X128675282Y-104269823D01*
X128290543Y-104269823D01*
X128384915Y-104175451D01*
X128452468Y-104074351D01*
X128495677Y-104090218D01*
X129462895Y-103123000D01*
X129448753Y-103108858D01*
X129628358Y-102929253D01*
X129642500Y-102943395D01*
X129656643Y-102929253D01*
X129836248Y-103108858D01*
X129822105Y-103123000D01*
X130789323Y-104090218D01*
X130832532Y-104074351D01*
X130900085Y-104175451D01*
X131130049Y-104405415D01*
X131400458Y-104586097D01*
X131700921Y-104710553D01*
X132019891Y-104774000D01*
X132345109Y-104774000D01*
X132664079Y-104710553D01*
X132964542Y-104586097D01*
X133234951Y-104405415D01*
X133452500Y-104187866D01*
X133670049Y-104405415D01*
X133940458Y-104586097D01*
X134240921Y-104710553D01*
X134559891Y-104774000D01*
X134885109Y-104774000D01*
X135204079Y-104710553D01*
X135504542Y-104586097D01*
X135774951Y-104405415D01*
X135992500Y-104187866D01*
X136210049Y-104405415D01*
X136480458Y-104586097D01*
X136780921Y-104710553D01*
X137099891Y-104774000D01*
X137425109Y-104774000D01*
X137744079Y-104710553D01*
X138044542Y-104586097D01*
X138314951Y-104405415D01*
X138532500Y-104187866D01*
X138750049Y-104405415D01*
X139020458Y-104586097D01*
X139320921Y-104710553D01*
X139639891Y-104774000D01*
X139965109Y-104774000D01*
X140284079Y-104710553D01*
X140584542Y-104586097D01*
X140854951Y-104405415D01*
X141072500Y-104187866D01*
X141290049Y-104405415D01*
X141560458Y-104586097D01*
X141860921Y-104710553D01*
X142179891Y-104774000D01*
X142505109Y-104774000D01*
X142824079Y-104710553D01*
X143124542Y-104586097D01*
X143394951Y-104405415D01*
X143612500Y-104187866D01*
X143830049Y-104405415D01*
X144100458Y-104586097D01*
X144400921Y-104710553D01*
X144719891Y-104774000D01*
X145045109Y-104774000D01*
X145364079Y-104710553D01*
X145664542Y-104586097D01*
X145934951Y-104405415D01*
X146164915Y-104175451D01*
X146345597Y-103905042D01*
X146470053Y-103604579D01*
X146533500Y-103285609D01*
X146533500Y-102960391D01*
X146470053Y-102641421D01*
X146345597Y-102340958D01*
X146164915Y-102070549D01*
X145934951Y-101840585D01*
X145664542Y-101659903D01*
X145364079Y-101535447D01*
X145045109Y-101472000D01*
X144719891Y-101472000D01*
X144400921Y-101535447D01*
X144100458Y-101659903D01*
X143830049Y-101840585D01*
X143612500Y-102058134D01*
X143394951Y-101840585D01*
X143124542Y-101659903D01*
X142824079Y-101535447D01*
X142505109Y-101472000D01*
X142179891Y-101472000D01*
X141860921Y-101535447D01*
X141560458Y-101659903D01*
X141290049Y-101840585D01*
X141072500Y-102058134D01*
X140854951Y-101840585D01*
X140584542Y-101659903D01*
X140284079Y-101535447D01*
X139965109Y-101472000D01*
X139639891Y-101472000D01*
X139320921Y-101535447D01*
X139020458Y-101659903D01*
X138750049Y-101840585D01*
X138532500Y-102058134D01*
X138314951Y-101840585D01*
X138044542Y-101659903D01*
X137744079Y-101535447D01*
X137425109Y-101472000D01*
X137099891Y-101472000D01*
X136780921Y-101535447D01*
X136480458Y-101659903D01*
X136210049Y-101840585D01*
X135992500Y-102058134D01*
X135774951Y-101840585D01*
X135504542Y-101659903D01*
X135204079Y-101535447D01*
X134885109Y-101472000D01*
X134559891Y-101472000D01*
X134362368Y-101511290D01*
X132967500Y-100116422D01*
X132967500Y-90142268D01*
X147847500Y-90142268D01*
X147847500Y-90503732D01*
X147918018Y-90858250D01*
X148056344Y-91192199D01*
X148257162Y-91492744D01*
X148512756Y-91748338D01*
X148813301Y-91949156D01*
X149147250Y-92087482D01*
X149501768Y-92158000D01*
X149863232Y-92158000D01*
X150217750Y-92087482D01*
X150551699Y-91949156D01*
X150852244Y-91748338D01*
X151107838Y-91492744D01*
X151308656Y-91192199D01*
X151446982Y-90858250D01*
X151517500Y-90503732D01*
X151517500Y-90142268D01*
X151446982Y-89787750D01*
X151308656Y-89453801D01*
X151107838Y-89153256D01*
X150852244Y-88897662D01*
X150551699Y-88696844D01*
X150217750Y-88558518D01*
X149863232Y-88488000D01*
X149501768Y-88488000D01*
X149147250Y-88558518D01*
X148813301Y-88696844D01*
X148512756Y-88897662D01*
X148257162Y-89153256D01*
X148056344Y-89453801D01*
X147918018Y-89787750D01*
X147847500Y-90142268D01*
X132967500Y-90142268D01*
X132967500Y-87312866D01*
X133140049Y-87485415D01*
X133410458Y-87666097D01*
X133710921Y-87790553D01*
X134029891Y-87854000D01*
X134355109Y-87854000D01*
X134674079Y-87790553D01*
X134974542Y-87666097D01*
X135244951Y-87485415D01*
X135462500Y-87267866D01*
X135680049Y-87485415D01*
X135950458Y-87666097D01*
X136250921Y-87790553D01*
X136569891Y-87854000D01*
X136895109Y-87854000D01*
X137214079Y-87790553D01*
X137514542Y-87666097D01*
X137784951Y-87485415D01*
X138002500Y-87267866D01*
X138220049Y-87485415D01*
X138490458Y-87666097D01*
X138790921Y-87790553D01*
X139109891Y-87854000D01*
X139435109Y-87854000D01*
X139754079Y-87790553D01*
X140054542Y-87666097D01*
X140324951Y-87485415D01*
X140542500Y-87267866D01*
X140760049Y-87485415D01*
X141030458Y-87666097D01*
X141330921Y-87790553D01*
X141649891Y-87854000D01*
X141975109Y-87854000D01*
X142294079Y-87790553D01*
X142594542Y-87666097D01*
X142864951Y-87485415D01*
X143094915Y-87255451D01*
X143206802Y-87088000D01*
X144247393Y-87088000D01*
X144435868Y-87276475D01*
X144679089Y-87438990D01*
X144949342Y-87550932D01*
X145236240Y-87608000D01*
X145528760Y-87608000D01*
X145815658Y-87550932D01*
X146085911Y-87438990D01*
X146329132Y-87276475D01*
X146535975Y-87069632D01*
X146698490Y-86826411D01*
X146810432Y-86556158D01*
X146867500Y-86269260D01*
X146867500Y-85976740D01*
X146810432Y-85689842D01*
X146698490Y-85419589D01*
X146535975Y-85176368D01*
X146329132Y-84969525D01*
X146154740Y-84853000D01*
X146329132Y-84736475D01*
X146535975Y-84529632D01*
X146698490Y-84286411D01*
X146810432Y-84016158D01*
X146867500Y-83729260D01*
X146867500Y-83436740D01*
X146810432Y-83149842D01*
X146698490Y-82879589D01*
X146535975Y-82636368D01*
X146329132Y-82429525D01*
X146154740Y-82313000D01*
X146329132Y-82196475D01*
X146535975Y-81989632D01*
X146698490Y-81746411D01*
X146810432Y-81476158D01*
X146867500Y-81189260D01*
X146867500Y-80896740D01*
X146810432Y-80609842D01*
X146698490Y-80339589D01*
X146535975Y-80096368D01*
X146329132Y-79889525D01*
X146154740Y-79773000D01*
X146329132Y-79656475D01*
X146535975Y-79449632D01*
X146698490Y-79206411D01*
X146810432Y-78936158D01*
X146867500Y-78649260D01*
X146867500Y-78356740D01*
X146810432Y-78069842D01*
X146698490Y-77799589D01*
X146535975Y-77556368D01*
X146329132Y-77349525D01*
X146154740Y-77233000D01*
X146329132Y-77116475D01*
X146535975Y-76909632D01*
X146698490Y-76666411D01*
X146810432Y-76396158D01*
X146867500Y-76109260D01*
X146867500Y-75816740D01*
X146810432Y-75529842D01*
X146698490Y-75259589D01*
X146535975Y-75016368D01*
X146329132Y-74809525D01*
X146154740Y-74693000D01*
X146329132Y-74576475D01*
X146535975Y-74369632D01*
X146698490Y-74126411D01*
X146810432Y-73856158D01*
X146867500Y-73569260D01*
X146867500Y-73276740D01*
X146810432Y-72989842D01*
X146698490Y-72719589D01*
X146535975Y-72476368D01*
X146329132Y-72269525D01*
X146154740Y-72153000D01*
X146329132Y-72036475D01*
X146535975Y-71829632D01*
X146698490Y-71586411D01*
X146810432Y-71316158D01*
X146867500Y-71029260D01*
X146867500Y-70736740D01*
X146810432Y-70449842D01*
X146698490Y-70179589D01*
X146535975Y-69936368D01*
X146329132Y-69729525D01*
X146154740Y-69613000D01*
X146329132Y-69496475D01*
X146535975Y-69289632D01*
X146698490Y-69046411D01*
X146810432Y-68776158D01*
X146867500Y-68489260D01*
X146867500Y-68196740D01*
X146810432Y-67909842D01*
X146698490Y-67639589D01*
X146535975Y-67396368D01*
X146329132Y-67189525D01*
X146154740Y-67073000D01*
X146329132Y-66956475D01*
X146535975Y-66749632D01*
X146698490Y-66506411D01*
X146810432Y-66236158D01*
X146867500Y-65949260D01*
X146867500Y-65656740D01*
X146810432Y-65369842D01*
X146698490Y-65099589D01*
X146535975Y-64856368D01*
X146329132Y-64649525D01*
X146154740Y-64533000D01*
X146329132Y-64416475D01*
X146535975Y-64209632D01*
X146698490Y-63966411D01*
X146810432Y-63696158D01*
X146867500Y-63409260D01*
X146867500Y-63116740D01*
X146810432Y-62829842D01*
X146698490Y-62559589D01*
X146535975Y-62316368D01*
X146404120Y-62184513D01*
X146476680Y-62162502D01*
X146586994Y-62103537D01*
X146683685Y-62024185D01*
X146763037Y-61927494D01*
X146822002Y-61817180D01*
X146858312Y-61697482D01*
X146870572Y-61573000D01*
X146867500Y-61008750D01*
X146708750Y-60850000D01*
X145509500Y-60850000D01*
X145509500Y-60870000D01*
X145255500Y-60870000D01*
X145255500Y-60850000D01*
X144056250Y-60850000D01*
X143897500Y-61008750D01*
X143894428Y-61573000D01*
X143906688Y-61697482D01*
X143942998Y-61817180D01*
X144001963Y-61927494D01*
X144081315Y-62024185D01*
X144178006Y-62103537D01*
X144288320Y-62162502D01*
X144360880Y-62184513D01*
X144229025Y-62316368D01*
X144134390Y-62458000D01*
X143206802Y-62458000D01*
X143094915Y-62290549D01*
X142864951Y-62060585D01*
X142763851Y-61993032D01*
X142779718Y-61949823D01*
X141812500Y-60982605D01*
X140845282Y-61949823D01*
X140861149Y-61993032D01*
X140760049Y-62060585D01*
X140530085Y-62290549D01*
X140349403Y-62560958D01*
X140224947Y-62861421D01*
X140161500Y-63180391D01*
X140161500Y-63505609D01*
X140224947Y-63824579D01*
X140349403Y-64125042D01*
X140530085Y-64395451D01*
X140747634Y-64613000D01*
X140530085Y-64830549D01*
X140349403Y-65100958D01*
X140224947Y-65401421D01*
X140161500Y-65720391D01*
X140161500Y-65761370D01*
X140054542Y-65689903D01*
X139754079Y-65565447D01*
X139435109Y-65502000D01*
X139109891Y-65502000D01*
X138790921Y-65565447D01*
X138490458Y-65689903D01*
X138220049Y-65870585D01*
X137990085Y-66100549D01*
X137809403Y-66370958D01*
X137684947Y-66671421D01*
X137621500Y-66990391D01*
X137621500Y-67315609D01*
X137660790Y-67513131D01*
X129887456Y-75286466D01*
X129853683Y-75314183D01*
X129743089Y-75448942D01*
X129660911Y-75602688D01*
X129610305Y-75769511D01*
X129597500Y-75899524D01*
X129597500Y-75899531D01*
X129593219Y-75943000D01*
X129597500Y-75986469D01*
X129597500Y-84012357D01*
X129511317Y-83907343D01*
X129477550Y-83879631D01*
X128665872Y-83067954D01*
X128638157Y-83034183D01*
X128503399Y-82923589D01*
X128349653Y-82841411D01*
X128182830Y-82790805D01*
X128052817Y-82778000D01*
X128052809Y-82778000D01*
X128009340Y-82773719D01*
X127966745Y-82777914D01*
X127854915Y-82610549D01*
X127637366Y-82393000D01*
X127854915Y-82175451D01*
X128035597Y-81905042D01*
X128160053Y-81604579D01*
X128223500Y-81285609D01*
X128223500Y-80960391D01*
X128160053Y-80641421D01*
X128035597Y-80340958D01*
X127854915Y-80070549D01*
X127637366Y-79853000D01*
X127854915Y-79635451D01*
X128035597Y-79365042D01*
X128160053Y-79064579D01*
X128223500Y-78745609D01*
X128223500Y-78420391D01*
X128160053Y-78101421D01*
X128035597Y-77800958D01*
X127854915Y-77530549D01*
X127637366Y-77313000D01*
X127854915Y-77095451D01*
X128035597Y-76825042D01*
X128160053Y-76524579D01*
X128223500Y-76205609D01*
X128223500Y-75880391D01*
X128160053Y-75561421D01*
X128035597Y-75260958D01*
X127854915Y-74990549D01*
X127637366Y-74773000D01*
X127854915Y-74555451D01*
X128035597Y-74285042D01*
X128160053Y-73984579D01*
X128223500Y-73665609D01*
X128223500Y-73340391D01*
X128160053Y-73021421D01*
X128035597Y-72720958D01*
X127854915Y-72450549D01*
X127637366Y-72233000D01*
X127854915Y-72015451D01*
X128035597Y-71745042D01*
X128160053Y-71444579D01*
X128223500Y-71125609D01*
X128223500Y-70800391D01*
X128160053Y-70481421D01*
X128035597Y-70180958D01*
X127854915Y-69910549D01*
X127637366Y-69693000D01*
X127854915Y-69475451D01*
X128035597Y-69205042D01*
X128160053Y-68904579D01*
X128223500Y-68585609D01*
X128223500Y-68260391D01*
X128160053Y-67941421D01*
X128035597Y-67640958D01*
X127854915Y-67370549D01*
X127624951Y-67140585D01*
X127523851Y-67073032D01*
X127539718Y-67029823D01*
X126572500Y-66062605D01*
X125605282Y-67029823D01*
X125621149Y-67073032D01*
X125520049Y-67140585D01*
X125290085Y-67370549D01*
X125109403Y-67640958D01*
X124984947Y-67941421D01*
X124921500Y-68260391D01*
X124921500Y-68585609D01*
X124960790Y-68783131D01*
X119904881Y-73839041D01*
X117435058Y-73839041D01*
X118066577Y-73607938D01*
X118104422Y-73591089D01*
X118142470Y-73574624D01*
X118148575Y-73571431D01*
X118148595Y-73571422D01*
X118148612Y-73571412D01*
X119170458Y-73030373D01*
X119205673Y-73008539D01*
X119241128Y-72987067D01*
X119246750Y-72983071D01*
X119246761Y-72983064D01*
X119246770Y-72983056D01*
X120185741Y-72308338D01*
X120217675Y-72281920D01*
X120249880Y-72255841D01*
X120254909Y-72251118D01*
X120254918Y-72251111D01*
X120254925Y-72251103D01*
X121093639Y-71455193D01*
X121121682Y-71424697D01*
X121150060Y-71394477D01*
X121154409Y-71389106D01*
X121877352Y-70486725D01*
X121900985Y-70452723D01*
X121925011Y-70418914D01*
X121928586Y-70413010D01*
X121928591Y-70413003D01*
X121928594Y-70412996D01*
X122522378Y-69420856D01*
X122541196Y-69383925D01*
X122560393Y-69347204D01*
X122563131Y-69340875D01*
X122563138Y-69340862D01*
X122563142Y-69340849D01*
X122752446Y-68897034D01*
X123488170Y-67793447D01*
X123499883Y-67771478D01*
X123507086Y-67747646D01*
X123509500Y-67723000D01*
X123509500Y-65944962D01*
X124914669Y-65944962D01*
X124958612Y-66267198D01*
X125064576Y-66574670D01*
X125159640Y-66752522D01*
X125425677Y-66850218D01*
X126392895Y-65883000D01*
X126752105Y-65883000D01*
X127719323Y-66850218D01*
X127985360Y-66752522D01*
X128127848Y-66460179D01*
X128210564Y-66145656D01*
X128230331Y-65821038D01*
X128186388Y-65498802D01*
X128080424Y-65191330D01*
X127985360Y-65013478D01*
X127719323Y-64915782D01*
X126752105Y-65883000D01*
X126392895Y-65883000D01*
X125425677Y-64915782D01*
X125159640Y-65013478D01*
X125017152Y-65305821D01*
X124934436Y-65620344D01*
X124914669Y-65944962D01*
X123509500Y-65944962D01*
X123509500Y-65923237D01*
X123520081Y-65842866D01*
X123522683Y-65801506D01*
X123525718Y-65760175D01*
X123525718Y-65753263D01*
X123519664Y-64597019D01*
X123516629Y-64555694D01*
X123514027Y-64514327D01*
X123513089Y-64507480D01*
X123509500Y-64482262D01*
X123509500Y-63223000D01*
X123507060Y-63198224D01*
X123499833Y-63174399D01*
X123492767Y-63159990D01*
X123105913Y-62482996D01*
X123014736Y-62162915D01*
X123000707Y-62123947D01*
X122987069Y-62084784D01*
X122984328Y-62078451D01*
X122984325Y-62078443D01*
X122984322Y-62078436D01*
X122519567Y-61019698D01*
X122500382Y-60983001D01*
X122481553Y-60946046D01*
X122477973Y-60940135D01*
X121873829Y-59954261D01*
X121849803Y-59920453D01*
X121826170Y-59886450D01*
X121821821Y-59881079D01*
X121089467Y-58986318D01*
X121061115Y-58956126D01*
X121033047Y-58925602D01*
X121028009Y-58920872D01*
X120180999Y-58133781D01*
X120148799Y-58107705D01*
X120116860Y-58081283D01*
X120111234Y-58077286D01*
X120111227Y-58077280D01*
X120111220Y-58077276D01*
X119455615Y-57616509D01*
X118972303Y-57133197D01*
X118953057Y-57117403D01*
X118931101Y-57105667D01*
X118913302Y-57099792D01*
X118253006Y-56934718D01*
X118060966Y-56835599D01*
X118022969Y-56819156D01*
X117985072Y-56802283D01*
X117978589Y-56799950D01*
X117978570Y-56799942D01*
X117978552Y-56799937D01*
X116888631Y-56413975D01*
X116848719Y-56402831D01*
X116808918Y-56391268D01*
X116802158Y-56389831D01*
X115669922Y-56155356D01*
X115628872Y-56149733D01*
X115587865Y-56143677D01*
X115580974Y-56143171D01*
X115580972Y-56143171D01*
X115042500Y-56106462D01*
X115042500Y-52996380D01*
X115155881Y-52883000D01*
X186609120Y-52883000D01*
X186722501Y-52996382D01*
G37*
X186722501Y-52996382D02*
X186722500Y-56090083D01*
X186643600Y-56093390D01*
X186619961Y-56096000D01*
X185382500Y-56096000D01*
X185357724Y-56098440D01*
X185325704Y-56109408D01*
X184393553Y-56575484D01*
X184232188Y-56623282D01*
X184193343Y-56637728D01*
X184154352Y-56651766D01*
X184148053Y-56654571D01*
X184148039Y-56654576D01*
X184148027Y-56654582D01*
X183094219Y-57130395D01*
X183057687Y-57149983D01*
X183020969Y-57169179D01*
X183015107Y-57172814D01*
X183015095Y-57172820D01*
X183015085Y-57172827D01*
X182035602Y-57787256D01*
X182002097Y-57811599D01*
X181968293Y-57835622D01*
X181962968Y-57840027D01*
X181075926Y-58581709D01*
X181046007Y-58610400D01*
X181015804Y-58638762D01*
X181011134Y-58643842D01*
X181011126Y-58643849D01*
X181011120Y-58643857D01*
X180232949Y-59499056D01*
X180207180Y-59531569D01*
X180181127Y-59563741D01*
X180177190Y-59569406D01*
X180177182Y-59569416D01*
X180177176Y-59569426D01*
X179783135Y-60142759D01*
X179292697Y-60633197D01*
X179276903Y-60652443D01*
X179265167Y-60674399D01*
X179258524Y-60695450D01*
X179124083Y-61300436D01*
X178957038Y-61632567D01*
X178940982Y-61670763D01*
X178924519Y-61708806D01*
X178922254Y-61715313D01*
X178922246Y-61715332D01*
X178922241Y-61715350D01*
X178547714Y-62809252D01*
X178536993Y-62849264D01*
X178525843Y-62889199D01*
X178524477Y-62895974D01*
X178301872Y-64030604D01*
X178296679Y-64071712D01*
X178291053Y-64112779D01*
X178290619Y-64119676D01*
X178224060Y-65274018D01*
X178224494Y-65315467D01*
X178224494Y-65356900D01*
X178225000Y-65363777D01*
X178225000Y-65363793D01*
X178225002Y-65363807D01*
X178315720Y-66516489D01*
X178321773Y-66557482D01*
X178327398Y-66598546D01*
X178328832Y-66605293D01*
X178328834Y-66605305D01*
X178328837Y-66605316D01*
X178575154Y-67735024D01*
X178586725Y-67774854D01*
X178597861Y-67814737D01*
X178600197Y-67821225D01*
X178600201Y-67821239D01*
X178600207Y-67821252D01*
X178997562Y-68907077D01*
X179014411Y-68944922D01*
X179030876Y-68982970D01*
X179034069Y-68989075D01*
X179034078Y-68989095D01*
X179034088Y-68989112D01*
X179129260Y-69168860D01*
X179258524Y-69750550D01*
X179266281Y-69774207D01*
X179278504Y-69795897D01*
X179292697Y-69812803D01*
X179763591Y-70283697D01*
X180297162Y-71026241D01*
X180323580Y-71058175D01*
X180349659Y-71090380D01*
X180354382Y-71095409D01*
X180354389Y-71095418D01*
X180354397Y-71095425D01*
X181150307Y-71934139D01*
X181180803Y-71962182D01*
X181211023Y-71990560D01*
X181216394Y-71994909D01*
X182118775Y-72717852D01*
X182152777Y-72741485D01*
X182186586Y-72765511D01*
X182192490Y-72769086D01*
X182192497Y-72769091D01*
X182192504Y-72769094D01*
X182333182Y-72853288D01*
X182792697Y-73312803D01*
X182811943Y-73328597D01*
X182833899Y-73340333D01*
X182859782Y-73347951D01*
X183337884Y-73434879D01*
X184328191Y-73857281D01*
X184367316Y-73870906D01*
X184406321Y-73884949D01*
X184412973Y-73886806D01*
X184412981Y-73886808D01*
X185528257Y-74191913D01*
X185568866Y-74200101D01*
X185609419Y-74208721D01*
X185616263Y-74209659D01*
X185616267Y-74209659D01*
X186762634Y-74360581D01*
X186803998Y-74363183D01*
X186845326Y-74366218D01*
X186852237Y-74366218D01*
X188008481Y-74360164D01*
X188049812Y-74357129D01*
X188091172Y-74354527D01*
X188098020Y-74353589D01*
X188262243Y-74330217D01*
X188359782Y-74347951D01*
X188384595Y-74349983D01*
X188409328Y-74347134D01*
X188434080Y-74339054D01*
X188544278Y-74290077D01*
X189242743Y-74190671D01*
X189283285Y-74182054D01*
X189323906Y-74173863D01*
X189330550Y-74172007D01*
X189330561Y-74172005D01*
X189330571Y-74172002D01*
X189502593Y-74123000D01*
X191942346Y-74123000D01*
X191954606Y-74247482D01*
X191990916Y-74367180D01*
X192049881Y-74477494D01*
X192129233Y-74574185D01*
X193331315Y-75776267D01*
X193428006Y-75855619D01*
X193538320Y-75914584D01*
X193658018Y-75950894D01*
X193782500Y-75963154D01*
X193906982Y-75950894D01*
X194026680Y-75914584D01*
X194136994Y-75855619D01*
X194233685Y-75776267D01*
X195435767Y-74574185D01*
X195515119Y-74477494D01*
X195574084Y-74367180D01*
X195610394Y-74247482D01*
X195622654Y-74123000D01*
X195610394Y-73998518D01*
X195574084Y-73878820D01*
X195534357Y-73804497D01*
X195647366Y-73810358D01*
X195935443Y-73768429D01*
X196209804Y-73671105D01*
X196345469Y-73598586D01*
X196422239Y-73350242D01*
X195578551Y-72506554D01*
X195564409Y-72520697D01*
X195384804Y-72341092D01*
X195398946Y-72326949D01*
X195758156Y-72326949D01*
X196601844Y-73170637D01*
X196850188Y-73093867D01*
X196922707Y-72958202D01*
X197020031Y-72683841D01*
X197061960Y-72395764D01*
X197046882Y-72105043D01*
X196975376Y-71822849D01*
X196850192Y-71560028D01*
X196602310Y-71482795D01*
X195758156Y-72326949D01*
X195398946Y-72326949D01*
X194555258Y-71483261D01*
X194306914Y-71560031D01*
X194234395Y-71695696D01*
X194137071Y-71970057D01*
X194095142Y-72258134D01*
X194101003Y-72371143D01*
X194026680Y-72331416D01*
X193906982Y-72295106D01*
X193782500Y-72282846D01*
X193658018Y-72295106D01*
X193538320Y-72331416D01*
X193428006Y-72390381D01*
X193331315Y-72469733D01*
X192129233Y-73671815D01*
X192049881Y-73768506D01*
X191990916Y-73878820D01*
X191954606Y-73998518D01*
X191942346Y-74123000D01*
X189502593Y-74123000D01*
X190442585Y-73855236D01*
X190481569Y-73841201D01*
X190520715Y-73827569D01*
X190527049Y-73824828D01*
X190527057Y-73824825D01*
X190527064Y-73824822D01*
X191585802Y-73360067D01*
X191622520Y-73340872D01*
X191659453Y-73322053D01*
X191665365Y-73318473D01*
X192651239Y-72714329D01*
X192685023Y-72690320D01*
X192719051Y-72666670D01*
X192724422Y-72662320D01*
X193619182Y-71929967D01*
X193649397Y-71901593D01*
X193679897Y-71873547D01*
X193684621Y-71868517D01*
X193684629Y-71868509D01*
X193684636Y-71868501D01*
X194209522Y-71303656D01*
X194734863Y-71303656D01*
X195578551Y-72147344D01*
X196422705Y-71303190D01*
X196345472Y-71055308D01*
X196082651Y-70930124D01*
X195800457Y-70858618D01*
X195509736Y-70843540D01*
X195221659Y-70885469D01*
X194947298Y-70982793D01*
X194811633Y-71055312D01*
X194734863Y-71303656D01*
X194209522Y-71303656D01*
X194471719Y-71021499D01*
X194497790Y-70989304D01*
X194524217Y-70957360D01*
X194528220Y-70951726D01*
X195193075Y-70005733D01*
X195214556Y-69970265D01*
X195236382Y-69935063D01*
X195239577Y-69928951D01*
X195239584Y-69928939D01*
X195239589Y-69928927D01*
X195769901Y-68901466D01*
X195786379Y-68863389D01*
X195803216Y-68825572D01*
X195805552Y-68819084D01*
X195805558Y-68819070D01*
X195805562Y-68819057D01*
X196191525Y-67729131D01*
X196202672Y-67689207D01*
X196214232Y-67649418D01*
X196215669Y-67642658D01*
X196450144Y-66510422D01*
X196455768Y-66469364D01*
X196461823Y-66428364D01*
X196462329Y-66421472D01*
X196499038Y-65883000D01*
X199609120Y-65883000D01*
X199722500Y-65996381D01*
X199722501Y-137449618D01*
X199609120Y-137563000D01*
X196515417Y-137563000D01*
X196512110Y-137484100D01*
X196508509Y-137451486D01*
X196506105Y-137418743D01*
X196505095Y-137411906D01*
X196330198Y-136268950D01*
X196321157Y-136228503D01*
X196312541Y-136187969D01*
X196310613Y-136181332D01*
X195982218Y-135072688D01*
X195967772Y-135033843D01*
X195953734Y-134994852D01*
X195950929Y-134988553D01*
X195950924Y-134988539D01*
X195950918Y-134988527D01*
X195475105Y-133934719D01*
X195455517Y-133898187D01*
X195436321Y-133861469D01*
X195432686Y-133855607D01*
X195432680Y-133855595D01*
X195432673Y-133855585D01*
X194818244Y-132876102D01*
X194793901Y-132842597D01*
X194769878Y-132808793D01*
X194765473Y-132803468D01*
X194299603Y-132246293D01*
X194938812Y-132246293D01*
X195015582Y-132494637D01*
X195151247Y-132567156D01*
X195425608Y-132664480D01*
X195713685Y-132706409D01*
X196004406Y-132691331D01*
X196286600Y-132619825D01*
X196549421Y-132494641D01*
X196626654Y-132246759D01*
X195782500Y-131402605D01*
X194938812Y-132246293D01*
X194299603Y-132246293D01*
X194023791Y-131916426D01*
X193995100Y-131886507D01*
X193966738Y-131856304D01*
X193961658Y-131851634D01*
X193961651Y-131851626D01*
X193961643Y-131851620D01*
X193106444Y-131073449D01*
X193073931Y-131047680D01*
X193041759Y-131021627D01*
X193036094Y-131017690D01*
X193036084Y-131017682D01*
X193036074Y-131017676D01*
X192083180Y-130362770D01*
X192047526Y-130341684D01*
X192012061Y-130320206D01*
X192005903Y-130317068D01*
X190972933Y-129797538D01*
X190934737Y-129781482D01*
X190896694Y-129765019D01*
X190890187Y-129762754D01*
X190890168Y-129762746D01*
X190890150Y-129762741D01*
X189909384Y-129426949D01*
X192146295Y-129426949D01*
X192158555Y-129551431D01*
X192194865Y-129671129D01*
X192253830Y-129781443D01*
X192333182Y-129878134D01*
X193535264Y-131080216D01*
X193631955Y-131159568D01*
X193742269Y-131218533D01*
X193861967Y-131254843D01*
X193986449Y-131267103D01*
X194110931Y-131254843D01*
X194230629Y-131218533D01*
X194304952Y-131178806D01*
X194299091Y-131291815D01*
X194341020Y-131579892D01*
X194438344Y-131854253D01*
X194510863Y-131989918D01*
X194759207Y-132066688D01*
X195602895Y-131223000D01*
X195962105Y-131223000D01*
X196806259Y-132067154D01*
X197054141Y-131989921D01*
X197179325Y-131727100D01*
X197250831Y-131444906D01*
X197265909Y-131154185D01*
X197223980Y-130866108D01*
X197126656Y-130591747D01*
X197054137Y-130456082D01*
X196805793Y-130379312D01*
X195962105Y-131223000D01*
X195602895Y-131223000D01*
X195588753Y-131208858D01*
X195768358Y-131029253D01*
X195782500Y-131043395D01*
X196626188Y-130199707D01*
X196549418Y-129951363D01*
X196413753Y-129878844D01*
X196139392Y-129781520D01*
X195851315Y-129739591D01*
X195738306Y-129745452D01*
X195778033Y-129671129D01*
X195814343Y-129551431D01*
X195826603Y-129426949D01*
X195814343Y-129302467D01*
X195778033Y-129182769D01*
X195719068Y-129072455D01*
X195639716Y-128975764D01*
X194437634Y-127773682D01*
X194340943Y-127694330D01*
X194230629Y-127635365D01*
X194110931Y-127599055D01*
X193986449Y-127586795D01*
X193861967Y-127599055D01*
X193742269Y-127635365D01*
X193631955Y-127694330D01*
X193535264Y-127773682D01*
X192333182Y-128975764D01*
X192253830Y-129072455D01*
X192194865Y-129182769D01*
X192158555Y-129302467D01*
X192146295Y-129426949D01*
X189909384Y-129426949D01*
X189796248Y-129388214D01*
X189756236Y-129377493D01*
X189716301Y-129366343D01*
X189709530Y-129364978D01*
X189709527Y-129364977D01*
X189709524Y-129364977D01*
X188574896Y-129142372D01*
X188533788Y-129137179D01*
X188492721Y-129131553D01*
X188485824Y-129131119D01*
X187331482Y-129064560D01*
X187290033Y-129064994D01*
X187248599Y-129064994D01*
X187241723Y-129065500D01*
X187241707Y-129065500D01*
X187241693Y-129065502D01*
X186089011Y-129156220D01*
X186048024Y-129162272D01*
X186006953Y-129167898D01*
X186000206Y-129169332D01*
X186000194Y-129169334D01*
X186000183Y-129169337D01*
X184870476Y-129415654D01*
X184830623Y-129427232D01*
X184790763Y-129438361D01*
X184784280Y-129440695D01*
X184784260Y-129440701D01*
X184784243Y-129440709D01*
X183698424Y-129838062D01*
X183660597Y-129854903D01*
X183622530Y-129871376D01*
X183616412Y-129874575D01*
X183616405Y-129874578D01*
X183616399Y-129874582D01*
X182594543Y-130415627D01*
X182559350Y-130437447D01*
X182523872Y-130458933D01*
X182518250Y-130462929D01*
X182518239Y-130462936D01*
X182518230Y-130462944D01*
X181579259Y-131137662D01*
X181547325Y-131164080D01*
X181515120Y-131190159D01*
X181510091Y-131194882D01*
X181510082Y-131194889D01*
X181510075Y-131194897D01*
X180671361Y-131990807D01*
X180643318Y-132021303D01*
X180614940Y-132051523D01*
X180610591Y-132056894D01*
X179887648Y-132959275D01*
X179864015Y-132993277D01*
X179839989Y-133027086D01*
X179836414Y-133032990D01*
X179836409Y-133032997D01*
X179836406Y-133033004D01*
X179752212Y-133173682D01*
X179292697Y-133633197D01*
X179276903Y-133652443D01*
X179265167Y-133674399D01*
X179259292Y-133692198D01*
X179091189Y-134364610D01*
X178748219Y-135168691D01*
X178734578Y-135207862D01*
X178720552Y-135246821D01*
X178718693Y-135253478D01*
X178413587Y-136368757D01*
X178405399Y-136409366D01*
X178396779Y-136449919D01*
X178395841Y-136456766D01*
X178244919Y-137603134D01*
X178242317Y-137644498D01*
X178239282Y-137685826D01*
X178239282Y-137692737D01*
X178245336Y-138848981D01*
X178248371Y-138890312D01*
X178250973Y-138931672D01*
X178251911Y-138938520D01*
X178414829Y-140083243D01*
X178423446Y-140123785D01*
X178431637Y-140164406D01*
X178433493Y-140171050D01*
X178433495Y-140171061D01*
X178433498Y-140171071D01*
X178659846Y-140965670D01*
X178756481Y-141738752D01*
X178761975Y-141763035D01*
X178772102Y-141785779D01*
X178783330Y-141802336D01*
X179200360Y-142323624D01*
X179245433Y-142426302D01*
X179264628Y-142463020D01*
X179283447Y-142499953D01*
X179287027Y-142505865D01*
X179891171Y-143491739D01*
X179915180Y-143525523D01*
X179938830Y-143559551D01*
X179943180Y-143564922D01*
X180675533Y-144459682D01*
X180703907Y-144489897D01*
X180731953Y-144520397D01*
X180736983Y-144525121D01*
X180736991Y-144525129D01*
X180736999Y-144525136D01*
X181584001Y-145312219D01*
X181616196Y-145338290D01*
X181648140Y-145364717D01*
X181653768Y-145368716D01*
X181653772Y-145368719D01*
X181653774Y-145368720D01*
X182599767Y-146033575D01*
X182635235Y-146055056D01*
X182670437Y-146076882D01*
X182676549Y-146080077D01*
X182676561Y-146080084D01*
X182676573Y-146080089D01*
X183704034Y-146610401D01*
X183742111Y-146626879D01*
X183779928Y-146643716D01*
X183786416Y-146646052D01*
X183786430Y-146646058D01*
X183786443Y-146646062D01*
X184876369Y-147032025D01*
X184916293Y-147043172D01*
X184956082Y-147054732D01*
X184962838Y-147056168D01*
X184962841Y-147056169D01*
X184962844Y-147056169D01*
X186095078Y-147290644D01*
X186136136Y-147296268D01*
X186177136Y-147302323D01*
X186184028Y-147302829D01*
X186722500Y-147339538D01*
X186722501Y-150449618D01*
X186609120Y-150563000D01*
X115155881Y-150563000D01*
X115042500Y-150449620D01*
X115042500Y-147355917D01*
X115121400Y-147352610D01*
X115154023Y-147349009D01*
X115186757Y-147346605D01*
X115193594Y-147345595D01*
X116336550Y-147170698D01*
X116376988Y-147161659D01*
X116417531Y-147153041D01*
X116424168Y-147151113D01*
X117532812Y-146822718D01*
X117571657Y-146808272D01*
X117610648Y-146794234D01*
X117616947Y-146791429D01*
X117616961Y-146791424D01*
X117616973Y-146791418D01*
X118670782Y-146315605D01*
X118707295Y-146296027D01*
X118744032Y-146276821D01*
X118749893Y-146273186D01*
X118749905Y-146273180D01*
X118749915Y-146273173D01*
X119729398Y-145658744D01*
X119762869Y-145634426D01*
X119796707Y-145610379D01*
X119802032Y-145605973D01*
X120689073Y-144864291D01*
X120718950Y-144835640D01*
X120749196Y-144807237D01*
X120753874Y-144802150D01*
X121532051Y-143946944D01*
X121557820Y-143914431D01*
X121583873Y-143882259D01*
X121587810Y-143876594D01*
X121587818Y-143876584D01*
X121587824Y-143876574D01*
X122242730Y-142923680D01*
X122263793Y-142888064D01*
X122285295Y-142852561D01*
X122288432Y-142846403D01*
X122557552Y-142311318D01*
X122980064Y-141804303D01*
X122994051Y-141783707D01*
X123003751Y-141760778D01*
X123008723Y-141737025D01*
X123089508Y-141009956D01*
X123217286Y-140636748D01*
X123228010Y-140596725D01*
X123239157Y-140556801D01*
X123240523Y-140550026D01*
X123463128Y-139415397D01*
X123468322Y-139374283D01*
X123473947Y-139333222D01*
X123474381Y-139326324D01*
X123540940Y-138171983D01*
X123540506Y-138130534D01*
X123540506Y-138089099D01*
X123540000Y-138082223D01*
X123540000Y-138082208D01*
X123539998Y-138082195D01*
X123519856Y-137826262D01*
X148449562Y-137826262D01*
X148568597Y-138083460D01*
X149936450Y-138083460D01*
X149936450Y-136715607D01*
X150190450Y-136715607D01*
X150190450Y-138083460D01*
X151558303Y-138083460D01*
X151677338Y-137826262D01*
X151571374Y-137518790D01*
X151407462Y-137237899D01*
X151191900Y-136994383D01*
X150932972Y-136797600D01*
X150640629Y-136655112D01*
X150447648Y-136596572D01*
X150190450Y-136715607D01*
X149936450Y-136715607D01*
X149679252Y-136596572D01*
X149371780Y-136702536D01*
X149090889Y-136866448D01*
X148847373Y-137082010D01*
X148650590Y-137340938D01*
X148508102Y-137633281D01*
X148449562Y-137826262D01*
X123519856Y-137826262D01*
X123488094Y-137422688D01*
X123508723Y-137237025D01*
X123509034Y-137212130D01*
X123504482Y-137187654D01*
X123499231Y-137172972D01*
X123461515Y-137084967D01*
X123449280Y-136929511D01*
X123443228Y-136888524D01*
X123437602Y-136847453D01*
X123436168Y-136840706D01*
X123436166Y-136840694D01*
X123436163Y-136840683D01*
X123189846Y-135710976D01*
X123178268Y-135671123D01*
X123167139Y-135631263D01*
X123164805Y-135624780D01*
X123164799Y-135624760D01*
X123164791Y-135624743D01*
X122767438Y-134538924D01*
X122750597Y-134501097D01*
X122734124Y-134463030D01*
X122730922Y-134456906D01*
X122730922Y-134456905D01*
X122730918Y-134456899D01*
X122189873Y-133435043D01*
X122168053Y-133399850D01*
X122146567Y-133364372D01*
X122142571Y-133358750D01*
X122142564Y-133358739D01*
X122142556Y-133358730D01*
X121467838Y-132419759D01*
X121441420Y-132387825D01*
X121415341Y-132355620D01*
X121410618Y-132350591D01*
X121410611Y-132350582D01*
X121410603Y-132350575D01*
X120614693Y-131511861D01*
X120584197Y-131483818D01*
X120553977Y-131455440D01*
X120548606Y-131451091D01*
X120058362Y-131058331D01*
X121710590Y-131058331D01*
X121710590Y-131387669D01*
X121774840Y-131710678D01*
X121900872Y-132014947D01*
X122083842Y-132288781D01*
X122316719Y-132521658D01*
X122590553Y-132704628D01*
X122894822Y-132830660D01*
X123217831Y-132894910D01*
X123547169Y-132894910D01*
X123870178Y-132830660D01*
X124174447Y-132704628D01*
X124448281Y-132521658D01*
X124681158Y-132288781D01*
X124864128Y-132014947D01*
X124990160Y-131710678D01*
X125054410Y-131387669D01*
X125054410Y-131058331D01*
X124990160Y-130735322D01*
X124864128Y-130431053D01*
X124681158Y-130157219D01*
X124448281Y-129924342D01*
X124174447Y-129741372D01*
X123870178Y-129615340D01*
X123547169Y-129551090D01*
X123217831Y-129551090D01*
X122894822Y-129615340D01*
X122590553Y-129741372D01*
X122316719Y-129924342D01*
X122083842Y-130157219D01*
X121900872Y-130431053D01*
X121774840Y-130735322D01*
X121710590Y-131058331D01*
X120058362Y-131058331D01*
X119646225Y-130728148D01*
X119612223Y-130704515D01*
X119578414Y-130680489D01*
X119572510Y-130676914D01*
X119572503Y-130676909D01*
X119572496Y-130676906D01*
X118580356Y-130083122D01*
X118543459Y-130064322D01*
X118506704Y-130045107D01*
X118500368Y-130042366D01*
X118500362Y-130042363D01*
X118500357Y-130042361D01*
X117436809Y-129588719D01*
X117397638Y-129575078D01*
X117358679Y-129561052D01*
X117352027Y-129559194D01*
X117352019Y-129559192D01*
X116236743Y-129254087D01*
X116196134Y-129245899D01*
X116155581Y-129237279D01*
X116148737Y-129236341D01*
X116148733Y-129236341D01*
X115546964Y-129157117D01*
X115434080Y-129106946D01*
X115410447Y-129099113D01*
X115385741Y-129096041D01*
X115357593Y-129098466D01*
X115255922Y-129118800D01*
X115002366Y-129085419D01*
X114961006Y-129082817D01*
X114919675Y-129079782D01*
X114912763Y-129079782D01*
X113756519Y-129085836D01*
X113715194Y-129088871D01*
X113673827Y-129091473D01*
X113666980Y-129092411D01*
X112522256Y-129255329D01*
X112481695Y-129263950D01*
X112441094Y-129272137D01*
X112434453Y-129273992D01*
X112434438Y-129273995D01*
X112434425Y-129274000D01*
X111322415Y-129590764D01*
X111283447Y-129604793D01*
X111244284Y-129618431D01*
X111237951Y-129621172D01*
X111237943Y-129621175D01*
X111237936Y-129621178D01*
X110179198Y-130085933D01*
X110142501Y-130105118D01*
X110105546Y-130123947D01*
X110099635Y-130127527D01*
X109113761Y-130731671D01*
X109079953Y-130755697D01*
X109045950Y-130779330D01*
X109040579Y-130783679D01*
X108145818Y-131516033D01*
X108115626Y-131544385D01*
X108085102Y-131572453D01*
X108080372Y-131577491D01*
X107293281Y-132424501D01*
X107267205Y-132456701D01*
X107240783Y-132488640D01*
X107236786Y-132494266D01*
X107236780Y-132494273D01*
X107236776Y-132494280D01*
X106571925Y-133440267D01*
X106550464Y-133475703D01*
X106528618Y-133510937D01*
X106525420Y-133517055D01*
X106525416Y-133517061D01*
X106525416Y-133517062D01*
X105995099Y-134544534D01*
X105978656Y-134582531D01*
X105961783Y-134620428D01*
X105959450Y-134626911D01*
X105959442Y-134626930D01*
X105959437Y-134626948D01*
X105573475Y-135716869D01*
X105562331Y-135756781D01*
X105550768Y-135796582D01*
X105549331Y-135803342D01*
X105314856Y-136935578D01*
X105309233Y-136976628D01*
X105303177Y-137017635D01*
X105302671Y-137024528D01*
X105265962Y-137563000D01*
X102155881Y-137563000D01*
X102042500Y-137449620D01*
X102042500Y-132042810D01*
X105142295Y-132042810D01*
X105219528Y-132290692D01*
X105482349Y-132415876D01*
X105764543Y-132487382D01*
X106055264Y-132502460D01*
X106343341Y-132460531D01*
X106617702Y-132363207D01*
X106753367Y-132290688D01*
X106830137Y-132042344D01*
X105986449Y-131198656D01*
X105142295Y-132042810D01*
X102042500Y-132042810D01*
X102042500Y-130950236D01*
X104503040Y-130950236D01*
X104518118Y-131240957D01*
X104589624Y-131523151D01*
X104714808Y-131785972D01*
X104962690Y-131863205D01*
X105806844Y-131019051D01*
X104963156Y-130175363D01*
X104714812Y-130252133D01*
X104642293Y-130387798D01*
X104544969Y-130662159D01*
X104503040Y-130950236D01*
X102042500Y-130950236D01*
X102042500Y-72395764D01*
X104803040Y-72395764D01*
X104844969Y-72683841D01*
X104942293Y-72958202D01*
X105014812Y-73093867D01*
X105263156Y-73170637D01*
X106106844Y-72326949D01*
X105262690Y-71482795D01*
X105014808Y-71560028D01*
X104889624Y-71822849D01*
X104818118Y-72105043D01*
X104803040Y-72395764D01*
X102042500Y-72395764D01*
X102042500Y-71303190D01*
X105442295Y-71303190D01*
X106286449Y-72147344D01*
X107130137Y-71303656D01*
X107053367Y-71055312D01*
X106917702Y-70982793D01*
X106643341Y-70885469D01*
X106355264Y-70843540D01*
X106064543Y-70858618D01*
X105782349Y-70930124D01*
X105519528Y-71055308D01*
X105442295Y-71303190D01*
X102042500Y-71303190D01*
X102042500Y-65996380D01*
X102155881Y-65883000D01*
X105249583Y-65883000D01*
X105252890Y-65961900D01*
X105256491Y-65994523D01*
X105258895Y-66027257D01*
X105259905Y-66034094D01*
X105434802Y-67177050D01*
X105443841Y-67217488D01*
X105452459Y-67258031D01*
X105454387Y-67264668D01*
X105782782Y-68373312D01*
X105797228Y-68412157D01*
X105811266Y-68451148D01*
X105814071Y-68457447D01*
X105814076Y-68457461D01*
X105814082Y-68457473D01*
X106289895Y-69511282D01*
X106309473Y-69547795D01*
X106328679Y-69584532D01*
X106332314Y-69590393D01*
X106332320Y-69590405D01*
X106332327Y-69590415D01*
X106946756Y-70569898D01*
X106971074Y-70603369D01*
X106995121Y-70637207D01*
X106999527Y-70642532D01*
X107741209Y-71529573D01*
X107769860Y-71559450D01*
X107798263Y-71589696D01*
X107803350Y-71594374D01*
X108658556Y-72372551D01*
X108691069Y-72398320D01*
X108723241Y-72424373D01*
X108728906Y-72428310D01*
X108728916Y-72428318D01*
X108728926Y-72428324D01*
X109681820Y-73083230D01*
X109717436Y-73104293D01*
X109752939Y-73125795D01*
X109759097Y-73128932D01*
X110792068Y-73648462D01*
X110830282Y-73664526D01*
X110868306Y-73680981D01*
X110874818Y-73683248D01*
X110874832Y-73683254D01*
X110874845Y-73683258D01*
X111329851Y-73839041D01*
X109852821Y-73839041D01*
X109815119Y-73768506D01*
X109735767Y-73671815D01*
X108533685Y-72469733D01*
X108436994Y-72390381D01*
X108326680Y-72331416D01*
X108206982Y-72295106D01*
X108082500Y-72282846D01*
X107958018Y-72295106D01*
X107838320Y-72331416D01*
X107763997Y-72371143D01*
X107769858Y-72258134D01*
X107727929Y-71970057D01*
X107630605Y-71695696D01*
X107558086Y-71560031D01*
X107309742Y-71483261D01*
X106466054Y-72326949D01*
X106480197Y-72341092D01*
X106300592Y-72520697D01*
X106286449Y-72506554D01*
X105442761Y-73350242D01*
X105519531Y-73598586D01*
X105655196Y-73671105D01*
X105929557Y-73768429D01*
X106217634Y-73810358D01*
X106330643Y-73804497D01*
X106290916Y-73878820D01*
X106254606Y-73998518D01*
X106242346Y-74123000D01*
X106254606Y-74247482D01*
X106290916Y-74367180D01*
X106349881Y-74477494D01*
X106429233Y-74574185D01*
X107393048Y-75538000D01*
X105925965Y-75538000D01*
X105882499Y-75533719D01*
X105839033Y-75538000D01*
X105839023Y-75538000D01*
X105709010Y-75550805D01*
X105542187Y-75601411D01*
X105388441Y-75683589D01*
X105388439Y-75683590D01*
X105388440Y-75683590D01*
X105287453Y-75766468D01*
X105287451Y-75766470D01*
X105253683Y-75794183D01*
X105225970Y-75827951D01*
X102687456Y-78366466D01*
X102653683Y-78394183D01*
X102543089Y-78528942D01*
X102460911Y-78682688D01*
X102410305Y-78849511D01*
X102397500Y-78979524D01*
X102397500Y-78979531D01*
X102393219Y-79023000D01*
X102397500Y-79066469D01*
X102397501Y-124679521D01*
X102393219Y-124723000D01*
X102410305Y-124896490D01*
X102460912Y-125063313D01*
X102543090Y-125217059D01*
X102625968Y-125318046D01*
X102625971Y-125318049D01*
X102653684Y-125351817D01*
X102687452Y-125379530D01*
X106106922Y-128799001D01*
X106049881Y-128868506D01*
X105990916Y-128978820D01*
X105954606Y-129098518D01*
X105942346Y-129223000D01*
X105954606Y-129347482D01*
X105990916Y-129467180D01*
X106030643Y-129541503D01*
X105917634Y-129535642D01*
X105629557Y-129577571D01*
X105355196Y-129674895D01*
X105219531Y-129747414D01*
X105142761Y-129995758D01*
X105986449Y-130839446D01*
X106000592Y-130825304D01*
X106180197Y-131004909D01*
X106166054Y-131019051D01*
X107009742Y-131862739D01*
X107258086Y-131785969D01*
X107330605Y-131650304D01*
X107427929Y-131375943D01*
X107469858Y-131087866D01*
X107463997Y-130974857D01*
X107538320Y-131014584D01*
X107658018Y-131050894D01*
X107782500Y-131063154D01*
X107906982Y-131050894D01*
X108026680Y-131014584D01*
X108136994Y-130955619D01*
X108233685Y-130876267D01*
X109435767Y-129674185D01*
X109515119Y-129577494D01*
X109574084Y-129467180D01*
X109610394Y-129347482D01*
X109622654Y-129223000D01*
X109610394Y-129098518D01*
X109574084Y-128978820D01*
X109515119Y-128868506D01*
X109435767Y-128771815D01*
X108233685Y-127569733D01*
X108136994Y-127490381D01*
X108026680Y-127431416D01*
X107906982Y-127395106D01*
X107782500Y-127382846D01*
X107658018Y-127395106D01*
X107538320Y-127431416D01*
X107428006Y-127490381D01*
X107358501Y-127547422D01*
X104167500Y-124356422D01*
X104167500Y-123648254D01*
X104209912Y-123750645D01*
X104447337Y-124105977D01*
X104749523Y-124408163D01*
X105104855Y-124645588D01*
X105499679Y-124809130D01*
X105918823Y-124892503D01*
X106346177Y-124892503D01*
X106765321Y-124809130D01*
X107160145Y-124645588D01*
X107515477Y-124408163D01*
X107817663Y-124105977D01*
X108055088Y-123750645D01*
X108218630Y-123355821D01*
X108302003Y-122936677D01*
X108302003Y-122509323D01*
X108218630Y-122090179D01*
X108055088Y-121695355D01*
X107817663Y-121340023D01*
X107515477Y-121037837D01*
X107160145Y-120800412D01*
X106765321Y-120636870D01*
X106346177Y-120553497D01*
X105918823Y-120553497D01*
X105499679Y-120636870D01*
X105104855Y-120800412D01*
X104749523Y-121037837D01*
X104447337Y-121340023D01*
X104209912Y-121695355D01*
X104167500Y-121797746D01*
X104167500Y-101373000D01*
X120394428Y-101373000D01*
X120406688Y-101497482D01*
X120442998Y-101617180D01*
X120501963Y-101727494D01*
X120581315Y-101824185D01*
X120678006Y-101903537D01*
X120788320Y-101962502D01*
X120908018Y-101998812D01*
X121032500Y-102011072D01*
X121496750Y-102008000D01*
X121655500Y-101849250D01*
X121655500Y-100750000D01*
X121909500Y-100750000D01*
X121909500Y-101849250D01*
X122068250Y-102008000D01*
X122532500Y-102011072D01*
X122656982Y-101998812D01*
X122776680Y-101962502D01*
X122886994Y-101903537D01*
X122983685Y-101824185D01*
X123063037Y-101727494D01*
X123122002Y-101617180D01*
X123158312Y-101497482D01*
X123170572Y-101373000D01*
X123167500Y-100908750D01*
X123008750Y-100750000D01*
X121909500Y-100750000D01*
X121655500Y-100750000D01*
X120556250Y-100750000D01*
X120397500Y-100908750D01*
X120394428Y-101373000D01*
X104167500Y-101373000D01*
X104167500Y-97458413D01*
X106526692Y-97458413D01*
X106622456Y-97722814D01*
X106912071Y-97863704D01*
X107223608Y-97945384D01*
X107545095Y-97964718D01*
X107864175Y-97920961D01*
X108168588Y-97815795D01*
X108342544Y-97722814D01*
X108438308Y-97458413D01*
X107482500Y-96502605D01*
X106526692Y-97458413D01*
X104167500Y-97458413D01*
X104167500Y-96385595D01*
X105840782Y-96385595D01*
X105884539Y-96704675D01*
X105989705Y-97009088D01*
X106082686Y-97183044D01*
X106347087Y-97278808D01*
X107302895Y-96323000D01*
X107662105Y-96323000D01*
X108617913Y-97278808D01*
X108882314Y-97183044D01*
X109023204Y-96893429D01*
X109104884Y-96581892D01*
X109124218Y-96260405D01*
X109080461Y-95941325D01*
X108975295Y-95636912D01*
X108882314Y-95462956D01*
X108617913Y-95367192D01*
X107662105Y-96323000D01*
X107302895Y-96323000D01*
X106347087Y-95367192D01*
X106082686Y-95462956D01*
X105941796Y-95752571D01*
X105860116Y-96064108D01*
X105840782Y-96385595D01*
X104167500Y-96385595D01*
X104167500Y-95187587D01*
X106526692Y-95187587D01*
X107482500Y-96143395D01*
X108438308Y-95187587D01*
X108342544Y-94923186D01*
X108052929Y-94782296D01*
X107741392Y-94700616D01*
X107419905Y-94681282D01*
X107100825Y-94725039D01*
X106796412Y-94830205D01*
X106622456Y-94923186D01*
X106526692Y-95187587D01*
X104167500Y-95187587D01*
X104167500Y-81648254D01*
X104209912Y-81750645D01*
X104447337Y-82105977D01*
X104749523Y-82408163D01*
X105104855Y-82645588D01*
X105499679Y-82809130D01*
X105918823Y-82892503D01*
X106346177Y-82892503D01*
X106765321Y-82809130D01*
X107160145Y-82645588D01*
X107515477Y-82408163D01*
X107817663Y-82105977D01*
X108055088Y-81750645D01*
X108218630Y-81355821D01*
X108302003Y-80936677D01*
X108302003Y-80509323D01*
X108218630Y-80090179D01*
X108055088Y-79695355D01*
X107817663Y-79340023D01*
X107515477Y-79037837D01*
X107160145Y-78800412D01*
X106765321Y-78636870D01*
X106346177Y-78553497D01*
X105918823Y-78553497D01*
X105499679Y-78636870D01*
X105104855Y-78800412D01*
X104749523Y-79037837D01*
X104447337Y-79340023D01*
X104209912Y-79695355D01*
X104167500Y-79797746D01*
X104167500Y-79389578D01*
X106249079Y-77308000D01*
X121069031Y-77308000D01*
X121112500Y-77312281D01*
X121155969Y-77308000D01*
X121155977Y-77308000D01*
X121285990Y-77295195D01*
X121327952Y-77282466D01*
X121157162Y-77453256D01*
X120956344Y-77753801D01*
X120818018Y-78087750D01*
X120747500Y-78442268D01*
X120747500Y-78803732D01*
X120818018Y-79158250D01*
X120956344Y-79492199D01*
X121157162Y-79792744D01*
X121412756Y-80048338D01*
X121713301Y-80249156D01*
X122047250Y-80387482D01*
X122401768Y-80458000D01*
X122763232Y-80458000D01*
X123117750Y-80387482D01*
X123451699Y-80249156D01*
X123752244Y-80048338D01*
X124007838Y-79792744D01*
X124208656Y-79492199D01*
X124218680Y-79468000D01*
X125178198Y-79468000D01*
X125290085Y-79635451D01*
X125507634Y-79853000D01*
X125290085Y-80070549D01*
X125109403Y-80340958D01*
X124984947Y-80641421D01*
X124921500Y-80960391D01*
X124921500Y-81285609D01*
X124984947Y-81604579D01*
X125109403Y-81905042D01*
X125290085Y-82175451D01*
X125507634Y-82393000D01*
X125290085Y-82610549D01*
X125109403Y-82880958D01*
X124984947Y-83181421D01*
X124921500Y-83500391D01*
X124921500Y-83825609D01*
X124984947Y-84144579D01*
X125109403Y-84445042D01*
X125290085Y-84715451D01*
X125507634Y-84933000D01*
X125290085Y-85150549D01*
X125223470Y-85250246D01*
X125099137Y-85238000D01*
X125099129Y-85238000D01*
X125055660Y-85233719D01*
X125012191Y-85238000D01*
X120725969Y-85238000D01*
X120682500Y-85233719D01*
X120639031Y-85238000D01*
X120639023Y-85238000D01*
X120523806Y-85249348D01*
X120509009Y-85250805D01*
X120458403Y-85266157D01*
X120342187Y-85301411D01*
X120188441Y-85383589D01*
X120188439Y-85383590D01*
X120188440Y-85383590D01*
X120087453Y-85466468D01*
X120087451Y-85466470D01*
X120053683Y-85494183D01*
X120025970Y-85527951D01*
X114487456Y-91066466D01*
X114453683Y-91094183D01*
X114343089Y-91228942D01*
X114260911Y-91382688D01*
X114210305Y-91549511D01*
X114197500Y-91679524D01*
X114197500Y-91679531D01*
X114193219Y-91723000D01*
X114197500Y-91766469D01*
X114197501Y-94684928D01*
X114082500Y-94684928D01*
X113958018Y-94697188D01*
X113838320Y-94733498D01*
X113728006Y-94792463D01*
X113631315Y-94871815D01*
X113551963Y-94968506D01*
X113492998Y-95078820D01*
X113456688Y-95198518D01*
X113444428Y-95323000D01*
X113444428Y-97323000D01*
X113456688Y-97447482D01*
X113492998Y-97567180D01*
X113551963Y-97677494D01*
X113631315Y-97774185D01*
X113728006Y-97853537D01*
X113838320Y-97912502D01*
X113958018Y-97948812D01*
X114082500Y-97961072D01*
X116082500Y-97961072D01*
X116206982Y-97948812D01*
X116326680Y-97912502D01*
X116436994Y-97853537D01*
X116533685Y-97774185D01*
X116613037Y-97677494D01*
X116672002Y-97567180D01*
X116708312Y-97447482D01*
X116720572Y-97323000D01*
X116720572Y-95323000D01*
X116708312Y-95198518D01*
X116672002Y-95078820D01*
X116613037Y-94968506D01*
X116533685Y-94871815D01*
X116436994Y-94792463D01*
X116326680Y-94733498D01*
X116206982Y-94697188D01*
X116082500Y-94684928D01*
X115967500Y-94684928D01*
X115967500Y-92089578D01*
X121049079Y-87008000D01*
X124764311Y-87008000D01*
X124795347Y-87024589D01*
X124962170Y-87075195D01*
X125092183Y-87088000D01*
X125092193Y-87088000D01*
X125135659Y-87092281D01*
X125178255Y-87088086D01*
X125290085Y-87255451D01*
X125520049Y-87485415D01*
X125790458Y-87666097D01*
X126090921Y-87790553D01*
X126409891Y-87854000D01*
X126735109Y-87854000D01*
X127054079Y-87790553D01*
X127354542Y-87666097D01*
X127624951Y-87485415D01*
X127854915Y-87255451D01*
X127997500Y-87042058D01*
X127997501Y-100976420D01*
X127462632Y-101511290D01*
X127265109Y-101472000D01*
X126939891Y-101472000D01*
X126620921Y-101535447D01*
X126320458Y-101659903D01*
X126050049Y-101840585D01*
X125820085Y-102070549D01*
X125639403Y-102340958D01*
X125514947Y-102641421D01*
X125467500Y-102879953D01*
X125467500Y-97325805D01*
X125471781Y-97282339D01*
X125467500Y-97238873D01*
X125467500Y-97238863D01*
X125454695Y-97108850D01*
X125404089Y-96942027D01*
X125321911Y-96788281D01*
X125291500Y-96751225D01*
X125239032Y-96687293D01*
X125239030Y-96687291D01*
X125211317Y-96653523D01*
X125177550Y-96625811D01*
X123499694Y-94947956D01*
X123471977Y-94914183D01*
X123337219Y-94803589D01*
X123183473Y-94721411D01*
X123016650Y-94670805D01*
X122886637Y-94658000D01*
X122886629Y-94658000D01*
X122852859Y-94654674D01*
X122665386Y-94467201D01*
X122438543Y-94315629D01*
X122186489Y-94211225D01*
X121918911Y-94158000D01*
X121646089Y-94158000D01*
X121378511Y-94211225D01*
X121126457Y-94315629D01*
X120899614Y-94467201D01*
X120706701Y-94660114D01*
X120555129Y-94886957D01*
X120450725Y-95139011D01*
X120397500Y-95406589D01*
X120397500Y-95446422D01*
X119967500Y-95016422D01*
X119967500Y-93492522D01*
X121081105Y-92378917D01*
X121157162Y-92492744D01*
X121412756Y-92748338D01*
X121713301Y-92949156D01*
X122047250Y-93087482D01*
X122401768Y-93158000D01*
X122763232Y-93158000D01*
X123117750Y-93087482D01*
X123451699Y-92949156D01*
X123752244Y-92748338D01*
X124007838Y-92492744D01*
X124208656Y-92192199D01*
X124346982Y-91858250D01*
X124417500Y-91503732D01*
X124417500Y-91142268D01*
X124346982Y-90787750D01*
X124208656Y-90453801D01*
X124007838Y-90153256D01*
X123752244Y-89897662D01*
X123451699Y-89696844D01*
X123117750Y-89558518D01*
X122763232Y-89488000D01*
X122401768Y-89488000D01*
X122047250Y-89558518D01*
X121713301Y-89696844D01*
X121412756Y-89897662D01*
X121157162Y-90153256D01*
X120966902Y-90438000D01*
X120928913Y-90438000D01*
X120885444Y-90433719D01*
X120841975Y-90438000D01*
X120841967Y-90438000D01*
X120711954Y-90450805D01*
X120545131Y-90501411D01*
X120391385Y-90583589D01*
X120290397Y-90666468D01*
X120290395Y-90666470D01*
X120256627Y-90694183D01*
X120228914Y-90727951D01*
X118487456Y-92469410D01*
X118453683Y-92497127D01*
X118343089Y-92631886D01*
X118260911Y-92785632D01*
X118225657Y-92901848D01*
X118211306Y-92949156D01*
X118210305Y-92952455D01*
X118197500Y-93082468D01*
X118197500Y-93082475D01*
X118193219Y-93125944D01*
X118197500Y-93169413D01*
X118197501Y-95339521D01*
X118193219Y-95383000D01*
X118210305Y-95556490D01*
X118260912Y-95723313D01*
X118343090Y-95877059D01*
X118425968Y-95978046D01*
X118425971Y-95978049D01*
X118453684Y-96011817D01*
X118487451Y-96039529D01*
X120397500Y-97949579D01*
X120397500Y-98219411D01*
X120450725Y-98486989D01*
X120555129Y-98739043D01*
X120706701Y-98965886D01*
X120899614Y-99158799D01*
X121015983Y-99236555D01*
X120908018Y-99247188D01*
X120788320Y-99283498D01*
X120678006Y-99342463D01*
X120581315Y-99421815D01*
X120501963Y-99518506D01*
X120442998Y-99628820D01*
X120406688Y-99748518D01*
X120394428Y-99873000D01*
X120397500Y-100337250D01*
X120556250Y-100496000D01*
X121655500Y-100496000D01*
X121655500Y-100476000D01*
X121909500Y-100476000D01*
X121909500Y-100496000D01*
X123008750Y-100496000D01*
X123167500Y-100337250D01*
X123170572Y-99873000D01*
X123158312Y-99748518D01*
X123122002Y-99628820D01*
X123063037Y-99518506D01*
X122983685Y-99421815D01*
X122886994Y-99342463D01*
X122776680Y-99283498D01*
X122656982Y-99247188D01*
X122549017Y-99236555D01*
X122665386Y-99158799D01*
X122858299Y-98965886D01*
X123009871Y-98739043D01*
X123114275Y-98486989D01*
X123167500Y-98219411D01*
X123167500Y-97946589D01*
X123114275Y-97679011D01*
X123009871Y-97426957D01*
X122858299Y-97200114D01*
X122665386Y-97007201D01*
X122438543Y-96855629D01*
X122335627Y-96813000D01*
X122438543Y-96770371D01*
X122665386Y-96618799D01*
X122666383Y-96617802D01*
X123697500Y-97648919D01*
X123697501Y-104579521D01*
X123693219Y-104623000D01*
X123710305Y-104796490D01*
X123760912Y-104963313D01*
X123843090Y-105117059D01*
X123925968Y-105218046D01*
X123925971Y-105218049D01*
X123953684Y-105251817D01*
X123987451Y-105279529D01*
X125025970Y-106318049D01*
X125053683Y-106351817D01*
X125087451Y-106379530D01*
X125087453Y-106379532D01*
X125188440Y-106462410D01*
X125188441Y-106462411D01*
X125342187Y-106544589D01*
X125458403Y-106579843D01*
X125509009Y-106595195D01*
X125523806Y-106596652D01*
X125639023Y-106608000D01*
X125639031Y-106608000D01*
X125682500Y-106612281D01*
X125725969Y-106608000D01*
X151639031Y-106608000D01*
X151682500Y-106612281D01*
X151725969Y-106608000D01*
X151725977Y-106608000D01*
X151855990Y-106595195D01*
X152022813Y-106544589D01*
X152176559Y-106462411D01*
X152311317Y-106351817D01*
X152339034Y-106318044D01*
X153865889Y-104791190D01*
X154201768Y-104858000D01*
X154563232Y-104858000D01*
X154917750Y-104787482D01*
X155251699Y-104649156D01*
X155552244Y-104448338D01*
X155807838Y-104192744D01*
X155998098Y-103908000D01*
X158691928Y-103908000D01*
X158691928Y-104423000D01*
X158704188Y-104547482D01*
X158740498Y-104667180D01*
X158799463Y-104777494D01*
X158878815Y-104874185D01*
X158975506Y-104953537D01*
X159085820Y-105012502D01*
X159205518Y-105048812D01*
X159330000Y-105061072D01*
X161235000Y-105061072D01*
X161359482Y-105048812D01*
X161479180Y-105012502D01*
X161589494Y-104953537D01*
X161686185Y-104874185D01*
X161765537Y-104777494D01*
X161810405Y-104693553D01*
X161913698Y-104778324D01*
X161910921Y-104787482D01*
X161910305Y-104789511D01*
X161897500Y-104919524D01*
X161897500Y-104919531D01*
X161893219Y-104963000D01*
X161897500Y-105006469D01*
X161897501Y-129256420D01*
X150915922Y-140238000D01*
X149904698Y-140238000D01*
X149918399Y-140169120D01*
X149918399Y-139843902D01*
X149894678Y-139724646D01*
X149936450Y-139705313D01*
X149936450Y-138517068D01*
X150049309Y-138404209D01*
X149982560Y-138337460D01*
X150190450Y-138337460D01*
X150190450Y-139705313D01*
X150447648Y-139824348D01*
X150755120Y-139718384D01*
X151036011Y-139554472D01*
X151279527Y-139338910D01*
X151476310Y-139079982D01*
X151618798Y-138787639D01*
X151677338Y-138594658D01*
X151558303Y-138337460D01*
X150190450Y-138337460D01*
X149982560Y-138337460D01*
X149869701Y-138224601D01*
X149756842Y-138337460D01*
X148568597Y-138337460D01*
X148549264Y-138379232D01*
X148430008Y-138355511D01*
X148104790Y-138355511D01*
X147785820Y-138418958D01*
X147485357Y-138543414D01*
X147214948Y-138724096D01*
X146984984Y-138954060D01*
X146804302Y-139224469D01*
X146679846Y-139524932D01*
X146616399Y-139843902D01*
X146616399Y-140151562D01*
X146308738Y-140151562D01*
X145989768Y-140215009D01*
X145689305Y-140339465D01*
X145418896Y-140520147D01*
X145188932Y-140750111D01*
X145008250Y-141020520D01*
X144883794Y-141320983D01*
X144820347Y-141639953D01*
X144820347Y-141965171D01*
X144883794Y-142284141D01*
X145008250Y-142584604D01*
X145188932Y-142855013D01*
X145418896Y-143084977D01*
X145689305Y-143265659D01*
X145989768Y-143390115D01*
X146308738Y-143453562D01*
X146633956Y-143453562D01*
X146952926Y-143390115D01*
X147253389Y-143265659D01*
X147523798Y-143084977D01*
X147753762Y-142855013D01*
X147934444Y-142584604D01*
X148058900Y-142284141D01*
X148122347Y-141965171D01*
X148122347Y-141657511D01*
X148430008Y-141657511D01*
X148627531Y-141618221D01*
X148727358Y-141718049D01*
X148755071Y-141751817D01*
X148788839Y-141779530D01*
X148788841Y-141779532D01*
X148830148Y-141813432D01*
X148889829Y-141862411D01*
X149043575Y-141944589D01*
X149210398Y-141995195D01*
X149340411Y-142008000D01*
X149340419Y-142008000D01*
X149383888Y-142012281D01*
X149427357Y-142008000D01*
X151239031Y-142008000D01*
X151282500Y-142012281D01*
X151325969Y-142008000D01*
X151325977Y-142008000D01*
X151455990Y-141995195D01*
X151622813Y-141944589D01*
X151776559Y-141862411D01*
X151911317Y-141751817D01*
X151939034Y-141718044D01*
X162598747Y-131058331D01*
X176710590Y-131058331D01*
X176710590Y-131387669D01*
X176774840Y-131710678D01*
X176900872Y-132014947D01*
X177083842Y-132288781D01*
X177316719Y-132521658D01*
X177590553Y-132704628D01*
X177894822Y-132830660D01*
X178217831Y-132894910D01*
X178547169Y-132894910D01*
X178870178Y-132830660D01*
X179174447Y-132704628D01*
X179448281Y-132521658D01*
X179681158Y-132288781D01*
X179864128Y-132014947D01*
X179990160Y-131710678D01*
X180054410Y-131387669D01*
X180054410Y-131058331D01*
X179990160Y-130735322D01*
X179864128Y-130431053D01*
X179681158Y-130157219D01*
X179448281Y-129924342D01*
X179174447Y-129741372D01*
X178870178Y-129615340D01*
X178547169Y-129551090D01*
X178217831Y-129551090D01*
X177894822Y-129615340D01*
X177590553Y-129741372D01*
X177316719Y-129924342D01*
X177083842Y-130157219D01*
X176900872Y-130431053D01*
X176774840Y-130735322D01*
X176710590Y-131058331D01*
X162598747Y-131058331D01*
X163377549Y-130279530D01*
X163411317Y-130251817D01*
X163444443Y-130211454D01*
X163501855Y-130141497D01*
X163521911Y-130117059D01*
X163604089Y-129963313D01*
X163648687Y-129816297D01*
X163654695Y-129796491D01*
X163657564Y-129767361D01*
X163667500Y-129666477D01*
X163667500Y-129666469D01*
X163671781Y-129623000D01*
X163667500Y-129579531D01*
X163667500Y-107012398D01*
X163698952Y-107038210D01*
X163728441Y-107062411D01*
X163882187Y-107144589D01*
X163998403Y-107179843D01*
X164049009Y-107195195D01*
X164063806Y-107196652D01*
X164179023Y-107208000D01*
X164179031Y-107208000D01*
X164222500Y-107212281D01*
X164265969Y-107208000D01*
X166239031Y-107208000D01*
X166282500Y-107212281D01*
X166325969Y-107208000D01*
X166325977Y-107208000D01*
X166455990Y-107195195D01*
X166622813Y-107144589D01*
X166776559Y-107062411D01*
X166911317Y-106951817D01*
X166939034Y-106918044D01*
X168377550Y-105479529D01*
X168411317Y-105451817D01*
X168439843Y-105417059D01*
X168521910Y-105317060D01*
X168521911Y-105317059D01*
X168604089Y-105163313D01*
X168654695Y-104996490D01*
X168667500Y-104866477D01*
X168667500Y-104866467D01*
X168671781Y-104823001D01*
X168667500Y-104779535D01*
X168667500Y-103190582D01*
X178972500Y-103190582D01*
X178972501Y-124255419D01*
X178975318Y-124284018D01*
X178975253Y-124293288D01*
X178976152Y-124302460D01*
X179006752Y-124593605D01*
X179018783Y-124652217D01*
X179029989Y-124710963D01*
X179032653Y-124719784D01*
X179119221Y-124999440D01*
X179142399Y-125054578D01*
X179164811Y-125110050D01*
X179169138Y-125118186D01*
X179255500Y-125277908D01*
X179255500Y-126223000D01*
X179257940Y-126247776D01*
X179265167Y-126271601D01*
X179276903Y-126293557D01*
X179292697Y-126312803D01*
X179311943Y-126328597D01*
X179333899Y-126340333D01*
X179357724Y-126347560D01*
X179382500Y-126350000D01*
X180766074Y-126350000D01*
X180767579Y-126350320D01*
X180776742Y-126351283D01*
X180776744Y-126351283D01*
X181068096Y-126379850D01*
X181068098Y-126379850D01*
X181100081Y-126383000D01*
X190664919Y-126383000D01*
X190693528Y-126380182D01*
X190702788Y-126380247D01*
X190711960Y-126379348D01*
X190991193Y-126350000D01*
X192382500Y-126350000D01*
X192407276Y-126347560D01*
X192431101Y-126340333D01*
X192453057Y-126328597D01*
X192472303Y-126312803D01*
X192488097Y-126293557D01*
X192499833Y-126271601D01*
X192507060Y-126247776D01*
X192509500Y-126223000D01*
X192509500Y-125278545D01*
X192602064Y-125104458D01*
X192624855Y-125049164D01*
X192648425Y-124994171D01*
X192651150Y-124985368D01*
X192735764Y-124705113D01*
X192747382Y-124646436D01*
X192759820Y-124587921D01*
X192760783Y-124578756D01*
X192789350Y-124287404D01*
X192789350Y-124287402D01*
X192792500Y-124255419D01*
X192792500Y-122509323D01*
X193462997Y-122509323D01*
X193462997Y-122936677D01*
X193546370Y-123355821D01*
X193709912Y-123750645D01*
X193947337Y-124105977D01*
X194249523Y-124408163D01*
X194604855Y-124645588D01*
X194999679Y-124809130D01*
X195418823Y-124892503D01*
X195846177Y-124892503D01*
X196265321Y-124809130D01*
X196660145Y-124645588D01*
X197015477Y-124408163D01*
X197317663Y-124105977D01*
X197555088Y-123750645D01*
X197718630Y-123355821D01*
X197802003Y-122936677D01*
X197802003Y-122509323D01*
X197718630Y-122090179D01*
X197555088Y-121695355D01*
X197317663Y-121340023D01*
X197015477Y-121037837D01*
X196660145Y-120800412D01*
X196265321Y-120636870D01*
X195846177Y-120553497D01*
X195418823Y-120553497D01*
X194999679Y-120636870D01*
X194604855Y-120800412D01*
X194249523Y-121037837D01*
X193947337Y-121340023D01*
X193709912Y-121695355D01*
X193546370Y-122090179D01*
X193462997Y-122509323D01*
X192792500Y-122509323D01*
X192792500Y-103190581D01*
X192789682Y-103161972D01*
X192789747Y-103152712D01*
X192788848Y-103143541D01*
X192758248Y-102852395D01*
X192746210Y-102793753D01*
X192735010Y-102735037D01*
X192732347Y-102726216D01*
X192645779Y-102446560D01*
X192622601Y-102391422D01*
X192600189Y-102335950D01*
X192595862Y-102327814D01*
X192509500Y-102168092D01*
X192509500Y-101223000D01*
X192507060Y-101198224D01*
X192499833Y-101174399D01*
X192488097Y-101152443D01*
X192472303Y-101133197D01*
X192453057Y-101117403D01*
X192431101Y-101105667D01*
X192407276Y-101098440D01*
X192382500Y-101096000D01*
X190998926Y-101096000D01*
X190997421Y-101095680D01*
X190988258Y-101094717D01*
X190988256Y-101094717D01*
X190696904Y-101066150D01*
X190696902Y-101066150D01*
X190664919Y-101063000D01*
X181100081Y-101063000D01*
X181071472Y-101065818D01*
X181062212Y-101065753D01*
X181053041Y-101066652D01*
X180773807Y-101096000D01*
X179382500Y-101096000D01*
X179357724Y-101098440D01*
X179333899Y-101105667D01*
X179311943Y-101117403D01*
X179292697Y-101133197D01*
X179276903Y-101152443D01*
X179265167Y-101174399D01*
X179257940Y-101198224D01*
X179255500Y-101223000D01*
X179255500Y-102167455D01*
X179162936Y-102341542D01*
X179140145Y-102396836D01*
X179116575Y-102451829D01*
X179113850Y-102460632D01*
X179029236Y-102740886D01*
X179017616Y-102799571D01*
X179005180Y-102858079D01*
X179004217Y-102867244D01*
X178975650Y-103158596D01*
X178972500Y-103190582D01*
X168667500Y-103190582D01*
X168667500Y-99166465D01*
X168671781Y-99122999D01*
X168667500Y-99079533D01*
X168667500Y-99079523D01*
X168654695Y-98949510D01*
X168604089Y-98782687D01*
X168521911Y-98628941D01*
X168411317Y-98494183D01*
X168377549Y-98466470D01*
X167234079Y-97323000D01*
X181444428Y-97323000D01*
X181444428Y-99723000D01*
X181456688Y-99847482D01*
X181492998Y-99967180D01*
X181551963Y-100077494D01*
X181631315Y-100174185D01*
X181728006Y-100253537D01*
X181838320Y-100312502D01*
X181958018Y-100348812D01*
X182082500Y-100361072D01*
X184482500Y-100361072D01*
X184606982Y-100348812D01*
X184726680Y-100312502D01*
X184836994Y-100253537D01*
X184933685Y-100174185D01*
X185013037Y-100077494D01*
X185072002Y-99967180D01*
X185108312Y-99847482D01*
X185112891Y-99800980D01*
X187184126Y-99800980D01*
X187304014Y-100085836D01*
X187627710Y-100246699D01*
X187976569Y-100341322D01*
X188337184Y-100366067D01*
X188695698Y-100319985D01*
X189038333Y-100204846D01*
X189260986Y-100085836D01*
X189380874Y-99800980D01*
X188282500Y-98702605D01*
X187184126Y-99800980D01*
X185112891Y-99800980D01*
X185120572Y-99723000D01*
X185120572Y-98577684D01*
X186439433Y-98577684D01*
X186485515Y-98936198D01*
X186600654Y-99278833D01*
X186719664Y-99501486D01*
X187004520Y-99621374D01*
X188102895Y-98523000D01*
X188462105Y-98523000D01*
X189560480Y-99621374D01*
X189845336Y-99501486D01*
X190006199Y-99177790D01*
X190100822Y-98828931D01*
X190125567Y-98468316D01*
X190079485Y-98109802D01*
X189964346Y-97767167D01*
X189845336Y-97544514D01*
X189560480Y-97424626D01*
X188462105Y-98523000D01*
X188102895Y-98523000D01*
X187004520Y-97424626D01*
X186719664Y-97544514D01*
X186558801Y-97868210D01*
X186464178Y-98217069D01*
X186439433Y-98577684D01*
X185120572Y-98577684D01*
X185120572Y-97323000D01*
X185112892Y-97245020D01*
X187184126Y-97245020D01*
X188282500Y-98343395D01*
X189380874Y-97245020D01*
X189260986Y-96960164D01*
X188937290Y-96799301D01*
X188588431Y-96704678D01*
X188227816Y-96679933D01*
X187869302Y-96726015D01*
X187526667Y-96841154D01*
X187304014Y-96960164D01*
X187184126Y-97245020D01*
X185112892Y-97245020D01*
X185108312Y-97198518D01*
X185072002Y-97078820D01*
X185013037Y-96968506D01*
X184933685Y-96871815D01*
X184836994Y-96792463D01*
X184726680Y-96733498D01*
X184606982Y-96697188D01*
X184482500Y-96684928D01*
X182082500Y-96684928D01*
X181958018Y-96697188D01*
X181838320Y-96733498D01*
X181728006Y-96792463D01*
X181631315Y-96871815D01*
X181551963Y-96968506D01*
X181492998Y-97078820D01*
X181456688Y-97198518D01*
X181444428Y-97323000D01*
X167234079Y-97323000D01*
X156439177Y-86528098D01*
X160437500Y-86528098D01*
X160437500Y-86997902D01*
X160529154Y-87458679D01*
X160708940Y-87892721D01*
X160969950Y-88283349D01*
X161302151Y-88615550D01*
X161692779Y-88876560D01*
X162126821Y-89056346D01*
X162587598Y-89148000D01*
X163057402Y-89148000D01*
X163518179Y-89056346D01*
X163952221Y-88876560D01*
X164342849Y-88615550D01*
X164675050Y-88283349D01*
X164936060Y-87892721D01*
X165115846Y-87458679D01*
X165207500Y-86997902D01*
X165207500Y-86528098D01*
X165115846Y-86067321D01*
X164936060Y-85633279D01*
X164675050Y-85242651D01*
X164342849Y-84910450D01*
X163952221Y-84649440D01*
X163518179Y-84469654D01*
X163057402Y-84378000D01*
X162587598Y-84378000D01*
X162126821Y-84469654D01*
X161692779Y-84649440D01*
X161302151Y-84910450D01*
X160969950Y-85242651D01*
X160708940Y-85633279D01*
X160529154Y-86067321D01*
X160437500Y-86528098D01*
X156439177Y-86528098D01*
X154540552Y-84629474D01*
X154540552Y-79389823D01*
X159360282Y-79389823D01*
X159457978Y-79655860D01*
X159750321Y-79798348D01*
X160064844Y-79881064D01*
X160389462Y-79900831D01*
X160711698Y-79856888D01*
X161019170Y-79750924D01*
X161197022Y-79655860D01*
X161294718Y-79389823D01*
X160327500Y-78422605D01*
X159360282Y-79389823D01*
X154540552Y-79389823D01*
X154540552Y-78304962D01*
X158669669Y-78304962D01*
X158713612Y-78627198D01*
X158819576Y-78934670D01*
X158914640Y-79112522D01*
X159180677Y-79210218D01*
X160147895Y-78243000D01*
X160507105Y-78243000D01*
X161474323Y-79210218D01*
X161740360Y-79112522D01*
X161882848Y-78820179D01*
X161911951Y-78709517D01*
X161914947Y-78724579D01*
X162039403Y-79025042D01*
X162220085Y-79295451D01*
X162450049Y-79525415D01*
X162720458Y-79706097D01*
X163020921Y-79830553D01*
X163339891Y-79894000D01*
X163665109Y-79894000D01*
X163862632Y-79854710D01*
X170057500Y-86049579D01*
X170057500Y-86269260D01*
X170114568Y-86556158D01*
X170226510Y-86826411D01*
X170389025Y-87069632D01*
X170595868Y-87276475D01*
X170839089Y-87438990D01*
X171109342Y-87550932D01*
X171396240Y-87608000D01*
X171688760Y-87608000D01*
X171975658Y-87550932D01*
X172245911Y-87438990D01*
X172489132Y-87276475D01*
X172620987Y-87144620D01*
X172642998Y-87217180D01*
X172701963Y-87327494D01*
X172781315Y-87424185D01*
X172878006Y-87503537D01*
X172988320Y-87562502D01*
X173108018Y-87598812D01*
X173232500Y-87611072D01*
X174932500Y-87611072D01*
X175056982Y-87598812D01*
X175176680Y-87562502D01*
X175286994Y-87503537D01*
X175383685Y-87424185D01*
X175463037Y-87327494D01*
X175522002Y-87217180D01*
X175558312Y-87097482D01*
X175570572Y-86973000D01*
X175570572Y-85273000D01*
X175558312Y-85148518D01*
X175522002Y-85028820D01*
X175463037Y-84918506D01*
X175383685Y-84821815D01*
X175286994Y-84742463D01*
X175176680Y-84683498D01*
X175056982Y-84647188D01*
X174932500Y-84634928D01*
X173846007Y-84634928D01*
X172007500Y-82796422D01*
X172007500Y-80509323D01*
X193462997Y-80509323D01*
X193462997Y-80936677D01*
X193546370Y-81355821D01*
X193709912Y-81750645D01*
X193947337Y-82105977D01*
X194249523Y-82408163D01*
X194604855Y-82645588D01*
X194999679Y-82809130D01*
X195418823Y-82892503D01*
X195846177Y-82892503D01*
X196265321Y-82809130D01*
X196660145Y-82645588D01*
X197015477Y-82408163D01*
X197317663Y-82105977D01*
X197555088Y-81750645D01*
X197718630Y-81355821D01*
X197802003Y-80936677D01*
X197802003Y-80509323D01*
X197718630Y-80090179D01*
X197555088Y-79695355D01*
X197317663Y-79340023D01*
X197015477Y-79037837D01*
X196660145Y-78800412D01*
X196265321Y-78636870D01*
X195846177Y-78553497D01*
X195418823Y-78553497D01*
X194999679Y-78636870D01*
X194604855Y-78800412D01*
X194249523Y-79037837D01*
X193947337Y-79340023D01*
X193709912Y-79695355D01*
X193546370Y-80090179D01*
X193462997Y-80509323D01*
X172007500Y-80509323D01*
X172007500Y-79637302D01*
X172174951Y-79525415D01*
X172404915Y-79295451D01*
X172585597Y-79025042D01*
X172710000Y-78724707D01*
X172834403Y-79025042D01*
X173015085Y-79295451D01*
X173245049Y-79525415D01*
X173515458Y-79706097D01*
X173815921Y-79830553D01*
X174134891Y-79894000D01*
X174460109Y-79894000D01*
X174779079Y-79830553D01*
X175079542Y-79706097D01*
X175349951Y-79525415D01*
X175579915Y-79295451D01*
X175760597Y-79025042D01*
X175885053Y-78724579D01*
X175948500Y-78405609D01*
X175948500Y-78080391D01*
X175885053Y-77761421D01*
X175760597Y-77460958D01*
X175579915Y-77190549D01*
X175349951Y-76960585D01*
X175079542Y-76779903D01*
X174779079Y-76655447D01*
X174460109Y-76592000D01*
X174134891Y-76592000D01*
X173815921Y-76655447D01*
X173515458Y-76779903D01*
X173245049Y-76960585D01*
X173015085Y-77190549D01*
X172834403Y-77460958D01*
X172710000Y-77761293D01*
X172585597Y-77460958D01*
X172404915Y-77190549D01*
X172174951Y-76960585D01*
X171904542Y-76779903D01*
X171604079Y-76655447D01*
X171285109Y-76592000D01*
X170959891Y-76592000D01*
X170640921Y-76655447D01*
X170340458Y-76779903D01*
X170070049Y-76960585D01*
X169840085Y-77190549D01*
X169659403Y-77460958D01*
X169534947Y-77761421D01*
X169471500Y-78080391D01*
X169471500Y-78405609D01*
X169534947Y-78724579D01*
X169659403Y-79025042D01*
X169840085Y-79295451D01*
X170070049Y-79525415D01*
X170237500Y-79637303D01*
X170237501Y-83119521D01*
X170233219Y-83163000D01*
X170250305Y-83336490D01*
X170300912Y-83503313D01*
X170383090Y-83657059D01*
X170465968Y-83758046D01*
X170465971Y-83758049D01*
X170493684Y-83791817D01*
X170527451Y-83819529D01*
X171354270Y-84646348D01*
X171190086Y-84679007D01*
X165114210Y-78603132D01*
X165153500Y-78405609D01*
X165153500Y-78080391D01*
X165090053Y-77761421D01*
X164965597Y-77460958D01*
X164784915Y-77190549D01*
X164554951Y-76960585D01*
X164284542Y-76779903D01*
X163984079Y-76655447D01*
X163665109Y-76592000D01*
X163339891Y-76592000D01*
X163020921Y-76655447D01*
X162720458Y-76779903D01*
X162450049Y-76960585D01*
X162220085Y-77190549D01*
X162039403Y-77460958D01*
X161914947Y-77761421D01*
X161912342Y-77774519D01*
X161835424Y-77551330D01*
X161740360Y-77373478D01*
X161474323Y-77275782D01*
X160507105Y-78243000D01*
X160147895Y-78243000D01*
X159180677Y-77275782D01*
X158914640Y-77373478D01*
X158772152Y-77665821D01*
X158689436Y-77980344D01*
X158669669Y-78304962D01*
X154540552Y-78304962D01*
X154540552Y-77096177D01*
X159360282Y-77096177D01*
X160327500Y-78063395D01*
X161294718Y-77096177D01*
X161197022Y-76830140D01*
X160904679Y-76687652D01*
X160590156Y-76604936D01*
X160265538Y-76585169D01*
X159943302Y-76629112D01*
X159635830Y-76735076D01*
X159457978Y-76830140D01*
X159360282Y-77096177D01*
X154540552Y-77096177D01*
X154540552Y-65966662D01*
X154708003Y-65854775D01*
X154937967Y-65624811D01*
X155118649Y-65354402D01*
X155243105Y-65053939D01*
X155306552Y-64734969D01*
X155306552Y-64427308D01*
X155614213Y-64427308D01*
X155933183Y-64363861D01*
X156233646Y-64239405D01*
X156504055Y-64058723D01*
X156734019Y-63828759D01*
X156914701Y-63558350D01*
X157039157Y-63257887D01*
X157102604Y-62938917D01*
X157102604Y-62613699D01*
X157039157Y-62294729D01*
X156914701Y-61994266D01*
X156734019Y-61723857D01*
X156504055Y-61493893D01*
X156233646Y-61313211D01*
X155933183Y-61188755D01*
X155614213Y-61125308D01*
X155288995Y-61125308D01*
X154970025Y-61188755D01*
X154669562Y-61313211D01*
X154399153Y-61493893D01*
X154169189Y-61723857D01*
X153988507Y-61994266D01*
X153864051Y-62294729D01*
X153800604Y-62613699D01*
X153800604Y-62921360D01*
X153492943Y-62921360D01*
X153173973Y-62984807D01*
X152873510Y-63109263D01*
X152603101Y-63289945D01*
X152373137Y-63519909D01*
X152192455Y-63790318D01*
X152067999Y-64090781D01*
X152004552Y-64409751D01*
X152004552Y-64734969D01*
X152028273Y-64854225D01*
X151986501Y-64873558D01*
X151986501Y-66061803D01*
X151873642Y-66174662D01*
X152053250Y-66354270D01*
X152166109Y-66241411D01*
X152770553Y-66241411D01*
X152770553Y-66495411D01*
X152166109Y-66495411D01*
X152053250Y-66382552D01*
X151873642Y-66562160D01*
X151986501Y-66675019D01*
X151986501Y-67863264D01*
X152243699Y-67982299D01*
X152551171Y-67876335D01*
X152770553Y-67748316D01*
X152770552Y-84952583D01*
X152766271Y-84996052D01*
X152770552Y-85039521D01*
X152770552Y-85039528D01*
X152783357Y-85169541D01*
X152833963Y-85336364D01*
X152916141Y-85490110D01*
X153026735Y-85624869D01*
X153060508Y-85652586D01*
X166897501Y-99489580D01*
X166897500Y-102966950D01*
X166836255Y-102765051D01*
X166688845Y-102489265D01*
X166490463Y-102247537D01*
X166248734Y-102049155D01*
X166247500Y-102048495D01*
X166247500Y-101520205D01*
X166254694Y-101496490D01*
X166271781Y-101323001D01*
X166269469Y-101299523D01*
X166254694Y-101149509D01*
X166204088Y-100982686D01*
X166121910Y-100828940D01*
X166039032Y-100727953D01*
X166039027Y-100727948D01*
X166011317Y-100694183D01*
X165977552Y-100666473D01*
X156150689Y-90839611D01*
X156217500Y-90503732D01*
X156217500Y-90142268D01*
X156146982Y-89787750D01*
X156008656Y-89453801D01*
X155807838Y-89153256D01*
X155552244Y-88897662D01*
X155251699Y-88696844D01*
X154917750Y-88558518D01*
X154563232Y-88488000D01*
X154201768Y-88488000D01*
X153865889Y-88554810D01*
X150467500Y-85156422D01*
X150467500Y-67258735D01*
X150515489Y-67340972D01*
X150731051Y-67584488D01*
X150989979Y-67781271D01*
X151282322Y-67923759D01*
X151475303Y-67982299D01*
X151732501Y-67863264D01*
X151732501Y-66495411D01*
X150467500Y-66495411D01*
X150467500Y-66241411D01*
X151732501Y-66241411D01*
X151732501Y-64873558D01*
X151475303Y-64754523D01*
X151167831Y-64860487D01*
X150886940Y-65024399D01*
X150643424Y-65239961D01*
X150467500Y-65471443D01*
X150467500Y-61966469D01*
X150471781Y-61923000D01*
X150467500Y-61879531D01*
X150467500Y-61879523D01*
X150454695Y-61749510D01*
X150404089Y-61582687D01*
X150321911Y-61428941D01*
X150309678Y-61414035D01*
X150239032Y-61327953D01*
X150239030Y-61327951D01*
X150211317Y-61294183D01*
X150177550Y-61266471D01*
X146639032Y-57727954D01*
X146611317Y-57694183D01*
X146476559Y-57583589D01*
X146322813Y-57501411D01*
X146155990Y-57450805D01*
X146025977Y-57438000D01*
X146025969Y-57438000D01*
X145982500Y-57433719D01*
X145939031Y-57438000D01*
X143578409Y-57438000D01*
X143422830Y-57390805D01*
X143292817Y-57378000D01*
X143292809Y-57378000D01*
X143249340Y-57373719D01*
X143206745Y-57377914D01*
X143094915Y-57210549D01*
X142864951Y-56980585D01*
X142594542Y-56799903D01*
X142294079Y-56675447D01*
X141975109Y-56612000D01*
X141934130Y-56612000D01*
X142005597Y-56505042D01*
X142130053Y-56204579D01*
X142193500Y-55885609D01*
X142193500Y-55560391D01*
X142130053Y-55241421D01*
X142121343Y-55220391D01*
X158676500Y-55220391D01*
X158676500Y-55545609D01*
X158739947Y-55864579D01*
X158864403Y-56165042D01*
X159045085Y-56435451D01*
X159275049Y-56665415D01*
X159545458Y-56846097D01*
X159845921Y-56970553D01*
X160164891Y-57034000D01*
X160490109Y-57034000D01*
X160809079Y-56970553D01*
X161109542Y-56846097D01*
X161379951Y-56665415D01*
X161609915Y-56435451D01*
X161790597Y-56165042D01*
X161915053Y-55864579D01*
X161978500Y-55545609D01*
X161978500Y-55220391D01*
X172646500Y-55220391D01*
X172646500Y-55545609D01*
X172709947Y-55864579D01*
X172834403Y-56165042D01*
X173015085Y-56435451D01*
X173245049Y-56665415D01*
X173515458Y-56846097D01*
X173815921Y-56970553D01*
X174134891Y-57034000D01*
X174460109Y-57034000D01*
X174779079Y-56970553D01*
X175079542Y-56846097D01*
X175349951Y-56665415D01*
X175579915Y-56435451D01*
X175760597Y-56165042D01*
X175885053Y-55864579D01*
X175948500Y-55545609D01*
X175948500Y-55220391D01*
X175885053Y-54901421D01*
X175760597Y-54600958D01*
X175579915Y-54330549D01*
X175349951Y-54100585D01*
X175079542Y-53919903D01*
X174779079Y-53795447D01*
X174460109Y-53732000D01*
X174134891Y-53732000D01*
X173815921Y-53795447D01*
X173515458Y-53919903D01*
X173245049Y-54100585D01*
X173015085Y-54330549D01*
X172834403Y-54600958D01*
X172709947Y-54901421D01*
X172646500Y-55220391D01*
X161978500Y-55220391D01*
X161915053Y-54901421D01*
X161790597Y-54600958D01*
X161609915Y-54330549D01*
X161379951Y-54100585D01*
X161109542Y-53919903D01*
X160809079Y-53795447D01*
X160490109Y-53732000D01*
X160164891Y-53732000D01*
X159845921Y-53795447D01*
X159545458Y-53919903D01*
X159275049Y-54100585D01*
X159045085Y-54330549D01*
X158864403Y-54600958D01*
X158739947Y-54901421D01*
X158676500Y-55220391D01*
X142121343Y-55220391D01*
X142005597Y-54940958D01*
X141824915Y-54670549D01*
X141594951Y-54440585D01*
X141324542Y-54259903D01*
X141024079Y-54135447D01*
X140705109Y-54072000D01*
X140379891Y-54072000D01*
X140060921Y-54135447D01*
X139760458Y-54259903D01*
X139490049Y-54440585D01*
X139272500Y-54658134D01*
X139054951Y-54440585D01*
X138784542Y-54259903D01*
X138484079Y-54135447D01*
X138165109Y-54072000D01*
X137839891Y-54072000D01*
X137520921Y-54135447D01*
X137220458Y-54259903D01*
X136950049Y-54440585D01*
X136732500Y-54658134D01*
X136514951Y-54440585D01*
X136244542Y-54259903D01*
X135944079Y-54135447D01*
X135625109Y-54072000D01*
X135299891Y-54072000D01*
X134980921Y-54135447D01*
X134680458Y-54259903D01*
X134410049Y-54440585D01*
X134192500Y-54658134D01*
X133974951Y-54440585D01*
X133704542Y-54259903D01*
X133404079Y-54135447D01*
X133085109Y-54072000D01*
X132759891Y-54072000D01*
X132440921Y-54135447D01*
X132140458Y-54259903D01*
X131870049Y-54440585D01*
X131652500Y-54658134D01*
X131434951Y-54440585D01*
X131164542Y-54259903D01*
X130864079Y-54135447D01*
X130545109Y-54072000D01*
X130219891Y-54072000D01*
X129900921Y-54135447D01*
X129600458Y-54259903D01*
X129330049Y-54440585D01*
X129112500Y-54658134D01*
X128894951Y-54440585D01*
X128624542Y-54259903D01*
X128324079Y-54135447D01*
X128005109Y-54072000D01*
X127679891Y-54072000D01*
X127360921Y-54135447D01*
X127060458Y-54259903D01*
X126790049Y-54440585D01*
X126560085Y-54670549D01*
X126379403Y-54940958D01*
X126254947Y-55241421D01*
X126191500Y-55560391D01*
X126191500Y-55885609D01*
X126254947Y-56204579D01*
X126379403Y-56505042D01*
X126450870Y-56612000D01*
X126409891Y-56612000D01*
X126090921Y-56675447D01*
X125790458Y-56799903D01*
X125520049Y-56980585D01*
X125290085Y-57210549D01*
X125109403Y-57480958D01*
X124984947Y-57781421D01*
X124921500Y-58100391D01*
X124921500Y-58425609D01*
X124984947Y-58744579D01*
X125109403Y-59045042D01*
X125290085Y-59315451D01*
X125507634Y-59533000D01*
X125290085Y-59750549D01*
X125109403Y-60020958D01*
X124984947Y-60321421D01*
X124921500Y-60640391D01*
X124921500Y-60965609D01*
X124984947Y-61284579D01*
X125109403Y-61585042D01*
X125290085Y-61855451D01*
X125507634Y-62073000D01*
X125290085Y-62290549D01*
X125109403Y-62560958D01*
X124984947Y-62861421D01*
X124921500Y-63180391D01*
X124921500Y-63505609D01*
X124984947Y-63824579D01*
X125109403Y-64125042D01*
X125290085Y-64395451D01*
X125520049Y-64625415D01*
X125621149Y-64692968D01*
X125605282Y-64736177D01*
X126572500Y-65703395D01*
X127539718Y-64736177D01*
X127523851Y-64692968D01*
X127624951Y-64625415D01*
X127854915Y-64395451D01*
X128035597Y-64125042D01*
X128160053Y-63824579D01*
X128223500Y-63505609D01*
X128223500Y-63180391D01*
X128160053Y-62861421D01*
X128035597Y-62560958D01*
X127854915Y-62290549D01*
X127637366Y-62073000D01*
X127854915Y-61855451D01*
X128035597Y-61585042D01*
X128160053Y-61284579D01*
X128223500Y-60965609D01*
X128223500Y-60864962D01*
X140154669Y-60864962D01*
X140198612Y-61187198D01*
X140304576Y-61494670D01*
X140399640Y-61672522D01*
X140665677Y-61770218D01*
X141632895Y-60803000D01*
X141992105Y-60803000D01*
X142959323Y-61770218D01*
X143225360Y-61672522D01*
X143367848Y-61380179D01*
X143450564Y-61065656D01*
X143470331Y-60741038D01*
X143426388Y-60418802D01*
X143320424Y-60111330D01*
X143225360Y-59933478D01*
X143060672Y-59873000D01*
X143894428Y-59873000D01*
X143897500Y-60437250D01*
X144056250Y-60596000D01*
X145255500Y-60596000D01*
X145255500Y-59396750D01*
X145096750Y-59238000D01*
X144532500Y-59234928D01*
X144408018Y-59247188D01*
X144288320Y-59283498D01*
X144178006Y-59342463D01*
X144081315Y-59421815D01*
X144001963Y-59518506D01*
X143942998Y-59628820D01*
X143906688Y-59748518D01*
X143894428Y-59873000D01*
X143060672Y-59873000D01*
X142959323Y-59835782D01*
X141992105Y-60803000D01*
X141632895Y-60803000D01*
X140665677Y-59835782D01*
X140399640Y-59933478D01*
X140257152Y-60225821D01*
X140174436Y-60540344D01*
X140154669Y-60864962D01*
X128223500Y-60864962D01*
X128223500Y-60640391D01*
X128160053Y-60321421D01*
X128035597Y-60020958D01*
X127854915Y-59750549D01*
X127637366Y-59533000D01*
X127854915Y-59315451D01*
X128035597Y-59045042D01*
X128160053Y-58744579D01*
X128223500Y-58425609D01*
X128223500Y-58100391D01*
X128160053Y-57781421D01*
X128035597Y-57480958D01*
X127964130Y-57374000D01*
X128005109Y-57374000D01*
X128324079Y-57310553D01*
X128624542Y-57186097D01*
X128894951Y-57005415D01*
X129112500Y-56787866D01*
X129330049Y-57005415D01*
X129600458Y-57186097D01*
X129900921Y-57310553D01*
X130219891Y-57374000D01*
X130545109Y-57374000D01*
X130864079Y-57310553D01*
X131164542Y-57186097D01*
X131434951Y-57005415D01*
X131652500Y-56787866D01*
X131870049Y-57005415D01*
X132140458Y-57186097D01*
X132440921Y-57310553D01*
X132759891Y-57374000D01*
X133085109Y-57374000D01*
X133404079Y-57310553D01*
X133704542Y-57186097D01*
X133974951Y-57005415D01*
X134192500Y-56787866D01*
X134410049Y-57005415D01*
X134680458Y-57186097D01*
X134980921Y-57310553D01*
X135299891Y-57374000D01*
X135625109Y-57374000D01*
X135944079Y-57310553D01*
X136244542Y-57186097D01*
X136514951Y-57005415D01*
X136732500Y-56787866D01*
X136950049Y-57005415D01*
X137220458Y-57186097D01*
X137520921Y-57310553D01*
X137839891Y-57374000D01*
X138165109Y-57374000D01*
X138484079Y-57310553D01*
X138784542Y-57186097D01*
X139054951Y-57005415D01*
X139272500Y-56787866D01*
X139490049Y-57005415D01*
X139760458Y-57186097D01*
X140060921Y-57310553D01*
X140379891Y-57374000D01*
X140420870Y-57374000D01*
X140349403Y-57480958D01*
X140224947Y-57781421D01*
X140161500Y-58100391D01*
X140161500Y-58425609D01*
X140224947Y-58744579D01*
X140349403Y-59045042D01*
X140530085Y-59315451D01*
X140760049Y-59545415D01*
X140861149Y-59612968D01*
X140845282Y-59656177D01*
X141812500Y-60623395D01*
X142779718Y-59656177D01*
X142763851Y-59612968D01*
X142864951Y-59545415D01*
X143094915Y-59315451D01*
X143172834Y-59198838D01*
X143265863Y-59208000D01*
X143265871Y-59208000D01*
X143309340Y-59212281D01*
X143352809Y-59208000D01*
X145615922Y-59208000D01*
X145657086Y-59249164D01*
X145509500Y-59396750D01*
X145509500Y-60596000D01*
X146708750Y-60596000D01*
X146856336Y-60448414D01*
X148697500Y-62289579D01*
X148697501Y-85479521D01*
X148693219Y-85523000D01*
X148710305Y-85696490D01*
X148760912Y-85863313D01*
X148843090Y-86017059D01*
X148925968Y-86118046D01*
X148925971Y-86118049D01*
X148953684Y-86151817D01*
X148987452Y-86179530D01*
X152614310Y-89806389D01*
X152547500Y-90142268D01*
X152547500Y-90503732D01*
X152618018Y-90858250D01*
X152756344Y-91192199D01*
X152957162Y-91492744D01*
X153212756Y-91748338D01*
X153513301Y-91949156D01*
X153847250Y-92087482D01*
X154201768Y-92158000D01*
X154563232Y-92158000D01*
X154899111Y-92091189D01*
X164477500Y-101669579D01*
X164477500Y-102048495D01*
X164476265Y-102049155D01*
X164234537Y-102247537D01*
X164092500Y-102420609D01*
X163950463Y-102247537D01*
X163708734Y-102049155D01*
X163432948Y-101901745D01*
X163133703Y-101810970D01*
X162822500Y-101780319D01*
X162511296Y-101810970D01*
X162212051Y-101901745D01*
X161936265Y-102049155D01*
X161810405Y-102152446D01*
X161765537Y-102068506D01*
X161686185Y-101971815D01*
X161589494Y-101892463D01*
X161479180Y-101833498D01*
X161359482Y-101797188D01*
X161235000Y-101784928D01*
X159330000Y-101784928D01*
X159205518Y-101797188D01*
X159085820Y-101833498D01*
X158975506Y-101892463D01*
X158878815Y-101971815D01*
X158799463Y-102068506D01*
X158762317Y-102138000D01*
X155998098Y-102138000D01*
X155807838Y-101853256D01*
X155552244Y-101597662D01*
X155251699Y-101396844D01*
X154917750Y-101258518D01*
X154563232Y-101188000D01*
X154201768Y-101188000D01*
X153847250Y-101258518D01*
X153513301Y-101396844D01*
X153212756Y-101597662D01*
X152957162Y-101853256D01*
X152756344Y-102153801D01*
X152618018Y-102487750D01*
X152547500Y-102842268D01*
X152547500Y-103203732D01*
X152614310Y-103539611D01*
X151315922Y-104838000D01*
X149963779Y-104838000D01*
X150217750Y-104787482D01*
X150551699Y-104649156D01*
X150852244Y-104448338D01*
X151107838Y-104192744D01*
X151308656Y-103892199D01*
X151446982Y-103558250D01*
X151517500Y-103203732D01*
X151517500Y-102842268D01*
X151446982Y-102487750D01*
X151308656Y-102153801D01*
X151107838Y-101853256D01*
X150852244Y-101597662D01*
X150551699Y-101396844D01*
X150217750Y-101258518D01*
X149863232Y-101188000D01*
X149501768Y-101188000D01*
X149147250Y-101258518D01*
X148813301Y-101396844D01*
X148512756Y-101597662D01*
X148257162Y-101853256D01*
X148056344Y-102153801D01*
X147918018Y-102487750D01*
X147847500Y-102842268D01*
X147847500Y-103203732D01*
X147918018Y-103558250D01*
X148056344Y-103892199D01*
X148257162Y-104192744D01*
X148512756Y-104448338D01*
X148813301Y-104649156D01*
X149147250Y-104787482D01*
X149401221Y-104838000D01*
X126049079Y-104838000D01*
X125467500Y-104256422D01*
X125467500Y-103366047D01*
X125514947Y-103604579D01*
X125639403Y-103905042D01*
X125820085Y-104175451D01*
X126050049Y-104405415D01*
X126320458Y-104586097D01*
X126620921Y-104710553D01*
X126939891Y-104774000D01*
X127265109Y-104774000D01*
X127584079Y-104710553D01*
X127884542Y-104586097D01*
X128154951Y-104405415D01*
X128290543Y-104269823D01*
X128675282Y-104269823D01*
X128772978Y-104535860D01*
X129065321Y-104678348D01*
X129379844Y-104761064D01*
X129704462Y-104780831D01*
X130026698Y-104736888D01*
X130334170Y-104630924D01*
X130512022Y-104535860D01*
X130609718Y-104269823D01*
X129642500Y-103302605D01*
X128675282Y-104269823D01*
X128290543Y-104269823D01*
X128384915Y-104175451D01*
X128452468Y-104074351D01*
X128495677Y-104090218D01*
X129462895Y-103123000D01*
X129448753Y-103108858D01*
X129628358Y-102929253D01*
X129642500Y-102943395D01*
X129656643Y-102929253D01*
X129836248Y-103108858D01*
X129822105Y-103123000D01*
X130789323Y-104090218D01*
X130832532Y-104074351D01*
X130900085Y-104175451D01*
X131130049Y-104405415D01*
X131400458Y-104586097D01*
X131700921Y-104710553D01*
X132019891Y-104774000D01*
X132345109Y-104774000D01*
X132664079Y-104710553D01*
X132964542Y-104586097D01*
X133234951Y-104405415D01*
X133452500Y-104187866D01*
X133670049Y-104405415D01*
X133940458Y-104586097D01*
X134240921Y-104710553D01*
X134559891Y-104774000D01*
X134885109Y-104774000D01*
X135204079Y-104710553D01*
X135504542Y-104586097D01*
X135774951Y-104405415D01*
X135992500Y-104187866D01*
X136210049Y-104405415D01*
X136480458Y-104586097D01*
X136780921Y-104710553D01*
X137099891Y-104774000D01*
X137425109Y-104774000D01*
X137744079Y-104710553D01*
X138044542Y-104586097D01*
X138314951Y-104405415D01*
X138532500Y-104187866D01*
X138750049Y-104405415D01*
X139020458Y-104586097D01*
X139320921Y-104710553D01*
X139639891Y-104774000D01*
X139965109Y-104774000D01*
X140284079Y-104710553D01*
X140584542Y-104586097D01*
X140854951Y-104405415D01*
X141072500Y-104187866D01*
X141290049Y-104405415D01*
X141560458Y-104586097D01*
X141860921Y-104710553D01*
X142179891Y-104774000D01*
X142505109Y-104774000D01*
X142824079Y-104710553D01*
X143124542Y-104586097D01*
X143394951Y-104405415D01*
X143612500Y-104187866D01*
X143830049Y-104405415D01*
X144100458Y-104586097D01*
X144400921Y-104710553D01*
X144719891Y-104774000D01*
X145045109Y-104774000D01*
X145364079Y-104710553D01*
X145664542Y-104586097D01*
X145934951Y-104405415D01*
X146164915Y-104175451D01*
X146345597Y-103905042D01*
X146470053Y-103604579D01*
X146533500Y-103285609D01*
X146533500Y-102960391D01*
X146470053Y-102641421D01*
X146345597Y-102340958D01*
X146164915Y-102070549D01*
X145934951Y-101840585D01*
X145664542Y-101659903D01*
X145364079Y-101535447D01*
X145045109Y-101472000D01*
X144719891Y-101472000D01*
X144400921Y-101535447D01*
X144100458Y-101659903D01*
X143830049Y-101840585D01*
X143612500Y-102058134D01*
X143394951Y-101840585D01*
X143124542Y-101659903D01*
X142824079Y-101535447D01*
X142505109Y-101472000D01*
X142179891Y-101472000D01*
X141860921Y-101535447D01*
X141560458Y-101659903D01*
X141290049Y-101840585D01*
X141072500Y-102058134D01*
X140854951Y-101840585D01*
X140584542Y-101659903D01*
X140284079Y-101535447D01*
X139965109Y-101472000D01*
X139639891Y-101472000D01*
X139320921Y-101535447D01*
X139020458Y-101659903D01*
X138750049Y-101840585D01*
X138532500Y-102058134D01*
X138314951Y-101840585D01*
X138044542Y-101659903D01*
X137744079Y-101535447D01*
X137425109Y-101472000D01*
X137099891Y-101472000D01*
X136780921Y-101535447D01*
X136480458Y-101659903D01*
X136210049Y-101840585D01*
X135992500Y-102058134D01*
X135774951Y-101840585D01*
X135504542Y-101659903D01*
X135204079Y-101535447D01*
X134885109Y-101472000D01*
X134559891Y-101472000D01*
X134362368Y-101511290D01*
X132967500Y-100116422D01*
X132967500Y-90142268D01*
X147847500Y-90142268D01*
X147847500Y-90503732D01*
X147918018Y-90858250D01*
X148056344Y-91192199D01*
X148257162Y-91492744D01*
X148512756Y-91748338D01*
X148813301Y-91949156D01*
X149147250Y-92087482D01*
X149501768Y-92158000D01*
X149863232Y-92158000D01*
X150217750Y-92087482D01*
X150551699Y-91949156D01*
X150852244Y-91748338D01*
X151107838Y-91492744D01*
X151308656Y-91192199D01*
X151446982Y-90858250D01*
X151517500Y-90503732D01*
X151517500Y-90142268D01*
X151446982Y-89787750D01*
X151308656Y-89453801D01*
X151107838Y-89153256D01*
X150852244Y-88897662D01*
X150551699Y-88696844D01*
X150217750Y-88558518D01*
X149863232Y-88488000D01*
X149501768Y-88488000D01*
X149147250Y-88558518D01*
X148813301Y-88696844D01*
X148512756Y-88897662D01*
X148257162Y-89153256D01*
X148056344Y-89453801D01*
X147918018Y-89787750D01*
X147847500Y-90142268D01*
X132967500Y-90142268D01*
X132967500Y-87312866D01*
X133140049Y-87485415D01*
X133410458Y-87666097D01*
X133710921Y-87790553D01*
X134029891Y-87854000D01*
X134355109Y-87854000D01*
X134674079Y-87790553D01*
X134974542Y-87666097D01*
X135244951Y-87485415D01*
X135462500Y-87267866D01*
X135680049Y-87485415D01*
X135950458Y-87666097D01*
X136250921Y-87790553D01*
X136569891Y-87854000D01*
X136895109Y-87854000D01*
X137214079Y-87790553D01*
X137514542Y-87666097D01*
X137784951Y-87485415D01*
X138002500Y-87267866D01*
X138220049Y-87485415D01*
X138490458Y-87666097D01*
X138790921Y-87790553D01*
X139109891Y-87854000D01*
X139435109Y-87854000D01*
X139754079Y-87790553D01*
X140054542Y-87666097D01*
X140324951Y-87485415D01*
X140542500Y-87267866D01*
X140760049Y-87485415D01*
X141030458Y-87666097D01*
X141330921Y-87790553D01*
X141649891Y-87854000D01*
X141975109Y-87854000D01*
X142294079Y-87790553D01*
X142594542Y-87666097D01*
X142864951Y-87485415D01*
X143094915Y-87255451D01*
X143206802Y-87088000D01*
X144247393Y-87088000D01*
X144435868Y-87276475D01*
X144679089Y-87438990D01*
X144949342Y-87550932D01*
X145236240Y-87608000D01*
X145528760Y-87608000D01*
X145815658Y-87550932D01*
X146085911Y-87438990D01*
X146329132Y-87276475D01*
X146535975Y-87069632D01*
X146698490Y-86826411D01*
X146810432Y-86556158D01*
X146867500Y-86269260D01*
X146867500Y-85976740D01*
X146810432Y-85689842D01*
X146698490Y-85419589D01*
X146535975Y-85176368D01*
X146329132Y-84969525D01*
X146154740Y-84853000D01*
X146329132Y-84736475D01*
X146535975Y-84529632D01*
X146698490Y-84286411D01*
X146810432Y-84016158D01*
X146867500Y-83729260D01*
X146867500Y-83436740D01*
X146810432Y-83149842D01*
X146698490Y-82879589D01*
X146535975Y-82636368D01*
X146329132Y-82429525D01*
X146154740Y-82313000D01*
X146329132Y-82196475D01*
X146535975Y-81989632D01*
X146698490Y-81746411D01*
X146810432Y-81476158D01*
X146867500Y-81189260D01*
X146867500Y-80896740D01*
X146810432Y-80609842D01*
X146698490Y-80339589D01*
X146535975Y-80096368D01*
X146329132Y-79889525D01*
X146154740Y-79773000D01*
X146329132Y-79656475D01*
X146535975Y-79449632D01*
X146698490Y-79206411D01*
X146810432Y-78936158D01*
X146867500Y-78649260D01*
X146867500Y-78356740D01*
X146810432Y-78069842D01*
X146698490Y-77799589D01*
X146535975Y-77556368D01*
X146329132Y-77349525D01*
X146154740Y-77233000D01*
X146329132Y-77116475D01*
X146535975Y-76909632D01*
X146698490Y-76666411D01*
X146810432Y-76396158D01*
X146867500Y-76109260D01*
X146867500Y-75816740D01*
X146810432Y-75529842D01*
X146698490Y-75259589D01*
X146535975Y-75016368D01*
X146329132Y-74809525D01*
X146154740Y-74693000D01*
X146329132Y-74576475D01*
X146535975Y-74369632D01*
X146698490Y-74126411D01*
X146810432Y-73856158D01*
X146867500Y-73569260D01*
X146867500Y-73276740D01*
X146810432Y-72989842D01*
X146698490Y-72719589D01*
X146535975Y-72476368D01*
X146329132Y-72269525D01*
X146154740Y-72153000D01*
X146329132Y-72036475D01*
X146535975Y-71829632D01*
X146698490Y-71586411D01*
X146810432Y-71316158D01*
X146867500Y-71029260D01*
X146867500Y-70736740D01*
X146810432Y-70449842D01*
X146698490Y-70179589D01*
X146535975Y-69936368D01*
X146329132Y-69729525D01*
X146154740Y-69613000D01*
X146329132Y-69496475D01*
X146535975Y-69289632D01*
X146698490Y-69046411D01*
X146810432Y-68776158D01*
X146867500Y-68489260D01*
X146867500Y-68196740D01*
X146810432Y-67909842D01*
X146698490Y-67639589D01*
X146535975Y-67396368D01*
X146329132Y-67189525D01*
X146154740Y-67073000D01*
X146329132Y-66956475D01*
X146535975Y-66749632D01*
X146698490Y-66506411D01*
X146810432Y-66236158D01*
X146867500Y-65949260D01*
X146867500Y-65656740D01*
X146810432Y-65369842D01*
X146698490Y-65099589D01*
X146535975Y-64856368D01*
X146329132Y-64649525D01*
X146154740Y-64533000D01*
X146329132Y-64416475D01*
X146535975Y-64209632D01*
X146698490Y-63966411D01*
X146810432Y-63696158D01*
X146867500Y-63409260D01*
X146867500Y-63116740D01*
X146810432Y-62829842D01*
X146698490Y-62559589D01*
X146535975Y-62316368D01*
X146404120Y-62184513D01*
X146476680Y-62162502D01*
X146586994Y-62103537D01*
X146683685Y-62024185D01*
X146763037Y-61927494D01*
X146822002Y-61817180D01*
X146858312Y-61697482D01*
X146870572Y-61573000D01*
X146867500Y-61008750D01*
X146708750Y-60850000D01*
X145509500Y-60850000D01*
X145509500Y-60870000D01*
X145255500Y-60870000D01*
X145255500Y-60850000D01*
X144056250Y-60850000D01*
X143897500Y-61008750D01*
X143894428Y-61573000D01*
X143906688Y-61697482D01*
X143942998Y-61817180D01*
X144001963Y-61927494D01*
X144081315Y-62024185D01*
X144178006Y-62103537D01*
X144288320Y-62162502D01*
X144360880Y-62184513D01*
X144229025Y-62316368D01*
X144134390Y-62458000D01*
X143206802Y-62458000D01*
X143094915Y-62290549D01*
X142864951Y-62060585D01*
X142763851Y-61993032D01*
X142779718Y-61949823D01*
X141812500Y-60982605D01*
X140845282Y-61949823D01*
X140861149Y-61993032D01*
X140760049Y-62060585D01*
X140530085Y-62290549D01*
X140349403Y-62560958D01*
X140224947Y-62861421D01*
X140161500Y-63180391D01*
X140161500Y-63505609D01*
X140224947Y-63824579D01*
X140349403Y-64125042D01*
X140530085Y-64395451D01*
X140747634Y-64613000D01*
X140530085Y-64830549D01*
X140349403Y-65100958D01*
X140224947Y-65401421D01*
X140161500Y-65720391D01*
X140161500Y-65761370D01*
X140054542Y-65689903D01*
X139754079Y-65565447D01*
X139435109Y-65502000D01*
X139109891Y-65502000D01*
X138790921Y-65565447D01*
X138490458Y-65689903D01*
X138220049Y-65870585D01*
X137990085Y-66100549D01*
X137809403Y-66370958D01*
X137684947Y-66671421D01*
X137621500Y-66990391D01*
X137621500Y-67315609D01*
X137660790Y-67513131D01*
X129887456Y-75286466D01*
X129853683Y-75314183D01*
X129743089Y-75448942D01*
X129660911Y-75602688D01*
X129610305Y-75769511D01*
X129597500Y-75899524D01*
X129597500Y-75899531D01*
X129593219Y-75943000D01*
X129597500Y-75986469D01*
X129597500Y-84012357D01*
X129511317Y-83907343D01*
X129477550Y-83879631D01*
X128665872Y-83067954D01*
X128638157Y-83034183D01*
X128503399Y-82923589D01*
X128349653Y-82841411D01*
X128182830Y-82790805D01*
X128052817Y-82778000D01*
X128052809Y-82778000D01*
X128009340Y-82773719D01*
X127966745Y-82777914D01*
X127854915Y-82610549D01*
X127637366Y-82393000D01*
X127854915Y-82175451D01*
X128035597Y-81905042D01*
X128160053Y-81604579D01*
X128223500Y-81285609D01*
X128223500Y-80960391D01*
X128160053Y-80641421D01*
X128035597Y-80340958D01*
X127854915Y-80070549D01*
X127637366Y-79853000D01*
X127854915Y-79635451D01*
X128035597Y-79365042D01*
X128160053Y-79064579D01*
X128223500Y-78745609D01*
X128223500Y-78420391D01*
X128160053Y-78101421D01*
X128035597Y-77800958D01*
X127854915Y-77530549D01*
X127637366Y-77313000D01*
X127854915Y-77095451D01*
X128035597Y-76825042D01*
X128160053Y-76524579D01*
X128223500Y-76205609D01*
X128223500Y-75880391D01*
X128160053Y-75561421D01*
X128035597Y-75260958D01*
X127854915Y-74990549D01*
X127637366Y-74773000D01*
X127854915Y-74555451D01*
X128035597Y-74285042D01*
X128160053Y-73984579D01*
X128223500Y-73665609D01*
X128223500Y-73340391D01*
X128160053Y-73021421D01*
X128035597Y-72720958D01*
X127854915Y-72450549D01*
X127637366Y-72233000D01*
X127854915Y-72015451D01*
X128035597Y-71745042D01*
X128160053Y-71444579D01*
X128223500Y-71125609D01*
X128223500Y-70800391D01*
X128160053Y-70481421D01*
X128035597Y-70180958D01*
X127854915Y-69910549D01*
X127637366Y-69693000D01*
X127854915Y-69475451D01*
X128035597Y-69205042D01*
X128160053Y-68904579D01*
X128223500Y-68585609D01*
X128223500Y-68260391D01*
X128160053Y-67941421D01*
X128035597Y-67640958D01*
X127854915Y-67370549D01*
X127624951Y-67140585D01*
X127523851Y-67073032D01*
X127539718Y-67029823D01*
X126572500Y-66062605D01*
X125605282Y-67029823D01*
X125621149Y-67073032D01*
X125520049Y-67140585D01*
X125290085Y-67370549D01*
X125109403Y-67640958D01*
X124984947Y-67941421D01*
X124921500Y-68260391D01*
X124921500Y-68585609D01*
X124960790Y-68783131D01*
X119904881Y-73839041D01*
X117435058Y-73839041D01*
X118066577Y-73607938D01*
X118104422Y-73591089D01*
X118142470Y-73574624D01*
X118148575Y-73571431D01*
X118148595Y-73571422D01*
X118148612Y-73571412D01*
X119170458Y-73030373D01*
X119205673Y-73008539D01*
X119241128Y-72987067D01*
X119246750Y-72983071D01*
X119246761Y-72983064D01*
X119246770Y-72983056D01*
X120185741Y-72308338D01*
X120217675Y-72281920D01*
X120249880Y-72255841D01*
X120254909Y-72251118D01*
X120254918Y-72251111D01*
X120254925Y-72251103D01*
X121093639Y-71455193D01*
X121121682Y-71424697D01*
X121150060Y-71394477D01*
X121154409Y-71389106D01*
X121877352Y-70486725D01*
X121900985Y-70452723D01*
X121925011Y-70418914D01*
X121928586Y-70413010D01*
X121928591Y-70413003D01*
X121928594Y-70412996D01*
X122522378Y-69420856D01*
X122541196Y-69383925D01*
X122560393Y-69347204D01*
X122563131Y-69340875D01*
X122563138Y-69340862D01*
X122563142Y-69340849D01*
X122752446Y-68897034D01*
X123488170Y-67793447D01*
X123499883Y-67771478D01*
X123507086Y-67747646D01*
X123509500Y-67723000D01*
X123509500Y-65944962D01*
X124914669Y-65944962D01*
X124958612Y-66267198D01*
X125064576Y-66574670D01*
X125159640Y-66752522D01*
X125425677Y-66850218D01*
X126392895Y-65883000D01*
X126752105Y-65883000D01*
X127719323Y-66850218D01*
X127985360Y-66752522D01*
X128127848Y-66460179D01*
X128210564Y-66145656D01*
X128230331Y-65821038D01*
X128186388Y-65498802D01*
X128080424Y-65191330D01*
X127985360Y-65013478D01*
X127719323Y-64915782D01*
X126752105Y-65883000D01*
X126392895Y-65883000D01*
X125425677Y-64915782D01*
X125159640Y-65013478D01*
X125017152Y-65305821D01*
X124934436Y-65620344D01*
X124914669Y-65944962D01*
X123509500Y-65944962D01*
X123509500Y-65923237D01*
X123520081Y-65842866D01*
X123522683Y-65801506D01*
X123525718Y-65760175D01*
X123525718Y-65753263D01*
X123519664Y-64597019D01*
X123516629Y-64555694D01*
X123514027Y-64514327D01*
X123513089Y-64507480D01*
X123509500Y-64482262D01*
X123509500Y-63223000D01*
X123507060Y-63198224D01*
X123499833Y-63174399D01*
X123492767Y-63159990D01*
X123105913Y-62482996D01*
X123014736Y-62162915D01*
X123000707Y-62123947D01*
X122987069Y-62084784D01*
X122984328Y-62078451D01*
X122984325Y-62078443D01*
X122984322Y-62078436D01*
X122519567Y-61019698D01*
X122500382Y-60983001D01*
X122481553Y-60946046D01*
X122477973Y-60940135D01*
X121873829Y-59954261D01*
X121849803Y-59920453D01*
X121826170Y-59886450D01*
X121821821Y-59881079D01*
X121089467Y-58986318D01*
X121061115Y-58956126D01*
X121033047Y-58925602D01*
X121028009Y-58920872D01*
X120180999Y-58133781D01*
X120148799Y-58107705D01*
X120116860Y-58081283D01*
X120111234Y-58077286D01*
X120111227Y-58077280D01*
X120111220Y-58077276D01*
X119455615Y-57616509D01*
X118972303Y-57133197D01*
X118953057Y-57117403D01*
X118931101Y-57105667D01*
X118913302Y-57099792D01*
X118253006Y-56934718D01*
X118060966Y-56835599D01*
X118022969Y-56819156D01*
X117985072Y-56802283D01*
X117978589Y-56799950D01*
X117978570Y-56799942D01*
X117978552Y-56799937D01*
X116888631Y-56413975D01*
X116848719Y-56402831D01*
X116808918Y-56391268D01*
X116802158Y-56389831D01*
X115669922Y-56155356D01*
X115628872Y-56149733D01*
X115587865Y-56143677D01*
X115580974Y-56143171D01*
X115580972Y-56143171D01*
X115042500Y-56106462D01*
X115042500Y-52996380D01*
X115155881Y-52883000D01*
X186609120Y-52883000D01*
X186722501Y-52996382D01*
M02*
