<?xml version="1.0" encoding="UTF-8" standalone="no"?>
<!-- Created with Inkscape (http://www.inkscape.org/) -->

<svg
   xmlns:dc="http://purl.org/dc/elements/1.1/"
   xmlns:cc="http://creativecommons.org/ns#"
   xmlns:rdf="http://www.w3.org/1999/02/22-rdf-syntax-ns#"
   xmlns:svg="http://www.w3.org/2000/svg"
   xmlns="http://www.w3.org/2000/svg"
   xmlns:sodipodi="http://sodipodi.sourceforge.net/DTD/sodipodi-0.dtd"
   xmlns:inkscape="http://www.inkscape.org/namespaces/inkscape"
   width="120.0254mm"
   height="120.0254mm"
   viewBox="0 0 120.0254 120.0254"
   version="1.1"
   id="svg6033"
   inkscape:version="0.92.3 (2405546, 2018-03-11)"
   sodipodi:docname="GeaiRareDit-Face1-Print.svg">
  <defs
     id="defs6027" />
  <sodipodi:namedview
     id="base"
     pagecolor="#ffffff"
     bordercolor="#666666"
     borderopacity="1.0"
     inkscape:pageopacity="0.0"
     inkscape:pageshadow="2"
     inkscape:zoom="0.98994949"
     inkscape:cx="289.64507"
     inkscape:cy="139.67978"
     inkscape:document-units="mm"
     inkscape:current-layer="layer1"
     showgrid="false"
     fit-margin-top="5"
     fit-margin-bottom="5"
     fit-margin-right="5"
     fit-margin-left="5"
     inkscape:window-width="1613"
     inkscape:window-height="1022"
     inkscape:window-x="67"
     inkscape:window-y="0"
     inkscape:window-maximized="1" />
  <metadata
     id="metadata6030">
    <rdf:RDF>
      <cc:Work
         rdf:about="">
        <dc:format>image/svg+xml</dc:format>
        <dc:type
           rdf:resource="http://purl.org/dc/dcmitype/StillImage" />
        <dc:title></dc:title>
      </cc:Work>
    </rdf:RDF>
  </metadata>
  <g
     inkscape:label="Calque 1"
     inkscape:groupmode="layer"
     id="layer1"
     transform="translate(-9.5349201,-7.9337308)">
    <g
       id="g4704"
       style="fill:#000000;fill-opacity:1;stroke:none;stroke-width:0.89999998;stroke-miterlimit:4;stroke-dasharray:none;stroke-opacity:1"
       transform="matrix(0.19956125,-0.19956125,0.19956125,0.19956125,-105.85484,40.796155)">
      <g
         id="g4313"
         style="fill:#000000;fill-opacity:1;stroke:none;stroke-width:0.89999998;stroke-miterlimit:4;stroke-dasharray:none;stroke-opacity:1">
        <path
           style="opacity:1;fill:#000000;fill-opacity:1;fill-rule:nonzero;stroke:none;stroke-width:0.89999998;stroke-linejoin:round;stroke-miterlimit:4;stroke-dasharray:none;stroke-opacity:1"
           d="m 262.45764,393.22571 h 15.94489 c 1.96299,0 3.5433,1.58031 3.5433,3.54331 v 15.94488 c 0,1.96299 -1.58031,3.5433 -3.5433,3.5433 h -15.94489 c -1.96299,0 -3.5433,-1.58031 -3.5433,-3.5433 v -15.94488 c 0,-1.963 1.58031,-3.54331 3.5433,-3.54331 z"
           id="rect4297"
           inkscape:connector-curvature="0" />
        <path
           style="opacity:1;fill:#000000;fill-opacity:1;fill-rule:nonzero;stroke:none;stroke-width:0.89999998;stroke-linejoin:round;stroke-miterlimit:4;stroke-dasharray:none;stroke-opacity:1"
           d="m 291.31912,393.22571 h 15.94489 c 1.96299,0 3.5433,1.58031 3.5433,3.54331 v 15.94488 c 0,1.96299 -1.58031,3.5433 -3.5433,3.5433 h -15.94489 c -1.96299,0 -3.5433,-1.58031 -3.5433,-3.5433 v -15.94488 c 0,-1.963 1.58031,-3.54331 3.5433,-3.54331 z"
           id="rect4299"
           inkscape:connector-curvature="0" />
        <path
           style="opacity:1;fill:#000000;fill-opacity:1;fill-rule:nonzero;stroke:none;stroke-width:0.89999998;stroke-linejoin:round;stroke-miterlimit:4;stroke-dasharray:none;stroke-opacity:1"
           d="m 320.18064,393.22571 h 15.94488 c 1.96299,0 3.54331,1.58031 3.54331,3.54331 v 15.94488 c 0,1.96299 -1.58032,3.5433 -3.54331,3.5433 h -15.94488 c -1.963,0 -3.54331,-1.58031 -3.54331,-3.5433 v -15.94488 c 0,-1.963 1.58031,-3.54331 3.54331,-3.54331 z"
           id="rect4301"
           inkscape:connector-curvature="0" />
        <path
           style="opacity:1;fill:#000000;fill-opacity:1;fill-rule:nonzero;stroke:none;stroke-width:0.89999998;stroke-linejoin:round;stroke-miterlimit:4;stroke-dasharray:none;stroke-opacity:1"
           d="m 349.04215,393.22571 h 15.94488 c 1.96299,0 3.54331,1.58031 3.54331,3.54331 v 15.94488 c 0,1.96299 -1.58032,3.5433 -3.54331,3.5433 h -15.94488 c -1.96299,0 -3.54331,-1.58031 -3.54331,-3.5433 v -15.94488 c 0,-1.963 1.58032,-3.54331 3.54331,-3.54331 z"
           id="rect4303"
           inkscape:connector-curvature="0" />
        <path
           style="opacity:1;fill:#000000;fill-opacity:1;fill-rule:nonzero;stroke:none;stroke-width:0.89999998;stroke-linejoin:round;stroke-miterlimit:4;stroke-dasharray:none;stroke-opacity:1"
           d="m 377.90363,393.22571 h 15.94488 c 1.96299,0 3.54331,1.58031 3.54331,3.54331 v 15.94488 c 0,1.96299 -1.58032,3.5433 -3.54331,3.5433 h -15.94488 c -1.96299,0 -3.54331,-1.58031 -3.54331,-3.5433 v -15.94488 c 0,-1.963 1.58032,-3.54331 3.54331,-3.54331 z"
           id="rect4305"
           inkscape:connector-curvature="0" />
        <path
           style="opacity:1;fill:#000000;fill-opacity:1;fill-rule:nonzero;stroke:none;stroke-width:0.89999998;stroke-linejoin:round;stroke-miterlimit:4;stroke-dasharray:none;stroke-opacity:1"
           d="m 406.76514,393.22571 h 15.94488 c 1.96299,0 3.54331,1.58031 3.54331,3.54331 v 15.94488 c 0,1.96299 -1.58032,3.5433 -3.54331,3.5433 h -15.94488 c -1.96299,0 -3.54331,-1.58031 -3.54331,-3.5433 v -15.94488 c 0,-1.963 1.58032,-3.54331 3.54331,-3.54331 z"
           id="rect4307"
           inkscape:connector-curvature="0" />
        <path
           style="opacity:1;fill:#000000;fill-opacity:1;fill-rule:nonzero;stroke:none;stroke-width:0.89999998;stroke-linejoin:round;stroke-miterlimit:4;stroke-dasharray:none;stroke-opacity:1"
           d="m 435.62662,393.22571 h 15.94488 c 1.96299,0 3.54331,1.58031 3.54331,3.54331 v 15.94488 c 0,1.96299 -1.58032,3.5433 -3.54331,3.5433 h -15.94488 c -1.96299,0 -3.54331,-1.58031 -3.54331,-3.5433 v -15.94488 c 0,-1.963 1.58032,-3.54331 3.54331,-3.54331 z"
           id="rect4309"
           inkscape:connector-curvature="0" />
        <path
           style="opacity:1;fill:#000000;fill-opacity:1;fill-rule:nonzero;stroke:none;stroke-width:0.89999998;stroke-linejoin:round;stroke-miterlimit:4;stroke-dasharray:none;stroke-opacity:1"
           d="m 464.48813,393.22571 h 15.94488 c 1.963,0 3.54331,1.58031 3.54331,3.54331 v 15.94488 c 0,1.96299 -1.58031,3.5433 -3.54331,3.5433 h -15.94488 c -1.96299,0 -3.54331,-1.58031 -3.54331,-3.5433 v -15.94488 c 0,-1.963 1.58032,-3.54331 3.54331,-3.54331 z"
           id="rect4311"
           inkscape:connector-curvature="0" />
      </g>
      <g
         transform="translate(0,29.358201)"
         id="g4323"
         style="fill:#000000;fill-opacity:1;stroke:none;stroke-width:0.89999998;stroke-miterlimit:4;stroke-dasharray:none;stroke-opacity:1">
        <path
           style="opacity:1;fill:#000000;fill-opacity:1;fill-rule:nonzero;stroke:none;stroke-width:0.89999998;stroke-linejoin:round;stroke-miterlimit:4;stroke-dasharray:none;stroke-opacity:1"
           d="m 262.45764,393.22571 h 15.94489 c 1.96299,0 3.5433,1.58031 3.5433,3.54331 v 15.94488 c 0,1.96299 -1.58031,3.5433 -3.5433,3.5433 h -15.94489 c -1.96299,0 -3.5433,-1.58031 -3.5433,-3.5433 v -15.94488 c 0,-1.963 1.58031,-3.54331 3.5433,-3.54331 z"
           id="rect4325"
           inkscape:connector-curvature="0" />
        <path
           style="opacity:1;fill:#000000;fill-opacity:1;fill-rule:nonzero;stroke:none;stroke-width:0.89999998;stroke-linejoin:round;stroke-miterlimit:4;stroke-dasharray:none;stroke-opacity:1"
           d="m 291.31912,393.22571 h 15.94489 c 1.96299,0 3.5433,1.58031 3.5433,3.54331 v 15.94488 c 0,1.96299 -1.58031,3.5433 -3.5433,3.5433 h -15.94489 c -1.96299,0 -3.5433,-1.58031 -3.5433,-3.5433 v -15.94488 c 0,-1.963 1.58031,-3.54331 3.5433,-3.54331 z"
           id="rect4327"
           inkscape:connector-curvature="0" />
        <path
           style="opacity:1;fill:#000000;fill-opacity:1;fill-rule:nonzero;stroke:none;stroke-width:0.89999998;stroke-linejoin:round;stroke-miterlimit:4;stroke-dasharray:none;stroke-opacity:1"
           d="m 320.18064,393.22571 h 15.94488 c 1.96299,0 3.54331,1.58031 3.54331,3.54331 v 15.94488 c 0,1.96299 -1.58032,3.5433 -3.54331,3.5433 h -15.94488 c -1.963,0 -3.54331,-1.58031 -3.54331,-3.5433 v -15.94488 c 0,-1.963 1.58031,-3.54331 3.54331,-3.54331 z"
           id="rect4329"
           inkscape:connector-curvature="0" />
        <path
           style="opacity:1;fill:#000000;fill-opacity:1;fill-rule:nonzero;stroke:none;stroke-width:0.89999998;stroke-linejoin:round;stroke-miterlimit:4;stroke-dasharray:none;stroke-opacity:1"
           d="m 349.04215,393.22571 h 15.94488 c 1.96299,0 3.54331,1.58031 3.54331,3.54331 v 15.94488 c 0,1.96299 -1.58032,3.5433 -3.54331,3.5433 h -15.94488 c -1.96299,0 -3.54331,-1.58031 -3.54331,-3.5433 v -15.94488 c 0,-1.963 1.58032,-3.54331 3.54331,-3.54331 z"
           id="rect4331"
           inkscape:connector-curvature="0" />
        <path
           style="opacity:1;fill:#000000;fill-opacity:1;fill-rule:nonzero;stroke:none;stroke-width:0.89999998;stroke-linejoin:round;stroke-miterlimit:4;stroke-dasharray:none;stroke-opacity:1"
           d="m 377.90363,393.22571 h 15.94488 c 1.96299,0 3.54331,1.58031 3.54331,3.54331 v 15.94488 c 0,1.96299 -1.58032,3.5433 -3.54331,3.5433 h -15.94488 c -1.96299,0 -3.54331,-1.58031 -3.54331,-3.5433 v -15.94488 c 0,-1.963 1.58032,-3.54331 3.54331,-3.54331 z"
           id="rect4333"
           inkscape:connector-curvature="0" />
        <path
           style="opacity:1;fill:#000000;fill-opacity:1;fill-rule:nonzero;stroke:none;stroke-width:0.89999998;stroke-linejoin:round;stroke-miterlimit:4;stroke-dasharray:none;stroke-opacity:1"
           d="m 406.76514,393.22571 h 15.94488 c 1.96299,0 3.54331,1.58031 3.54331,3.54331 v 15.94488 c 0,1.96299 -1.58032,3.5433 -3.54331,3.5433 h -15.94488 c -1.96299,0 -3.54331,-1.58031 -3.54331,-3.5433 v -15.94488 c 0,-1.963 1.58032,-3.54331 3.54331,-3.54331 z"
           id="rect4335"
           inkscape:connector-curvature="0" />
        <path
           style="opacity:1;fill:#000000;fill-opacity:1;fill-rule:nonzero;stroke:none;stroke-width:0.89999998;stroke-linejoin:round;stroke-miterlimit:4;stroke-dasharray:none;stroke-opacity:1"
           d="m 435.62662,393.22571 h 15.94488 c 1.96299,0 3.54331,1.58031 3.54331,3.54331 v 15.94488 c 0,1.96299 -1.58032,3.5433 -3.54331,3.5433 h -15.94488 c -1.96299,0 -3.54331,-1.58031 -3.54331,-3.5433 v -15.94488 c 0,-1.963 1.58032,-3.54331 3.54331,-3.54331 z"
           id="rect4337"
           inkscape:connector-curvature="0" />
        <path
           style="opacity:1;fill:#000000;fill-opacity:1;fill-rule:nonzero;stroke:none;stroke-width:0.89999998;stroke-linejoin:round;stroke-miterlimit:4;stroke-dasharray:none;stroke-opacity:1"
           d="m 464.48813,393.22571 h 15.94488 c 1.963,0 3.54331,1.58031 3.54331,3.54331 v 15.94488 c 0,1.96299 -1.58031,3.5433 -3.54331,3.5433 h -15.94488 c -1.96299,0 -3.54331,-1.58031 -3.54331,-3.5433 v -15.94488 c 0,-1.963 1.58032,-3.54331 3.54331,-3.54331 z"
           id="rect4339"
           inkscape:connector-curvature="0" />
      </g>
      <g
         id="g4341"
         transform="translate(0,58.71641)"
         style="fill:#000000;fill-opacity:1;stroke:none;stroke-width:0.89999998;stroke-miterlimit:4;stroke-dasharray:none;stroke-opacity:1">
        <path
           style="opacity:1;fill:#000000;fill-opacity:1;fill-rule:nonzero;stroke:none;stroke-width:0.89999998;stroke-linejoin:round;stroke-miterlimit:4;stroke-dasharray:none;stroke-opacity:1"
           d="m 262.45764,393.22571 h 15.94489 c 1.96299,0 3.5433,1.58031 3.5433,3.54331 v 15.94488 c 0,1.96299 -1.58031,3.5433 -3.5433,3.5433 h -15.94489 c -1.96299,0 -3.5433,-1.58031 -3.5433,-3.5433 v -15.94488 c 0,-1.963 1.58031,-3.54331 3.5433,-3.54331 z"
           id="rect4343"
           inkscape:connector-curvature="0" />
        <path
           style="opacity:1;fill:#000000;fill-opacity:1;fill-rule:nonzero;stroke:none;stroke-width:0.89999998;stroke-linejoin:round;stroke-miterlimit:4;stroke-dasharray:none;stroke-opacity:1"
           d="m 291.31912,393.22571 h 15.94489 c 1.96299,0 3.5433,1.58031 3.5433,3.54331 v 15.94488 c 0,1.96299 -1.58031,3.5433 -3.5433,3.5433 h -15.94489 c -1.96299,0 -3.5433,-1.58031 -3.5433,-3.5433 v -15.94488 c 0,-1.963 1.58031,-3.54331 3.5433,-3.54331 z"
           id="rect4345"
           inkscape:connector-curvature="0" />
        <path
           style="opacity:1;fill:#000000;fill-opacity:1;fill-rule:nonzero;stroke:none;stroke-width:0.89999998;stroke-linejoin:round;stroke-miterlimit:4;stroke-dasharray:none;stroke-opacity:1"
           d="m 320.18064,393.22571 h 15.94488 c 1.96299,0 3.54331,1.58031 3.54331,3.54331 v 15.94488 c 0,1.96299 -1.58032,3.5433 -3.54331,3.5433 h -15.94488 c -1.963,0 -3.54331,-1.58031 -3.54331,-3.5433 v -15.94488 c 0,-1.963 1.58031,-3.54331 3.54331,-3.54331 z"
           id="rect4347"
           inkscape:connector-curvature="0" />
        <path
           style="opacity:1;fill:#000000;fill-opacity:1;fill-rule:nonzero;stroke:none;stroke-width:0.89999998;stroke-linejoin:round;stroke-miterlimit:4;stroke-dasharray:none;stroke-opacity:1"
           d="m 349.04215,393.22571 h 15.94488 c 1.96299,0 3.54331,1.58031 3.54331,3.54331 v 15.94488 c 0,1.96299 -1.58032,3.5433 -3.54331,3.5433 h -15.94488 c -1.96299,0 -3.54331,-1.58031 -3.54331,-3.5433 v -15.94488 c 0,-1.963 1.58032,-3.54331 3.54331,-3.54331 z"
           id="rect4349"
           inkscape:connector-curvature="0" />
        <path
           style="opacity:1;fill:#000000;fill-opacity:1;fill-rule:nonzero;stroke:none;stroke-width:0.89999998;stroke-linejoin:round;stroke-miterlimit:4;stroke-dasharray:none;stroke-opacity:1"
           d="m 377.90363,393.22571 h 15.94488 c 1.96299,0 3.54331,1.58031 3.54331,3.54331 v 15.94488 c 0,1.96299 -1.58032,3.5433 -3.54331,3.5433 h -15.94488 c -1.96299,0 -3.54331,-1.58031 -3.54331,-3.5433 v -15.94488 c 0,-1.963 1.58032,-3.54331 3.54331,-3.54331 z"
           id="rect4351"
           inkscape:connector-curvature="0" />
        <path
           style="opacity:1;fill:#000000;fill-opacity:1;fill-rule:nonzero;stroke:none;stroke-width:0.89999998;stroke-linejoin:round;stroke-miterlimit:4;stroke-dasharray:none;stroke-opacity:1"
           d="m 406.76514,393.22571 h 15.94488 c 1.96299,0 3.54331,1.58031 3.54331,3.54331 v 15.94488 c 0,1.96299 -1.58032,3.5433 -3.54331,3.5433 h -15.94488 c -1.96299,0 -3.54331,-1.58031 -3.54331,-3.5433 v -15.94488 c 0,-1.963 1.58032,-3.54331 3.54331,-3.54331 z"
           id="rect4353"
           inkscape:connector-curvature="0" />
        <path
           style="opacity:1;fill:#000000;fill-opacity:1;fill-rule:nonzero;stroke:none;stroke-width:0.89999998;stroke-linejoin:round;stroke-miterlimit:4;stroke-dasharray:none;stroke-opacity:1"
           d="m 435.62662,393.22571 h 15.94488 c 1.96299,0 3.54331,1.58031 3.54331,3.54331 v 15.94488 c 0,1.96299 -1.58032,3.5433 -3.54331,3.5433 h -15.94488 c -1.96299,0 -3.54331,-1.58031 -3.54331,-3.5433 v -15.94488 c 0,-1.963 1.58032,-3.54331 3.54331,-3.54331 z"
           id="rect4355"
           inkscape:connector-curvature="0" />
        <path
           style="opacity:1;fill:#000000;fill-opacity:1;fill-rule:nonzero;stroke:none;stroke-width:0.89999998;stroke-linejoin:round;stroke-miterlimit:4;stroke-dasharray:none;stroke-opacity:1"
           d="m 464.48813,393.22571 h 15.94488 c 1.963,0 3.54331,1.58031 3.54331,3.54331 v 15.94488 c 0,1.96299 -1.58031,3.5433 -3.54331,3.5433 h -15.94488 c -1.96299,0 -3.54331,-1.58031 -3.54331,-3.5433 v -15.94488 c 0,-1.963 1.58032,-3.54331 3.54331,-3.54331 z"
           id="rect4357"
           inkscape:connector-curvature="0" />
      </g>
      <g
         transform="translate(0,88.074601)"
         id="g4359"
         style="fill:#000000;fill-opacity:1;stroke:none;stroke-width:0.89999998;stroke-miterlimit:4;stroke-dasharray:none;stroke-opacity:1">
        <path
           style="opacity:1;fill:#000000;fill-opacity:1;fill-rule:nonzero;stroke:none;stroke-width:0.89999998;stroke-linejoin:round;stroke-miterlimit:4;stroke-dasharray:none;stroke-opacity:1"
           d="m 262.45764,393.22571 h 15.94489 c 1.96299,0 3.5433,1.58031 3.5433,3.54331 v 15.94488 c 0,1.96299 -1.58031,3.5433 -3.5433,3.5433 h -15.94489 c -1.96299,0 -3.5433,-1.58031 -3.5433,-3.5433 v -15.94488 c 0,-1.963 1.58031,-3.54331 3.5433,-3.54331 z"
           id="rect4361"
           inkscape:connector-curvature="0" />
        <path
           style="opacity:1;fill:#000000;fill-opacity:1;fill-rule:nonzero;stroke:none;stroke-width:0.89999998;stroke-linejoin:round;stroke-miterlimit:4;stroke-dasharray:none;stroke-opacity:1"
           d="m 291.31912,393.22571 h 15.94489 c 1.96299,0 3.5433,1.58031 3.5433,3.54331 v 15.94488 c 0,1.96299 -1.58031,3.5433 -3.5433,3.5433 h -15.94489 c -1.96299,0 -3.5433,-1.58031 -3.5433,-3.5433 v -15.94488 c 0,-1.963 1.58031,-3.54331 3.5433,-3.54331 z"
           id="rect4363"
           inkscape:connector-curvature="0" />
        <path
           style="opacity:1;fill:#000000;fill-opacity:1;fill-rule:nonzero;stroke:none;stroke-width:0.89999998;stroke-linejoin:round;stroke-miterlimit:4;stroke-dasharray:none;stroke-opacity:1"
           d="m 320.18064,393.22571 h 15.94488 c 1.96299,0 3.54331,1.58031 3.54331,3.54331 v 15.94488 c 0,1.96299 -1.58032,3.5433 -3.54331,3.5433 h -15.94488 c -1.963,0 -3.54331,-1.58031 -3.54331,-3.5433 v -15.94488 c 0,-1.963 1.58031,-3.54331 3.54331,-3.54331 z"
           id="rect4365"
           inkscape:connector-curvature="0" />
        <path
           style="opacity:1;fill:#000000;fill-opacity:1;fill-rule:nonzero;stroke:none;stroke-width:0.89999998;stroke-linejoin:round;stroke-miterlimit:4;stroke-dasharray:none;stroke-opacity:1"
           d="m 349.04215,393.22571 h 15.94488 c 1.96299,0 3.54331,1.58031 3.54331,3.54331 v 15.94488 c 0,1.96299 -1.58032,3.5433 -3.54331,3.5433 h -15.94488 c -1.96299,0 -3.54331,-1.58031 -3.54331,-3.5433 v -15.94488 c 0,-1.963 1.58032,-3.54331 3.54331,-3.54331 z"
           id="rect4367"
           inkscape:connector-curvature="0" />
        <path
           style="opacity:1;fill:#000000;fill-opacity:1;fill-rule:nonzero;stroke:none;stroke-width:0.89999998;stroke-linejoin:round;stroke-miterlimit:4;stroke-dasharray:none;stroke-opacity:1"
           d="m 377.90363,393.22571 h 15.94488 c 1.96299,0 3.54331,1.58031 3.54331,3.54331 v 15.94488 c 0,1.96299 -1.58032,3.5433 -3.54331,3.5433 h -15.94488 c -1.96299,0 -3.54331,-1.58031 -3.54331,-3.5433 v -15.94488 c 0,-1.963 1.58032,-3.54331 3.54331,-3.54331 z"
           id="rect4369"
           inkscape:connector-curvature="0" />
        <path
           style="opacity:1;fill:#000000;fill-opacity:1;fill-rule:nonzero;stroke:none;stroke-width:0.89999998;stroke-linejoin:round;stroke-miterlimit:4;stroke-dasharray:none;stroke-opacity:1"
           d="m 406.76514,393.22571 h 15.94488 c 1.96299,0 3.54331,1.58031 3.54331,3.54331 v 15.94488 c 0,1.96299 -1.58032,3.5433 -3.54331,3.5433 h -15.94488 c -1.96299,0 -3.54331,-1.58031 -3.54331,-3.5433 v -15.94488 c 0,-1.963 1.58032,-3.54331 3.54331,-3.54331 z"
           id="rect4371"
           inkscape:connector-curvature="0" />
        <path
           style="opacity:1;fill:#000000;fill-opacity:1;fill-rule:nonzero;stroke:none;stroke-width:0.89999998;stroke-linejoin:round;stroke-miterlimit:4;stroke-dasharray:none;stroke-opacity:1"
           d="m 435.62662,393.22571 h 15.94488 c 1.96299,0 3.54331,1.58031 3.54331,3.54331 v 15.94488 c 0,1.96299 -1.58032,3.5433 -3.54331,3.5433 h -15.94488 c -1.96299,0 -3.54331,-1.58031 -3.54331,-3.5433 v -15.94488 c 0,-1.963 1.58032,-3.54331 3.54331,-3.54331 z"
           id="rect4373"
           inkscape:connector-curvature="0" />
        <path
           style="opacity:1;fill:#000000;fill-opacity:1;fill-rule:nonzero;stroke:none;stroke-width:0.89999998;stroke-linejoin:round;stroke-miterlimit:4;stroke-dasharray:none;stroke-opacity:1"
           d="m 464.48813,393.22571 h 15.94488 c 1.963,0 3.54331,1.58031 3.54331,3.54331 v 15.94488 c 0,1.96299 -1.58031,3.5433 -3.54331,3.5433 h -15.94488 c -1.96299,0 -3.54331,-1.58031 -3.54331,-3.5433 v -15.94488 c 0,-1.963 1.58032,-3.54331 3.54331,-3.54331 z"
           id="rect4375"
           inkscape:connector-curvature="0" />
      </g>
      <g
         id="g4377"
         transform="translate(0,117.43279)"
         style="fill:#000000;fill-opacity:1;stroke:none;stroke-width:0.89999998;stroke-miterlimit:4;stroke-dasharray:none;stroke-opacity:1">
        <path
           style="opacity:1;fill:#000000;fill-opacity:1;fill-rule:nonzero;stroke:none;stroke-width:0.89999998;stroke-linejoin:round;stroke-miterlimit:4;stroke-dasharray:none;stroke-opacity:1"
           d="m 262.45764,393.22571 h 15.94489 c 1.96299,0 3.5433,1.58031 3.5433,3.54331 v 15.94488 c 0,1.96299 -1.58031,3.5433 -3.5433,3.5433 h -15.94489 c -1.96299,0 -3.5433,-1.58031 -3.5433,-3.5433 v -15.94488 c 0,-1.963 1.58031,-3.54331 3.5433,-3.54331 z"
           id="rect4379"
           inkscape:connector-curvature="0" />
        <path
           style="opacity:1;fill:#000000;fill-opacity:1;fill-rule:nonzero;stroke:none;stroke-width:0.89999998;stroke-linejoin:round;stroke-miterlimit:4;stroke-dasharray:none;stroke-opacity:1"
           d="m 291.31912,393.22571 h 15.94489 c 1.96299,0 3.5433,1.58031 3.5433,3.54331 v 15.94488 c 0,1.96299 -1.58031,3.5433 -3.5433,3.5433 h -15.94489 c -1.96299,0 -3.5433,-1.58031 -3.5433,-3.5433 v -15.94488 c 0,-1.963 1.58031,-3.54331 3.5433,-3.54331 z"
           id="rect4381"
           inkscape:connector-curvature="0" />
        <path
           style="opacity:1;fill:#000000;fill-opacity:1;fill-rule:nonzero;stroke:none;stroke-width:0.89999998;stroke-linejoin:round;stroke-miterlimit:4;stroke-dasharray:none;stroke-opacity:1"
           d="m 320.18064,393.22571 h 15.94488 c 1.96299,0 3.54331,1.58031 3.54331,3.54331 v 15.94488 c 0,1.96299 -1.58032,3.5433 -3.54331,3.5433 h -15.94488 c -1.963,0 -3.54331,-1.58031 -3.54331,-3.5433 v -15.94488 c 0,-1.963 1.58031,-3.54331 3.54331,-3.54331 z"
           id="rect4383"
           inkscape:connector-curvature="0" />
        <path
           style="opacity:1;fill:#000000;fill-opacity:1;fill-rule:nonzero;stroke:none;stroke-width:0.89999998;stroke-linejoin:round;stroke-miterlimit:4;stroke-dasharray:none;stroke-opacity:1"
           d="m 349.04215,393.22571 h 15.94488 c 1.96299,0 3.54331,1.58031 3.54331,3.54331 v 15.94488 c 0,1.96299 -1.58032,3.5433 -3.54331,3.5433 h -15.94488 c -1.96299,0 -3.54331,-1.58031 -3.54331,-3.5433 v -15.94488 c 0,-1.963 1.58032,-3.54331 3.54331,-3.54331 z"
           id="rect4385"
           inkscape:connector-curvature="0" />
        <path
           style="opacity:1;fill:#000000;fill-opacity:1;fill-rule:nonzero;stroke:none;stroke-width:0.89999998;stroke-linejoin:round;stroke-miterlimit:4;stroke-dasharray:none;stroke-opacity:1"
           d="m 377.90363,393.22571 h 15.94488 c 1.96299,0 3.54331,1.58031 3.54331,3.54331 v 15.94488 c 0,1.96299 -1.58032,3.5433 -3.54331,3.5433 h -15.94488 c -1.96299,0 -3.54331,-1.58031 -3.54331,-3.5433 v -15.94488 c 0,-1.963 1.58032,-3.54331 3.54331,-3.54331 z"
           id="rect4387"
           inkscape:connector-curvature="0" />
        <path
           style="opacity:1;fill:#000000;fill-opacity:1;fill-rule:nonzero;stroke:none;stroke-width:0.89999998;stroke-linejoin:round;stroke-miterlimit:4;stroke-dasharray:none;stroke-opacity:1"
           d="m 406.76514,393.22571 h 15.94488 c 1.96299,0 3.54331,1.58031 3.54331,3.54331 v 15.94488 c 0,1.96299 -1.58032,3.5433 -3.54331,3.5433 h -15.94488 c -1.96299,0 -3.54331,-1.58031 -3.54331,-3.5433 v -15.94488 c 0,-1.963 1.58032,-3.54331 3.54331,-3.54331 z"
           id="rect4389"
           inkscape:connector-curvature="0" />
        <path
           style="opacity:1;fill:#000000;fill-opacity:1;fill-rule:nonzero;stroke:none;stroke-width:0.89999998;stroke-linejoin:round;stroke-miterlimit:4;stroke-dasharray:none;stroke-opacity:1"
           d="m 435.62662,393.22571 h 15.94488 c 1.96299,0 3.54331,1.58031 3.54331,3.54331 v 15.94488 c 0,1.96299 -1.58032,3.5433 -3.54331,3.5433 h -15.94488 c -1.96299,0 -3.54331,-1.58031 -3.54331,-3.5433 v -15.94488 c 0,-1.963 1.58032,-3.54331 3.54331,-3.54331 z"
           id="rect4391"
           inkscape:connector-curvature="0" />
        <path
           style="opacity:1;fill:#000000;fill-opacity:1;fill-rule:nonzero;stroke:none;stroke-width:0.89999998;stroke-linejoin:round;stroke-miterlimit:4;stroke-dasharray:none;stroke-opacity:1"
           d="m 464.48813,393.22571 h 15.94488 c 1.963,0 3.54331,1.58031 3.54331,3.54331 v 15.94488 c 0,1.96299 -1.58031,3.5433 -3.54331,3.5433 h -15.94488 c -1.96299,0 -3.54331,-1.58031 -3.54331,-3.5433 v -15.94488 c 0,-1.963 1.58032,-3.54331 3.54331,-3.54331 z"
           id="rect4393"
           inkscape:connector-curvature="0" />
      </g>
      <g
         transform="translate(0,146.79099)"
         id="g4395"
         style="fill:#000000;fill-opacity:1;stroke:none;stroke-width:0.89999998;stroke-miterlimit:4;stroke-dasharray:none;stroke-opacity:1">
        <path
           style="opacity:1;fill:#000000;fill-opacity:1;fill-rule:nonzero;stroke:none;stroke-width:0.89999998;stroke-linejoin:round;stroke-miterlimit:4;stroke-dasharray:none;stroke-opacity:1"
           d="m 262.45764,393.22571 h 15.94489 c 1.96299,0 3.5433,1.58031 3.5433,3.54331 v 15.94488 c 0,1.96299 -1.58031,3.5433 -3.5433,3.5433 h -15.94489 c -1.96299,0 -3.5433,-1.58031 -3.5433,-3.5433 v -15.94488 c 0,-1.963 1.58031,-3.54331 3.5433,-3.54331 z"
           id="rect4397"
           inkscape:connector-curvature="0" />
        <path
           style="opacity:1;fill:#000000;fill-opacity:1;fill-rule:nonzero;stroke:none;stroke-width:0.89999998;stroke-linejoin:round;stroke-miterlimit:4;stroke-dasharray:none;stroke-opacity:1"
           d="m 291.31912,393.22571 h 15.94489 c 1.96299,0 3.5433,1.58031 3.5433,3.54331 v 15.94488 c 0,1.96299 -1.58031,3.5433 -3.5433,3.5433 h -15.94489 c -1.96299,0 -3.5433,-1.58031 -3.5433,-3.5433 v -15.94488 c 0,-1.963 1.58031,-3.54331 3.5433,-3.54331 z"
           id="rect4399"
           inkscape:connector-curvature="0" />
        <path
           style="opacity:1;fill:#000000;fill-opacity:1;fill-rule:nonzero;stroke:none;stroke-width:0.89999998;stroke-linejoin:round;stroke-miterlimit:4;stroke-dasharray:none;stroke-opacity:1"
           d="m 320.18064,393.22571 h 15.94488 c 1.96299,0 3.54331,1.58031 3.54331,3.54331 v 15.94488 c 0,1.96299 -1.58032,3.5433 -3.54331,3.5433 h -15.94488 c -1.963,0 -3.54331,-1.58031 -3.54331,-3.5433 v -15.94488 c 0,-1.963 1.58031,-3.54331 3.54331,-3.54331 z"
           id="rect4401"
           inkscape:connector-curvature="0" />
        <path
           style="opacity:1;fill:#000000;fill-opacity:1;fill-rule:nonzero;stroke:none;stroke-width:0.89999998;stroke-linejoin:round;stroke-miterlimit:4;stroke-dasharray:none;stroke-opacity:1"
           d="m 349.04215,393.22571 h 15.94488 c 1.96299,0 3.54331,1.58031 3.54331,3.54331 v 15.94488 c 0,1.96299 -1.58032,3.5433 -3.54331,3.5433 h -15.94488 c -1.96299,0 -3.54331,-1.58031 -3.54331,-3.5433 v -15.94488 c 0,-1.963 1.58032,-3.54331 3.54331,-3.54331 z"
           id="rect4403"
           inkscape:connector-curvature="0" />
        <path
           style="opacity:1;fill:#000000;fill-opacity:1;fill-rule:nonzero;stroke:none;stroke-width:0.89999998;stroke-linejoin:round;stroke-miterlimit:4;stroke-dasharray:none;stroke-opacity:1"
           d="m 377.90363,393.22571 h 15.94488 c 1.96299,0 3.54331,1.58031 3.54331,3.54331 v 15.94488 c 0,1.96299 -1.58032,3.5433 -3.54331,3.5433 h -15.94488 c -1.96299,0 -3.54331,-1.58031 -3.54331,-3.5433 v -15.94488 c 0,-1.963 1.58032,-3.54331 3.54331,-3.54331 z"
           id="rect4405"
           inkscape:connector-curvature="0" />
        <path
           style="opacity:1;fill:#000000;fill-opacity:1;fill-rule:nonzero;stroke:none;stroke-width:0.89999998;stroke-linejoin:round;stroke-miterlimit:4;stroke-dasharray:none;stroke-opacity:1"
           d="m 406.76514,393.22571 h 15.94488 c 1.96299,0 3.54331,1.58031 3.54331,3.54331 v 15.94488 c 0,1.96299 -1.58032,3.5433 -3.54331,3.5433 h -15.94488 c -1.96299,0 -3.54331,-1.58031 -3.54331,-3.5433 v -15.94488 c 0,-1.963 1.58032,-3.54331 3.54331,-3.54331 z"
           id="rect4407"
           inkscape:connector-curvature="0" />
        <path
           style="opacity:1;fill:#000000;fill-opacity:1;fill-rule:nonzero;stroke:none;stroke-width:0.89999998;stroke-linejoin:round;stroke-miterlimit:4;stroke-dasharray:none;stroke-opacity:1"
           d="m 435.62662,393.22571 h 15.94488 c 1.96299,0 3.54331,1.58031 3.54331,3.54331 v 15.94488 c 0,1.96299 -1.58032,3.5433 -3.54331,3.5433 h -15.94488 c -1.96299,0 -3.54331,-1.58031 -3.54331,-3.5433 v -15.94488 c 0,-1.963 1.58032,-3.54331 3.54331,-3.54331 z"
           id="rect4409"
           inkscape:connector-curvature="0" />
        <path
           style="opacity:1;fill:#000000;fill-opacity:1;fill-rule:nonzero;stroke:none;stroke-width:0.89999998;stroke-linejoin:round;stroke-miterlimit:4;stroke-dasharray:none;stroke-opacity:1"
           d="m 464.48813,393.22571 h 15.94488 c 1.963,0 3.54331,1.58031 3.54331,3.54331 v 15.94488 c 0,1.96299 -1.58031,3.5433 -3.54331,3.5433 h -15.94488 c -1.96299,0 -3.54331,-1.58031 -3.54331,-3.5433 v -15.94488 c 0,-1.963 1.58032,-3.54331 3.54331,-3.54331 z"
           id="rect4411"
           inkscape:connector-curvature="0" />
      </g>
      <g
         id="g4413"
         transform="translate(0,176.14919)"
         style="fill:#000000;fill-opacity:1;stroke:none;stroke-width:0.89999998;stroke-miterlimit:4;stroke-dasharray:none;stroke-opacity:1">
        <path
           style="opacity:1;fill:#000000;fill-opacity:1;fill-rule:nonzero;stroke:none;stroke-width:0.89999998;stroke-linejoin:round;stroke-miterlimit:4;stroke-dasharray:none;stroke-opacity:1"
           d="m 262.45764,393.22571 h 15.94489 c 1.96299,0 3.5433,1.58031 3.5433,3.54331 v 15.94488 c 0,1.96299 -1.58031,3.5433 -3.5433,3.5433 h -15.94489 c -1.96299,0 -3.5433,-1.58031 -3.5433,-3.5433 v -15.94488 c 0,-1.963 1.58031,-3.54331 3.5433,-3.54331 z"
           id="rect4415"
           inkscape:connector-curvature="0" />
        <path
           style="opacity:1;fill:#000000;fill-opacity:1;fill-rule:nonzero;stroke:none;stroke-width:0.89999998;stroke-linejoin:round;stroke-miterlimit:4;stroke-dasharray:none;stroke-opacity:1"
           d="m 291.31912,393.22571 h 15.94489 c 1.96299,0 3.5433,1.58031 3.5433,3.54331 v 15.94488 c 0,1.96299 -1.58031,3.5433 -3.5433,3.5433 h -15.94489 c -1.96299,0 -3.5433,-1.58031 -3.5433,-3.5433 v -15.94488 c 0,-1.963 1.58031,-3.54331 3.5433,-3.54331 z"
           id="rect4417"
           inkscape:connector-curvature="0" />
        <path
           style="opacity:1;fill:#000000;fill-opacity:1;fill-rule:nonzero;stroke:none;stroke-width:0.89999998;stroke-linejoin:round;stroke-miterlimit:4;stroke-dasharray:none;stroke-opacity:1"
           d="m 320.18064,393.22571 h 15.94488 c 1.96299,0 3.54331,1.58031 3.54331,3.54331 v 15.94488 c 0,1.96299 -1.58032,3.5433 -3.54331,3.5433 h -15.94488 c -1.963,0 -3.54331,-1.58031 -3.54331,-3.5433 v -15.94488 c 0,-1.963 1.58031,-3.54331 3.54331,-3.54331 z"
           id="rect4419"
           inkscape:connector-curvature="0" />
        <path
           style="opacity:1;fill:#000000;fill-opacity:1;fill-rule:nonzero;stroke:none;stroke-width:0.89999998;stroke-linejoin:round;stroke-miterlimit:4;stroke-dasharray:none;stroke-opacity:1"
           d="m 349.04215,393.22571 h 15.94488 c 1.96299,0 3.54331,1.58031 3.54331,3.54331 v 15.94488 c 0,1.96299 -1.58032,3.5433 -3.54331,3.5433 h -15.94488 c -1.96299,0 -3.54331,-1.58031 -3.54331,-3.5433 v -15.94488 c 0,-1.963 1.58032,-3.54331 3.54331,-3.54331 z"
           id="rect4421"
           inkscape:connector-curvature="0" />
        <path
           style="opacity:1;fill:#000000;fill-opacity:1;fill-rule:nonzero;stroke:none;stroke-width:0.89999998;stroke-linejoin:round;stroke-miterlimit:4;stroke-dasharray:none;stroke-opacity:1"
           d="m 377.90363,393.22571 h 15.94488 c 1.96299,0 3.54331,1.58031 3.54331,3.54331 v 15.94488 c 0,1.96299 -1.58032,3.5433 -3.54331,3.5433 h -15.94488 c -1.96299,0 -3.54331,-1.58031 -3.54331,-3.5433 v -15.94488 c 0,-1.963 1.58032,-3.54331 3.54331,-3.54331 z"
           id="rect4423"
           inkscape:connector-curvature="0" />
        <path
           style="opacity:1;fill:#000000;fill-opacity:1;fill-rule:nonzero;stroke:none;stroke-width:0.89999998;stroke-linejoin:round;stroke-miterlimit:4;stroke-dasharray:none;stroke-opacity:1"
           d="m 406.76514,393.22571 h 15.94488 c 1.96299,0 3.54331,1.58031 3.54331,3.54331 v 15.94488 c 0,1.96299 -1.58032,3.5433 -3.54331,3.5433 h -15.94488 c -1.96299,0 -3.54331,-1.58031 -3.54331,-3.5433 v -15.94488 c 0,-1.963 1.58032,-3.54331 3.54331,-3.54331 z"
           id="rect4425"
           inkscape:connector-curvature="0" />
        <path
           style="opacity:1;fill:#000000;fill-opacity:1;fill-rule:nonzero;stroke:none;stroke-width:0.89999998;stroke-linejoin:round;stroke-miterlimit:4;stroke-dasharray:none;stroke-opacity:1"
           d="m 435.62662,393.22571 h 15.94488 c 1.96299,0 3.54331,1.58031 3.54331,3.54331 v 15.94488 c 0,1.96299 -1.58032,3.5433 -3.54331,3.5433 h -15.94488 c -1.96299,0 -3.54331,-1.58031 -3.54331,-3.5433 v -15.94488 c 0,-1.963 1.58032,-3.54331 3.54331,-3.54331 z"
           id="rect4427"
           inkscape:connector-curvature="0" />
        <path
           style="opacity:1;fill:#000000;fill-opacity:1;fill-rule:nonzero;stroke:none;stroke-width:0.89999998;stroke-linejoin:round;stroke-miterlimit:4;stroke-dasharray:none;stroke-opacity:1"
           d="m 464.48813,393.22571 h 15.94488 c 1.963,0 3.54331,1.58031 3.54331,3.54331 v 15.94488 c 0,1.96299 -1.58031,3.5433 -3.54331,3.5433 h -15.94488 c -1.96299,0 -3.54331,-1.58031 -3.54331,-3.5433 v -15.94488 c 0,-1.963 1.58032,-3.54331 3.54331,-3.54331 z"
           id="rect4429"
           inkscape:connector-curvature="0" />
      </g>
      <g
         transform="translate(0,205.50739)"
         id="g4431"
         style="fill:#000000;fill-opacity:1;stroke:none;stroke-width:0.89999998;stroke-miterlimit:4;stroke-dasharray:none;stroke-opacity:1">
        <path
           style="opacity:1;fill:#000000;fill-opacity:1;fill-rule:nonzero;stroke:none;stroke-width:0.89999998;stroke-linejoin:round;stroke-miterlimit:4;stroke-dasharray:none;stroke-opacity:1"
           d="m 262.45764,393.22571 h 15.94489 c 1.96299,0 3.5433,1.58031 3.5433,3.54331 v 15.94488 c 0,1.96299 -1.58031,3.5433 -3.5433,3.5433 h -15.94489 c -1.96299,0 -3.5433,-1.58031 -3.5433,-3.5433 v -15.94488 c 0,-1.963 1.58031,-3.54331 3.5433,-3.54331 z"
           id="rect4433"
           inkscape:connector-curvature="0" />
        <path
           style="opacity:1;fill:#000000;fill-opacity:1;fill-rule:nonzero;stroke:none;stroke-width:0.89999998;stroke-linejoin:round;stroke-miterlimit:4;stroke-dasharray:none;stroke-opacity:1"
           d="m 291.31912,393.22571 h 15.94489 c 1.96299,0 3.5433,1.58031 3.5433,3.54331 v 15.94488 c 0,1.96299 -1.58031,3.5433 -3.5433,3.5433 h -15.94489 c -1.96299,0 -3.5433,-1.58031 -3.5433,-3.5433 v -15.94488 c 0,-1.963 1.58031,-3.54331 3.5433,-3.54331 z"
           id="rect4435"
           inkscape:connector-curvature="0" />
        <path
           style="opacity:1;fill:#000000;fill-opacity:1;fill-rule:nonzero;stroke:none;stroke-width:0.89999998;stroke-linejoin:round;stroke-miterlimit:4;stroke-dasharray:none;stroke-opacity:1"
           d="m 320.18064,393.22571 h 15.94488 c 1.96299,0 3.54331,1.58031 3.54331,3.54331 v 15.94488 c 0,1.96299 -1.58032,3.5433 -3.54331,3.5433 h -15.94488 c -1.963,0 -3.54331,-1.58031 -3.54331,-3.5433 v -15.94488 c 0,-1.963 1.58031,-3.54331 3.54331,-3.54331 z"
           id="rect4437"
           inkscape:connector-curvature="0" />
        <path
           style="opacity:1;fill:#000000;fill-opacity:1;fill-rule:nonzero;stroke:none;stroke-width:0.89999998;stroke-linejoin:round;stroke-miterlimit:4;stroke-dasharray:none;stroke-opacity:1"
           d="m 349.04215,393.22571 h 15.94488 c 1.96299,0 3.54331,1.58031 3.54331,3.54331 v 15.94488 c 0,1.96299 -1.58032,3.5433 -3.54331,3.5433 h -15.94488 c -1.96299,0 -3.54331,-1.58031 -3.54331,-3.5433 v -15.94488 c 0,-1.963 1.58032,-3.54331 3.54331,-3.54331 z"
           id="rect4439"
           inkscape:connector-curvature="0" />
        <path
           style="opacity:1;fill:#000000;fill-opacity:1;fill-rule:nonzero;stroke:none;stroke-width:0.89999998;stroke-linejoin:round;stroke-miterlimit:4;stroke-dasharray:none;stroke-opacity:1"
           d="m 377.90363,393.22571 h 15.94488 c 1.96299,0 3.54331,1.58031 3.54331,3.54331 v 15.94488 c 0,1.96299 -1.58032,3.5433 -3.54331,3.5433 h -15.94488 c -1.96299,0 -3.54331,-1.58031 -3.54331,-3.5433 v -15.94488 c 0,-1.963 1.58032,-3.54331 3.54331,-3.54331 z"
           id="rect4441"
           inkscape:connector-curvature="0" />
        <path
           style="opacity:1;fill:#000000;fill-opacity:1;fill-rule:nonzero;stroke:none;stroke-width:0.89999998;stroke-linejoin:round;stroke-miterlimit:4;stroke-dasharray:none;stroke-opacity:1"
           d="m 406.76514,393.22571 h 15.94488 c 1.96299,0 3.54331,1.58031 3.54331,3.54331 v 15.94488 c 0,1.96299 -1.58032,3.5433 -3.54331,3.5433 h -15.94488 c -1.96299,0 -3.54331,-1.58031 -3.54331,-3.5433 v -15.94488 c 0,-1.963 1.58032,-3.54331 3.54331,-3.54331 z"
           id="rect4443"
           inkscape:connector-curvature="0" />
        <path
           style="opacity:1;fill:#000000;fill-opacity:1;fill-rule:nonzero;stroke:none;stroke-width:0.89999998;stroke-linejoin:round;stroke-miterlimit:4;stroke-dasharray:none;stroke-opacity:1"
           d="m 435.62662,393.22571 h 15.94488 c 1.96299,0 3.54331,1.58031 3.54331,3.54331 v 15.94488 c 0,1.96299 -1.58032,3.5433 -3.54331,3.5433 h -15.94488 c -1.96299,0 -3.54331,-1.58031 -3.54331,-3.5433 v -15.94488 c 0,-1.963 1.58032,-3.54331 3.54331,-3.54331 z"
           id="rect4445"
           inkscape:connector-curvature="0" />
        <path
           style="opacity:1;fill:#000000;fill-opacity:1;fill-rule:nonzero;stroke:none;stroke-width:0.89999998;stroke-linejoin:round;stroke-miterlimit:4;stroke-dasharray:none;stroke-opacity:1"
           d="m 464.48813,393.22571 h 15.94488 c 1.963,0 3.54331,1.58031 3.54331,3.54331 v 15.94488 c 0,1.96299 -1.58031,3.5433 -3.54331,3.5433 h -15.94488 c -1.96299,0 -3.54331,-1.58031 -3.54331,-3.5433 v -15.94488 c 0,-1.963 1.58032,-3.54331 3.54331,-3.54331 z"
           id="rect4447"
           inkscape:connector-curvature="0" />
      </g>
    </g>
    <g
       id="g2249"
       transform="matrix(0.28222223,0,0,0.28222223,-34.936002,-13.915185)"
       style="fill:none;stroke:#ff0000;stroke-width:0.09;stroke-miterlimit:4;stroke-dasharray:none;stroke-opacity:1">
      <g
         id="g2236"
         style="fill:none;stroke:#ff0000;stroke-width:0.09;stroke-miterlimit:4;stroke-dasharray:none;stroke-opacity:1">
        <g
           id="g2040"
           transform="translate(-13.070936,-17.637649)"
           style="fill:none;stroke:#ff0000;stroke-width:0.09;stroke-miterlimit:4;stroke-dasharray:none;stroke-opacity:1">
          <path
             inkscape:connector-curvature="0"
             id="rect1980"
             d="M 223.83967,112.8166 H 542.7373 c 19.62992,0 35.43306,15.80315 35.43306,35.43306 v 318.89763 c 0,19.62992 -15.80314,35.43307 -35.43306,35.43307 H 223.83967 c -19.62992,0 -35.43307,-15.80315 -35.43307,-35.43307 V 148.24966 c 0,-19.62991 15.80315,-35.43306 35.43307,-35.43306 z"
             style="opacity:1;fill:none;fill-opacity:1;fill-rule:nonzero;stroke:#ff0000;stroke-width:0.09;stroke-linejoin:miter;stroke-miterlimit:4;stroke-dasharray:none;stroke-opacity:1" />
        </g>
        <path
           inkscape:connector-curvature="0"
           id="path2010"
           d="m 209.17424,121.75375 a 7.2637792,7.2637792 0 0 1 -7.26378,7.26378 7.2637792,7.2637792 0 0 1 -7.26378,-7.26378 7.2637792,7.2637792 0 0 1 7.26378,-7.26378 7.2637792,7.2637792 0 0 1 7.26378,7.26378 z"
           style="opacity:1;fill:none;fill-opacity:1;fill-rule:nonzero;stroke:#ff0000;stroke-width:0.09;stroke-linejoin:miter;stroke-miterlimit:4;stroke-dasharray:none;stroke-opacity:1" />
        <path
           inkscape:connector-curvature="0"
           id="circle2014"
           d="m 545.78844,121.75375 a 7.2637792,7.2637792 0 0 1 -7.26378,7.26378 7.2637792,7.2637792 0 0 1 -7.26378,-7.26378 7.2637792,7.2637792 0 0 1 7.26378,-7.26378 7.2637792,7.2637792 0 0 1 7.26378,7.26378 z"
           style="opacity:1;fill:none;fill-opacity:1;fill-rule:nonzero;stroke:#ff0000;stroke-width:0.09;stroke-linejoin:miter;stroke-miterlimit:4;stroke-dasharray:none;stroke-opacity:1" />
        <path
           inkscape:connector-curvature="0"
           id="circle2016"
           d="m 545.78844,458.36792 a 7.2637792,7.2637792 0 0 1 -7.26378,7.26378 7.2637792,7.2637792 0 0 1 -7.26378,-7.26378 7.2637792,7.2637792 0 0 1 7.26378,-7.26378 7.2637792,7.2637792 0 0 1 7.26378,7.26378 z"
           style="opacity:1;fill:none;fill-opacity:1;fill-rule:nonzero;stroke:#ff0000;stroke-width:0.09;stroke-linejoin:miter;stroke-miterlimit:4;stroke-dasharray:none;stroke-opacity:1" />
        <path
           inkscape:connector-curvature="0"
           id="circle2018"
           d="m 209.17424,458.36792 a 7.2637792,7.2637792 0 0 1 -7.26378,7.26378 7.2637792,7.2637792 0 0 1 -7.26378,-7.26378 7.2637792,7.2637792 0 0 1 7.26378,-7.26378 7.2637792,7.2637792 0 0 1 7.26378,7.26378 z"
           style="opacity:1;fill:none;fill-opacity:1;fill-rule:nonzero;stroke:#ff0000;stroke-width:0.09;stroke-linejoin:miter;stroke-miterlimit:4;stroke-dasharray:none;stroke-opacity:1" />
      </g>
      <path
         inkscape:connector-curvature="0"
         id="path2027"
         d="m 274.54827,166.04509 a 28.346455,28.346455 0 0 1 -28.34646,28.34645 28.346455,28.346455 0 0 1 -28.34645,-28.34645 28.346455,28.346455 0 0 1 28.34645,-28.34645 28.346455,28.346455 0 0 1 28.34646,28.34645 z"
         style="opacity:1;fill:none;fill-opacity:1;fill-rule:nonzero;stroke:#ff0000;stroke-width:0.09;stroke-linejoin:miter;stroke-miterlimit:4;stroke-dasharray:none;stroke-opacity:1" />
      <path
         inkscape:connector-curvature="0"
         id="circle2033"
         d="m 522.57973,166.04509 a 28.346455,28.346455 0 0 1 -28.34645,28.34645 28.346455,28.346455 0 0 1 -28.34646,-28.34645 28.346455,28.346455 0 0 1 28.34646,-28.34645 28.346455,28.346455 0 0 1 28.34645,28.34645 z"
         style="opacity:1;fill:none;fill-opacity:1;fill-rule:nonzero;stroke:#ff0000;stroke-width:0.09;stroke-linejoin:miter;stroke-miterlimit:4;stroke-dasharray:none;stroke-opacity:1" />
      <path
         inkscape:connector-curvature="0"
         id="circle2035"
         d="m 522.57973,414.07657 a 28.346455,28.346455 0 0 1 -28.34645,28.34645 28.346455,28.346455 0 0 1 -28.34646,-28.34645 28.346455,28.346455 0 0 1 28.34646,-28.34646 28.346455,28.346455 0 0 1 28.34645,28.34646 z"
         style="opacity:1;fill:none;fill-opacity:1;fill-rule:nonzero;stroke:#ff0000;stroke-width:0.09;stroke-linejoin:miter;stroke-miterlimit:4;stroke-dasharray:none;stroke-opacity:1" />
      <path
         inkscape:connector-curvature="0"
         id="circle2037"
         d="m 274.54827,414.07657 a 28.346455,28.346455 0 0 1 -28.34646,28.34645 28.346455,28.346455 0 0 1 -28.34645,-28.34645 28.346455,28.346455 0 0 1 28.34645,-28.34646 28.346455,28.346455 0 0 1 28.34646,28.34646 z"
         style="opacity:1;fill:none;fill-opacity:1;fill-rule:nonzero;stroke:#ff0000;stroke-width:0.09;stroke-linejoin:miter;stroke-miterlimit:4;stroke-dasharray:none;stroke-opacity:1" />
    </g>
    <g
       aria-label="GeaiRareDit"
       transform="matrix(-0.26458333,0,0,0.26458333,230.83589,26.231094)"
       style="font-style:normal;font-variant:normal;font-weight:normal;font-stretch:normal;font-size:20px;line-height:80.00000119%;font-family:AnjaliOldLipi;-inkscape-font-specification:AnjaliOldLipi;text-align:start;letter-spacing:0px;word-spacing:0px;writing-mode:lr-tb;text-anchor:start;fill:#000000;fill-opacity:1;stroke:none;stroke-width:1px;stroke-linecap:butt;stroke-linejoin:miter;stroke-opacity:1"
       id="flowRoot5670">
      <path
         d="m 537.71573,344.91994 h 3.104 v 10.368 q -0.384,0.128 -1.12,0.288 -0.704,0.16 -1.664,0.32 -0.928,0.16 -2.048,0.256 -1.12,0.128 -2.272,0.128 -2.336,0 -4.256,-0.768 -1.92,-0.768 -3.296,-2.24 -1.376,-1.472 -2.144,-3.616 -0.736,-2.144 -0.736,-4.928 0,-2.784 0.832,-4.928 0.864,-2.176 2.304,-3.648 1.44,-1.472 3.36,-2.24 1.952,-0.768 4.16,-0.768 1.504,0 2.656,0.192 1.184,0.192 2.016,0.448 0.832,0.256 1.344,0.512 0.544,0.256 0.736,0.384 l -0.992,2.592 q -0.928,-0.608 -2.464,-0.992 -1.536,-0.416 -3.136,-0.416 -1.696,0 -3.104,0.608 -1.376,0.608 -2.368,1.76 -0.96,1.152 -1.504,2.816 -0.544,1.632 -0.544,3.68 0,1.984 0.448,3.616 0.48,1.632 1.408,2.816 0.96,1.152 2.336,1.792 1.408,0.64 3.296,0.64 1.344,0 2.272,-0.128 0.96,-0.16 1.376,-0.288 z"
         style="font-style:normal;font-variant:normal;font-weight:normal;font-stretch:normal;font-size:32px;font-family:Ubuntu;-inkscape-font-specification:Ubuntu"
         id="path5701"
         inkscape:connector-curvature="0" />
      <path
         d="m 544.55973,347.54394 q 0,-2.208 0.64,-3.84 0.64,-1.664 1.696,-2.752 1.056,-1.088 2.432,-1.632 1.376,-0.544 2.816,-0.544 3.36,0 5.152,2.112 1.792,2.08 1.792,6.368 0,0.192 0,0.512 0,0.288 -0.032,0.544 h -11.392 q 0.192,2.592 1.504,3.936 1.312,1.344 4.096,1.344 1.568,0 2.624,-0.256 1.088,-0.288 1.632,-0.544 l 0.416,2.496 q -0.544,0.288 -1.92,0.608 -1.344,0.32 -3.072,0.32 -2.176,0 -3.776,-0.64 -1.568,-0.672 -2.592,-1.824 -1.024,-1.152 -1.536,-2.72 -0.48,-1.6 -0.48,-3.488 z m 11.424,-1.632 q 0.032,-2.016 -1.024,-3.296 -1.024,-1.312 -2.848,-1.312 -1.024,0 -1.824,0.416 -0.768,0.384 -1.312,1.024 -0.544,0.64 -0.864,1.472 -0.288,0.832 -0.384,1.696 z"
         style="font-style:normal;font-variant:normal;font-weight:normal;font-stretch:normal;font-size:32px;font-family:Ubuntu;-inkscape-font-specification:Ubuntu"
         id="path5703"
         inkscape:connector-curvature="0" />
      <path
         d="m 568.99473,353.68794 q 1.056,0 1.856,-0.032 0.832,-0.064 1.376,-0.192 v -4.96 q -0.32,-0.16 -1.056,-0.256 -0.704,-0.128 -1.728,-0.128 -0.672,0 -1.44,0.096 -0.736,0.096 -1.376,0.416 -0.608,0.288 -1.024,0.832 -0.416,0.512 -0.416,1.376 0,1.6 1.024,2.24 1.024,0.608 2.784,0.608 z m -0.256,-14.912 q 1.792,0 3.008,0.48 1.248,0.448 1.984,1.312 0.768,0.832 1.088,2.016 0.32,1.152 0.32,2.56 v 10.4 q -0.384,0.064 -1.088,0.192 -0.672,0.096 -1.536,0.192 -0.864,0.096 -1.888,0.16 -0.992,0.096 -1.984,0.096 -1.408,0 -2.592,-0.288 -1.184,-0.288 -2.048,-0.896 -0.864,-0.64 -1.344,-1.664 -0.48,-1.024 -0.48,-2.464 0,-1.376 0.544,-2.368 0.576,-0.992 1.536,-1.6 0.96,-0.608 2.24,-0.896 1.28,-0.288 2.688,-0.288 0.448,0 0.928,0.064 0.48,0.032 0.896,0.128 0.448,0.064 0.768,0.128 0.32,0.064 0.448,0.096 v -0.832 q 0,-0.736 -0.16,-1.44 -0.16,-0.736 -0.576,-1.28 -0.416,-0.576 -1.152,-0.896 -0.704,-0.352 -1.856,-0.352 -1.472,0 -2.592,0.224 -1.088,0.192 -1.632,0.416 l -0.352,-2.464 q 0.576,-0.256 1.92,-0.48 1.344,-0.256 2.912,-0.256 z"
         style="font-style:normal;font-variant:normal;font-weight:normal;font-stretch:normal;font-size:32px;font-family:Ubuntu;-inkscape-font-specification:Ubuntu"
         id="path5705"
         inkscape:connector-curvature="0" />
      <path
         d="m 583.02623,355.83194 h -2.976 v -16.64 h 2.976 z m -1.504,-19.648 q -0.8,0 -1.376,-0.512 -0.544,-0.544 -0.544,-1.44 0,-0.896 0.544,-1.408 0.576,-0.544 1.376,-0.544 0.8,0 1.344,0.544 0.576,0.512 0.576,1.408 0,0.896 -0.576,1.44 -0.544,0.512 -1.344,0.512 z"
         style="font-style:normal;font-variant:normal;font-weight:normal;font-stretch:normal;font-size:32px;font-family:Ubuntu;-inkscape-font-specification:Ubuntu"
         id="path5707"
         inkscape:connector-curvature="0" />
      <path
         d="m 599.21523,346.55194 q 0.512,0.64 1.28,1.696 0.8,1.024 1.632,2.304 0.832,1.248 1.632,2.624 0.832,1.376 1.408,2.656 h -3.392 q -0.64,-1.216 -1.408,-2.464 -0.736,-1.248 -1.504,-2.368 -0.768,-1.152 -1.536,-2.144 -0.736,-0.992 -1.344,-1.728 -0.416,0.032 -0.864,0.032 -0.416,0 -0.864,0 h -2.784 v 8.672 h -3.104 v -21.856 q 1.312,-0.32 2.912,-0.416 1.632,-0.128 2.976,-0.128 4.672,0 7.104,1.76 2.464,1.76 2.464,5.248 0,2.208 -1.184,3.776 -1.152,1.568 -3.424,2.336 z m -4.704,-10.4 q -1.984,0 -3.04,0.096 v 8.352 h 2.208 q 1.6,0 2.88,-0.16 1.28,-0.16 2.144,-0.608 0.896,-0.448 1.376,-1.248 0.48,-0.832 0.48,-2.176 0,-1.248 -0.48,-2.08 -0.48,-0.832 -1.312,-1.312 -0.8,-0.48 -1.92,-0.672 -1.088,-0.192 -2.336,-0.192 z"
         style="font-style:normal;font-variant:normal;font-weight:normal;font-stretch:normal;font-size:32px;font-family:Ubuntu;-inkscape-font-specification:Ubuntu"
         id="path5709"
         inkscape:connector-curvature="0" />
      <path
         d="m 613.93223,353.68794 q 1.056,0 1.856,-0.032 0.832,-0.064 1.376,-0.192 v -4.96 q -0.32,-0.16 -1.056,-0.256 -0.704,-0.128 -1.728,-0.128 -0.672,0 -1.44,0.096 -0.736,0.096 -1.376,0.416 -0.608,0.288 -1.024,0.832 -0.416,0.512 -0.416,1.376 0,1.6 1.024,2.24 1.024,0.608 2.784,0.608 z m -0.256,-14.912 q 1.792,0 3.008,0.48 1.248,0.448 1.984,1.312 0.768,0.832 1.088,2.016 0.32,1.152 0.32,2.56 v 10.4 q -0.384,0.064 -1.088,0.192 -0.672,0.096 -1.536,0.192 -0.864,0.096 -1.888,0.16 -0.992,0.096 -1.984,0.096 -1.408,0 -2.592,-0.288 -1.184,-0.288 -2.048,-0.896 -0.864,-0.64 -1.344,-1.664 -0.48,-1.024 -0.48,-2.464 0,-1.376 0.544,-2.368 0.576,-0.992 1.536,-1.6 0.96,-0.608 2.24,-0.896 1.28,-0.288 2.688,-0.288 0.448,0 0.928,0.064 0.48,0.032 0.896,0.128 0.448,0.064 0.768,0.128 0.32,0.064 0.448,0.096 v -0.832 q 0,-0.736 -0.16,-1.44 -0.16,-0.736 -0.576,-1.28 -0.416,-0.576 -1.152,-0.896 -0.704,-0.352 -1.856,-0.352 -1.472,0 -2.592,0.224 -1.088,0.192 -1.632,0.416 l -0.352,-2.464 q 0.576,-0.256 1.92,-0.48 1.344,-0.256 2.912,-0.256 z"
         style="font-style:normal;font-variant:normal;font-weight:normal;font-stretch:normal;font-size:32px;font-family:Ubuntu;-inkscape-font-specification:Ubuntu"
         id="path5711"
         inkscape:connector-curvature="0" />
      <path
         d="m 631.13173,338.83994 q 0.384,0 0.864,0.064 0.512,0.032 0.992,0.128 0.48,0.064 0.864,0.16 0.416,0.064 0.608,0.128 l -0.512,2.592 q -0.352,-0.128 -1.184,-0.288 -0.8,-0.192 -2.08,-0.192 -0.832,0 -1.664,0.192 -0.8,0.16 -1.056,0.224 v 13.984 h -2.976 v -15.936 q 1.056,-0.384 2.624,-0.704 1.568,-0.352 3.52,-0.352 z"
         style="font-style:normal;font-variant:normal;font-weight:normal;font-stretch:normal;font-size:32px;font-family:Ubuntu;-inkscape-font-specification:Ubuntu"
         id="path5713"
         inkscape:connector-curvature="0" />
      <path
         d="m 636.43473,347.54394 q 0,-2.208 0.64,-3.84 0.64,-1.664 1.696,-2.752 1.056,-1.088 2.432,-1.632 1.376,-0.544 2.816,-0.544 3.36,0 5.152,2.112 1.792,2.08 1.792,6.368 0,0.192 0,0.512 0,0.288 -0.032,0.544 h -11.392 q 0.192,2.592 1.504,3.936 1.312,1.344 4.096,1.344 1.568,0 2.624,-0.256 1.088,-0.288 1.632,-0.544 l 0.416,2.496 q -0.544,0.288 -1.92,0.608 -1.344,0.32 -3.072,0.32 -2.176,0 -3.776,-0.64 -1.568,-0.672 -2.592,-1.824 -1.024,-1.152 -1.536,-2.72 -0.48,-1.6 -0.48,-3.488 z m 11.424,-1.632 q 0.032,-2.016 -1.024,-3.296 -1.024,-1.312 -2.848,-1.312 -1.024,0 -1.824,0.416 -0.768,0.384 -1.312,1.024 -0.544,0.64 -0.864,1.472 -0.288,0.832 -0.384,1.696 z"
         style="font-style:normal;font-variant:normal;font-weight:normal;font-stretch:normal;font-size:32px;font-family:Ubuntu;-inkscape-font-specification:Ubuntu"
         id="path5715"
         inkscape:connector-curvature="0" />
      <path
         d="m 673.63773,344.72794 q 0,2.88 -0.896,5.024 -0.896,2.112 -2.528,3.52 -1.632,1.376 -3.904,2.08 -2.272,0.672 -4.992,0.672 -1.344,0 -2.976,-0.128 -1.6,-0.096 -2.912,-0.416 v -21.504 q 1.312,-0.32 2.912,-0.416 1.632,-0.128 2.976,-0.128 2.72,0 4.992,0.704 2.272,0.672 3.904,2.08 1.632,1.376 2.528,3.52 0.896,2.112 0.896,4.992 z m -12.064,8.576 q 4.416,0 6.592,-2.24 2.176,-2.272 2.176,-6.336 0,-4.064 -2.176,-6.304 -2.176,-2.272 -6.592,-2.272 -1.312,0 -2.048,0.032 -0.704,0.032 -0.992,0.064 v 16.96 q 0.288,0.032 0.992,0.064 0.736,0.032 2.048,0.032 z"
         style="font-style:normal;font-variant:normal;font-weight:normal;font-stretch:normal;font-size:32px;font-family:Ubuntu;-inkscape-font-specification:Ubuntu"
         id="path5717"
         inkscape:connector-curvature="0" />
      <path
         d="m 681.02623,355.83194 h -2.976 v -16.64 h 2.976 z m -1.504,-19.648 q -0.8,0 -1.376,-0.512 -0.544,-0.544 -0.544,-1.44 0,-0.896 0.544,-1.408 0.576,-0.544 1.376,-0.544 0.8,0 1.344,0.544 0.576,0.512 0.576,1.408 0,0.896 -0.576,1.44 -0.544,0.512 -1.344,0.512 z"
         style="font-style:normal;font-variant:normal;font-weight:normal;font-stretch:normal;font-size:32px;font-family:Ubuntu;-inkscape-font-specification:Ubuntu"
         id="path5719"
         inkscape:connector-curvature="0" />
      <path
         d="m 688.95923,339.19194 h 6.304 v 2.496 h -6.304 v 7.68 q 0,1.248 0.192,2.08 0.192,0.8 0.576,1.28 0.384,0.448 0.96,0.64 0.576,0.192 1.344,0.192 1.344,0 2.144,-0.288 0.832,-0.32 1.152,-0.448 l 0.576,2.464 q -0.448,0.224 -1.568,0.544 -1.12,0.352 -2.56,0.352 -1.696,0 -2.816,-0.416 -1.088,-0.448 -1.76,-1.312 -0.672,-0.864 -0.96,-2.112 -0.256,-1.28 -0.256,-2.944 v -14.848 l 2.976,-0.512 z"
         style="font-style:normal;font-variant:normal;font-weight:normal;font-stretch:normal;font-size:32px;font-family:Ubuntu;-inkscape-font-specification:Ubuntu"
         id="path5721"
         inkscape:connector-curvature="0" />
    </g>
    <g
       id="g5746"
       style="font-style:normal;font-variant:normal;font-weight:normal;font-stretch:normal;font-size:20px;line-height:80.00000119%;font-family:AnjaliOldLipi;-inkscape-font-specification:AnjaliOldLipi;text-align:start;letter-spacing:0px;word-spacing:0px;writing-mode:lr-tb;text-anchor:start;fill:#000000;fill-opacity:1;stroke:none;stroke-width:1px;stroke-linecap:butt;stroke-linejoin:miter;stroke-opacity:1"
       transform="matrix(0.26458333,0,0,-0.26458333,-91.740663,109.76078)"
       aria-label="GeaiRareDit">
      <path
         inkscape:connector-curvature="0"
         id="path5724"
         style="font-style:normal;font-variant:normal;font-weight:normal;font-stretch:normal;font-size:32px;font-family:Ubuntu;-inkscape-font-specification:Ubuntu"
         d="m 537.71573,344.91994 h 3.104 v 10.368 q -0.384,0.128 -1.12,0.288 -0.704,0.16 -1.664,0.32 -0.928,0.16 -2.048,0.256 -1.12,0.128 -2.272,0.128 -2.336,0 -4.256,-0.768 -1.92,-0.768 -3.296,-2.24 -1.376,-1.472 -2.144,-3.616 -0.736,-2.144 -0.736,-4.928 0,-2.784 0.832,-4.928 0.864,-2.176 2.304,-3.648 1.44,-1.472 3.36,-2.24 1.952,-0.768 4.16,-0.768 1.504,0 2.656,0.192 1.184,0.192 2.016,0.448 0.832,0.256 1.344,0.512 0.544,0.256 0.736,0.384 l -0.992,2.592 q -0.928,-0.608 -2.464,-0.992 -1.536,-0.416 -3.136,-0.416 -1.696,0 -3.104,0.608 -1.376,0.608 -2.368,1.76 -0.96,1.152 -1.504,2.816 -0.544,1.632 -0.544,3.68 0,1.984 0.448,3.616 0.48,1.632 1.408,2.816 0.96,1.152 2.336,1.792 1.408,0.64 3.296,0.64 1.344,0 2.272,-0.128 0.96,-0.16 1.376,-0.288 z" />
      <path
         inkscape:connector-curvature="0"
         id="path5726"
         style="font-style:normal;font-variant:normal;font-weight:normal;font-stretch:normal;font-size:32px;font-family:Ubuntu;-inkscape-font-specification:Ubuntu"
         d="m 544.55973,347.54394 q 0,-2.208 0.64,-3.84 0.64,-1.664 1.696,-2.752 1.056,-1.088 2.432,-1.632 1.376,-0.544 2.816,-0.544 3.36,0 5.152,2.112 1.792,2.08 1.792,6.368 0,0.192 0,0.512 0,0.288 -0.032,0.544 h -11.392 q 0.192,2.592 1.504,3.936 1.312,1.344 4.096,1.344 1.568,0 2.624,-0.256 1.088,-0.288 1.632,-0.544 l 0.416,2.496 q -0.544,0.288 -1.92,0.608 -1.344,0.32 -3.072,0.32 -2.176,0 -3.776,-0.64 -1.568,-0.672 -2.592,-1.824 -1.024,-1.152 -1.536,-2.72 -0.48,-1.6 -0.48,-3.488 z m 11.424,-1.632 q 0.032,-2.016 -1.024,-3.296 -1.024,-1.312 -2.848,-1.312 -1.024,0 -1.824,0.416 -0.768,0.384 -1.312,1.024 -0.544,0.64 -0.864,1.472 -0.288,0.832 -0.384,1.696 z" />
      <path
         inkscape:connector-curvature="0"
         id="path5728"
         style="font-style:normal;font-variant:normal;font-weight:normal;font-stretch:normal;font-size:32px;font-family:Ubuntu;-inkscape-font-specification:Ubuntu"
         d="m 568.99473,353.68794 q 1.056,0 1.856,-0.032 0.832,-0.064 1.376,-0.192 v -4.96 q -0.32,-0.16 -1.056,-0.256 -0.704,-0.128 -1.728,-0.128 -0.672,0 -1.44,0.096 -0.736,0.096 -1.376,0.416 -0.608,0.288 -1.024,0.832 -0.416,0.512 -0.416,1.376 0,1.6 1.024,2.24 1.024,0.608 2.784,0.608 z m -0.256,-14.912 q 1.792,0 3.008,0.48 1.248,0.448 1.984,1.312 0.768,0.832 1.088,2.016 0.32,1.152 0.32,2.56 v 10.4 q -0.384,0.064 -1.088,0.192 -0.672,0.096 -1.536,0.192 -0.864,0.096 -1.888,0.16 -0.992,0.096 -1.984,0.096 -1.408,0 -2.592,-0.288 -1.184,-0.288 -2.048,-0.896 -0.864,-0.64 -1.344,-1.664 -0.48,-1.024 -0.48,-2.464 0,-1.376 0.544,-2.368 0.576,-0.992 1.536,-1.6 0.96,-0.608 2.24,-0.896 1.28,-0.288 2.688,-0.288 0.448,0 0.928,0.064 0.48,0.032 0.896,0.128 0.448,0.064 0.768,0.128 0.32,0.064 0.448,0.096 v -0.832 q 0,-0.736 -0.16,-1.44 -0.16,-0.736 -0.576,-1.28 -0.416,-0.576 -1.152,-0.896 -0.704,-0.352 -1.856,-0.352 -1.472,0 -2.592,0.224 -1.088,0.192 -1.632,0.416 l -0.352,-2.464 q 0.576,-0.256 1.92,-0.48 1.344,-0.256 2.912,-0.256 z" />
      <path
         inkscape:connector-curvature="0"
         id="path5730"
         style="font-style:normal;font-variant:normal;font-weight:normal;font-stretch:normal;font-size:32px;font-family:Ubuntu;-inkscape-font-specification:Ubuntu"
         d="m 583.02623,355.83194 h -2.976 v -16.64 h 2.976 z m -1.504,-19.648 q -0.8,0 -1.376,-0.512 -0.544,-0.544 -0.544,-1.44 0,-0.896 0.544,-1.408 0.576,-0.544 1.376,-0.544 0.8,0 1.344,0.544 0.576,0.512 0.576,1.408 0,0.896 -0.576,1.44 -0.544,0.512 -1.344,0.512 z" />
      <path
         inkscape:connector-curvature="0"
         id="path5732"
         style="font-style:normal;font-variant:normal;font-weight:normal;font-stretch:normal;font-size:32px;font-family:Ubuntu;-inkscape-font-specification:Ubuntu"
         d="m 599.21523,346.55194 q 0.512,0.64 1.28,1.696 0.8,1.024 1.632,2.304 0.832,1.248 1.632,2.624 0.832,1.376 1.408,2.656 h -3.392 q -0.64,-1.216 -1.408,-2.464 -0.736,-1.248 -1.504,-2.368 -0.768,-1.152 -1.536,-2.144 -0.736,-0.992 -1.344,-1.728 -0.416,0.032 -0.864,0.032 -0.416,0 -0.864,0 h -2.784 v 8.672 h -3.104 v -21.856 q 1.312,-0.32 2.912,-0.416 1.632,-0.128 2.976,-0.128 4.672,0 7.104,1.76 2.464,1.76 2.464,5.248 0,2.208 -1.184,3.776 -1.152,1.568 -3.424,2.336 z m -4.704,-10.4 q -1.984,0 -3.04,0.096 v 8.352 h 2.208 q 1.6,0 2.88,-0.16 1.28,-0.16 2.144,-0.608 0.896,-0.448 1.376,-1.248 0.48,-0.832 0.48,-2.176 0,-1.248 -0.48,-2.08 -0.48,-0.832 -1.312,-1.312 -0.8,-0.48 -1.92,-0.672 -1.088,-0.192 -2.336,-0.192 z" />
      <path
         inkscape:connector-curvature="0"
         id="path5734"
         style="font-style:normal;font-variant:normal;font-weight:normal;font-stretch:normal;font-size:32px;font-family:Ubuntu;-inkscape-font-specification:Ubuntu"
         d="m 613.93223,353.68794 q 1.056,0 1.856,-0.032 0.832,-0.064 1.376,-0.192 v -4.96 q -0.32,-0.16 -1.056,-0.256 -0.704,-0.128 -1.728,-0.128 -0.672,0 -1.44,0.096 -0.736,0.096 -1.376,0.416 -0.608,0.288 -1.024,0.832 -0.416,0.512 -0.416,1.376 0,1.6 1.024,2.24 1.024,0.608 2.784,0.608 z m -0.256,-14.912 q 1.792,0 3.008,0.48 1.248,0.448 1.984,1.312 0.768,0.832 1.088,2.016 0.32,1.152 0.32,2.56 v 10.4 q -0.384,0.064 -1.088,0.192 -0.672,0.096 -1.536,0.192 -0.864,0.096 -1.888,0.16 -0.992,0.096 -1.984,0.096 -1.408,0 -2.592,-0.288 -1.184,-0.288 -2.048,-0.896 -0.864,-0.64 -1.344,-1.664 -0.48,-1.024 -0.48,-2.464 0,-1.376 0.544,-2.368 0.576,-0.992 1.536,-1.6 0.96,-0.608 2.24,-0.896 1.28,-0.288 2.688,-0.288 0.448,0 0.928,0.064 0.48,0.032 0.896,0.128 0.448,0.064 0.768,0.128 0.32,0.064 0.448,0.096 v -0.832 q 0,-0.736 -0.16,-1.44 -0.16,-0.736 -0.576,-1.28 -0.416,-0.576 -1.152,-0.896 -0.704,-0.352 -1.856,-0.352 -1.472,0 -2.592,0.224 -1.088,0.192 -1.632,0.416 l -0.352,-2.464 q 0.576,-0.256 1.92,-0.48 1.344,-0.256 2.912,-0.256 z" />
      <path
         inkscape:connector-curvature="0"
         id="path5736"
         style="font-style:normal;font-variant:normal;font-weight:normal;font-stretch:normal;font-size:32px;font-family:Ubuntu;-inkscape-font-specification:Ubuntu"
         d="m 631.13173,338.83994 q 0.384,0 0.864,0.064 0.512,0.032 0.992,0.128 0.48,0.064 0.864,0.16 0.416,0.064 0.608,0.128 l -0.512,2.592 q -0.352,-0.128 -1.184,-0.288 -0.8,-0.192 -2.08,-0.192 -0.832,0 -1.664,0.192 -0.8,0.16 -1.056,0.224 v 13.984 h -2.976 v -15.936 q 1.056,-0.384 2.624,-0.704 1.568,-0.352 3.52,-0.352 z" />
      <path
         inkscape:connector-curvature="0"
         id="path5738"
         style="font-style:normal;font-variant:normal;font-weight:normal;font-stretch:normal;font-size:32px;font-family:Ubuntu;-inkscape-font-specification:Ubuntu"
         d="m 636.43473,347.54394 q 0,-2.208 0.64,-3.84 0.64,-1.664 1.696,-2.752 1.056,-1.088 2.432,-1.632 1.376,-0.544 2.816,-0.544 3.36,0 5.152,2.112 1.792,2.08 1.792,6.368 0,0.192 0,0.512 0,0.288 -0.032,0.544 h -11.392 q 0.192,2.592 1.504,3.936 1.312,1.344 4.096,1.344 1.568,0 2.624,-0.256 1.088,-0.288 1.632,-0.544 l 0.416,2.496 q -0.544,0.288 -1.92,0.608 -1.344,0.32 -3.072,0.32 -2.176,0 -3.776,-0.64 -1.568,-0.672 -2.592,-1.824 -1.024,-1.152 -1.536,-2.72 -0.48,-1.6 -0.48,-3.488 z m 11.424,-1.632 q 0.032,-2.016 -1.024,-3.296 -1.024,-1.312 -2.848,-1.312 -1.024,0 -1.824,0.416 -0.768,0.384 -1.312,1.024 -0.544,0.64 -0.864,1.472 -0.288,0.832 -0.384,1.696 z" />
      <path
         inkscape:connector-curvature="0"
         id="path5740"
         style="font-style:normal;font-variant:normal;font-weight:normal;font-stretch:normal;font-size:32px;font-family:Ubuntu;-inkscape-font-specification:Ubuntu"
         d="m 673.63773,344.72794 q 0,2.88 -0.896,5.024 -0.896,2.112 -2.528,3.52 -1.632,1.376 -3.904,2.08 -2.272,0.672 -4.992,0.672 -1.344,0 -2.976,-0.128 -1.6,-0.096 -2.912,-0.416 v -21.504 q 1.312,-0.32 2.912,-0.416 1.632,-0.128 2.976,-0.128 2.72,0 4.992,0.704 2.272,0.672 3.904,2.08 1.632,1.376 2.528,3.52 0.896,2.112 0.896,4.992 z m -12.064,8.576 q 4.416,0 6.592,-2.24 2.176,-2.272 2.176,-6.336 0,-4.064 -2.176,-6.304 -2.176,-2.272 -6.592,-2.272 -1.312,0 -2.048,0.032 -0.704,0.032 -0.992,0.064 v 16.96 q 0.288,0.032 0.992,0.064 0.736,0.032 2.048,0.032 z" />
      <path
         inkscape:connector-curvature="0"
         id="path5742"
         style="font-style:normal;font-variant:normal;font-weight:normal;font-stretch:normal;font-size:32px;font-family:Ubuntu;-inkscape-font-specification:Ubuntu"
         d="m 681.02623,355.83194 h -2.976 v -16.64 h 2.976 z m -1.504,-19.648 q -0.8,0 -1.376,-0.512 -0.544,-0.544 -0.544,-1.44 0,-0.896 0.544,-1.408 0.576,-0.544 1.376,-0.544 0.8,0 1.344,0.544 0.576,0.512 0.576,1.408 0,0.896 -0.576,1.44 -0.544,0.512 -1.344,0.512 z" />
      <path
         inkscape:connector-curvature="0"
         id="path5744"
         style="font-style:normal;font-variant:normal;font-weight:normal;font-stretch:normal;font-size:32px;font-family:Ubuntu;-inkscape-font-specification:Ubuntu"
         d="m 688.95923,339.19194 h 6.304 v 2.496 h -6.304 v 7.68 q 0,1.248 0.192,2.08 0.192,0.8 0.576,1.28 0.384,0.448 0.96,0.64 0.576,0.192 1.344,0.192 1.344,0 2.144,-0.288 0.832,-0.32 1.152,-0.448 l 0.576,2.464 q -0.448,0.224 -1.568,0.544 -1.12,0.352 -2.56,0.352 -1.696,0 -2.816,-0.416 -1.088,-0.448 -1.76,-1.312 -0.672,-0.864 -0.96,-2.112 -0.256,-1.28 -0.256,-2.944 v -14.848 l 2.976,-0.512 z" />
    </g>
    <g
       aria-label="GeaiRareDit"
       transform="matrix(0,-0.26458333,-0.26458333,0,111.31246,229.2347)"
       style="font-style:normal;font-variant:normal;font-weight:normal;font-stretch:normal;font-size:20px;line-height:80.00000119%;font-family:AnjaliOldLipi;-inkscape-font-specification:AnjaliOldLipi;text-align:start;letter-spacing:0px;word-spacing:0px;writing-mode:lr-tb;text-anchor:start;fill:#000000;fill-opacity:1;stroke:none;stroke-width:1px;stroke-linecap:butt;stroke-linejoin:miter;stroke-opacity:1"
       id="g5770">
      <path
         d="m 537.71573,344.91994 h 3.104 v 10.368 q -0.384,0.128 -1.12,0.288 -0.704,0.16 -1.664,0.32 -0.928,0.16 -2.048,0.256 -1.12,0.128 -2.272,0.128 -2.336,0 -4.256,-0.768 -1.92,-0.768 -3.296,-2.24 -1.376,-1.472 -2.144,-3.616 -0.736,-2.144 -0.736,-4.928 0,-2.784 0.832,-4.928 0.864,-2.176 2.304,-3.648 1.44,-1.472 3.36,-2.24 1.952,-0.768 4.16,-0.768 1.504,0 2.656,0.192 1.184,0.192 2.016,0.448 0.832,0.256 1.344,0.512 0.544,0.256 0.736,0.384 l -0.992,2.592 q -0.928,-0.608 -2.464,-0.992 -1.536,-0.416 -3.136,-0.416 -1.696,0 -3.104,0.608 -1.376,0.608 -2.368,1.76 -0.96,1.152 -1.504,2.816 -0.544,1.632 -0.544,3.68 0,1.984 0.448,3.616 0.48,1.632 1.408,2.816 0.96,1.152 2.336,1.792 1.408,0.64 3.296,0.64 1.344,0 2.272,-0.128 0.96,-0.16 1.376,-0.288 z"
         style="font-style:normal;font-variant:normal;font-weight:normal;font-stretch:normal;font-size:32px;font-family:Ubuntu;-inkscape-font-specification:Ubuntu"
         id="path5748"
         inkscape:connector-curvature="0" />
      <path
         d="m 544.55973,347.54394 q 0,-2.208 0.64,-3.84 0.64,-1.664 1.696,-2.752 1.056,-1.088 2.432,-1.632 1.376,-0.544 2.816,-0.544 3.36,0 5.152,2.112 1.792,2.08 1.792,6.368 0,0.192 0,0.512 0,0.288 -0.032,0.544 h -11.392 q 0.192,2.592 1.504,3.936 1.312,1.344 4.096,1.344 1.568,0 2.624,-0.256 1.088,-0.288 1.632,-0.544 l 0.416,2.496 q -0.544,0.288 -1.92,0.608 -1.344,0.32 -3.072,0.32 -2.176,0 -3.776,-0.64 -1.568,-0.672 -2.592,-1.824 -1.024,-1.152 -1.536,-2.72 -0.48,-1.6 -0.48,-3.488 z m 11.424,-1.632 q 0.032,-2.016 -1.024,-3.296 -1.024,-1.312 -2.848,-1.312 -1.024,0 -1.824,0.416 -0.768,0.384 -1.312,1.024 -0.544,0.64 -0.864,1.472 -0.288,0.832 -0.384,1.696 z"
         style="font-style:normal;font-variant:normal;font-weight:normal;font-stretch:normal;font-size:32px;font-family:Ubuntu;-inkscape-font-specification:Ubuntu"
         id="path5750"
         inkscape:connector-curvature="0" />
      <path
         d="m 568.99473,353.68794 q 1.056,0 1.856,-0.032 0.832,-0.064 1.376,-0.192 v -4.96 q -0.32,-0.16 -1.056,-0.256 -0.704,-0.128 -1.728,-0.128 -0.672,0 -1.44,0.096 -0.736,0.096 -1.376,0.416 -0.608,0.288 -1.024,0.832 -0.416,0.512 -0.416,1.376 0,1.6 1.024,2.24 1.024,0.608 2.784,0.608 z m -0.256,-14.912 q 1.792,0 3.008,0.48 1.248,0.448 1.984,1.312 0.768,0.832 1.088,2.016 0.32,1.152 0.32,2.56 v 10.4 q -0.384,0.064 -1.088,0.192 -0.672,0.096 -1.536,0.192 -0.864,0.096 -1.888,0.16 -0.992,0.096 -1.984,0.096 -1.408,0 -2.592,-0.288 -1.184,-0.288 -2.048,-0.896 -0.864,-0.64 -1.344,-1.664 -0.48,-1.024 -0.48,-2.464 0,-1.376 0.544,-2.368 0.576,-0.992 1.536,-1.6 0.96,-0.608 2.24,-0.896 1.28,-0.288 2.688,-0.288 0.448,0 0.928,0.064 0.48,0.032 0.896,0.128 0.448,0.064 0.768,0.128 0.32,0.064 0.448,0.096 v -0.832 q 0,-0.736 -0.16,-1.44 -0.16,-0.736 -0.576,-1.28 -0.416,-0.576 -1.152,-0.896 -0.704,-0.352 -1.856,-0.352 -1.472,0 -2.592,0.224 -1.088,0.192 -1.632,0.416 l -0.352,-2.464 q 0.576,-0.256 1.92,-0.48 1.344,-0.256 2.912,-0.256 z"
         style="font-style:normal;font-variant:normal;font-weight:normal;font-stretch:normal;font-size:32px;font-family:Ubuntu;-inkscape-font-specification:Ubuntu"
         id="path5752"
         inkscape:connector-curvature="0" />
      <path
         d="m 583.02623,355.83194 h -2.976 v -16.64 h 2.976 z m -1.504,-19.648 q -0.8,0 -1.376,-0.512 -0.544,-0.544 -0.544,-1.44 0,-0.896 0.544,-1.408 0.576,-0.544 1.376,-0.544 0.8,0 1.344,0.544 0.576,0.512 0.576,1.408 0,0.896 -0.576,1.44 -0.544,0.512 -1.344,0.512 z"
         style="font-style:normal;font-variant:normal;font-weight:normal;font-stretch:normal;font-size:32px;font-family:Ubuntu;-inkscape-font-specification:Ubuntu"
         id="path5754"
         inkscape:connector-curvature="0" />
      <path
         d="m 599.21523,346.55194 q 0.512,0.64 1.28,1.696 0.8,1.024 1.632,2.304 0.832,1.248 1.632,2.624 0.832,1.376 1.408,2.656 h -3.392 q -0.64,-1.216 -1.408,-2.464 -0.736,-1.248 -1.504,-2.368 -0.768,-1.152 -1.536,-2.144 -0.736,-0.992 -1.344,-1.728 -0.416,0.032 -0.864,0.032 -0.416,0 -0.864,0 h -2.784 v 8.672 h -3.104 v -21.856 q 1.312,-0.32 2.912,-0.416 1.632,-0.128 2.976,-0.128 4.672,0 7.104,1.76 2.464,1.76 2.464,5.248 0,2.208 -1.184,3.776 -1.152,1.568 -3.424,2.336 z m -4.704,-10.4 q -1.984,0 -3.04,0.096 v 8.352 h 2.208 q 1.6,0 2.88,-0.16 1.28,-0.16 2.144,-0.608 0.896,-0.448 1.376,-1.248 0.48,-0.832 0.48,-2.176 0,-1.248 -0.48,-2.08 -0.48,-0.832 -1.312,-1.312 -0.8,-0.48 -1.92,-0.672 -1.088,-0.192 -2.336,-0.192 z"
         style="font-style:normal;font-variant:normal;font-weight:normal;font-stretch:normal;font-size:32px;font-family:Ubuntu;-inkscape-font-specification:Ubuntu"
         id="path5756"
         inkscape:connector-curvature="0" />
      <path
         d="m 613.93223,353.68794 q 1.056,0 1.856,-0.032 0.832,-0.064 1.376,-0.192 v -4.96 q -0.32,-0.16 -1.056,-0.256 -0.704,-0.128 -1.728,-0.128 -0.672,0 -1.44,0.096 -0.736,0.096 -1.376,0.416 -0.608,0.288 -1.024,0.832 -0.416,0.512 -0.416,1.376 0,1.6 1.024,2.24 1.024,0.608 2.784,0.608 z m -0.256,-14.912 q 1.792,0 3.008,0.48 1.248,0.448 1.984,1.312 0.768,0.832 1.088,2.016 0.32,1.152 0.32,2.56 v 10.4 q -0.384,0.064 -1.088,0.192 -0.672,0.096 -1.536,0.192 -0.864,0.096 -1.888,0.16 -0.992,0.096 -1.984,0.096 -1.408,0 -2.592,-0.288 -1.184,-0.288 -2.048,-0.896 -0.864,-0.64 -1.344,-1.664 -0.48,-1.024 -0.48,-2.464 0,-1.376 0.544,-2.368 0.576,-0.992 1.536,-1.6 0.96,-0.608 2.24,-0.896 1.28,-0.288 2.688,-0.288 0.448,0 0.928,0.064 0.48,0.032 0.896,0.128 0.448,0.064 0.768,0.128 0.32,0.064 0.448,0.096 v -0.832 q 0,-0.736 -0.16,-1.44 -0.16,-0.736 -0.576,-1.28 -0.416,-0.576 -1.152,-0.896 -0.704,-0.352 -1.856,-0.352 -1.472,0 -2.592,0.224 -1.088,0.192 -1.632,0.416 l -0.352,-2.464 q 0.576,-0.256 1.92,-0.48 1.344,-0.256 2.912,-0.256 z"
         style="font-style:normal;font-variant:normal;font-weight:normal;font-stretch:normal;font-size:32px;font-family:Ubuntu;-inkscape-font-specification:Ubuntu"
         id="path5758"
         inkscape:connector-curvature="0" />
      <path
         d="m 631.13173,338.83994 q 0.384,0 0.864,0.064 0.512,0.032 0.992,0.128 0.48,0.064 0.864,0.16 0.416,0.064 0.608,0.128 l -0.512,2.592 q -0.352,-0.128 -1.184,-0.288 -0.8,-0.192 -2.08,-0.192 -0.832,0 -1.664,0.192 -0.8,0.16 -1.056,0.224 v 13.984 h -2.976 v -15.936 q 1.056,-0.384 2.624,-0.704 1.568,-0.352 3.52,-0.352 z"
         style="font-style:normal;font-variant:normal;font-weight:normal;font-stretch:normal;font-size:32px;font-family:Ubuntu;-inkscape-font-specification:Ubuntu"
         id="path5760"
         inkscape:connector-curvature="0" />
      <path
         d="m 636.43473,347.54394 q 0,-2.208 0.64,-3.84 0.64,-1.664 1.696,-2.752 1.056,-1.088 2.432,-1.632 1.376,-0.544 2.816,-0.544 3.36,0 5.152,2.112 1.792,2.08 1.792,6.368 0,0.192 0,0.512 0,0.288 -0.032,0.544 h -11.392 q 0.192,2.592 1.504,3.936 1.312,1.344 4.096,1.344 1.568,0 2.624,-0.256 1.088,-0.288 1.632,-0.544 l 0.416,2.496 q -0.544,0.288 -1.92,0.608 -1.344,0.32 -3.072,0.32 -2.176,0 -3.776,-0.64 -1.568,-0.672 -2.592,-1.824 -1.024,-1.152 -1.536,-2.72 -0.48,-1.6 -0.48,-3.488 z m 11.424,-1.632 q 0.032,-2.016 -1.024,-3.296 -1.024,-1.312 -2.848,-1.312 -1.024,0 -1.824,0.416 -0.768,0.384 -1.312,1.024 -0.544,0.64 -0.864,1.472 -0.288,0.832 -0.384,1.696 z"
         style="font-style:normal;font-variant:normal;font-weight:normal;font-stretch:normal;font-size:32px;font-family:Ubuntu;-inkscape-font-specification:Ubuntu"
         id="path5762"
         inkscape:connector-curvature="0" />
      <path
         d="m 673.63773,344.72794 q 0,2.88 -0.896,5.024 -0.896,2.112 -2.528,3.52 -1.632,1.376 -3.904,2.08 -2.272,0.672 -4.992,0.672 -1.344,0 -2.976,-0.128 -1.6,-0.096 -2.912,-0.416 v -21.504 q 1.312,-0.32 2.912,-0.416 1.632,-0.128 2.976,-0.128 2.72,0 4.992,0.704 2.272,0.672 3.904,2.08 1.632,1.376 2.528,3.52 0.896,2.112 0.896,4.992 z m -12.064,8.576 q 4.416,0 6.592,-2.24 2.176,-2.272 2.176,-6.336 0,-4.064 -2.176,-6.304 -2.176,-2.272 -6.592,-2.272 -1.312,0 -2.048,0.032 -0.704,0.032 -0.992,0.064 v 16.96 q 0.288,0.032 0.992,0.064 0.736,0.032 2.048,0.032 z"
         style="font-style:normal;font-variant:normal;font-weight:normal;font-stretch:normal;font-size:32px;font-family:Ubuntu;-inkscape-font-specification:Ubuntu"
         id="path5764"
         inkscape:connector-curvature="0" />
      <path
         d="m 681.02623,355.83194 h -2.976 v -16.64 h 2.976 z m -1.504,-19.648 q -0.8,0 -1.376,-0.512 -0.544,-0.544 -0.544,-1.44 0,-0.896 0.544,-1.408 0.576,-0.544 1.376,-0.544 0.8,0 1.344,0.544 0.576,0.512 0.576,1.408 0,0.896 -0.576,1.44 -0.544,0.512 -1.344,0.512 z"
         style="font-style:normal;font-variant:normal;font-weight:normal;font-stretch:normal;font-size:32px;font-family:Ubuntu;-inkscape-font-specification:Ubuntu"
         id="path5766"
         inkscape:connector-curvature="0" />
      <path
         d="m 688.95923,339.19194 h 6.304 v 2.496 h -6.304 v 7.68 q 0,1.248 0.192,2.08 0.192,0.8 0.576,1.28 0.384,0.448 0.96,0.64 0.576,0.192 1.344,0.192 1.344,0 2.144,-0.288 0.832,-0.32 1.152,-0.448 l 0.576,2.464 q -0.448,0.224 -1.568,0.544 -1.12,0.352 -2.56,0.352 -1.696,0 -2.816,-0.416 -1.088,-0.448 -1.76,-1.312 -0.672,-0.864 -0.96,-2.112 -0.256,-1.28 -0.256,-2.944 v -14.848 l 2.976,-0.512 z"
         style="font-style:normal;font-variant:normal;font-weight:normal;font-stretch:normal;font-size:32px;font-family:Ubuntu;-inkscape-font-specification:Ubuntu"
         id="path5768"
         inkscape:connector-curvature="0" />
    </g>
    <g
       id="g5794"
       style="font-style:normal;font-variant:normal;font-weight:normal;font-stretch:normal;font-size:20px;line-height:80.00000119%;font-family:AnjaliOldLipi;-inkscape-font-specification:AnjaliOldLipi;text-align:start;letter-spacing:0px;word-spacing:0px;writing-mode:lr-tb;text-anchor:start;fill:#000000;fill-opacity:1;stroke:none;stroke-width:1px;stroke-linecap:butt;stroke-linejoin:miter;stroke-opacity:1"
       transform="matrix(0,0.26458333,0.26458333,0,27.759153,-93.341841)"
       aria-label="GeaiRareDit">
      <path
         inkscape:connector-curvature="0"
         id="path5772"
         style="font-style:normal;font-variant:normal;font-weight:normal;font-stretch:normal;font-size:32px;font-family:Ubuntu;-inkscape-font-specification:Ubuntu"
         d="m 537.71573,344.91994 h 3.104 v 10.368 q -0.384,0.128 -1.12,0.288 -0.704,0.16 -1.664,0.32 -0.928,0.16 -2.048,0.256 -1.12,0.128 -2.272,0.128 -2.336,0 -4.256,-0.768 -1.92,-0.768 -3.296,-2.24 -1.376,-1.472 -2.144,-3.616 -0.736,-2.144 -0.736,-4.928 0,-2.784 0.832,-4.928 0.864,-2.176 2.304,-3.648 1.44,-1.472 3.36,-2.24 1.952,-0.768 4.16,-0.768 1.504,0 2.656,0.192 1.184,0.192 2.016,0.448 0.832,0.256 1.344,0.512 0.544,0.256 0.736,0.384 l -0.992,2.592 q -0.928,-0.608 -2.464,-0.992 -1.536,-0.416 -3.136,-0.416 -1.696,0 -3.104,0.608 -1.376,0.608 -2.368,1.76 -0.96,1.152 -1.504,2.816 -0.544,1.632 -0.544,3.68 0,1.984 0.448,3.616 0.48,1.632 1.408,2.816 0.96,1.152 2.336,1.792 1.408,0.64 3.296,0.64 1.344,0 2.272,-0.128 0.96,-0.16 1.376,-0.288 z" />
      <path
         inkscape:connector-curvature="0"
         id="path5774"
         style="font-style:normal;font-variant:normal;font-weight:normal;font-stretch:normal;font-size:32px;font-family:Ubuntu;-inkscape-font-specification:Ubuntu"
         d="m 544.55973,347.54394 q 0,-2.208 0.64,-3.84 0.64,-1.664 1.696,-2.752 1.056,-1.088 2.432,-1.632 1.376,-0.544 2.816,-0.544 3.36,0 5.152,2.112 1.792,2.08 1.792,6.368 0,0.192 0,0.512 0,0.288 -0.032,0.544 h -11.392 q 0.192,2.592 1.504,3.936 1.312,1.344 4.096,1.344 1.568,0 2.624,-0.256 1.088,-0.288 1.632,-0.544 l 0.416,2.496 q -0.544,0.288 -1.92,0.608 -1.344,0.32 -3.072,0.32 -2.176,0 -3.776,-0.64 -1.568,-0.672 -2.592,-1.824 -1.024,-1.152 -1.536,-2.72 -0.48,-1.6 -0.48,-3.488 z m 11.424,-1.632 q 0.032,-2.016 -1.024,-3.296 -1.024,-1.312 -2.848,-1.312 -1.024,0 -1.824,0.416 -0.768,0.384 -1.312,1.024 -0.544,0.64 -0.864,1.472 -0.288,0.832 -0.384,1.696 z" />
      <path
         inkscape:connector-curvature="0"
         id="path5776"
         style="font-style:normal;font-variant:normal;font-weight:normal;font-stretch:normal;font-size:32px;font-family:Ubuntu;-inkscape-font-specification:Ubuntu"
         d="m 568.99473,353.68794 q 1.056,0 1.856,-0.032 0.832,-0.064 1.376,-0.192 v -4.96 q -0.32,-0.16 -1.056,-0.256 -0.704,-0.128 -1.728,-0.128 -0.672,0 -1.44,0.096 -0.736,0.096 -1.376,0.416 -0.608,0.288 -1.024,0.832 -0.416,0.512 -0.416,1.376 0,1.6 1.024,2.24 1.024,0.608 2.784,0.608 z m -0.256,-14.912 q 1.792,0 3.008,0.48 1.248,0.448 1.984,1.312 0.768,0.832 1.088,2.016 0.32,1.152 0.32,2.56 v 10.4 q -0.384,0.064 -1.088,0.192 -0.672,0.096 -1.536,0.192 -0.864,0.096 -1.888,0.16 -0.992,0.096 -1.984,0.096 -1.408,0 -2.592,-0.288 -1.184,-0.288 -2.048,-0.896 -0.864,-0.64 -1.344,-1.664 -0.48,-1.024 -0.48,-2.464 0,-1.376 0.544,-2.368 0.576,-0.992 1.536,-1.6 0.96,-0.608 2.24,-0.896 1.28,-0.288 2.688,-0.288 0.448,0 0.928,0.064 0.48,0.032 0.896,0.128 0.448,0.064 0.768,0.128 0.32,0.064 0.448,0.096 v -0.832 q 0,-0.736 -0.16,-1.44 -0.16,-0.736 -0.576,-1.28 -0.416,-0.576 -1.152,-0.896 -0.704,-0.352 -1.856,-0.352 -1.472,0 -2.592,0.224 -1.088,0.192 -1.632,0.416 l -0.352,-2.464 q 0.576,-0.256 1.92,-0.48 1.344,-0.256 2.912,-0.256 z" />
      <path
         inkscape:connector-curvature="0"
         id="path5778"
         style="font-style:normal;font-variant:normal;font-weight:normal;font-stretch:normal;font-size:32px;font-family:Ubuntu;-inkscape-font-specification:Ubuntu"
         d="m 583.02623,355.83194 h -2.976 v -16.64 h 2.976 z m -1.504,-19.648 q -0.8,0 -1.376,-0.512 -0.544,-0.544 -0.544,-1.44 0,-0.896 0.544,-1.408 0.576,-0.544 1.376,-0.544 0.8,0 1.344,0.544 0.576,0.512 0.576,1.408 0,0.896 -0.576,1.44 -0.544,0.512 -1.344,0.512 z" />
      <path
         inkscape:connector-curvature="0"
         id="path5780"
         style="font-style:normal;font-variant:normal;font-weight:normal;font-stretch:normal;font-size:32px;font-family:Ubuntu;-inkscape-font-specification:Ubuntu"
         d="m 599.21523,346.55194 q 0.512,0.64 1.28,1.696 0.8,1.024 1.632,2.304 0.832,1.248 1.632,2.624 0.832,1.376 1.408,2.656 h -3.392 q -0.64,-1.216 -1.408,-2.464 -0.736,-1.248 -1.504,-2.368 -0.768,-1.152 -1.536,-2.144 -0.736,-0.992 -1.344,-1.728 -0.416,0.032 -0.864,0.032 -0.416,0 -0.864,0 h -2.784 v 8.672 h -3.104 v -21.856 q 1.312,-0.32 2.912,-0.416 1.632,-0.128 2.976,-0.128 4.672,0 7.104,1.76 2.464,1.76 2.464,5.248 0,2.208 -1.184,3.776 -1.152,1.568 -3.424,2.336 z m -4.704,-10.4 q -1.984,0 -3.04,0.096 v 8.352 h 2.208 q 1.6,0 2.88,-0.16 1.28,-0.16 2.144,-0.608 0.896,-0.448 1.376,-1.248 0.48,-0.832 0.48,-2.176 0,-1.248 -0.48,-2.08 -0.48,-0.832 -1.312,-1.312 -0.8,-0.48 -1.92,-0.672 -1.088,-0.192 -2.336,-0.192 z" />
      <path
         inkscape:connector-curvature="0"
         id="path5782"
         style="font-style:normal;font-variant:normal;font-weight:normal;font-stretch:normal;font-size:32px;font-family:Ubuntu;-inkscape-font-specification:Ubuntu"
         d="m 613.93223,353.68794 q 1.056,0 1.856,-0.032 0.832,-0.064 1.376,-0.192 v -4.96 q -0.32,-0.16 -1.056,-0.256 -0.704,-0.128 -1.728,-0.128 -0.672,0 -1.44,0.096 -0.736,0.096 -1.376,0.416 -0.608,0.288 -1.024,0.832 -0.416,0.512 -0.416,1.376 0,1.6 1.024,2.24 1.024,0.608 2.784,0.608 z m -0.256,-14.912 q 1.792,0 3.008,0.48 1.248,0.448 1.984,1.312 0.768,0.832 1.088,2.016 0.32,1.152 0.32,2.56 v 10.4 q -0.384,0.064 -1.088,0.192 -0.672,0.096 -1.536,0.192 -0.864,0.096 -1.888,0.16 -0.992,0.096 -1.984,0.096 -1.408,0 -2.592,-0.288 -1.184,-0.288 -2.048,-0.896 -0.864,-0.64 -1.344,-1.664 -0.48,-1.024 -0.48,-2.464 0,-1.376 0.544,-2.368 0.576,-0.992 1.536,-1.6 0.96,-0.608 2.24,-0.896 1.28,-0.288 2.688,-0.288 0.448,0 0.928,0.064 0.48,0.032 0.896,0.128 0.448,0.064 0.768,0.128 0.32,0.064 0.448,0.096 v -0.832 q 0,-0.736 -0.16,-1.44 -0.16,-0.736 -0.576,-1.28 -0.416,-0.576 -1.152,-0.896 -0.704,-0.352 -1.856,-0.352 -1.472,0 -2.592,0.224 -1.088,0.192 -1.632,0.416 l -0.352,-2.464 q 0.576,-0.256 1.92,-0.48 1.344,-0.256 2.912,-0.256 z" />
      <path
         inkscape:connector-curvature="0"
         id="path5784"
         style="font-style:normal;font-variant:normal;font-weight:normal;font-stretch:normal;font-size:32px;font-family:Ubuntu;-inkscape-font-specification:Ubuntu"
         d="m 631.13173,338.83994 q 0.384,0 0.864,0.064 0.512,0.032 0.992,0.128 0.48,0.064 0.864,0.16 0.416,0.064 0.608,0.128 l -0.512,2.592 q -0.352,-0.128 -1.184,-0.288 -0.8,-0.192 -2.08,-0.192 -0.832,0 -1.664,0.192 -0.8,0.16 -1.056,0.224 v 13.984 h -2.976 v -15.936 q 1.056,-0.384 2.624,-0.704 1.568,-0.352 3.52,-0.352 z" />
      <path
         inkscape:connector-curvature="0"
         id="path5786"
         style="font-style:normal;font-variant:normal;font-weight:normal;font-stretch:normal;font-size:32px;font-family:Ubuntu;-inkscape-font-specification:Ubuntu"
         d="m 636.43473,347.54394 q 0,-2.208 0.64,-3.84 0.64,-1.664 1.696,-2.752 1.056,-1.088 2.432,-1.632 1.376,-0.544 2.816,-0.544 3.36,0 5.152,2.112 1.792,2.08 1.792,6.368 0,0.192 0,0.512 0,0.288 -0.032,0.544 h -11.392 q 0.192,2.592 1.504,3.936 1.312,1.344 4.096,1.344 1.568,0 2.624,-0.256 1.088,-0.288 1.632,-0.544 l 0.416,2.496 q -0.544,0.288 -1.92,0.608 -1.344,0.32 -3.072,0.32 -2.176,0 -3.776,-0.64 -1.568,-0.672 -2.592,-1.824 -1.024,-1.152 -1.536,-2.72 -0.48,-1.6 -0.48,-3.488 z m 11.424,-1.632 q 0.032,-2.016 -1.024,-3.296 -1.024,-1.312 -2.848,-1.312 -1.024,0 -1.824,0.416 -0.768,0.384 -1.312,1.024 -0.544,0.64 -0.864,1.472 -0.288,0.832 -0.384,1.696 z" />
      <path
         inkscape:connector-curvature="0"
         id="path5788"
         style="font-style:normal;font-variant:normal;font-weight:normal;font-stretch:normal;font-size:32px;font-family:Ubuntu;-inkscape-font-specification:Ubuntu"
         d="m 673.63773,344.72794 q 0,2.88 -0.896,5.024 -0.896,2.112 -2.528,3.52 -1.632,1.376 -3.904,2.08 -2.272,0.672 -4.992,0.672 -1.344,0 -2.976,-0.128 -1.6,-0.096 -2.912,-0.416 v -21.504 q 1.312,-0.32 2.912,-0.416 1.632,-0.128 2.976,-0.128 2.72,0 4.992,0.704 2.272,0.672 3.904,2.08 1.632,1.376 2.528,3.52 0.896,2.112 0.896,4.992 z m -12.064,8.576 q 4.416,0 6.592,-2.24 2.176,-2.272 2.176,-6.336 0,-4.064 -2.176,-6.304 -2.176,-2.272 -6.592,-2.272 -1.312,0 -2.048,0.032 -0.704,0.032 -0.992,0.064 v 16.96 q 0.288,0.032 0.992,0.064 0.736,0.032 2.048,0.032 z" />
      <path
         inkscape:connector-curvature="0"
         id="path5790"
         style="font-style:normal;font-variant:normal;font-weight:normal;font-stretch:normal;font-size:32px;font-family:Ubuntu;-inkscape-font-specification:Ubuntu"
         d="m 681.02623,355.83194 h -2.976 v -16.64 h 2.976 z m -1.504,-19.648 q -0.8,0 -1.376,-0.512 -0.544,-0.544 -0.544,-1.44 0,-0.896 0.544,-1.408 0.576,-0.544 1.376,-0.544 0.8,0 1.344,0.544 0.576,0.512 0.576,1.408 0,0.896 -0.576,1.44 -0.544,0.512 -1.344,0.512 z" />
      <path
         inkscape:connector-curvature="0"
         id="path5792"
         style="font-style:normal;font-variant:normal;font-weight:normal;font-stretch:normal;font-size:32px;font-family:Ubuntu;-inkscape-font-specification:Ubuntu"
         d="m 688.95923,339.19194 h 6.304 v 2.496 h -6.304 v 7.68 q 0,1.248 0.192,2.08 0.192,0.8 0.576,1.28 0.384,0.448 0.96,0.64 0.576,0.192 1.344,0.192 1.344,0 2.144,-0.288 0.832,-0.32 1.152,-0.448 l 0.576,2.464 q -0.448,0.224 -1.568,0.544 -1.12,0.352 -2.56,0.352 -1.696,0 -2.816,-0.416 -1.088,-0.448 -1.76,-1.312 -0.672,-0.864 -0.96,-2.112 -0.256,-1.28 -0.256,-2.944 v -14.848 l 2.976,-0.512 z" />
    </g>
  </g>
</svg>
