<?xml version="1.0" encoding="UTF-8" standalone="no"?>
<!-- Created with Inkscape (http://www.inkscape.org/) -->

<svg
   xmlns:dc="http://purl.org/dc/elements/1.1/"
   xmlns:cc="http://creativecommons.org/ns#"
   xmlns:rdf="http://www.w3.org/1999/02/22-rdf-syntax-ns#"
   xmlns:svg="http://www.w3.org/2000/svg"
   xmlns="http://www.w3.org/2000/svg"
   xmlns:sodipodi="http://sodipodi.sourceforge.net/DTD/sodipodi-0.dtd"
   xmlns:inkscape="http://www.inkscape.org/namespaces/inkscape"
   width="351.76651mm"
   height="121.17mm"
   viewBox="0 0 351.76651 121.17"
   version="1.1"
   id="svg7435"
   inkscape:version="0.92.3 (2405546, 2018-03-11)"
   sodipodi:docname="GeaiRareDit-Face2-3-4-Print.svg">
  <defs
     id="defs7429" />
  <sodipodi:namedview
     id="base"
     pagecolor="#ffffff"
     bordercolor="#666666"
     borderopacity="1.0"
     inkscape:pageopacity="0.0"
     inkscape:pageshadow="2"
     inkscape:zoom="0.49497475"
     inkscape:cx="691.52283"
     inkscape:cy="160.93511"
     inkscape:document-units="mm"
     inkscape:current-layer="layer1"
     showgrid="false"
     fit-margin-top="5"
     fit-margin-bottom="5"
     fit-margin-right="5"
     fit-margin-left="5"
     inkscape:window-width="1613"
     inkscape:window-height="1022"
     inkscape:window-x="67"
     inkscape:window-y="0"
     inkscape:window-maximized="1" />
  <metadata
     id="metadata7432">
    <rdf:RDF>
      <cc:Work
         rdf:about="">
        <dc:format>image/svg+xml</dc:format>
        <dc:type
           rdf:resource="http://purl.org/dc/dcmitype/StillImage" />
        <dc:title></dc:title>
      </cc:Work>
    </rdf:RDF>
  </metadata>
  <g
     inkscape:label="Calque 1"
     inkscape:groupmode="layer"
     id="layer1"
     transform="translate(223.57254,70.211293)">
    <g
       transform="matrix(0.19956126,-0.19956126,0.19956126,0.19956126,-338.848,-37.234566)"
       style="stroke:#ff0000;stroke-width:0.08999999;stroke-miterlimit:4;stroke-dasharray:none;stroke-opacity:1;fill:none"
       id="g2399">
      <g
         style="stroke:#ff0000;stroke-width:0.08999999;stroke-miterlimit:4;stroke-dasharray:none;stroke-opacity:1;fill:none"
         id="g2271">
        <path
           inkscape:connector-curvature="0"
           id="path2255"
           d="m 262.45764,393.22571 h 15.94489 c 1.96299,0 3.5433,1.58031 3.5433,3.54331 v 15.94488 c 0,1.96299 -1.58031,3.5433 -3.5433,3.5433 h -15.94489 c -1.96299,0 -3.5433,-1.58031 -3.5433,-3.5433 v -15.94488 c 0,-1.963 1.58031,-3.54331 3.5433,-3.54331 z"
           style="opacity:1;fill:none;fill-opacity:1;fill-rule:nonzero;stroke:#ff0000;stroke-width:0.08999999;stroke-linejoin:round;stroke-miterlimit:4;stroke-dasharray:none;stroke-opacity:1" />
        <path
           inkscape:connector-curvature="0"
           id="path2257"
           d="m 291.31912,393.22571 h 15.94489 c 1.96299,0 3.5433,1.58031 3.5433,3.54331 v 15.94488 c 0,1.96299 -1.58031,3.5433 -3.5433,3.5433 h -15.94489 c -1.96299,0 -3.5433,-1.58031 -3.5433,-3.5433 v -15.94488 c 0,-1.963 1.58031,-3.54331 3.5433,-3.54331 z"
           style="opacity:1;fill:none;fill-opacity:1;fill-rule:nonzero;stroke:#ff0000;stroke-width:0.08999999;stroke-linejoin:round;stroke-miterlimit:4;stroke-dasharray:none;stroke-opacity:1" />
        <path
           inkscape:connector-curvature="0"
           id="path2259"
           d="m 320.18064,393.22571 h 15.94488 c 1.96299,0 3.54331,1.58031 3.54331,3.54331 v 15.94488 c 0,1.96299 -1.58032,3.5433 -3.54331,3.5433 h -15.94488 c -1.963,0 -3.54331,-1.58031 -3.54331,-3.5433 v -15.94488 c 0,-1.963 1.58031,-3.54331 3.54331,-3.54331 z"
           style="opacity:1;fill:none;fill-opacity:1;fill-rule:nonzero;stroke:#ff0000;stroke-width:0.08999999;stroke-linejoin:round;stroke-miterlimit:4;stroke-dasharray:none;stroke-opacity:1" />
        <path
           inkscape:connector-curvature="0"
           id="path2261"
           d="m 349.04215,393.22571 h 15.94488 c 1.96299,0 3.54331,1.58031 3.54331,3.54331 v 15.94488 c 0,1.96299 -1.58032,3.5433 -3.54331,3.5433 h -15.94488 c -1.96299,0 -3.54331,-1.58031 -3.54331,-3.5433 v -15.94488 c 0,-1.963 1.58032,-3.54331 3.54331,-3.54331 z"
           style="opacity:1;fill:none;fill-opacity:1;fill-rule:nonzero;stroke:#ff0000;stroke-width:0.08999999;stroke-linejoin:round;stroke-miterlimit:4;stroke-dasharray:none;stroke-opacity:1" />
        <path
           inkscape:connector-curvature="0"
           id="path2263"
           d="m 377.90363,393.22571 h 15.94488 c 1.96299,0 3.54331,1.58031 3.54331,3.54331 v 15.94488 c 0,1.96299 -1.58032,3.5433 -3.54331,3.5433 h -15.94488 c -1.96299,0 -3.54331,-1.58031 -3.54331,-3.5433 v -15.94488 c 0,-1.963 1.58032,-3.54331 3.54331,-3.54331 z"
           style="opacity:1;fill:none;fill-opacity:1;fill-rule:nonzero;stroke:#ff0000;stroke-width:0.08999999;stroke-linejoin:round;stroke-miterlimit:4;stroke-dasharray:none;stroke-opacity:1" />
        <path
           inkscape:connector-curvature="0"
           id="path2265"
           d="m 406.76514,393.22571 h 15.94488 c 1.96299,0 3.54331,1.58031 3.54331,3.54331 v 15.94488 c 0,1.96299 -1.58032,3.5433 -3.54331,3.5433 h -15.94488 c -1.96299,0 -3.54331,-1.58031 -3.54331,-3.5433 v -15.94488 c 0,-1.963 1.58032,-3.54331 3.54331,-3.54331 z"
           style="opacity:1;fill:none;fill-opacity:1;fill-rule:nonzero;stroke:#ff0000;stroke-width:0.08999999;stroke-linejoin:round;stroke-miterlimit:4;stroke-dasharray:none;stroke-opacity:1" />
        <path
           inkscape:connector-curvature="0"
           id="path2267"
           d="m 435.62662,393.22571 h 15.94488 c 1.96299,0 3.54331,1.58031 3.54331,3.54331 v 15.94488 c 0,1.96299 -1.58032,3.5433 -3.54331,3.5433 h -15.94488 c -1.96299,0 -3.54331,-1.58031 -3.54331,-3.5433 v -15.94488 c 0,-1.963 1.58032,-3.54331 3.54331,-3.54331 z"
           style="opacity:1;fill:none;fill-opacity:1;fill-rule:nonzero;stroke:#ff0000;stroke-width:0.08999999;stroke-linejoin:round;stroke-miterlimit:4;stroke-dasharray:none;stroke-opacity:1" />
        <path
           inkscape:connector-curvature="0"
           id="path2269"
           d="m 464.48813,393.22571 h 15.94488 c 1.963,0 3.54331,1.58031 3.54331,3.54331 v 15.94488 c 0,1.96299 -1.58031,3.5433 -3.54331,3.5433 h -15.94488 c -1.96299,0 -3.54331,-1.58031 -3.54331,-3.5433 v -15.94488 c 0,-1.963 1.58032,-3.54331 3.54331,-3.54331 z"
           style="opacity:1;fill:none;fill-opacity:1;fill-rule:nonzero;stroke:#ff0000;stroke-width:0.08999999;stroke-linejoin:round;stroke-miterlimit:4;stroke-dasharray:none;stroke-opacity:1" />
      </g>
      <g
         style="stroke:#ff0000;stroke-width:0.08999999;stroke-miterlimit:4;stroke-dasharray:none;stroke-opacity:1;fill:none"
         id="g2289"
         transform="translate(0,29.358201)">
        <path
           inkscape:connector-curvature="0"
           id="path2273"
           d="m 262.45764,393.22571 h 15.94489 c 1.96299,0 3.5433,1.58031 3.5433,3.54331 v 15.94488 c 0,1.96299 -1.58031,3.5433 -3.5433,3.5433 h -15.94489 c -1.96299,0 -3.5433,-1.58031 -3.5433,-3.5433 v -15.94488 c 0,-1.963 1.58031,-3.54331 3.5433,-3.54331 z"
           style="opacity:1;fill:none;fill-opacity:1;fill-rule:nonzero;stroke:#ff0000;stroke-width:0.08999999;stroke-linejoin:round;stroke-miterlimit:4;stroke-dasharray:none;stroke-opacity:1" />
        <path
           inkscape:connector-curvature="0"
           id="path2275"
           d="m 291.31912,393.22571 h 15.94489 c 1.96299,0 3.5433,1.58031 3.5433,3.54331 v 15.94488 c 0,1.96299 -1.58031,3.5433 -3.5433,3.5433 h -15.94489 c -1.96299,0 -3.5433,-1.58031 -3.5433,-3.5433 v -15.94488 c 0,-1.963 1.58031,-3.54331 3.5433,-3.54331 z"
           style="opacity:1;fill:none;fill-opacity:1;fill-rule:nonzero;stroke:#ff0000;stroke-width:0.08999999;stroke-linejoin:round;stroke-miterlimit:4;stroke-dasharray:none;stroke-opacity:1" />
        <path
           inkscape:connector-curvature="0"
           id="path2277"
           d="m 320.18064,393.22571 h 15.94488 c 1.96299,0 3.54331,1.58031 3.54331,3.54331 v 15.94488 c 0,1.96299 -1.58032,3.5433 -3.54331,3.5433 h -15.94488 c -1.963,0 -3.54331,-1.58031 -3.54331,-3.5433 v -15.94488 c 0,-1.963 1.58031,-3.54331 3.54331,-3.54331 z"
           style="opacity:1;fill:none;fill-opacity:1;fill-rule:nonzero;stroke:#ff0000;stroke-width:0.08999999;stroke-linejoin:round;stroke-miterlimit:4;stroke-dasharray:none;stroke-opacity:1" />
        <path
           inkscape:connector-curvature="0"
           id="path2279"
           d="m 349.04215,393.22571 h 15.94488 c 1.96299,0 3.54331,1.58031 3.54331,3.54331 v 15.94488 c 0,1.96299 -1.58032,3.5433 -3.54331,3.5433 h -15.94488 c -1.96299,0 -3.54331,-1.58031 -3.54331,-3.5433 v -15.94488 c 0,-1.963 1.58032,-3.54331 3.54331,-3.54331 z"
           style="opacity:1;fill:none;fill-opacity:1;fill-rule:nonzero;stroke:#ff0000;stroke-width:0.08999999;stroke-linejoin:round;stroke-miterlimit:4;stroke-dasharray:none;stroke-opacity:1" />
        <path
           inkscape:connector-curvature="0"
           id="path2281"
           d="m 377.90363,393.22571 h 15.94488 c 1.96299,0 3.54331,1.58031 3.54331,3.54331 v 15.94488 c 0,1.96299 -1.58032,3.5433 -3.54331,3.5433 h -15.94488 c -1.96299,0 -3.54331,-1.58031 -3.54331,-3.5433 v -15.94488 c 0,-1.963 1.58032,-3.54331 3.54331,-3.54331 z"
           style="opacity:1;fill:none;fill-opacity:1;fill-rule:nonzero;stroke:#ff0000;stroke-width:0.08999999;stroke-linejoin:round;stroke-miterlimit:4;stroke-dasharray:none;stroke-opacity:1" />
        <path
           inkscape:connector-curvature="0"
           id="path2283"
           d="m 406.76514,393.22571 h 15.94488 c 1.96299,0 3.54331,1.58031 3.54331,3.54331 v 15.94488 c 0,1.96299 -1.58032,3.5433 -3.54331,3.5433 h -15.94488 c -1.96299,0 -3.54331,-1.58031 -3.54331,-3.5433 v -15.94488 c 0,-1.963 1.58032,-3.54331 3.54331,-3.54331 z"
           style="opacity:1;fill:none;fill-opacity:1;fill-rule:nonzero;stroke:#ff0000;stroke-width:0.08999999;stroke-linejoin:round;stroke-miterlimit:4;stroke-dasharray:none;stroke-opacity:1" />
        <path
           inkscape:connector-curvature="0"
           id="path2285"
           d="m 435.62662,393.22571 h 15.94488 c 1.96299,0 3.54331,1.58031 3.54331,3.54331 v 15.94488 c 0,1.96299 -1.58032,3.5433 -3.54331,3.5433 h -15.94488 c -1.96299,0 -3.54331,-1.58031 -3.54331,-3.5433 v -15.94488 c 0,-1.963 1.58032,-3.54331 3.54331,-3.54331 z"
           style="opacity:1;fill:none;fill-opacity:1;fill-rule:nonzero;stroke:#ff0000;stroke-width:0.08999999;stroke-linejoin:round;stroke-miterlimit:4;stroke-dasharray:none;stroke-opacity:1" />
        <path
           inkscape:connector-curvature="0"
           id="path2287"
           d="m 464.48813,393.22571 h 15.94488 c 1.963,0 3.54331,1.58031 3.54331,3.54331 v 15.94488 c 0,1.96299 -1.58031,3.5433 -3.54331,3.5433 h -15.94488 c -1.96299,0 -3.54331,-1.58031 -3.54331,-3.5433 v -15.94488 c 0,-1.963 1.58032,-3.54331 3.54331,-3.54331 z"
           style="opacity:1;fill:none;fill-opacity:1;fill-rule:nonzero;stroke:#ff0000;stroke-width:0.08999999;stroke-linejoin:round;stroke-miterlimit:4;stroke-dasharray:none;stroke-opacity:1" />
      </g>
      <g
         style="stroke:#ff0000;stroke-width:0.08999999;stroke-miterlimit:4;stroke-dasharray:none;stroke-opacity:1;fill:none"
         transform="translate(0,58.71641)"
         id="g2307">
        <path
           inkscape:connector-curvature="0"
           id="path2291"
           d="m 262.45764,393.22571 h 15.94489 c 1.96299,0 3.5433,1.58031 3.5433,3.54331 v 15.94488 c 0,1.96299 -1.58031,3.5433 -3.5433,3.5433 h -15.94489 c -1.96299,0 -3.5433,-1.58031 -3.5433,-3.5433 v -15.94488 c 0,-1.963 1.58031,-3.54331 3.5433,-3.54331 z"
           style="opacity:1;fill:none;fill-opacity:1;fill-rule:nonzero;stroke:#ff0000;stroke-width:0.08999999;stroke-linejoin:round;stroke-miterlimit:4;stroke-dasharray:none;stroke-opacity:1" />
        <path
           inkscape:connector-curvature="0"
           id="path2293"
           d="m 291.31912,393.22571 h 15.94489 c 1.96299,0 3.5433,1.58031 3.5433,3.54331 v 15.94488 c 0,1.96299 -1.58031,3.5433 -3.5433,3.5433 h -15.94489 c -1.96299,0 -3.5433,-1.58031 -3.5433,-3.5433 v -15.94488 c 0,-1.963 1.58031,-3.54331 3.5433,-3.54331 z"
           style="opacity:1;fill:none;fill-opacity:1;fill-rule:nonzero;stroke:#ff0000;stroke-width:0.08999999;stroke-linejoin:round;stroke-miterlimit:4;stroke-dasharray:none;stroke-opacity:1" />
        <path
           inkscape:connector-curvature="0"
           id="path2295"
           d="m 320.18064,393.22571 h 15.94488 c 1.96299,0 3.54331,1.58031 3.54331,3.54331 v 15.94488 c 0,1.96299 -1.58032,3.5433 -3.54331,3.5433 h -15.94488 c -1.963,0 -3.54331,-1.58031 -3.54331,-3.5433 v -15.94488 c 0,-1.963 1.58031,-3.54331 3.54331,-3.54331 z"
           style="opacity:1;fill:none;fill-opacity:1;fill-rule:nonzero;stroke:#ff0000;stroke-width:0.08999999;stroke-linejoin:round;stroke-miterlimit:4;stroke-dasharray:none;stroke-opacity:1" />
        <path
           inkscape:connector-curvature="0"
           id="path2297"
           d="m 349.04215,393.22571 h 15.94488 c 1.96299,0 3.54331,1.58031 3.54331,3.54331 v 15.94488 c 0,1.96299 -1.58032,3.5433 -3.54331,3.5433 h -15.94488 c -1.96299,0 -3.54331,-1.58031 -3.54331,-3.5433 v -15.94488 c 0,-1.963 1.58032,-3.54331 3.54331,-3.54331 z"
           style="opacity:1;fill:none;fill-opacity:1;fill-rule:nonzero;stroke:#ff0000;stroke-width:0.08999999;stroke-linejoin:round;stroke-miterlimit:4;stroke-dasharray:none;stroke-opacity:1" />
        <path
           inkscape:connector-curvature="0"
           id="path2299"
           d="m 377.90363,393.22571 h 15.94488 c 1.96299,0 3.54331,1.58031 3.54331,3.54331 v 15.94488 c 0,1.96299 -1.58032,3.5433 -3.54331,3.5433 h -15.94488 c -1.96299,0 -3.54331,-1.58031 -3.54331,-3.5433 v -15.94488 c 0,-1.963 1.58032,-3.54331 3.54331,-3.54331 z"
           style="opacity:1;fill:none;fill-opacity:1;fill-rule:nonzero;stroke:#ff0000;stroke-width:0.08999999;stroke-linejoin:round;stroke-miterlimit:4;stroke-dasharray:none;stroke-opacity:1" />
        <path
           inkscape:connector-curvature="0"
           id="path2301"
           d="m 406.76514,393.22571 h 15.94488 c 1.96299,0 3.54331,1.58031 3.54331,3.54331 v 15.94488 c 0,1.96299 -1.58032,3.5433 -3.54331,3.5433 h -15.94488 c -1.96299,0 -3.54331,-1.58031 -3.54331,-3.5433 v -15.94488 c 0,-1.963 1.58032,-3.54331 3.54331,-3.54331 z"
           style="opacity:1;fill:none;fill-opacity:1;fill-rule:nonzero;stroke:#ff0000;stroke-width:0.08999999;stroke-linejoin:round;stroke-miterlimit:4;stroke-dasharray:none;stroke-opacity:1" />
        <path
           inkscape:connector-curvature="0"
           id="path2303"
           d="m 435.62662,393.22571 h 15.94488 c 1.96299,0 3.54331,1.58031 3.54331,3.54331 v 15.94488 c 0,1.96299 -1.58032,3.5433 -3.54331,3.5433 h -15.94488 c -1.96299,0 -3.54331,-1.58031 -3.54331,-3.5433 v -15.94488 c 0,-1.963 1.58032,-3.54331 3.54331,-3.54331 z"
           style="opacity:1;fill:none;fill-opacity:1;fill-rule:nonzero;stroke:#ff0000;stroke-width:0.08999999;stroke-linejoin:round;stroke-miterlimit:4;stroke-dasharray:none;stroke-opacity:1" />
        <path
           inkscape:connector-curvature="0"
           id="path2305"
           d="m 464.48813,393.22571 h 15.94488 c 1.963,0 3.54331,1.58031 3.54331,3.54331 v 15.94488 c 0,1.96299 -1.58031,3.5433 -3.54331,3.5433 h -15.94488 c -1.96299,0 -3.54331,-1.58031 -3.54331,-3.5433 v -15.94488 c 0,-1.963 1.58032,-3.54331 3.54331,-3.54331 z"
           style="opacity:1;fill:none;fill-opacity:1;fill-rule:nonzero;stroke:#ff0000;stroke-width:0.08999999;stroke-linejoin:round;stroke-miterlimit:4;stroke-dasharray:none;stroke-opacity:1" />
      </g>
      <g
         style="stroke:#ff0000;stroke-width:0.08999999;stroke-miterlimit:4;stroke-dasharray:none;stroke-opacity:1;fill:none"
         id="g2325"
         transform="translate(0,88.074601)">
        <path
           inkscape:connector-curvature="0"
           id="path2309"
           d="m 262.45764,393.22571 h 15.94489 c 1.96299,0 3.5433,1.58031 3.5433,3.54331 v 15.94488 c 0,1.96299 -1.58031,3.5433 -3.5433,3.5433 h -15.94489 c -1.96299,0 -3.5433,-1.58031 -3.5433,-3.5433 v -15.94488 c 0,-1.963 1.58031,-3.54331 3.5433,-3.54331 z"
           style="opacity:1;fill:none;fill-opacity:1;fill-rule:nonzero;stroke:#ff0000;stroke-width:0.08999999;stroke-linejoin:round;stroke-miterlimit:4;stroke-dasharray:none;stroke-opacity:1" />
        <path
           inkscape:connector-curvature="0"
           id="path2311"
           d="m 291.31912,393.22571 h 15.94489 c 1.96299,0 3.5433,1.58031 3.5433,3.54331 v 15.94488 c 0,1.96299 -1.58031,3.5433 -3.5433,3.5433 h -15.94489 c -1.96299,0 -3.5433,-1.58031 -3.5433,-3.5433 v -15.94488 c 0,-1.963 1.58031,-3.54331 3.5433,-3.54331 z"
           style="opacity:1;fill:none;fill-opacity:1;fill-rule:nonzero;stroke:#ff0000;stroke-width:0.08999999;stroke-linejoin:round;stroke-miterlimit:4;stroke-dasharray:none;stroke-opacity:1" />
        <path
           inkscape:connector-curvature="0"
           id="path2313"
           d="m 320.18064,393.22571 h 15.94488 c 1.96299,0 3.54331,1.58031 3.54331,3.54331 v 15.94488 c 0,1.96299 -1.58032,3.5433 -3.54331,3.5433 h -15.94488 c -1.963,0 -3.54331,-1.58031 -3.54331,-3.5433 v -15.94488 c 0,-1.963 1.58031,-3.54331 3.54331,-3.54331 z"
           style="opacity:1;fill:none;fill-opacity:1;fill-rule:nonzero;stroke:#ff0000;stroke-width:0.08999999;stroke-linejoin:round;stroke-miterlimit:4;stroke-dasharray:none;stroke-opacity:1" />
        <path
           inkscape:connector-curvature="0"
           id="path2315"
           d="m 349.04215,393.22571 h 15.94488 c 1.96299,0 3.54331,1.58031 3.54331,3.54331 v 15.94488 c 0,1.96299 -1.58032,3.5433 -3.54331,3.5433 h -15.94488 c -1.96299,0 -3.54331,-1.58031 -3.54331,-3.5433 v -15.94488 c 0,-1.963 1.58032,-3.54331 3.54331,-3.54331 z"
           style="opacity:1;fill:none;fill-opacity:1;fill-rule:nonzero;stroke:#ff0000;stroke-width:0.08999999;stroke-linejoin:round;stroke-miterlimit:4;stroke-dasharray:none;stroke-opacity:1" />
        <path
           inkscape:connector-curvature="0"
           id="path2317"
           d="m 377.90363,393.22571 h 15.94488 c 1.96299,0 3.54331,1.58031 3.54331,3.54331 v 15.94488 c 0,1.96299 -1.58032,3.5433 -3.54331,3.5433 h -15.94488 c -1.96299,0 -3.54331,-1.58031 -3.54331,-3.5433 v -15.94488 c 0,-1.963 1.58032,-3.54331 3.54331,-3.54331 z"
           style="opacity:1;fill:none;fill-opacity:1;fill-rule:nonzero;stroke:#ff0000;stroke-width:0.08999999;stroke-linejoin:round;stroke-miterlimit:4;stroke-dasharray:none;stroke-opacity:1" />
        <path
           inkscape:connector-curvature="0"
           id="path2319"
           d="m 406.76514,393.22571 h 15.94488 c 1.96299,0 3.54331,1.58031 3.54331,3.54331 v 15.94488 c 0,1.96299 -1.58032,3.5433 -3.54331,3.5433 h -15.94488 c -1.96299,0 -3.54331,-1.58031 -3.54331,-3.5433 v -15.94488 c 0,-1.963 1.58032,-3.54331 3.54331,-3.54331 z"
           style="opacity:1;fill:none;fill-opacity:1;fill-rule:nonzero;stroke:#ff0000;stroke-width:0.08999999;stroke-linejoin:round;stroke-miterlimit:4;stroke-dasharray:none;stroke-opacity:1" />
        <path
           inkscape:connector-curvature="0"
           id="path2321"
           d="m 435.62662,393.22571 h 15.94488 c 1.96299,0 3.54331,1.58031 3.54331,3.54331 v 15.94488 c 0,1.96299 -1.58032,3.5433 -3.54331,3.5433 h -15.94488 c -1.96299,0 -3.54331,-1.58031 -3.54331,-3.5433 v -15.94488 c 0,-1.963 1.58032,-3.54331 3.54331,-3.54331 z"
           style="opacity:1;fill:none;fill-opacity:1;fill-rule:nonzero;stroke:#ff0000;stroke-width:0.08999999;stroke-linejoin:round;stroke-miterlimit:4;stroke-dasharray:none;stroke-opacity:1" />
        <path
           inkscape:connector-curvature="0"
           id="path2323"
           d="m 464.48813,393.22571 h 15.94488 c 1.963,0 3.54331,1.58031 3.54331,3.54331 v 15.94488 c 0,1.96299 -1.58031,3.5433 -3.54331,3.5433 h -15.94488 c -1.96299,0 -3.54331,-1.58031 -3.54331,-3.5433 v -15.94488 c 0,-1.963 1.58032,-3.54331 3.54331,-3.54331 z"
           style="opacity:1;fill:none;fill-opacity:1;fill-rule:nonzero;stroke:#ff0000;stroke-width:0.08999999;stroke-linejoin:round;stroke-miterlimit:4;stroke-dasharray:none;stroke-opacity:1" />
      </g>
      <g
         style="stroke:#ff0000;stroke-width:0.08999999;stroke-miterlimit:4;stroke-dasharray:none;stroke-opacity:1;fill:none"
         transform="translate(0,117.43279)"
         id="g2343">
        <path
           inkscape:connector-curvature="0"
           id="path2327"
           d="m 262.45764,393.22571 h 15.94489 c 1.96299,0 3.5433,1.58031 3.5433,3.54331 v 15.94488 c 0,1.96299 -1.58031,3.5433 -3.5433,3.5433 h -15.94489 c -1.96299,0 -3.5433,-1.58031 -3.5433,-3.5433 v -15.94488 c 0,-1.963 1.58031,-3.54331 3.5433,-3.54331 z"
           style="opacity:1;fill:none;fill-opacity:1;fill-rule:nonzero;stroke:#ff0000;stroke-width:0.08999999;stroke-linejoin:round;stroke-miterlimit:4;stroke-dasharray:none;stroke-opacity:1" />
        <path
           inkscape:connector-curvature="0"
           id="path2329"
           d="m 291.31912,393.22571 h 15.94489 c 1.96299,0 3.5433,1.58031 3.5433,3.54331 v 15.94488 c 0,1.96299 -1.58031,3.5433 -3.5433,3.5433 h -15.94489 c -1.96299,0 -3.5433,-1.58031 -3.5433,-3.5433 v -15.94488 c 0,-1.963 1.58031,-3.54331 3.5433,-3.54331 z"
           style="opacity:1;fill:none;fill-opacity:1;fill-rule:nonzero;stroke:#ff0000;stroke-width:0.08999999;stroke-linejoin:round;stroke-miterlimit:4;stroke-dasharray:none;stroke-opacity:1" />
        <path
           inkscape:connector-curvature="0"
           id="path2331"
           d="m 320.18064,393.22571 h 15.94488 c 1.96299,0 3.54331,1.58031 3.54331,3.54331 v 15.94488 c 0,1.96299 -1.58032,3.5433 -3.54331,3.5433 h -15.94488 c -1.963,0 -3.54331,-1.58031 -3.54331,-3.5433 v -15.94488 c 0,-1.963 1.58031,-3.54331 3.54331,-3.54331 z"
           style="opacity:1;fill:none;fill-opacity:1;fill-rule:nonzero;stroke:#ff0000;stroke-width:0.08999999;stroke-linejoin:round;stroke-miterlimit:4;stroke-dasharray:none;stroke-opacity:1" />
        <path
           inkscape:connector-curvature="0"
           id="path2333"
           d="m 349.04215,393.22571 h 15.94488 c 1.96299,0 3.54331,1.58031 3.54331,3.54331 v 15.94488 c 0,1.96299 -1.58032,3.5433 -3.54331,3.5433 h -15.94488 c -1.96299,0 -3.54331,-1.58031 -3.54331,-3.5433 v -15.94488 c 0,-1.963 1.58032,-3.54331 3.54331,-3.54331 z"
           style="opacity:1;fill:none;fill-opacity:1;fill-rule:nonzero;stroke:#ff0000;stroke-width:0.08999999;stroke-linejoin:round;stroke-miterlimit:4;stroke-dasharray:none;stroke-opacity:1" />
        <path
           inkscape:connector-curvature="0"
           id="path2335"
           d="m 377.90363,393.22571 h 15.94488 c 1.96299,0 3.54331,1.58031 3.54331,3.54331 v 15.94488 c 0,1.96299 -1.58032,3.5433 -3.54331,3.5433 h -15.94488 c -1.96299,0 -3.54331,-1.58031 -3.54331,-3.5433 v -15.94488 c 0,-1.963 1.58032,-3.54331 3.54331,-3.54331 z"
           style="opacity:1;fill:none;fill-opacity:1;fill-rule:nonzero;stroke:#ff0000;stroke-width:0.08999999;stroke-linejoin:round;stroke-miterlimit:4;stroke-dasharray:none;stroke-opacity:1" />
        <path
           inkscape:connector-curvature="0"
           id="path2337"
           d="m 406.76514,393.22571 h 15.94488 c 1.96299,0 3.54331,1.58031 3.54331,3.54331 v 15.94488 c 0,1.96299 -1.58032,3.5433 -3.54331,3.5433 h -15.94488 c -1.96299,0 -3.54331,-1.58031 -3.54331,-3.5433 v -15.94488 c 0,-1.963 1.58032,-3.54331 3.54331,-3.54331 z"
           style="opacity:1;fill:none;fill-opacity:1;fill-rule:nonzero;stroke:#ff0000;stroke-width:0.08999999;stroke-linejoin:round;stroke-miterlimit:4;stroke-dasharray:none;stroke-opacity:1" />
        <path
           inkscape:connector-curvature="0"
           id="path2339"
           d="m 435.62662,393.22571 h 15.94488 c 1.96299,0 3.54331,1.58031 3.54331,3.54331 v 15.94488 c 0,1.96299 -1.58032,3.5433 -3.54331,3.5433 h -15.94488 c -1.96299,0 -3.54331,-1.58031 -3.54331,-3.5433 v -15.94488 c 0,-1.963 1.58032,-3.54331 3.54331,-3.54331 z"
           style="opacity:1;fill:none;fill-opacity:1;fill-rule:nonzero;stroke:#ff0000;stroke-width:0.08999999;stroke-linejoin:round;stroke-miterlimit:4;stroke-dasharray:none;stroke-opacity:1" />
        <path
           inkscape:connector-curvature="0"
           id="path2341"
           d="m 464.48813,393.22571 h 15.94488 c 1.963,0 3.54331,1.58031 3.54331,3.54331 v 15.94488 c 0,1.96299 -1.58031,3.5433 -3.54331,3.5433 h -15.94488 c -1.96299,0 -3.54331,-1.58031 -3.54331,-3.5433 v -15.94488 c 0,-1.963 1.58032,-3.54331 3.54331,-3.54331 z"
           style="opacity:1;fill:none;fill-opacity:1;fill-rule:nonzero;stroke:#ff0000;stroke-width:0.08999999;stroke-linejoin:round;stroke-miterlimit:4;stroke-dasharray:none;stroke-opacity:1" />
      </g>
      <g
         style="stroke:#ff0000;stroke-width:0.08999999;stroke-miterlimit:4;stroke-dasharray:none;stroke-opacity:1;fill:none"
         id="g2361"
         transform="translate(0,146.79099)">
        <path
           inkscape:connector-curvature="0"
           id="path2345"
           d="m 262.45764,393.22571 h 15.94489 c 1.96299,0 3.5433,1.58031 3.5433,3.54331 v 15.94488 c 0,1.96299 -1.58031,3.5433 -3.5433,3.5433 h -15.94489 c -1.96299,0 -3.5433,-1.58031 -3.5433,-3.5433 v -15.94488 c 0,-1.963 1.58031,-3.54331 3.5433,-3.54331 z"
           style="opacity:1;fill:none;fill-opacity:1;fill-rule:nonzero;stroke:#ff0000;stroke-width:0.08999999;stroke-linejoin:round;stroke-miterlimit:4;stroke-dasharray:none;stroke-opacity:1" />
        <path
           inkscape:connector-curvature="0"
           id="path2347"
           d="m 291.31912,393.22571 h 15.94489 c 1.96299,0 3.5433,1.58031 3.5433,3.54331 v 15.94488 c 0,1.96299 -1.58031,3.5433 -3.5433,3.5433 h -15.94489 c -1.96299,0 -3.5433,-1.58031 -3.5433,-3.5433 v -15.94488 c 0,-1.963 1.58031,-3.54331 3.5433,-3.54331 z"
           style="opacity:1;fill:none;fill-opacity:1;fill-rule:nonzero;stroke:#ff0000;stroke-width:0.08999999;stroke-linejoin:round;stroke-miterlimit:4;stroke-dasharray:none;stroke-opacity:1" />
        <path
           inkscape:connector-curvature="0"
           id="path2349"
           d="m 320.18064,393.22571 h 15.94488 c 1.96299,0 3.54331,1.58031 3.54331,3.54331 v 15.94488 c 0,1.96299 -1.58032,3.5433 -3.54331,3.5433 h -15.94488 c -1.963,0 -3.54331,-1.58031 -3.54331,-3.5433 v -15.94488 c 0,-1.963 1.58031,-3.54331 3.54331,-3.54331 z"
           style="opacity:1;fill:none;fill-opacity:1;fill-rule:nonzero;stroke:#ff0000;stroke-width:0.08999999;stroke-linejoin:round;stroke-miterlimit:4;stroke-dasharray:none;stroke-opacity:1" />
        <path
           inkscape:connector-curvature="0"
           id="path2351"
           d="m 349.04215,393.22571 h 15.94488 c 1.96299,0 3.54331,1.58031 3.54331,3.54331 v 15.94488 c 0,1.96299 -1.58032,3.5433 -3.54331,3.5433 h -15.94488 c -1.96299,0 -3.54331,-1.58031 -3.54331,-3.5433 v -15.94488 c 0,-1.963 1.58032,-3.54331 3.54331,-3.54331 z"
           style="opacity:1;fill:none;fill-opacity:1;fill-rule:nonzero;stroke:#ff0000;stroke-width:0.08999999;stroke-linejoin:round;stroke-miterlimit:4;stroke-dasharray:none;stroke-opacity:1" />
        <path
           inkscape:connector-curvature="0"
           id="path2353"
           d="m 377.90363,393.22571 h 15.94488 c 1.96299,0 3.54331,1.58031 3.54331,3.54331 v 15.94488 c 0,1.96299 -1.58032,3.5433 -3.54331,3.5433 h -15.94488 c -1.96299,0 -3.54331,-1.58031 -3.54331,-3.5433 v -15.94488 c 0,-1.963 1.58032,-3.54331 3.54331,-3.54331 z"
           style="opacity:1;fill:none;fill-opacity:1;fill-rule:nonzero;stroke:#ff0000;stroke-width:0.08999999;stroke-linejoin:round;stroke-miterlimit:4;stroke-dasharray:none;stroke-opacity:1" />
        <path
           inkscape:connector-curvature="0"
           id="path2355"
           d="m 406.76514,393.22571 h 15.94488 c 1.96299,0 3.54331,1.58031 3.54331,3.54331 v 15.94488 c 0,1.96299 -1.58032,3.5433 -3.54331,3.5433 h -15.94488 c -1.96299,0 -3.54331,-1.58031 -3.54331,-3.5433 v -15.94488 c 0,-1.963 1.58032,-3.54331 3.54331,-3.54331 z"
           style="opacity:1;fill:none;fill-opacity:1;fill-rule:nonzero;stroke:#ff0000;stroke-width:0.08999999;stroke-linejoin:round;stroke-miterlimit:4;stroke-dasharray:none;stroke-opacity:1" />
        <path
           inkscape:connector-curvature="0"
           id="path2357"
           d="m 435.62662,393.22571 h 15.94488 c 1.96299,0 3.54331,1.58031 3.54331,3.54331 v 15.94488 c 0,1.96299 -1.58032,3.5433 -3.54331,3.5433 h -15.94488 c -1.96299,0 -3.54331,-1.58031 -3.54331,-3.5433 v -15.94488 c 0,-1.963 1.58032,-3.54331 3.54331,-3.54331 z"
           style="opacity:1;fill:none;fill-opacity:1;fill-rule:nonzero;stroke:#ff0000;stroke-width:0.08999999;stroke-linejoin:round;stroke-miterlimit:4;stroke-dasharray:none;stroke-opacity:1" />
        <path
           inkscape:connector-curvature="0"
           id="path2359"
           d="m 464.48813,393.22571 h 15.94488 c 1.963,0 3.54331,1.58031 3.54331,3.54331 v 15.94488 c 0,1.96299 -1.58031,3.5433 -3.54331,3.5433 h -15.94488 c -1.96299,0 -3.54331,-1.58031 -3.54331,-3.5433 v -15.94488 c 0,-1.963 1.58032,-3.54331 3.54331,-3.54331 z"
           style="opacity:1;fill:none;fill-opacity:1;fill-rule:nonzero;stroke:#ff0000;stroke-width:0.08999999;stroke-linejoin:round;stroke-miterlimit:4;stroke-dasharray:none;stroke-opacity:1" />
      </g>
      <g
         style="stroke:#ff0000;stroke-width:0.08999999;stroke-miterlimit:4;stroke-dasharray:none;stroke-opacity:1;fill:none"
         transform="translate(0,176.14919)"
         id="g2379">
        <path
           inkscape:connector-curvature="0"
           id="path2363"
           d="m 262.45764,393.22571 h 15.94489 c 1.96299,0 3.5433,1.58031 3.5433,3.54331 v 15.94488 c 0,1.96299 -1.58031,3.5433 -3.5433,3.5433 h -15.94489 c -1.96299,0 -3.5433,-1.58031 -3.5433,-3.5433 v -15.94488 c 0,-1.963 1.58031,-3.54331 3.5433,-3.54331 z"
           style="opacity:1;fill:none;fill-opacity:1;fill-rule:nonzero;stroke:#ff0000;stroke-width:0.08999999;stroke-linejoin:round;stroke-miterlimit:4;stroke-dasharray:none;stroke-opacity:1" />
        <path
           inkscape:connector-curvature="0"
           id="path2365"
           d="m 291.31912,393.22571 h 15.94489 c 1.96299,0 3.5433,1.58031 3.5433,3.54331 v 15.94488 c 0,1.96299 -1.58031,3.5433 -3.5433,3.5433 h -15.94489 c -1.96299,0 -3.5433,-1.58031 -3.5433,-3.5433 v -15.94488 c 0,-1.963 1.58031,-3.54331 3.5433,-3.54331 z"
           style="opacity:1;fill:none;fill-opacity:1;fill-rule:nonzero;stroke:#ff0000;stroke-width:0.08999999;stroke-linejoin:round;stroke-miterlimit:4;stroke-dasharray:none;stroke-opacity:1" />
        <path
           inkscape:connector-curvature="0"
           id="path2367"
           d="m 320.18064,393.22571 h 15.94488 c 1.96299,0 3.54331,1.58031 3.54331,3.54331 v 15.94488 c 0,1.96299 -1.58032,3.5433 -3.54331,3.5433 h -15.94488 c -1.963,0 -3.54331,-1.58031 -3.54331,-3.5433 v -15.94488 c 0,-1.963 1.58031,-3.54331 3.54331,-3.54331 z"
           style="opacity:1;fill:none;fill-opacity:1;fill-rule:nonzero;stroke:#ff0000;stroke-width:0.08999999;stroke-linejoin:round;stroke-miterlimit:4;stroke-dasharray:none;stroke-opacity:1" />
        <path
           inkscape:connector-curvature="0"
           id="path2369"
           d="m 349.04215,393.22571 h 15.94488 c 1.96299,0 3.54331,1.58031 3.54331,3.54331 v 15.94488 c 0,1.96299 -1.58032,3.5433 -3.54331,3.5433 h -15.94488 c -1.96299,0 -3.54331,-1.58031 -3.54331,-3.5433 v -15.94488 c 0,-1.963 1.58032,-3.54331 3.54331,-3.54331 z"
           style="opacity:1;fill:none;fill-opacity:1;fill-rule:nonzero;stroke:#ff0000;stroke-width:0.08999999;stroke-linejoin:round;stroke-miterlimit:4;stroke-dasharray:none;stroke-opacity:1" />
        <path
           inkscape:connector-curvature="0"
           id="path2371"
           d="m 377.90363,393.22571 h 15.94488 c 1.96299,0 3.54331,1.58031 3.54331,3.54331 v 15.94488 c 0,1.96299 -1.58032,3.5433 -3.54331,3.5433 h -15.94488 c -1.96299,0 -3.54331,-1.58031 -3.54331,-3.5433 v -15.94488 c 0,-1.963 1.58032,-3.54331 3.54331,-3.54331 z"
           style="opacity:1;fill:none;fill-opacity:1;fill-rule:nonzero;stroke:#ff0000;stroke-width:0.08999999;stroke-linejoin:round;stroke-miterlimit:4;stroke-dasharray:none;stroke-opacity:1" />
        <path
           inkscape:connector-curvature="0"
           id="path2373"
           d="m 406.76514,393.22571 h 15.94488 c 1.96299,0 3.54331,1.58031 3.54331,3.54331 v 15.94488 c 0,1.96299 -1.58032,3.5433 -3.54331,3.5433 h -15.94488 c -1.96299,0 -3.54331,-1.58031 -3.54331,-3.5433 v -15.94488 c 0,-1.963 1.58032,-3.54331 3.54331,-3.54331 z"
           style="opacity:1;fill:none;fill-opacity:1;fill-rule:nonzero;stroke:#ff0000;stroke-width:0.08999999;stroke-linejoin:round;stroke-miterlimit:4;stroke-dasharray:none;stroke-opacity:1" />
        <path
           inkscape:connector-curvature="0"
           id="path2375"
           d="m 435.62662,393.22571 h 15.94488 c 1.96299,0 3.54331,1.58031 3.54331,3.54331 v 15.94488 c 0,1.96299 -1.58032,3.5433 -3.54331,3.5433 h -15.94488 c -1.96299,0 -3.54331,-1.58031 -3.54331,-3.5433 v -15.94488 c 0,-1.963 1.58032,-3.54331 3.54331,-3.54331 z"
           style="opacity:1;fill:none;fill-opacity:1;fill-rule:nonzero;stroke:#ff0000;stroke-width:0.08999999;stroke-linejoin:round;stroke-miterlimit:4;stroke-dasharray:none;stroke-opacity:1" />
        <path
           inkscape:connector-curvature="0"
           id="path2377"
           d="m 464.48813,393.22571 h 15.94488 c 1.963,0 3.54331,1.58031 3.54331,3.54331 v 15.94488 c 0,1.96299 -1.58031,3.5433 -3.54331,3.5433 h -15.94488 c -1.96299,0 -3.54331,-1.58031 -3.54331,-3.5433 v -15.94488 c 0,-1.963 1.58032,-3.54331 3.54331,-3.54331 z"
           style="opacity:1;fill:none;fill-opacity:1;fill-rule:nonzero;stroke:#ff0000;stroke-width:0.08999999;stroke-linejoin:round;stroke-miterlimit:4;stroke-dasharray:none;stroke-opacity:1" />
      </g>
      <g
         style="stroke:#ff0000;stroke-width:0.08999999;stroke-miterlimit:4;stroke-dasharray:none;stroke-opacity:1;fill:none"
         id="g2397"
         transform="translate(0,205.50739)">
        <path
           inkscape:connector-curvature="0"
           id="path2381"
           d="m 262.45764,393.22571 h 15.94489 c 1.96299,0 3.5433,1.58031 3.5433,3.54331 v 15.94488 c 0,1.96299 -1.58031,3.5433 -3.5433,3.5433 h -15.94489 c -1.96299,0 -3.5433,-1.58031 -3.5433,-3.5433 v -15.94488 c 0,-1.963 1.58031,-3.54331 3.5433,-3.54331 z"
           style="opacity:1;fill:none;fill-opacity:1;fill-rule:nonzero;stroke:#ff0000;stroke-width:0.08999999;stroke-linejoin:round;stroke-miterlimit:4;stroke-dasharray:none;stroke-opacity:1" />
        <path
           inkscape:connector-curvature="0"
           id="path2383"
           d="m 291.31912,393.22571 h 15.94489 c 1.96299,0 3.5433,1.58031 3.5433,3.54331 v 15.94488 c 0,1.96299 -1.58031,3.5433 -3.5433,3.5433 h -15.94489 c -1.96299,0 -3.5433,-1.58031 -3.5433,-3.5433 v -15.94488 c 0,-1.963 1.58031,-3.54331 3.5433,-3.54331 z"
           style="opacity:1;fill:none;fill-opacity:1;fill-rule:nonzero;stroke:#ff0000;stroke-width:0.08999999;stroke-linejoin:round;stroke-miterlimit:4;stroke-dasharray:none;stroke-opacity:1" />
        <path
           inkscape:connector-curvature="0"
           id="path2385"
           d="m 320.18064,393.22571 h 15.94488 c 1.96299,0 3.54331,1.58031 3.54331,3.54331 v 15.94488 c 0,1.96299 -1.58032,3.5433 -3.54331,3.5433 h -15.94488 c -1.963,0 -3.54331,-1.58031 -3.54331,-3.5433 v -15.94488 c 0,-1.963 1.58031,-3.54331 3.54331,-3.54331 z"
           style="opacity:1;fill:none;fill-opacity:1;fill-rule:nonzero;stroke:#ff0000;stroke-width:0.08999999;stroke-linejoin:round;stroke-miterlimit:4;stroke-dasharray:none;stroke-opacity:1" />
        <path
           inkscape:connector-curvature="0"
           id="path2387"
           d="m 349.04215,393.22571 h 15.94488 c 1.96299,0 3.54331,1.58031 3.54331,3.54331 v 15.94488 c 0,1.96299 -1.58032,3.5433 -3.54331,3.5433 h -15.94488 c -1.96299,0 -3.54331,-1.58031 -3.54331,-3.5433 v -15.94488 c 0,-1.963 1.58032,-3.54331 3.54331,-3.54331 z"
           style="opacity:1;fill:none;fill-opacity:1;fill-rule:nonzero;stroke:#ff0000;stroke-width:0.08999999;stroke-linejoin:round;stroke-miterlimit:4;stroke-dasharray:none;stroke-opacity:1" />
        <path
           inkscape:connector-curvature="0"
           id="path2389"
           d="m 377.90363,393.22571 h 15.94488 c 1.96299,0 3.54331,1.58031 3.54331,3.54331 v 15.94488 c 0,1.96299 -1.58032,3.5433 -3.54331,3.5433 h -15.94488 c -1.96299,0 -3.54331,-1.58031 -3.54331,-3.5433 v -15.94488 c 0,-1.963 1.58032,-3.54331 3.54331,-3.54331 z"
           style="opacity:1;fill:none;fill-opacity:1;fill-rule:nonzero;stroke:#ff0000;stroke-width:0.08999999;stroke-linejoin:round;stroke-miterlimit:4;stroke-dasharray:none;stroke-opacity:1" />
        <path
           inkscape:connector-curvature="0"
           id="path2391"
           d="m 406.76514,393.22571 h 15.94488 c 1.96299,0 3.54331,1.58031 3.54331,3.54331 v 15.94488 c 0,1.96299 -1.58032,3.5433 -3.54331,3.5433 h -15.94488 c -1.96299,0 -3.54331,-1.58031 -3.54331,-3.5433 v -15.94488 c 0,-1.963 1.58032,-3.54331 3.54331,-3.54331 z"
           style="opacity:1;fill:none;fill-opacity:1;fill-rule:nonzero;stroke:#ff0000;stroke-width:0.08999999;stroke-linejoin:round;stroke-miterlimit:4;stroke-dasharray:none;stroke-opacity:1" />
        <path
           inkscape:connector-curvature="0"
           id="path2393"
           d="m 435.62662,393.22571 h 15.94488 c 1.96299,0 3.54331,1.58031 3.54331,3.54331 v 15.94488 c 0,1.96299 -1.58032,3.5433 -3.54331,3.5433 h -15.94488 c -1.96299,0 -3.54331,-1.58031 -3.54331,-3.5433 v -15.94488 c 0,-1.963 1.58032,-3.54331 3.54331,-3.54331 z"
           style="opacity:1;fill:none;fill-opacity:1;fill-rule:nonzero;stroke:#ff0000;stroke-width:0.08999999;stroke-linejoin:round;stroke-miterlimit:4;stroke-dasharray:none;stroke-opacity:1" />
        <path
           inkscape:connector-curvature="0"
           id="path2395"
           d="m 464.48813,393.22571 h 15.94488 c 1.963,0 3.54331,1.58031 3.54331,3.54331 v 15.94488 c 0,1.96299 -1.58031,3.5433 -3.54331,3.5433 h -15.94488 c -1.96299,0 -3.54331,-1.58031 -3.54331,-3.5433 v -15.94488 c 0,-1.963 1.58032,-3.54331 3.54331,-3.54331 z"
           style="opacity:1;fill:none;fill-opacity:1;fill-rule:nonzero;stroke:#ff0000;stroke-width:0.08999999;stroke-linejoin:round;stroke-miterlimit:4;stroke-dasharray:none;stroke-opacity:1" />
      </g>
    </g>
    <g
       transform="matrix(0.28222223,0,0,0.28222223,-271.61807,-96.923645)"
       id="g2403"
       style="fill:none;stroke:#ff0000;stroke-opacity:1;stroke-width:0.09;stroke-miterlimit:4;stroke-dasharray:none">
      <path
         style="opacity:1;fill:none;fill-opacity:1;fill-rule:nonzero;stroke:#ff0000;stroke-width:0.09;stroke-linejoin:miter;stroke-miterlimit:4;stroke-dasharray:none;stroke-opacity:1"
         d="M 223.83967,112.8166 H 542.7373 c 19.62992,0 35.43306,15.80315 35.43306,35.43306 v 318.89763 c 0,19.62992 -15.80314,35.43307 -35.43306,35.43307 H 223.83967 c -19.62992,0 -35.43307,-15.80315 -35.43307,-35.43307 V 148.24966 c 0,-19.62991 15.80315,-35.43306 35.43307,-35.43306 z"
         id="rect2401" />
    </g>
    <path
       style="opacity:1;fill:none;fill-opacity:1;fill-rule:nonzero;stroke:#ff0000;stroke-width:0.0254;stroke-linejoin:miter;stroke-miterlimit:4;stroke-dasharray:none;stroke-opacity:1"
       d="m -209.44554,-57.584293 a 1.5,1.5 0 0 1 -1.5,1.5 1.5,1.5 0 0 1 -1.5,-1.5 1.5,1.5 0 0 1 1.5,-1.5 1.5,1.5 0 0 1 1.5,1.5 z"
       id="circle2405" />
    <path
       style="opacity:1;fill:none;fill-opacity:1;fill-rule:nonzero;stroke:#ff0000;stroke-width:0.0254;stroke-linejoin:miter;stroke-miterlimit:4;stroke-dasharray:none;stroke-opacity:1"
       d="m -114.44553,-57.584293 a 1.5,1.5 0 0 1 -1.5,1.5 1.5,1.5 0 0 1 -1.5,-1.5 1.5,1.5 0 0 1 1.5,-1.5 1.5,1.5 0 0 1 1.5,1.5 z"
       id="circle2407" />
    <path
       style="opacity:1;fill:none;fill-opacity:1;fill-rule:nonzero;stroke:#ff0000;stroke-width:0.0254;stroke-linejoin:miter;stroke-miterlimit:4;stroke-dasharray:none;stroke-opacity:1"
       d="m -114.44553,37.41571 a 1.5,1.5 0 0 1 -1.5,1.5 1.5,1.5 0 0 1 -1.5,-1.5 1.5,1.5 0 0 1 1.5,-1.5 1.5,1.5 0 0 1 1.5,1.5 z"
       id="circle2409" />
    <path
       style="opacity:1;fill:none;fill-opacity:1;fill-rule:nonzero;stroke:#ff0000;stroke-width:0.0254;stroke-linejoin:miter;stroke-miterlimit:4;stroke-dasharray:none;stroke-opacity:1"
       d="m -209.44554,37.41571 a 1.5,1.5 0 0 1 -1.5,1.5 1.5,1.5 0 0 1 -1.5,-1.5 1.5,1.5 0 0 1 1.5,-1.5 1.5,1.5 0 0 1 1.5,1.5 z"
       id="circle2411" />
    <path
       transform="matrix(0.09531009,0,0,0.09614074,-190.08753,-47.506078)"
       style="opacity:1;fill:none;fill-opacity:1;fill-rule:nonzero;stroke:#ff0000;stroke-width:0.26534478;stroke-linejoin:miter;stroke-miterlimit:4;stroke-dasharray:none;stroke-opacity:1"
       inkscape:transform-center-x="9.0366828e-06"
       inkscape:transform-center-y="2.6280513e-06"
       d="M -5.9963399,109.56501 -119.91545,138.12869 -201.61188,53.753693 -169.3892,-59.184994 -55.470092,-87.748679 26.22634,-3.3736762 Z"
       id="path2431" />
    <path
       transform="matrix(0.08317318,0.04739072,-0.04843746,0.08279662,-189.79325,26.989774)"
       style="opacity:1;fill:none;fill-opacity:1;fill-rule:nonzero;stroke:#ff0000;stroke-width:0.26507355;stroke-linejoin:miter;stroke-miterlimit:4;stroke-dasharray:none;stroke-opacity:1"
       inkscape:transform-center-x="1.2765172e-05"
       inkscape:transform-center-y="-4.1988809e-06"
       d="M -5.9963399,109.56501 -119.91545,138.12869 -201.61188,53.753693 -169.3892,-59.184994 -55.470092,-87.748679 26.22634,-3.3736762 Z"
       id="path2452" />
    <path
       transform="matrix(0.09531009,0,0,0.09614074,-120.08753,22.493921)"
       style="opacity:1;fill:none;fill-opacity:1;fill-rule:nonzero;stroke:#ff0000;stroke-width:0.26534478;stroke-linejoin:miter;stroke-miterlimit:4;stroke-dasharray:none;stroke-opacity:1"
       inkscape:transform-center-x="9.0366828e-06"
       inkscape:transform-center-y="2.6280513e-06"
       d="M -5.9963399,109.56501 -119.91545,138.12869 -201.61188,53.753693 -169.3892,-59.184994 -55.470092,-87.748679 26.22634,-3.3736762 Z"
       id="path2818" />
    <path
       transform="matrix(0.08317318,0.04739072,-0.04843746,0.08279662,-119.93171,-43.014117)"
       style="opacity:1;fill:none;fill-opacity:1;fill-rule:nonzero;stroke:#ff0000;stroke-width:0.26507355;stroke-linejoin:miter;stroke-miterlimit:4;stroke-dasharray:none;stroke-opacity:1"
       inkscape:transform-center-x="1.2765172e-05"
       inkscape:transform-center-y="-4.1988809e-06"
       d="M -5.9963399,109.56501 -119.91545,138.12869 -201.61188,53.753693 -169.3892,-59.184994 -55.470092,-87.748679 26.22634,-3.3736762 Z"
       id="path2820" />
    <path
       transform="rotate(-45)"
       style="opacity:1;fill:none;fill-opacity:1;fill-rule:nonzero;stroke:#ff0000;stroke-width:0.0254;stroke-linejoin:miter;stroke-miterlimit:4;stroke-dasharray:none;stroke-opacity:1"
       d="M -59.171932,-73.433281 H 6.3280678 V -7.9332809 H -59.171932 Z"
       id="rect2984" />
    <g
       id="g2970"
       transform="matrix(0.28222223,0,0,0.28222223,-155.62309,-96.923645)"
       style="fill:none;stroke:#ff0000;stroke-opacity:1;stroke-width:0.09;stroke-miterlimit:4;stroke-dasharray:none">
      <path
         style="opacity:1;fill:none;fill-opacity:1;fill-rule:nonzero;stroke:#ff0000;stroke-width:0.09;stroke-linejoin:miter;stroke-miterlimit:4;stroke-dasharray:none;stroke-opacity:1"
         d="M 223.83967,112.8166 H 542.7373 c 19.62992,0 35.43306,15.80315 35.43306,35.43306 v 318.89763 c 0,19.62992 -15.80314,35.43307 -35.43306,35.43307 H 223.83967 c -19.62992,0 -35.43307,-15.80315 -35.43307,-35.43307 V 148.24966 c 0,-19.62991 15.80315,-35.43306 35.43307,-35.43306 z"
         id="rect2968" />
    </g>
    <path
       style="opacity:1;fill:none;fill-opacity:1;fill-rule:nonzero;stroke:#ff0000;stroke-width:0.0254;stroke-linejoin:miter;stroke-miterlimit:4;stroke-dasharray:none;stroke-opacity:1"
       d="m -93.450577,-57.584293 a 1.5,1.5 0 0 1 -1.5,1.5 1.5,1.5 0 0 1 -1.5,-1.5 1.5,1.5 0 0 1 1.5,-1.5 1.5,1.5 0 0 1 1.5,1.5 z"
       id="circle2972" />
    <path
       style="opacity:1;fill:none;fill-opacity:1;fill-rule:nonzero;stroke:#ff0000;stroke-width:0.0254;stroke-linejoin:miter;stroke-miterlimit:4;stroke-dasharray:none;stroke-opacity:1"
       d="m 1.5494573,-57.584293 a 1.5,1.5 0 0 1 -1.49999997,1.5 1.5,1.5 0 0 1 -1.50000003,-1.5 1.5,1.5 0 0 1 1.50000003,-1.5 1.5,1.5 0 0 1 1.49999997,1.5 z"
       id="circle2974" />
    <path
       style="opacity:1;fill:none;fill-opacity:1;fill-rule:nonzero;stroke:#ff0000;stroke-width:0.0254;stroke-linejoin:miter;stroke-miterlimit:4;stroke-dasharray:none;stroke-opacity:1"
       d="m 1.5494573,37.41571 a 1.5,1.5 0 0 1 -1.49999997,1.5 1.5,1.5 0 0 1 -1.50000003,-1.5 1.5,1.5 0 0 1 1.50000003,-1.5 1.5,1.5 0 0 1 1.49999997,1.5 z"
       id="circle2976" />
    <path
       style="opacity:1;fill:none;fill-opacity:1;fill-rule:nonzero;stroke:#ff0000;stroke-width:0.0254;stroke-linejoin:miter;stroke-miterlimit:4;stroke-dasharray:none;stroke-opacity:1"
       d="m -93.450577,37.41571 a 1.5,1.5 0 0 1 -1.5,1.5 1.5,1.5 0 0 1 -1.5,-1.5 1.5,1.5 0 0 1 1.5,-1.5 1.5,1.5 0 0 1 1.5,1.5 z"
       id="circle2978" />
    <path
       style="opacity:1;fill:none;fill-opacity:1;fill-rule:nonzero;stroke:#ff0000;stroke-width:0.0254;stroke-linejoin:miter;stroke-miterlimit:4;stroke-dasharray:none;stroke-opacity:1"
       d="m -75.350577,-45.084293 a 7.0999994,7.0999994 0 0 1 -7.1,7.099999 7.0999994,7.0999994 0 0 1 -7.099999,-7.099999 7.0999994,7.0999994 0 0 1 7.099999,-7.1 7.0999994,7.0999994 0 0 1 7.1,7.1 z"
       id="path4823" />
    <path
       style="opacity:1;fill:none;fill-opacity:1;fill-rule:nonzero;stroke:#ff0000;stroke-width:0.0254;stroke-linejoin:miter;stroke-miterlimit:4;stroke-dasharray:none;stroke-opacity:1"
       d="m -5.350543,-45.084293 a 7.0999994,7.0999994 0 0 1 -7.099999,7.099999 7.0999994,7.0999994 0 0 1 -7.1,-7.099999 7.0999994,7.0999994 0 0 1 7.1,-7.1 7.0999994,7.0999994 0 0 1 7.099999,7.1 z"
       id="circle4825" />
    <path
       style="opacity:1;fill:none;fill-opacity:1;fill-rule:nonzero;stroke:#ff0000;stroke-width:0.0254;stroke-linejoin:miter;stroke-miterlimit:4;stroke-dasharray:none;stroke-opacity:1"
       d="m -5.350543,24.915703 a 7.0999994,7.0999994 0 0 1 -7.099999,7.099999 7.0999994,7.0999994 0 0 1 -7.1,-7.099999 7.0999994,7.0999994 0 0 1 7.1,-7.1 7.0999994,7.0999994 0 0 1 7.099999,7.1 z"
       id="circle4827" />
    <path
       style="opacity:1;fill:none;fill-opacity:1;fill-rule:nonzero;stroke:#ff0000;stroke-width:0.0254;stroke-linejoin:miter;stroke-miterlimit:4;stroke-dasharray:none;stroke-opacity:1"
       d="m -75.350577,24.915703 a 7.0999994,7.0999994 0 0 1 -7.1,7.099999 7.0999994,7.0999994 0 0 1 -7.099999,-7.099999 7.0999994,7.0999994 0 0 1 7.099999,-7.1 7.0999994,7.0999994 0 0 1 7.1,7.1 z"
       id="circle4829" />
    <g
       transform="matrix(0.28222223,0,0,0.28222223,-40.105573,-96.007645)"
       id="g5089"
       style="fill:none;stroke:#ff0000;stroke-opacity:1;stroke-width:0.09;stroke-miterlimit:4;stroke-dasharray:none">
      <path
         style="opacity:1;fill:none;fill-opacity:1;fill-rule:nonzero;stroke:#ff0000;stroke-width:0.09;stroke-linejoin:miter;stroke-miterlimit:4;stroke-dasharray:none;stroke-opacity:1"
         d="M 223.83967,112.8166 H 542.7373 c 19.62992,0 35.43306,15.80315 35.43306,35.43306 v 318.89763 c 0,19.62992 -15.80314,35.43307 -35.43306,35.43307 H 223.83967 c -19.62992,0 -35.43307,-15.80315 -35.43307,-35.43307 V 148.24966 c 0,-19.62991 15.80315,-35.43306 35.43307,-35.43306 z"
         id="rect5087" />
    </g>
    <path
       style="opacity:1;fill:none;fill-opacity:1;fill-rule:nonzero;stroke:#ff0000;stroke-width:0.0254;stroke-linejoin:miter;stroke-miterlimit:4;stroke-dasharray:none;stroke-opacity:1"
       d="m 22.066952,-56.668297 a 1.5,1.5 0 0 1 -1.5,1.5 1.5,1.5 0 0 1 -1.5,-1.5 1.5,1.5 0 0 1 1.5,-1.5 1.5,1.5 0 0 1 1.5,1.5 z"
       id="circle5091" />
    <path
       style="opacity:1;fill:none;fill-opacity:1;fill-rule:nonzero;stroke:#ff0000;stroke-width:0.0254;stroke-linejoin:miter;stroke-miterlimit:4;stroke-dasharray:none;stroke-opacity:1"
       d="m 117.06698,-56.668297 a 1.5,1.5 0 0 1 -1.5,1.5 1.5,1.5 0 0 1 -1.5,-1.5 1.5,1.5 0 0 1 1.5,-1.5 1.5,1.5 0 0 1 1.5,1.5 z"
       id="circle5093" />
    <path
       style="opacity:1;fill:none;fill-opacity:1;fill-rule:nonzero;stroke:#ff0000;stroke-width:0.0254;stroke-linejoin:miter;stroke-miterlimit:4;stroke-dasharray:none;stroke-opacity:1"
       d="m 117.06698,38.331711 a 1.5,1.5 0 0 1 -1.5,1.5 1.5,1.5 0 0 1 -1.5,-1.5 1.5,1.5 0 0 1 1.5,-1.5 1.5,1.5 0 0 1 1.5,1.5 z"
       id="circle5095" />
    <path
       style="opacity:1;fill:none;fill-opacity:1;fill-rule:nonzero;stroke:#ff0000;stroke-width:0.0254;stroke-linejoin:miter;stroke-miterlimit:4;stroke-dasharray:none;stroke-opacity:1"
       d="m 22.066952,38.331711 a 1.5,1.5 0 0 1 -1.5,1.5 1.5,1.5 0 0 1 -1.5,-1.5 1.5,1.5 0 0 1 1.5,-1.5 1.5,1.5 0 0 1 1.5,1.5 z"
       id="circle5097" />
    <path
       style="opacity:1;fill:none;fill-opacity:1;fill-rule:nonzero;stroke:#ff0000;stroke-width:0.0254;stroke-linejoin:miter;stroke-miterlimit:4;stroke-dasharray:none;stroke-opacity:1"
       d="m 40.166947,-44.168282 a 7.0999994,7.0999994 0 0 1 -7.099999,7.1 7.0999994,7.0999994 0 0 1 -7.099999,-7.1 7.0999994,7.0999994 0 0 1 7.099999,-7.099999 7.0999994,7.0999994 0 0 1 7.099999,7.099999 z"
       id="circle5099" />
    <path
       style="opacity:1;fill:none;fill-opacity:1;fill-rule:nonzero;stroke:#ff0000;stroke-width:0.0254;stroke-linejoin:miter;stroke-miterlimit:4;stroke-dasharray:none;stroke-opacity:1"
       d="m 110.16695,-44.168282 a 7.0999994,7.0999994 0 0 1 -7.1,7.1 7.0999994,7.0999994 0 0 1 -7.100001,-7.1 7.0999994,7.0999994 0 0 1 7.100001,-7.099999 7.0999994,7.0999994 0 0 1 7.1,7.099999 z"
       id="circle5101" />
    <path
       style="opacity:1;fill:none;fill-opacity:1;fill-rule:nonzero;stroke:#ff0000;stroke-width:0.0254;stroke-linejoin:miter;stroke-miterlimit:4;stroke-dasharray:none;stroke-opacity:1"
       d="m 110.16695,25.831696 a 7.0999994,7.0999994 0 0 1 -7.1,7.099999 7.0999994,7.0999994 0 0 1 -7.100001,-7.099999 7.0999994,7.0999994 0 0 1 7.100001,-7.1 7.0999994,7.0999994 0 0 1 7.1,7.1 z"
       id="circle5103" />
    <path
       style="opacity:1;fill:none;fill-opacity:1;fill-rule:nonzero;stroke:#ff0000;stroke-width:0.0254;stroke-linejoin:miter;stroke-miterlimit:4;stroke-dasharray:none;stroke-opacity:1"
       d="m 40.166947,25.831696 a 7.0999994,7.0999994 0 0 1 -7.099999,7.099999 7.0999994,7.0999994 0 0 1 -7.099999,-7.099999 7.0999994,7.0999994 0 0 1 7.099999,-7.1 7.0999994,7.0999994 0 0 1 7.099999,7.1 z"
       id="circle5105" />
    <path
       transform="rotate(-45)"
       style="opacity:1;fill:none;fill-opacity:1;fill-rule:nonzero;stroke:#ff0000;stroke-width:0.0254;stroke-linejoin:miter;stroke-miterlimit:4;stroke-dasharray:none;stroke-opacity:1"
       d="m 26.863588,8.8976536 h 15.000001 c 2.77,0 4.999999,2.2299994 4.999999,4.9999994 v 15.000001 c 0,2.77 -2.229999,5 -4.999999,5 H 26.863588 c -2.77,0 -5,-2.23 -5,-5 V 13.897653 c 0,-2.77 2.23,-4.9999994 5,-4.9999994 z"
       id="rect5107" />
    <path
       transform="rotate(-45)"
       style="opacity:1;fill:none;fill-opacity:1;fill-rule:nonzero;stroke:#ff0000;stroke-width:0.0254;stroke-linejoin:miter;stroke-miterlimit:4;stroke-dasharray:none;stroke-opacity:1"
       d="m 67.36359,49.397633 h 15.000001 c 2.769999,0 4.999999,2.229999 4.999999,4.999999 v 15.000001 c 0,2.77 -2.23,5 -4.999999,5 H 67.36359 c -2.77,0 -5,-2.23 -5,-5 V 54.397632 c 0,-2.77 2.23,-4.999999 5,-4.999999 z"
       id="rect5113" />
  </g>
</svg>
