G04 #@! TF.GenerationSoftware,KiCad,Pcbnew,5.1.5-52549c5~84~ubuntu18.04.1*
G04 #@! TF.CreationDate,2020-01-22T10:54:03-05:00*
G04 #@! TF.ProjectId,GeaiRareDit_PCB_Kicad5,47656169-5261-4726-9544-69745f504342,1.0*
G04 #@! TF.SameCoordinates,Original*
G04 #@! TF.FileFunction,Soldermask,Top*
G04 #@! TF.FilePolarity,Negative*
%FSLAX46Y46*%
G04 Gerber Fmt 4.6, Leading zero omitted, Abs format (unit mm)*
G04 Created by KiCad (PCBNEW 5.1.5-52549c5~84~ubuntu18.04.1) date 2020-01-22 10:54:03*
%MOMM*%
%LPD*%
G04 APERTURE LIST*
%ADD10C,0.100000*%
G04 APERTURE END LIST*
D10*
G36*
X146782578Y-140776565D02*
G01*
X146924385Y-140835304D01*
X146976761Y-140856999D01*
X147151520Y-140973769D01*
X147300140Y-141122389D01*
X147416910Y-141297148D01*
X147416911Y-141297150D01*
X147497344Y-141491331D01*
X147538347Y-141697470D01*
X147538347Y-141907654D01*
X147497344Y-142113793D01*
X147416911Y-142307974D01*
X147416910Y-142307976D01*
X147300140Y-142482735D01*
X147151520Y-142631355D01*
X146976761Y-142748125D01*
X146976760Y-142748126D01*
X146976759Y-142748126D01*
X146782578Y-142828559D01*
X146576439Y-142869562D01*
X146366255Y-142869562D01*
X146160116Y-142828559D01*
X145965935Y-142748126D01*
X145965934Y-142748126D01*
X145965933Y-142748125D01*
X145791174Y-142631355D01*
X145642554Y-142482735D01*
X145525784Y-142307976D01*
X145525783Y-142307974D01*
X145445350Y-142113793D01*
X145404347Y-141907654D01*
X145404347Y-141697470D01*
X145445350Y-141491331D01*
X145525783Y-141297150D01*
X145525784Y-141297148D01*
X145642554Y-141122389D01*
X145791174Y-140973769D01*
X145965933Y-140856999D01*
X146018309Y-140835304D01*
X146160116Y-140776565D01*
X146366255Y-140735562D01*
X146576439Y-140735562D01*
X146782578Y-140776565D01*
G37*
G36*
X148578630Y-138980514D02*
G01*
X148720437Y-139039253D01*
X148772813Y-139060948D01*
X148947572Y-139177718D01*
X149096192Y-139326338D01*
X149212962Y-139501097D01*
X149212963Y-139501099D01*
X149293396Y-139695280D01*
X149334399Y-139901419D01*
X149334399Y-140111603D01*
X149293396Y-140317742D01*
X149212963Y-140511923D01*
X149212962Y-140511925D01*
X149096192Y-140686684D01*
X148947572Y-140835304D01*
X148772813Y-140952074D01*
X148772812Y-140952075D01*
X148772811Y-140952075D01*
X148578630Y-141032508D01*
X148372491Y-141073511D01*
X148162307Y-141073511D01*
X147956168Y-141032508D01*
X147761987Y-140952075D01*
X147761986Y-140952075D01*
X147761985Y-140952074D01*
X147587226Y-140835304D01*
X147438606Y-140686684D01*
X147321836Y-140511925D01*
X147321835Y-140511923D01*
X147241402Y-140317742D01*
X147200399Y-140111603D01*
X147200399Y-139901419D01*
X147241402Y-139695280D01*
X147321835Y-139501099D01*
X147321836Y-139501097D01*
X147438606Y-139326338D01*
X147587226Y-139177718D01*
X147761985Y-139060948D01*
X147814361Y-139039253D01*
X147956168Y-138980514D01*
X148162307Y-138939511D01*
X148372491Y-138939511D01*
X148578630Y-138980514D01*
G37*
G36*
X150374681Y-137184463D02*
G01*
X150568862Y-137264896D01*
X150568864Y-137264897D01*
X150743623Y-137381667D01*
X150892243Y-137530287D01*
X151009013Y-137705046D01*
X151009014Y-137705048D01*
X151089447Y-137899229D01*
X151130450Y-138105368D01*
X151130450Y-138315552D01*
X151089447Y-138521691D01*
X151009014Y-138715872D01*
X151009013Y-138715874D01*
X150892243Y-138890633D01*
X150743623Y-139039253D01*
X150568864Y-139156023D01*
X150568863Y-139156024D01*
X150568862Y-139156024D01*
X150374681Y-139236457D01*
X150168542Y-139277460D01*
X149958358Y-139277460D01*
X149752219Y-139236457D01*
X149558038Y-139156024D01*
X149558037Y-139156024D01*
X149558036Y-139156023D01*
X149383277Y-139039253D01*
X149234657Y-138890633D01*
X149117887Y-138715874D01*
X149117886Y-138715872D01*
X149037453Y-138521691D01*
X148996450Y-138315552D01*
X148996450Y-138105368D01*
X149037453Y-137899229D01*
X149117886Y-137705048D01*
X149117887Y-137705046D01*
X149234657Y-137530287D01*
X149383277Y-137381667D01*
X149558036Y-137264897D01*
X149558038Y-137264896D01*
X149752219Y-137184463D01*
X149958358Y-137143460D01*
X150168542Y-137143460D01*
X150374681Y-137184463D01*
G37*
G36*
X195896012Y-130326927D02*
G01*
X196045312Y-130356624D01*
X196209284Y-130424544D01*
X196356854Y-130523147D01*
X196482353Y-130648646D01*
X196580956Y-130796216D01*
X196648876Y-130960188D01*
X196683500Y-131134259D01*
X196683500Y-131311741D01*
X196648876Y-131485812D01*
X196580956Y-131649784D01*
X196482353Y-131797354D01*
X196356854Y-131922853D01*
X196209284Y-132021456D01*
X196045312Y-132089376D01*
X195896012Y-132119073D01*
X195871242Y-132124000D01*
X195693758Y-132124000D01*
X195668988Y-132119073D01*
X195519688Y-132089376D01*
X195355716Y-132021456D01*
X195208146Y-131922853D01*
X195082647Y-131797354D01*
X194984044Y-131649784D01*
X194916124Y-131485812D01*
X194881500Y-131311741D01*
X194881500Y-131134259D01*
X194916124Y-130960188D01*
X194984044Y-130796216D01*
X195082647Y-130648646D01*
X195208146Y-130523147D01*
X195355716Y-130424544D01*
X195519688Y-130356624D01*
X195668988Y-130326927D01*
X195693758Y-130322000D01*
X195871242Y-130322000D01*
X195896012Y-130326927D01*
G37*
G36*
X106099961Y-130122978D02*
G01*
X106249261Y-130152675D01*
X106413233Y-130220595D01*
X106560803Y-130319198D01*
X106686302Y-130444697D01*
X106784905Y-130592267D01*
X106852825Y-130756239D01*
X106887449Y-130930310D01*
X106887449Y-131107792D01*
X106852825Y-131281863D01*
X106784905Y-131445835D01*
X106686302Y-131593405D01*
X106560803Y-131718904D01*
X106413233Y-131817507D01*
X106249261Y-131885427D01*
X106099961Y-131915124D01*
X106075191Y-131920051D01*
X105897707Y-131920051D01*
X105872937Y-131915124D01*
X105723637Y-131885427D01*
X105559665Y-131817507D01*
X105412095Y-131718904D01*
X105286596Y-131593405D01*
X105187993Y-131445835D01*
X105120073Y-131281863D01*
X105085449Y-131107792D01*
X105085449Y-130930310D01*
X105120073Y-130756239D01*
X105187993Y-130592267D01*
X105286596Y-130444697D01*
X105412095Y-130319198D01*
X105559665Y-130220595D01*
X105723637Y-130152675D01*
X105872937Y-130122978D01*
X105897707Y-130118051D01*
X106075191Y-130118051D01*
X106099961Y-130122978D01*
G37*
G36*
X195260655Y-129426949D02*
G01*
X193986449Y-130701155D01*
X192712243Y-129426949D01*
X193986449Y-128152743D01*
X195260655Y-129426949D01*
G37*
G36*
X109056706Y-129223000D02*
G01*
X107782500Y-130497206D01*
X106508294Y-129223000D01*
X107782500Y-127948794D01*
X109056706Y-129223000D01*
G37*
G36*
X165559219Y-102386520D02*
G01*
X165748380Y-102443901D01*
X165748383Y-102443902D01*
X165840833Y-102493318D01*
X165922712Y-102537083D01*
X166075515Y-102662485D01*
X166200917Y-102815288D01*
X166294099Y-102989619D01*
X166351480Y-103178780D01*
X166366000Y-103326206D01*
X166366000Y-103519793D01*
X166351480Y-103667219D01*
X166310239Y-103803172D01*
X166294098Y-103856383D01*
X166244682Y-103948833D01*
X166200917Y-104030712D01*
X166075515Y-104183515D01*
X165922712Y-104308917D01*
X165748381Y-104402099D01*
X165559220Y-104459480D01*
X165362500Y-104478855D01*
X165165781Y-104459480D01*
X164976620Y-104402099D01*
X164802288Y-104308917D01*
X164649485Y-104183515D01*
X164524083Y-104030712D01*
X164430901Y-103856381D01*
X164373520Y-103667220D01*
X164359000Y-103519794D01*
X164359000Y-103326207D01*
X164373520Y-103178781D01*
X164430901Y-102989620D01*
X164430902Y-102989617D01*
X164480318Y-102897167D01*
X164524083Y-102815288D01*
X164649485Y-102662485D01*
X164802288Y-102537083D01*
X164976619Y-102443901D01*
X165165780Y-102386520D01*
X165362500Y-102367145D01*
X165559219Y-102386520D01*
G37*
G36*
X163019219Y-102386520D02*
G01*
X163208380Y-102443901D01*
X163208383Y-102443902D01*
X163300833Y-102493318D01*
X163382712Y-102537083D01*
X163535515Y-102662485D01*
X163660917Y-102815288D01*
X163754099Y-102989619D01*
X163811480Y-103178780D01*
X163826000Y-103326206D01*
X163826000Y-103519793D01*
X163811480Y-103667219D01*
X163770239Y-103803172D01*
X163754098Y-103856383D01*
X163704682Y-103948833D01*
X163660917Y-104030712D01*
X163535515Y-104183515D01*
X163382712Y-104308917D01*
X163208381Y-104402099D01*
X163019220Y-104459480D01*
X162822500Y-104478855D01*
X162625781Y-104459480D01*
X162436620Y-104402099D01*
X162262288Y-104308917D01*
X162109485Y-104183515D01*
X161984083Y-104030712D01*
X161890901Y-103856381D01*
X161833520Y-103667220D01*
X161819000Y-103519794D01*
X161819000Y-103326207D01*
X161833520Y-103178781D01*
X161890901Y-102989620D01*
X161890902Y-102989617D01*
X161940318Y-102897167D01*
X161984083Y-102815288D01*
X162109485Y-102662485D01*
X162262288Y-102537083D01*
X162436619Y-102443901D01*
X162625780Y-102386520D01*
X162822500Y-102367145D01*
X163019219Y-102386520D01*
G37*
G36*
X161286000Y-104474000D02*
G01*
X159279000Y-104474000D01*
X159279000Y-102372000D01*
X161286000Y-102372000D01*
X161286000Y-104474000D01*
G37*
G36*
X154747403Y-101820075D02*
G01*
X154975071Y-101914378D01*
X155179966Y-102051285D01*
X155354215Y-102225534D01*
X155491122Y-102430429D01*
X155491123Y-102430431D01*
X155585425Y-102658097D01*
X155633500Y-102899786D01*
X155633500Y-103146214D01*
X155585425Y-103387903D01*
X155530795Y-103519793D01*
X155491122Y-103615571D01*
X155354215Y-103820466D01*
X155179966Y-103994715D01*
X154975071Y-104131622D01*
X154975070Y-104131623D01*
X154975069Y-104131623D01*
X154747403Y-104225925D01*
X154505714Y-104274000D01*
X154259286Y-104274000D01*
X154017597Y-104225925D01*
X153789931Y-104131623D01*
X153789930Y-104131623D01*
X153789929Y-104131622D01*
X153585034Y-103994715D01*
X153410785Y-103820466D01*
X153273878Y-103615571D01*
X153234206Y-103519793D01*
X153179575Y-103387903D01*
X153131500Y-103146214D01*
X153131500Y-102899786D01*
X153179575Y-102658097D01*
X153273877Y-102430431D01*
X153273878Y-102430429D01*
X153410785Y-102225534D01*
X153585034Y-102051285D01*
X153789929Y-101914378D01*
X154017597Y-101820075D01*
X154259286Y-101772000D01*
X154505714Y-101772000D01*
X154747403Y-101820075D01*
G37*
G36*
X150047403Y-101820075D02*
G01*
X150275071Y-101914378D01*
X150479966Y-102051285D01*
X150654215Y-102225534D01*
X150791122Y-102430429D01*
X150791123Y-102430431D01*
X150885425Y-102658097D01*
X150933500Y-102899786D01*
X150933500Y-103146214D01*
X150885425Y-103387903D01*
X150830795Y-103519793D01*
X150791122Y-103615571D01*
X150654215Y-103820466D01*
X150479966Y-103994715D01*
X150275071Y-104131622D01*
X150275070Y-104131623D01*
X150275069Y-104131623D01*
X150047403Y-104225925D01*
X149805714Y-104274000D01*
X149559286Y-104274000D01*
X149317597Y-104225925D01*
X149089931Y-104131623D01*
X149089930Y-104131623D01*
X149089929Y-104131622D01*
X148885034Y-103994715D01*
X148710785Y-103820466D01*
X148573878Y-103615571D01*
X148534206Y-103519793D01*
X148479575Y-103387903D01*
X148431500Y-103146214D01*
X148431500Y-102899786D01*
X148479575Y-102658097D01*
X148573877Y-102430431D01*
X148573878Y-102430429D01*
X148710785Y-102225534D01*
X148885034Y-102051285D01*
X149089929Y-101914378D01*
X149317597Y-101820075D01*
X149559286Y-101772000D01*
X149805714Y-101772000D01*
X150047403Y-101820075D01*
G37*
G36*
X137573731Y-102097003D02*
G01*
X137767912Y-102177436D01*
X137767914Y-102177437D01*
X137942673Y-102294207D01*
X138091293Y-102442827D01*
X138208063Y-102617586D01*
X138208064Y-102617588D01*
X138288497Y-102811769D01*
X138329500Y-103017908D01*
X138329500Y-103228092D01*
X138288497Y-103434231D01*
X138253055Y-103519794D01*
X138208063Y-103628414D01*
X138091293Y-103803173D01*
X137942673Y-103951793D01*
X137767914Y-104068563D01*
X137767913Y-104068564D01*
X137767912Y-104068564D01*
X137573731Y-104148997D01*
X137367592Y-104190000D01*
X137157408Y-104190000D01*
X136951269Y-104148997D01*
X136757088Y-104068564D01*
X136757087Y-104068564D01*
X136757086Y-104068563D01*
X136582327Y-103951793D01*
X136433707Y-103803173D01*
X136316937Y-103628414D01*
X136271945Y-103519794D01*
X136236503Y-103434231D01*
X136195500Y-103228092D01*
X136195500Y-103017908D01*
X136236503Y-102811769D01*
X136316936Y-102617588D01*
X136316937Y-102617586D01*
X136433707Y-102442827D01*
X136582327Y-102294207D01*
X136757086Y-102177437D01*
X136757088Y-102177436D01*
X136951269Y-102097003D01*
X137157408Y-102056000D01*
X137367592Y-102056000D01*
X137573731Y-102097003D01*
G37*
G36*
X132493731Y-102097003D02*
G01*
X132687912Y-102177436D01*
X132687914Y-102177437D01*
X132862673Y-102294207D01*
X133011293Y-102442827D01*
X133128063Y-102617586D01*
X133128064Y-102617588D01*
X133208497Y-102811769D01*
X133249500Y-103017908D01*
X133249500Y-103228092D01*
X133208497Y-103434231D01*
X133173055Y-103519794D01*
X133128063Y-103628414D01*
X133011293Y-103803173D01*
X132862673Y-103951793D01*
X132687914Y-104068563D01*
X132687913Y-104068564D01*
X132687912Y-104068564D01*
X132493731Y-104148997D01*
X132287592Y-104190000D01*
X132077408Y-104190000D01*
X131871269Y-104148997D01*
X131677088Y-104068564D01*
X131677087Y-104068564D01*
X131677086Y-104068563D01*
X131502327Y-103951793D01*
X131353707Y-103803173D01*
X131236937Y-103628414D01*
X131191945Y-103519794D01*
X131156503Y-103434231D01*
X131115500Y-103228092D01*
X131115500Y-103017908D01*
X131156503Y-102811769D01*
X131236936Y-102617588D01*
X131236937Y-102617586D01*
X131353707Y-102442827D01*
X131502327Y-102294207D01*
X131677086Y-102177437D01*
X131677088Y-102177436D01*
X131871269Y-102097003D01*
X132077408Y-102056000D01*
X132287592Y-102056000D01*
X132493731Y-102097003D01*
G37*
G36*
X142653731Y-102097003D02*
G01*
X142847912Y-102177436D01*
X142847914Y-102177437D01*
X143022673Y-102294207D01*
X143171293Y-102442827D01*
X143288063Y-102617586D01*
X143288064Y-102617588D01*
X143368497Y-102811769D01*
X143409500Y-103017908D01*
X143409500Y-103228092D01*
X143368497Y-103434231D01*
X143333055Y-103519794D01*
X143288063Y-103628414D01*
X143171293Y-103803173D01*
X143022673Y-103951793D01*
X142847914Y-104068563D01*
X142847913Y-104068564D01*
X142847912Y-104068564D01*
X142653731Y-104148997D01*
X142447592Y-104190000D01*
X142237408Y-104190000D01*
X142031269Y-104148997D01*
X141837088Y-104068564D01*
X141837087Y-104068564D01*
X141837086Y-104068563D01*
X141662327Y-103951793D01*
X141513707Y-103803173D01*
X141396937Y-103628414D01*
X141351945Y-103519794D01*
X141316503Y-103434231D01*
X141275500Y-103228092D01*
X141275500Y-103017908D01*
X141316503Y-102811769D01*
X141396936Y-102617588D01*
X141396937Y-102617586D01*
X141513707Y-102442827D01*
X141662327Y-102294207D01*
X141837086Y-102177437D01*
X141837088Y-102177436D01*
X142031269Y-102097003D01*
X142237408Y-102056000D01*
X142447592Y-102056000D01*
X142653731Y-102097003D01*
G37*
G36*
X145193731Y-102097003D02*
G01*
X145387912Y-102177436D01*
X145387914Y-102177437D01*
X145562673Y-102294207D01*
X145711293Y-102442827D01*
X145828063Y-102617586D01*
X145828064Y-102617588D01*
X145908497Y-102811769D01*
X145949500Y-103017908D01*
X145949500Y-103228092D01*
X145908497Y-103434231D01*
X145873055Y-103519794D01*
X145828063Y-103628414D01*
X145711293Y-103803173D01*
X145562673Y-103951793D01*
X145387914Y-104068563D01*
X145387913Y-104068564D01*
X145387912Y-104068564D01*
X145193731Y-104148997D01*
X144987592Y-104190000D01*
X144777408Y-104190000D01*
X144571269Y-104148997D01*
X144377088Y-104068564D01*
X144377087Y-104068564D01*
X144377086Y-104068563D01*
X144202327Y-103951793D01*
X144053707Y-103803173D01*
X143936937Y-103628414D01*
X143891945Y-103519794D01*
X143856503Y-103434231D01*
X143815500Y-103228092D01*
X143815500Y-103017908D01*
X143856503Y-102811769D01*
X143936936Y-102617588D01*
X143936937Y-102617586D01*
X144053707Y-102442827D01*
X144202327Y-102294207D01*
X144377086Y-102177437D01*
X144377088Y-102177436D01*
X144571269Y-102097003D01*
X144777408Y-102056000D01*
X144987592Y-102056000D01*
X145193731Y-102097003D01*
G37*
G36*
X127413731Y-102097003D02*
G01*
X127607912Y-102177436D01*
X127607914Y-102177437D01*
X127782673Y-102294207D01*
X127931293Y-102442827D01*
X128048063Y-102617586D01*
X128048064Y-102617588D01*
X128128497Y-102811769D01*
X128169500Y-103017908D01*
X128169500Y-103228092D01*
X128128497Y-103434231D01*
X128093055Y-103519794D01*
X128048063Y-103628414D01*
X127931293Y-103803173D01*
X127782673Y-103951793D01*
X127607914Y-104068563D01*
X127607913Y-104068564D01*
X127607912Y-104068564D01*
X127413731Y-104148997D01*
X127207592Y-104190000D01*
X126997408Y-104190000D01*
X126791269Y-104148997D01*
X126597088Y-104068564D01*
X126597087Y-104068564D01*
X126597086Y-104068563D01*
X126422327Y-103951793D01*
X126273707Y-103803173D01*
X126156937Y-103628414D01*
X126111945Y-103519794D01*
X126076503Y-103434231D01*
X126035500Y-103228092D01*
X126035500Y-103017908D01*
X126076503Y-102811769D01*
X126156936Y-102617588D01*
X126156937Y-102617586D01*
X126273707Y-102442827D01*
X126422327Y-102294207D01*
X126597086Y-102177437D01*
X126597088Y-102177436D01*
X126791269Y-102097003D01*
X126997408Y-102056000D01*
X127207592Y-102056000D01*
X127413731Y-102097003D01*
G37*
G36*
X140113731Y-102097003D02*
G01*
X140307912Y-102177436D01*
X140307914Y-102177437D01*
X140482673Y-102294207D01*
X140631293Y-102442827D01*
X140748063Y-102617586D01*
X140748064Y-102617588D01*
X140828497Y-102811769D01*
X140869500Y-103017908D01*
X140869500Y-103228092D01*
X140828497Y-103434231D01*
X140793055Y-103519794D01*
X140748063Y-103628414D01*
X140631293Y-103803173D01*
X140482673Y-103951793D01*
X140307914Y-104068563D01*
X140307913Y-104068564D01*
X140307912Y-104068564D01*
X140113731Y-104148997D01*
X139907592Y-104190000D01*
X139697408Y-104190000D01*
X139491269Y-104148997D01*
X139297088Y-104068564D01*
X139297087Y-104068564D01*
X139297086Y-104068563D01*
X139122327Y-103951793D01*
X138973707Y-103803173D01*
X138856937Y-103628414D01*
X138811945Y-103519794D01*
X138776503Y-103434231D01*
X138735500Y-103228092D01*
X138735500Y-103017908D01*
X138776503Y-102811769D01*
X138856936Y-102617588D01*
X138856937Y-102617586D01*
X138973707Y-102442827D01*
X139122327Y-102294207D01*
X139297086Y-102177437D01*
X139297088Y-102177436D01*
X139491269Y-102097003D01*
X139697408Y-102056000D01*
X139907592Y-102056000D01*
X140113731Y-102097003D01*
G37*
G36*
X129953731Y-102097003D02*
G01*
X130147912Y-102177436D01*
X130147914Y-102177437D01*
X130322673Y-102294207D01*
X130471293Y-102442827D01*
X130588063Y-102617586D01*
X130588064Y-102617588D01*
X130668497Y-102811769D01*
X130709500Y-103017908D01*
X130709500Y-103228092D01*
X130668497Y-103434231D01*
X130633055Y-103519794D01*
X130588063Y-103628414D01*
X130471293Y-103803173D01*
X130322673Y-103951793D01*
X130147914Y-104068563D01*
X130147913Y-104068564D01*
X130147912Y-104068564D01*
X129953731Y-104148997D01*
X129747592Y-104190000D01*
X129537408Y-104190000D01*
X129331269Y-104148997D01*
X129137088Y-104068564D01*
X129137087Y-104068564D01*
X129137086Y-104068563D01*
X128962327Y-103951793D01*
X128813707Y-103803173D01*
X128696937Y-103628414D01*
X128651945Y-103519794D01*
X128616503Y-103434231D01*
X128575500Y-103228092D01*
X128575500Y-103017908D01*
X128616503Y-102811769D01*
X128696936Y-102617588D01*
X128696937Y-102617586D01*
X128813707Y-102442827D01*
X128962327Y-102294207D01*
X129137086Y-102177437D01*
X129137088Y-102177436D01*
X129331269Y-102097003D01*
X129537408Y-102056000D01*
X129747592Y-102056000D01*
X129953731Y-102097003D01*
G37*
G36*
X135033731Y-102097003D02*
G01*
X135227912Y-102177436D01*
X135227914Y-102177437D01*
X135402673Y-102294207D01*
X135551293Y-102442827D01*
X135668063Y-102617586D01*
X135668064Y-102617588D01*
X135748497Y-102811769D01*
X135789500Y-103017908D01*
X135789500Y-103228092D01*
X135748497Y-103434231D01*
X135713055Y-103519794D01*
X135668063Y-103628414D01*
X135551293Y-103803173D01*
X135402673Y-103951793D01*
X135227914Y-104068563D01*
X135227913Y-104068564D01*
X135227912Y-104068564D01*
X135033731Y-104148997D01*
X134827592Y-104190000D01*
X134617408Y-104190000D01*
X134411269Y-104148997D01*
X134217088Y-104068564D01*
X134217087Y-104068564D01*
X134217086Y-104068563D01*
X134042327Y-103951793D01*
X133893707Y-103803173D01*
X133776937Y-103628414D01*
X133731945Y-103519794D01*
X133696503Y-103434231D01*
X133655500Y-103228092D01*
X133655500Y-103017908D01*
X133696503Y-102811769D01*
X133776936Y-102617588D01*
X133776937Y-102617586D01*
X133893707Y-102442827D01*
X134042327Y-102294207D01*
X134217086Y-102177437D01*
X134217088Y-102177436D01*
X134411269Y-102097003D01*
X134617408Y-102056000D01*
X134827592Y-102056000D01*
X135033731Y-102097003D01*
G37*
G36*
X122583500Y-101424000D02*
G01*
X120981500Y-101424000D01*
X120981500Y-99822000D01*
X122583500Y-99822000D01*
X122583500Y-101424000D01*
G37*
G36*
X188647403Y-97320075D02*
G01*
X188680080Y-97333610D01*
X188875071Y-97414378D01*
X189079966Y-97551285D01*
X189254215Y-97725534D01*
X189254216Y-97725536D01*
X189391123Y-97930431D01*
X189485425Y-98158097D01*
X189516962Y-98316642D01*
X189533500Y-98399787D01*
X189533500Y-98646213D01*
X189485425Y-98887903D01*
X189391122Y-99115571D01*
X189254215Y-99320466D01*
X189079966Y-99494715D01*
X188875071Y-99631622D01*
X188875070Y-99631623D01*
X188875069Y-99631623D01*
X188647403Y-99725925D01*
X188405714Y-99774000D01*
X188159286Y-99774000D01*
X187917597Y-99725925D01*
X187689931Y-99631623D01*
X187689930Y-99631623D01*
X187689929Y-99631622D01*
X187485034Y-99494715D01*
X187310785Y-99320466D01*
X187173878Y-99115571D01*
X187079575Y-98887903D01*
X187031500Y-98646213D01*
X187031500Y-98399787D01*
X187048039Y-98316642D01*
X187079575Y-98158097D01*
X187173877Y-97930431D01*
X187310784Y-97725536D01*
X187310785Y-97725534D01*
X187485034Y-97551285D01*
X187689929Y-97414378D01*
X187884921Y-97333610D01*
X187917597Y-97320075D01*
X188159286Y-97272000D01*
X188405714Y-97272000D01*
X188647403Y-97320075D01*
G37*
G36*
X184533500Y-99774000D02*
G01*
X182031500Y-99774000D01*
X182031500Y-97272000D01*
X184533500Y-97272000D01*
X184533500Y-99774000D01*
G37*
G36*
X122016142Y-97312781D02*
G01*
X122161914Y-97373162D01*
X122161916Y-97373163D01*
X122293108Y-97460822D01*
X122404678Y-97572392D01*
X122492337Y-97703584D01*
X122492338Y-97703586D01*
X122552719Y-97849358D01*
X122583500Y-98004107D01*
X122583500Y-98161893D01*
X122552719Y-98316642D01*
X122518279Y-98399786D01*
X122492337Y-98462416D01*
X122404678Y-98593608D01*
X122293108Y-98705178D01*
X122161916Y-98792837D01*
X122161915Y-98792838D01*
X122161914Y-98792838D01*
X122016142Y-98853219D01*
X121861393Y-98884000D01*
X121703607Y-98884000D01*
X121548858Y-98853219D01*
X121403086Y-98792838D01*
X121403085Y-98792838D01*
X121403084Y-98792837D01*
X121271892Y-98705178D01*
X121160322Y-98593608D01*
X121072663Y-98462416D01*
X121046721Y-98399786D01*
X121012281Y-98316642D01*
X120981500Y-98161893D01*
X120981500Y-98004107D01*
X121012281Y-97849358D01*
X121072662Y-97703586D01*
X121072663Y-97703584D01*
X121160322Y-97572392D01*
X121271892Y-97460822D01*
X121403084Y-97373163D01*
X121403086Y-97373162D01*
X121548858Y-97312781D01*
X121703607Y-97282000D01*
X121861393Y-97282000D01*
X122016142Y-97312781D01*
G37*
G36*
X116133500Y-97374000D02*
G01*
X114031500Y-97374000D01*
X114031500Y-95272000D01*
X116133500Y-95272000D01*
X116133500Y-97374000D01*
G37*
G36*
X107789064Y-95312389D02*
G01*
X107980333Y-95391615D01*
X107980335Y-95391616D01*
X108152473Y-95506635D01*
X108298865Y-95653027D01*
X108381463Y-95776643D01*
X108413885Y-95825167D01*
X108493111Y-96016436D01*
X108533500Y-96219484D01*
X108533500Y-96426516D01*
X108493111Y-96629564D01*
X108413885Y-96820833D01*
X108413884Y-96820835D01*
X108298865Y-96992973D01*
X108152473Y-97139365D01*
X107980335Y-97254384D01*
X107980334Y-97254385D01*
X107980333Y-97254385D01*
X107789064Y-97333611D01*
X107586016Y-97374000D01*
X107378984Y-97374000D01*
X107175936Y-97333611D01*
X106984667Y-97254385D01*
X106984666Y-97254385D01*
X106984665Y-97254384D01*
X106812527Y-97139365D01*
X106666135Y-96992973D01*
X106551116Y-96820835D01*
X106551115Y-96820833D01*
X106471889Y-96629564D01*
X106431500Y-96426516D01*
X106431500Y-96219484D01*
X106471889Y-96016436D01*
X106551115Y-95825167D01*
X106583538Y-95776643D01*
X106666135Y-95653027D01*
X106812527Y-95506635D01*
X106984665Y-95391616D01*
X106984667Y-95391615D01*
X107175936Y-95312389D01*
X107378984Y-95272000D01*
X107586016Y-95272000D01*
X107789064Y-95312389D01*
G37*
G36*
X122016142Y-94772781D02*
G01*
X122161914Y-94833162D01*
X122161916Y-94833163D01*
X122293108Y-94920822D01*
X122404678Y-95032392D01*
X122492337Y-95163584D01*
X122492338Y-95163586D01*
X122552719Y-95309358D01*
X122583500Y-95464107D01*
X122583500Y-95621893D01*
X122552719Y-95776642D01*
X122532620Y-95825165D01*
X122492337Y-95922416D01*
X122404678Y-96053608D01*
X122293108Y-96165178D01*
X122161916Y-96252837D01*
X122161915Y-96252838D01*
X122161914Y-96252838D01*
X122016142Y-96313219D01*
X121861393Y-96344000D01*
X121703607Y-96344000D01*
X121548858Y-96313219D01*
X121403086Y-96252838D01*
X121403085Y-96252838D01*
X121403084Y-96252837D01*
X121271892Y-96165178D01*
X121160322Y-96053608D01*
X121072663Y-95922416D01*
X121032380Y-95825165D01*
X121012281Y-95776642D01*
X120981500Y-95621893D01*
X120981500Y-95464107D01*
X121012281Y-95309358D01*
X121072662Y-95163586D01*
X121072663Y-95163584D01*
X121160322Y-95032392D01*
X121271892Y-94920822D01*
X121403084Y-94833163D01*
X121403086Y-94833162D01*
X121548858Y-94772781D01*
X121703607Y-94742000D01*
X121861393Y-94742000D01*
X122016142Y-94772781D01*
G37*
G36*
X122947403Y-90120075D02*
G01*
X123175071Y-90214378D01*
X123379966Y-90351285D01*
X123554215Y-90525534D01*
X123691122Y-90730429D01*
X123785425Y-90958097D01*
X123833500Y-91199787D01*
X123833500Y-91446213D01*
X123785425Y-91687903D01*
X123691122Y-91915571D01*
X123554215Y-92120466D01*
X123379966Y-92294715D01*
X123175071Y-92431622D01*
X123175070Y-92431623D01*
X123175069Y-92431623D01*
X122947403Y-92525925D01*
X122705714Y-92574000D01*
X122459286Y-92574000D01*
X122217597Y-92525925D01*
X121989931Y-92431623D01*
X121989930Y-92431623D01*
X121989929Y-92431622D01*
X121785034Y-92294715D01*
X121610785Y-92120466D01*
X121473878Y-91915571D01*
X121379575Y-91687903D01*
X121331500Y-91446213D01*
X121331500Y-91199787D01*
X121379575Y-90958097D01*
X121473878Y-90730429D01*
X121610785Y-90525534D01*
X121785034Y-90351285D01*
X121989929Y-90214378D01*
X122217597Y-90120075D01*
X122459286Y-90072000D01*
X122705714Y-90072000D01*
X122947403Y-90120075D01*
G37*
G36*
X150047403Y-89120075D02*
G01*
X150275071Y-89214378D01*
X150479966Y-89351285D01*
X150654215Y-89525534D01*
X150791122Y-89730429D01*
X150885425Y-89958097D01*
X150933500Y-90199787D01*
X150933500Y-90446213D01*
X150885425Y-90687903D01*
X150791122Y-90915571D01*
X150654215Y-91120466D01*
X150479966Y-91294715D01*
X150275071Y-91431622D01*
X150275070Y-91431623D01*
X150275069Y-91431623D01*
X150047403Y-91525925D01*
X149805714Y-91574000D01*
X149559286Y-91574000D01*
X149317597Y-91525925D01*
X149089931Y-91431623D01*
X149089930Y-91431623D01*
X149089929Y-91431622D01*
X148885034Y-91294715D01*
X148710785Y-91120466D01*
X148573878Y-90915571D01*
X148479575Y-90687903D01*
X148431500Y-90446213D01*
X148431500Y-90199787D01*
X148479575Y-89958097D01*
X148573878Y-89730429D01*
X148710785Y-89525534D01*
X148885034Y-89351285D01*
X149089929Y-89214378D01*
X149317597Y-89120075D01*
X149559286Y-89072000D01*
X149805714Y-89072000D01*
X150047403Y-89120075D01*
G37*
G36*
X154747403Y-89120075D02*
G01*
X154975071Y-89214378D01*
X155179966Y-89351285D01*
X155354215Y-89525534D01*
X155491122Y-89730429D01*
X155585425Y-89958097D01*
X155633500Y-90199787D01*
X155633500Y-90446213D01*
X155585425Y-90687903D01*
X155491122Y-90915571D01*
X155354215Y-91120466D01*
X155179966Y-91294715D01*
X154975071Y-91431622D01*
X154975070Y-91431623D01*
X154975069Y-91431623D01*
X154747403Y-91525925D01*
X154505714Y-91574000D01*
X154259286Y-91574000D01*
X154017597Y-91525925D01*
X153789931Y-91431623D01*
X153789930Y-91431623D01*
X153789929Y-91431622D01*
X153585034Y-91294715D01*
X153410785Y-91120466D01*
X153273878Y-90915571D01*
X153179575Y-90687903D01*
X153131500Y-90446213D01*
X153131500Y-90199787D01*
X153179575Y-89958097D01*
X153273878Y-89730429D01*
X153410785Y-89525534D01*
X153585034Y-89351285D01*
X153789929Y-89214378D01*
X154017597Y-89120075D01*
X154259286Y-89072000D01*
X154505714Y-89072000D01*
X154747403Y-89120075D01*
G37*
G36*
X163347831Y-85031211D02*
G01*
X163675592Y-85166974D01*
X163970570Y-85364072D01*
X164221428Y-85614930D01*
X164418526Y-85909908D01*
X164554289Y-86237669D01*
X164623500Y-86585616D01*
X164623500Y-86940384D01*
X164554289Y-87288331D01*
X164418526Y-87616092D01*
X164221428Y-87911070D01*
X163970570Y-88161928D01*
X163675592Y-88359026D01*
X163347831Y-88494789D01*
X162999884Y-88564000D01*
X162645116Y-88564000D01*
X162297169Y-88494789D01*
X161969408Y-88359026D01*
X161674430Y-88161928D01*
X161423572Y-87911070D01*
X161226474Y-87616092D01*
X161090711Y-87288331D01*
X161021500Y-86940384D01*
X161021500Y-86585616D01*
X161090711Y-86237669D01*
X161226474Y-85909908D01*
X161423572Y-85614930D01*
X161674430Y-85364072D01*
X161969408Y-85166974D01*
X162297169Y-85031211D01*
X162645116Y-84962000D01*
X162999884Y-84962000D01*
X163347831Y-85031211D01*
G37*
G36*
X142123731Y-85177003D02*
G01*
X142315954Y-85256625D01*
X142317914Y-85257437D01*
X142492673Y-85374207D01*
X142641293Y-85522827D01*
X142757149Y-85696218D01*
X142758064Y-85697588D01*
X142838497Y-85891769D01*
X142879500Y-86097908D01*
X142879500Y-86308092D01*
X142838497Y-86514231D01*
X142762645Y-86697353D01*
X142758063Y-86708414D01*
X142641293Y-86883173D01*
X142492673Y-87031793D01*
X142317914Y-87148563D01*
X142317913Y-87148564D01*
X142317912Y-87148564D01*
X142123731Y-87228997D01*
X141917592Y-87270000D01*
X141707408Y-87270000D01*
X141501269Y-87228997D01*
X141307088Y-87148564D01*
X141307087Y-87148564D01*
X141307086Y-87148563D01*
X141132327Y-87031793D01*
X140983707Y-86883173D01*
X140866937Y-86708414D01*
X140862355Y-86697353D01*
X140786503Y-86514231D01*
X140745500Y-86308092D01*
X140745500Y-86097908D01*
X140786503Y-85891769D01*
X140866936Y-85697588D01*
X140867851Y-85696218D01*
X140983707Y-85522827D01*
X141132327Y-85374207D01*
X141307086Y-85257437D01*
X141309046Y-85256625D01*
X141501269Y-85177003D01*
X141707408Y-85136000D01*
X141917592Y-85136000D01*
X142123731Y-85177003D01*
G37*
G36*
X134503731Y-85177003D02*
G01*
X134695954Y-85256625D01*
X134697914Y-85257437D01*
X134872673Y-85374207D01*
X135021293Y-85522827D01*
X135137149Y-85696218D01*
X135138064Y-85697588D01*
X135218497Y-85891769D01*
X135259500Y-86097908D01*
X135259500Y-86308092D01*
X135218497Y-86514231D01*
X135142645Y-86697353D01*
X135138063Y-86708414D01*
X135021293Y-86883173D01*
X134872673Y-87031793D01*
X134697914Y-87148563D01*
X134697913Y-87148564D01*
X134697912Y-87148564D01*
X134503731Y-87228997D01*
X134297592Y-87270000D01*
X134087408Y-87270000D01*
X133881269Y-87228997D01*
X133687088Y-87148564D01*
X133687087Y-87148564D01*
X133687086Y-87148563D01*
X133512327Y-87031793D01*
X133363707Y-86883173D01*
X133246937Y-86708414D01*
X133242355Y-86697353D01*
X133166503Y-86514231D01*
X133125500Y-86308092D01*
X133125500Y-86097908D01*
X133166503Y-85891769D01*
X133246936Y-85697588D01*
X133247851Y-85696218D01*
X133363707Y-85522827D01*
X133512327Y-85374207D01*
X133687086Y-85257437D01*
X133689046Y-85256625D01*
X133881269Y-85177003D01*
X134087408Y-85136000D01*
X134297592Y-85136000D01*
X134503731Y-85177003D01*
G37*
G36*
X126883731Y-85177003D02*
G01*
X127075954Y-85256625D01*
X127077914Y-85257437D01*
X127252673Y-85374207D01*
X127401293Y-85522827D01*
X127517149Y-85696218D01*
X127518064Y-85697588D01*
X127598497Y-85891769D01*
X127639500Y-86097908D01*
X127639500Y-86308092D01*
X127598497Y-86514231D01*
X127522645Y-86697353D01*
X127518063Y-86708414D01*
X127401293Y-86883173D01*
X127252673Y-87031793D01*
X127077914Y-87148563D01*
X127077913Y-87148564D01*
X127077912Y-87148564D01*
X126883731Y-87228997D01*
X126677592Y-87270000D01*
X126467408Y-87270000D01*
X126261269Y-87228997D01*
X126067088Y-87148564D01*
X126067087Y-87148564D01*
X126067086Y-87148563D01*
X125892327Y-87031793D01*
X125743707Y-86883173D01*
X125626937Y-86708414D01*
X125622355Y-86697353D01*
X125546503Y-86514231D01*
X125505500Y-86308092D01*
X125505500Y-86097908D01*
X125546503Y-85891769D01*
X125626936Y-85697588D01*
X125627851Y-85696218D01*
X125743707Y-85522827D01*
X125892327Y-85374207D01*
X126067086Y-85257437D01*
X126069046Y-85256625D01*
X126261269Y-85177003D01*
X126467408Y-85136000D01*
X126677592Y-85136000D01*
X126883731Y-85177003D01*
G37*
G36*
X137043731Y-85177003D02*
G01*
X137235954Y-85256625D01*
X137237914Y-85257437D01*
X137412673Y-85374207D01*
X137561293Y-85522827D01*
X137677149Y-85696218D01*
X137678064Y-85697588D01*
X137758497Y-85891769D01*
X137799500Y-86097908D01*
X137799500Y-86308092D01*
X137758497Y-86514231D01*
X137682645Y-86697353D01*
X137678063Y-86708414D01*
X137561293Y-86883173D01*
X137412673Y-87031793D01*
X137237914Y-87148563D01*
X137237913Y-87148564D01*
X137237912Y-87148564D01*
X137043731Y-87228997D01*
X136837592Y-87270000D01*
X136627408Y-87270000D01*
X136421269Y-87228997D01*
X136227088Y-87148564D01*
X136227087Y-87148564D01*
X136227086Y-87148563D01*
X136052327Y-87031793D01*
X135903707Y-86883173D01*
X135786937Y-86708414D01*
X135782355Y-86697353D01*
X135706503Y-86514231D01*
X135665500Y-86308092D01*
X135665500Y-86097908D01*
X135706503Y-85891769D01*
X135786936Y-85697588D01*
X135787851Y-85696218D01*
X135903707Y-85522827D01*
X136052327Y-85374207D01*
X136227086Y-85257437D01*
X136229046Y-85256625D01*
X136421269Y-85177003D01*
X136627408Y-85136000D01*
X136837592Y-85136000D01*
X137043731Y-85177003D01*
G37*
G36*
X139583731Y-85177003D02*
G01*
X139775954Y-85256625D01*
X139777914Y-85257437D01*
X139952673Y-85374207D01*
X140101293Y-85522827D01*
X140217149Y-85696218D01*
X140218064Y-85697588D01*
X140298497Y-85891769D01*
X140339500Y-86097908D01*
X140339500Y-86308092D01*
X140298497Y-86514231D01*
X140222645Y-86697353D01*
X140218063Y-86708414D01*
X140101293Y-86883173D01*
X139952673Y-87031793D01*
X139777914Y-87148563D01*
X139777913Y-87148564D01*
X139777912Y-87148564D01*
X139583731Y-87228997D01*
X139377592Y-87270000D01*
X139167408Y-87270000D01*
X138961269Y-87228997D01*
X138767088Y-87148564D01*
X138767087Y-87148564D01*
X138767086Y-87148563D01*
X138592327Y-87031793D01*
X138443707Y-86883173D01*
X138326937Y-86708414D01*
X138322355Y-86697353D01*
X138246503Y-86514231D01*
X138205500Y-86308092D01*
X138205500Y-86097908D01*
X138246503Y-85891769D01*
X138326936Y-85697588D01*
X138327851Y-85696218D01*
X138443707Y-85522827D01*
X138592327Y-85374207D01*
X138767086Y-85257437D01*
X138769046Y-85256625D01*
X138961269Y-85177003D01*
X139167408Y-85136000D01*
X139377592Y-85136000D01*
X139583731Y-85177003D01*
G37*
G36*
X174983500Y-87024000D02*
G01*
X173181500Y-87024000D01*
X173181500Y-85222000D01*
X174983500Y-85222000D01*
X174983500Y-87024000D01*
G37*
G36*
X145496012Y-85226927D02*
G01*
X145645312Y-85256624D01*
X145809284Y-85324544D01*
X145956854Y-85423147D01*
X146082353Y-85548646D01*
X146180956Y-85696216D01*
X146248876Y-85860188D01*
X146283500Y-86034259D01*
X146283500Y-86211741D01*
X146248876Y-86385812D01*
X146180956Y-86549784D01*
X146082353Y-86697354D01*
X145956854Y-86822853D01*
X145809284Y-86921456D01*
X145645312Y-86989376D01*
X145496012Y-87019073D01*
X145471242Y-87024000D01*
X145293758Y-87024000D01*
X145268988Y-87019073D01*
X145119688Y-86989376D01*
X144955716Y-86921456D01*
X144808146Y-86822853D01*
X144682647Y-86697354D01*
X144584044Y-86549784D01*
X144516124Y-86385812D01*
X144481500Y-86211741D01*
X144481500Y-86034259D01*
X144516124Y-85860188D01*
X144584044Y-85696216D01*
X144682647Y-85548646D01*
X144808146Y-85423147D01*
X144955716Y-85324544D01*
X145119688Y-85256624D01*
X145268988Y-85226927D01*
X145293758Y-85222000D01*
X145471242Y-85222000D01*
X145496012Y-85226927D01*
G37*
G36*
X171656012Y-85226927D02*
G01*
X171805312Y-85256624D01*
X171969284Y-85324544D01*
X172116854Y-85423147D01*
X172242353Y-85548646D01*
X172340956Y-85696216D01*
X172408876Y-85860188D01*
X172443500Y-86034259D01*
X172443500Y-86211741D01*
X172408876Y-86385812D01*
X172340956Y-86549784D01*
X172242353Y-86697354D01*
X172116854Y-86822853D01*
X171969284Y-86921456D01*
X171805312Y-86989376D01*
X171656012Y-87019073D01*
X171631242Y-87024000D01*
X171453758Y-87024000D01*
X171428988Y-87019073D01*
X171279688Y-86989376D01*
X171115716Y-86921456D01*
X170968146Y-86822853D01*
X170842647Y-86697354D01*
X170744044Y-86549784D01*
X170676124Y-86385812D01*
X170641500Y-86211741D01*
X170641500Y-86034259D01*
X170676124Y-85860188D01*
X170744044Y-85696216D01*
X170842647Y-85548646D01*
X170968146Y-85423147D01*
X171115716Y-85324544D01*
X171279688Y-85256624D01*
X171428988Y-85226927D01*
X171453758Y-85222000D01*
X171631242Y-85222000D01*
X171656012Y-85226927D01*
G37*
G36*
X126883731Y-82637003D02*
G01*
X127075954Y-82716625D01*
X127077914Y-82717437D01*
X127252673Y-82834207D01*
X127401293Y-82982827D01*
X127517149Y-83156218D01*
X127518064Y-83157588D01*
X127598497Y-83351769D01*
X127639500Y-83557908D01*
X127639500Y-83768092D01*
X127598497Y-83974231D01*
X127583771Y-84009782D01*
X127518063Y-84168414D01*
X127401293Y-84343173D01*
X127252673Y-84491793D01*
X127077914Y-84608563D01*
X127077913Y-84608564D01*
X127077912Y-84608564D01*
X126883731Y-84688997D01*
X126677592Y-84730000D01*
X126467408Y-84730000D01*
X126261269Y-84688997D01*
X126067088Y-84608564D01*
X126067087Y-84608564D01*
X126067086Y-84608563D01*
X125892327Y-84491793D01*
X125743707Y-84343173D01*
X125626937Y-84168414D01*
X125561229Y-84009782D01*
X125546503Y-83974231D01*
X125505500Y-83768092D01*
X125505500Y-83557908D01*
X125546503Y-83351769D01*
X125626936Y-83157588D01*
X125627851Y-83156218D01*
X125743707Y-82982827D01*
X125892327Y-82834207D01*
X126067086Y-82717437D01*
X126069046Y-82716625D01*
X126261269Y-82637003D01*
X126467408Y-82596000D01*
X126677592Y-82596000D01*
X126883731Y-82637003D01*
G37*
G36*
X142123731Y-82637003D02*
G01*
X142315954Y-82716625D01*
X142317914Y-82717437D01*
X142492673Y-82834207D01*
X142641293Y-82982827D01*
X142757149Y-83156218D01*
X142758064Y-83157588D01*
X142838497Y-83351769D01*
X142879500Y-83557908D01*
X142879500Y-83768092D01*
X142838497Y-83974231D01*
X142823771Y-84009782D01*
X142758063Y-84168414D01*
X142641293Y-84343173D01*
X142492673Y-84491793D01*
X142317914Y-84608563D01*
X142317913Y-84608564D01*
X142317912Y-84608564D01*
X142123731Y-84688997D01*
X141917592Y-84730000D01*
X141707408Y-84730000D01*
X141501269Y-84688997D01*
X141307088Y-84608564D01*
X141307087Y-84608564D01*
X141307086Y-84608563D01*
X141132327Y-84491793D01*
X140983707Y-84343173D01*
X140866937Y-84168414D01*
X140801229Y-84009782D01*
X140786503Y-83974231D01*
X140745500Y-83768092D01*
X140745500Y-83557908D01*
X140786503Y-83351769D01*
X140866936Y-83157588D01*
X140867851Y-83156218D01*
X140983707Y-82982827D01*
X141132327Y-82834207D01*
X141307086Y-82717437D01*
X141309046Y-82716625D01*
X141501269Y-82637003D01*
X141707408Y-82596000D01*
X141917592Y-82596000D01*
X142123731Y-82637003D01*
G37*
G36*
X145496012Y-82686927D02*
G01*
X145645312Y-82716624D01*
X145809284Y-82784544D01*
X145956854Y-82883147D01*
X146082353Y-83008646D01*
X146180956Y-83156216D01*
X146248876Y-83320188D01*
X146283500Y-83494259D01*
X146283500Y-83671741D01*
X146248876Y-83845812D01*
X146180956Y-84009784D01*
X146082353Y-84157354D01*
X145956854Y-84282853D01*
X145809284Y-84381456D01*
X145645312Y-84449376D01*
X145496012Y-84479073D01*
X145471242Y-84484000D01*
X145293758Y-84484000D01*
X145268988Y-84479073D01*
X145119688Y-84449376D01*
X144955716Y-84381456D01*
X144808146Y-84282853D01*
X144682647Y-84157354D01*
X144584044Y-84009784D01*
X144516124Y-83845812D01*
X144481500Y-83671741D01*
X144481500Y-83494259D01*
X144516124Y-83320188D01*
X144584044Y-83156216D01*
X144682647Y-83008646D01*
X144808146Y-82883147D01*
X144955716Y-82784544D01*
X145119688Y-82716624D01*
X145268988Y-82686927D01*
X145293758Y-82682000D01*
X145471242Y-82682000D01*
X145496012Y-82686927D01*
G37*
G36*
X142123731Y-80097003D02*
G01*
X142315954Y-80176625D01*
X142317914Y-80177437D01*
X142492673Y-80294207D01*
X142641293Y-80442827D01*
X142757149Y-80616218D01*
X142758064Y-80617588D01*
X142838497Y-80811769D01*
X142879500Y-81017908D01*
X142879500Y-81228092D01*
X142838497Y-81434231D01*
X142823771Y-81469782D01*
X142758063Y-81628414D01*
X142641293Y-81803173D01*
X142492673Y-81951793D01*
X142317914Y-82068563D01*
X142317913Y-82068564D01*
X142317912Y-82068564D01*
X142123731Y-82148997D01*
X141917592Y-82190000D01*
X141707408Y-82190000D01*
X141501269Y-82148997D01*
X141307088Y-82068564D01*
X141307087Y-82068564D01*
X141307086Y-82068563D01*
X141132327Y-81951793D01*
X140983707Y-81803173D01*
X140866937Y-81628414D01*
X140801229Y-81469782D01*
X140786503Y-81434231D01*
X140745500Y-81228092D01*
X140745500Y-81017908D01*
X140786503Y-80811769D01*
X140866936Y-80617588D01*
X140867851Y-80616218D01*
X140983707Y-80442827D01*
X141132327Y-80294207D01*
X141307086Y-80177437D01*
X141309046Y-80176625D01*
X141501269Y-80097003D01*
X141707408Y-80056000D01*
X141917592Y-80056000D01*
X142123731Y-80097003D01*
G37*
G36*
X126883731Y-80097003D02*
G01*
X127075954Y-80176625D01*
X127077914Y-80177437D01*
X127252673Y-80294207D01*
X127401293Y-80442827D01*
X127517149Y-80616218D01*
X127518064Y-80617588D01*
X127598497Y-80811769D01*
X127639500Y-81017908D01*
X127639500Y-81228092D01*
X127598497Y-81434231D01*
X127583771Y-81469782D01*
X127518063Y-81628414D01*
X127401293Y-81803173D01*
X127252673Y-81951793D01*
X127077914Y-82068563D01*
X127077913Y-82068564D01*
X127077912Y-82068564D01*
X126883731Y-82148997D01*
X126677592Y-82190000D01*
X126467408Y-82190000D01*
X126261269Y-82148997D01*
X126067088Y-82068564D01*
X126067087Y-82068564D01*
X126067086Y-82068563D01*
X125892327Y-81951793D01*
X125743707Y-81803173D01*
X125626937Y-81628414D01*
X125561229Y-81469782D01*
X125546503Y-81434231D01*
X125505500Y-81228092D01*
X125505500Y-81017908D01*
X125546503Y-80811769D01*
X125626936Y-80617588D01*
X125627851Y-80616218D01*
X125743707Y-80442827D01*
X125892327Y-80294207D01*
X126067086Y-80177437D01*
X126069046Y-80176625D01*
X126261269Y-80097003D01*
X126467408Y-80056000D01*
X126677592Y-80056000D01*
X126883731Y-80097003D01*
G37*
G36*
X145496012Y-80146927D02*
G01*
X145645312Y-80176624D01*
X145809284Y-80244544D01*
X145956854Y-80343147D01*
X146082353Y-80468646D01*
X146180956Y-80616216D01*
X146248876Y-80780188D01*
X146283500Y-80954259D01*
X146283500Y-81131741D01*
X146248876Y-81305812D01*
X146180956Y-81469784D01*
X146082353Y-81617354D01*
X145956854Y-81742853D01*
X145809284Y-81841456D01*
X145645312Y-81909376D01*
X145496012Y-81939073D01*
X145471242Y-81944000D01*
X145293758Y-81944000D01*
X145268988Y-81939073D01*
X145119688Y-81909376D01*
X144955716Y-81841456D01*
X144808146Y-81742853D01*
X144682647Y-81617354D01*
X144584044Y-81469784D01*
X144516124Y-81305812D01*
X144481500Y-81131741D01*
X144481500Y-80954259D01*
X144516124Y-80780188D01*
X144584044Y-80616216D01*
X144682647Y-80468646D01*
X144808146Y-80343147D01*
X144955716Y-80244544D01*
X145119688Y-80176624D01*
X145268988Y-80146927D01*
X145293758Y-80142000D01*
X145471242Y-80142000D01*
X145496012Y-80146927D01*
G37*
G36*
X122947403Y-77420075D02*
G01*
X123175071Y-77514378D01*
X123379966Y-77651285D01*
X123554215Y-77825534D01*
X123625199Y-77931769D01*
X123691123Y-78030431D01*
X123785425Y-78258097D01*
X123833500Y-78499786D01*
X123833500Y-78746214D01*
X123785425Y-78987903D01*
X123696391Y-79202852D01*
X123691122Y-79215571D01*
X123554215Y-79420466D01*
X123379966Y-79594715D01*
X123175071Y-79731622D01*
X123175070Y-79731623D01*
X123175069Y-79731623D01*
X122947403Y-79825925D01*
X122705714Y-79874000D01*
X122459286Y-79874000D01*
X122217597Y-79825925D01*
X121989931Y-79731623D01*
X121989930Y-79731623D01*
X121989929Y-79731622D01*
X121785034Y-79594715D01*
X121610785Y-79420466D01*
X121473878Y-79215571D01*
X121468610Y-79202852D01*
X121379575Y-78987903D01*
X121331500Y-78746214D01*
X121331500Y-78499786D01*
X121379575Y-78258097D01*
X121473877Y-78030431D01*
X121539801Y-77931769D01*
X121610785Y-77825534D01*
X121785034Y-77651285D01*
X121989929Y-77514378D01*
X122217597Y-77420075D01*
X122459286Y-77372000D01*
X122705714Y-77372000D01*
X122947403Y-77420075D01*
G37*
G36*
X142123731Y-77557003D02*
G01*
X142315954Y-77636625D01*
X142317914Y-77637437D01*
X142492673Y-77754207D01*
X142641293Y-77902827D01*
X142757149Y-78076218D01*
X142758064Y-78077588D01*
X142838497Y-78271769D01*
X142879500Y-78477908D01*
X142879500Y-78688092D01*
X142838497Y-78894231D01*
X142823771Y-78929782D01*
X142758063Y-79088414D01*
X142641293Y-79263173D01*
X142492673Y-79411793D01*
X142317914Y-79528563D01*
X142317913Y-79528564D01*
X142317912Y-79528564D01*
X142123731Y-79608997D01*
X141917592Y-79650000D01*
X141707408Y-79650000D01*
X141501269Y-79608997D01*
X141307088Y-79528564D01*
X141307087Y-79528564D01*
X141307086Y-79528563D01*
X141132327Y-79411793D01*
X140983707Y-79263173D01*
X140866937Y-79088414D01*
X140801229Y-78929782D01*
X140786503Y-78894231D01*
X140745500Y-78688092D01*
X140745500Y-78477908D01*
X140786503Y-78271769D01*
X140866936Y-78077588D01*
X140867851Y-78076218D01*
X140983707Y-77902827D01*
X141132327Y-77754207D01*
X141307086Y-77637437D01*
X141309046Y-77636625D01*
X141501269Y-77557003D01*
X141707408Y-77516000D01*
X141917592Y-77516000D01*
X142123731Y-77557003D01*
G37*
G36*
X126883731Y-77557003D02*
G01*
X127075954Y-77636625D01*
X127077914Y-77637437D01*
X127252673Y-77754207D01*
X127401293Y-77902827D01*
X127517149Y-78076218D01*
X127518064Y-78077588D01*
X127598497Y-78271769D01*
X127639500Y-78477908D01*
X127639500Y-78688092D01*
X127598497Y-78894231D01*
X127583771Y-78929782D01*
X127518063Y-79088414D01*
X127401293Y-79263173D01*
X127252673Y-79411793D01*
X127077914Y-79528563D01*
X127077913Y-79528564D01*
X127077912Y-79528564D01*
X126883731Y-79608997D01*
X126677592Y-79650000D01*
X126467408Y-79650000D01*
X126261269Y-79608997D01*
X126067088Y-79528564D01*
X126067087Y-79528564D01*
X126067086Y-79528563D01*
X125892327Y-79411793D01*
X125743707Y-79263173D01*
X125626937Y-79088414D01*
X125561229Y-78929782D01*
X125546503Y-78894231D01*
X125505500Y-78688092D01*
X125505500Y-78477908D01*
X125546503Y-78271769D01*
X125626936Y-78077588D01*
X125627851Y-78076218D01*
X125743707Y-77902827D01*
X125892327Y-77754207D01*
X126067086Y-77637437D01*
X126069046Y-77636625D01*
X126261269Y-77557003D01*
X126467408Y-77516000D01*
X126677592Y-77516000D01*
X126883731Y-77557003D01*
G37*
G36*
X145496012Y-77606927D02*
G01*
X145645312Y-77636624D01*
X145809284Y-77704544D01*
X145956854Y-77803147D01*
X146082353Y-77928646D01*
X146180956Y-78076216D01*
X146248876Y-78240188D01*
X146283500Y-78414259D01*
X146283500Y-78591741D01*
X146248876Y-78765812D01*
X146180956Y-78929784D01*
X146082353Y-79077354D01*
X145956854Y-79202853D01*
X145809284Y-79301456D01*
X145645312Y-79369376D01*
X145496012Y-79399073D01*
X145471242Y-79404000D01*
X145293758Y-79404000D01*
X145268988Y-79399073D01*
X145119688Y-79369376D01*
X144955716Y-79301456D01*
X144808146Y-79202853D01*
X144682647Y-79077354D01*
X144584044Y-78929784D01*
X144516124Y-78765812D01*
X144481500Y-78591741D01*
X144481500Y-78414259D01*
X144516124Y-78240188D01*
X144584044Y-78076216D01*
X144682647Y-77928646D01*
X144808146Y-77803147D01*
X144955716Y-77704544D01*
X145119688Y-77636624D01*
X145268988Y-77606927D01*
X145293758Y-77602000D01*
X145471242Y-77602000D01*
X145496012Y-77606927D01*
G37*
G36*
X174608731Y-77217003D02*
G01*
X174802912Y-77297436D01*
X174802914Y-77297437D01*
X174977673Y-77414207D01*
X175126293Y-77562827D01*
X175220985Y-77704544D01*
X175243064Y-77737588D01*
X175323497Y-77931769D01*
X175364500Y-78137908D01*
X175364500Y-78348092D01*
X175323497Y-78554231D01*
X175243975Y-78746213D01*
X175243063Y-78748414D01*
X175126293Y-78923173D01*
X174977673Y-79071793D01*
X174802914Y-79188563D01*
X174802913Y-79188564D01*
X174802912Y-79188564D01*
X174608731Y-79268997D01*
X174402592Y-79310000D01*
X174192408Y-79310000D01*
X173986269Y-79268997D01*
X173792088Y-79188564D01*
X173792087Y-79188564D01*
X173792086Y-79188563D01*
X173617327Y-79071793D01*
X173468707Y-78923173D01*
X173351937Y-78748414D01*
X173351025Y-78746213D01*
X173271503Y-78554231D01*
X173230500Y-78348092D01*
X173230500Y-78137908D01*
X173271503Y-77931769D01*
X173351936Y-77737588D01*
X173374015Y-77704544D01*
X173468707Y-77562827D01*
X173617327Y-77414207D01*
X173792086Y-77297437D01*
X173792088Y-77297436D01*
X173986269Y-77217003D01*
X174192408Y-77176000D01*
X174402592Y-77176000D01*
X174608731Y-77217003D01*
G37*
G36*
X171433731Y-77217003D02*
G01*
X171627912Y-77297436D01*
X171627914Y-77297437D01*
X171802673Y-77414207D01*
X171951293Y-77562827D01*
X172045985Y-77704544D01*
X172068064Y-77737588D01*
X172148497Y-77931769D01*
X172189500Y-78137908D01*
X172189500Y-78348092D01*
X172148497Y-78554231D01*
X172068975Y-78746213D01*
X172068063Y-78748414D01*
X171951293Y-78923173D01*
X171802673Y-79071793D01*
X171627914Y-79188563D01*
X171627913Y-79188564D01*
X171627912Y-79188564D01*
X171433731Y-79268997D01*
X171227592Y-79310000D01*
X171017408Y-79310000D01*
X170811269Y-79268997D01*
X170617088Y-79188564D01*
X170617087Y-79188564D01*
X170617086Y-79188563D01*
X170442327Y-79071793D01*
X170293707Y-78923173D01*
X170176937Y-78748414D01*
X170176025Y-78746213D01*
X170096503Y-78554231D01*
X170055500Y-78348092D01*
X170055500Y-78137908D01*
X170096503Y-77931769D01*
X170176936Y-77737588D01*
X170199015Y-77704544D01*
X170293707Y-77562827D01*
X170442327Y-77414207D01*
X170617086Y-77297437D01*
X170617088Y-77297436D01*
X170811269Y-77217003D01*
X171017408Y-77176000D01*
X171227592Y-77176000D01*
X171433731Y-77217003D01*
G37*
G36*
X163813731Y-77217003D02*
G01*
X164007912Y-77297436D01*
X164007914Y-77297437D01*
X164182673Y-77414207D01*
X164331293Y-77562827D01*
X164425985Y-77704544D01*
X164448064Y-77737588D01*
X164528497Y-77931769D01*
X164569500Y-78137908D01*
X164569500Y-78348092D01*
X164528497Y-78554231D01*
X164448975Y-78746213D01*
X164448063Y-78748414D01*
X164331293Y-78923173D01*
X164182673Y-79071793D01*
X164007914Y-79188563D01*
X164007913Y-79188564D01*
X164007912Y-79188564D01*
X163813731Y-79268997D01*
X163607592Y-79310000D01*
X163397408Y-79310000D01*
X163191269Y-79268997D01*
X162997088Y-79188564D01*
X162997087Y-79188564D01*
X162997086Y-79188563D01*
X162822327Y-79071793D01*
X162673707Y-78923173D01*
X162556937Y-78748414D01*
X162556025Y-78746213D01*
X162476503Y-78554231D01*
X162435500Y-78348092D01*
X162435500Y-78137908D01*
X162476503Y-77931769D01*
X162556936Y-77737588D01*
X162579015Y-77704544D01*
X162673707Y-77562827D01*
X162822327Y-77414207D01*
X162997086Y-77297437D01*
X162997088Y-77297436D01*
X163191269Y-77217003D01*
X163397408Y-77176000D01*
X163607592Y-77176000D01*
X163813731Y-77217003D01*
G37*
G36*
X160638731Y-77217003D02*
G01*
X160832912Y-77297436D01*
X160832914Y-77297437D01*
X161007673Y-77414207D01*
X161156293Y-77562827D01*
X161250985Y-77704544D01*
X161273064Y-77737588D01*
X161353497Y-77931769D01*
X161394500Y-78137908D01*
X161394500Y-78348092D01*
X161353497Y-78554231D01*
X161273975Y-78746213D01*
X161273063Y-78748414D01*
X161156293Y-78923173D01*
X161007673Y-79071793D01*
X160832914Y-79188563D01*
X160832913Y-79188564D01*
X160832912Y-79188564D01*
X160638731Y-79268997D01*
X160432592Y-79310000D01*
X160222408Y-79310000D01*
X160016269Y-79268997D01*
X159822088Y-79188564D01*
X159822087Y-79188564D01*
X159822086Y-79188563D01*
X159647327Y-79071793D01*
X159498707Y-78923173D01*
X159381937Y-78748414D01*
X159381025Y-78746213D01*
X159301503Y-78554231D01*
X159260500Y-78348092D01*
X159260500Y-78137908D01*
X159301503Y-77931769D01*
X159381936Y-77737588D01*
X159404015Y-77704544D01*
X159498707Y-77562827D01*
X159647327Y-77414207D01*
X159822086Y-77297437D01*
X159822088Y-77297436D01*
X160016269Y-77217003D01*
X160222408Y-77176000D01*
X160432592Y-77176000D01*
X160638731Y-77217003D01*
G37*
G36*
X142123731Y-75017003D02*
G01*
X142315954Y-75096625D01*
X142317914Y-75097437D01*
X142492673Y-75214207D01*
X142641293Y-75362827D01*
X142757149Y-75536218D01*
X142758064Y-75537588D01*
X142838497Y-75731769D01*
X142879500Y-75937908D01*
X142879500Y-76148092D01*
X142838497Y-76354231D01*
X142823771Y-76389782D01*
X142758063Y-76548414D01*
X142641293Y-76723173D01*
X142492673Y-76871793D01*
X142317914Y-76988563D01*
X142317913Y-76988564D01*
X142317912Y-76988564D01*
X142123731Y-77068997D01*
X141917592Y-77110000D01*
X141707408Y-77110000D01*
X141501269Y-77068997D01*
X141307088Y-76988564D01*
X141307087Y-76988564D01*
X141307086Y-76988563D01*
X141132327Y-76871793D01*
X140983707Y-76723173D01*
X140866937Y-76548414D01*
X140801229Y-76389782D01*
X140786503Y-76354231D01*
X140745500Y-76148092D01*
X140745500Y-75937908D01*
X140786503Y-75731769D01*
X140866936Y-75537588D01*
X140867851Y-75536218D01*
X140983707Y-75362827D01*
X141132327Y-75214207D01*
X141307086Y-75097437D01*
X141309046Y-75096625D01*
X141501269Y-75017003D01*
X141707408Y-74976000D01*
X141917592Y-74976000D01*
X142123731Y-75017003D01*
G37*
G36*
X126883731Y-75017003D02*
G01*
X127075954Y-75096625D01*
X127077914Y-75097437D01*
X127252673Y-75214207D01*
X127401293Y-75362827D01*
X127517149Y-75536218D01*
X127518064Y-75537588D01*
X127598497Y-75731769D01*
X127639500Y-75937908D01*
X127639500Y-76148092D01*
X127598497Y-76354231D01*
X127583771Y-76389782D01*
X127518063Y-76548414D01*
X127401293Y-76723173D01*
X127252673Y-76871793D01*
X127077914Y-76988563D01*
X127077913Y-76988564D01*
X127077912Y-76988564D01*
X126883731Y-77068997D01*
X126677592Y-77110000D01*
X126467408Y-77110000D01*
X126261269Y-77068997D01*
X126067088Y-76988564D01*
X126067087Y-76988564D01*
X126067086Y-76988563D01*
X125892327Y-76871793D01*
X125743707Y-76723173D01*
X125626937Y-76548414D01*
X125561229Y-76389782D01*
X125546503Y-76354231D01*
X125505500Y-76148092D01*
X125505500Y-75937908D01*
X125546503Y-75731769D01*
X125626936Y-75537588D01*
X125627851Y-75536218D01*
X125743707Y-75362827D01*
X125892327Y-75214207D01*
X126067086Y-75097437D01*
X126069046Y-75096625D01*
X126261269Y-75017003D01*
X126467408Y-74976000D01*
X126677592Y-74976000D01*
X126883731Y-75017003D01*
G37*
G36*
X145496012Y-75066927D02*
G01*
X145645312Y-75096624D01*
X145809284Y-75164544D01*
X145956854Y-75263147D01*
X146082353Y-75388646D01*
X146180956Y-75536216D01*
X146248876Y-75700188D01*
X146283500Y-75874259D01*
X146283500Y-76051741D01*
X146248876Y-76225812D01*
X146180956Y-76389784D01*
X146082353Y-76537354D01*
X145956854Y-76662853D01*
X145809284Y-76761456D01*
X145645312Y-76829376D01*
X145496012Y-76859073D01*
X145471242Y-76864000D01*
X145293758Y-76864000D01*
X145268988Y-76859073D01*
X145119688Y-76829376D01*
X144955716Y-76761456D01*
X144808146Y-76662853D01*
X144682647Y-76537354D01*
X144584044Y-76389784D01*
X144516124Y-76225812D01*
X144481500Y-76051741D01*
X144481500Y-75874259D01*
X144516124Y-75700188D01*
X144584044Y-75536216D01*
X144682647Y-75388646D01*
X144808146Y-75263147D01*
X144955716Y-75164544D01*
X145119688Y-75096624D01*
X145268988Y-75066927D01*
X145293758Y-75062000D01*
X145471242Y-75062000D01*
X145496012Y-75066927D01*
G37*
G36*
X109356706Y-74123000D02*
G01*
X108082500Y-75397206D01*
X106808294Y-74123000D01*
X108082500Y-72848794D01*
X109356706Y-74123000D01*
G37*
G36*
X195056706Y-74123000D02*
G01*
X193782500Y-75397206D01*
X192508294Y-74123000D01*
X193782500Y-72848794D01*
X195056706Y-74123000D01*
G37*
G36*
X142123731Y-72477003D02*
G01*
X142315954Y-72556625D01*
X142317914Y-72557437D01*
X142492673Y-72674207D01*
X142641293Y-72822827D01*
X142757149Y-72996218D01*
X142758064Y-72997588D01*
X142838497Y-73191769D01*
X142879500Y-73397908D01*
X142879500Y-73608092D01*
X142838497Y-73814231D01*
X142823771Y-73849782D01*
X142758063Y-74008414D01*
X142641293Y-74183173D01*
X142492673Y-74331793D01*
X142317914Y-74448563D01*
X142317913Y-74448564D01*
X142317912Y-74448564D01*
X142123731Y-74528997D01*
X141917592Y-74570000D01*
X141707408Y-74570000D01*
X141501269Y-74528997D01*
X141307088Y-74448564D01*
X141307087Y-74448564D01*
X141307086Y-74448563D01*
X141132327Y-74331793D01*
X140983707Y-74183173D01*
X140866937Y-74008414D01*
X140801229Y-73849782D01*
X140786503Y-73814231D01*
X140745500Y-73608092D01*
X140745500Y-73397908D01*
X140786503Y-73191769D01*
X140866936Y-72997588D01*
X140867851Y-72996218D01*
X140983707Y-72822827D01*
X141132327Y-72674207D01*
X141307086Y-72557437D01*
X141309046Y-72556625D01*
X141501269Y-72477003D01*
X141707408Y-72436000D01*
X141917592Y-72436000D01*
X142123731Y-72477003D01*
G37*
G36*
X126883731Y-72477003D02*
G01*
X127075954Y-72556625D01*
X127077914Y-72557437D01*
X127252673Y-72674207D01*
X127401293Y-72822827D01*
X127517149Y-72996218D01*
X127518064Y-72997588D01*
X127598497Y-73191769D01*
X127639500Y-73397908D01*
X127639500Y-73608092D01*
X127598497Y-73814231D01*
X127583771Y-73849782D01*
X127518063Y-74008414D01*
X127401293Y-74183173D01*
X127252673Y-74331793D01*
X127077914Y-74448563D01*
X127077913Y-74448564D01*
X127077912Y-74448564D01*
X126883731Y-74528997D01*
X126677592Y-74570000D01*
X126467408Y-74570000D01*
X126261269Y-74528997D01*
X126067088Y-74448564D01*
X126067087Y-74448564D01*
X126067086Y-74448563D01*
X125892327Y-74331793D01*
X125743707Y-74183173D01*
X125626937Y-74008414D01*
X125561229Y-73849782D01*
X125546503Y-73814231D01*
X125505500Y-73608092D01*
X125505500Y-73397908D01*
X125546503Y-73191769D01*
X125626936Y-72997588D01*
X125627851Y-72996218D01*
X125743707Y-72822827D01*
X125892327Y-72674207D01*
X126067086Y-72557437D01*
X126069046Y-72556625D01*
X126261269Y-72477003D01*
X126467408Y-72436000D01*
X126677592Y-72436000D01*
X126883731Y-72477003D01*
G37*
G36*
X145496012Y-72526927D02*
G01*
X145645312Y-72556624D01*
X145809284Y-72624544D01*
X145956854Y-72723147D01*
X146082353Y-72848646D01*
X146180956Y-72996216D01*
X146248876Y-73160188D01*
X146283500Y-73334259D01*
X146283500Y-73511741D01*
X146248876Y-73685812D01*
X146180956Y-73849784D01*
X146082353Y-73997354D01*
X145956854Y-74122853D01*
X145809284Y-74221456D01*
X145645312Y-74289376D01*
X145496012Y-74319073D01*
X145471242Y-74324000D01*
X145293758Y-74324000D01*
X145268988Y-74319073D01*
X145119688Y-74289376D01*
X144955716Y-74221456D01*
X144808146Y-74122853D01*
X144682647Y-73997354D01*
X144584044Y-73849784D01*
X144516124Y-73685812D01*
X144481500Y-73511741D01*
X144481500Y-73334259D01*
X144516124Y-73160188D01*
X144584044Y-72996216D01*
X144682647Y-72848646D01*
X144808146Y-72723147D01*
X144955716Y-72624544D01*
X145119688Y-72556624D01*
X145268988Y-72526927D01*
X145293758Y-72522000D01*
X145471242Y-72522000D01*
X145496012Y-72526927D01*
G37*
G36*
X106399961Y-71430876D02*
G01*
X106549261Y-71460573D01*
X106713233Y-71528493D01*
X106860803Y-71627096D01*
X106986302Y-71752595D01*
X107084905Y-71900165D01*
X107152825Y-72064137D01*
X107187449Y-72238208D01*
X107187449Y-72415690D01*
X107152825Y-72589761D01*
X107084905Y-72753733D01*
X106986302Y-72901303D01*
X106860803Y-73026802D01*
X106713233Y-73125405D01*
X106549261Y-73193325D01*
X106399961Y-73223022D01*
X106375191Y-73227949D01*
X106197707Y-73227949D01*
X106172937Y-73223022D01*
X106023637Y-73193325D01*
X105859665Y-73125405D01*
X105712095Y-73026802D01*
X105586596Y-72901303D01*
X105487993Y-72753733D01*
X105420073Y-72589761D01*
X105385449Y-72415690D01*
X105385449Y-72238208D01*
X105420073Y-72064137D01*
X105487993Y-71900165D01*
X105586596Y-71752595D01*
X105712095Y-71627096D01*
X105859665Y-71528493D01*
X106023637Y-71460573D01*
X106172937Y-71430876D01*
X106197707Y-71425949D01*
X106375191Y-71425949D01*
X106399961Y-71430876D01*
G37*
G36*
X195692063Y-71430876D02*
G01*
X195841363Y-71460573D01*
X196005335Y-71528493D01*
X196152905Y-71627096D01*
X196278404Y-71752595D01*
X196377007Y-71900165D01*
X196444927Y-72064137D01*
X196479551Y-72238208D01*
X196479551Y-72415690D01*
X196444927Y-72589761D01*
X196377007Y-72753733D01*
X196278404Y-72901303D01*
X196152905Y-73026802D01*
X196005335Y-73125405D01*
X195841363Y-73193325D01*
X195692063Y-73223022D01*
X195667293Y-73227949D01*
X195489809Y-73227949D01*
X195465039Y-73223022D01*
X195315739Y-73193325D01*
X195151767Y-73125405D01*
X195004197Y-73026802D01*
X194878698Y-72901303D01*
X194780095Y-72753733D01*
X194712175Y-72589761D01*
X194677551Y-72415690D01*
X194677551Y-72238208D01*
X194712175Y-72064137D01*
X194780095Y-71900165D01*
X194878698Y-71752595D01*
X195004197Y-71627096D01*
X195151767Y-71528493D01*
X195315739Y-71460573D01*
X195465039Y-71430876D01*
X195489809Y-71425949D01*
X195667293Y-71425949D01*
X195692063Y-71430876D01*
G37*
G36*
X126883731Y-69937003D02*
G01*
X127075954Y-70016625D01*
X127077914Y-70017437D01*
X127252673Y-70134207D01*
X127401293Y-70282827D01*
X127517149Y-70456218D01*
X127518064Y-70457588D01*
X127598497Y-70651769D01*
X127639500Y-70857908D01*
X127639500Y-71068092D01*
X127598497Y-71274231D01*
X127518064Y-71468412D01*
X127518063Y-71468414D01*
X127401293Y-71643173D01*
X127252673Y-71791793D01*
X127077914Y-71908563D01*
X127077913Y-71908564D01*
X127077912Y-71908564D01*
X126883731Y-71988997D01*
X126677592Y-72030000D01*
X126467408Y-72030000D01*
X126261269Y-71988997D01*
X126067088Y-71908564D01*
X126067087Y-71908564D01*
X126067086Y-71908563D01*
X125892327Y-71791793D01*
X125743707Y-71643173D01*
X125626937Y-71468414D01*
X125626936Y-71468412D01*
X125546503Y-71274231D01*
X125505500Y-71068092D01*
X125505500Y-70857908D01*
X125546503Y-70651769D01*
X125626936Y-70457588D01*
X125627851Y-70456218D01*
X125743707Y-70282827D01*
X125892327Y-70134207D01*
X126067086Y-70017437D01*
X126069046Y-70016625D01*
X126261269Y-69937003D01*
X126467408Y-69896000D01*
X126677592Y-69896000D01*
X126883731Y-69937003D01*
G37*
G36*
X142123731Y-69937003D02*
G01*
X142315954Y-70016625D01*
X142317914Y-70017437D01*
X142492673Y-70134207D01*
X142641293Y-70282827D01*
X142757149Y-70456218D01*
X142758064Y-70457588D01*
X142838497Y-70651769D01*
X142879500Y-70857908D01*
X142879500Y-71068092D01*
X142838497Y-71274231D01*
X142758064Y-71468412D01*
X142758063Y-71468414D01*
X142641293Y-71643173D01*
X142492673Y-71791793D01*
X142317914Y-71908563D01*
X142317913Y-71908564D01*
X142317912Y-71908564D01*
X142123731Y-71988997D01*
X141917592Y-72030000D01*
X141707408Y-72030000D01*
X141501269Y-71988997D01*
X141307088Y-71908564D01*
X141307087Y-71908564D01*
X141307086Y-71908563D01*
X141132327Y-71791793D01*
X140983707Y-71643173D01*
X140866937Y-71468414D01*
X140866936Y-71468412D01*
X140786503Y-71274231D01*
X140745500Y-71068092D01*
X140745500Y-70857908D01*
X140786503Y-70651769D01*
X140866936Y-70457588D01*
X140867851Y-70456218D01*
X140983707Y-70282827D01*
X141132327Y-70134207D01*
X141307086Y-70017437D01*
X141309046Y-70016625D01*
X141501269Y-69937003D01*
X141707408Y-69896000D01*
X141917592Y-69896000D01*
X142123731Y-69937003D01*
G37*
G36*
X145496012Y-69986927D02*
G01*
X145645312Y-70016624D01*
X145809284Y-70084544D01*
X145956854Y-70183147D01*
X146082353Y-70308646D01*
X146180956Y-70456216D01*
X146248876Y-70620188D01*
X146283500Y-70794259D01*
X146283500Y-70971741D01*
X146248876Y-71145812D01*
X146180956Y-71309784D01*
X146082353Y-71457354D01*
X145956854Y-71582853D01*
X145809284Y-71681456D01*
X145645312Y-71749376D01*
X145496012Y-71779073D01*
X145471242Y-71784000D01*
X145293758Y-71784000D01*
X145268988Y-71779073D01*
X145119688Y-71749376D01*
X144955716Y-71681456D01*
X144808146Y-71582853D01*
X144682647Y-71457354D01*
X144584044Y-71309784D01*
X144516124Y-71145812D01*
X144481500Y-70971741D01*
X144481500Y-70794259D01*
X144516124Y-70620188D01*
X144584044Y-70456216D01*
X144682647Y-70308646D01*
X144808146Y-70183147D01*
X144955716Y-70084544D01*
X145119688Y-70016624D01*
X145268988Y-69986927D01*
X145293758Y-69982000D01*
X145471242Y-69982000D01*
X145496012Y-69986927D01*
G37*
G36*
X139583731Y-68667003D02*
G01*
X139777912Y-68747436D01*
X139777914Y-68747437D01*
X139952673Y-68864207D01*
X140101293Y-69012827D01*
X140161659Y-69103172D01*
X140218064Y-69187588D01*
X140298497Y-69381769D01*
X140339500Y-69587908D01*
X140339500Y-69798092D01*
X140298497Y-70004231D01*
X140218064Y-70198412D01*
X140218063Y-70198414D01*
X140101293Y-70373173D01*
X139952673Y-70521793D01*
X139777914Y-70638563D01*
X139777913Y-70638564D01*
X139777912Y-70638564D01*
X139583731Y-70718997D01*
X139377592Y-70760000D01*
X139167408Y-70760000D01*
X138961269Y-70718997D01*
X138767088Y-70638564D01*
X138767087Y-70638564D01*
X138767086Y-70638563D01*
X138592327Y-70521793D01*
X138443707Y-70373173D01*
X138326937Y-70198414D01*
X138326936Y-70198412D01*
X138246503Y-70004231D01*
X138205500Y-69798092D01*
X138205500Y-69587908D01*
X138246503Y-69381769D01*
X138326936Y-69187588D01*
X138383341Y-69103172D01*
X138443707Y-69012827D01*
X138592327Y-68864207D01*
X138767086Y-68747437D01*
X138767088Y-68747436D01*
X138961269Y-68667003D01*
X139167408Y-68626000D01*
X139377592Y-68626000D01*
X139583731Y-68667003D01*
G37*
G36*
X126883731Y-67397003D02*
G01*
X127075954Y-67476625D01*
X127077914Y-67477437D01*
X127252673Y-67594207D01*
X127401293Y-67742827D01*
X127517149Y-67916218D01*
X127518064Y-67917588D01*
X127598497Y-68111769D01*
X127639500Y-68317908D01*
X127639500Y-68528092D01*
X127598497Y-68734231D01*
X127522645Y-68917353D01*
X127518063Y-68928414D01*
X127401293Y-69103173D01*
X127252673Y-69251793D01*
X127077914Y-69368563D01*
X127077913Y-69368564D01*
X127077912Y-69368564D01*
X126883731Y-69448997D01*
X126677592Y-69490000D01*
X126467408Y-69490000D01*
X126261269Y-69448997D01*
X126067088Y-69368564D01*
X126067087Y-69368564D01*
X126067086Y-69368563D01*
X125892327Y-69251793D01*
X125743707Y-69103173D01*
X125626937Y-68928414D01*
X125622355Y-68917353D01*
X125546503Y-68734231D01*
X125505500Y-68528092D01*
X125505500Y-68317908D01*
X125546503Y-68111769D01*
X125626936Y-67917588D01*
X125627851Y-67916218D01*
X125743707Y-67742827D01*
X125892327Y-67594207D01*
X126067086Y-67477437D01*
X126069046Y-67476625D01*
X126261269Y-67397003D01*
X126467408Y-67356000D01*
X126677592Y-67356000D01*
X126883731Y-67397003D01*
G37*
G36*
X142123731Y-67397003D02*
G01*
X142315954Y-67476625D01*
X142317914Y-67477437D01*
X142492673Y-67594207D01*
X142641293Y-67742827D01*
X142757149Y-67916218D01*
X142758064Y-67917588D01*
X142838497Y-68111769D01*
X142879500Y-68317908D01*
X142879500Y-68528092D01*
X142838497Y-68734231D01*
X142762645Y-68917353D01*
X142758063Y-68928414D01*
X142641293Y-69103173D01*
X142492673Y-69251793D01*
X142317914Y-69368563D01*
X142317913Y-69368564D01*
X142317912Y-69368564D01*
X142123731Y-69448997D01*
X141917592Y-69490000D01*
X141707408Y-69490000D01*
X141501269Y-69448997D01*
X141307088Y-69368564D01*
X141307087Y-69368564D01*
X141307086Y-69368563D01*
X141132327Y-69251793D01*
X140983707Y-69103173D01*
X140866937Y-68928414D01*
X140862355Y-68917353D01*
X140786503Y-68734231D01*
X140745500Y-68528092D01*
X140745500Y-68317908D01*
X140786503Y-68111769D01*
X140866936Y-67917588D01*
X140867851Y-67916218D01*
X140983707Y-67742827D01*
X141132327Y-67594207D01*
X141307086Y-67477437D01*
X141309046Y-67476625D01*
X141501269Y-67397003D01*
X141707408Y-67356000D01*
X141917592Y-67356000D01*
X142123731Y-67397003D01*
G37*
G36*
X145496012Y-67446927D02*
G01*
X145645312Y-67476624D01*
X145809284Y-67544544D01*
X145956854Y-67643147D01*
X146082353Y-67768646D01*
X146180956Y-67916216D01*
X146248876Y-68080188D01*
X146283500Y-68254259D01*
X146283500Y-68431741D01*
X146248876Y-68605812D01*
X146180956Y-68769784D01*
X146082353Y-68917354D01*
X145956854Y-69042853D01*
X145809284Y-69141456D01*
X145645312Y-69209376D01*
X145496012Y-69239073D01*
X145471242Y-69244000D01*
X145293758Y-69244000D01*
X145268988Y-69239073D01*
X145119688Y-69209376D01*
X144955716Y-69141456D01*
X144808146Y-69042853D01*
X144682647Y-68917354D01*
X144584044Y-68769784D01*
X144516124Y-68605812D01*
X144481500Y-68431741D01*
X144481500Y-68254259D01*
X144516124Y-68080188D01*
X144584044Y-67916216D01*
X144682647Y-67768646D01*
X144808146Y-67643147D01*
X144955716Y-67544544D01*
X145119688Y-67476624D01*
X145268988Y-67446927D01*
X145293758Y-67442000D01*
X145471242Y-67442000D01*
X145496012Y-67446927D01*
G37*
G36*
X139583731Y-66127003D02*
G01*
X139777912Y-66207436D01*
X139777914Y-66207437D01*
X139952673Y-66324207D01*
X140101293Y-66472827D01*
X140161659Y-66563172D01*
X140218064Y-66647588D01*
X140298497Y-66841769D01*
X140339500Y-67047908D01*
X140339500Y-67258092D01*
X140298497Y-67464231D01*
X140218064Y-67658412D01*
X140218063Y-67658414D01*
X140101293Y-67833173D01*
X139952673Y-67981793D01*
X139777914Y-68098563D01*
X139777913Y-68098564D01*
X139777912Y-68098564D01*
X139583731Y-68178997D01*
X139377592Y-68220000D01*
X139167408Y-68220000D01*
X138961269Y-68178997D01*
X138767088Y-68098564D01*
X138767087Y-68098564D01*
X138767086Y-68098563D01*
X138592327Y-67981793D01*
X138443707Y-67833173D01*
X138326937Y-67658414D01*
X138326936Y-67658412D01*
X138246503Y-67464231D01*
X138205500Y-67258092D01*
X138205500Y-67047908D01*
X138246503Y-66841769D01*
X138326936Y-66647588D01*
X138383341Y-66563172D01*
X138443707Y-66472827D01*
X138592327Y-66324207D01*
X138767086Y-66207437D01*
X138767088Y-66207436D01*
X138961269Y-66127003D01*
X139167408Y-66086000D01*
X139377592Y-66086000D01*
X139583731Y-66127003D01*
G37*
G36*
X152170732Y-65342414D02*
G01*
X152312539Y-65401153D01*
X152364915Y-65422848D01*
X152539674Y-65539618D01*
X152688294Y-65688238D01*
X152805064Y-65862997D01*
X152805065Y-65862999D01*
X152885498Y-66057180D01*
X152926501Y-66263319D01*
X152926501Y-66473503D01*
X152885498Y-66679642D01*
X152818342Y-66841769D01*
X152805064Y-66873825D01*
X152688294Y-67048584D01*
X152539674Y-67197204D01*
X152364915Y-67313974D01*
X152364914Y-67313975D01*
X152364913Y-67313975D01*
X152170732Y-67394408D01*
X151964593Y-67435411D01*
X151754409Y-67435411D01*
X151548270Y-67394408D01*
X151354089Y-67313975D01*
X151354088Y-67313975D01*
X151354087Y-67313974D01*
X151179328Y-67197204D01*
X151030708Y-67048584D01*
X150913938Y-66873825D01*
X150900660Y-66841769D01*
X150833504Y-66679642D01*
X150792501Y-66473503D01*
X150792501Y-66263319D01*
X150833504Y-66057180D01*
X150913937Y-65862999D01*
X150913938Y-65862997D01*
X151030708Y-65688238D01*
X151179328Y-65539618D01*
X151354087Y-65422848D01*
X151406463Y-65401153D01*
X151548270Y-65342414D01*
X151754409Y-65301411D01*
X151964593Y-65301411D01*
X152170732Y-65342414D01*
G37*
G36*
X142123731Y-64857003D02*
G01*
X142315954Y-64936625D01*
X142317914Y-64937437D01*
X142492673Y-65054207D01*
X142641293Y-65202827D01*
X142757149Y-65376218D01*
X142758064Y-65377588D01*
X142838497Y-65571769D01*
X142879500Y-65777908D01*
X142879500Y-65988092D01*
X142838497Y-66194231D01*
X142762645Y-66377353D01*
X142758063Y-66388414D01*
X142641293Y-66563173D01*
X142492673Y-66711793D01*
X142317914Y-66828563D01*
X142317913Y-66828564D01*
X142317912Y-66828564D01*
X142123731Y-66908997D01*
X141917592Y-66950000D01*
X141707408Y-66950000D01*
X141501269Y-66908997D01*
X141307088Y-66828564D01*
X141307087Y-66828564D01*
X141307086Y-66828563D01*
X141132327Y-66711793D01*
X140983707Y-66563173D01*
X140866937Y-66388414D01*
X140862355Y-66377353D01*
X140786503Y-66194231D01*
X140745500Y-65988092D01*
X140745500Y-65777908D01*
X140786503Y-65571769D01*
X140866936Y-65377588D01*
X140867851Y-65376218D01*
X140983707Y-65202827D01*
X141132327Y-65054207D01*
X141307086Y-64937437D01*
X141309046Y-64936625D01*
X141501269Y-64857003D01*
X141707408Y-64816000D01*
X141917592Y-64816000D01*
X142123731Y-64857003D01*
G37*
G36*
X126883731Y-64857003D02*
G01*
X127075954Y-64936625D01*
X127077914Y-64937437D01*
X127252673Y-65054207D01*
X127401293Y-65202827D01*
X127517149Y-65376218D01*
X127518064Y-65377588D01*
X127598497Y-65571769D01*
X127639500Y-65777908D01*
X127639500Y-65988092D01*
X127598497Y-66194231D01*
X127522645Y-66377353D01*
X127518063Y-66388414D01*
X127401293Y-66563173D01*
X127252673Y-66711793D01*
X127077914Y-66828563D01*
X127077913Y-66828564D01*
X127077912Y-66828564D01*
X126883731Y-66908997D01*
X126677592Y-66950000D01*
X126467408Y-66950000D01*
X126261269Y-66908997D01*
X126067088Y-66828564D01*
X126067087Y-66828564D01*
X126067086Y-66828563D01*
X125892327Y-66711793D01*
X125743707Y-66563173D01*
X125626937Y-66388414D01*
X125622355Y-66377353D01*
X125546503Y-66194231D01*
X125505500Y-65988092D01*
X125505500Y-65777908D01*
X125546503Y-65571769D01*
X125626936Y-65377588D01*
X125627851Y-65376218D01*
X125743707Y-65202827D01*
X125892327Y-65054207D01*
X126067086Y-64937437D01*
X126069046Y-64936625D01*
X126261269Y-64857003D01*
X126467408Y-64816000D01*
X126677592Y-64816000D01*
X126883731Y-64857003D01*
G37*
G36*
X145496012Y-64906927D02*
G01*
X145645312Y-64936624D01*
X145809284Y-65004544D01*
X145956854Y-65103147D01*
X146082353Y-65228646D01*
X146180956Y-65376216D01*
X146248876Y-65540188D01*
X146283500Y-65714259D01*
X146283500Y-65891741D01*
X146248876Y-66065812D01*
X146180956Y-66229784D01*
X146082353Y-66377354D01*
X145956854Y-66502853D01*
X145809284Y-66601456D01*
X145645312Y-66669376D01*
X145496012Y-66699073D01*
X145471242Y-66704000D01*
X145293758Y-66704000D01*
X145268988Y-66699073D01*
X145119688Y-66669376D01*
X144955716Y-66601456D01*
X144808146Y-66502853D01*
X144682647Y-66377354D01*
X144584044Y-66229784D01*
X144516124Y-66065812D01*
X144481500Y-65891741D01*
X144481500Y-65714259D01*
X144516124Y-65540188D01*
X144584044Y-65376216D01*
X144682647Y-65228646D01*
X144808146Y-65103147D01*
X144955716Y-65004544D01*
X145119688Y-64936624D01*
X145268988Y-64906927D01*
X145293758Y-64902000D01*
X145471242Y-64902000D01*
X145496012Y-64906927D01*
G37*
G36*
X153966783Y-63546363D02*
G01*
X154160964Y-63626796D01*
X154160966Y-63626797D01*
X154335725Y-63743567D01*
X154484345Y-63892187D01*
X154601115Y-64066946D01*
X154601116Y-64066948D01*
X154681549Y-64261129D01*
X154722552Y-64467268D01*
X154722552Y-64677452D01*
X154681549Y-64883591D01*
X154659245Y-64937437D01*
X154601115Y-65077774D01*
X154484345Y-65252533D01*
X154335725Y-65401153D01*
X154160966Y-65517923D01*
X154160965Y-65517924D01*
X154160964Y-65517924D01*
X153966783Y-65598357D01*
X153760644Y-65639360D01*
X153550460Y-65639360D01*
X153344321Y-65598357D01*
X153150140Y-65517924D01*
X153150139Y-65517924D01*
X153150138Y-65517923D01*
X152975379Y-65401153D01*
X152826759Y-65252533D01*
X152709989Y-65077774D01*
X152651859Y-64937437D01*
X152629555Y-64883591D01*
X152588552Y-64677452D01*
X152588552Y-64467268D01*
X152629555Y-64261129D01*
X152709988Y-64066948D01*
X152709989Y-64066946D01*
X152826759Y-63892187D01*
X152975379Y-63743567D01*
X153150138Y-63626797D01*
X153150140Y-63626796D01*
X153344321Y-63546363D01*
X153550460Y-63505360D01*
X153760644Y-63505360D01*
X153966783Y-63546363D01*
G37*
G36*
X142123731Y-62317003D02*
G01*
X142315954Y-62396625D01*
X142317914Y-62397437D01*
X142492673Y-62514207D01*
X142641293Y-62662827D01*
X142757149Y-62836218D01*
X142758064Y-62837588D01*
X142838497Y-63031769D01*
X142879500Y-63237908D01*
X142879500Y-63448092D01*
X142838497Y-63654231D01*
X142777162Y-63802305D01*
X142758063Y-63848414D01*
X142641293Y-64023173D01*
X142492673Y-64171793D01*
X142317914Y-64288563D01*
X142317913Y-64288564D01*
X142317912Y-64288564D01*
X142123731Y-64368997D01*
X141917592Y-64410000D01*
X141707408Y-64410000D01*
X141501269Y-64368997D01*
X141307088Y-64288564D01*
X141307087Y-64288564D01*
X141307086Y-64288563D01*
X141132327Y-64171793D01*
X140983707Y-64023173D01*
X140866937Y-63848414D01*
X140847838Y-63802305D01*
X140786503Y-63654231D01*
X140745500Y-63448092D01*
X140745500Y-63237908D01*
X140786503Y-63031769D01*
X140866936Y-62837588D01*
X140867851Y-62836218D01*
X140983707Y-62662827D01*
X141132327Y-62514207D01*
X141307086Y-62397437D01*
X141309046Y-62396625D01*
X141501269Y-62317003D01*
X141707408Y-62276000D01*
X141917592Y-62276000D01*
X142123731Y-62317003D01*
G37*
G36*
X126883731Y-62317003D02*
G01*
X127075954Y-62396625D01*
X127077914Y-62397437D01*
X127252673Y-62514207D01*
X127401293Y-62662827D01*
X127517149Y-62836218D01*
X127518064Y-62837588D01*
X127598497Y-63031769D01*
X127639500Y-63237908D01*
X127639500Y-63448092D01*
X127598497Y-63654231D01*
X127537162Y-63802305D01*
X127518063Y-63848414D01*
X127401293Y-64023173D01*
X127252673Y-64171793D01*
X127077914Y-64288563D01*
X127077913Y-64288564D01*
X127077912Y-64288564D01*
X126883731Y-64368997D01*
X126677592Y-64410000D01*
X126467408Y-64410000D01*
X126261269Y-64368997D01*
X126067088Y-64288564D01*
X126067087Y-64288564D01*
X126067086Y-64288563D01*
X125892327Y-64171793D01*
X125743707Y-64023173D01*
X125626937Y-63848414D01*
X125607838Y-63802305D01*
X125546503Y-63654231D01*
X125505500Y-63448092D01*
X125505500Y-63237908D01*
X125546503Y-63031769D01*
X125626936Y-62837588D01*
X125627851Y-62836218D01*
X125743707Y-62662827D01*
X125892327Y-62514207D01*
X126067086Y-62397437D01*
X126069046Y-62396625D01*
X126261269Y-62317003D01*
X126467408Y-62276000D01*
X126677592Y-62276000D01*
X126883731Y-62317003D01*
G37*
G36*
X145496012Y-62366927D02*
G01*
X145645312Y-62396624D01*
X145809284Y-62464544D01*
X145956854Y-62563147D01*
X146082353Y-62688646D01*
X146180956Y-62836216D01*
X146248876Y-63000188D01*
X146283500Y-63174259D01*
X146283500Y-63351741D01*
X146248876Y-63525812D01*
X146180956Y-63689784D01*
X146082353Y-63837354D01*
X145956854Y-63962853D01*
X145809284Y-64061456D01*
X145645312Y-64129376D01*
X145496012Y-64159073D01*
X145471242Y-64164000D01*
X145293758Y-64164000D01*
X145268988Y-64159073D01*
X145119688Y-64129376D01*
X144955716Y-64061456D01*
X144808146Y-63962853D01*
X144682647Y-63837354D01*
X144584044Y-63689784D01*
X144516124Y-63525812D01*
X144481500Y-63351741D01*
X144481500Y-63174259D01*
X144516124Y-63000188D01*
X144584044Y-62836216D01*
X144682647Y-62688646D01*
X144808146Y-62563147D01*
X144955716Y-62464544D01*
X145119688Y-62396624D01*
X145268988Y-62366927D01*
X145293758Y-62362000D01*
X145471242Y-62362000D01*
X145496012Y-62366927D01*
G37*
G36*
X155762835Y-61750311D02*
G01*
X155952796Y-61828996D01*
X155957018Y-61830745D01*
X156131777Y-61947515D01*
X156280397Y-62096135D01*
X156397167Y-62270894D01*
X156397168Y-62270896D01*
X156477601Y-62465077D01*
X156518604Y-62671216D01*
X156518604Y-62881400D01*
X156477601Y-63087539D01*
X156415315Y-63237910D01*
X156397167Y-63281722D01*
X156280397Y-63456481D01*
X156131777Y-63605101D01*
X155957018Y-63721871D01*
X155957017Y-63721872D01*
X155957016Y-63721872D01*
X155762835Y-63802305D01*
X155556696Y-63843308D01*
X155346512Y-63843308D01*
X155140373Y-63802305D01*
X154946192Y-63721872D01*
X154946191Y-63721872D01*
X154946190Y-63721871D01*
X154771431Y-63605101D01*
X154622811Y-63456481D01*
X154506041Y-63281722D01*
X154487893Y-63237910D01*
X154425607Y-63087539D01*
X154384604Y-62881400D01*
X154384604Y-62671216D01*
X154425607Y-62465077D01*
X154506040Y-62270896D01*
X154506041Y-62270894D01*
X154622811Y-62096135D01*
X154771431Y-61947515D01*
X154946190Y-61830745D01*
X154950412Y-61828996D01*
X155140373Y-61750311D01*
X155346512Y-61709308D01*
X155556696Y-61709308D01*
X155762835Y-61750311D01*
G37*
G36*
X126883731Y-59777003D02*
G01*
X127077912Y-59857436D01*
X127077914Y-59857437D01*
X127252673Y-59974207D01*
X127401293Y-60122827D01*
X127518063Y-60297586D01*
X127518064Y-60297588D01*
X127598497Y-60491769D01*
X127639500Y-60697908D01*
X127639500Y-60908092D01*
X127598497Y-61114231D01*
X127518064Y-61308412D01*
X127518063Y-61308414D01*
X127401293Y-61483173D01*
X127252673Y-61631793D01*
X127077914Y-61748563D01*
X127077913Y-61748564D01*
X127077912Y-61748564D01*
X126883731Y-61828997D01*
X126677592Y-61870000D01*
X126467408Y-61870000D01*
X126261269Y-61828997D01*
X126067088Y-61748564D01*
X126067087Y-61748564D01*
X126067086Y-61748563D01*
X125892327Y-61631793D01*
X125743707Y-61483173D01*
X125626937Y-61308414D01*
X125626936Y-61308412D01*
X125546503Y-61114231D01*
X125505500Y-60908092D01*
X125505500Y-60697908D01*
X125546503Y-60491769D01*
X125626936Y-60297588D01*
X125626937Y-60297586D01*
X125743707Y-60122827D01*
X125892327Y-59974207D01*
X126067086Y-59857437D01*
X126067088Y-59857436D01*
X126261269Y-59777003D01*
X126467408Y-59736000D01*
X126677592Y-59736000D01*
X126883731Y-59777003D01*
G37*
G36*
X142123731Y-59777003D02*
G01*
X142317912Y-59857436D01*
X142317914Y-59857437D01*
X142492673Y-59974207D01*
X142641293Y-60122827D01*
X142758063Y-60297586D01*
X142758064Y-60297588D01*
X142838497Y-60491769D01*
X142879500Y-60697908D01*
X142879500Y-60908092D01*
X142838497Y-61114231D01*
X142758064Y-61308412D01*
X142758063Y-61308414D01*
X142641293Y-61483173D01*
X142492673Y-61631793D01*
X142317914Y-61748563D01*
X142317913Y-61748564D01*
X142317912Y-61748564D01*
X142123731Y-61828997D01*
X141917592Y-61870000D01*
X141707408Y-61870000D01*
X141501269Y-61828997D01*
X141307088Y-61748564D01*
X141307087Y-61748564D01*
X141307086Y-61748563D01*
X141132327Y-61631793D01*
X140983707Y-61483173D01*
X140866937Y-61308414D01*
X140866936Y-61308412D01*
X140786503Y-61114231D01*
X140745500Y-60908092D01*
X140745500Y-60697908D01*
X140786503Y-60491769D01*
X140866936Y-60297588D01*
X140866937Y-60297586D01*
X140983707Y-60122827D01*
X141132327Y-59974207D01*
X141307086Y-59857437D01*
X141307088Y-59857436D01*
X141501269Y-59777003D01*
X141707408Y-59736000D01*
X141917592Y-59736000D01*
X142123731Y-59777003D01*
G37*
G36*
X146283500Y-61624000D02*
G01*
X144481500Y-61624000D01*
X144481500Y-59822000D01*
X146283500Y-59822000D01*
X146283500Y-61624000D01*
G37*
G36*
X126883731Y-57237003D02*
G01*
X127077912Y-57317436D01*
X127077914Y-57317437D01*
X127252673Y-57434207D01*
X127401293Y-57582827D01*
X127518063Y-57757586D01*
X127518064Y-57757588D01*
X127598497Y-57951769D01*
X127639500Y-58157908D01*
X127639500Y-58368092D01*
X127598497Y-58574231D01*
X127518064Y-58768412D01*
X127518063Y-58768414D01*
X127401293Y-58943173D01*
X127252673Y-59091793D01*
X127077914Y-59208563D01*
X127077913Y-59208564D01*
X127077912Y-59208564D01*
X126883731Y-59288997D01*
X126677592Y-59330000D01*
X126467408Y-59330000D01*
X126261269Y-59288997D01*
X126067088Y-59208564D01*
X126067087Y-59208564D01*
X126067086Y-59208563D01*
X125892327Y-59091793D01*
X125743707Y-58943173D01*
X125626937Y-58768414D01*
X125626936Y-58768412D01*
X125546503Y-58574231D01*
X125505500Y-58368092D01*
X125505500Y-58157908D01*
X125546503Y-57951769D01*
X125626936Y-57757588D01*
X125626937Y-57757586D01*
X125743707Y-57582827D01*
X125892327Y-57434207D01*
X126067086Y-57317437D01*
X126067088Y-57317436D01*
X126261269Y-57237003D01*
X126467408Y-57196000D01*
X126677592Y-57196000D01*
X126883731Y-57237003D01*
G37*
G36*
X142123731Y-57237003D02*
G01*
X142317912Y-57317436D01*
X142317914Y-57317437D01*
X142492673Y-57434207D01*
X142641293Y-57582827D01*
X142758063Y-57757586D01*
X142758064Y-57757588D01*
X142838497Y-57951769D01*
X142879500Y-58157908D01*
X142879500Y-58368092D01*
X142838497Y-58574231D01*
X142758064Y-58768412D01*
X142758063Y-58768414D01*
X142641293Y-58943173D01*
X142492673Y-59091793D01*
X142317914Y-59208563D01*
X142317913Y-59208564D01*
X142317912Y-59208564D01*
X142123731Y-59288997D01*
X141917592Y-59330000D01*
X141707408Y-59330000D01*
X141501269Y-59288997D01*
X141307088Y-59208564D01*
X141307087Y-59208564D01*
X141307086Y-59208563D01*
X141132327Y-59091793D01*
X140983707Y-58943173D01*
X140866937Y-58768414D01*
X140866936Y-58768412D01*
X140786503Y-58574231D01*
X140745500Y-58368092D01*
X140745500Y-58157908D01*
X140786503Y-57951769D01*
X140866936Y-57757588D01*
X140866937Y-57757586D01*
X140983707Y-57582827D01*
X141132327Y-57434207D01*
X141307086Y-57317437D01*
X141307088Y-57317436D01*
X141501269Y-57237003D01*
X141707408Y-57196000D01*
X141917592Y-57196000D01*
X142123731Y-57237003D01*
G37*
G36*
X128153731Y-54697003D02*
G01*
X128347912Y-54777436D01*
X128347914Y-54777437D01*
X128522673Y-54894207D01*
X128671293Y-55042827D01*
X128690631Y-55071769D01*
X128788064Y-55217588D01*
X128868497Y-55411769D01*
X128909500Y-55617908D01*
X128909500Y-55828092D01*
X128868497Y-56034231D01*
X128794948Y-56211793D01*
X128788063Y-56228414D01*
X128671293Y-56403173D01*
X128522673Y-56551793D01*
X128347914Y-56668563D01*
X128347913Y-56668564D01*
X128347912Y-56668564D01*
X128153731Y-56748997D01*
X127947592Y-56790000D01*
X127737408Y-56790000D01*
X127531269Y-56748997D01*
X127337088Y-56668564D01*
X127337087Y-56668564D01*
X127337086Y-56668563D01*
X127162327Y-56551793D01*
X127013707Y-56403173D01*
X126896937Y-56228414D01*
X126890052Y-56211793D01*
X126816503Y-56034231D01*
X126775500Y-55828092D01*
X126775500Y-55617908D01*
X126816503Y-55411769D01*
X126896936Y-55217588D01*
X126994369Y-55071769D01*
X127013707Y-55042827D01*
X127162327Y-54894207D01*
X127337086Y-54777437D01*
X127337088Y-54777436D01*
X127531269Y-54697003D01*
X127737408Y-54656000D01*
X127947592Y-54656000D01*
X128153731Y-54697003D01*
G37*
G36*
X140853731Y-54697003D02*
G01*
X141047912Y-54777436D01*
X141047914Y-54777437D01*
X141222673Y-54894207D01*
X141371293Y-55042827D01*
X141390631Y-55071769D01*
X141488064Y-55217588D01*
X141568497Y-55411769D01*
X141609500Y-55617908D01*
X141609500Y-55828092D01*
X141568497Y-56034231D01*
X141494948Y-56211793D01*
X141488063Y-56228414D01*
X141371293Y-56403173D01*
X141222673Y-56551793D01*
X141047914Y-56668563D01*
X141047913Y-56668564D01*
X141047912Y-56668564D01*
X140853731Y-56748997D01*
X140647592Y-56790000D01*
X140437408Y-56790000D01*
X140231269Y-56748997D01*
X140037088Y-56668564D01*
X140037087Y-56668564D01*
X140037086Y-56668563D01*
X139862327Y-56551793D01*
X139713707Y-56403173D01*
X139596937Y-56228414D01*
X139590052Y-56211793D01*
X139516503Y-56034231D01*
X139475500Y-55828092D01*
X139475500Y-55617908D01*
X139516503Y-55411769D01*
X139596936Y-55217588D01*
X139694369Y-55071769D01*
X139713707Y-55042827D01*
X139862327Y-54894207D01*
X140037086Y-54777437D01*
X140037088Y-54777436D01*
X140231269Y-54697003D01*
X140437408Y-54656000D01*
X140647592Y-54656000D01*
X140853731Y-54697003D01*
G37*
G36*
X138313731Y-54697003D02*
G01*
X138507912Y-54777436D01*
X138507914Y-54777437D01*
X138682673Y-54894207D01*
X138831293Y-55042827D01*
X138850631Y-55071769D01*
X138948064Y-55217588D01*
X139028497Y-55411769D01*
X139069500Y-55617908D01*
X139069500Y-55828092D01*
X139028497Y-56034231D01*
X138954948Y-56211793D01*
X138948063Y-56228414D01*
X138831293Y-56403173D01*
X138682673Y-56551793D01*
X138507914Y-56668563D01*
X138507913Y-56668564D01*
X138507912Y-56668564D01*
X138313731Y-56748997D01*
X138107592Y-56790000D01*
X137897408Y-56790000D01*
X137691269Y-56748997D01*
X137497088Y-56668564D01*
X137497087Y-56668564D01*
X137497086Y-56668563D01*
X137322327Y-56551793D01*
X137173707Y-56403173D01*
X137056937Y-56228414D01*
X137050052Y-56211793D01*
X136976503Y-56034231D01*
X136935500Y-55828092D01*
X136935500Y-55617908D01*
X136976503Y-55411769D01*
X137056936Y-55217588D01*
X137154369Y-55071769D01*
X137173707Y-55042827D01*
X137322327Y-54894207D01*
X137497086Y-54777437D01*
X137497088Y-54777436D01*
X137691269Y-54697003D01*
X137897408Y-54656000D01*
X138107592Y-54656000D01*
X138313731Y-54697003D01*
G37*
G36*
X135773731Y-54697003D02*
G01*
X135967912Y-54777436D01*
X135967914Y-54777437D01*
X136142673Y-54894207D01*
X136291293Y-55042827D01*
X136310631Y-55071769D01*
X136408064Y-55217588D01*
X136488497Y-55411769D01*
X136529500Y-55617908D01*
X136529500Y-55828092D01*
X136488497Y-56034231D01*
X136414948Y-56211793D01*
X136408063Y-56228414D01*
X136291293Y-56403173D01*
X136142673Y-56551793D01*
X135967914Y-56668563D01*
X135967913Y-56668564D01*
X135967912Y-56668564D01*
X135773731Y-56748997D01*
X135567592Y-56790000D01*
X135357408Y-56790000D01*
X135151269Y-56748997D01*
X134957088Y-56668564D01*
X134957087Y-56668564D01*
X134957086Y-56668563D01*
X134782327Y-56551793D01*
X134633707Y-56403173D01*
X134516937Y-56228414D01*
X134510052Y-56211793D01*
X134436503Y-56034231D01*
X134395500Y-55828092D01*
X134395500Y-55617908D01*
X134436503Y-55411769D01*
X134516936Y-55217588D01*
X134614369Y-55071769D01*
X134633707Y-55042827D01*
X134782327Y-54894207D01*
X134957086Y-54777437D01*
X134957088Y-54777436D01*
X135151269Y-54697003D01*
X135357408Y-54656000D01*
X135567592Y-54656000D01*
X135773731Y-54697003D01*
G37*
G36*
X133233731Y-54697003D02*
G01*
X133427912Y-54777436D01*
X133427914Y-54777437D01*
X133602673Y-54894207D01*
X133751293Y-55042827D01*
X133770631Y-55071769D01*
X133868064Y-55217588D01*
X133948497Y-55411769D01*
X133989500Y-55617908D01*
X133989500Y-55828092D01*
X133948497Y-56034231D01*
X133874948Y-56211793D01*
X133868063Y-56228414D01*
X133751293Y-56403173D01*
X133602673Y-56551793D01*
X133427914Y-56668563D01*
X133427913Y-56668564D01*
X133427912Y-56668564D01*
X133233731Y-56748997D01*
X133027592Y-56790000D01*
X132817408Y-56790000D01*
X132611269Y-56748997D01*
X132417088Y-56668564D01*
X132417087Y-56668564D01*
X132417086Y-56668563D01*
X132242327Y-56551793D01*
X132093707Y-56403173D01*
X131976937Y-56228414D01*
X131970052Y-56211793D01*
X131896503Y-56034231D01*
X131855500Y-55828092D01*
X131855500Y-55617908D01*
X131896503Y-55411769D01*
X131976936Y-55217588D01*
X132074369Y-55071769D01*
X132093707Y-55042827D01*
X132242327Y-54894207D01*
X132417086Y-54777437D01*
X132417088Y-54777436D01*
X132611269Y-54697003D01*
X132817408Y-54656000D01*
X133027592Y-54656000D01*
X133233731Y-54697003D01*
G37*
G36*
X130693731Y-54697003D02*
G01*
X130887912Y-54777436D01*
X130887914Y-54777437D01*
X131062673Y-54894207D01*
X131211293Y-55042827D01*
X131230631Y-55071769D01*
X131328064Y-55217588D01*
X131408497Y-55411769D01*
X131449500Y-55617908D01*
X131449500Y-55828092D01*
X131408497Y-56034231D01*
X131334948Y-56211793D01*
X131328063Y-56228414D01*
X131211293Y-56403173D01*
X131062673Y-56551793D01*
X130887914Y-56668563D01*
X130887913Y-56668564D01*
X130887912Y-56668564D01*
X130693731Y-56748997D01*
X130487592Y-56790000D01*
X130277408Y-56790000D01*
X130071269Y-56748997D01*
X129877088Y-56668564D01*
X129877087Y-56668564D01*
X129877086Y-56668563D01*
X129702327Y-56551793D01*
X129553707Y-56403173D01*
X129436937Y-56228414D01*
X129430052Y-56211793D01*
X129356503Y-56034231D01*
X129315500Y-55828092D01*
X129315500Y-55617908D01*
X129356503Y-55411769D01*
X129436936Y-55217588D01*
X129534369Y-55071769D01*
X129553707Y-55042827D01*
X129702327Y-54894207D01*
X129877086Y-54777437D01*
X129877088Y-54777436D01*
X130071269Y-54697003D01*
X130277408Y-54656000D01*
X130487592Y-54656000D01*
X130693731Y-54697003D01*
G37*
G36*
X174608731Y-54357003D02*
G01*
X174802912Y-54437436D01*
X174802914Y-54437437D01*
X174977673Y-54554207D01*
X175126293Y-54702827D01*
X175243063Y-54877586D01*
X175243064Y-54877588D01*
X175323497Y-55071769D01*
X175364500Y-55277908D01*
X175364500Y-55488092D01*
X175323497Y-55694231D01*
X175243064Y-55888412D01*
X175243063Y-55888414D01*
X175126293Y-56063173D01*
X174977673Y-56211793D01*
X174802914Y-56328563D01*
X174802913Y-56328564D01*
X174802912Y-56328564D01*
X174608731Y-56408997D01*
X174402592Y-56450000D01*
X174192408Y-56450000D01*
X173986269Y-56408997D01*
X173792088Y-56328564D01*
X173792087Y-56328564D01*
X173792086Y-56328563D01*
X173617327Y-56211793D01*
X173468707Y-56063173D01*
X173351937Y-55888414D01*
X173351936Y-55888412D01*
X173271503Y-55694231D01*
X173230500Y-55488092D01*
X173230500Y-55277908D01*
X173271503Y-55071769D01*
X173351936Y-54877588D01*
X173351937Y-54877586D01*
X173468707Y-54702827D01*
X173617327Y-54554207D01*
X173792086Y-54437437D01*
X173792088Y-54437436D01*
X173986269Y-54357003D01*
X174192408Y-54316000D01*
X174402592Y-54316000D01*
X174608731Y-54357003D01*
G37*
G36*
X160638731Y-54357003D02*
G01*
X160832912Y-54437436D01*
X160832914Y-54437437D01*
X161007673Y-54554207D01*
X161156293Y-54702827D01*
X161273063Y-54877586D01*
X161273064Y-54877588D01*
X161353497Y-55071769D01*
X161394500Y-55277908D01*
X161394500Y-55488092D01*
X161353497Y-55694231D01*
X161273064Y-55888412D01*
X161273063Y-55888414D01*
X161156293Y-56063173D01*
X161007673Y-56211793D01*
X160832914Y-56328563D01*
X160832913Y-56328564D01*
X160832912Y-56328564D01*
X160638731Y-56408997D01*
X160432592Y-56450000D01*
X160222408Y-56450000D01*
X160016269Y-56408997D01*
X159822088Y-56328564D01*
X159822087Y-56328564D01*
X159822086Y-56328563D01*
X159647327Y-56211793D01*
X159498707Y-56063173D01*
X159381937Y-55888414D01*
X159381936Y-55888412D01*
X159301503Y-55694231D01*
X159260500Y-55488092D01*
X159260500Y-55277908D01*
X159301503Y-55071769D01*
X159381936Y-54877588D01*
X159381937Y-54877586D01*
X159498707Y-54702827D01*
X159647327Y-54554207D01*
X159822086Y-54437437D01*
X159822088Y-54437436D01*
X160016269Y-54357003D01*
X160222408Y-54316000D01*
X160432592Y-54316000D01*
X160638731Y-54357003D01*
G37*
M02*
