G04 #@! TF.GenerationSoftware,KiCad,Pcbnew,5.1.5-52549c5~84~ubuntu18.04.1*
G04 #@! TF.CreationDate,2020-01-22T10:54:03-05:00*
G04 #@! TF.ProjectId,GeaiRareDit_PCB_Kicad5,47656169-5261-4726-9544-69745f504342,1.0*
G04 #@! TF.SameCoordinates,Original*
G04 #@! TF.FileFunction,Copper,L2,Bot*
G04 #@! TF.FilePolarity,Positive*
%FSLAX46Y46*%
G04 Gerber Fmt 4.6, Leading zero omitted, Abs format (unit mm)*
G04 Created by KiCad (PCBNEW 5.1.5-52549c5~84~ubuntu18.04.1) date 2020-01-22 10:54:03*
%MOMM*%
%LPD*%
G04 APERTURE LIST*
%ADD10C,2.032000*%
%ADD11R,1.700000X1.700000*%
%ADD12O,1.700000X1.700000*%
%ADD13R,1.905000X2.000000*%
%ADD14O,1.905000X2.000000*%
%ADD15C,1.500000*%
%ADD16R,1.500000X1.500000*%
%ADD17C,2.400000*%
%ADD18O,2.400000X2.400000*%
%ADD19C,0.100000*%
%ADD20C,1.700000*%
%ADD21R,2.000000X2.000000*%
%ADD22C,2.000000*%
%ADD23R,2.400000X2.400000*%
%ADD24C,0.500000*%
%ADD25C,0.254000*%
G04 APERTURE END LIST*
D10*
X151859501Y-66368411D03*
X153655552Y-64572360D03*
X155451604Y-62776308D03*
X146471347Y-141802562D03*
X148267399Y-140006511D03*
X150063450Y-138210460D03*
D11*
X145382500Y-60723000D03*
D12*
X145382500Y-63263000D03*
X145382500Y-65803000D03*
X145382500Y-68343000D03*
X145382500Y-70883000D03*
X145382500Y-73423000D03*
X145382500Y-75963000D03*
X145382500Y-78503000D03*
X145382500Y-81043000D03*
X145382500Y-83583000D03*
X145382500Y-86123000D03*
D13*
X160282500Y-103423000D03*
D14*
X162822500Y-103423000D03*
X165362500Y-103423000D03*
D15*
X121782500Y-98083000D03*
X121782500Y-95543000D03*
D16*
X121782500Y-100623000D03*
D10*
X127842500Y-55723000D03*
X130382500Y-55723000D03*
X132922500Y-55723000D03*
X135462500Y-55723000D03*
X138002500Y-55723000D03*
X140542500Y-55723000D03*
X126572500Y-58263000D03*
X126572500Y-60803000D03*
X126572500Y-63343000D03*
X126572500Y-65883000D03*
X126572500Y-68423000D03*
X126572500Y-70963000D03*
X126572500Y-73503000D03*
X126572500Y-76043000D03*
X126572500Y-78583000D03*
X126572500Y-81123000D03*
X126572500Y-83663000D03*
X126572500Y-86203000D03*
X141812500Y-58263000D03*
X141812500Y-60803000D03*
X141812500Y-63343000D03*
X141812500Y-65883000D03*
X141812500Y-68423000D03*
X141812500Y-70963000D03*
X141812500Y-73503000D03*
X141812500Y-76043000D03*
X141812500Y-78583000D03*
X141812500Y-81123000D03*
X141812500Y-83663000D03*
X141812500Y-86203000D03*
X139272500Y-67153000D03*
X139272500Y-69693000D03*
X139272500Y-86203000D03*
X136732500Y-86203000D03*
X134192500Y-86203000D03*
D17*
X122582500Y-91323000D03*
D18*
X122582500Y-78623000D03*
D10*
X127102500Y-103123000D03*
X129642500Y-103123000D03*
X132182500Y-103123000D03*
X134722500Y-103123000D03*
X137262500Y-103123000D03*
X139802500Y-103123000D03*
X142342500Y-103123000D03*
X144882500Y-103123000D03*
G04 #@! TA.AperFunction,ComponentPad*
D19*
G36*
X106580418Y-129223000D02*
G01*
X107782500Y-128020918D01*
X108984582Y-129223000D01*
X107782500Y-130425082D01*
X106580418Y-129223000D01*
G37*
G04 #@! TD.AperFunction*
D20*
X105986449Y-131019051D02*
X105986449Y-131019051D01*
G04 #@! TA.AperFunction,ComponentPad*
D19*
G36*
X194984582Y-74123000D02*
G01*
X193782500Y-75325082D01*
X192580418Y-74123000D01*
X193782500Y-72920918D01*
X194984582Y-74123000D01*
G37*
G04 #@! TD.AperFunction*
D20*
X195578551Y-72326949D02*
X195578551Y-72326949D01*
D11*
X174082500Y-86123000D03*
D12*
X171542500Y-86123000D03*
D18*
X154382500Y-90323000D03*
D17*
X154382500Y-103023000D03*
D20*
X106286449Y-72326949D02*
X106286449Y-72326949D01*
G04 #@! TA.AperFunction,ComponentPad*
D19*
G36*
X108082500Y-72920918D02*
G01*
X109284582Y-74123000D01*
X108082500Y-75325082D01*
X106880418Y-74123000D01*
X108082500Y-72920918D01*
G37*
G04 #@! TD.AperFunction*
D17*
X149682500Y-103023000D03*
D18*
X149682500Y-90323000D03*
D20*
X195782500Y-131223000D02*
X195782500Y-131223000D01*
G04 #@! TA.AperFunction,ComponentPad*
D19*
G36*
X193986449Y-130629031D02*
G01*
X192784367Y-129426949D01*
X193986449Y-128224867D01*
X195188531Y-129426949D01*
X193986449Y-130629031D01*
G37*
G04 #@! TD.AperFunction*
D21*
X115082500Y-96323000D03*
D22*
X107482500Y-96323000D03*
D23*
X183282500Y-98523000D03*
D17*
X188282500Y-98523000D03*
D10*
X171122500Y-78243000D03*
X163502500Y-78243000D03*
X174297500Y-78243000D03*
X160327500Y-78243000D03*
X160327500Y-55383000D03*
X174297500Y-55383000D03*
D24*
X128009340Y-81123000D02*
X129182500Y-82296160D01*
X126572500Y-81123000D02*
X128009340Y-81123000D01*
X129182500Y-82296160D02*
X129182500Y-94223000D01*
X129182500Y-94223000D02*
X135182500Y-100223000D01*
X146882500Y-100223000D02*
X149682500Y-103023000D01*
X135182500Y-100223000D02*
X146882500Y-100223000D01*
X125135660Y-76043000D02*
X125115660Y-76023000D01*
X126572500Y-76043000D02*
X125135660Y-76043000D01*
X125115660Y-76023000D02*
X125082500Y-76023000D01*
X125082500Y-76023000D02*
X123982500Y-74923000D01*
X123982500Y-74923000D02*
X123982500Y-54623000D01*
X123982500Y-54623000D02*
X124882500Y-53723000D01*
X124882500Y-53723000D02*
X153782500Y-53723000D01*
X153782500Y-53723000D02*
X176382500Y-76323000D01*
X191582500Y-76323000D02*
X193782500Y-74123000D01*
X176382500Y-76323000D02*
X191582500Y-76323000D01*
X153498296Y-60823000D02*
X155451604Y-62776308D01*
X151082500Y-60823000D02*
X153498296Y-60823000D01*
X149682500Y-90323000D02*
X149682500Y-62223000D01*
X149682500Y-62223000D02*
X151082500Y-60823000D01*
X175882500Y-128223000D02*
X192782500Y-128223000D01*
X173382500Y-125723000D02*
X175882500Y-128223000D01*
X173382500Y-104723000D02*
X173382500Y-125723000D01*
X127662500Y-73503000D02*
X130382500Y-76223000D01*
X192782500Y-128223000D02*
X193986449Y-129426949D01*
X126572500Y-73503000D02*
X127662500Y-73503000D01*
X135882500Y-99223000D02*
X167882500Y-99223000D01*
X130382500Y-93723000D02*
X135882500Y-99223000D01*
X167882500Y-99223000D02*
X173382500Y-104723000D01*
X130382500Y-76223000D02*
X130382500Y-93723000D01*
D25*
G36*
X105252890Y-65961900D02*
G01*
X105256491Y-65994523D01*
X105258895Y-66027257D01*
X105259905Y-66034094D01*
X105434802Y-67177050D01*
X105443841Y-67217488D01*
X105452459Y-67258031D01*
X105454387Y-67264668D01*
X105782782Y-68373312D01*
X105797228Y-68412157D01*
X105811266Y-68451148D01*
X105814071Y-68457447D01*
X105814076Y-68457461D01*
X105814082Y-68457473D01*
X106289895Y-69511282D01*
X106309473Y-69547795D01*
X106328679Y-69584532D01*
X106332314Y-69590393D01*
X106332320Y-69590405D01*
X106332327Y-69590415D01*
X106946756Y-70569898D01*
X106971074Y-70603369D01*
X106995121Y-70637207D01*
X106999527Y-70642532D01*
X107741209Y-71529573D01*
X107769860Y-71559450D01*
X107798263Y-71589696D01*
X107803350Y-71594374D01*
X108658556Y-72372551D01*
X108691069Y-72398320D01*
X108723241Y-72424373D01*
X108728906Y-72428310D01*
X108728916Y-72428318D01*
X108728926Y-72428324D01*
X109681820Y-73083230D01*
X109717436Y-73104293D01*
X109752939Y-73125795D01*
X109759097Y-73128932D01*
X110792068Y-73648462D01*
X110830282Y-73664526D01*
X110868306Y-73680981D01*
X110874818Y-73683248D01*
X110874832Y-73683254D01*
X110874845Y-73683258D01*
X111968752Y-74057786D01*
X112008775Y-74068510D01*
X112048699Y-74079657D01*
X112055466Y-74081021D01*
X112055472Y-74081023D01*
X112055478Y-74081024D01*
X113190103Y-74303628D01*
X113231217Y-74308822D01*
X113272278Y-74314447D01*
X113279174Y-74314881D01*
X113279176Y-74314881D01*
X114433517Y-74381440D01*
X114474966Y-74381006D01*
X114516400Y-74381006D01*
X114523277Y-74380500D01*
X114523292Y-74380500D01*
X114523305Y-74380498D01*
X115675989Y-74289780D01*
X115716982Y-74283727D01*
X115758046Y-74278102D01*
X115764793Y-74276668D01*
X115764805Y-74276666D01*
X115764816Y-74276663D01*
X116894524Y-74030346D01*
X116934354Y-74018775D01*
X116974237Y-74007639D01*
X116980725Y-74005303D01*
X116980739Y-74005299D01*
X116980752Y-74005293D01*
X118066577Y-73607938D01*
X118104422Y-73591089D01*
X118142470Y-73574624D01*
X118148575Y-73571431D01*
X118148595Y-73571422D01*
X118148612Y-73571412D01*
X119170458Y-73030373D01*
X119205673Y-73008539D01*
X119241128Y-72987067D01*
X119246750Y-72983071D01*
X119246761Y-72983064D01*
X119246770Y-72983056D01*
X120185741Y-72308338D01*
X120217675Y-72281920D01*
X120249880Y-72255841D01*
X120254909Y-72251118D01*
X120254918Y-72251111D01*
X120254925Y-72251103D01*
X121093639Y-71455193D01*
X121121682Y-71424697D01*
X121150060Y-71394477D01*
X121154409Y-71389106D01*
X121877352Y-70486725D01*
X121900985Y-70452723D01*
X121925011Y-70418914D01*
X121928586Y-70413010D01*
X121928591Y-70413003D01*
X121928594Y-70412996D01*
X122522378Y-69420856D01*
X122541196Y-69383925D01*
X122560393Y-69347204D01*
X122563131Y-69340875D01*
X122563138Y-69340862D01*
X122563142Y-69340849D01*
X123016781Y-68277309D01*
X123030406Y-68238184D01*
X123044449Y-68199179D01*
X123046307Y-68192522D01*
X123097500Y-68005391D01*
X123097500Y-74879531D01*
X123093219Y-74923000D01*
X123097500Y-74966469D01*
X123097500Y-74966476D01*
X123110305Y-75096489D01*
X123160911Y-75263312D01*
X123243089Y-75417058D01*
X123353683Y-75551817D01*
X123387456Y-75579534D01*
X124425970Y-76618049D01*
X124453683Y-76651817D01*
X124487451Y-76679530D01*
X124487453Y-76679532D01*
X124511823Y-76699532D01*
X124588441Y-76762411D01*
X124742187Y-76844589D01*
X124778588Y-76855631D01*
X124795347Y-76864589D01*
X124962170Y-76915195D01*
X125092183Y-76928000D01*
X125092193Y-76928000D01*
X125135659Y-76932281D01*
X125178255Y-76928086D01*
X125290085Y-77095451D01*
X125507634Y-77313000D01*
X125290085Y-77530549D01*
X125109403Y-77800958D01*
X124984947Y-78101421D01*
X124921500Y-78420391D01*
X124921500Y-78745609D01*
X124984947Y-79064579D01*
X125109403Y-79365042D01*
X125290085Y-79635451D01*
X125507634Y-79853000D01*
X125290085Y-80070549D01*
X125109403Y-80340958D01*
X124984947Y-80641421D01*
X124921500Y-80960391D01*
X124921500Y-81285609D01*
X124984947Y-81604579D01*
X125109403Y-81905042D01*
X125290085Y-82175451D01*
X125507634Y-82393000D01*
X125290085Y-82610549D01*
X125109403Y-82880958D01*
X124984947Y-83181421D01*
X124921500Y-83500391D01*
X124921500Y-83825609D01*
X124984947Y-84144579D01*
X125109403Y-84445042D01*
X125290085Y-84715451D01*
X125507634Y-84933000D01*
X125290085Y-85150549D01*
X125109403Y-85420958D01*
X124984947Y-85721421D01*
X124921500Y-86040391D01*
X124921500Y-86365609D01*
X124984947Y-86684579D01*
X125109403Y-86985042D01*
X125290085Y-87255451D01*
X125520049Y-87485415D01*
X125790458Y-87666097D01*
X126090921Y-87790553D01*
X126409891Y-87854000D01*
X126735109Y-87854000D01*
X127054079Y-87790553D01*
X127354542Y-87666097D01*
X127624951Y-87485415D01*
X127854915Y-87255451D01*
X128035597Y-86985042D01*
X128160053Y-86684579D01*
X128223500Y-86365609D01*
X128223500Y-86040391D01*
X128160053Y-85721421D01*
X128035597Y-85420958D01*
X127854915Y-85150549D01*
X127637366Y-84933000D01*
X127854915Y-84715451D01*
X128035597Y-84445042D01*
X128160053Y-84144579D01*
X128223500Y-83825609D01*
X128223500Y-83500391D01*
X128160053Y-83181421D01*
X128035597Y-82880958D01*
X127854915Y-82610549D01*
X127637366Y-82393000D01*
X127832564Y-82197802D01*
X128297500Y-82662739D01*
X128297501Y-94179521D01*
X128293219Y-94223000D01*
X128310305Y-94396490D01*
X128360912Y-94563313D01*
X128443090Y-94717059D01*
X128525968Y-94818046D01*
X128525971Y-94818049D01*
X128553684Y-94851817D01*
X128587452Y-94879530D01*
X134525970Y-100818049D01*
X134553683Y-100851817D01*
X134587451Y-100879530D01*
X134587453Y-100879532D01*
X134658952Y-100938210D01*
X134688441Y-100962411D01*
X134842187Y-101044589D01*
X135009010Y-101095195D01*
X135139023Y-101108000D01*
X135139033Y-101108000D01*
X135182499Y-101112281D01*
X135225965Y-101108000D01*
X146515922Y-101108000D01*
X147914310Y-102506389D01*
X147847500Y-102842268D01*
X147847500Y-103203732D01*
X147918018Y-103558250D01*
X148056344Y-103892199D01*
X148257162Y-104192744D01*
X148512756Y-104448338D01*
X148813301Y-104649156D01*
X149147250Y-104787482D01*
X149501768Y-104858000D01*
X149863232Y-104858000D01*
X150217750Y-104787482D01*
X150551699Y-104649156D01*
X150852244Y-104448338D01*
X151107838Y-104192744D01*
X151308656Y-103892199D01*
X151446982Y-103558250D01*
X151517500Y-103203732D01*
X151517500Y-102842268D01*
X152547500Y-102842268D01*
X152547500Y-103203732D01*
X152618018Y-103558250D01*
X152756344Y-103892199D01*
X152957162Y-104192744D01*
X153212756Y-104448338D01*
X153513301Y-104649156D01*
X153847250Y-104787482D01*
X154201768Y-104858000D01*
X154563232Y-104858000D01*
X154917750Y-104787482D01*
X155251699Y-104649156D01*
X155552244Y-104448338D01*
X155807838Y-104192744D01*
X156008656Y-103892199D01*
X156146982Y-103558250D01*
X156217500Y-103203732D01*
X156217500Y-102842268D01*
X156146982Y-102487750D01*
X156120162Y-102423000D01*
X158691928Y-102423000D01*
X158691928Y-104423000D01*
X158704188Y-104547482D01*
X158740498Y-104667180D01*
X158799463Y-104777494D01*
X158878815Y-104874185D01*
X158975506Y-104953537D01*
X159085820Y-105012502D01*
X159205518Y-105048812D01*
X159330000Y-105061072D01*
X161235000Y-105061072D01*
X161359482Y-105048812D01*
X161479180Y-105012502D01*
X161589494Y-104953537D01*
X161686185Y-104874185D01*
X161765537Y-104777494D01*
X161810405Y-104693553D01*
X161936266Y-104796845D01*
X162212052Y-104944255D01*
X162511297Y-105035030D01*
X162822500Y-105065681D01*
X163133704Y-105035030D01*
X163432949Y-104944255D01*
X163708735Y-104796845D01*
X163950463Y-104598463D01*
X164097662Y-104419100D01*
X164253063Y-104604315D01*
X164495577Y-104798969D01*
X164771406Y-104942571D01*
X164989520Y-105013563D01*
X165235500Y-104893594D01*
X165235500Y-103550000D01*
X165489500Y-103550000D01*
X165489500Y-104893594D01*
X165735480Y-105013563D01*
X165953594Y-104942571D01*
X166229423Y-104798969D01*
X166471937Y-104604315D01*
X166671816Y-104366089D01*
X166821379Y-104093446D01*
X166914878Y-103796863D01*
X166788070Y-103550000D01*
X165489500Y-103550000D01*
X165235500Y-103550000D01*
X165215500Y-103550000D01*
X165215500Y-103296000D01*
X165235500Y-103296000D01*
X165235500Y-101952406D01*
X165489500Y-101952406D01*
X165489500Y-103296000D01*
X166788070Y-103296000D01*
X166914878Y-103049137D01*
X166821379Y-102752554D01*
X166671816Y-102479911D01*
X166471937Y-102241685D01*
X166229423Y-102047031D01*
X165953594Y-101903429D01*
X165735480Y-101832437D01*
X165489500Y-101952406D01*
X165235500Y-101952406D01*
X164989520Y-101832437D01*
X164771406Y-101903429D01*
X164495577Y-102047031D01*
X164253063Y-102241685D01*
X164097663Y-102426899D01*
X163950463Y-102247537D01*
X163708734Y-102049155D01*
X163432948Y-101901745D01*
X163133703Y-101810970D01*
X162822500Y-101780319D01*
X162511296Y-101810970D01*
X162212051Y-101901745D01*
X161936265Y-102049155D01*
X161810405Y-102152446D01*
X161765537Y-102068506D01*
X161686185Y-101971815D01*
X161589494Y-101892463D01*
X161479180Y-101833498D01*
X161359482Y-101797188D01*
X161235000Y-101784928D01*
X159330000Y-101784928D01*
X159205518Y-101797188D01*
X159085820Y-101833498D01*
X158975506Y-101892463D01*
X158878815Y-101971815D01*
X158799463Y-102068506D01*
X158740498Y-102178820D01*
X158704188Y-102298518D01*
X158691928Y-102423000D01*
X156120162Y-102423000D01*
X156008656Y-102153801D01*
X155807838Y-101853256D01*
X155552244Y-101597662D01*
X155251699Y-101396844D01*
X154917750Y-101258518D01*
X154563232Y-101188000D01*
X154201768Y-101188000D01*
X153847250Y-101258518D01*
X153513301Y-101396844D01*
X153212756Y-101597662D01*
X152957162Y-101853256D01*
X152756344Y-102153801D01*
X152618018Y-102487750D01*
X152547500Y-102842268D01*
X151517500Y-102842268D01*
X151446982Y-102487750D01*
X151308656Y-102153801D01*
X151107838Y-101853256D01*
X150852244Y-101597662D01*
X150551699Y-101396844D01*
X150217750Y-101258518D01*
X149863232Y-101188000D01*
X149501768Y-101188000D01*
X149165889Y-101254810D01*
X148019078Y-100108000D01*
X167515922Y-100108000D01*
X172497500Y-105089579D01*
X172497501Y-125679521D01*
X172493219Y-125723000D01*
X172510305Y-125896490D01*
X172560912Y-126063313D01*
X172643090Y-126217059D01*
X172725968Y-126318046D01*
X172725971Y-126318049D01*
X172753684Y-126351817D01*
X172787451Y-126379529D01*
X175225970Y-128818049D01*
X175253683Y-128851817D01*
X175287451Y-128879530D01*
X175287453Y-128879532D01*
X175388441Y-128962411D01*
X175542187Y-129044589D01*
X175709010Y-129095195D01*
X175839023Y-129108000D01*
X175839031Y-129108000D01*
X175882500Y-129112281D01*
X175925969Y-129108000D01*
X186701705Y-129108000D01*
X186089011Y-129156220D01*
X186048024Y-129162272D01*
X186006953Y-129167898D01*
X186000206Y-129169332D01*
X186000194Y-129169334D01*
X186000183Y-129169337D01*
X184870476Y-129415654D01*
X184830623Y-129427232D01*
X184790763Y-129438361D01*
X184784280Y-129440695D01*
X184784260Y-129440701D01*
X184784243Y-129440709D01*
X183698424Y-129838062D01*
X183660597Y-129854903D01*
X183622530Y-129871376D01*
X183616412Y-129874575D01*
X183616405Y-129874578D01*
X183616399Y-129874582D01*
X182594543Y-130415627D01*
X182559350Y-130437447D01*
X182523872Y-130458933D01*
X182518250Y-130462929D01*
X182518239Y-130462936D01*
X182518230Y-130462944D01*
X181579259Y-131137662D01*
X181547325Y-131164080D01*
X181515120Y-131190159D01*
X181510091Y-131194882D01*
X181510082Y-131194889D01*
X181510075Y-131194897D01*
X180671361Y-131990807D01*
X180643318Y-132021303D01*
X180614940Y-132051523D01*
X180610591Y-132056894D01*
X179887648Y-132959275D01*
X179864015Y-132993277D01*
X179839989Y-133027086D01*
X179836414Y-133032990D01*
X179836409Y-133032997D01*
X179836406Y-133033004D01*
X179242622Y-134025144D01*
X179223822Y-134062041D01*
X179204607Y-134098796D01*
X179201863Y-134105139D01*
X178748219Y-135168691D01*
X178734578Y-135207862D01*
X178720552Y-135246821D01*
X178718693Y-135253478D01*
X178413587Y-136368757D01*
X178405399Y-136409366D01*
X178396779Y-136449919D01*
X178395841Y-136456766D01*
X178244919Y-137603134D01*
X178242317Y-137644498D01*
X178239282Y-137685826D01*
X178239282Y-137692737D01*
X178245336Y-138848981D01*
X178248371Y-138890312D01*
X178250973Y-138931672D01*
X178251911Y-138938520D01*
X178414829Y-140083243D01*
X178423446Y-140123785D01*
X178431637Y-140164406D01*
X178433493Y-140171050D01*
X178433495Y-140171061D01*
X178433498Y-140171071D01*
X178750264Y-141283085D01*
X178764299Y-141322069D01*
X178777931Y-141361215D01*
X178780672Y-141367549D01*
X178780675Y-141367557D01*
X178780676Y-141367558D01*
X179245433Y-142426302D01*
X179264628Y-142463020D01*
X179283447Y-142499953D01*
X179287027Y-142505865D01*
X179891171Y-143491739D01*
X179915180Y-143525523D01*
X179938830Y-143559551D01*
X179943180Y-143564922D01*
X180675533Y-144459682D01*
X180703907Y-144489897D01*
X180731953Y-144520397D01*
X180736983Y-144525121D01*
X180736991Y-144525129D01*
X180736999Y-144525136D01*
X181584001Y-145312219D01*
X181616196Y-145338290D01*
X181648140Y-145364717D01*
X181653768Y-145368716D01*
X181653772Y-145368719D01*
X181653774Y-145368720D01*
X182599767Y-146033575D01*
X182635235Y-146055056D01*
X182670437Y-146076882D01*
X182676549Y-146080077D01*
X182676561Y-146080084D01*
X182676573Y-146080089D01*
X183704034Y-146610401D01*
X183742111Y-146626879D01*
X183779928Y-146643716D01*
X183786416Y-146646052D01*
X183786430Y-146646058D01*
X183786443Y-146646062D01*
X184876369Y-147032025D01*
X184916293Y-147043172D01*
X184956082Y-147054732D01*
X184962838Y-147056168D01*
X184962841Y-147056169D01*
X184962844Y-147056169D01*
X186095078Y-147290644D01*
X186136136Y-147296268D01*
X186177136Y-147302323D01*
X186184028Y-147302829D01*
X186722500Y-147339538D01*
X186722501Y-150449618D01*
X186609120Y-150563000D01*
X115155881Y-150563000D01*
X115042500Y-150449620D01*
X115042500Y-147355917D01*
X115121400Y-147352610D01*
X115154023Y-147349009D01*
X115186757Y-147346605D01*
X115193594Y-147345595D01*
X116336550Y-147170698D01*
X116376988Y-147161659D01*
X116417531Y-147153041D01*
X116424168Y-147151113D01*
X117532812Y-146822718D01*
X117571657Y-146808272D01*
X117610648Y-146794234D01*
X117616947Y-146791429D01*
X117616961Y-146791424D01*
X117616973Y-146791418D01*
X118670782Y-146315605D01*
X118707295Y-146296027D01*
X118744032Y-146276821D01*
X118749893Y-146273186D01*
X118749905Y-146273180D01*
X118749915Y-146273173D01*
X119729398Y-145658744D01*
X119762869Y-145634426D01*
X119796707Y-145610379D01*
X119802032Y-145605973D01*
X120689073Y-144864291D01*
X120718950Y-144835640D01*
X120749196Y-144807237D01*
X120753874Y-144802150D01*
X121532051Y-143946944D01*
X121557820Y-143914431D01*
X121583873Y-143882259D01*
X121587810Y-143876594D01*
X121587818Y-143876584D01*
X121587824Y-143876574D01*
X122242730Y-142923680D01*
X122263793Y-142888064D01*
X122285295Y-142852561D01*
X122288432Y-142846403D01*
X122807962Y-141813432D01*
X122824026Y-141775218D01*
X122840481Y-141737194D01*
X122842748Y-141730682D01*
X122842754Y-141730668D01*
X122842758Y-141730655D01*
X122873812Y-141639953D01*
X144820347Y-141639953D01*
X144820347Y-141965171D01*
X144883794Y-142284141D01*
X145008250Y-142584604D01*
X145188932Y-142855013D01*
X145418896Y-143084977D01*
X145689305Y-143265659D01*
X145989768Y-143390115D01*
X146308738Y-143453562D01*
X146633956Y-143453562D01*
X146952926Y-143390115D01*
X147253389Y-143265659D01*
X147523798Y-143084977D01*
X147753762Y-142855013D01*
X147934444Y-142584604D01*
X148058900Y-142284141D01*
X148122347Y-141965171D01*
X148122347Y-141657511D01*
X148430008Y-141657511D01*
X148748978Y-141594064D01*
X149049441Y-141469608D01*
X149319850Y-141288926D01*
X149549814Y-141058962D01*
X149730496Y-140788553D01*
X149854952Y-140488090D01*
X149918399Y-140169120D01*
X149918399Y-139861460D01*
X150226059Y-139861460D01*
X150545029Y-139798013D01*
X150845492Y-139673557D01*
X151115901Y-139492875D01*
X151345865Y-139262911D01*
X151526547Y-138992502D01*
X151651003Y-138692039D01*
X151714450Y-138373069D01*
X151714450Y-138047851D01*
X151651003Y-137728881D01*
X151526547Y-137428418D01*
X151345865Y-137158009D01*
X151115901Y-136928045D01*
X150845492Y-136747363D01*
X150545029Y-136622907D01*
X150226059Y-136559460D01*
X149900841Y-136559460D01*
X149581871Y-136622907D01*
X149281408Y-136747363D01*
X149010999Y-136928045D01*
X148781035Y-137158009D01*
X148600353Y-137428418D01*
X148475897Y-137728881D01*
X148412450Y-138047851D01*
X148412450Y-138355511D01*
X148104790Y-138355511D01*
X147785820Y-138418958D01*
X147485357Y-138543414D01*
X147214948Y-138724096D01*
X146984984Y-138954060D01*
X146804302Y-139224469D01*
X146679846Y-139524932D01*
X146616399Y-139843902D01*
X146616399Y-140151562D01*
X146308738Y-140151562D01*
X145989768Y-140215009D01*
X145689305Y-140339465D01*
X145418896Y-140520147D01*
X145188932Y-140750111D01*
X145008250Y-141020520D01*
X144883794Y-141320983D01*
X144820347Y-141639953D01*
X122873812Y-141639953D01*
X123217286Y-140636748D01*
X123228010Y-140596725D01*
X123239157Y-140556801D01*
X123240523Y-140550026D01*
X123463128Y-139415397D01*
X123468322Y-139374283D01*
X123473947Y-139333222D01*
X123474381Y-139326324D01*
X123540940Y-138171983D01*
X123540506Y-138130534D01*
X123540506Y-138089099D01*
X123540000Y-138082223D01*
X123540000Y-138082208D01*
X123539998Y-138082195D01*
X123449280Y-136929511D01*
X123443228Y-136888524D01*
X123437602Y-136847453D01*
X123436168Y-136840706D01*
X123436166Y-136840694D01*
X123436163Y-136840683D01*
X123189846Y-135710976D01*
X123178268Y-135671123D01*
X123167139Y-135631263D01*
X123164805Y-135624780D01*
X123164799Y-135624760D01*
X123164791Y-135624743D01*
X122767438Y-134538924D01*
X122750597Y-134501097D01*
X122734124Y-134463030D01*
X122730922Y-134456906D01*
X122730922Y-134456905D01*
X122730918Y-134456899D01*
X122189873Y-133435043D01*
X122168053Y-133399850D01*
X122146567Y-133364372D01*
X122142571Y-133358750D01*
X122142564Y-133358739D01*
X122142556Y-133358730D01*
X121467838Y-132419759D01*
X121441420Y-132387825D01*
X121415341Y-132355620D01*
X121410618Y-132350591D01*
X121410611Y-132350582D01*
X121410603Y-132350575D01*
X120614693Y-131511861D01*
X120584197Y-131483818D01*
X120553977Y-131455440D01*
X120548606Y-131451091D01*
X120058362Y-131058331D01*
X121710590Y-131058331D01*
X121710590Y-131387669D01*
X121774840Y-131710678D01*
X121900872Y-132014947D01*
X122083842Y-132288781D01*
X122316719Y-132521658D01*
X122590553Y-132704628D01*
X122894822Y-132830660D01*
X123217831Y-132894910D01*
X123547169Y-132894910D01*
X123870178Y-132830660D01*
X124174447Y-132704628D01*
X124448281Y-132521658D01*
X124681158Y-132288781D01*
X124864128Y-132014947D01*
X124990160Y-131710678D01*
X125054410Y-131387669D01*
X125054410Y-131058331D01*
X176710590Y-131058331D01*
X176710590Y-131387669D01*
X176774840Y-131710678D01*
X176900872Y-132014947D01*
X177083842Y-132288781D01*
X177316719Y-132521658D01*
X177590553Y-132704628D01*
X177894822Y-132830660D01*
X178217831Y-132894910D01*
X178547169Y-132894910D01*
X178870178Y-132830660D01*
X179174447Y-132704628D01*
X179448281Y-132521658D01*
X179681158Y-132288781D01*
X179864128Y-132014947D01*
X179990160Y-131710678D01*
X180054410Y-131387669D01*
X180054410Y-131058331D01*
X179990160Y-130735322D01*
X179864128Y-130431053D01*
X179681158Y-130157219D01*
X179448281Y-129924342D01*
X179174447Y-129741372D01*
X178870178Y-129615340D01*
X178547169Y-129551090D01*
X178217831Y-129551090D01*
X177894822Y-129615340D01*
X177590553Y-129741372D01*
X177316719Y-129924342D01*
X177083842Y-130157219D01*
X176900872Y-130431053D01*
X176774840Y-130735322D01*
X176710590Y-131058331D01*
X125054410Y-131058331D01*
X124990160Y-130735322D01*
X124864128Y-130431053D01*
X124681158Y-130157219D01*
X124448281Y-129924342D01*
X124174447Y-129741372D01*
X123870178Y-129615340D01*
X123547169Y-129551090D01*
X123217831Y-129551090D01*
X122894822Y-129615340D01*
X122590553Y-129741372D01*
X122316719Y-129924342D01*
X122083842Y-130157219D01*
X121900872Y-130431053D01*
X121774840Y-130735322D01*
X121710590Y-131058331D01*
X120058362Y-131058331D01*
X119646225Y-130728148D01*
X119612223Y-130704515D01*
X119578414Y-130680489D01*
X119572510Y-130676914D01*
X119572503Y-130676909D01*
X119572496Y-130676906D01*
X118580356Y-130083122D01*
X118543459Y-130064322D01*
X118506704Y-130045107D01*
X118500368Y-130042366D01*
X118500362Y-130042363D01*
X118500357Y-130042361D01*
X117436809Y-129588719D01*
X117397638Y-129575078D01*
X117358679Y-129561052D01*
X117352027Y-129559194D01*
X117352019Y-129559192D01*
X116236743Y-129254087D01*
X116196134Y-129245899D01*
X116155581Y-129237279D01*
X116148737Y-129236341D01*
X116148733Y-129236341D01*
X115002366Y-129085419D01*
X114961006Y-129082817D01*
X114919675Y-129079782D01*
X114912763Y-129079782D01*
X113756519Y-129085836D01*
X113715194Y-129088871D01*
X113673827Y-129091473D01*
X113666980Y-129092411D01*
X112522256Y-129255329D01*
X112481695Y-129263950D01*
X112441094Y-129272137D01*
X112434453Y-129273992D01*
X112434438Y-129273995D01*
X112434425Y-129274000D01*
X111322415Y-129590764D01*
X111283447Y-129604793D01*
X111244284Y-129618431D01*
X111237951Y-129621172D01*
X111237943Y-129621175D01*
X111237936Y-129621178D01*
X110179198Y-130085933D01*
X110142501Y-130105118D01*
X110105546Y-130123947D01*
X110099635Y-130127527D01*
X109113761Y-130731671D01*
X109079953Y-130755697D01*
X109045950Y-130779330D01*
X109040579Y-130783679D01*
X108145818Y-131516033D01*
X108115626Y-131544385D01*
X108085102Y-131572453D01*
X108080372Y-131577491D01*
X107293281Y-132424501D01*
X107267205Y-132456701D01*
X107240783Y-132488640D01*
X107236786Y-132494266D01*
X107236780Y-132494273D01*
X107236776Y-132494280D01*
X106571925Y-133440267D01*
X106550464Y-133475703D01*
X106528618Y-133510937D01*
X106525420Y-133517055D01*
X106525416Y-133517061D01*
X106525416Y-133517062D01*
X105995099Y-134544534D01*
X105978656Y-134582531D01*
X105961783Y-134620428D01*
X105959450Y-134626911D01*
X105959442Y-134626930D01*
X105959437Y-134626948D01*
X105573475Y-135716869D01*
X105562331Y-135756781D01*
X105550768Y-135796582D01*
X105549331Y-135803342D01*
X105314856Y-136935578D01*
X105309233Y-136976628D01*
X105303177Y-137017635D01*
X105302671Y-137024528D01*
X105265962Y-137563000D01*
X102155881Y-137563000D01*
X102042500Y-137449620D01*
X102042500Y-130872791D01*
X104501449Y-130872791D01*
X104501449Y-131165311D01*
X104558517Y-131452209D01*
X104670459Y-131722462D01*
X104832974Y-131965683D01*
X105039817Y-132172526D01*
X105283038Y-132335041D01*
X105553291Y-132446983D01*
X105840189Y-132504051D01*
X106132709Y-132504051D01*
X106419607Y-132446983D01*
X106689860Y-132335041D01*
X106933081Y-132172526D01*
X107139924Y-131965683D01*
X107302439Y-131722462D01*
X107414381Y-131452209D01*
X107471449Y-131165311D01*
X107471449Y-130978840D01*
X107538320Y-131014584D01*
X107658018Y-131050894D01*
X107782500Y-131063154D01*
X107906982Y-131050894D01*
X108026680Y-131014584D01*
X108136994Y-130955619D01*
X108233685Y-130876267D01*
X109435767Y-129674185D01*
X109515119Y-129577494D01*
X109574084Y-129467180D01*
X109610394Y-129347482D01*
X109622654Y-129223000D01*
X109610394Y-129098518D01*
X109574084Y-128978820D01*
X109515119Y-128868506D01*
X109435767Y-128771815D01*
X108233685Y-127569733D01*
X108136994Y-127490381D01*
X108026680Y-127431416D01*
X107906982Y-127395106D01*
X107782500Y-127382846D01*
X107658018Y-127395106D01*
X107538320Y-127431416D01*
X107428006Y-127490381D01*
X107331315Y-127569733D01*
X106129233Y-128771815D01*
X106049881Y-128868506D01*
X105990916Y-128978820D01*
X105954606Y-129098518D01*
X105942346Y-129223000D01*
X105954606Y-129347482D01*
X105990916Y-129467180D01*
X106026660Y-129534051D01*
X105840189Y-129534051D01*
X105553291Y-129591119D01*
X105283038Y-129703061D01*
X105039817Y-129865576D01*
X104832974Y-130072419D01*
X104670459Y-130315640D01*
X104558517Y-130585893D01*
X104501449Y-130872791D01*
X102042500Y-130872791D01*
X102042500Y-122509323D01*
X103962997Y-122509323D01*
X103962997Y-122936677D01*
X104046370Y-123355821D01*
X104209912Y-123750645D01*
X104447337Y-124105977D01*
X104749523Y-124408163D01*
X105104855Y-124645588D01*
X105499679Y-124809130D01*
X105918823Y-124892503D01*
X106346177Y-124892503D01*
X106765321Y-124809130D01*
X107160145Y-124645588D01*
X107515477Y-124408163D01*
X107817663Y-124105977D01*
X108055088Y-123750645D01*
X108218630Y-123355821D01*
X108302003Y-122936677D01*
X108302003Y-122509323D01*
X108218630Y-122090179D01*
X108055088Y-121695355D01*
X107817663Y-121340023D01*
X107515477Y-121037837D01*
X107160145Y-120800412D01*
X106765321Y-120636870D01*
X106346177Y-120553497D01*
X105918823Y-120553497D01*
X105499679Y-120636870D01*
X105104855Y-120800412D01*
X104749523Y-121037837D01*
X104447337Y-121340023D01*
X104209912Y-121695355D01*
X104046370Y-122090179D01*
X103962997Y-122509323D01*
X102042500Y-122509323D01*
X102042500Y-102960391D01*
X125451500Y-102960391D01*
X125451500Y-103285609D01*
X125514947Y-103604579D01*
X125639403Y-103905042D01*
X125820085Y-104175451D01*
X126050049Y-104405415D01*
X126320458Y-104586097D01*
X126620921Y-104710553D01*
X126939891Y-104774000D01*
X127265109Y-104774000D01*
X127584079Y-104710553D01*
X127884542Y-104586097D01*
X128154951Y-104405415D01*
X128372500Y-104187866D01*
X128590049Y-104405415D01*
X128860458Y-104586097D01*
X129160921Y-104710553D01*
X129479891Y-104774000D01*
X129805109Y-104774000D01*
X130124079Y-104710553D01*
X130424542Y-104586097D01*
X130694951Y-104405415D01*
X130912500Y-104187866D01*
X131130049Y-104405415D01*
X131400458Y-104586097D01*
X131700921Y-104710553D01*
X132019891Y-104774000D01*
X132345109Y-104774000D01*
X132664079Y-104710553D01*
X132964542Y-104586097D01*
X133234951Y-104405415D01*
X133452500Y-104187866D01*
X133670049Y-104405415D01*
X133940458Y-104586097D01*
X134240921Y-104710553D01*
X134559891Y-104774000D01*
X134885109Y-104774000D01*
X135204079Y-104710553D01*
X135504542Y-104586097D01*
X135774951Y-104405415D01*
X135992500Y-104187866D01*
X136210049Y-104405415D01*
X136480458Y-104586097D01*
X136780921Y-104710553D01*
X137099891Y-104774000D01*
X137425109Y-104774000D01*
X137744079Y-104710553D01*
X138044542Y-104586097D01*
X138314951Y-104405415D01*
X138532500Y-104187866D01*
X138750049Y-104405415D01*
X139020458Y-104586097D01*
X139320921Y-104710553D01*
X139639891Y-104774000D01*
X139965109Y-104774000D01*
X140284079Y-104710553D01*
X140584542Y-104586097D01*
X140854951Y-104405415D01*
X141072500Y-104187866D01*
X141290049Y-104405415D01*
X141560458Y-104586097D01*
X141860921Y-104710553D01*
X142179891Y-104774000D01*
X142505109Y-104774000D01*
X142824079Y-104710553D01*
X143124542Y-104586097D01*
X143394951Y-104405415D01*
X143612500Y-104187866D01*
X143830049Y-104405415D01*
X144100458Y-104586097D01*
X144400921Y-104710553D01*
X144719891Y-104774000D01*
X145045109Y-104774000D01*
X145364079Y-104710553D01*
X145664542Y-104586097D01*
X145934951Y-104405415D01*
X146164915Y-104175451D01*
X146345597Y-103905042D01*
X146470053Y-103604579D01*
X146533500Y-103285609D01*
X146533500Y-102960391D01*
X146470053Y-102641421D01*
X146345597Y-102340958D01*
X146164915Y-102070549D01*
X145934951Y-101840585D01*
X145664542Y-101659903D01*
X145364079Y-101535447D01*
X145045109Y-101472000D01*
X144719891Y-101472000D01*
X144400921Y-101535447D01*
X144100458Y-101659903D01*
X143830049Y-101840585D01*
X143612500Y-102058134D01*
X143394951Y-101840585D01*
X143124542Y-101659903D01*
X142824079Y-101535447D01*
X142505109Y-101472000D01*
X142179891Y-101472000D01*
X141860921Y-101535447D01*
X141560458Y-101659903D01*
X141290049Y-101840585D01*
X141072500Y-102058134D01*
X140854951Y-101840585D01*
X140584542Y-101659903D01*
X140284079Y-101535447D01*
X139965109Y-101472000D01*
X139639891Y-101472000D01*
X139320921Y-101535447D01*
X139020458Y-101659903D01*
X138750049Y-101840585D01*
X138532500Y-102058134D01*
X138314951Y-101840585D01*
X138044542Y-101659903D01*
X137744079Y-101535447D01*
X137425109Y-101472000D01*
X137099891Y-101472000D01*
X136780921Y-101535447D01*
X136480458Y-101659903D01*
X136210049Y-101840585D01*
X135992500Y-102058134D01*
X135774951Y-101840585D01*
X135504542Y-101659903D01*
X135204079Y-101535447D01*
X134885109Y-101472000D01*
X134559891Y-101472000D01*
X134240921Y-101535447D01*
X133940458Y-101659903D01*
X133670049Y-101840585D01*
X133452500Y-102058134D01*
X133234951Y-101840585D01*
X132964542Y-101659903D01*
X132664079Y-101535447D01*
X132345109Y-101472000D01*
X132019891Y-101472000D01*
X131700921Y-101535447D01*
X131400458Y-101659903D01*
X131130049Y-101840585D01*
X130912500Y-102058134D01*
X130694951Y-101840585D01*
X130424542Y-101659903D01*
X130124079Y-101535447D01*
X129805109Y-101472000D01*
X129479891Y-101472000D01*
X129160921Y-101535447D01*
X128860458Y-101659903D01*
X128590049Y-101840585D01*
X128372500Y-102058134D01*
X128154951Y-101840585D01*
X127884542Y-101659903D01*
X127584079Y-101535447D01*
X127265109Y-101472000D01*
X126939891Y-101472000D01*
X126620921Y-101535447D01*
X126320458Y-101659903D01*
X126050049Y-101840585D01*
X125820085Y-102070549D01*
X125639403Y-102340958D01*
X125514947Y-102641421D01*
X125451500Y-102960391D01*
X102042500Y-102960391D01*
X102042500Y-99873000D01*
X120394428Y-99873000D01*
X120394428Y-101373000D01*
X120406688Y-101497482D01*
X120442998Y-101617180D01*
X120501963Y-101727494D01*
X120581315Y-101824185D01*
X120678006Y-101903537D01*
X120788320Y-101962502D01*
X120908018Y-101998812D01*
X121032500Y-102011072D01*
X122532500Y-102011072D01*
X122656982Y-101998812D01*
X122776680Y-101962502D01*
X122886994Y-101903537D01*
X122983685Y-101824185D01*
X123063037Y-101727494D01*
X123122002Y-101617180D01*
X123158312Y-101497482D01*
X123170572Y-101373000D01*
X123170572Y-99873000D01*
X123158312Y-99748518D01*
X123122002Y-99628820D01*
X123063037Y-99518506D01*
X122983685Y-99421815D01*
X122886994Y-99342463D01*
X122776680Y-99283498D01*
X122656982Y-99247188D01*
X122549017Y-99236555D01*
X122665386Y-99158799D01*
X122858299Y-98965886D01*
X123009871Y-98739043D01*
X123114275Y-98486989D01*
X123167500Y-98219411D01*
X123167500Y-97946589D01*
X123114275Y-97679011D01*
X123009871Y-97426957D01*
X122858299Y-97200114D01*
X122665386Y-97007201D01*
X122438543Y-96855629D01*
X122335627Y-96813000D01*
X122438543Y-96770371D01*
X122665386Y-96618799D01*
X122858299Y-96425886D01*
X123009871Y-96199043D01*
X123114275Y-95946989D01*
X123167500Y-95679411D01*
X123167500Y-95406589D01*
X123114275Y-95139011D01*
X123009871Y-94886957D01*
X122858299Y-94660114D01*
X122665386Y-94467201D01*
X122438543Y-94315629D01*
X122186489Y-94211225D01*
X121918911Y-94158000D01*
X121646089Y-94158000D01*
X121378511Y-94211225D01*
X121126457Y-94315629D01*
X120899614Y-94467201D01*
X120706701Y-94660114D01*
X120555129Y-94886957D01*
X120450725Y-95139011D01*
X120397500Y-95406589D01*
X120397500Y-95679411D01*
X120450725Y-95946989D01*
X120555129Y-96199043D01*
X120706701Y-96425886D01*
X120899614Y-96618799D01*
X121126457Y-96770371D01*
X121229373Y-96813000D01*
X121126457Y-96855629D01*
X120899614Y-97007201D01*
X120706701Y-97200114D01*
X120555129Y-97426957D01*
X120450725Y-97679011D01*
X120397500Y-97946589D01*
X120397500Y-98219411D01*
X120450725Y-98486989D01*
X120555129Y-98739043D01*
X120706701Y-98965886D01*
X120899614Y-99158799D01*
X121015983Y-99236555D01*
X120908018Y-99247188D01*
X120788320Y-99283498D01*
X120678006Y-99342463D01*
X120581315Y-99421815D01*
X120501963Y-99518506D01*
X120442998Y-99628820D01*
X120406688Y-99748518D01*
X120394428Y-99873000D01*
X102042500Y-99873000D01*
X102042500Y-96161967D01*
X105847500Y-96161967D01*
X105847500Y-96484033D01*
X105910332Y-96799912D01*
X106033582Y-97097463D01*
X106212513Y-97365252D01*
X106440248Y-97592987D01*
X106708037Y-97771918D01*
X107005588Y-97895168D01*
X107321467Y-97958000D01*
X107643533Y-97958000D01*
X107959412Y-97895168D01*
X108256963Y-97771918D01*
X108524752Y-97592987D01*
X108752487Y-97365252D01*
X108931418Y-97097463D01*
X109054668Y-96799912D01*
X109117500Y-96484033D01*
X109117500Y-96161967D01*
X109054668Y-95846088D01*
X108931418Y-95548537D01*
X108780719Y-95323000D01*
X113444428Y-95323000D01*
X113444428Y-97323000D01*
X113456688Y-97447482D01*
X113492998Y-97567180D01*
X113551963Y-97677494D01*
X113631315Y-97774185D01*
X113728006Y-97853537D01*
X113838320Y-97912502D01*
X113958018Y-97948812D01*
X114082500Y-97961072D01*
X116082500Y-97961072D01*
X116206982Y-97948812D01*
X116326680Y-97912502D01*
X116436994Y-97853537D01*
X116533685Y-97774185D01*
X116613037Y-97677494D01*
X116672002Y-97567180D01*
X116708312Y-97447482D01*
X116720572Y-97323000D01*
X116720572Y-95323000D01*
X116708312Y-95198518D01*
X116672002Y-95078820D01*
X116613037Y-94968506D01*
X116533685Y-94871815D01*
X116436994Y-94792463D01*
X116326680Y-94733498D01*
X116206982Y-94697188D01*
X116082500Y-94684928D01*
X114082500Y-94684928D01*
X113958018Y-94697188D01*
X113838320Y-94733498D01*
X113728006Y-94792463D01*
X113631315Y-94871815D01*
X113551963Y-94968506D01*
X113492998Y-95078820D01*
X113456688Y-95198518D01*
X113444428Y-95323000D01*
X108780719Y-95323000D01*
X108752487Y-95280748D01*
X108524752Y-95053013D01*
X108256963Y-94874082D01*
X107959412Y-94750832D01*
X107643533Y-94688000D01*
X107321467Y-94688000D01*
X107005588Y-94750832D01*
X106708037Y-94874082D01*
X106440248Y-95053013D01*
X106212513Y-95280748D01*
X106033582Y-95548537D01*
X105910332Y-95846088D01*
X105847500Y-96161967D01*
X102042500Y-96161967D01*
X102042500Y-91142268D01*
X120747500Y-91142268D01*
X120747500Y-91503732D01*
X120818018Y-91858250D01*
X120956344Y-92192199D01*
X121157162Y-92492744D01*
X121412756Y-92748338D01*
X121713301Y-92949156D01*
X122047250Y-93087482D01*
X122401768Y-93158000D01*
X122763232Y-93158000D01*
X123117750Y-93087482D01*
X123451699Y-92949156D01*
X123752244Y-92748338D01*
X124007838Y-92492744D01*
X124208656Y-92192199D01*
X124346982Y-91858250D01*
X124417500Y-91503732D01*
X124417500Y-91142268D01*
X124346982Y-90787750D01*
X124208656Y-90453801D01*
X124007838Y-90153256D01*
X123752244Y-89897662D01*
X123451699Y-89696844D01*
X123117750Y-89558518D01*
X122763232Y-89488000D01*
X122401768Y-89488000D01*
X122047250Y-89558518D01*
X121713301Y-89696844D01*
X121412756Y-89897662D01*
X121157162Y-90153256D01*
X120956344Y-90453801D01*
X120818018Y-90787750D01*
X120747500Y-91142268D01*
X102042500Y-91142268D01*
X102042500Y-80509323D01*
X103962997Y-80509323D01*
X103962997Y-80936677D01*
X104046370Y-81355821D01*
X104209912Y-81750645D01*
X104447337Y-82105977D01*
X104749523Y-82408163D01*
X105104855Y-82645588D01*
X105499679Y-82809130D01*
X105918823Y-82892503D01*
X106346177Y-82892503D01*
X106765321Y-82809130D01*
X107160145Y-82645588D01*
X107515477Y-82408163D01*
X107817663Y-82105977D01*
X108055088Y-81750645D01*
X108218630Y-81355821D01*
X108302003Y-80936677D01*
X108302003Y-80509323D01*
X108218630Y-80090179D01*
X108055088Y-79695355D01*
X107817663Y-79340023D01*
X107515477Y-79037837D01*
X107160145Y-78800412D01*
X106765321Y-78636870D01*
X106346177Y-78553497D01*
X105918823Y-78553497D01*
X105499679Y-78636870D01*
X105104855Y-78800412D01*
X104749523Y-79037837D01*
X104447337Y-79340023D01*
X104209912Y-79695355D01*
X104046370Y-80090179D01*
X103962997Y-80509323D01*
X102042500Y-80509323D01*
X102042500Y-78442268D01*
X120747500Y-78442268D01*
X120747500Y-78803732D01*
X120818018Y-79158250D01*
X120956344Y-79492199D01*
X121157162Y-79792744D01*
X121412756Y-80048338D01*
X121713301Y-80249156D01*
X122047250Y-80387482D01*
X122401768Y-80458000D01*
X122763232Y-80458000D01*
X123117750Y-80387482D01*
X123451699Y-80249156D01*
X123752244Y-80048338D01*
X124007838Y-79792744D01*
X124208656Y-79492199D01*
X124346982Y-79158250D01*
X124417500Y-78803732D01*
X124417500Y-78442268D01*
X124346982Y-78087750D01*
X124208656Y-77753801D01*
X124007838Y-77453256D01*
X123752244Y-77197662D01*
X123451699Y-76996844D01*
X123117750Y-76858518D01*
X122763232Y-76788000D01*
X122401768Y-76788000D01*
X122047250Y-76858518D01*
X121713301Y-76996844D01*
X121412756Y-77197662D01*
X121157162Y-77453256D01*
X120956344Y-77753801D01*
X120818018Y-78087750D01*
X120747500Y-78442268D01*
X102042500Y-78442268D01*
X102042500Y-72180689D01*
X104801449Y-72180689D01*
X104801449Y-72473209D01*
X104858517Y-72760107D01*
X104970459Y-73030360D01*
X105132974Y-73273581D01*
X105339817Y-73480424D01*
X105583038Y-73642939D01*
X105853291Y-73754881D01*
X106140189Y-73811949D01*
X106326660Y-73811949D01*
X106290916Y-73878820D01*
X106254606Y-73998518D01*
X106242346Y-74123000D01*
X106254606Y-74247482D01*
X106290916Y-74367180D01*
X106349881Y-74477494D01*
X106429233Y-74574185D01*
X107631315Y-75776267D01*
X107728006Y-75855619D01*
X107838320Y-75914584D01*
X107958018Y-75950894D01*
X108082500Y-75963154D01*
X108206982Y-75950894D01*
X108326680Y-75914584D01*
X108436994Y-75855619D01*
X108533685Y-75776267D01*
X109735767Y-74574185D01*
X109815119Y-74477494D01*
X109874084Y-74367180D01*
X109910394Y-74247482D01*
X109922654Y-74123000D01*
X109910394Y-73998518D01*
X109874084Y-73878820D01*
X109815119Y-73768506D01*
X109735767Y-73671815D01*
X108533685Y-72469733D01*
X108436994Y-72390381D01*
X108326680Y-72331416D01*
X108206982Y-72295106D01*
X108082500Y-72282846D01*
X107958018Y-72295106D01*
X107838320Y-72331416D01*
X107771449Y-72367160D01*
X107771449Y-72180689D01*
X107714381Y-71893791D01*
X107602439Y-71623538D01*
X107439924Y-71380317D01*
X107233081Y-71173474D01*
X106989860Y-71010959D01*
X106719607Y-70899017D01*
X106432709Y-70841949D01*
X106140189Y-70841949D01*
X105853291Y-70899017D01*
X105583038Y-71010959D01*
X105339817Y-71173474D01*
X105132974Y-71380317D01*
X104970459Y-71623538D01*
X104858517Y-71893791D01*
X104801449Y-72180689D01*
X102042500Y-72180689D01*
X102042500Y-65996380D01*
X102155881Y-65883000D01*
X105249583Y-65883000D01*
X105252890Y-65961900D01*
G37*
X105252890Y-65961900D02*
X105256491Y-65994523D01*
X105258895Y-66027257D01*
X105259905Y-66034094D01*
X105434802Y-67177050D01*
X105443841Y-67217488D01*
X105452459Y-67258031D01*
X105454387Y-67264668D01*
X105782782Y-68373312D01*
X105797228Y-68412157D01*
X105811266Y-68451148D01*
X105814071Y-68457447D01*
X105814076Y-68457461D01*
X105814082Y-68457473D01*
X106289895Y-69511282D01*
X106309473Y-69547795D01*
X106328679Y-69584532D01*
X106332314Y-69590393D01*
X106332320Y-69590405D01*
X106332327Y-69590415D01*
X106946756Y-70569898D01*
X106971074Y-70603369D01*
X106995121Y-70637207D01*
X106999527Y-70642532D01*
X107741209Y-71529573D01*
X107769860Y-71559450D01*
X107798263Y-71589696D01*
X107803350Y-71594374D01*
X108658556Y-72372551D01*
X108691069Y-72398320D01*
X108723241Y-72424373D01*
X108728906Y-72428310D01*
X108728916Y-72428318D01*
X108728926Y-72428324D01*
X109681820Y-73083230D01*
X109717436Y-73104293D01*
X109752939Y-73125795D01*
X109759097Y-73128932D01*
X110792068Y-73648462D01*
X110830282Y-73664526D01*
X110868306Y-73680981D01*
X110874818Y-73683248D01*
X110874832Y-73683254D01*
X110874845Y-73683258D01*
X111968752Y-74057786D01*
X112008775Y-74068510D01*
X112048699Y-74079657D01*
X112055466Y-74081021D01*
X112055472Y-74081023D01*
X112055478Y-74081024D01*
X113190103Y-74303628D01*
X113231217Y-74308822D01*
X113272278Y-74314447D01*
X113279174Y-74314881D01*
X113279176Y-74314881D01*
X114433517Y-74381440D01*
X114474966Y-74381006D01*
X114516400Y-74381006D01*
X114523277Y-74380500D01*
X114523292Y-74380500D01*
X114523305Y-74380498D01*
X115675989Y-74289780D01*
X115716982Y-74283727D01*
X115758046Y-74278102D01*
X115764793Y-74276668D01*
X115764805Y-74276666D01*
X115764816Y-74276663D01*
X116894524Y-74030346D01*
X116934354Y-74018775D01*
X116974237Y-74007639D01*
X116980725Y-74005303D01*
X116980739Y-74005299D01*
X116980752Y-74005293D01*
X118066577Y-73607938D01*
X118104422Y-73591089D01*
X118142470Y-73574624D01*
X118148575Y-73571431D01*
X118148595Y-73571422D01*
X118148612Y-73571412D01*
X119170458Y-73030373D01*
X119205673Y-73008539D01*
X119241128Y-72987067D01*
X119246750Y-72983071D01*
X119246761Y-72983064D01*
X119246770Y-72983056D01*
X120185741Y-72308338D01*
X120217675Y-72281920D01*
X120249880Y-72255841D01*
X120254909Y-72251118D01*
X120254918Y-72251111D01*
X120254925Y-72251103D01*
X121093639Y-71455193D01*
X121121682Y-71424697D01*
X121150060Y-71394477D01*
X121154409Y-71389106D01*
X121877352Y-70486725D01*
X121900985Y-70452723D01*
X121925011Y-70418914D01*
X121928586Y-70413010D01*
X121928591Y-70413003D01*
X121928594Y-70412996D01*
X122522378Y-69420856D01*
X122541196Y-69383925D01*
X122560393Y-69347204D01*
X122563131Y-69340875D01*
X122563138Y-69340862D01*
X122563142Y-69340849D01*
X123016781Y-68277309D01*
X123030406Y-68238184D01*
X123044449Y-68199179D01*
X123046307Y-68192522D01*
X123097500Y-68005391D01*
X123097500Y-74879531D01*
X123093219Y-74923000D01*
X123097500Y-74966469D01*
X123097500Y-74966476D01*
X123110305Y-75096489D01*
X123160911Y-75263312D01*
X123243089Y-75417058D01*
X123353683Y-75551817D01*
X123387456Y-75579534D01*
X124425970Y-76618049D01*
X124453683Y-76651817D01*
X124487451Y-76679530D01*
X124487453Y-76679532D01*
X124511823Y-76699532D01*
X124588441Y-76762411D01*
X124742187Y-76844589D01*
X124778588Y-76855631D01*
X124795347Y-76864589D01*
X124962170Y-76915195D01*
X125092183Y-76928000D01*
X125092193Y-76928000D01*
X125135659Y-76932281D01*
X125178255Y-76928086D01*
X125290085Y-77095451D01*
X125507634Y-77313000D01*
X125290085Y-77530549D01*
X125109403Y-77800958D01*
X124984947Y-78101421D01*
X124921500Y-78420391D01*
X124921500Y-78745609D01*
X124984947Y-79064579D01*
X125109403Y-79365042D01*
X125290085Y-79635451D01*
X125507634Y-79853000D01*
X125290085Y-80070549D01*
X125109403Y-80340958D01*
X124984947Y-80641421D01*
X124921500Y-80960391D01*
X124921500Y-81285609D01*
X124984947Y-81604579D01*
X125109403Y-81905042D01*
X125290085Y-82175451D01*
X125507634Y-82393000D01*
X125290085Y-82610549D01*
X125109403Y-82880958D01*
X124984947Y-83181421D01*
X124921500Y-83500391D01*
X124921500Y-83825609D01*
X124984947Y-84144579D01*
X125109403Y-84445042D01*
X125290085Y-84715451D01*
X125507634Y-84933000D01*
X125290085Y-85150549D01*
X125109403Y-85420958D01*
X124984947Y-85721421D01*
X124921500Y-86040391D01*
X124921500Y-86365609D01*
X124984947Y-86684579D01*
X125109403Y-86985042D01*
X125290085Y-87255451D01*
X125520049Y-87485415D01*
X125790458Y-87666097D01*
X126090921Y-87790553D01*
X126409891Y-87854000D01*
X126735109Y-87854000D01*
X127054079Y-87790553D01*
X127354542Y-87666097D01*
X127624951Y-87485415D01*
X127854915Y-87255451D01*
X128035597Y-86985042D01*
X128160053Y-86684579D01*
X128223500Y-86365609D01*
X128223500Y-86040391D01*
X128160053Y-85721421D01*
X128035597Y-85420958D01*
X127854915Y-85150549D01*
X127637366Y-84933000D01*
X127854915Y-84715451D01*
X128035597Y-84445042D01*
X128160053Y-84144579D01*
X128223500Y-83825609D01*
X128223500Y-83500391D01*
X128160053Y-83181421D01*
X128035597Y-82880958D01*
X127854915Y-82610549D01*
X127637366Y-82393000D01*
X127832564Y-82197802D01*
X128297500Y-82662739D01*
X128297501Y-94179521D01*
X128293219Y-94223000D01*
X128310305Y-94396490D01*
X128360912Y-94563313D01*
X128443090Y-94717059D01*
X128525968Y-94818046D01*
X128525971Y-94818049D01*
X128553684Y-94851817D01*
X128587452Y-94879530D01*
X134525970Y-100818049D01*
X134553683Y-100851817D01*
X134587451Y-100879530D01*
X134587453Y-100879532D01*
X134658952Y-100938210D01*
X134688441Y-100962411D01*
X134842187Y-101044589D01*
X135009010Y-101095195D01*
X135139023Y-101108000D01*
X135139033Y-101108000D01*
X135182499Y-101112281D01*
X135225965Y-101108000D01*
X146515922Y-101108000D01*
X147914310Y-102506389D01*
X147847500Y-102842268D01*
X147847500Y-103203732D01*
X147918018Y-103558250D01*
X148056344Y-103892199D01*
X148257162Y-104192744D01*
X148512756Y-104448338D01*
X148813301Y-104649156D01*
X149147250Y-104787482D01*
X149501768Y-104858000D01*
X149863232Y-104858000D01*
X150217750Y-104787482D01*
X150551699Y-104649156D01*
X150852244Y-104448338D01*
X151107838Y-104192744D01*
X151308656Y-103892199D01*
X151446982Y-103558250D01*
X151517500Y-103203732D01*
X151517500Y-102842268D01*
X152547500Y-102842268D01*
X152547500Y-103203732D01*
X152618018Y-103558250D01*
X152756344Y-103892199D01*
X152957162Y-104192744D01*
X153212756Y-104448338D01*
X153513301Y-104649156D01*
X153847250Y-104787482D01*
X154201768Y-104858000D01*
X154563232Y-104858000D01*
X154917750Y-104787482D01*
X155251699Y-104649156D01*
X155552244Y-104448338D01*
X155807838Y-104192744D01*
X156008656Y-103892199D01*
X156146982Y-103558250D01*
X156217500Y-103203732D01*
X156217500Y-102842268D01*
X156146982Y-102487750D01*
X156120162Y-102423000D01*
X158691928Y-102423000D01*
X158691928Y-104423000D01*
X158704188Y-104547482D01*
X158740498Y-104667180D01*
X158799463Y-104777494D01*
X158878815Y-104874185D01*
X158975506Y-104953537D01*
X159085820Y-105012502D01*
X159205518Y-105048812D01*
X159330000Y-105061072D01*
X161235000Y-105061072D01*
X161359482Y-105048812D01*
X161479180Y-105012502D01*
X161589494Y-104953537D01*
X161686185Y-104874185D01*
X161765537Y-104777494D01*
X161810405Y-104693553D01*
X161936266Y-104796845D01*
X162212052Y-104944255D01*
X162511297Y-105035030D01*
X162822500Y-105065681D01*
X163133704Y-105035030D01*
X163432949Y-104944255D01*
X163708735Y-104796845D01*
X163950463Y-104598463D01*
X164097662Y-104419100D01*
X164253063Y-104604315D01*
X164495577Y-104798969D01*
X164771406Y-104942571D01*
X164989520Y-105013563D01*
X165235500Y-104893594D01*
X165235500Y-103550000D01*
X165489500Y-103550000D01*
X165489500Y-104893594D01*
X165735480Y-105013563D01*
X165953594Y-104942571D01*
X166229423Y-104798969D01*
X166471937Y-104604315D01*
X166671816Y-104366089D01*
X166821379Y-104093446D01*
X166914878Y-103796863D01*
X166788070Y-103550000D01*
X165489500Y-103550000D01*
X165235500Y-103550000D01*
X165215500Y-103550000D01*
X165215500Y-103296000D01*
X165235500Y-103296000D01*
X165235500Y-101952406D01*
X165489500Y-101952406D01*
X165489500Y-103296000D01*
X166788070Y-103296000D01*
X166914878Y-103049137D01*
X166821379Y-102752554D01*
X166671816Y-102479911D01*
X166471937Y-102241685D01*
X166229423Y-102047031D01*
X165953594Y-101903429D01*
X165735480Y-101832437D01*
X165489500Y-101952406D01*
X165235500Y-101952406D01*
X164989520Y-101832437D01*
X164771406Y-101903429D01*
X164495577Y-102047031D01*
X164253063Y-102241685D01*
X164097663Y-102426899D01*
X163950463Y-102247537D01*
X163708734Y-102049155D01*
X163432948Y-101901745D01*
X163133703Y-101810970D01*
X162822500Y-101780319D01*
X162511296Y-101810970D01*
X162212051Y-101901745D01*
X161936265Y-102049155D01*
X161810405Y-102152446D01*
X161765537Y-102068506D01*
X161686185Y-101971815D01*
X161589494Y-101892463D01*
X161479180Y-101833498D01*
X161359482Y-101797188D01*
X161235000Y-101784928D01*
X159330000Y-101784928D01*
X159205518Y-101797188D01*
X159085820Y-101833498D01*
X158975506Y-101892463D01*
X158878815Y-101971815D01*
X158799463Y-102068506D01*
X158740498Y-102178820D01*
X158704188Y-102298518D01*
X158691928Y-102423000D01*
X156120162Y-102423000D01*
X156008656Y-102153801D01*
X155807838Y-101853256D01*
X155552244Y-101597662D01*
X155251699Y-101396844D01*
X154917750Y-101258518D01*
X154563232Y-101188000D01*
X154201768Y-101188000D01*
X153847250Y-101258518D01*
X153513301Y-101396844D01*
X153212756Y-101597662D01*
X152957162Y-101853256D01*
X152756344Y-102153801D01*
X152618018Y-102487750D01*
X152547500Y-102842268D01*
X151517500Y-102842268D01*
X151446982Y-102487750D01*
X151308656Y-102153801D01*
X151107838Y-101853256D01*
X150852244Y-101597662D01*
X150551699Y-101396844D01*
X150217750Y-101258518D01*
X149863232Y-101188000D01*
X149501768Y-101188000D01*
X149165889Y-101254810D01*
X148019078Y-100108000D01*
X167515922Y-100108000D01*
X172497500Y-105089579D01*
X172497501Y-125679521D01*
X172493219Y-125723000D01*
X172510305Y-125896490D01*
X172560912Y-126063313D01*
X172643090Y-126217059D01*
X172725968Y-126318046D01*
X172725971Y-126318049D01*
X172753684Y-126351817D01*
X172787451Y-126379529D01*
X175225970Y-128818049D01*
X175253683Y-128851817D01*
X175287451Y-128879530D01*
X175287453Y-128879532D01*
X175388441Y-128962411D01*
X175542187Y-129044589D01*
X175709010Y-129095195D01*
X175839023Y-129108000D01*
X175839031Y-129108000D01*
X175882500Y-129112281D01*
X175925969Y-129108000D01*
X186701705Y-129108000D01*
X186089011Y-129156220D01*
X186048024Y-129162272D01*
X186006953Y-129167898D01*
X186000206Y-129169332D01*
X186000194Y-129169334D01*
X186000183Y-129169337D01*
X184870476Y-129415654D01*
X184830623Y-129427232D01*
X184790763Y-129438361D01*
X184784280Y-129440695D01*
X184784260Y-129440701D01*
X184784243Y-129440709D01*
X183698424Y-129838062D01*
X183660597Y-129854903D01*
X183622530Y-129871376D01*
X183616412Y-129874575D01*
X183616405Y-129874578D01*
X183616399Y-129874582D01*
X182594543Y-130415627D01*
X182559350Y-130437447D01*
X182523872Y-130458933D01*
X182518250Y-130462929D01*
X182518239Y-130462936D01*
X182518230Y-130462944D01*
X181579259Y-131137662D01*
X181547325Y-131164080D01*
X181515120Y-131190159D01*
X181510091Y-131194882D01*
X181510082Y-131194889D01*
X181510075Y-131194897D01*
X180671361Y-131990807D01*
X180643318Y-132021303D01*
X180614940Y-132051523D01*
X180610591Y-132056894D01*
X179887648Y-132959275D01*
X179864015Y-132993277D01*
X179839989Y-133027086D01*
X179836414Y-133032990D01*
X179836409Y-133032997D01*
X179836406Y-133033004D01*
X179242622Y-134025144D01*
X179223822Y-134062041D01*
X179204607Y-134098796D01*
X179201863Y-134105139D01*
X178748219Y-135168691D01*
X178734578Y-135207862D01*
X178720552Y-135246821D01*
X178718693Y-135253478D01*
X178413587Y-136368757D01*
X178405399Y-136409366D01*
X178396779Y-136449919D01*
X178395841Y-136456766D01*
X178244919Y-137603134D01*
X178242317Y-137644498D01*
X178239282Y-137685826D01*
X178239282Y-137692737D01*
X178245336Y-138848981D01*
X178248371Y-138890312D01*
X178250973Y-138931672D01*
X178251911Y-138938520D01*
X178414829Y-140083243D01*
X178423446Y-140123785D01*
X178431637Y-140164406D01*
X178433493Y-140171050D01*
X178433495Y-140171061D01*
X178433498Y-140171071D01*
X178750264Y-141283085D01*
X178764299Y-141322069D01*
X178777931Y-141361215D01*
X178780672Y-141367549D01*
X178780675Y-141367557D01*
X178780676Y-141367558D01*
X179245433Y-142426302D01*
X179264628Y-142463020D01*
X179283447Y-142499953D01*
X179287027Y-142505865D01*
X179891171Y-143491739D01*
X179915180Y-143525523D01*
X179938830Y-143559551D01*
X179943180Y-143564922D01*
X180675533Y-144459682D01*
X180703907Y-144489897D01*
X180731953Y-144520397D01*
X180736983Y-144525121D01*
X180736991Y-144525129D01*
X180736999Y-144525136D01*
X181584001Y-145312219D01*
X181616196Y-145338290D01*
X181648140Y-145364717D01*
X181653768Y-145368716D01*
X181653772Y-145368719D01*
X181653774Y-145368720D01*
X182599767Y-146033575D01*
X182635235Y-146055056D01*
X182670437Y-146076882D01*
X182676549Y-146080077D01*
X182676561Y-146080084D01*
X182676573Y-146080089D01*
X183704034Y-146610401D01*
X183742111Y-146626879D01*
X183779928Y-146643716D01*
X183786416Y-146646052D01*
X183786430Y-146646058D01*
X183786443Y-146646062D01*
X184876369Y-147032025D01*
X184916293Y-147043172D01*
X184956082Y-147054732D01*
X184962838Y-147056168D01*
X184962841Y-147056169D01*
X184962844Y-147056169D01*
X186095078Y-147290644D01*
X186136136Y-147296268D01*
X186177136Y-147302323D01*
X186184028Y-147302829D01*
X186722500Y-147339538D01*
X186722501Y-150449618D01*
X186609120Y-150563000D01*
X115155881Y-150563000D01*
X115042500Y-150449620D01*
X115042500Y-147355917D01*
X115121400Y-147352610D01*
X115154023Y-147349009D01*
X115186757Y-147346605D01*
X115193594Y-147345595D01*
X116336550Y-147170698D01*
X116376988Y-147161659D01*
X116417531Y-147153041D01*
X116424168Y-147151113D01*
X117532812Y-146822718D01*
X117571657Y-146808272D01*
X117610648Y-146794234D01*
X117616947Y-146791429D01*
X117616961Y-146791424D01*
X117616973Y-146791418D01*
X118670782Y-146315605D01*
X118707295Y-146296027D01*
X118744032Y-146276821D01*
X118749893Y-146273186D01*
X118749905Y-146273180D01*
X118749915Y-146273173D01*
X119729398Y-145658744D01*
X119762869Y-145634426D01*
X119796707Y-145610379D01*
X119802032Y-145605973D01*
X120689073Y-144864291D01*
X120718950Y-144835640D01*
X120749196Y-144807237D01*
X120753874Y-144802150D01*
X121532051Y-143946944D01*
X121557820Y-143914431D01*
X121583873Y-143882259D01*
X121587810Y-143876594D01*
X121587818Y-143876584D01*
X121587824Y-143876574D01*
X122242730Y-142923680D01*
X122263793Y-142888064D01*
X122285295Y-142852561D01*
X122288432Y-142846403D01*
X122807962Y-141813432D01*
X122824026Y-141775218D01*
X122840481Y-141737194D01*
X122842748Y-141730682D01*
X122842754Y-141730668D01*
X122842758Y-141730655D01*
X122873812Y-141639953D01*
X144820347Y-141639953D01*
X144820347Y-141965171D01*
X144883794Y-142284141D01*
X145008250Y-142584604D01*
X145188932Y-142855013D01*
X145418896Y-143084977D01*
X145689305Y-143265659D01*
X145989768Y-143390115D01*
X146308738Y-143453562D01*
X146633956Y-143453562D01*
X146952926Y-143390115D01*
X147253389Y-143265659D01*
X147523798Y-143084977D01*
X147753762Y-142855013D01*
X147934444Y-142584604D01*
X148058900Y-142284141D01*
X148122347Y-141965171D01*
X148122347Y-141657511D01*
X148430008Y-141657511D01*
X148748978Y-141594064D01*
X149049441Y-141469608D01*
X149319850Y-141288926D01*
X149549814Y-141058962D01*
X149730496Y-140788553D01*
X149854952Y-140488090D01*
X149918399Y-140169120D01*
X149918399Y-139861460D01*
X150226059Y-139861460D01*
X150545029Y-139798013D01*
X150845492Y-139673557D01*
X151115901Y-139492875D01*
X151345865Y-139262911D01*
X151526547Y-138992502D01*
X151651003Y-138692039D01*
X151714450Y-138373069D01*
X151714450Y-138047851D01*
X151651003Y-137728881D01*
X151526547Y-137428418D01*
X151345865Y-137158009D01*
X151115901Y-136928045D01*
X150845492Y-136747363D01*
X150545029Y-136622907D01*
X150226059Y-136559460D01*
X149900841Y-136559460D01*
X149581871Y-136622907D01*
X149281408Y-136747363D01*
X149010999Y-136928045D01*
X148781035Y-137158009D01*
X148600353Y-137428418D01*
X148475897Y-137728881D01*
X148412450Y-138047851D01*
X148412450Y-138355511D01*
X148104790Y-138355511D01*
X147785820Y-138418958D01*
X147485357Y-138543414D01*
X147214948Y-138724096D01*
X146984984Y-138954060D01*
X146804302Y-139224469D01*
X146679846Y-139524932D01*
X146616399Y-139843902D01*
X146616399Y-140151562D01*
X146308738Y-140151562D01*
X145989768Y-140215009D01*
X145689305Y-140339465D01*
X145418896Y-140520147D01*
X145188932Y-140750111D01*
X145008250Y-141020520D01*
X144883794Y-141320983D01*
X144820347Y-141639953D01*
X122873812Y-141639953D01*
X123217286Y-140636748D01*
X123228010Y-140596725D01*
X123239157Y-140556801D01*
X123240523Y-140550026D01*
X123463128Y-139415397D01*
X123468322Y-139374283D01*
X123473947Y-139333222D01*
X123474381Y-139326324D01*
X123540940Y-138171983D01*
X123540506Y-138130534D01*
X123540506Y-138089099D01*
X123540000Y-138082223D01*
X123540000Y-138082208D01*
X123539998Y-138082195D01*
X123449280Y-136929511D01*
X123443228Y-136888524D01*
X123437602Y-136847453D01*
X123436168Y-136840706D01*
X123436166Y-136840694D01*
X123436163Y-136840683D01*
X123189846Y-135710976D01*
X123178268Y-135671123D01*
X123167139Y-135631263D01*
X123164805Y-135624780D01*
X123164799Y-135624760D01*
X123164791Y-135624743D01*
X122767438Y-134538924D01*
X122750597Y-134501097D01*
X122734124Y-134463030D01*
X122730922Y-134456906D01*
X122730922Y-134456905D01*
X122730918Y-134456899D01*
X122189873Y-133435043D01*
X122168053Y-133399850D01*
X122146567Y-133364372D01*
X122142571Y-133358750D01*
X122142564Y-133358739D01*
X122142556Y-133358730D01*
X121467838Y-132419759D01*
X121441420Y-132387825D01*
X121415341Y-132355620D01*
X121410618Y-132350591D01*
X121410611Y-132350582D01*
X121410603Y-132350575D01*
X120614693Y-131511861D01*
X120584197Y-131483818D01*
X120553977Y-131455440D01*
X120548606Y-131451091D01*
X120058362Y-131058331D01*
X121710590Y-131058331D01*
X121710590Y-131387669D01*
X121774840Y-131710678D01*
X121900872Y-132014947D01*
X122083842Y-132288781D01*
X122316719Y-132521658D01*
X122590553Y-132704628D01*
X122894822Y-132830660D01*
X123217831Y-132894910D01*
X123547169Y-132894910D01*
X123870178Y-132830660D01*
X124174447Y-132704628D01*
X124448281Y-132521658D01*
X124681158Y-132288781D01*
X124864128Y-132014947D01*
X124990160Y-131710678D01*
X125054410Y-131387669D01*
X125054410Y-131058331D01*
X176710590Y-131058331D01*
X176710590Y-131387669D01*
X176774840Y-131710678D01*
X176900872Y-132014947D01*
X177083842Y-132288781D01*
X177316719Y-132521658D01*
X177590553Y-132704628D01*
X177894822Y-132830660D01*
X178217831Y-132894910D01*
X178547169Y-132894910D01*
X178870178Y-132830660D01*
X179174447Y-132704628D01*
X179448281Y-132521658D01*
X179681158Y-132288781D01*
X179864128Y-132014947D01*
X179990160Y-131710678D01*
X180054410Y-131387669D01*
X180054410Y-131058331D01*
X179990160Y-130735322D01*
X179864128Y-130431053D01*
X179681158Y-130157219D01*
X179448281Y-129924342D01*
X179174447Y-129741372D01*
X178870178Y-129615340D01*
X178547169Y-129551090D01*
X178217831Y-129551090D01*
X177894822Y-129615340D01*
X177590553Y-129741372D01*
X177316719Y-129924342D01*
X177083842Y-130157219D01*
X176900872Y-130431053D01*
X176774840Y-130735322D01*
X176710590Y-131058331D01*
X125054410Y-131058331D01*
X124990160Y-130735322D01*
X124864128Y-130431053D01*
X124681158Y-130157219D01*
X124448281Y-129924342D01*
X124174447Y-129741372D01*
X123870178Y-129615340D01*
X123547169Y-129551090D01*
X123217831Y-129551090D01*
X122894822Y-129615340D01*
X122590553Y-129741372D01*
X122316719Y-129924342D01*
X122083842Y-130157219D01*
X121900872Y-130431053D01*
X121774840Y-130735322D01*
X121710590Y-131058331D01*
X120058362Y-131058331D01*
X119646225Y-130728148D01*
X119612223Y-130704515D01*
X119578414Y-130680489D01*
X119572510Y-130676914D01*
X119572503Y-130676909D01*
X119572496Y-130676906D01*
X118580356Y-130083122D01*
X118543459Y-130064322D01*
X118506704Y-130045107D01*
X118500368Y-130042366D01*
X118500362Y-130042363D01*
X118500357Y-130042361D01*
X117436809Y-129588719D01*
X117397638Y-129575078D01*
X117358679Y-129561052D01*
X117352027Y-129559194D01*
X117352019Y-129559192D01*
X116236743Y-129254087D01*
X116196134Y-129245899D01*
X116155581Y-129237279D01*
X116148737Y-129236341D01*
X116148733Y-129236341D01*
X115002366Y-129085419D01*
X114961006Y-129082817D01*
X114919675Y-129079782D01*
X114912763Y-129079782D01*
X113756519Y-129085836D01*
X113715194Y-129088871D01*
X113673827Y-129091473D01*
X113666980Y-129092411D01*
X112522256Y-129255329D01*
X112481695Y-129263950D01*
X112441094Y-129272137D01*
X112434453Y-129273992D01*
X112434438Y-129273995D01*
X112434425Y-129274000D01*
X111322415Y-129590764D01*
X111283447Y-129604793D01*
X111244284Y-129618431D01*
X111237951Y-129621172D01*
X111237943Y-129621175D01*
X111237936Y-129621178D01*
X110179198Y-130085933D01*
X110142501Y-130105118D01*
X110105546Y-130123947D01*
X110099635Y-130127527D01*
X109113761Y-130731671D01*
X109079953Y-130755697D01*
X109045950Y-130779330D01*
X109040579Y-130783679D01*
X108145818Y-131516033D01*
X108115626Y-131544385D01*
X108085102Y-131572453D01*
X108080372Y-131577491D01*
X107293281Y-132424501D01*
X107267205Y-132456701D01*
X107240783Y-132488640D01*
X107236786Y-132494266D01*
X107236780Y-132494273D01*
X107236776Y-132494280D01*
X106571925Y-133440267D01*
X106550464Y-133475703D01*
X106528618Y-133510937D01*
X106525420Y-133517055D01*
X106525416Y-133517061D01*
X106525416Y-133517062D01*
X105995099Y-134544534D01*
X105978656Y-134582531D01*
X105961783Y-134620428D01*
X105959450Y-134626911D01*
X105959442Y-134626930D01*
X105959437Y-134626948D01*
X105573475Y-135716869D01*
X105562331Y-135756781D01*
X105550768Y-135796582D01*
X105549331Y-135803342D01*
X105314856Y-136935578D01*
X105309233Y-136976628D01*
X105303177Y-137017635D01*
X105302671Y-137024528D01*
X105265962Y-137563000D01*
X102155881Y-137563000D01*
X102042500Y-137449620D01*
X102042500Y-130872791D01*
X104501449Y-130872791D01*
X104501449Y-131165311D01*
X104558517Y-131452209D01*
X104670459Y-131722462D01*
X104832974Y-131965683D01*
X105039817Y-132172526D01*
X105283038Y-132335041D01*
X105553291Y-132446983D01*
X105840189Y-132504051D01*
X106132709Y-132504051D01*
X106419607Y-132446983D01*
X106689860Y-132335041D01*
X106933081Y-132172526D01*
X107139924Y-131965683D01*
X107302439Y-131722462D01*
X107414381Y-131452209D01*
X107471449Y-131165311D01*
X107471449Y-130978840D01*
X107538320Y-131014584D01*
X107658018Y-131050894D01*
X107782500Y-131063154D01*
X107906982Y-131050894D01*
X108026680Y-131014584D01*
X108136994Y-130955619D01*
X108233685Y-130876267D01*
X109435767Y-129674185D01*
X109515119Y-129577494D01*
X109574084Y-129467180D01*
X109610394Y-129347482D01*
X109622654Y-129223000D01*
X109610394Y-129098518D01*
X109574084Y-128978820D01*
X109515119Y-128868506D01*
X109435767Y-128771815D01*
X108233685Y-127569733D01*
X108136994Y-127490381D01*
X108026680Y-127431416D01*
X107906982Y-127395106D01*
X107782500Y-127382846D01*
X107658018Y-127395106D01*
X107538320Y-127431416D01*
X107428006Y-127490381D01*
X107331315Y-127569733D01*
X106129233Y-128771815D01*
X106049881Y-128868506D01*
X105990916Y-128978820D01*
X105954606Y-129098518D01*
X105942346Y-129223000D01*
X105954606Y-129347482D01*
X105990916Y-129467180D01*
X106026660Y-129534051D01*
X105840189Y-129534051D01*
X105553291Y-129591119D01*
X105283038Y-129703061D01*
X105039817Y-129865576D01*
X104832974Y-130072419D01*
X104670459Y-130315640D01*
X104558517Y-130585893D01*
X104501449Y-130872791D01*
X102042500Y-130872791D01*
X102042500Y-122509323D01*
X103962997Y-122509323D01*
X103962997Y-122936677D01*
X104046370Y-123355821D01*
X104209912Y-123750645D01*
X104447337Y-124105977D01*
X104749523Y-124408163D01*
X105104855Y-124645588D01*
X105499679Y-124809130D01*
X105918823Y-124892503D01*
X106346177Y-124892503D01*
X106765321Y-124809130D01*
X107160145Y-124645588D01*
X107515477Y-124408163D01*
X107817663Y-124105977D01*
X108055088Y-123750645D01*
X108218630Y-123355821D01*
X108302003Y-122936677D01*
X108302003Y-122509323D01*
X108218630Y-122090179D01*
X108055088Y-121695355D01*
X107817663Y-121340023D01*
X107515477Y-121037837D01*
X107160145Y-120800412D01*
X106765321Y-120636870D01*
X106346177Y-120553497D01*
X105918823Y-120553497D01*
X105499679Y-120636870D01*
X105104855Y-120800412D01*
X104749523Y-121037837D01*
X104447337Y-121340023D01*
X104209912Y-121695355D01*
X104046370Y-122090179D01*
X103962997Y-122509323D01*
X102042500Y-122509323D01*
X102042500Y-102960391D01*
X125451500Y-102960391D01*
X125451500Y-103285609D01*
X125514947Y-103604579D01*
X125639403Y-103905042D01*
X125820085Y-104175451D01*
X126050049Y-104405415D01*
X126320458Y-104586097D01*
X126620921Y-104710553D01*
X126939891Y-104774000D01*
X127265109Y-104774000D01*
X127584079Y-104710553D01*
X127884542Y-104586097D01*
X128154951Y-104405415D01*
X128372500Y-104187866D01*
X128590049Y-104405415D01*
X128860458Y-104586097D01*
X129160921Y-104710553D01*
X129479891Y-104774000D01*
X129805109Y-104774000D01*
X130124079Y-104710553D01*
X130424542Y-104586097D01*
X130694951Y-104405415D01*
X130912500Y-104187866D01*
X131130049Y-104405415D01*
X131400458Y-104586097D01*
X131700921Y-104710553D01*
X132019891Y-104774000D01*
X132345109Y-104774000D01*
X132664079Y-104710553D01*
X132964542Y-104586097D01*
X133234951Y-104405415D01*
X133452500Y-104187866D01*
X133670049Y-104405415D01*
X133940458Y-104586097D01*
X134240921Y-104710553D01*
X134559891Y-104774000D01*
X134885109Y-104774000D01*
X135204079Y-104710553D01*
X135504542Y-104586097D01*
X135774951Y-104405415D01*
X135992500Y-104187866D01*
X136210049Y-104405415D01*
X136480458Y-104586097D01*
X136780921Y-104710553D01*
X137099891Y-104774000D01*
X137425109Y-104774000D01*
X137744079Y-104710553D01*
X138044542Y-104586097D01*
X138314951Y-104405415D01*
X138532500Y-104187866D01*
X138750049Y-104405415D01*
X139020458Y-104586097D01*
X139320921Y-104710553D01*
X139639891Y-104774000D01*
X139965109Y-104774000D01*
X140284079Y-104710553D01*
X140584542Y-104586097D01*
X140854951Y-104405415D01*
X141072500Y-104187866D01*
X141290049Y-104405415D01*
X141560458Y-104586097D01*
X141860921Y-104710553D01*
X142179891Y-104774000D01*
X142505109Y-104774000D01*
X142824079Y-104710553D01*
X143124542Y-104586097D01*
X143394951Y-104405415D01*
X143612500Y-104187866D01*
X143830049Y-104405415D01*
X144100458Y-104586097D01*
X144400921Y-104710553D01*
X144719891Y-104774000D01*
X145045109Y-104774000D01*
X145364079Y-104710553D01*
X145664542Y-104586097D01*
X145934951Y-104405415D01*
X146164915Y-104175451D01*
X146345597Y-103905042D01*
X146470053Y-103604579D01*
X146533500Y-103285609D01*
X146533500Y-102960391D01*
X146470053Y-102641421D01*
X146345597Y-102340958D01*
X146164915Y-102070549D01*
X145934951Y-101840585D01*
X145664542Y-101659903D01*
X145364079Y-101535447D01*
X145045109Y-101472000D01*
X144719891Y-101472000D01*
X144400921Y-101535447D01*
X144100458Y-101659903D01*
X143830049Y-101840585D01*
X143612500Y-102058134D01*
X143394951Y-101840585D01*
X143124542Y-101659903D01*
X142824079Y-101535447D01*
X142505109Y-101472000D01*
X142179891Y-101472000D01*
X141860921Y-101535447D01*
X141560458Y-101659903D01*
X141290049Y-101840585D01*
X141072500Y-102058134D01*
X140854951Y-101840585D01*
X140584542Y-101659903D01*
X140284079Y-101535447D01*
X139965109Y-101472000D01*
X139639891Y-101472000D01*
X139320921Y-101535447D01*
X139020458Y-101659903D01*
X138750049Y-101840585D01*
X138532500Y-102058134D01*
X138314951Y-101840585D01*
X138044542Y-101659903D01*
X137744079Y-101535447D01*
X137425109Y-101472000D01*
X137099891Y-101472000D01*
X136780921Y-101535447D01*
X136480458Y-101659903D01*
X136210049Y-101840585D01*
X135992500Y-102058134D01*
X135774951Y-101840585D01*
X135504542Y-101659903D01*
X135204079Y-101535447D01*
X134885109Y-101472000D01*
X134559891Y-101472000D01*
X134240921Y-101535447D01*
X133940458Y-101659903D01*
X133670049Y-101840585D01*
X133452500Y-102058134D01*
X133234951Y-101840585D01*
X132964542Y-101659903D01*
X132664079Y-101535447D01*
X132345109Y-101472000D01*
X132019891Y-101472000D01*
X131700921Y-101535447D01*
X131400458Y-101659903D01*
X131130049Y-101840585D01*
X130912500Y-102058134D01*
X130694951Y-101840585D01*
X130424542Y-101659903D01*
X130124079Y-101535447D01*
X129805109Y-101472000D01*
X129479891Y-101472000D01*
X129160921Y-101535447D01*
X128860458Y-101659903D01*
X128590049Y-101840585D01*
X128372500Y-102058134D01*
X128154951Y-101840585D01*
X127884542Y-101659903D01*
X127584079Y-101535447D01*
X127265109Y-101472000D01*
X126939891Y-101472000D01*
X126620921Y-101535447D01*
X126320458Y-101659903D01*
X126050049Y-101840585D01*
X125820085Y-102070549D01*
X125639403Y-102340958D01*
X125514947Y-102641421D01*
X125451500Y-102960391D01*
X102042500Y-102960391D01*
X102042500Y-99873000D01*
X120394428Y-99873000D01*
X120394428Y-101373000D01*
X120406688Y-101497482D01*
X120442998Y-101617180D01*
X120501963Y-101727494D01*
X120581315Y-101824185D01*
X120678006Y-101903537D01*
X120788320Y-101962502D01*
X120908018Y-101998812D01*
X121032500Y-102011072D01*
X122532500Y-102011072D01*
X122656982Y-101998812D01*
X122776680Y-101962502D01*
X122886994Y-101903537D01*
X122983685Y-101824185D01*
X123063037Y-101727494D01*
X123122002Y-101617180D01*
X123158312Y-101497482D01*
X123170572Y-101373000D01*
X123170572Y-99873000D01*
X123158312Y-99748518D01*
X123122002Y-99628820D01*
X123063037Y-99518506D01*
X122983685Y-99421815D01*
X122886994Y-99342463D01*
X122776680Y-99283498D01*
X122656982Y-99247188D01*
X122549017Y-99236555D01*
X122665386Y-99158799D01*
X122858299Y-98965886D01*
X123009871Y-98739043D01*
X123114275Y-98486989D01*
X123167500Y-98219411D01*
X123167500Y-97946589D01*
X123114275Y-97679011D01*
X123009871Y-97426957D01*
X122858299Y-97200114D01*
X122665386Y-97007201D01*
X122438543Y-96855629D01*
X122335627Y-96813000D01*
X122438543Y-96770371D01*
X122665386Y-96618799D01*
X122858299Y-96425886D01*
X123009871Y-96199043D01*
X123114275Y-95946989D01*
X123167500Y-95679411D01*
X123167500Y-95406589D01*
X123114275Y-95139011D01*
X123009871Y-94886957D01*
X122858299Y-94660114D01*
X122665386Y-94467201D01*
X122438543Y-94315629D01*
X122186489Y-94211225D01*
X121918911Y-94158000D01*
X121646089Y-94158000D01*
X121378511Y-94211225D01*
X121126457Y-94315629D01*
X120899614Y-94467201D01*
X120706701Y-94660114D01*
X120555129Y-94886957D01*
X120450725Y-95139011D01*
X120397500Y-95406589D01*
X120397500Y-95679411D01*
X120450725Y-95946989D01*
X120555129Y-96199043D01*
X120706701Y-96425886D01*
X120899614Y-96618799D01*
X121126457Y-96770371D01*
X121229373Y-96813000D01*
X121126457Y-96855629D01*
X120899614Y-97007201D01*
X120706701Y-97200114D01*
X120555129Y-97426957D01*
X120450725Y-97679011D01*
X120397500Y-97946589D01*
X120397500Y-98219411D01*
X120450725Y-98486989D01*
X120555129Y-98739043D01*
X120706701Y-98965886D01*
X120899614Y-99158799D01*
X121015983Y-99236555D01*
X120908018Y-99247188D01*
X120788320Y-99283498D01*
X120678006Y-99342463D01*
X120581315Y-99421815D01*
X120501963Y-99518506D01*
X120442998Y-99628820D01*
X120406688Y-99748518D01*
X120394428Y-99873000D01*
X102042500Y-99873000D01*
X102042500Y-96161967D01*
X105847500Y-96161967D01*
X105847500Y-96484033D01*
X105910332Y-96799912D01*
X106033582Y-97097463D01*
X106212513Y-97365252D01*
X106440248Y-97592987D01*
X106708037Y-97771918D01*
X107005588Y-97895168D01*
X107321467Y-97958000D01*
X107643533Y-97958000D01*
X107959412Y-97895168D01*
X108256963Y-97771918D01*
X108524752Y-97592987D01*
X108752487Y-97365252D01*
X108931418Y-97097463D01*
X109054668Y-96799912D01*
X109117500Y-96484033D01*
X109117500Y-96161967D01*
X109054668Y-95846088D01*
X108931418Y-95548537D01*
X108780719Y-95323000D01*
X113444428Y-95323000D01*
X113444428Y-97323000D01*
X113456688Y-97447482D01*
X113492998Y-97567180D01*
X113551963Y-97677494D01*
X113631315Y-97774185D01*
X113728006Y-97853537D01*
X113838320Y-97912502D01*
X113958018Y-97948812D01*
X114082500Y-97961072D01*
X116082500Y-97961072D01*
X116206982Y-97948812D01*
X116326680Y-97912502D01*
X116436994Y-97853537D01*
X116533685Y-97774185D01*
X116613037Y-97677494D01*
X116672002Y-97567180D01*
X116708312Y-97447482D01*
X116720572Y-97323000D01*
X116720572Y-95323000D01*
X116708312Y-95198518D01*
X116672002Y-95078820D01*
X116613037Y-94968506D01*
X116533685Y-94871815D01*
X116436994Y-94792463D01*
X116326680Y-94733498D01*
X116206982Y-94697188D01*
X116082500Y-94684928D01*
X114082500Y-94684928D01*
X113958018Y-94697188D01*
X113838320Y-94733498D01*
X113728006Y-94792463D01*
X113631315Y-94871815D01*
X113551963Y-94968506D01*
X113492998Y-95078820D01*
X113456688Y-95198518D01*
X113444428Y-95323000D01*
X108780719Y-95323000D01*
X108752487Y-95280748D01*
X108524752Y-95053013D01*
X108256963Y-94874082D01*
X107959412Y-94750832D01*
X107643533Y-94688000D01*
X107321467Y-94688000D01*
X107005588Y-94750832D01*
X106708037Y-94874082D01*
X106440248Y-95053013D01*
X106212513Y-95280748D01*
X106033582Y-95548537D01*
X105910332Y-95846088D01*
X105847500Y-96161967D01*
X102042500Y-96161967D01*
X102042500Y-91142268D01*
X120747500Y-91142268D01*
X120747500Y-91503732D01*
X120818018Y-91858250D01*
X120956344Y-92192199D01*
X121157162Y-92492744D01*
X121412756Y-92748338D01*
X121713301Y-92949156D01*
X122047250Y-93087482D01*
X122401768Y-93158000D01*
X122763232Y-93158000D01*
X123117750Y-93087482D01*
X123451699Y-92949156D01*
X123752244Y-92748338D01*
X124007838Y-92492744D01*
X124208656Y-92192199D01*
X124346982Y-91858250D01*
X124417500Y-91503732D01*
X124417500Y-91142268D01*
X124346982Y-90787750D01*
X124208656Y-90453801D01*
X124007838Y-90153256D01*
X123752244Y-89897662D01*
X123451699Y-89696844D01*
X123117750Y-89558518D01*
X122763232Y-89488000D01*
X122401768Y-89488000D01*
X122047250Y-89558518D01*
X121713301Y-89696844D01*
X121412756Y-89897662D01*
X121157162Y-90153256D01*
X120956344Y-90453801D01*
X120818018Y-90787750D01*
X120747500Y-91142268D01*
X102042500Y-91142268D01*
X102042500Y-80509323D01*
X103962997Y-80509323D01*
X103962997Y-80936677D01*
X104046370Y-81355821D01*
X104209912Y-81750645D01*
X104447337Y-82105977D01*
X104749523Y-82408163D01*
X105104855Y-82645588D01*
X105499679Y-82809130D01*
X105918823Y-82892503D01*
X106346177Y-82892503D01*
X106765321Y-82809130D01*
X107160145Y-82645588D01*
X107515477Y-82408163D01*
X107817663Y-82105977D01*
X108055088Y-81750645D01*
X108218630Y-81355821D01*
X108302003Y-80936677D01*
X108302003Y-80509323D01*
X108218630Y-80090179D01*
X108055088Y-79695355D01*
X107817663Y-79340023D01*
X107515477Y-79037837D01*
X107160145Y-78800412D01*
X106765321Y-78636870D01*
X106346177Y-78553497D01*
X105918823Y-78553497D01*
X105499679Y-78636870D01*
X105104855Y-78800412D01*
X104749523Y-79037837D01*
X104447337Y-79340023D01*
X104209912Y-79695355D01*
X104046370Y-80090179D01*
X103962997Y-80509323D01*
X102042500Y-80509323D01*
X102042500Y-78442268D01*
X120747500Y-78442268D01*
X120747500Y-78803732D01*
X120818018Y-79158250D01*
X120956344Y-79492199D01*
X121157162Y-79792744D01*
X121412756Y-80048338D01*
X121713301Y-80249156D01*
X122047250Y-80387482D01*
X122401768Y-80458000D01*
X122763232Y-80458000D01*
X123117750Y-80387482D01*
X123451699Y-80249156D01*
X123752244Y-80048338D01*
X124007838Y-79792744D01*
X124208656Y-79492199D01*
X124346982Y-79158250D01*
X124417500Y-78803732D01*
X124417500Y-78442268D01*
X124346982Y-78087750D01*
X124208656Y-77753801D01*
X124007838Y-77453256D01*
X123752244Y-77197662D01*
X123451699Y-76996844D01*
X123117750Y-76858518D01*
X122763232Y-76788000D01*
X122401768Y-76788000D01*
X122047250Y-76858518D01*
X121713301Y-76996844D01*
X121412756Y-77197662D01*
X121157162Y-77453256D01*
X120956344Y-77753801D01*
X120818018Y-78087750D01*
X120747500Y-78442268D01*
X102042500Y-78442268D01*
X102042500Y-72180689D01*
X104801449Y-72180689D01*
X104801449Y-72473209D01*
X104858517Y-72760107D01*
X104970459Y-73030360D01*
X105132974Y-73273581D01*
X105339817Y-73480424D01*
X105583038Y-73642939D01*
X105853291Y-73754881D01*
X106140189Y-73811949D01*
X106326660Y-73811949D01*
X106290916Y-73878820D01*
X106254606Y-73998518D01*
X106242346Y-74123000D01*
X106254606Y-74247482D01*
X106290916Y-74367180D01*
X106349881Y-74477494D01*
X106429233Y-74574185D01*
X107631315Y-75776267D01*
X107728006Y-75855619D01*
X107838320Y-75914584D01*
X107958018Y-75950894D01*
X108082500Y-75963154D01*
X108206982Y-75950894D01*
X108326680Y-75914584D01*
X108436994Y-75855619D01*
X108533685Y-75776267D01*
X109735767Y-74574185D01*
X109815119Y-74477494D01*
X109874084Y-74367180D01*
X109910394Y-74247482D01*
X109922654Y-74123000D01*
X109910394Y-73998518D01*
X109874084Y-73878820D01*
X109815119Y-73768506D01*
X109735767Y-73671815D01*
X108533685Y-72469733D01*
X108436994Y-72390381D01*
X108326680Y-72331416D01*
X108206982Y-72295106D01*
X108082500Y-72282846D01*
X107958018Y-72295106D01*
X107838320Y-72331416D01*
X107771449Y-72367160D01*
X107771449Y-72180689D01*
X107714381Y-71893791D01*
X107602439Y-71623538D01*
X107439924Y-71380317D01*
X107233081Y-71173474D01*
X106989860Y-71010959D01*
X106719607Y-70899017D01*
X106432709Y-70841949D01*
X106140189Y-70841949D01*
X105853291Y-70899017D01*
X105583038Y-71010959D01*
X105339817Y-71173474D01*
X105132974Y-71380317D01*
X104970459Y-71623538D01*
X104858517Y-71893791D01*
X104801449Y-72180689D01*
X102042500Y-72180689D01*
X102042500Y-65996380D01*
X102155881Y-65883000D01*
X105249583Y-65883000D01*
X105252890Y-65961900D01*
G36*
X186722501Y-52996382D02*
G01*
X186722500Y-56090083D01*
X186643600Y-56093390D01*
X186610986Y-56096991D01*
X186578243Y-56099395D01*
X186571406Y-56100405D01*
X185428450Y-56275302D01*
X185388003Y-56284343D01*
X185347469Y-56292959D01*
X185340832Y-56294887D01*
X184232188Y-56623282D01*
X184193343Y-56637728D01*
X184154352Y-56651766D01*
X184148053Y-56654571D01*
X184148039Y-56654576D01*
X184148027Y-56654582D01*
X183094219Y-57130395D01*
X183057687Y-57149983D01*
X183020969Y-57169179D01*
X183015107Y-57172814D01*
X183015095Y-57172820D01*
X183015085Y-57172827D01*
X182035602Y-57787256D01*
X182002097Y-57811599D01*
X181968293Y-57835622D01*
X181962968Y-57840027D01*
X181075926Y-58581709D01*
X181046007Y-58610400D01*
X181015804Y-58638762D01*
X181011134Y-58643842D01*
X181011126Y-58643849D01*
X181011120Y-58643857D01*
X180232949Y-59499056D01*
X180207180Y-59531569D01*
X180181127Y-59563741D01*
X180177190Y-59569406D01*
X180177182Y-59569416D01*
X180177176Y-59569426D01*
X179522270Y-60522320D01*
X179501184Y-60557974D01*
X179479706Y-60593439D01*
X179476568Y-60599597D01*
X178957038Y-61632567D01*
X178940982Y-61670763D01*
X178924519Y-61708806D01*
X178922254Y-61715313D01*
X178922246Y-61715332D01*
X178922241Y-61715350D01*
X178547714Y-62809252D01*
X178536993Y-62849264D01*
X178525843Y-62889199D01*
X178524477Y-62895974D01*
X178301872Y-64030604D01*
X178296679Y-64071712D01*
X178291053Y-64112779D01*
X178290619Y-64119676D01*
X178224060Y-65274018D01*
X178224494Y-65315467D01*
X178224494Y-65356900D01*
X178225000Y-65363777D01*
X178225000Y-65363793D01*
X178225002Y-65363807D01*
X178315720Y-66516489D01*
X178321773Y-66557482D01*
X178327398Y-66598546D01*
X178328832Y-66605293D01*
X178328834Y-66605305D01*
X178328837Y-66605316D01*
X178575154Y-67735024D01*
X178586725Y-67774854D01*
X178597861Y-67814737D01*
X178600197Y-67821225D01*
X178600201Y-67821239D01*
X178600207Y-67821252D01*
X178997562Y-68907077D01*
X179014411Y-68944922D01*
X179030876Y-68982970D01*
X179034069Y-68989075D01*
X179034078Y-68989095D01*
X179034088Y-68989112D01*
X179575127Y-70010958D01*
X179596961Y-70046173D01*
X179618433Y-70081628D01*
X179622429Y-70087250D01*
X179622436Y-70087261D01*
X179622444Y-70087270D01*
X180297162Y-71026241D01*
X180323580Y-71058175D01*
X180349659Y-71090380D01*
X180354382Y-71095409D01*
X180354389Y-71095418D01*
X180354397Y-71095425D01*
X181150307Y-71934139D01*
X181180803Y-71962182D01*
X181211023Y-71990560D01*
X181216394Y-71994909D01*
X182118775Y-72717852D01*
X182152777Y-72741485D01*
X182186586Y-72765511D01*
X182192490Y-72769086D01*
X182192497Y-72769091D01*
X182192504Y-72769094D01*
X183184644Y-73362878D01*
X183221575Y-73381696D01*
X183258296Y-73400893D01*
X183264625Y-73403631D01*
X183264638Y-73403638D01*
X183264651Y-73403642D01*
X184328191Y-73857281D01*
X184367316Y-73870906D01*
X184406321Y-73884949D01*
X184412973Y-73886806D01*
X184412981Y-73886808D01*
X185528257Y-74191913D01*
X185568866Y-74200101D01*
X185609419Y-74208721D01*
X185616263Y-74209659D01*
X185616267Y-74209659D01*
X186762634Y-74360581D01*
X186803998Y-74363183D01*
X186845326Y-74366218D01*
X186852237Y-74366218D01*
X188008481Y-74360164D01*
X188049812Y-74357129D01*
X188091172Y-74354527D01*
X188098020Y-74353589D01*
X189242743Y-74190671D01*
X189283285Y-74182054D01*
X189323906Y-74173863D01*
X189330550Y-74172007D01*
X189330561Y-74172005D01*
X189330571Y-74172002D01*
X190442585Y-73855236D01*
X190481569Y-73841201D01*
X190520715Y-73827569D01*
X190527049Y-73824828D01*
X190527057Y-73824825D01*
X190527064Y-73824822D01*
X191585802Y-73360067D01*
X191622520Y-73340872D01*
X191659453Y-73322053D01*
X191665365Y-73318473D01*
X192651239Y-72714329D01*
X192685023Y-72690320D01*
X192719051Y-72666670D01*
X192724422Y-72662320D01*
X193619182Y-71929967D01*
X193649397Y-71901593D01*
X193679897Y-71873547D01*
X193684621Y-71868517D01*
X193684629Y-71868509D01*
X193684636Y-71868501D01*
X194471719Y-71021499D01*
X194497790Y-70989304D01*
X194524217Y-70957360D01*
X194528220Y-70951726D01*
X195193075Y-70005733D01*
X195214556Y-69970265D01*
X195236382Y-69935063D01*
X195239577Y-69928951D01*
X195239584Y-69928939D01*
X195239589Y-69928927D01*
X195769901Y-68901466D01*
X195786379Y-68863389D01*
X195803216Y-68825572D01*
X195805552Y-68819084D01*
X195805558Y-68819070D01*
X195805562Y-68819057D01*
X196191525Y-67729131D01*
X196202672Y-67689207D01*
X196214232Y-67649418D01*
X196215669Y-67642658D01*
X196450144Y-66510422D01*
X196455768Y-66469364D01*
X196461823Y-66428364D01*
X196462329Y-66421472D01*
X196499038Y-65883000D01*
X199609120Y-65883000D01*
X199722500Y-65996381D01*
X199722501Y-137449618D01*
X199609120Y-137563000D01*
X196515417Y-137563000D01*
X196512110Y-137484100D01*
X196508509Y-137451486D01*
X196506105Y-137418743D01*
X196505095Y-137411906D01*
X196330198Y-136268950D01*
X196321157Y-136228503D01*
X196312541Y-136187969D01*
X196310613Y-136181332D01*
X195982218Y-135072688D01*
X195967772Y-135033843D01*
X195953734Y-134994852D01*
X195950929Y-134988553D01*
X195950924Y-134988539D01*
X195950918Y-134988527D01*
X195475105Y-133934719D01*
X195455517Y-133898187D01*
X195436321Y-133861469D01*
X195432686Y-133855607D01*
X195432680Y-133855595D01*
X195432673Y-133855585D01*
X194818244Y-132876102D01*
X194793901Y-132842597D01*
X194769878Y-132808793D01*
X194765473Y-132803468D01*
X194023791Y-131916426D01*
X193995100Y-131886507D01*
X193966738Y-131856304D01*
X193961658Y-131851634D01*
X193961651Y-131851626D01*
X193961643Y-131851620D01*
X193106444Y-131073449D01*
X193073931Y-131047680D01*
X193041759Y-131021627D01*
X193036094Y-131017690D01*
X193036084Y-131017682D01*
X193036074Y-131017676D01*
X192083180Y-130362770D01*
X192047526Y-130341684D01*
X192012061Y-130320206D01*
X192005903Y-130317068D01*
X190972933Y-129797538D01*
X190934737Y-129781482D01*
X190896694Y-129765019D01*
X190890187Y-129762754D01*
X190890168Y-129762746D01*
X190890150Y-129762741D01*
X189796248Y-129388214D01*
X189756236Y-129377493D01*
X189716301Y-129366343D01*
X189709530Y-129364978D01*
X189709527Y-129364977D01*
X189709524Y-129364977D01*
X188574896Y-129142372D01*
X188533788Y-129137179D01*
X188492721Y-129131553D01*
X188485824Y-129131119D01*
X188084868Y-129108000D01*
X192234830Y-129108000D01*
X192194865Y-129182769D01*
X192158555Y-129302467D01*
X192146295Y-129426949D01*
X192158555Y-129551431D01*
X192194865Y-129671129D01*
X192253830Y-129781443D01*
X192333182Y-129878134D01*
X193535264Y-131080216D01*
X193631955Y-131159568D01*
X193742269Y-131218533D01*
X193861967Y-131254843D01*
X193986449Y-131267103D01*
X194110931Y-131254843D01*
X194230629Y-131218533D01*
X194297500Y-131182789D01*
X194297500Y-131369260D01*
X194354568Y-131656158D01*
X194466510Y-131926411D01*
X194629025Y-132169632D01*
X194835868Y-132376475D01*
X195079089Y-132538990D01*
X195349342Y-132650932D01*
X195636240Y-132708000D01*
X195928760Y-132708000D01*
X196215658Y-132650932D01*
X196485911Y-132538990D01*
X196729132Y-132376475D01*
X196935975Y-132169632D01*
X197098490Y-131926411D01*
X197210432Y-131656158D01*
X197267500Y-131369260D01*
X197267500Y-131076740D01*
X197210432Y-130789842D01*
X197098490Y-130519589D01*
X196935975Y-130276368D01*
X196729132Y-130069525D01*
X196485911Y-129907010D01*
X196215658Y-129795068D01*
X195928760Y-129738000D01*
X195742289Y-129738000D01*
X195778033Y-129671129D01*
X195814343Y-129551431D01*
X195826603Y-129426949D01*
X195814343Y-129302467D01*
X195778033Y-129182769D01*
X195719068Y-129072455D01*
X195639716Y-128975764D01*
X194437634Y-127773682D01*
X194340943Y-127694330D01*
X194230629Y-127635365D01*
X194110931Y-127599055D01*
X193986449Y-127586795D01*
X193861967Y-127599055D01*
X193742269Y-127635365D01*
X193631955Y-127694330D01*
X193562450Y-127751371D01*
X193439034Y-127627956D01*
X193411317Y-127594183D01*
X193276559Y-127483589D01*
X193122813Y-127401411D01*
X192955990Y-127350805D01*
X192825977Y-127338000D01*
X192825969Y-127338000D01*
X192782500Y-127333719D01*
X192739031Y-127338000D01*
X176249079Y-127338000D01*
X174267500Y-125356422D01*
X174267500Y-104766469D01*
X174271781Y-104723000D01*
X174267500Y-104679531D01*
X174267500Y-104679523D01*
X174254695Y-104549510D01*
X174254080Y-104547482D01*
X174204089Y-104382686D01*
X174121911Y-104228941D01*
X174039032Y-104127953D01*
X174039030Y-104127951D01*
X174011317Y-104094183D01*
X173977551Y-104066472D01*
X173101661Y-103190582D01*
X178972500Y-103190582D01*
X178972501Y-124255419D01*
X178975318Y-124284018D01*
X178975253Y-124293288D01*
X178976152Y-124302460D01*
X179006752Y-124593605D01*
X179018783Y-124652217D01*
X179029989Y-124710963D01*
X179032653Y-124719784D01*
X179119221Y-124999440D01*
X179142399Y-125054578D01*
X179164811Y-125110050D01*
X179169138Y-125118186D01*
X179308377Y-125375702D01*
X179341804Y-125425259D01*
X179374580Y-125475347D01*
X179380405Y-125482488D01*
X179567010Y-125708056D01*
X179609465Y-125750215D01*
X179651309Y-125792945D01*
X179658409Y-125798819D01*
X179885273Y-125983845D01*
X179935066Y-126016927D01*
X179984455Y-126050745D01*
X179992561Y-126055127D01*
X180251042Y-126192564D01*
X180306336Y-126215355D01*
X180361329Y-126238925D01*
X180370132Y-126241650D01*
X180650387Y-126326264D01*
X180709064Y-126337882D01*
X180767579Y-126350320D01*
X180776742Y-126351283D01*
X180776744Y-126351283D01*
X181068096Y-126379850D01*
X181068098Y-126379850D01*
X181100081Y-126383000D01*
X190664919Y-126383000D01*
X190693528Y-126380182D01*
X190702788Y-126380247D01*
X190711960Y-126379348D01*
X191003105Y-126348748D01*
X191061717Y-126336717D01*
X191120463Y-126325511D01*
X191129284Y-126322847D01*
X191408940Y-126236279D01*
X191464078Y-126213101D01*
X191519550Y-126190689D01*
X191527681Y-126186365D01*
X191527685Y-126186363D01*
X191527688Y-126186361D01*
X191785202Y-126047123D01*
X191834759Y-126013696D01*
X191884847Y-125980920D01*
X191891988Y-125975095D01*
X192117556Y-125788490D01*
X192159715Y-125746035D01*
X192202445Y-125704191D01*
X192208319Y-125697091D01*
X192393345Y-125470227D01*
X192426427Y-125420434D01*
X192460245Y-125371045D01*
X192464627Y-125362939D01*
X192602064Y-125104458D01*
X192624855Y-125049164D01*
X192648425Y-124994171D01*
X192651150Y-124985368D01*
X192735764Y-124705113D01*
X192747382Y-124646436D01*
X192759820Y-124587921D01*
X192760783Y-124578756D01*
X192789350Y-124287404D01*
X192789350Y-124287402D01*
X192792500Y-124255419D01*
X192792500Y-122509323D01*
X193462997Y-122509323D01*
X193462997Y-122936677D01*
X193546370Y-123355821D01*
X193709912Y-123750645D01*
X193947337Y-124105977D01*
X194249523Y-124408163D01*
X194604855Y-124645588D01*
X194999679Y-124809130D01*
X195418823Y-124892503D01*
X195846177Y-124892503D01*
X196265321Y-124809130D01*
X196660145Y-124645588D01*
X197015477Y-124408163D01*
X197317663Y-124105977D01*
X197555088Y-123750645D01*
X197718630Y-123355821D01*
X197802003Y-122936677D01*
X197802003Y-122509323D01*
X197718630Y-122090179D01*
X197555088Y-121695355D01*
X197317663Y-121340023D01*
X197015477Y-121037837D01*
X196660145Y-120800412D01*
X196265321Y-120636870D01*
X195846177Y-120553497D01*
X195418823Y-120553497D01*
X194999679Y-120636870D01*
X194604855Y-120800412D01*
X194249523Y-121037837D01*
X193947337Y-121340023D01*
X193709912Y-121695355D01*
X193546370Y-122090179D01*
X193462997Y-122509323D01*
X192792500Y-122509323D01*
X192792500Y-103190581D01*
X192789682Y-103161972D01*
X192789747Y-103152712D01*
X192788848Y-103143541D01*
X192758248Y-102852395D01*
X192746210Y-102793753D01*
X192735010Y-102735037D01*
X192732347Y-102726216D01*
X192645779Y-102446560D01*
X192622601Y-102391422D01*
X192600189Y-102335950D01*
X192595862Y-102327814D01*
X192456623Y-102070298D01*
X192423201Y-102020749D01*
X192390420Y-101970653D01*
X192384595Y-101963512D01*
X192197990Y-101737945D01*
X192155554Y-101695804D01*
X192113691Y-101653055D01*
X192106591Y-101647181D01*
X191879727Y-101462155D01*
X191829908Y-101429055D01*
X191780545Y-101395256D01*
X191772439Y-101390873D01*
X191513958Y-101253436D01*
X191458664Y-101230645D01*
X191403671Y-101207075D01*
X191394868Y-101204350D01*
X191114614Y-101119736D01*
X191055929Y-101108116D01*
X190997421Y-101095680D01*
X190988258Y-101094717D01*
X190988256Y-101094717D01*
X190696904Y-101066150D01*
X190696902Y-101066150D01*
X190664919Y-101063000D01*
X181100081Y-101063000D01*
X181071472Y-101065818D01*
X181062212Y-101065753D01*
X181053041Y-101066652D01*
X180761895Y-101097252D01*
X180703253Y-101109290D01*
X180644537Y-101120490D01*
X180635716Y-101123153D01*
X180356060Y-101209721D01*
X180300922Y-101232899D01*
X180245450Y-101255311D01*
X180237319Y-101259635D01*
X180237315Y-101259637D01*
X180237314Y-101259638D01*
X179979798Y-101398877D01*
X179930249Y-101432299D01*
X179880153Y-101465080D01*
X179873012Y-101470905D01*
X179647445Y-101657510D01*
X179605304Y-101699946D01*
X179562555Y-101741809D01*
X179556681Y-101748909D01*
X179371655Y-101975773D01*
X179338555Y-102025592D01*
X179304756Y-102074955D01*
X179300373Y-102083061D01*
X179162936Y-102341542D01*
X179140145Y-102396836D01*
X179116575Y-102451829D01*
X179113850Y-102460632D01*
X179029236Y-102740886D01*
X179017616Y-102799571D01*
X179005180Y-102858079D01*
X179004217Y-102867244D01*
X178975650Y-103158596D01*
X178972500Y-103190582D01*
X173101661Y-103190582D01*
X169634079Y-99723000D01*
X181444428Y-99723000D01*
X181456688Y-99847482D01*
X181492998Y-99967180D01*
X181551963Y-100077494D01*
X181631315Y-100174185D01*
X181728006Y-100253537D01*
X181838320Y-100312502D01*
X181958018Y-100348812D01*
X182082500Y-100361072D01*
X182996750Y-100358000D01*
X183155500Y-100199250D01*
X183155500Y-98650000D01*
X183409500Y-98650000D01*
X183409500Y-100199250D01*
X183568250Y-100358000D01*
X184482500Y-100361072D01*
X184606982Y-100348812D01*
X184726680Y-100312502D01*
X184836994Y-100253537D01*
X184933685Y-100174185D01*
X185013037Y-100077494D01*
X185072002Y-99967180D01*
X185108312Y-99847482D01*
X185120572Y-99723000D01*
X185117500Y-98808750D01*
X184958750Y-98650000D01*
X183409500Y-98650000D01*
X183155500Y-98650000D01*
X181606250Y-98650000D01*
X181447500Y-98808750D01*
X181444428Y-99723000D01*
X169634079Y-99723000D01*
X168539034Y-98627956D01*
X168511317Y-98594183D01*
X168376559Y-98483589D01*
X168222813Y-98401411D01*
X168055990Y-98350805D01*
X167925977Y-98338000D01*
X167925969Y-98338000D01*
X167882500Y-98333719D01*
X167839031Y-98338000D01*
X136249079Y-98338000D01*
X135234079Y-97323000D01*
X181444428Y-97323000D01*
X181447500Y-98237250D01*
X181606250Y-98396000D01*
X183155500Y-98396000D01*
X183155500Y-96846750D01*
X183409500Y-96846750D01*
X183409500Y-98396000D01*
X184958750Y-98396000D01*
X185012482Y-98342268D01*
X186447500Y-98342268D01*
X186447500Y-98703732D01*
X186518018Y-99058250D01*
X186656344Y-99392199D01*
X186857162Y-99692744D01*
X187112756Y-99948338D01*
X187413301Y-100149156D01*
X187747250Y-100287482D01*
X188101768Y-100358000D01*
X188463232Y-100358000D01*
X188817750Y-100287482D01*
X189151699Y-100149156D01*
X189452244Y-99948338D01*
X189707838Y-99692744D01*
X189908656Y-99392199D01*
X190046982Y-99058250D01*
X190117500Y-98703732D01*
X190117500Y-98342268D01*
X190046982Y-97987750D01*
X189908656Y-97653801D01*
X189707838Y-97353256D01*
X189452244Y-97097662D01*
X189151699Y-96896844D01*
X188817750Y-96758518D01*
X188463232Y-96688000D01*
X188101768Y-96688000D01*
X187747250Y-96758518D01*
X187413301Y-96896844D01*
X187112756Y-97097662D01*
X186857162Y-97353256D01*
X186656344Y-97653801D01*
X186518018Y-97987750D01*
X186447500Y-98342268D01*
X185012482Y-98342268D01*
X185117500Y-98237250D01*
X185120572Y-97323000D01*
X185108312Y-97198518D01*
X185072002Y-97078820D01*
X185013037Y-96968506D01*
X184933685Y-96871815D01*
X184836994Y-96792463D01*
X184726680Y-96733498D01*
X184606982Y-96697188D01*
X184482500Y-96684928D01*
X183568250Y-96688000D01*
X183409500Y-96846750D01*
X183155500Y-96846750D01*
X182996750Y-96688000D01*
X182082500Y-96684928D01*
X181958018Y-96697188D01*
X181838320Y-96733498D01*
X181728006Y-96792463D01*
X181631315Y-96871815D01*
X181551963Y-96968506D01*
X181492998Y-97078820D01*
X181456688Y-97198518D01*
X181444428Y-97323000D01*
X135234079Y-97323000D01*
X131267500Y-93356422D01*
X131267500Y-90142268D01*
X147847500Y-90142268D01*
X147847500Y-90503732D01*
X147918018Y-90858250D01*
X148056344Y-91192199D01*
X148257162Y-91492744D01*
X148512756Y-91748338D01*
X148813301Y-91949156D01*
X149147250Y-92087482D01*
X149501768Y-92158000D01*
X149863232Y-92158000D01*
X150217750Y-92087482D01*
X150551699Y-91949156D01*
X150852244Y-91748338D01*
X151107838Y-91492744D01*
X151308656Y-91192199D01*
X151446982Y-90858250D01*
X151471536Y-90734806D01*
X152594301Y-90734806D01*
X152709000Y-91075754D01*
X152888011Y-91387774D01*
X153124454Y-91658875D01*
X153409243Y-91878639D01*
X153731434Y-92038621D01*
X153970695Y-92111195D01*
X154255500Y-91994432D01*
X154255500Y-90450000D01*
X154509500Y-90450000D01*
X154509500Y-91994432D01*
X154794305Y-92111195D01*
X155033566Y-92038621D01*
X155355757Y-91878639D01*
X155640546Y-91658875D01*
X155876989Y-91387774D01*
X156056000Y-91075754D01*
X156170699Y-90734806D01*
X156054354Y-90450000D01*
X154509500Y-90450000D01*
X154255500Y-90450000D01*
X152710646Y-90450000D01*
X152594301Y-90734806D01*
X151471536Y-90734806D01*
X151517500Y-90503732D01*
X151517500Y-90142268D01*
X151471537Y-89911194D01*
X152594301Y-89911194D01*
X152710646Y-90196000D01*
X154255500Y-90196000D01*
X154255500Y-88651568D01*
X154509500Y-88651568D01*
X154509500Y-90196000D01*
X156054354Y-90196000D01*
X156170699Y-89911194D01*
X156056000Y-89570246D01*
X155876989Y-89258226D01*
X155640546Y-88987125D01*
X155355757Y-88767361D01*
X155033566Y-88607379D01*
X154794305Y-88534805D01*
X154509500Y-88651568D01*
X154255500Y-88651568D01*
X153970695Y-88534805D01*
X153731434Y-88607379D01*
X153409243Y-88767361D01*
X153124454Y-88987125D01*
X152888011Y-89258226D01*
X152709000Y-89570246D01*
X152594301Y-89911194D01*
X151471537Y-89911194D01*
X151446982Y-89787750D01*
X151308656Y-89453801D01*
X151107838Y-89153256D01*
X150852244Y-88897662D01*
X150567500Y-88707402D01*
X150567500Y-86528098D01*
X160437500Y-86528098D01*
X160437500Y-86997902D01*
X160529154Y-87458679D01*
X160708940Y-87892721D01*
X160969950Y-88283349D01*
X161302151Y-88615550D01*
X161692779Y-88876560D01*
X162126821Y-89056346D01*
X162587598Y-89148000D01*
X163057402Y-89148000D01*
X163518179Y-89056346D01*
X163952221Y-88876560D01*
X164342849Y-88615550D01*
X164675050Y-88283349D01*
X164936060Y-87892721D01*
X165115846Y-87458679D01*
X165207500Y-86997902D01*
X165207500Y-86528098D01*
X165115846Y-86067321D01*
X165078327Y-85976740D01*
X170057500Y-85976740D01*
X170057500Y-86269260D01*
X170114568Y-86556158D01*
X170226510Y-86826411D01*
X170389025Y-87069632D01*
X170595868Y-87276475D01*
X170839089Y-87438990D01*
X171109342Y-87550932D01*
X171396240Y-87608000D01*
X171688760Y-87608000D01*
X171975658Y-87550932D01*
X172245911Y-87438990D01*
X172489132Y-87276475D01*
X172620987Y-87144620D01*
X172642998Y-87217180D01*
X172701963Y-87327494D01*
X172781315Y-87424185D01*
X172878006Y-87503537D01*
X172988320Y-87562502D01*
X173108018Y-87598812D01*
X173232500Y-87611072D01*
X174932500Y-87611072D01*
X175056982Y-87598812D01*
X175176680Y-87562502D01*
X175286994Y-87503537D01*
X175383685Y-87424185D01*
X175463037Y-87327494D01*
X175522002Y-87217180D01*
X175558312Y-87097482D01*
X175570572Y-86973000D01*
X175570572Y-85273000D01*
X175558312Y-85148518D01*
X175522002Y-85028820D01*
X175463037Y-84918506D01*
X175383685Y-84821815D01*
X175286994Y-84742463D01*
X175176680Y-84683498D01*
X175056982Y-84647188D01*
X174932500Y-84634928D01*
X173232500Y-84634928D01*
X173108018Y-84647188D01*
X172988320Y-84683498D01*
X172878006Y-84742463D01*
X172781315Y-84821815D01*
X172701963Y-84918506D01*
X172642998Y-85028820D01*
X172620987Y-85101380D01*
X172489132Y-84969525D01*
X172245911Y-84807010D01*
X171975658Y-84695068D01*
X171688760Y-84638000D01*
X171396240Y-84638000D01*
X171109342Y-84695068D01*
X170839089Y-84807010D01*
X170595868Y-84969525D01*
X170389025Y-85176368D01*
X170226510Y-85419589D01*
X170114568Y-85689842D01*
X170057500Y-85976740D01*
X165078327Y-85976740D01*
X164936060Y-85633279D01*
X164675050Y-85242651D01*
X164342849Y-84910450D01*
X163952221Y-84649440D01*
X163518179Y-84469654D01*
X163057402Y-84378000D01*
X162587598Y-84378000D01*
X162126821Y-84469654D01*
X161692779Y-84649440D01*
X161302151Y-84910450D01*
X160969950Y-85242651D01*
X160708940Y-85633279D01*
X160529154Y-86067321D01*
X160437500Y-86528098D01*
X150567500Y-86528098D01*
X150567500Y-80509323D01*
X193462997Y-80509323D01*
X193462997Y-80936677D01*
X193546370Y-81355821D01*
X193709912Y-81750645D01*
X193947337Y-82105977D01*
X194249523Y-82408163D01*
X194604855Y-82645588D01*
X194999679Y-82809130D01*
X195418823Y-82892503D01*
X195846177Y-82892503D01*
X196265321Y-82809130D01*
X196660145Y-82645588D01*
X197015477Y-82408163D01*
X197317663Y-82105977D01*
X197555088Y-81750645D01*
X197718630Y-81355821D01*
X197802003Y-80936677D01*
X197802003Y-80509323D01*
X197718630Y-80090179D01*
X197555088Y-79695355D01*
X197317663Y-79340023D01*
X197015477Y-79037837D01*
X196660145Y-78800412D01*
X196265321Y-78636870D01*
X195846177Y-78553497D01*
X195418823Y-78553497D01*
X194999679Y-78636870D01*
X194604855Y-78800412D01*
X194249523Y-79037837D01*
X193947337Y-79340023D01*
X193709912Y-79695355D01*
X193546370Y-80090179D01*
X193462997Y-80509323D01*
X150567500Y-80509323D01*
X150567500Y-78080391D01*
X158676500Y-78080391D01*
X158676500Y-78405609D01*
X158739947Y-78724579D01*
X158864403Y-79025042D01*
X159045085Y-79295451D01*
X159275049Y-79525415D01*
X159545458Y-79706097D01*
X159845921Y-79830553D01*
X160164891Y-79894000D01*
X160490109Y-79894000D01*
X160809079Y-79830553D01*
X161109542Y-79706097D01*
X161379951Y-79525415D01*
X161609915Y-79295451D01*
X161790597Y-79025042D01*
X161915000Y-78724707D01*
X162039403Y-79025042D01*
X162220085Y-79295451D01*
X162450049Y-79525415D01*
X162720458Y-79706097D01*
X163020921Y-79830553D01*
X163339891Y-79894000D01*
X163665109Y-79894000D01*
X163984079Y-79830553D01*
X164284542Y-79706097D01*
X164554951Y-79525415D01*
X164784915Y-79295451D01*
X164965597Y-79025042D01*
X165090053Y-78724579D01*
X165153500Y-78405609D01*
X165153500Y-78080391D01*
X169471500Y-78080391D01*
X169471500Y-78405609D01*
X169534947Y-78724579D01*
X169659403Y-79025042D01*
X169840085Y-79295451D01*
X170070049Y-79525415D01*
X170340458Y-79706097D01*
X170640921Y-79830553D01*
X170959891Y-79894000D01*
X171285109Y-79894000D01*
X171604079Y-79830553D01*
X171904542Y-79706097D01*
X172174951Y-79525415D01*
X172310543Y-79389823D01*
X173330282Y-79389823D01*
X173427978Y-79655860D01*
X173720321Y-79798348D01*
X174034844Y-79881064D01*
X174359462Y-79900831D01*
X174681698Y-79856888D01*
X174989170Y-79750924D01*
X175167022Y-79655860D01*
X175264718Y-79389823D01*
X174297500Y-78422605D01*
X173330282Y-79389823D01*
X172310543Y-79389823D01*
X172404915Y-79295451D01*
X172585597Y-79025042D01*
X172710053Y-78724579D01*
X172712658Y-78711481D01*
X172789576Y-78934670D01*
X172884640Y-79112522D01*
X173150677Y-79210218D01*
X174117895Y-78243000D01*
X174477105Y-78243000D01*
X175444323Y-79210218D01*
X175710360Y-79112522D01*
X175852848Y-78820179D01*
X175935564Y-78505656D01*
X175955331Y-78181038D01*
X175911388Y-77858802D01*
X175805424Y-77551330D01*
X175710360Y-77373478D01*
X175444323Y-77275782D01*
X174477105Y-78243000D01*
X174117895Y-78243000D01*
X173150677Y-77275782D01*
X172884640Y-77373478D01*
X172742152Y-77665821D01*
X172713049Y-77776483D01*
X172710053Y-77761421D01*
X172585597Y-77460958D01*
X172404915Y-77190549D01*
X172310543Y-77096177D01*
X173330282Y-77096177D01*
X174297500Y-78063395D01*
X175264718Y-77096177D01*
X175167022Y-76830140D01*
X174874679Y-76687652D01*
X174560156Y-76604936D01*
X174235538Y-76585169D01*
X173913302Y-76629112D01*
X173605830Y-76735076D01*
X173427978Y-76830140D01*
X173330282Y-77096177D01*
X172310543Y-77096177D01*
X172174951Y-76960585D01*
X171904542Y-76779903D01*
X171604079Y-76655447D01*
X171285109Y-76592000D01*
X170959891Y-76592000D01*
X170640921Y-76655447D01*
X170340458Y-76779903D01*
X170070049Y-76960585D01*
X169840085Y-77190549D01*
X169659403Y-77460958D01*
X169534947Y-77761421D01*
X169471500Y-78080391D01*
X165153500Y-78080391D01*
X165090053Y-77761421D01*
X164965597Y-77460958D01*
X164784915Y-77190549D01*
X164554951Y-76960585D01*
X164284542Y-76779903D01*
X163984079Y-76655447D01*
X163665109Y-76592000D01*
X163339891Y-76592000D01*
X163020921Y-76655447D01*
X162720458Y-76779903D01*
X162450049Y-76960585D01*
X162220085Y-77190549D01*
X162039403Y-77460958D01*
X161915000Y-77761293D01*
X161790597Y-77460958D01*
X161609915Y-77190549D01*
X161379951Y-76960585D01*
X161109542Y-76779903D01*
X160809079Y-76655447D01*
X160490109Y-76592000D01*
X160164891Y-76592000D01*
X159845921Y-76655447D01*
X159545458Y-76779903D01*
X159275049Y-76960585D01*
X159045085Y-77190549D01*
X158864403Y-77460958D01*
X158739947Y-77761421D01*
X158676500Y-78080391D01*
X150567500Y-78080391D01*
X150567500Y-67406516D01*
X150577086Y-67420862D01*
X150807050Y-67650826D01*
X151077459Y-67831508D01*
X151377922Y-67955964D01*
X151696892Y-68019411D01*
X152022110Y-68019411D01*
X152341080Y-67955964D01*
X152641543Y-67831508D01*
X152911952Y-67650826D01*
X153141916Y-67420862D01*
X153322598Y-67150453D01*
X153447054Y-66849990D01*
X153510501Y-66531020D01*
X153510501Y-66223360D01*
X153818161Y-66223360D01*
X154137131Y-66159913D01*
X154437594Y-66035457D01*
X154708003Y-65854775D01*
X154937967Y-65624811D01*
X155118649Y-65354402D01*
X155243105Y-65053939D01*
X155306552Y-64734969D01*
X155306552Y-64427308D01*
X155614213Y-64427308D01*
X155933183Y-64363861D01*
X156233646Y-64239405D01*
X156504055Y-64058723D01*
X156734019Y-63828759D01*
X156914701Y-63558350D01*
X157039157Y-63257887D01*
X157102604Y-62938917D01*
X157102604Y-62613699D01*
X157039157Y-62294729D01*
X156914701Y-61994266D01*
X156734019Y-61723857D01*
X156504055Y-61493893D01*
X156233646Y-61313211D01*
X155933183Y-61188755D01*
X155614213Y-61125308D01*
X155288995Y-61125308D01*
X155091472Y-61164598D01*
X154154830Y-60227956D01*
X154127113Y-60194183D01*
X153992355Y-60083589D01*
X153838609Y-60001411D01*
X153671786Y-59950805D01*
X153541773Y-59938000D01*
X153541765Y-59938000D01*
X153498296Y-59933719D01*
X153454827Y-59938000D01*
X151125969Y-59938000D01*
X151082500Y-59933719D01*
X151039031Y-59938000D01*
X151039023Y-59938000D01*
X150923806Y-59949348D01*
X150909009Y-59950805D01*
X150878128Y-59960173D01*
X150742187Y-60001411D01*
X150588441Y-60083589D01*
X150558952Y-60107790D01*
X150487453Y-60166468D01*
X150487451Y-60166470D01*
X150453683Y-60194183D01*
X150425970Y-60227951D01*
X149087451Y-61566471D01*
X149053684Y-61594183D01*
X149025971Y-61627951D01*
X149025968Y-61627954D01*
X148943090Y-61728941D01*
X148860912Y-61882687D01*
X148810305Y-62049510D01*
X148793219Y-62223000D01*
X148797501Y-62266479D01*
X148797500Y-88707402D01*
X148512756Y-88897662D01*
X148257162Y-89153256D01*
X148056344Y-89453801D01*
X147918018Y-89787750D01*
X147847500Y-90142268D01*
X131267500Y-90142268D01*
X131267500Y-86040391D01*
X132541500Y-86040391D01*
X132541500Y-86365609D01*
X132604947Y-86684579D01*
X132729403Y-86985042D01*
X132910085Y-87255451D01*
X133140049Y-87485415D01*
X133410458Y-87666097D01*
X133710921Y-87790553D01*
X134029891Y-87854000D01*
X134355109Y-87854000D01*
X134674079Y-87790553D01*
X134974542Y-87666097D01*
X135244951Y-87485415D01*
X135462500Y-87267866D01*
X135680049Y-87485415D01*
X135950458Y-87666097D01*
X136250921Y-87790553D01*
X136569891Y-87854000D01*
X136895109Y-87854000D01*
X137214079Y-87790553D01*
X137514542Y-87666097D01*
X137784951Y-87485415D01*
X138002500Y-87267866D01*
X138220049Y-87485415D01*
X138490458Y-87666097D01*
X138790921Y-87790553D01*
X139109891Y-87854000D01*
X139435109Y-87854000D01*
X139754079Y-87790553D01*
X140054542Y-87666097D01*
X140324951Y-87485415D01*
X140542500Y-87267866D01*
X140760049Y-87485415D01*
X141030458Y-87666097D01*
X141330921Y-87790553D01*
X141649891Y-87854000D01*
X141975109Y-87854000D01*
X142294079Y-87790553D01*
X142594542Y-87666097D01*
X142864951Y-87485415D01*
X143094915Y-87255451D01*
X143275597Y-86985042D01*
X143400053Y-86684579D01*
X143463500Y-86365609D01*
X143463500Y-86040391D01*
X143400053Y-85721421D01*
X143275597Y-85420958D01*
X143094915Y-85150549D01*
X142877366Y-84933000D01*
X143094915Y-84715451D01*
X143275597Y-84445042D01*
X143400053Y-84144579D01*
X143463500Y-83825609D01*
X143463500Y-83500391D01*
X143400053Y-83181421D01*
X143275597Y-82880958D01*
X143094915Y-82610549D01*
X142877366Y-82393000D01*
X143094915Y-82175451D01*
X143275597Y-81905042D01*
X143400053Y-81604579D01*
X143463500Y-81285609D01*
X143463500Y-80960391D01*
X143400053Y-80641421D01*
X143275597Y-80340958D01*
X143094915Y-80070549D01*
X142877366Y-79853000D01*
X143094915Y-79635451D01*
X143275597Y-79365042D01*
X143400053Y-79064579D01*
X143463500Y-78745609D01*
X143463500Y-78420391D01*
X143400053Y-78101421D01*
X143275597Y-77800958D01*
X143094915Y-77530549D01*
X142877366Y-77313000D01*
X143094915Y-77095451D01*
X143275597Y-76825042D01*
X143400053Y-76524579D01*
X143463500Y-76205609D01*
X143463500Y-75880391D01*
X143400053Y-75561421D01*
X143275597Y-75260958D01*
X143094915Y-74990549D01*
X142877366Y-74773000D01*
X143094915Y-74555451D01*
X143275597Y-74285042D01*
X143400053Y-73984579D01*
X143463500Y-73665609D01*
X143463500Y-73340391D01*
X143400053Y-73021421D01*
X143275597Y-72720958D01*
X143094915Y-72450549D01*
X142877366Y-72233000D01*
X143094915Y-72015451D01*
X143275597Y-71745042D01*
X143400053Y-71444579D01*
X143463500Y-71125609D01*
X143463500Y-70800391D01*
X143400053Y-70481421D01*
X143275597Y-70180958D01*
X143094915Y-69910549D01*
X142877366Y-69693000D01*
X143094915Y-69475451D01*
X143275597Y-69205042D01*
X143400053Y-68904579D01*
X143463500Y-68585609D01*
X143463500Y-68260391D01*
X143400053Y-67941421D01*
X143275597Y-67640958D01*
X143094915Y-67370549D01*
X142877366Y-67153000D01*
X143094915Y-66935451D01*
X143275597Y-66665042D01*
X143400053Y-66364579D01*
X143463500Y-66045609D01*
X143463500Y-65720391D01*
X143400053Y-65401421D01*
X143275597Y-65100958D01*
X143094915Y-64830549D01*
X142877366Y-64613000D01*
X143094915Y-64395451D01*
X143275597Y-64125042D01*
X143400053Y-63824579D01*
X143463500Y-63505609D01*
X143463500Y-63180391D01*
X143400053Y-62861421D01*
X143275597Y-62560958D01*
X143094915Y-62290549D01*
X142877366Y-62073000D01*
X143094915Y-61855451D01*
X143275597Y-61585042D01*
X143400053Y-61284579D01*
X143463500Y-60965609D01*
X143463500Y-60640391D01*
X143400053Y-60321421D01*
X143275597Y-60020958D01*
X143176735Y-59873000D01*
X143894428Y-59873000D01*
X143894428Y-61573000D01*
X143906688Y-61697482D01*
X143942998Y-61817180D01*
X144001963Y-61927494D01*
X144081315Y-62024185D01*
X144178006Y-62103537D01*
X144288320Y-62162502D01*
X144360880Y-62184513D01*
X144229025Y-62316368D01*
X144066510Y-62559589D01*
X143954568Y-62829842D01*
X143897500Y-63116740D01*
X143897500Y-63409260D01*
X143954568Y-63696158D01*
X144066510Y-63966411D01*
X144229025Y-64209632D01*
X144435868Y-64416475D01*
X144610260Y-64533000D01*
X144435868Y-64649525D01*
X144229025Y-64856368D01*
X144066510Y-65099589D01*
X143954568Y-65369842D01*
X143897500Y-65656740D01*
X143897500Y-65949260D01*
X143954568Y-66236158D01*
X144066510Y-66506411D01*
X144229025Y-66749632D01*
X144435868Y-66956475D01*
X144610260Y-67073000D01*
X144435868Y-67189525D01*
X144229025Y-67396368D01*
X144066510Y-67639589D01*
X143954568Y-67909842D01*
X143897500Y-68196740D01*
X143897500Y-68489260D01*
X143954568Y-68776158D01*
X144066510Y-69046411D01*
X144229025Y-69289632D01*
X144435868Y-69496475D01*
X144610260Y-69613000D01*
X144435868Y-69729525D01*
X144229025Y-69936368D01*
X144066510Y-70179589D01*
X143954568Y-70449842D01*
X143897500Y-70736740D01*
X143897500Y-71029260D01*
X143954568Y-71316158D01*
X144066510Y-71586411D01*
X144229025Y-71829632D01*
X144435868Y-72036475D01*
X144610260Y-72153000D01*
X144435868Y-72269525D01*
X144229025Y-72476368D01*
X144066510Y-72719589D01*
X143954568Y-72989842D01*
X143897500Y-73276740D01*
X143897500Y-73569260D01*
X143954568Y-73856158D01*
X144066510Y-74126411D01*
X144229025Y-74369632D01*
X144435868Y-74576475D01*
X144610260Y-74693000D01*
X144435868Y-74809525D01*
X144229025Y-75016368D01*
X144066510Y-75259589D01*
X143954568Y-75529842D01*
X143897500Y-75816740D01*
X143897500Y-76109260D01*
X143954568Y-76396158D01*
X144066510Y-76666411D01*
X144229025Y-76909632D01*
X144435868Y-77116475D01*
X144610260Y-77233000D01*
X144435868Y-77349525D01*
X144229025Y-77556368D01*
X144066510Y-77799589D01*
X143954568Y-78069842D01*
X143897500Y-78356740D01*
X143897500Y-78649260D01*
X143954568Y-78936158D01*
X144066510Y-79206411D01*
X144229025Y-79449632D01*
X144435868Y-79656475D01*
X144610260Y-79773000D01*
X144435868Y-79889525D01*
X144229025Y-80096368D01*
X144066510Y-80339589D01*
X143954568Y-80609842D01*
X143897500Y-80896740D01*
X143897500Y-81189260D01*
X143954568Y-81476158D01*
X144066510Y-81746411D01*
X144229025Y-81989632D01*
X144435868Y-82196475D01*
X144610260Y-82313000D01*
X144435868Y-82429525D01*
X144229025Y-82636368D01*
X144066510Y-82879589D01*
X143954568Y-83149842D01*
X143897500Y-83436740D01*
X143897500Y-83729260D01*
X143954568Y-84016158D01*
X144066510Y-84286411D01*
X144229025Y-84529632D01*
X144435868Y-84736475D01*
X144610260Y-84853000D01*
X144435868Y-84969525D01*
X144229025Y-85176368D01*
X144066510Y-85419589D01*
X143954568Y-85689842D01*
X143897500Y-85976740D01*
X143897500Y-86269260D01*
X143954568Y-86556158D01*
X144066510Y-86826411D01*
X144229025Y-87069632D01*
X144435868Y-87276475D01*
X144679089Y-87438990D01*
X144949342Y-87550932D01*
X145236240Y-87608000D01*
X145528760Y-87608000D01*
X145815658Y-87550932D01*
X146085911Y-87438990D01*
X146329132Y-87276475D01*
X146535975Y-87069632D01*
X146698490Y-86826411D01*
X146810432Y-86556158D01*
X146867500Y-86269260D01*
X146867500Y-85976740D01*
X146810432Y-85689842D01*
X146698490Y-85419589D01*
X146535975Y-85176368D01*
X146329132Y-84969525D01*
X146154740Y-84853000D01*
X146329132Y-84736475D01*
X146535975Y-84529632D01*
X146698490Y-84286411D01*
X146810432Y-84016158D01*
X146867500Y-83729260D01*
X146867500Y-83436740D01*
X146810432Y-83149842D01*
X146698490Y-82879589D01*
X146535975Y-82636368D01*
X146329132Y-82429525D01*
X146154740Y-82313000D01*
X146329132Y-82196475D01*
X146535975Y-81989632D01*
X146698490Y-81746411D01*
X146810432Y-81476158D01*
X146867500Y-81189260D01*
X146867500Y-80896740D01*
X146810432Y-80609842D01*
X146698490Y-80339589D01*
X146535975Y-80096368D01*
X146329132Y-79889525D01*
X146154740Y-79773000D01*
X146329132Y-79656475D01*
X146535975Y-79449632D01*
X146698490Y-79206411D01*
X146810432Y-78936158D01*
X146867500Y-78649260D01*
X146867500Y-78356740D01*
X146810432Y-78069842D01*
X146698490Y-77799589D01*
X146535975Y-77556368D01*
X146329132Y-77349525D01*
X146154740Y-77233000D01*
X146329132Y-77116475D01*
X146535975Y-76909632D01*
X146698490Y-76666411D01*
X146810432Y-76396158D01*
X146867500Y-76109260D01*
X146867500Y-75816740D01*
X146810432Y-75529842D01*
X146698490Y-75259589D01*
X146535975Y-75016368D01*
X146329132Y-74809525D01*
X146154740Y-74693000D01*
X146329132Y-74576475D01*
X146535975Y-74369632D01*
X146698490Y-74126411D01*
X146810432Y-73856158D01*
X146867500Y-73569260D01*
X146867500Y-73276740D01*
X146810432Y-72989842D01*
X146698490Y-72719589D01*
X146535975Y-72476368D01*
X146329132Y-72269525D01*
X146154740Y-72153000D01*
X146329132Y-72036475D01*
X146535975Y-71829632D01*
X146698490Y-71586411D01*
X146810432Y-71316158D01*
X146867500Y-71029260D01*
X146867500Y-70736740D01*
X146810432Y-70449842D01*
X146698490Y-70179589D01*
X146535975Y-69936368D01*
X146329132Y-69729525D01*
X146154740Y-69613000D01*
X146329132Y-69496475D01*
X146535975Y-69289632D01*
X146698490Y-69046411D01*
X146810432Y-68776158D01*
X146867500Y-68489260D01*
X146867500Y-68196740D01*
X146810432Y-67909842D01*
X146698490Y-67639589D01*
X146535975Y-67396368D01*
X146329132Y-67189525D01*
X146154740Y-67073000D01*
X146329132Y-66956475D01*
X146535975Y-66749632D01*
X146698490Y-66506411D01*
X146810432Y-66236158D01*
X146867500Y-65949260D01*
X146867500Y-65656740D01*
X146810432Y-65369842D01*
X146698490Y-65099589D01*
X146535975Y-64856368D01*
X146329132Y-64649525D01*
X146154740Y-64533000D01*
X146329132Y-64416475D01*
X146535975Y-64209632D01*
X146698490Y-63966411D01*
X146810432Y-63696158D01*
X146867500Y-63409260D01*
X146867500Y-63116740D01*
X146810432Y-62829842D01*
X146698490Y-62559589D01*
X146535975Y-62316368D01*
X146404120Y-62184513D01*
X146476680Y-62162502D01*
X146586994Y-62103537D01*
X146683685Y-62024185D01*
X146763037Y-61927494D01*
X146822002Y-61817180D01*
X146858312Y-61697482D01*
X146870572Y-61573000D01*
X146870572Y-59873000D01*
X146858312Y-59748518D01*
X146822002Y-59628820D01*
X146763037Y-59518506D01*
X146683685Y-59421815D01*
X146586994Y-59342463D01*
X146476680Y-59283498D01*
X146356982Y-59247188D01*
X146232500Y-59234928D01*
X144532500Y-59234928D01*
X144408018Y-59247188D01*
X144288320Y-59283498D01*
X144178006Y-59342463D01*
X144081315Y-59421815D01*
X144001963Y-59518506D01*
X143942998Y-59628820D01*
X143906688Y-59748518D01*
X143894428Y-59873000D01*
X143176735Y-59873000D01*
X143094915Y-59750549D01*
X142864951Y-59520585D01*
X142763851Y-59453032D01*
X142779718Y-59409823D01*
X141812500Y-58442605D01*
X140845282Y-59409823D01*
X140861149Y-59453032D01*
X140760049Y-59520585D01*
X140530085Y-59750549D01*
X140349403Y-60020958D01*
X140224947Y-60321421D01*
X140161500Y-60640391D01*
X140161500Y-60965609D01*
X140224947Y-61284579D01*
X140349403Y-61585042D01*
X140530085Y-61855451D01*
X140747634Y-62073000D01*
X140530085Y-62290549D01*
X140349403Y-62560958D01*
X140224947Y-62861421D01*
X140161500Y-63180391D01*
X140161500Y-63505609D01*
X140224947Y-63824579D01*
X140349403Y-64125042D01*
X140530085Y-64395451D01*
X140747634Y-64613000D01*
X140530085Y-64830549D01*
X140349403Y-65100958D01*
X140224947Y-65401421D01*
X140161500Y-65720391D01*
X140161500Y-65761370D01*
X140054542Y-65689903D01*
X139754079Y-65565447D01*
X139435109Y-65502000D01*
X139109891Y-65502000D01*
X138790921Y-65565447D01*
X138490458Y-65689903D01*
X138220049Y-65870585D01*
X137990085Y-66100549D01*
X137809403Y-66370958D01*
X137684947Y-66671421D01*
X137621500Y-66990391D01*
X137621500Y-67315609D01*
X137684947Y-67634579D01*
X137809403Y-67935042D01*
X137990085Y-68205451D01*
X138207634Y-68423000D01*
X137990085Y-68640549D01*
X137809403Y-68910958D01*
X137684947Y-69211421D01*
X137621500Y-69530391D01*
X137621500Y-69855609D01*
X137684947Y-70174579D01*
X137809403Y-70475042D01*
X137990085Y-70745451D01*
X138220049Y-70975415D01*
X138490458Y-71156097D01*
X138790921Y-71280553D01*
X139109891Y-71344000D01*
X139435109Y-71344000D01*
X139754079Y-71280553D01*
X140054542Y-71156097D01*
X140161500Y-71084630D01*
X140161500Y-71125609D01*
X140224947Y-71444579D01*
X140349403Y-71745042D01*
X140530085Y-72015451D01*
X140747634Y-72233000D01*
X140530085Y-72450549D01*
X140349403Y-72720958D01*
X140224947Y-73021421D01*
X140161500Y-73340391D01*
X140161500Y-73665609D01*
X140224947Y-73984579D01*
X140349403Y-74285042D01*
X140530085Y-74555451D01*
X140747634Y-74773000D01*
X140530085Y-74990549D01*
X140349403Y-75260958D01*
X140224947Y-75561421D01*
X140161500Y-75880391D01*
X140161500Y-76205609D01*
X140224947Y-76524579D01*
X140349403Y-76825042D01*
X140530085Y-77095451D01*
X140747634Y-77313000D01*
X140530085Y-77530549D01*
X140349403Y-77800958D01*
X140224947Y-78101421D01*
X140161500Y-78420391D01*
X140161500Y-78745609D01*
X140224947Y-79064579D01*
X140349403Y-79365042D01*
X140530085Y-79635451D01*
X140747634Y-79853000D01*
X140530085Y-80070549D01*
X140349403Y-80340958D01*
X140224947Y-80641421D01*
X140161500Y-80960391D01*
X140161500Y-81285609D01*
X140224947Y-81604579D01*
X140349403Y-81905042D01*
X140530085Y-82175451D01*
X140747634Y-82393000D01*
X140530085Y-82610549D01*
X140349403Y-82880958D01*
X140224947Y-83181421D01*
X140161500Y-83500391D01*
X140161500Y-83825609D01*
X140224947Y-84144579D01*
X140349403Y-84445042D01*
X140530085Y-84715451D01*
X140747634Y-84933000D01*
X140542500Y-85138134D01*
X140324951Y-84920585D01*
X140054542Y-84739903D01*
X139754079Y-84615447D01*
X139435109Y-84552000D01*
X139109891Y-84552000D01*
X138790921Y-84615447D01*
X138490458Y-84739903D01*
X138220049Y-84920585D01*
X138002500Y-85138134D01*
X137784951Y-84920585D01*
X137514542Y-84739903D01*
X137214079Y-84615447D01*
X136895109Y-84552000D01*
X136569891Y-84552000D01*
X136250921Y-84615447D01*
X135950458Y-84739903D01*
X135680049Y-84920585D01*
X135462500Y-85138134D01*
X135244951Y-84920585D01*
X134974542Y-84739903D01*
X134674079Y-84615447D01*
X134355109Y-84552000D01*
X134029891Y-84552000D01*
X133710921Y-84615447D01*
X133410458Y-84739903D01*
X133140049Y-84920585D01*
X132910085Y-85150549D01*
X132729403Y-85420958D01*
X132604947Y-85721421D01*
X132541500Y-86040391D01*
X131267500Y-86040391D01*
X131267500Y-76266469D01*
X131271781Y-76223000D01*
X131267500Y-76179531D01*
X131267500Y-76179523D01*
X131254695Y-76049510D01*
X131204089Y-75882687D01*
X131121911Y-75728941D01*
X131011317Y-75594183D01*
X130977550Y-75566471D01*
X128319034Y-72907956D01*
X128291317Y-72874183D01*
X128156559Y-72763589D01*
X128012706Y-72686699D01*
X127854915Y-72450549D01*
X127637366Y-72233000D01*
X127854915Y-72015451D01*
X128035597Y-71745042D01*
X128160053Y-71444579D01*
X128223500Y-71125609D01*
X128223500Y-70800391D01*
X128160053Y-70481421D01*
X128035597Y-70180958D01*
X127854915Y-69910549D01*
X127637366Y-69693000D01*
X127854915Y-69475451D01*
X128035597Y-69205042D01*
X128160053Y-68904579D01*
X128223500Y-68585609D01*
X128223500Y-68260391D01*
X128160053Y-67941421D01*
X128035597Y-67640958D01*
X127854915Y-67370549D01*
X127637366Y-67153000D01*
X127854915Y-66935451D01*
X128035597Y-66665042D01*
X128160053Y-66364579D01*
X128223500Y-66045609D01*
X128223500Y-65720391D01*
X128160053Y-65401421D01*
X128035597Y-65100958D01*
X127854915Y-64830549D01*
X127637366Y-64613000D01*
X127854915Y-64395451D01*
X128035597Y-64125042D01*
X128160053Y-63824579D01*
X128223500Y-63505609D01*
X128223500Y-63180391D01*
X128160053Y-62861421D01*
X128035597Y-62560958D01*
X127854915Y-62290549D01*
X127637366Y-62073000D01*
X127854915Y-61855451D01*
X128035597Y-61585042D01*
X128160053Y-61284579D01*
X128223500Y-60965609D01*
X128223500Y-60640391D01*
X128160053Y-60321421D01*
X128035597Y-60020958D01*
X127854915Y-59750549D01*
X127637366Y-59533000D01*
X127854915Y-59315451D01*
X128035597Y-59045042D01*
X128160053Y-58744579D01*
X128223500Y-58425609D01*
X128223500Y-58100391D01*
X128160053Y-57781421D01*
X128035597Y-57480958D01*
X127964130Y-57374000D01*
X128005109Y-57374000D01*
X128324079Y-57310553D01*
X128624542Y-57186097D01*
X128894951Y-57005415D01*
X129112500Y-56787866D01*
X129330049Y-57005415D01*
X129600458Y-57186097D01*
X129900921Y-57310553D01*
X130219891Y-57374000D01*
X130545109Y-57374000D01*
X130864079Y-57310553D01*
X131164542Y-57186097D01*
X131434951Y-57005415D01*
X131652500Y-56787866D01*
X131870049Y-57005415D01*
X132140458Y-57186097D01*
X132440921Y-57310553D01*
X132759891Y-57374000D01*
X133085109Y-57374000D01*
X133404079Y-57310553D01*
X133704542Y-57186097D01*
X133974951Y-57005415D01*
X134192500Y-56787866D01*
X134410049Y-57005415D01*
X134680458Y-57186097D01*
X134980921Y-57310553D01*
X135299891Y-57374000D01*
X135625109Y-57374000D01*
X135944079Y-57310553D01*
X136244542Y-57186097D01*
X136514951Y-57005415D01*
X136732500Y-56787866D01*
X136950049Y-57005415D01*
X137220458Y-57186097D01*
X137520921Y-57310553D01*
X137839891Y-57374000D01*
X138165109Y-57374000D01*
X138484079Y-57310553D01*
X138784542Y-57186097D01*
X139054951Y-57005415D01*
X139272500Y-56787866D01*
X139490049Y-57005415D01*
X139760458Y-57186097D01*
X140060921Y-57310553D01*
X140379891Y-57374000D01*
X140452681Y-57374000D01*
X140399640Y-57393478D01*
X140257152Y-57685821D01*
X140174436Y-58000344D01*
X140154669Y-58324962D01*
X140198612Y-58647198D01*
X140304576Y-58954670D01*
X140399640Y-59132522D01*
X140665677Y-59230218D01*
X141632895Y-58263000D01*
X141992105Y-58263000D01*
X142959323Y-59230218D01*
X143225360Y-59132522D01*
X143367848Y-58840179D01*
X143450564Y-58525656D01*
X143470331Y-58201038D01*
X143426388Y-57878802D01*
X143320424Y-57571330D01*
X143225360Y-57393478D01*
X142959323Y-57295782D01*
X141992105Y-58263000D01*
X141632895Y-58263000D01*
X141618753Y-58248858D01*
X141798358Y-58069253D01*
X141812500Y-58083395D01*
X142779718Y-57116177D01*
X142682022Y-56850140D01*
X142389679Y-56707652D01*
X142075156Y-56624936D01*
X141931338Y-56616178D01*
X142005597Y-56505042D01*
X142130053Y-56204579D01*
X142193500Y-55885609D01*
X142193500Y-55560391D01*
X142130053Y-55241421D01*
X142005597Y-54940958D01*
X141824915Y-54670549D01*
X141762366Y-54608000D01*
X153415922Y-54608000D01*
X175725970Y-76918049D01*
X175753683Y-76951817D01*
X175787451Y-76979530D01*
X175787453Y-76979532D01*
X175888441Y-77062411D01*
X176042186Y-77144589D01*
X176182028Y-77187010D01*
X176209010Y-77195195D01*
X176339023Y-77208000D01*
X176339031Y-77208000D01*
X176382500Y-77212281D01*
X176425969Y-77208000D01*
X191539031Y-77208000D01*
X191582500Y-77212281D01*
X191625969Y-77208000D01*
X191625977Y-77208000D01*
X191755990Y-77195195D01*
X191922813Y-77144589D01*
X192076559Y-77062411D01*
X192211317Y-76951817D01*
X192239034Y-76918044D01*
X193358501Y-75798578D01*
X193428006Y-75855619D01*
X193538320Y-75914584D01*
X193658018Y-75950894D01*
X193782500Y-75963154D01*
X193906982Y-75950894D01*
X194026680Y-75914584D01*
X194136994Y-75855619D01*
X194233685Y-75776267D01*
X195435767Y-74574185D01*
X195515119Y-74477494D01*
X195574084Y-74367180D01*
X195610394Y-74247482D01*
X195622654Y-74123000D01*
X195610394Y-73998518D01*
X195574084Y-73878820D01*
X195538340Y-73811949D01*
X195724811Y-73811949D01*
X196011709Y-73754881D01*
X196281962Y-73642939D01*
X196525183Y-73480424D01*
X196732026Y-73273581D01*
X196894541Y-73030360D01*
X197006483Y-72760107D01*
X197063551Y-72473209D01*
X197063551Y-72180689D01*
X197006483Y-71893791D01*
X196894541Y-71623538D01*
X196732026Y-71380317D01*
X196525183Y-71173474D01*
X196281962Y-71010959D01*
X196011709Y-70899017D01*
X195724811Y-70841949D01*
X195432291Y-70841949D01*
X195145393Y-70899017D01*
X194875140Y-71010959D01*
X194631919Y-71173474D01*
X194425076Y-71380317D01*
X194262561Y-71623538D01*
X194150619Y-71893791D01*
X194093551Y-72180689D01*
X194093551Y-72367160D01*
X194026680Y-72331416D01*
X193906982Y-72295106D01*
X193782500Y-72282846D01*
X193658018Y-72295106D01*
X193538320Y-72331416D01*
X193428006Y-72390381D01*
X193331315Y-72469733D01*
X192129233Y-73671815D01*
X192049881Y-73768506D01*
X191990916Y-73878820D01*
X191954606Y-73998518D01*
X191942346Y-74123000D01*
X191954606Y-74247482D01*
X191990916Y-74367180D01*
X192049881Y-74477494D01*
X192106922Y-74546999D01*
X191215922Y-75438000D01*
X176749079Y-75438000D01*
X156531470Y-55220391D01*
X158676500Y-55220391D01*
X158676500Y-55545609D01*
X158739947Y-55864579D01*
X158864403Y-56165042D01*
X159045085Y-56435451D01*
X159275049Y-56665415D01*
X159545458Y-56846097D01*
X159845921Y-56970553D01*
X160164891Y-57034000D01*
X160490109Y-57034000D01*
X160809079Y-56970553D01*
X161109542Y-56846097D01*
X161379951Y-56665415D01*
X161609915Y-56435451D01*
X161790597Y-56165042D01*
X161915053Y-55864579D01*
X161978500Y-55545609D01*
X161978500Y-55220391D01*
X172646500Y-55220391D01*
X172646500Y-55545609D01*
X172709947Y-55864579D01*
X172834403Y-56165042D01*
X173015085Y-56435451D01*
X173245049Y-56665415D01*
X173515458Y-56846097D01*
X173815921Y-56970553D01*
X174134891Y-57034000D01*
X174460109Y-57034000D01*
X174779079Y-56970553D01*
X175079542Y-56846097D01*
X175349951Y-56665415D01*
X175579915Y-56435451D01*
X175760597Y-56165042D01*
X175885053Y-55864579D01*
X175948500Y-55545609D01*
X175948500Y-55220391D01*
X175885053Y-54901421D01*
X175760597Y-54600958D01*
X175579915Y-54330549D01*
X175349951Y-54100585D01*
X175079542Y-53919903D01*
X174779079Y-53795447D01*
X174460109Y-53732000D01*
X174134891Y-53732000D01*
X173815921Y-53795447D01*
X173515458Y-53919903D01*
X173245049Y-54100585D01*
X173015085Y-54330549D01*
X172834403Y-54600958D01*
X172709947Y-54901421D01*
X172646500Y-55220391D01*
X161978500Y-55220391D01*
X161915053Y-54901421D01*
X161790597Y-54600958D01*
X161609915Y-54330549D01*
X161379951Y-54100585D01*
X161109542Y-53919903D01*
X160809079Y-53795447D01*
X160490109Y-53732000D01*
X160164891Y-53732000D01*
X159845921Y-53795447D01*
X159545458Y-53919903D01*
X159275049Y-54100585D01*
X159045085Y-54330549D01*
X158864403Y-54600958D01*
X158739947Y-54901421D01*
X158676500Y-55220391D01*
X156531470Y-55220391D01*
X154439034Y-53127956D01*
X154411317Y-53094183D01*
X154276559Y-52983589D01*
X154122813Y-52901411D01*
X154062121Y-52883000D01*
X186609120Y-52883000D01*
X186722501Y-52996382D01*
G37*
X186722501Y-52996382D02*
X186722500Y-56090083D01*
X186643600Y-56093390D01*
X186610986Y-56096991D01*
X186578243Y-56099395D01*
X186571406Y-56100405D01*
X185428450Y-56275302D01*
X185388003Y-56284343D01*
X185347469Y-56292959D01*
X185340832Y-56294887D01*
X184232188Y-56623282D01*
X184193343Y-56637728D01*
X184154352Y-56651766D01*
X184148053Y-56654571D01*
X184148039Y-56654576D01*
X184148027Y-56654582D01*
X183094219Y-57130395D01*
X183057687Y-57149983D01*
X183020969Y-57169179D01*
X183015107Y-57172814D01*
X183015095Y-57172820D01*
X183015085Y-57172827D01*
X182035602Y-57787256D01*
X182002097Y-57811599D01*
X181968293Y-57835622D01*
X181962968Y-57840027D01*
X181075926Y-58581709D01*
X181046007Y-58610400D01*
X181015804Y-58638762D01*
X181011134Y-58643842D01*
X181011126Y-58643849D01*
X181011120Y-58643857D01*
X180232949Y-59499056D01*
X180207180Y-59531569D01*
X180181127Y-59563741D01*
X180177190Y-59569406D01*
X180177182Y-59569416D01*
X180177176Y-59569426D01*
X179522270Y-60522320D01*
X179501184Y-60557974D01*
X179479706Y-60593439D01*
X179476568Y-60599597D01*
X178957038Y-61632567D01*
X178940982Y-61670763D01*
X178924519Y-61708806D01*
X178922254Y-61715313D01*
X178922246Y-61715332D01*
X178922241Y-61715350D01*
X178547714Y-62809252D01*
X178536993Y-62849264D01*
X178525843Y-62889199D01*
X178524477Y-62895974D01*
X178301872Y-64030604D01*
X178296679Y-64071712D01*
X178291053Y-64112779D01*
X178290619Y-64119676D01*
X178224060Y-65274018D01*
X178224494Y-65315467D01*
X178224494Y-65356900D01*
X178225000Y-65363777D01*
X178225000Y-65363793D01*
X178225002Y-65363807D01*
X178315720Y-66516489D01*
X178321773Y-66557482D01*
X178327398Y-66598546D01*
X178328832Y-66605293D01*
X178328834Y-66605305D01*
X178328837Y-66605316D01*
X178575154Y-67735024D01*
X178586725Y-67774854D01*
X178597861Y-67814737D01*
X178600197Y-67821225D01*
X178600201Y-67821239D01*
X178600207Y-67821252D01*
X178997562Y-68907077D01*
X179014411Y-68944922D01*
X179030876Y-68982970D01*
X179034069Y-68989075D01*
X179034078Y-68989095D01*
X179034088Y-68989112D01*
X179575127Y-70010958D01*
X179596961Y-70046173D01*
X179618433Y-70081628D01*
X179622429Y-70087250D01*
X179622436Y-70087261D01*
X179622444Y-70087270D01*
X180297162Y-71026241D01*
X180323580Y-71058175D01*
X180349659Y-71090380D01*
X180354382Y-71095409D01*
X180354389Y-71095418D01*
X180354397Y-71095425D01*
X181150307Y-71934139D01*
X181180803Y-71962182D01*
X181211023Y-71990560D01*
X181216394Y-71994909D01*
X182118775Y-72717852D01*
X182152777Y-72741485D01*
X182186586Y-72765511D01*
X182192490Y-72769086D01*
X182192497Y-72769091D01*
X182192504Y-72769094D01*
X183184644Y-73362878D01*
X183221575Y-73381696D01*
X183258296Y-73400893D01*
X183264625Y-73403631D01*
X183264638Y-73403638D01*
X183264651Y-73403642D01*
X184328191Y-73857281D01*
X184367316Y-73870906D01*
X184406321Y-73884949D01*
X184412973Y-73886806D01*
X184412981Y-73886808D01*
X185528257Y-74191913D01*
X185568866Y-74200101D01*
X185609419Y-74208721D01*
X185616263Y-74209659D01*
X185616267Y-74209659D01*
X186762634Y-74360581D01*
X186803998Y-74363183D01*
X186845326Y-74366218D01*
X186852237Y-74366218D01*
X188008481Y-74360164D01*
X188049812Y-74357129D01*
X188091172Y-74354527D01*
X188098020Y-74353589D01*
X189242743Y-74190671D01*
X189283285Y-74182054D01*
X189323906Y-74173863D01*
X189330550Y-74172007D01*
X189330561Y-74172005D01*
X189330571Y-74172002D01*
X190442585Y-73855236D01*
X190481569Y-73841201D01*
X190520715Y-73827569D01*
X190527049Y-73824828D01*
X190527057Y-73824825D01*
X190527064Y-73824822D01*
X191585802Y-73360067D01*
X191622520Y-73340872D01*
X191659453Y-73322053D01*
X191665365Y-73318473D01*
X192651239Y-72714329D01*
X192685023Y-72690320D01*
X192719051Y-72666670D01*
X192724422Y-72662320D01*
X193619182Y-71929967D01*
X193649397Y-71901593D01*
X193679897Y-71873547D01*
X193684621Y-71868517D01*
X193684629Y-71868509D01*
X193684636Y-71868501D01*
X194471719Y-71021499D01*
X194497790Y-70989304D01*
X194524217Y-70957360D01*
X194528220Y-70951726D01*
X195193075Y-70005733D01*
X195214556Y-69970265D01*
X195236382Y-69935063D01*
X195239577Y-69928951D01*
X195239584Y-69928939D01*
X195239589Y-69928927D01*
X195769901Y-68901466D01*
X195786379Y-68863389D01*
X195803216Y-68825572D01*
X195805552Y-68819084D01*
X195805558Y-68819070D01*
X195805562Y-68819057D01*
X196191525Y-67729131D01*
X196202672Y-67689207D01*
X196214232Y-67649418D01*
X196215669Y-67642658D01*
X196450144Y-66510422D01*
X196455768Y-66469364D01*
X196461823Y-66428364D01*
X196462329Y-66421472D01*
X196499038Y-65883000D01*
X199609120Y-65883000D01*
X199722500Y-65996381D01*
X199722501Y-137449618D01*
X199609120Y-137563000D01*
X196515417Y-137563000D01*
X196512110Y-137484100D01*
X196508509Y-137451486D01*
X196506105Y-137418743D01*
X196505095Y-137411906D01*
X196330198Y-136268950D01*
X196321157Y-136228503D01*
X196312541Y-136187969D01*
X196310613Y-136181332D01*
X195982218Y-135072688D01*
X195967772Y-135033843D01*
X195953734Y-134994852D01*
X195950929Y-134988553D01*
X195950924Y-134988539D01*
X195950918Y-134988527D01*
X195475105Y-133934719D01*
X195455517Y-133898187D01*
X195436321Y-133861469D01*
X195432686Y-133855607D01*
X195432680Y-133855595D01*
X195432673Y-133855585D01*
X194818244Y-132876102D01*
X194793901Y-132842597D01*
X194769878Y-132808793D01*
X194765473Y-132803468D01*
X194023791Y-131916426D01*
X193995100Y-131886507D01*
X193966738Y-131856304D01*
X193961658Y-131851634D01*
X193961651Y-131851626D01*
X193961643Y-131851620D01*
X193106444Y-131073449D01*
X193073931Y-131047680D01*
X193041759Y-131021627D01*
X193036094Y-131017690D01*
X193036084Y-131017682D01*
X193036074Y-131017676D01*
X192083180Y-130362770D01*
X192047526Y-130341684D01*
X192012061Y-130320206D01*
X192005903Y-130317068D01*
X190972933Y-129797538D01*
X190934737Y-129781482D01*
X190896694Y-129765019D01*
X190890187Y-129762754D01*
X190890168Y-129762746D01*
X190890150Y-129762741D01*
X189796248Y-129388214D01*
X189756236Y-129377493D01*
X189716301Y-129366343D01*
X189709530Y-129364978D01*
X189709527Y-129364977D01*
X189709524Y-129364977D01*
X188574896Y-129142372D01*
X188533788Y-129137179D01*
X188492721Y-129131553D01*
X188485824Y-129131119D01*
X188084868Y-129108000D01*
X192234830Y-129108000D01*
X192194865Y-129182769D01*
X192158555Y-129302467D01*
X192146295Y-129426949D01*
X192158555Y-129551431D01*
X192194865Y-129671129D01*
X192253830Y-129781443D01*
X192333182Y-129878134D01*
X193535264Y-131080216D01*
X193631955Y-131159568D01*
X193742269Y-131218533D01*
X193861967Y-131254843D01*
X193986449Y-131267103D01*
X194110931Y-131254843D01*
X194230629Y-131218533D01*
X194297500Y-131182789D01*
X194297500Y-131369260D01*
X194354568Y-131656158D01*
X194466510Y-131926411D01*
X194629025Y-132169632D01*
X194835868Y-132376475D01*
X195079089Y-132538990D01*
X195349342Y-132650932D01*
X195636240Y-132708000D01*
X195928760Y-132708000D01*
X196215658Y-132650932D01*
X196485911Y-132538990D01*
X196729132Y-132376475D01*
X196935975Y-132169632D01*
X197098490Y-131926411D01*
X197210432Y-131656158D01*
X197267500Y-131369260D01*
X197267500Y-131076740D01*
X197210432Y-130789842D01*
X197098490Y-130519589D01*
X196935975Y-130276368D01*
X196729132Y-130069525D01*
X196485911Y-129907010D01*
X196215658Y-129795068D01*
X195928760Y-129738000D01*
X195742289Y-129738000D01*
X195778033Y-129671129D01*
X195814343Y-129551431D01*
X195826603Y-129426949D01*
X195814343Y-129302467D01*
X195778033Y-129182769D01*
X195719068Y-129072455D01*
X195639716Y-128975764D01*
X194437634Y-127773682D01*
X194340943Y-127694330D01*
X194230629Y-127635365D01*
X194110931Y-127599055D01*
X193986449Y-127586795D01*
X193861967Y-127599055D01*
X193742269Y-127635365D01*
X193631955Y-127694330D01*
X193562450Y-127751371D01*
X193439034Y-127627956D01*
X193411317Y-127594183D01*
X193276559Y-127483589D01*
X193122813Y-127401411D01*
X192955990Y-127350805D01*
X192825977Y-127338000D01*
X192825969Y-127338000D01*
X192782500Y-127333719D01*
X192739031Y-127338000D01*
X176249079Y-127338000D01*
X174267500Y-125356422D01*
X174267500Y-104766469D01*
X174271781Y-104723000D01*
X174267500Y-104679531D01*
X174267500Y-104679523D01*
X174254695Y-104549510D01*
X174254080Y-104547482D01*
X174204089Y-104382686D01*
X174121911Y-104228941D01*
X174039032Y-104127953D01*
X174039030Y-104127951D01*
X174011317Y-104094183D01*
X173977551Y-104066472D01*
X173101661Y-103190582D01*
X178972500Y-103190582D01*
X178972501Y-124255419D01*
X178975318Y-124284018D01*
X178975253Y-124293288D01*
X178976152Y-124302460D01*
X179006752Y-124593605D01*
X179018783Y-124652217D01*
X179029989Y-124710963D01*
X179032653Y-124719784D01*
X179119221Y-124999440D01*
X179142399Y-125054578D01*
X179164811Y-125110050D01*
X179169138Y-125118186D01*
X179308377Y-125375702D01*
X179341804Y-125425259D01*
X179374580Y-125475347D01*
X179380405Y-125482488D01*
X179567010Y-125708056D01*
X179609465Y-125750215D01*
X179651309Y-125792945D01*
X179658409Y-125798819D01*
X179885273Y-125983845D01*
X179935066Y-126016927D01*
X179984455Y-126050745D01*
X179992561Y-126055127D01*
X180251042Y-126192564D01*
X180306336Y-126215355D01*
X180361329Y-126238925D01*
X180370132Y-126241650D01*
X180650387Y-126326264D01*
X180709064Y-126337882D01*
X180767579Y-126350320D01*
X180776742Y-126351283D01*
X180776744Y-126351283D01*
X181068096Y-126379850D01*
X181068098Y-126379850D01*
X181100081Y-126383000D01*
X190664919Y-126383000D01*
X190693528Y-126380182D01*
X190702788Y-126380247D01*
X190711960Y-126379348D01*
X191003105Y-126348748D01*
X191061717Y-126336717D01*
X191120463Y-126325511D01*
X191129284Y-126322847D01*
X191408940Y-126236279D01*
X191464078Y-126213101D01*
X191519550Y-126190689D01*
X191527681Y-126186365D01*
X191527685Y-126186363D01*
X191527688Y-126186361D01*
X191785202Y-126047123D01*
X191834759Y-126013696D01*
X191884847Y-125980920D01*
X191891988Y-125975095D01*
X192117556Y-125788490D01*
X192159715Y-125746035D01*
X192202445Y-125704191D01*
X192208319Y-125697091D01*
X192393345Y-125470227D01*
X192426427Y-125420434D01*
X192460245Y-125371045D01*
X192464627Y-125362939D01*
X192602064Y-125104458D01*
X192624855Y-125049164D01*
X192648425Y-124994171D01*
X192651150Y-124985368D01*
X192735764Y-124705113D01*
X192747382Y-124646436D01*
X192759820Y-124587921D01*
X192760783Y-124578756D01*
X192789350Y-124287404D01*
X192789350Y-124287402D01*
X192792500Y-124255419D01*
X192792500Y-122509323D01*
X193462997Y-122509323D01*
X193462997Y-122936677D01*
X193546370Y-123355821D01*
X193709912Y-123750645D01*
X193947337Y-124105977D01*
X194249523Y-124408163D01*
X194604855Y-124645588D01*
X194999679Y-124809130D01*
X195418823Y-124892503D01*
X195846177Y-124892503D01*
X196265321Y-124809130D01*
X196660145Y-124645588D01*
X197015477Y-124408163D01*
X197317663Y-124105977D01*
X197555088Y-123750645D01*
X197718630Y-123355821D01*
X197802003Y-122936677D01*
X197802003Y-122509323D01*
X197718630Y-122090179D01*
X197555088Y-121695355D01*
X197317663Y-121340023D01*
X197015477Y-121037837D01*
X196660145Y-120800412D01*
X196265321Y-120636870D01*
X195846177Y-120553497D01*
X195418823Y-120553497D01*
X194999679Y-120636870D01*
X194604855Y-120800412D01*
X194249523Y-121037837D01*
X193947337Y-121340023D01*
X193709912Y-121695355D01*
X193546370Y-122090179D01*
X193462997Y-122509323D01*
X192792500Y-122509323D01*
X192792500Y-103190581D01*
X192789682Y-103161972D01*
X192789747Y-103152712D01*
X192788848Y-103143541D01*
X192758248Y-102852395D01*
X192746210Y-102793753D01*
X192735010Y-102735037D01*
X192732347Y-102726216D01*
X192645779Y-102446560D01*
X192622601Y-102391422D01*
X192600189Y-102335950D01*
X192595862Y-102327814D01*
X192456623Y-102070298D01*
X192423201Y-102020749D01*
X192390420Y-101970653D01*
X192384595Y-101963512D01*
X192197990Y-101737945D01*
X192155554Y-101695804D01*
X192113691Y-101653055D01*
X192106591Y-101647181D01*
X191879727Y-101462155D01*
X191829908Y-101429055D01*
X191780545Y-101395256D01*
X191772439Y-101390873D01*
X191513958Y-101253436D01*
X191458664Y-101230645D01*
X191403671Y-101207075D01*
X191394868Y-101204350D01*
X191114614Y-101119736D01*
X191055929Y-101108116D01*
X190997421Y-101095680D01*
X190988258Y-101094717D01*
X190988256Y-101094717D01*
X190696904Y-101066150D01*
X190696902Y-101066150D01*
X190664919Y-101063000D01*
X181100081Y-101063000D01*
X181071472Y-101065818D01*
X181062212Y-101065753D01*
X181053041Y-101066652D01*
X180761895Y-101097252D01*
X180703253Y-101109290D01*
X180644537Y-101120490D01*
X180635716Y-101123153D01*
X180356060Y-101209721D01*
X180300922Y-101232899D01*
X180245450Y-101255311D01*
X180237319Y-101259635D01*
X180237315Y-101259637D01*
X180237314Y-101259638D01*
X179979798Y-101398877D01*
X179930249Y-101432299D01*
X179880153Y-101465080D01*
X179873012Y-101470905D01*
X179647445Y-101657510D01*
X179605304Y-101699946D01*
X179562555Y-101741809D01*
X179556681Y-101748909D01*
X179371655Y-101975773D01*
X179338555Y-102025592D01*
X179304756Y-102074955D01*
X179300373Y-102083061D01*
X179162936Y-102341542D01*
X179140145Y-102396836D01*
X179116575Y-102451829D01*
X179113850Y-102460632D01*
X179029236Y-102740886D01*
X179017616Y-102799571D01*
X179005180Y-102858079D01*
X179004217Y-102867244D01*
X178975650Y-103158596D01*
X178972500Y-103190582D01*
X173101661Y-103190582D01*
X169634079Y-99723000D01*
X181444428Y-99723000D01*
X181456688Y-99847482D01*
X181492998Y-99967180D01*
X181551963Y-100077494D01*
X181631315Y-100174185D01*
X181728006Y-100253537D01*
X181838320Y-100312502D01*
X181958018Y-100348812D01*
X182082500Y-100361072D01*
X182996750Y-100358000D01*
X183155500Y-100199250D01*
X183155500Y-98650000D01*
X183409500Y-98650000D01*
X183409500Y-100199250D01*
X183568250Y-100358000D01*
X184482500Y-100361072D01*
X184606982Y-100348812D01*
X184726680Y-100312502D01*
X184836994Y-100253537D01*
X184933685Y-100174185D01*
X185013037Y-100077494D01*
X185072002Y-99967180D01*
X185108312Y-99847482D01*
X185120572Y-99723000D01*
X185117500Y-98808750D01*
X184958750Y-98650000D01*
X183409500Y-98650000D01*
X183155500Y-98650000D01*
X181606250Y-98650000D01*
X181447500Y-98808750D01*
X181444428Y-99723000D01*
X169634079Y-99723000D01*
X168539034Y-98627956D01*
X168511317Y-98594183D01*
X168376559Y-98483589D01*
X168222813Y-98401411D01*
X168055990Y-98350805D01*
X167925977Y-98338000D01*
X167925969Y-98338000D01*
X167882500Y-98333719D01*
X167839031Y-98338000D01*
X136249079Y-98338000D01*
X135234079Y-97323000D01*
X181444428Y-97323000D01*
X181447500Y-98237250D01*
X181606250Y-98396000D01*
X183155500Y-98396000D01*
X183155500Y-96846750D01*
X183409500Y-96846750D01*
X183409500Y-98396000D01*
X184958750Y-98396000D01*
X185012482Y-98342268D01*
X186447500Y-98342268D01*
X186447500Y-98703732D01*
X186518018Y-99058250D01*
X186656344Y-99392199D01*
X186857162Y-99692744D01*
X187112756Y-99948338D01*
X187413301Y-100149156D01*
X187747250Y-100287482D01*
X188101768Y-100358000D01*
X188463232Y-100358000D01*
X188817750Y-100287482D01*
X189151699Y-100149156D01*
X189452244Y-99948338D01*
X189707838Y-99692744D01*
X189908656Y-99392199D01*
X190046982Y-99058250D01*
X190117500Y-98703732D01*
X190117500Y-98342268D01*
X190046982Y-97987750D01*
X189908656Y-97653801D01*
X189707838Y-97353256D01*
X189452244Y-97097662D01*
X189151699Y-96896844D01*
X188817750Y-96758518D01*
X188463232Y-96688000D01*
X188101768Y-96688000D01*
X187747250Y-96758518D01*
X187413301Y-96896844D01*
X187112756Y-97097662D01*
X186857162Y-97353256D01*
X186656344Y-97653801D01*
X186518018Y-97987750D01*
X186447500Y-98342268D01*
X185012482Y-98342268D01*
X185117500Y-98237250D01*
X185120572Y-97323000D01*
X185108312Y-97198518D01*
X185072002Y-97078820D01*
X185013037Y-96968506D01*
X184933685Y-96871815D01*
X184836994Y-96792463D01*
X184726680Y-96733498D01*
X184606982Y-96697188D01*
X184482500Y-96684928D01*
X183568250Y-96688000D01*
X183409500Y-96846750D01*
X183155500Y-96846750D01*
X182996750Y-96688000D01*
X182082500Y-96684928D01*
X181958018Y-96697188D01*
X181838320Y-96733498D01*
X181728006Y-96792463D01*
X181631315Y-96871815D01*
X181551963Y-96968506D01*
X181492998Y-97078820D01*
X181456688Y-97198518D01*
X181444428Y-97323000D01*
X135234079Y-97323000D01*
X131267500Y-93356422D01*
X131267500Y-90142268D01*
X147847500Y-90142268D01*
X147847500Y-90503732D01*
X147918018Y-90858250D01*
X148056344Y-91192199D01*
X148257162Y-91492744D01*
X148512756Y-91748338D01*
X148813301Y-91949156D01*
X149147250Y-92087482D01*
X149501768Y-92158000D01*
X149863232Y-92158000D01*
X150217750Y-92087482D01*
X150551699Y-91949156D01*
X150852244Y-91748338D01*
X151107838Y-91492744D01*
X151308656Y-91192199D01*
X151446982Y-90858250D01*
X151471536Y-90734806D01*
X152594301Y-90734806D01*
X152709000Y-91075754D01*
X152888011Y-91387774D01*
X153124454Y-91658875D01*
X153409243Y-91878639D01*
X153731434Y-92038621D01*
X153970695Y-92111195D01*
X154255500Y-91994432D01*
X154255500Y-90450000D01*
X154509500Y-90450000D01*
X154509500Y-91994432D01*
X154794305Y-92111195D01*
X155033566Y-92038621D01*
X155355757Y-91878639D01*
X155640546Y-91658875D01*
X155876989Y-91387774D01*
X156056000Y-91075754D01*
X156170699Y-90734806D01*
X156054354Y-90450000D01*
X154509500Y-90450000D01*
X154255500Y-90450000D01*
X152710646Y-90450000D01*
X152594301Y-90734806D01*
X151471536Y-90734806D01*
X151517500Y-90503732D01*
X151517500Y-90142268D01*
X151471537Y-89911194D01*
X152594301Y-89911194D01*
X152710646Y-90196000D01*
X154255500Y-90196000D01*
X154255500Y-88651568D01*
X154509500Y-88651568D01*
X154509500Y-90196000D01*
X156054354Y-90196000D01*
X156170699Y-89911194D01*
X156056000Y-89570246D01*
X155876989Y-89258226D01*
X155640546Y-88987125D01*
X155355757Y-88767361D01*
X155033566Y-88607379D01*
X154794305Y-88534805D01*
X154509500Y-88651568D01*
X154255500Y-88651568D01*
X153970695Y-88534805D01*
X153731434Y-88607379D01*
X153409243Y-88767361D01*
X153124454Y-88987125D01*
X152888011Y-89258226D01*
X152709000Y-89570246D01*
X152594301Y-89911194D01*
X151471537Y-89911194D01*
X151446982Y-89787750D01*
X151308656Y-89453801D01*
X151107838Y-89153256D01*
X150852244Y-88897662D01*
X150567500Y-88707402D01*
X150567500Y-86528098D01*
X160437500Y-86528098D01*
X160437500Y-86997902D01*
X160529154Y-87458679D01*
X160708940Y-87892721D01*
X160969950Y-88283349D01*
X161302151Y-88615550D01*
X161692779Y-88876560D01*
X162126821Y-89056346D01*
X162587598Y-89148000D01*
X163057402Y-89148000D01*
X163518179Y-89056346D01*
X163952221Y-88876560D01*
X164342849Y-88615550D01*
X164675050Y-88283349D01*
X164936060Y-87892721D01*
X165115846Y-87458679D01*
X165207500Y-86997902D01*
X165207500Y-86528098D01*
X165115846Y-86067321D01*
X165078327Y-85976740D01*
X170057500Y-85976740D01*
X170057500Y-86269260D01*
X170114568Y-86556158D01*
X170226510Y-86826411D01*
X170389025Y-87069632D01*
X170595868Y-87276475D01*
X170839089Y-87438990D01*
X171109342Y-87550932D01*
X171396240Y-87608000D01*
X171688760Y-87608000D01*
X171975658Y-87550932D01*
X172245911Y-87438990D01*
X172489132Y-87276475D01*
X172620987Y-87144620D01*
X172642998Y-87217180D01*
X172701963Y-87327494D01*
X172781315Y-87424185D01*
X172878006Y-87503537D01*
X172988320Y-87562502D01*
X173108018Y-87598812D01*
X173232500Y-87611072D01*
X174932500Y-87611072D01*
X175056982Y-87598812D01*
X175176680Y-87562502D01*
X175286994Y-87503537D01*
X175383685Y-87424185D01*
X175463037Y-87327494D01*
X175522002Y-87217180D01*
X175558312Y-87097482D01*
X175570572Y-86973000D01*
X175570572Y-85273000D01*
X175558312Y-85148518D01*
X175522002Y-85028820D01*
X175463037Y-84918506D01*
X175383685Y-84821815D01*
X175286994Y-84742463D01*
X175176680Y-84683498D01*
X175056982Y-84647188D01*
X174932500Y-84634928D01*
X173232500Y-84634928D01*
X173108018Y-84647188D01*
X172988320Y-84683498D01*
X172878006Y-84742463D01*
X172781315Y-84821815D01*
X172701963Y-84918506D01*
X172642998Y-85028820D01*
X172620987Y-85101380D01*
X172489132Y-84969525D01*
X172245911Y-84807010D01*
X171975658Y-84695068D01*
X171688760Y-84638000D01*
X171396240Y-84638000D01*
X171109342Y-84695068D01*
X170839089Y-84807010D01*
X170595868Y-84969525D01*
X170389025Y-85176368D01*
X170226510Y-85419589D01*
X170114568Y-85689842D01*
X170057500Y-85976740D01*
X165078327Y-85976740D01*
X164936060Y-85633279D01*
X164675050Y-85242651D01*
X164342849Y-84910450D01*
X163952221Y-84649440D01*
X163518179Y-84469654D01*
X163057402Y-84378000D01*
X162587598Y-84378000D01*
X162126821Y-84469654D01*
X161692779Y-84649440D01*
X161302151Y-84910450D01*
X160969950Y-85242651D01*
X160708940Y-85633279D01*
X160529154Y-86067321D01*
X160437500Y-86528098D01*
X150567500Y-86528098D01*
X150567500Y-80509323D01*
X193462997Y-80509323D01*
X193462997Y-80936677D01*
X193546370Y-81355821D01*
X193709912Y-81750645D01*
X193947337Y-82105977D01*
X194249523Y-82408163D01*
X194604855Y-82645588D01*
X194999679Y-82809130D01*
X195418823Y-82892503D01*
X195846177Y-82892503D01*
X196265321Y-82809130D01*
X196660145Y-82645588D01*
X197015477Y-82408163D01*
X197317663Y-82105977D01*
X197555088Y-81750645D01*
X197718630Y-81355821D01*
X197802003Y-80936677D01*
X197802003Y-80509323D01*
X197718630Y-80090179D01*
X197555088Y-79695355D01*
X197317663Y-79340023D01*
X197015477Y-79037837D01*
X196660145Y-78800412D01*
X196265321Y-78636870D01*
X195846177Y-78553497D01*
X195418823Y-78553497D01*
X194999679Y-78636870D01*
X194604855Y-78800412D01*
X194249523Y-79037837D01*
X193947337Y-79340023D01*
X193709912Y-79695355D01*
X193546370Y-80090179D01*
X193462997Y-80509323D01*
X150567500Y-80509323D01*
X150567500Y-78080391D01*
X158676500Y-78080391D01*
X158676500Y-78405609D01*
X158739947Y-78724579D01*
X158864403Y-79025042D01*
X159045085Y-79295451D01*
X159275049Y-79525415D01*
X159545458Y-79706097D01*
X159845921Y-79830553D01*
X160164891Y-79894000D01*
X160490109Y-79894000D01*
X160809079Y-79830553D01*
X161109542Y-79706097D01*
X161379951Y-79525415D01*
X161609915Y-79295451D01*
X161790597Y-79025042D01*
X161915000Y-78724707D01*
X162039403Y-79025042D01*
X162220085Y-79295451D01*
X162450049Y-79525415D01*
X162720458Y-79706097D01*
X163020921Y-79830553D01*
X163339891Y-79894000D01*
X163665109Y-79894000D01*
X163984079Y-79830553D01*
X164284542Y-79706097D01*
X164554951Y-79525415D01*
X164784915Y-79295451D01*
X164965597Y-79025042D01*
X165090053Y-78724579D01*
X165153500Y-78405609D01*
X165153500Y-78080391D01*
X169471500Y-78080391D01*
X169471500Y-78405609D01*
X169534947Y-78724579D01*
X169659403Y-79025042D01*
X169840085Y-79295451D01*
X170070049Y-79525415D01*
X170340458Y-79706097D01*
X170640921Y-79830553D01*
X170959891Y-79894000D01*
X171285109Y-79894000D01*
X171604079Y-79830553D01*
X171904542Y-79706097D01*
X172174951Y-79525415D01*
X172310543Y-79389823D01*
X173330282Y-79389823D01*
X173427978Y-79655860D01*
X173720321Y-79798348D01*
X174034844Y-79881064D01*
X174359462Y-79900831D01*
X174681698Y-79856888D01*
X174989170Y-79750924D01*
X175167022Y-79655860D01*
X175264718Y-79389823D01*
X174297500Y-78422605D01*
X173330282Y-79389823D01*
X172310543Y-79389823D01*
X172404915Y-79295451D01*
X172585597Y-79025042D01*
X172710053Y-78724579D01*
X172712658Y-78711481D01*
X172789576Y-78934670D01*
X172884640Y-79112522D01*
X173150677Y-79210218D01*
X174117895Y-78243000D01*
X174477105Y-78243000D01*
X175444323Y-79210218D01*
X175710360Y-79112522D01*
X175852848Y-78820179D01*
X175935564Y-78505656D01*
X175955331Y-78181038D01*
X175911388Y-77858802D01*
X175805424Y-77551330D01*
X175710360Y-77373478D01*
X175444323Y-77275782D01*
X174477105Y-78243000D01*
X174117895Y-78243000D01*
X173150677Y-77275782D01*
X172884640Y-77373478D01*
X172742152Y-77665821D01*
X172713049Y-77776483D01*
X172710053Y-77761421D01*
X172585597Y-77460958D01*
X172404915Y-77190549D01*
X172310543Y-77096177D01*
X173330282Y-77096177D01*
X174297500Y-78063395D01*
X175264718Y-77096177D01*
X175167022Y-76830140D01*
X174874679Y-76687652D01*
X174560156Y-76604936D01*
X174235538Y-76585169D01*
X173913302Y-76629112D01*
X173605830Y-76735076D01*
X173427978Y-76830140D01*
X173330282Y-77096177D01*
X172310543Y-77096177D01*
X172174951Y-76960585D01*
X171904542Y-76779903D01*
X171604079Y-76655447D01*
X171285109Y-76592000D01*
X170959891Y-76592000D01*
X170640921Y-76655447D01*
X170340458Y-76779903D01*
X170070049Y-76960585D01*
X169840085Y-77190549D01*
X169659403Y-77460958D01*
X169534947Y-77761421D01*
X169471500Y-78080391D01*
X165153500Y-78080391D01*
X165090053Y-77761421D01*
X164965597Y-77460958D01*
X164784915Y-77190549D01*
X164554951Y-76960585D01*
X164284542Y-76779903D01*
X163984079Y-76655447D01*
X163665109Y-76592000D01*
X163339891Y-76592000D01*
X163020921Y-76655447D01*
X162720458Y-76779903D01*
X162450049Y-76960585D01*
X162220085Y-77190549D01*
X162039403Y-77460958D01*
X161915000Y-77761293D01*
X161790597Y-77460958D01*
X161609915Y-77190549D01*
X161379951Y-76960585D01*
X161109542Y-76779903D01*
X160809079Y-76655447D01*
X160490109Y-76592000D01*
X160164891Y-76592000D01*
X159845921Y-76655447D01*
X159545458Y-76779903D01*
X159275049Y-76960585D01*
X159045085Y-77190549D01*
X158864403Y-77460958D01*
X158739947Y-77761421D01*
X158676500Y-78080391D01*
X150567500Y-78080391D01*
X150567500Y-67406516D01*
X150577086Y-67420862D01*
X150807050Y-67650826D01*
X151077459Y-67831508D01*
X151377922Y-67955964D01*
X151696892Y-68019411D01*
X152022110Y-68019411D01*
X152341080Y-67955964D01*
X152641543Y-67831508D01*
X152911952Y-67650826D01*
X153141916Y-67420862D01*
X153322598Y-67150453D01*
X153447054Y-66849990D01*
X153510501Y-66531020D01*
X153510501Y-66223360D01*
X153818161Y-66223360D01*
X154137131Y-66159913D01*
X154437594Y-66035457D01*
X154708003Y-65854775D01*
X154937967Y-65624811D01*
X155118649Y-65354402D01*
X155243105Y-65053939D01*
X155306552Y-64734969D01*
X155306552Y-64427308D01*
X155614213Y-64427308D01*
X155933183Y-64363861D01*
X156233646Y-64239405D01*
X156504055Y-64058723D01*
X156734019Y-63828759D01*
X156914701Y-63558350D01*
X157039157Y-63257887D01*
X157102604Y-62938917D01*
X157102604Y-62613699D01*
X157039157Y-62294729D01*
X156914701Y-61994266D01*
X156734019Y-61723857D01*
X156504055Y-61493893D01*
X156233646Y-61313211D01*
X155933183Y-61188755D01*
X155614213Y-61125308D01*
X155288995Y-61125308D01*
X155091472Y-61164598D01*
X154154830Y-60227956D01*
X154127113Y-60194183D01*
X153992355Y-60083589D01*
X153838609Y-60001411D01*
X153671786Y-59950805D01*
X153541773Y-59938000D01*
X153541765Y-59938000D01*
X153498296Y-59933719D01*
X153454827Y-59938000D01*
X151125969Y-59938000D01*
X151082500Y-59933719D01*
X151039031Y-59938000D01*
X151039023Y-59938000D01*
X150923806Y-59949348D01*
X150909009Y-59950805D01*
X150878128Y-59960173D01*
X150742187Y-60001411D01*
X150588441Y-60083589D01*
X150558952Y-60107790D01*
X150487453Y-60166468D01*
X150487451Y-60166470D01*
X150453683Y-60194183D01*
X150425970Y-60227951D01*
X149087451Y-61566471D01*
X149053684Y-61594183D01*
X149025971Y-61627951D01*
X149025968Y-61627954D01*
X148943090Y-61728941D01*
X148860912Y-61882687D01*
X148810305Y-62049510D01*
X148793219Y-62223000D01*
X148797501Y-62266479D01*
X148797500Y-88707402D01*
X148512756Y-88897662D01*
X148257162Y-89153256D01*
X148056344Y-89453801D01*
X147918018Y-89787750D01*
X147847500Y-90142268D01*
X131267500Y-90142268D01*
X131267500Y-86040391D01*
X132541500Y-86040391D01*
X132541500Y-86365609D01*
X132604947Y-86684579D01*
X132729403Y-86985042D01*
X132910085Y-87255451D01*
X133140049Y-87485415D01*
X133410458Y-87666097D01*
X133710921Y-87790553D01*
X134029891Y-87854000D01*
X134355109Y-87854000D01*
X134674079Y-87790553D01*
X134974542Y-87666097D01*
X135244951Y-87485415D01*
X135462500Y-87267866D01*
X135680049Y-87485415D01*
X135950458Y-87666097D01*
X136250921Y-87790553D01*
X136569891Y-87854000D01*
X136895109Y-87854000D01*
X137214079Y-87790553D01*
X137514542Y-87666097D01*
X137784951Y-87485415D01*
X138002500Y-87267866D01*
X138220049Y-87485415D01*
X138490458Y-87666097D01*
X138790921Y-87790553D01*
X139109891Y-87854000D01*
X139435109Y-87854000D01*
X139754079Y-87790553D01*
X140054542Y-87666097D01*
X140324951Y-87485415D01*
X140542500Y-87267866D01*
X140760049Y-87485415D01*
X141030458Y-87666097D01*
X141330921Y-87790553D01*
X141649891Y-87854000D01*
X141975109Y-87854000D01*
X142294079Y-87790553D01*
X142594542Y-87666097D01*
X142864951Y-87485415D01*
X143094915Y-87255451D01*
X143275597Y-86985042D01*
X143400053Y-86684579D01*
X143463500Y-86365609D01*
X143463500Y-86040391D01*
X143400053Y-85721421D01*
X143275597Y-85420958D01*
X143094915Y-85150549D01*
X142877366Y-84933000D01*
X143094915Y-84715451D01*
X143275597Y-84445042D01*
X143400053Y-84144579D01*
X143463500Y-83825609D01*
X143463500Y-83500391D01*
X143400053Y-83181421D01*
X143275597Y-82880958D01*
X143094915Y-82610549D01*
X142877366Y-82393000D01*
X143094915Y-82175451D01*
X143275597Y-81905042D01*
X143400053Y-81604579D01*
X143463500Y-81285609D01*
X143463500Y-80960391D01*
X143400053Y-80641421D01*
X143275597Y-80340958D01*
X143094915Y-80070549D01*
X142877366Y-79853000D01*
X143094915Y-79635451D01*
X143275597Y-79365042D01*
X143400053Y-79064579D01*
X143463500Y-78745609D01*
X143463500Y-78420391D01*
X143400053Y-78101421D01*
X143275597Y-77800958D01*
X143094915Y-77530549D01*
X142877366Y-77313000D01*
X143094915Y-77095451D01*
X143275597Y-76825042D01*
X143400053Y-76524579D01*
X143463500Y-76205609D01*
X143463500Y-75880391D01*
X143400053Y-75561421D01*
X143275597Y-75260958D01*
X143094915Y-74990549D01*
X142877366Y-74773000D01*
X143094915Y-74555451D01*
X143275597Y-74285042D01*
X143400053Y-73984579D01*
X143463500Y-73665609D01*
X143463500Y-73340391D01*
X143400053Y-73021421D01*
X143275597Y-72720958D01*
X143094915Y-72450549D01*
X142877366Y-72233000D01*
X143094915Y-72015451D01*
X143275597Y-71745042D01*
X143400053Y-71444579D01*
X143463500Y-71125609D01*
X143463500Y-70800391D01*
X143400053Y-70481421D01*
X143275597Y-70180958D01*
X143094915Y-69910549D01*
X142877366Y-69693000D01*
X143094915Y-69475451D01*
X143275597Y-69205042D01*
X143400053Y-68904579D01*
X143463500Y-68585609D01*
X143463500Y-68260391D01*
X143400053Y-67941421D01*
X143275597Y-67640958D01*
X143094915Y-67370549D01*
X142877366Y-67153000D01*
X143094915Y-66935451D01*
X143275597Y-66665042D01*
X143400053Y-66364579D01*
X143463500Y-66045609D01*
X143463500Y-65720391D01*
X143400053Y-65401421D01*
X143275597Y-65100958D01*
X143094915Y-64830549D01*
X142877366Y-64613000D01*
X143094915Y-64395451D01*
X143275597Y-64125042D01*
X143400053Y-63824579D01*
X143463500Y-63505609D01*
X143463500Y-63180391D01*
X143400053Y-62861421D01*
X143275597Y-62560958D01*
X143094915Y-62290549D01*
X142877366Y-62073000D01*
X143094915Y-61855451D01*
X143275597Y-61585042D01*
X143400053Y-61284579D01*
X143463500Y-60965609D01*
X143463500Y-60640391D01*
X143400053Y-60321421D01*
X143275597Y-60020958D01*
X143176735Y-59873000D01*
X143894428Y-59873000D01*
X143894428Y-61573000D01*
X143906688Y-61697482D01*
X143942998Y-61817180D01*
X144001963Y-61927494D01*
X144081315Y-62024185D01*
X144178006Y-62103537D01*
X144288320Y-62162502D01*
X144360880Y-62184513D01*
X144229025Y-62316368D01*
X144066510Y-62559589D01*
X143954568Y-62829842D01*
X143897500Y-63116740D01*
X143897500Y-63409260D01*
X143954568Y-63696158D01*
X144066510Y-63966411D01*
X144229025Y-64209632D01*
X144435868Y-64416475D01*
X144610260Y-64533000D01*
X144435868Y-64649525D01*
X144229025Y-64856368D01*
X144066510Y-65099589D01*
X143954568Y-65369842D01*
X143897500Y-65656740D01*
X143897500Y-65949260D01*
X143954568Y-66236158D01*
X144066510Y-66506411D01*
X144229025Y-66749632D01*
X144435868Y-66956475D01*
X144610260Y-67073000D01*
X144435868Y-67189525D01*
X144229025Y-67396368D01*
X144066510Y-67639589D01*
X143954568Y-67909842D01*
X143897500Y-68196740D01*
X143897500Y-68489260D01*
X143954568Y-68776158D01*
X144066510Y-69046411D01*
X144229025Y-69289632D01*
X144435868Y-69496475D01*
X144610260Y-69613000D01*
X144435868Y-69729525D01*
X144229025Y-69936368D01*
X144066510Y-70179589D01*
X143954568Y-70449842D01*
X143897500Y-70736740D01*
X143897500Y-71029260D01*
X143954568Y-71316158D01*
X144066510Y-71586411D01*
X144229025Y-71829632D01*
X144435868Y-72036475D01*
X144610260Y-72153000D01*
X144435868Y-72269525D01*
X144229025Y-72476368D01*
X144066510Y-72719589D01*
X143954568Y-72989842D01*
X143897500Y-73276740D01*
X143897500Y-73569260D01*
X143954568Y-73856158D01*
X144066510Y-74126411D01*
X144229025Y-74369632D01*
X144435868Y-74576475D01*
X144610260Y-74693000D01*
X144435868Y-74809525D01*
X144229025Y-75016368D01*
X144066510Y-75259589D01*
X143954568Y-75529842D01*
X143897500Y-75816740D01*
X143897500Y-76109260D01*
X143954568Y-76396158D01*
X144066510Y-76666411D01*
X144229025Y-76909632D01*
X144435868Y-77116475D01*
X144610260Y-77233000D01*
X144435868Y-77349525D01*
X144229025Y-77556368D01*
X144066510Y-77799589D01*
X143954568Y-78069842D01*
X143897500Y-78356740D01*
X143897500Y-78649260D01*
X143954568Y-78936158D01*
X144066510Y-79206411D01*
X144229025Y-79449632D01*
X144435868Y-79656475D01*
X144610260Y-79773000D01*
X144435868Y-79889525D01*
X144229025Y-80096368D01*
X144066510Y-80339589D01*
X143954568Y-80609842D01*
X143897500Y-80896740D01*
X143897500Y-81189260D01*
X143954568Y-81476158D01*
X144066510Y-81746411D01*
X144229025Y-81989632D01*
X144435868Y-82196475D01*
X144610260Y-82313000D01*
X144435868Y-82429525D01*
X144229025Y-82636368D01*
X144066510Y-82879589D01*
X143954568Y-83149842D01*
X143897500Y-83436740D01*
X143897500Y-83729260D01*
X143954568Y-84016158D01*
X144066510Y-84286411D01*
X144229025Y-84529632D01*
X144435868Y-84736475D01*
X144610260Y-84853000D01*
X144435868Y-84969525D01*
X144229025Y-85176368D01*
X144066510Y-85419589D01*
X143954568Y-85689842D01*
X143897500Y-85976740D01*
X143897500Y-86269260D01*
X143954568Y-86556158D01*
X144066510Y-86826411D01*
X144229025Y-87069632D01*
X144435868Y-87276475D01*
X144679089Y-87438990D01*
X144949342Y-87550932D01*
X145236240Y-87608000D01*
X145528760Y-87608000D01*
X145815658Y-87550932D01*
X146085911Y-87438990D01*
X146329132Y-87276475D01*
X146535975Y-87069632D01*
X146698490Y-86826411D01*
X146810432Y-86556158D01*
X146867500Y-86269260D01*
X146867500Y-85976740D01*
X146810432Y-85689842D01*
X146698490Y-85419589D01*
X146535975Y-85176368D01*
X146329132Y-84969525D01*
X146154740Y-84853000D01*
X146329132Y-84736475D01*
X146535975Y-84529632D01*
X146698490Y-84286411D01*
X146810432Y-84016158D01*
X146867500Y-83729260D01*
X146867500Y-83436740D01*
X146810432Y-83149842D01*
X146698490Y-82879589D01*
X146535975Y-82636368D01*
X146329132Y-82429525D01*
X146154740Y-82313000D01*
X146329132Y-82196475D01*
X146535975Y-81989632D01*
X146698490Y-81746411D01*
X146810432Y-81476158D01*
X146867500Y-81189260D01*
X146867500Y-80896740D01*
X146810432Y-80609842D01*
X146698490Y-80339589D01*
X146535975Y-80096368D01*
X146329132Y-79889525D01*
X146154740Y-79773000D01*
X146329132Y-79656475D01*
X146535975Y-79449632D01*
X146698490Y-79206411D01*
X146810432Y-78936158D01*
X146867500Y-78649260D01*
X146867500Y-78356740D01*
X146810432Y-78069842D01*
X146698490Y-77799589D01*
X146535975Y-77556368D01*
X146329132Y-77349525D01*
X146154740Y-77233000D01*
X146329132Y-77116475D01*
X146535975Y-76909632D01*
X146698490Y-76666411D01*
X146810432Y-76396158D01*
X146867500Y-76109260D01*
X146867500Y-75816740D01*
X146810432Y-75529842D01*
X146698490Y-75259589D01*
X146535975Y-75016368D01*
X146329132Y-74809525D01*
X146154740Y-74693000D01*
X146329132Y-74576475D01*
X146535975Y-74369632D01*
X146698490Y-74126411D01*
X146810432Y-73856158D01*
X146867500Y-73569260D01*
X146867500Y-73276740D01*
X146810432Y-72989842D01*
X146698490Y-72719589D01*
X146535975Y-72476368D01*
X146329132Y-72269525D01*
X146154740Y-72153000D01*
X146329132Y-72036475D01*
X146535975Y-71829632D01*
X146698490Y-71586411D01*
X146810432Y-71316158D01*
X146867500Y-71029260D01*
X146867500Y-70736740D01*
X146810432Y-70449842D01*
X146698490Y-70179589D01*
X146535975Y-69936368D01*
X146329132Y-69729525D01*
X146154740Y-69613000D01*
X146329132Y-69496475D01*
X146535975Y-69289632D01*
X146698490Y-69046411D01*
X146810432Y-68776158D01*
X146867500Y-68489260D01*
X146867500Y-68196740D01*
X146810432Y-67909842D01*
X146698490Y-67639589D01*
X146535975Y-67396368D01*
X146329132Y-67189525D01*
X146154740Y-67073000D01*
X146329132Y-66956475D01*
X146535975Y-66749632D01*
X146698490Y-66506411D01*
X146810432Y-66236158D01*
X146867500Y-65949260D01*
X146867500Y-65656740D01*
X146810432Y-65369842D01*
X146698490Y-65099589D01*
X146535975Y-64856368D01*
X146329132Y-64649525D01*
X146154740Y-64533000D01*
X146329132Y-64416475D01*
X146535975Y-64209632D01*
X146698490Y-63966411D01*
X146810432Y-63696158D01*
X146867500Y-63409260D01*
X146867500Y-63116740D01*
X146810432Y-62829842D01*
X146698490Y-62559589D01*
X146535975Y-62316368D01*
X146404120Y-62184513D01*
X146476680Y-62162502D01*
X146586994Y-62103537D01*
X146683685Y-62024185D01*
X146763037Y-61927494D01*
X146822002Y-61817180D01*
X146858312Y-61697482D01*
X146870572Y-61573000D01*
X146870572Y-59873000D01*
X146858312Y-59748518D01*
X146822002Y-59628820D01*
X146763037Y-59518506D01*
X146683685Y-59421815D01*
X146586994Y-59342463D01*
X146476680Y-59283498D01*
X146356982Y-59247188D01*
X146232500Y-59234928D01*
X144532500Y-59234928D01*
X144408018Y-59247188D01*
X144288320Y-59283498D01*
X144178006Y-59342463D01*
X144081315Y-59421815D01*
X144001963Y-59518506D01*
X143942998Y-59628820D01*
X143906688Y-59748518D01*
X143894428Y-59873000D01*
X143176735Y-59873000D01*
X143094915Y-59750549D01*
X142864951Y-59520585D01*
X142763851Y-59453032D01*
X142779718Y-59409823D01*
X141812500Y-58442605D01*
X140845282Y-59409823D01*
X140861149Y-59453032D01*
X140760049Y-59520585D01*
X140530085Y-59750549D01*
X140349403Y-60020958D01*
X140224947Y-60321421D01*
X140161500Y-60640391D01*
X140161500Y-60965609D01*
X140224947Y-61284579D01*
X140349403Y-61585042D01*
X140530085Y-61855451D01*
X140747634Y-62073000D01*
X140530085Y-62290549D01*
X140349403Y-62560958D01*
X140224947Y-62861421D01*
X140161500Y-63180391D01*
X140161500Y-63505609D01*
X140224947Y-63824579D01*
X140349403Y-64125042D01*
X140530085Y-64395451D01*
X140747634Y-64613000D01*
X140530085Y-64830549D01*
X140349403Y-65100958D01*
X140224947Y-65401421D01*
X140161500Y-65720391D01*
X140161500Y-65761370D01*
X140054542Y-65689903D01*
X139754079Y-65565447D01*
X139435109Y-65502000D01*
X139109891Y-65502000D01*
X138790921Y-65565447D01*
X138490458Y-65689903D01*
X138220049Y-65870585D01*
X137990085Y-66100549D01*
X137809403Y-66370958D01*
X137684947Y-66671421D01*
X137621500Y-66990391D01*
X137621500Y-67315609D01*
X137684947Y-67634579D01*
X137809403Y-67935042D01*
X137990085Y-68205451D01*
X138207634Y-68423000D01*
X137990085Y-68640549D01*
X137809403Y-68910958D01*
X137684947Y-69211421D01*
X137621500Y-69530391D01*
X137621500Y-69855609D01*
X137684947Y-70174579D01*
X137809403Y-70475042D01*
X137990085Y-70745451D01*
X138220049Y-70975415D01*
X138490458Y-71156097D01*
X138790921Y-71280553D01*
X139109891Y-71344000D01*
X139435109Y-71344000D01*
X139754079Y-71280553D01*
X140054542Y-71156097D01*
X140161500Y-71084630D01*
X140161500Y-71125609D01*
X140224947Y-71444579D01*
X140349403Y-71745042D01*
X140530085Y-72015451D01*
X140747634Y-72233000D01*
X140530085Y-72450549D01*
X140349403Y-72720958D01*
X140224947Y-73021421D01*
X140161500Y-73340391D01*
X140161500Y-73665609D01*
X140224947Y-73984579D01*
X140349403Y-74285042D01*
X140530085Y-74555451D01*
X140747634Y-74773000D01*
X140530085Y-74990549D01*
X140349403Y-75260958D01*
X140224947Y-75561421D01*
X140161500Y-75880391D01*
X140161500Y-76205609D01*
X140224947Y-76524579D01*
X140349403Y-76825042D01*
X140530085Y-77095451D01*
X140747634Y-77313000D01*
X140530085Y-77530549D01*
X140349403Y-77800958D01*
X140224947Y-78101421D01*
X140161500Y-78420391D01*
X140161500Y-78745609D01*
X140224947Y-79064579D01*
X140349403Y-79365042D01*
X140530085Y-79635451D01*
X140747634Y-79853000D01*
X140530085Y-80070549D01*
X140349403Y-80340958D01*
X140224947Y-80641421D01*
X140161500Y-80960391D01*
X140161500Y-81285609D01*
X140224947Y-81604579D01*
X140349403Y-81905042D01*
X140530085Y-82175451D01*
X140747634Y-82393000D01*
X140530085Y-82610549D01*
X140349403Y-82880958D01*
X140224947Y-83181421D01*
X140161500Y-83500391D01*
X140161500Y-83825609D01*
X140224947Y-84144579D01*
X140349403Y-84445042D01*
X140530085Y-84715451D01*
X140747634Y-84933000D01*
X140542500Y-85138134D01*
X140324951Y-84920585D01*
X140054542Y-84739903D01*
X139754079Y-84615447D01*
X139435109Y-84552000D01*
X139109891Y-84552000D01*
X138790921Y-84615447D01*
X138490458Y-84739903D01*
X138220049Y-84920585D01*
X138002500Y-85138134D01*
X137784951Y-84920585D01*
X137514542Y-84739903D01*
X137214079Y-84615447D01*
X136895109Y-84552000D01*
X136569891Y-84552000D01*
X136250921Y-84615447D01*
X135950458Y-84739903D01*
X135680049Y-84920585D01*
X135462500Y-85138134D01*
X135244951Y-84920585D01*
X134974542Y-84739903D01*
X134674079Y-84615447D01*
X134355109Y-84552000D01*
X134029891Y-84552000D01*
X133710921Y-84615447D01*
X133410458Y-84739903D01*
X133140049Y-84920585D01*
X132910085Y-85150549D01*
X132729403Y-85420958D01*
X132604947Y-85721421D01*
X132541500Y-86040391D01*
X131267500Y-86040391D01*
X131267500Y-76266469D01*
X131271781Y-76223000D01*
X131267500Y-76179531D01*
X131267500Y-76179523D01*
X131254695Y-76049510D01*
X131204089Y-75882687D01*
X131121911Y-75728941D01*
X131011317Y-75594183D01*
X130977550Y-75566471D01*
X128319034Y-72907956D01*
X128291317Y-72874183D01*
X128156559Y-72763589D01*
X128012706Y-72686699D01*
X127854915Y-72450549D01*
X127637366Y-72233000D01*
X127854915Y-72015451D01*
X128035597Y-71745042D01*
X128160053Y-71444579D01*
X128223500Y-71125609D01*
X128223500Y-70800391D01*
X128160053Y-70481421D01*
X128035597Y-70180958D01*
X127854915Y-69910549D01*
X127637366Y-69693000D01*
X127854915Y-69475451D01*
X128035597Y-69205042D01*
X128160053Y-68904579D01*
X128223500Y-68585609D01*
X128223500Y-68260391D01*
X128160053Y-67941421D01*
X128035597Y-67640958D01*
X127854915Y-67370549D01*
X127637366Y-67153000D01*
X127854915Y-66935451D01*
X128035597Y-66665042D01*
X128160053Y-66364579D01*
X128223500Y-66045609D01*
X128223500Y-65720391D01*
X128160053Y-65401421D01*
X128035597Y-65100958D01*
X127854915Y-64830549D01*
X127637366Y-64613000D01*
X127854915Y-64395451D01*
X128035597Y-64125042D01*
X128160053Y-63824579D01*
X128223500Y-63505609D01*
X128223500Y-63180391D01*
X128160053Y-62861421D01*
X128035597Y-62560958D01*
X127854915Y-62290549D01*
X127637366Y-62073000D01*
X127854915Y-61855451D01*
X128035597Y-61585042D01*
X128160053Y-61284579D01*
X128223500Y-60965609D01*
X128223500Y-60640391D01*
X128160053Y-60321421D01*
X128035597Y-60020958D01*
X127854915Y-59750549D01*
X127637366Y-59533000D01*
X127854915Y-59315451D01*
X128035597Y-59045042D01*
X128160053Y-58744579D01*
X128223500Y-58425609D01*
X128223500Y-58100391D01*
X128160053Y-57781421D01*
X128035597Y-57480958D01*
X127964130Y-57374000D01*
X128005109Y-57374000D01*
X128324079Y-57310553D01*
X128624542Y-57186097D01*
X128894951Y-57005415D01*
X129112500Y-56787866D01*
X129330049Y-57005415D01*
X129600458Y-57186097D01*
X129900921Y-57310553D01*
X130219891Y-57374000D01*
X130545109Y-57374000D01*
X130864079Y-57310553D01*
X131164542Y-57186097D01*
X131434951Y-57005415D01*
X131652500Y-56787866D01*
X131870049Y-57005415D01*
X132140458Y-57186097D01*
X132440921Y-57310553D01*
X132759891Y-57374000D01*
X133085109Y-57374000D01*
X133404079Y-57310553D01*
X133704542Y-57186097D01*
X133974951Y-57005415D01*
X134192500Y-56787866D01*
X134410049Y-57005415D01*
X134680458Y-57186097D01*
X134980921Y-57310553D01*
X135299891Y-57374000D01*
X135625109Y-57374000D01*
X135944079Y-57310553D01*
X136244542Y-57186097D01*
X136514951Y-57005415D01*
X136732500Y-56787866D01*
X136950049Y-57005415D01*
X137220458Y-57186097D01*
X137520921Y-57310553D01*
X137839891Y-57374000D01*
X138165109Y-57374000D01*
X138484079Y-57310553D01*
X138784542Y-57186097D01*
X139054951Y-57005415D01*
X139272500Y-56787866D01*
X139490049Y-57005415D01*
X139760458Y-57186097D01*
X140060921Y-57310553D01*
X140379891Y-57374000D01*
X140452681Y-57374000D01*
X140399640Y-57393478D01*
X140257152Y-57685821D01*
X140174436Y-58000344D01*
X140154669Y-58324962D01*
X140198612Y-58647198D01*
X140304576Y-58954670D01*
X140399640Y-59132522D01*
X140665677Y-59230218D01*
X141632895Y-58263000D01*
X141992105Y-58263000D01*
X142959323Y-59230218D01*
X143225360Y-59132522D01*
X143367848Y-58840179D01*
X143450564Y-58525656D01*
X143470331Y-58201038D01*
X143426388Y-57878802D01*
X143320424Y-57571330D01*
X143225360Y-57393478D01*
X142959323Y-57295782D01*
X141992105Y-58263000D01*
X141632895Y-58263000D01*
X141618753Y-58248858D01*
X141798358Y-58069253D01*
X141812500Y-58083395D01*
X142779718Y-57116177D01*
X142682022Y-56850140D01*
X142389679Y-56707652D01*
X142075156Y-56624936D01*
X141931338Y-56616178D01*
X142005597Y-56505042D01*
X142130053Y-56204579D01*
X142193500Y-55885609D01*
X142193500Y-55560391D01*
X142130053Y-55241421D01*
X142005597Y-54940958D01*
X141824915Y-54670549D01*
X141762366Y-54608000D01*
X153415922Y-54608000D01*
X175725970Y-76918049D01*
X175753683Y-76951817D01*
X175787451Y-76979530D01*
X175787453Y-76979532D01*
X175888441Y-77062411D01*
X176042186Y-77144589D01*
X176182028Y-77187010D01*
X176209010Y-77195195D01*
X176339023Y-77208000D01*
X176339031Y-77208000D01*
X176382500Y-77212281D01*
X176425969Y-77208000D01*
X191539031Y-77208000D01*
X191582500Y-77212281D01*
X191625969Y-77208000D01*
X191625977Y-77208000D01*
X191755990Y-77195195D01*
X191922813Y-77144589D01*
X192076559Y-77062411D01*
X192211317Y-76951817D01*
X192239034Y-76918044D01*
X193358501Y-75798578D01*
X193428006Y-75855619D01*
X193538320Y-75914584D01*
X193658018Y-75950894D01*
X193782500Y-75963154D01*
X193906982Y-75950894D01*
X194026680Y-75914584D01*
X194136994Y-75855619D01*
X194233685Y-75776267D01*
X195435767Y-74574185D01*
X195515119Y-74477494D01*
X195574084Y-74367180D01*
X195610394Y-74247482D01*
X195622654Y-74123000D01*
X195610394Y-73998518D01*
X195574084Y-73878820D01*
X195538340Y-73811949D01*
X195724811Y-73811949D01*
X196011709Y-73754881D01*
X196281962Y-73642939D01*
X196525183Y-73480424D01*
X196732026Y-73273581D01*
X196894541Y-73030360D01*
X197006483Y-72760107D01*
X197063551Y-72473209D01*
X197063551Y-72180689D01*
X197006483Y-71893791D01*
X196894541Y-71623538D01*
X196732026Y-71380317D01*
X196525183Y-71173474D01*
X196281962Y-71010959D01*
X196011709Y-70899017D01*
X195724811Y-70841949D01*
X195432291Y-70841949D01*
X195145393Y-70899017D01*
X194875140Y-71010959D01*
X194631919Y-71173474D01*
X194425076Y-71380317D01*
X194262561Y-71623538D01*
X194150619Y-71893791D01*
X194093551Y-72180689D01*
X194093551Y-72367160D01*
X194026680Y-72331416D01*
X193906982Y-72295106D01*
X193782500Y-72282846D01*
X193658018Y-72295106D01*
X193538320Y-72331416D01*
X193428006Y-72390381D01*
X193331315Y-72469733D01*
X192129233Y-73671815D01*
X192049881Y-73768506D01*
X191990916Y-73878820D01*
X191954606Y-73998518D01*
X191942346Y-74123000D01*
X191954606Y-74247482D01*
X191990916Y-74367180D01*
X192049881Y-74477494D01*
X192106922Y-74546999D01*
X191215922Y-75438000D01*
X176749079Y-75438000D01*
X156531470Y-55220391D01*
X158676500Y-55220391D01*
X158676500Y-55545609D01*
X158739947Y-55864579D01*
X158864403Y-56165042D01*
X159045085Y-56435451D01*
X159275049Y-56665415D01*
X159545458Y-56846097D01*
X159845921Y-56970553D01*
X160164891Y-57034000D01*
X160490109Y-57034000D01*
X160809079Y-56970553D01*
X161109542Y-56846097D01*
X161379951Y-56665415D01*
X161609915Y-56435451D01*
X161790597Y-56165042D01*
X161915053Y-55864579D01*
X161978500Y-55545609D01*
X161978500Y-55220391D01*
X172646500Y-55220391D01*
X172646500Y-55545609D01*
X172709947Y-55864579D01*
X172834403Y-56165042D01*
X173015085Y-56435451D01*
X173245049Y-56665415D01*
X173515458Y-56846097D01*
X173815921Y-56970553D01*
X174134891Y-57034000D01*
X174460109Y-57034000D01*
X174779079Y-56970553D01*
X175079542Y-56846097D01*
X175349951Y-56665415D01*
X175579915Y-56435451D01*
X175760597Y-56165042D01*
X175885053Y-55864579D01*
X175948500Y-55545609D01*
X175948500Y-55220391D01*
X175885053Y-54901421D01*
X175760597Y-54600958D01*
X175579915Y-54330549D01*
X175349951Y-54100585D01*
X175079542Y-53919903D01*
X174779079Y-53795447D01*
X174460109Y-53732000D01*
X174134891Y-53732000D01*
X173815921Y-53795447D01*
X173515458Y-53919903D01*
X173245049Y-54100585D01*
X173015085Y-54330549D01*
X172834403Y-54600958D01*
X172709947Y-54901421D01*
X172646500Y-55220391D01*
X161978500Y-55220391D01*
X161915053Y-54901421D01*
X161790597Y-54600958D01*
X161609915Y-54330549D01*
X161379951Y-54100585D01*
X161109542Y-53919903D01*
X160809079Y-53795447D01*
X160490109Y-53732000D01*
X160164891Y-53732000D01*
X159845921Y-53795447D01*
X159545458Y-53919903D01*
X159275049Y-54100585D01*
X159045085Y-54330549D01*
X158864403Y-54600958D01*
X158739947Y-54901421D01*
X158676500Y-55220391D01*
X156531470Y-55220391D01*
X154439034Y-53127956D01*
X154411317Y-53094183D01*
X154276559Y-52983589D01*
X154122813Y-52901411D01*
X154062121Y-52883000D01*
X186609120Y-52883000D01*
X186722501Y-52996382D01*
M02*
