  0
SECTION
  2
HEADER
  9
$ACADVER
  1
AC1014
  9
$HANDSEED
  5
FFFF
  9
$MEASUREMENT
 70
     1
  0
ENDSEC
  0
SECTION
  2
TABLES
  0
TABLE
  2
VPORT
  5
8
330
0
100
AcDbSymbolTable
 70
     4
  0
VPORT
  5
2E
330
8
100
AcDbSymbolTableRecord
100
AcDbViewportTableRecord
  2
*ACTIVE
 70
     0
 10
0.0
 20
0.0
 11
1.0
 21
1.0
 12
210.0
 22
148.5
 13
0.0
 23
0.0
 14
10.0
 24
10.0
 15
10.0
 25
10.0
 16
0.0
 26
0.0
 36
1.0
 17
0.0
 27
0.0
 37
0.0
 40
341.0
 41
1.24
 42
50.0
 43
0.0
 44
0.0
 50
0.0
 51
0.0
 71
     0
 72
   100
 73
     1
 74
     3
 75
     0
 76
     0
 77
     0
 78
     0
  0
ENDTAB
  0
TABLE
  2
LTYPE
  5
5
330
0
100
AcDbSymbolTable
 70
     1
  0
LTYPE
  5
14
330
5
100
AcDbSymbolTableRecord
100
AcDbLinetypeTableRecord
  2
BYBLOCK
 70
     0
  3

 72
    65
 73
     0
 40
0.0
  0
LTYPE
  5
15
330
5
100
AcDbSymbolTableRecord
100
AcDbLinetypeTableRecord
  2
BYLAYER
 70
     0
  3

 72
    65
 73
     0
 40
0.0
  0
LTYPE
  5
16
330
5
100
AcDbSymbolTableRecord
100
AcDbLinetypeTableRecord
  2
CONTINUOUS
 70
     0
  3
Solid line
 72
    65
 73
     0
 40
0.0
  0
ENDTAB
  0
TABLE
  2
LAYER
  5
2
100
AcDbSymbolTable
 70
1
  0
LAYER
  5
50
100
AcDbSymbolTableRecord
100
AcDbLayerTableRecord
  2
0
 70
0
  6
CONTINUOUS
  0
ENDTAB
  0
TABLE
  2
STYLE
  5
3
330
0
100
AcDbSymbolTable
 70
     1
  0
STYLE
  5
11
330
3
100
AcDbSymbolTableRecord
100
AcDbTextStyleTableRecord
  2
STANDARD
 70
     0
 40
0.0
 41
1.0
 50
0.0
 71
     0
 42
2.5
  3
txt
  4

  0
ENDTAB
  0
TABLE
  2
VIEW
  5
6
330
0
100
AcDbSymbolTable
 70
     0
  0
ENDTAB
  0
TABLE
  2
UCS
  5
7
330
0
100
AcDbSymbolTable
 70
     0
  0
ENDTAB
  0
TABLE
  2
APPID
  5
9
330
0
100
AcDbSymbolTable
 70
     2
  0
APPID
  5
12
330
9
100
AcDbSymbolTableRecord
100
AcDbRegAppTableRecord
  2
ACAD
 70
     0
  0
ENDTAB
  0
TABLE
  2
DIMSTYLE
  5
A
330
0
100
AcDbSymbolTable
 70
     1
  0
DIMSTYLE
105
27
330
A
100
AcDbSymbolTableRecord
100
AcDbDimStyleTableRecord
  2
ISO-25
 70
     0
  3

  4

  5

  6

  7

 40
1.0
 41
2.5
 42
0.625
 43
3.75
 44
1.25
 45
0.0
 46
0.0
 47
0.0
 48
0.0
140
2.5
141
2.5
142
0.0
143
0.03937007874016
144
1.0
145
0.0
146
1.0
147
0.625
 71
     0
 72
     0
 73
     0
 74
     0
 75
     0
 76
     0
 77
     1
 78
     8
170
     0
171
     3
172
     1
173
     0
174
     0
175
     0
176
     0
177
     0
178
     0
270
     2
271
     2
272
     2
273
     2
274
     3
340
11
275
     0
280
     0
281
     0
282
     0
283
     0
284
     8
285
     0
286
     0
287
     3
288
     0
  0
ENDTAB
  0
TABLE
  2
BLOCK_RECORD
  5
1
330
0
100
AcDbSymbolTable
 70
     1
  0
BLOCK_RECORD
  5
1F
330
1
100
AcDbSymbolTableRecord
100
AcDbBlockTableRecord
  2
*MODEL_SPACE
  0
BLOCK_RECORD
  5
1B
330
1
100
AcDbSymbolTableRecord
100
AcDbBlockTableRecord
  2
*PAPER_SPACE
  0
ENDTAB
  0
ENDSEC
  0
SECTION
  2
BLOCKS
  0
BLOCK
  5
20
330
1F
100
AcDbEntity
  8
0
100
AcDbBlockBegin
  2
*MODEL_SPACE
 70
     0
 10
0.0
 20
0.0
 30
0.0
  3
*MODEL_SPACE
  1

  0
ENDBLK
  5
21
330
1F
100
AcDbEntity
  8
0
100
AcDbBlockEnd
  0
BLOCK
  5
1C
330
1B
100
AcDbEntity
 67
     1
  8
0
100
AcDbBlockBegin
  2
*PAPER_SPACE
  1

  0
ENDBLK
  5
1D
330
1B
100
AcDbEntity
 67
     1
  8
0
100
AcDbBlockEnd
  0
ENDSEC
  0
SECTION
  2
ENTITIES
  0
SPLINE
  5
100
100
AcDbEntity
  8
0
 62
7
100
AcDbSpline
 70
8
 71
3
 72
8
 73
4
 74
0
 40
0
 40
0
 40
0
 40
0
 40
1
 40
1
 40
1
 40
1
 10
154.869372
 20
447.007611
 30
0.0
 10
155.979807
 20
448.118046
 30
0.0
 10
157.767723
 20
448.118046
 30
0.0
 10
158.878164
 20
447.007605
 30
0.0
  0
LWPOLYLINE
  5
101
100
AcDbEntity
  8
0
 62
7
100
AcDbPolyline
 90
2
 70
0
 10
145.849579
 20
437.987818
 30
0.0
 10
154.869372
 20
447.007611
 30
0.0
  0
SPLINE
  5
102
100
AcDbEntity
  8
0
 62
7
100
AcDbSpline
 70
8
 71
3
 72
8
 73
4
 74
0
 40
0
 40
0
 40
0
 40
0
 40
1
 40
1
 40
1
 40
1
 10
167.897951
 20
437.987818
 30
0.0
 10
169.008386
 20
436.877383
 30
0.0
 10
169.008386
 20
435.089466
 30
0.0
 10
167.897951
 20
433.979032
 30
0.0
  0
LWPOLYLINE
  5
103
100
AcDbEntity
  8
0
 62
7
100
AcDbPolyline
 90
2
 70
0
 10
158.878164
 20
447.007605
 30
0.0
 10
167.897951
 20
437.987818
 30
0.0
  0
SPLINE
  5
104
100
AcDbEntity
  8
0
 62
7
100
AcDbSpline
 70
8
 71
3
 72
8
 73
4
 74
0
 40
0
 40
0
 40
0
 40
0
 40
1
 40
1
 40
1
 40
1
 10
158.878158
 20
424.959239
 30
0.0
 10
157.767723
 20
423.848804
 30
0.0
 10
155.979807
 20
423.848804
 30
0.0
 10
154.869372
 20
424.959239
 30
0.0
  0
LWPOLYLINE
  5
105
100
AcDbEntity
  8
0
 62
7
100
AcDbPolyline
 90
2
 70
0
 10
167.897951
 20
433.979032
 30
0.0
 10
158.878158
 20
424.959239
 30
0.0
  0
SPLINE
  5
106
100
AcDbEntity
  8
0
 62
7
100
AcDbSpline
 70
8
 71
3
 72
8
 73
4
 74
0
 40
0
 40
0
 40
0
 40
0
 40
1
 40
1
 40
1
 40
1
 10
145.849585
 20
433.979026
 30
0.0
 10
144.739144
 20
435.089466
 30
0.0
 10
144.739144
 20
436.877383
 30
0.0
 10
145.849579
 20
437.987818
 30
0.0
  0
LWPOLYLINE
  5
107
100
AcDbEntity
  8
0
 62
7
100
AcDbPolyline
 90
2
 70
0
 10
154.869372
 20
424.959239
 30
0.0
 10
145.849585
 20
433.979026
 30
0.0
  0
LWPOLYLINE
  5
108
100
AcDbEntity
  8
0
 62
7
100
AcDbPolyline
 90
1
 70
1
 10
145.849579
 20
437.987818
 30
0.0
  0
SPLINE
  5
109
100
AcDbEntity
  8
0
 62
7
100
AcDbSpline
 70
8
 71
3
 72
8
 73
4
 74
0
 40
0
 40
0
 40
0
 40
0
 40
1
 40
1
 40
1
 40
1
 10
171.195891
 20
463.334130
 30
0.0
 10
172.306326
 20
464.444565
 30
0.0
 10
174.094243
 20
464.444565
 30
0.0
 10
175.204684
 20
463.334125
 30
0.0
  0
LWPOLYLINE
  5
10a
100
AcDbEntity
  8
0
 62
7
100
AcDbPolyline
 90
2
 70
0
 10
162.176099
 20
454.314338
 30
0.0
 10
171.195891
 20
463.334130
 30
0.0
  0
SPLINE
  5
10b
100
AcDbEntity
  8
0
 62
7
100
AcDbSpline
 70
8
 71
3
 72
8
 73
4
 74
0
 40
0
 40
0
 40
0
 40
0
 40
1
 40
1
 40
1
 40
1
 10
184.224470
 20
454.314338
 30
0.0
 10
185.334905
 20
453.203903
 30
0.0
 10
185.334905
 20
451.415986
 30
0.0
 10
184.224470
 20
450.305551
 30
0.0
  0
LWPOLYLINE
  5
10c
100
AcDbEntity
  8
0
 62
7
100
AcDbPolyline
 90
2
 70
0
 10
175.204684
 20
463.334125
 30
0.0
 10
184.224470
 20
454.314338
 30
0.0
  0
SPLINE
  5
10d
100
AcDbEntity
  8
0
 62
7
100
AcDbSpline
 70
8
 71
3
 72
8
 73
4
 74
0
 40
0
 40
0
 40
0
 40
0
 40
1
 40
1
 40
1
 40
1
 10
175.204678
 20
441.285759
 30
0.0
 10
174.094243
 20
440.175324
 30
0.0
 10
172.306326
 20
440.175324
 30
0.0
 10
171.195891
 20
441.285759
 30
0.0
  0
LWPOLYLINE
  5
10e
100
AcDbEntity
  8
0
 62
7
100
AcDbPolyline
 90
2
 70
0
 10
184.224470
 20
450.305551
 30
0.0
 10
175.204678
 20
441.285759
 30
0.0
  0
SPLINE
  5
10f
100
AcDbEntity
  8
0
 62
7
100
AcDbSpline
 70
8
 71
3
 72
8
 73
4
 74
0
 40
0
 40
0
 40
0
 40
0
 40
1
 40
1
 40
1
 40
1
 10
162.176105
 20
450.305546
 30
0.0
 10
161.065664
 20
451.415986
 30
0.0
 10
161.065664
 20
453.203903
 30
0.0
 10
162.176099
 20
454.314338
 30
0.0
  0
LWPOLYLINE
  5
110
100
AcDbEntity
  8
0
 62
7
100
AcDbPolyline
 90
2
 70
0
 10
171.195891
 20
441.285759
 30
0.0
 10
162.176105
 20
450.305546
 30
0.0
  0
LWPOLYLINE
  5
111
100
AcDbEntity
  8
0
 62
7
100
AcDbPolyline
 90
1
 70
1
 10
162.176099
 20
454.314338
 30
0.0
  0
SPLINE
  5
112
100
AcDbEntity
  8
0
 62
7
100
AcDbSpline
 70
8
 71
3
 72
8
 73
4
 74
0
 40
0
 40
0
 40
0
 40
0
 40
1
 40
1
 40
1
 40
1
 10
187.522428
 20
479.660667
 30
0.0
 10
188.632863
 20
480.771102
 30
0.0
 10
190.420785
 20
480.771107
 30
0.0
 10
191.531226
 20
479.660667
 30
0.0
  0
LWPOLYLINE
  5
113
100
AcDbEntity
  8
0
 62
7
100
AcDbPolyline
 90
2
 70
0
 10
178.502641
 20
470.640880
 30
0.0
 10
187.522428
 20
479.660667
 30
0.0
  0
SPLINE
  5
114
100
AcDbEntity
  8
0
 62
7
100
AcDbSpline
 70
8
 71
3
 72
8
 73
4
 74
0
 40
0
 40
0
 40
0
 40
0
 40
1
 40
1
 40
1
 40
1
 10
200.551013
 20
470.640880
 30
0.0
 10
201.661448
 20
469.530445
 30
0.0
 10
201.661442
 20
467.742523
 30
0.0
 10
200.551007
 20
466.632088
 30
0.0
  0
LWPOLYLINE
  5
115
100
AcDbEntity
  8
0
 62
7
100
AcDbPolyline
 90
2
 70
0
 10
191.531226
 20
479.660667
 30
0.0
 10
200.551013
 20
470.640880
 30
0.0
  0
SPLINE
  5
116
100
AcDbEntity
  8
0
 62
7
100
AcDbSpline
 70
8
 71
3
 72
8
 73
4
 74
0
 40
0
 40
0
 40
0
 40
0
 40
1
 40
1
 40
1
 40
1
 10
191.531220
 20
457.612301
 30
0.0
 10
190.420780
 20
456.501860
 30
0.0
 10
188.632863
 20
456.501860
 30
0.0
 10
187.522428
 20
457.612295
 30
0.0
  0
LWPOLYLINE
  5
117
100
AcDbEntity
  8
0
 62
7
100
AcDbPolyline
 90
2
 70
0
 10
200.551007
 20
466.632088
 30
0.0
 10
191.531220
 20
457.612301
 30
0.0
  0
SPLINE
  5
118
100
AcDbEntity
  8
0
 62
7
100
AcDbSpline
 70
8
 71
3
 72
8
 73
4
 74
0
 40
0
 40
0
 40
0
 40
0
 40
1
 40
1
 40
1
 40
1
 10
178.502641
 20
466.632082
 30
0.0
 10
177.392201
 20
467.742523
 30
0.0
 10
177.392201
 20
469.530439
 30
0.0
 10
178.502641
 20
470.640880
 30
0.0
  0
LWPOLYLINE
  5
119
100
AcDbEntity
  8
0
 62
7
100
AcDbPolyline
 90
2
 70
0
 10
187.522428
 20
457.612295
 30
0.0
 10
178.502641
 20
466.632082
 30
0.0
  0
LWPOLYLINE
  5
11a
100
AcDbEntity
  8
0
 62
7
100
AcDbPolyline
 90
1
 70
1
 10
178.502641
 20
470.640880
 30
0.0
  0
SPLINE
  5
11b
100
AcDbEntity
  8
0
 62
7
100
AcDbSpline
 70
8
 71
3
 72
8
 73
4
 74
0
 40
0
 40
0
 40
0
 40
0
 40
1
 40
1
 40
1
 40
1
 10
203.848965
 20
495.987203
 30
0.0
 10
204.959400
 20
497.097638
 30
0.0
 10
206.747322
 20
497.097644
 30
0.0
 10
207.857763
 20
495.987203
 30
0.0
  0
LWPOLYLINE
  5
11c
100
AcDbEntity
  8
0
 62
7
100
AcDbPolyline
 90
2
 70
0
 10
194.829178
 20
486.967417
 30
0.0
 10
203.848965
 20
495.987203
 30
0.0
  0
SPLINE
  5
11d
100
AcDbEntity
  8
0
 62
7
100
AcDbSpline
 70
8
 71
3
 72
8
 73
4
 74
0
 40
0
 40
0
 40
0
 40
0
 40
1
 40
1
 40
1
 40
1
 10
216.877549
 20
486.967417
 30
0.0
 10
217.987984
 20
485.856982
 30
0.0
 10
217.987979
 20
484.069059
 30
0.0
 10
216.877544
 20
482.958624
 30
0.0
  0
LWPOLYLINE
  5
11e
100
AcDbEntity
  8
0
 62
7
100
AcDbPolyline
 90
2
 70
0
 10
207.857763
 20
495.987203
 30
0.0
 10
216.877549
 20
486.967417
 30
0.0
  0
SPLINE
  5
11f
100
AcDbEntity
  8
0
 62
7
100
AcDbSpline
 70
8
 71
3
 72
8
 73
4
 74
0
 40
0
 40
0
 40
0
 40
0
 40
1
 40
1
 40
1
 40
1
 10
207.857757
 20
473.938838
 30
0.0
 10
206.747322
 20
472.828403
 30
0.0
 10
204.959400
 20
472.828397
 30
0.0
 10
203.848965
 20
473.938832
 30
0.0
  0
LWPOLYLINE
  5
120
100
AcDbEntity
  8
0
 62
7
100
AcDbPolyline
 90
2
 70
0
 10
216.877544
 20
482.958624
 30
0.0
 10
207.857757
 20
473.938838
 30
0.0
  0
SPLINE
  5
121
100
AcDbEntity
  8
0
 62
7
100
AcDbSpline
 70
8
 71
3
 72
8
 73
4
 74
0
 40
0
 40
0
 40
0
 40
0
 40
1
 40
1
 40
1
 40
1
 10
194.829178
 20
482.958619
 30
0.0
 10
193.718737
 20
484.069059
 30
0.0
 10
193.718743
 20
485.856982
 30
0.0
 10
194.829178
 20
486.967417
 30
0.0
  0
LWPOLYLINE
  5
122
100
AcDbEntity
  8
0
 62
7
100
AcDbPolyline
 90
2
 70
0
 10
203.848965
 20
473.938832
 30
0.0
 10
194.829178
 20
482.958619
 30
0.0
  0
LWPOLYLINE
  5
123
100
AcDbEntity
  8
0
 62
7
100
AcDbPolyline
 90
1
 70
1
 10
194.829178
 20
486.967417
 30
0.0
  0
SPLINE
  5
124
100
AcDbEntity
  8
0
 62
7
100
AcDbSpline
 70
8
 71
3
 72
8
 73
4
 74
0
 40
0
 40
0
 40
0
 40
0
 40
1
 40
1
 40
1
 40
1
 10
220.175484
 20
512.313723
 30
0.0
 10
221.285919
 20
513.424158
 30
0.0
 10
223.073842
 20
513.424164
 30
0.0
 10
224.184282
 20
512.313723
 30
0.0
  0
LWPOLYLINE
  5
125
100
AcDbEntity
  8
0
 62
7
100
AcDbPolyline
 90
2
 70
0
 10
211.155697
 20
503.293936
 30
0.0
 10
220.175484
 20
512.313723
 30
0.0
  0
SPLINE
  5
126
100
AcDbEntity
  8
0
 62
7
100
AcDbSpline
 70
8
 71
3
 72
8
 73
4
 74
0
 40
0
 40
0
 40
0
 40
0
 40
1
 40
1
 40
1
 40
1
 10
233.204069
 20
503.293936
 30
0.0
 10
234.314504
 20
502.183501
 30
0.0
 10
234.314498
 20
500.395579
 30
0.0
 10
233.204063
 20
499.285144
 30
0.0
  0
LWPOLYLINE
  5
127
100
AcDbEntity
  8
0
 62
7
100
AcDbPolyline
 90
2
 70
0
 10
224.184282
 20
512.313723
 30
0.0
 10
233.204069
 20
503.293936
 30
0.0
  0
SPLINE
  5
128
100
AcDbEntity
  8
0
 62
7
100
AcDbSpline
 70
8
 71
3
 72
8
 73
4
 74
0
 40
0
 40
0
 40
0
 40
0
 40
1
 40
1
 40
1
 40
1
 10
224.184277
 20
490.265357
 30
0.0
 10
223.073842
 20
489.154922
 30
0.0
 10
221.285919
 20
489.154917
 30
0.0
 10
220.175484
 20
490.265352
 30
0.0
  0
LWPOLYLINE
  5
129
100
AcDbEntity
  8
0
 62
7
100
AcDbPolyline
 90
2
 70
0
 10
233.204063
 20
499.285144
 30
0.0
 10
224.184277
 20
490.265357
 30
0.0
  0
SPLINE
  5
12a
100
AcDbEntity
  8
0
 62
7
100
AcDbSpline
 70
8
 71
3
 72
8
 73
4
 74
0
 40
0
 40
0
 40
0
 40
0
 40
1
 40
1
 40
1
 40
1
 10
211.155697
 20
499.285138
 30
0.0
 10
210.045257
 20
500.395579
 30
0.0
 10
210.045263
 20
502.183501
 30
0.0
 10
211.155697
 20
503.293936
 30
0.0
  0
LWPOLYLINE
  5
12b
100
AcDbEntity
  8
0
 62
7
100
AcDbPolyline
 90
2
 70
0
 10
220.175484
 20
490.265352
 30
0.0
 10
211.155697
 20
499.285138
 30
0.0
  0
LWPOLYLINE
  5
12c
100
AcDbEntity
  8
0
 62
7
100
AcDbPolyline
 90
1
 70
1
 10
211.155697
 20
503.293936
 30
0.0
  0
SPLINE
  5
12d
100
AcDbEntity
  8
0
 62
7
100
AcDbSpline
 70
8
 71
3
 72
8
 73
4
 74
0
 40
0
 40
0
 40
0
 40
0
 40
1
 40
1
 40
1
 40
1
 10
236.502021
 20
528.640260
 30
0.0
 10
237.612456
 20
529.750695
 30
0.0
 10
239.400378
 20
529.750700
 30
0.0
 10
240.510819
 20
528.640260
 30
0.0
  0
LWPOLYLINE
  5
12e
100
AcDbEntity
  8
0
 62
7
100
AcDbPolyline
 90
2
 70
0
 10
227.482234
 20
519.620473
 30
0.0
 10
236.502021
 20
528.640260
 30
0.0
  0
SPLINE
  5
12f
100
AcDbEntity
  8
0
 62
7
100
AcDbSpline
 70
8
 71
3
 72
8
 73
4
 74
0
 40
0
 40
0
 40
0
 40
0
 40
1
 40
1
 40
1
 40
1
 10
249.530606
 20
519.620473
 30
0.0
 10
250.641040
 20
518.510038
 30
0.0
 10
250.641035
 20
516.722116
 30
0.0
 10
249.530600
 20
515.611681
 30
0.0
  0
LWPOLYLINE
  5
130
100
AcDbEntity
  8
0
 62
7
100
AcDbPolyline
 90
2
 70
0
 10
240.510819
 20
528.640260
 30
0.0
 10
249.530606
 20
519.620473
 30
0.0
  0
SPLINE
  5
131
100
AcDbEntity
  8
0
 62
7
100
AcDbSpline
 70
8
 71
3
 72
8
 73
4
 74
0
 40
0
 40
0
 40
0
 40
0
 40
1
 40
1
 40
1
 40
1
 10
240.510813
 20
506.591894
 30
0.0
 10
239.400378
 20
505.481459
 30
0.0
 10
237.612456
 20
505.481453
 30
0.0
 10
236.502021
 20
506.591888
 30
0.0
  0
LWPOLYLINE
  5
132
100
AcDbEntity
  8
0
 62
7
100
AcDbPolyline
 90
2
 70
0
 10
249.530600
 20
515.611681
 30
0.0
 10
240.510813
 20
506.591894
 30
0.0
  0
SPLINE
  5
133
100
AcDbEntity
  8
0
 62
7
100
AcDbSpline
 70
8
 71
3
 72
8
 73
4
 74
0
 40
0
 40
0
 40
0
 40
0
 40
1
 40
1
 40
1
 40
1
 10
227.482234
 20
515.611675
 30
0.0
 10
226.371794
 20
516.722116
 30
0.0
 10
226.371799
 20
518.510038
 30
0.0
 10
227.482234
 20
519.620473
 30
0.0
  0
LWPOLYLINE
  5
134
100
AcDbEntity
  8
0
 62
7
100
AcDbPolyline
 90
2
 70
0
 10
236.502021
 20
506.591888
 30
0.0
 10
227.482234
 20
515.611675
 30
0.0
  0
LWPOLYLINE
  5
135
100
AcDbEntity
  8
0
 62
7
100
AcDbPolyline
 90
1
 70
1
 10
227.482234
 20
519.620473
 30
0.0
  0
SPLINE
  5
136
100
AcDbEntity
  8
0
 62
7
100
AcDbSpline
 70
8
 71
3
 72
8
 73
4
 74
0
 40
0
 40
0
 40
0
 40
0
 40
1
 40
1
 40
1
 40
1
 10
252.828540
 20
544.966779
 30
0.0
 10
253.938975
 20
546.077214
 30
0.0
 10
255.726898
 20
546.077220
 30
0.0
 10
256.837338
 20
544.966779
 30
0.0
  0
LWPOLYLINE
  5
137
100
AcDbEntity
  8
0
 62
7
100
AcDbPolyline
 90
2
 70
0
 10
243.808754
 20
535.946993
 30
0.0
 10
252.828540
 20
544.966779
 30
0.0
  0
SPLINE
  5
138
100
AcDbEntity
  8
0
 62
7
100
AcDbSpline
 70
8
 71
3
 72
8
 73
4
 74
0
 40
0
 40
0
 40
0
 40
0
 40
1
 40
1
 40
1
 40
1
 10
265.857125
 20
535.946993
 30
0.0
 10
266.967560
 20
534.836558
 30
0.0
 10
266.967554
 20
533.048635
 30
0.0
 10
265.857120
 20
531.938200
 30
0.0
  0
LWPOLYLINE
  5
139
100
AcDbEntity
  8
0
 62
7
100
AcDbPolyline
 90
2
 70
0
 10
256.837338
 20
544.966779
 30
0.0
 10
265.857125
 20
535.946993
 30
0.0
  0
SPLINE
  5
13a
100
AcDbEntity
  8
0
 62
7
100
AcDbSpline
 70
8
 71
3
 72
8
 73
4
 74
0
 40
0
 40
0
 40
0
 40
0
 40
1
 40
1
 40
1
 40
1
 10
256.837333
 20
522.918413
 30
0.0
 10
255.726898
 20
521.807979
 30
0.0
 10
253.938975
 20
521.807973
 30
0.0
 10
252.828540
 20
522.918408
 30
0.0
  0
LWPOLYLINE
  5
13b
100
AcDbEntity
  8
0
 62
7
100
AcDbPolyline
 90
2
 70
0
 10
265.857120
 20
531.938200
 30
0.0
 10
256.837333
 20
522.918413
 30
0.0
  0
SPLINE
  5
13c
100
AcDbEntity
  8
0
 62
7
100
AcDbSpline
 70
8
 71
3
 72
8
 73
4
 74
0
 40
0
 40
0
 40
0
 40
0
 40
1
 40
1
 40
1
 40
1
 10
243.808754
 20
531.938195
 30
0.0
 10
242.698313
 20
533.048635
 30
0.0
 10
242.698319
 20
534.836558
 30
0.0
 10
243.808754
 20
535.946993
 30
0.0
  0
LWPOLYLINE
  5
13d
100
AcDbEntity
  8
0
 62
7
100
AcDbPolyline
 90
2
 70
0
 10
252.828540
 20
522.918408
 30
0.0
 10
243.808754
 20
531.938195
 30
0.0
  0
LWPOLYLINE
  5
13e
100
AcDbEntity
  8
0
 62
7
100
AcDbPolyline
 90
1
 70
1
 10
243.808754
 20
535.946993
 30
0.0
  0
SPLINE
  5
13f
100
AcDbEntity
  8
0
 62
7
100
AcDbSpline
 70
8
 71
3
 72
8
 73
4
 74
0
 40
0
 40
0
 40
0
 40
0
 40
1
 40
1
 40
1
 40
1
 10
269.155077
 20
561.293316
 30
0.0
 10
270.265518
 20
562.403756
 30
0.0
 10
272.053434
 20
562.403756
 30
0.0
 10
273.163875
 20
561.293316
 30
0.0
  0
LWPOLYLINE
  5
140
100
AcDbEntity
  8
0
 62
7
100
AcDbPolyline
 90
2
 70
0
 10
260.135290
 20
552.273529
 30
0.0
 10
269.155077
 20
561.293316
 30
0.0
  0
SPLINE
  5
141
100
AcDbEntity
  8
0
 62
7
100
AcDbSpline
 70
8
 71
3
 72
8
 73
4
 74
0
 40
0
 40
0
 40
0
 40
0
 40
1
 40
1
 40
1
 40
1
 10
282.183662
 20
552.273529
 30
0.0
 10
283.294097
 20
551.163094
 30
0.0
 10
283.294097
 20
549.375177
 30
0.0
 10
282.183656
 20
548.264737
 30
0.0
  0
LWPOLYLINE
  5
142
100
AcDbEntity
  8
0
 62
7
100
AcDbPolyline
 90
2
 70
0
 10
273.163875
 20
561.293316
 30
0.0
 10
282.183662
 20
552.273529
 30
0.0
  0
SPLINE
  5
143
100
AcDbEntity
  8
0
 62
7
100
AcDbSpline
 70
8
 71
3
 72
8
 73
4
 74
0
 40
0
 40
0
 40
0
 40
0
 40
1
 40
1
 40
1
 40
1
 10
273.163869
 20
539.244950
 30
0.0
 10
272.053434
 20
538.134515
 30
0.0
 10
270.265512
 20
538.134510
 30
0.0
 10
269.155077
 20
539.244944
 30
0.0
  0
LWPOLYLINE
  5
144
100
AcDbEntity
  8
0
 62
7
100
AcDbPolyline
 90
2
 70
0
 10
282.183656
 20
548.264737
 30
0.0
 10
273.163869
 20
539.244950
 30
0.0
  0
SPLINE
  5
145
100
AcDbEntity
  8
0
 62
7
100
AcDbSpline
 70
8
 71
3
 72
8
 73
4
 74
0
 40
0
 40
0
 40
0
 40
0
 40
1
 40
1
 40
1
 40
1
 10
260.135290
 20
548.264731
 30
0.0
 10
259.024850
 20
549.375172
 30
0.0
 10
259.024855
 20
551.163094
 30
0.0
 10
260.135290
 20
552.273529
 30
0.0
  0
LWPOLYLINE
  5
146
100
AcDbEntity
  8
0
 62
7
100
AcDbPolyline
 90
2
 70
0
 10
269.155077
 20
539.244944
 30
0.0
 10
260.135290
 20
548.264731
 30
0.0
  0
LWPOLYLINE
  5
147
100
AcDbEntity
  8
0
 62
7
100
AcDbPolyline
 90
1
 70
1
 10
260.135290
 20
552.273529
 30
0.0
  0
SPLINE
  5
148
100
AcDbEntity
  8
0
 62
7
100
AcDbSpline
 70
8
 71
3
 72
8
 73
4
 74
0
 40
0
 40
0
 40
0
 40
0
 40
1
 40
1
 40
1
 40
1
 10
171.476879
 20
430.400103
 30
0.0
 10
172.587314
 20
431.510538
 30
0.0
 10
174.375231
 20
431.510538
 30
0.0
 10
175.485672
 20
430.400097
 30
0.0
  0
LWPOLYLINE
  5
149
100
AcDbEntity
  8
0
 62
7
100
AcDbPolyline
 90
2
 70
0
 10
162.457087
 20
421.380311
 30
0.0
 10
171.476879
 20
430.400103
 30
0.0
  0
SPLINE
  5
14a
100
AcDbEntity
  8
0
 62
7
100
AcDbSpline
 70
8
 71
3
 72
8
 73
4
 74
0
 40
0
 40
0
 40
0
 40
0
 40
1
 40
1
 40
1
 40
1
 10
184.505458
 20
421.380311
 30
0.0
 10
185.615893
 20
420.269876
 30
0.0
 10
185.615893
 20
418.481959
 30
0.0
 10
184.505458
 20
417.371524
 30
0.0
  0
LWPOLYLINE
  5
14b
100
AcDbEntity
  8
0
 62
7
100
AcDbPolyline
 90
2
 70
0
 10
175.485672
 20
430.400097
 30
0.0
 10
184.505458
 20
421.380311
 30
0.0
  0
SPLINE
  5
14c
100
AcDbEntity
  8
0
 62
7
100
AcDbSpline
 70
8
 71
3
 72
8
 73
4
 74
0
 40
0
 40
0
 40
0
 40
0
 40
1
 40
1
 40
1
 40
1
 10
175.485666
 20
408.351732
 30
0.0
 10
174.375231
 20
407.241297
 30
0.0
 10
172.587314
 20
407.241297
 30
0.0
 10
171.476879
 20
408.351732
 30
0.0
  0
LWPOLYLINE
  5
14d
100
AcDbEntity
  8
0
 62
7
100
AcDbPolyline
 90
2
 70
0
 10
184.505458
 20
417.371524
 30
0.0
 10
175.485666
 20
408.351732
 30
0.0
  0
SPLINE
  5
14e
100
AcDbEntity
  8
0
 62
7
100
AcDbSpline
 70
8
 71
3
 72
8
 73
4
 74
0
 40
0
 40
0
 40
0
 40
0
 40
1
 40
1
 40
1
 40
1
 10
162.457092
 20
417.371518
 30
0.0
 10
161.346652
 20
418.481959
 30
0.0
 10
161.346652
 20
420.269876
 30
0.0
 10
162.457087
 20
421.380311
 30
0.0
  0
LWPOLYLINE
  5
14f
100
AcDbEntity
  8
0
 62
7
100
AcDbPolyline
 90
2
 70
0
 10
171.476879
 20
408.351732
 30
0.0
 10
162.457092
 20
417.371518
 30
0.0
  0
LWPOLYLINE
  5
150
100
AcDbEntity
  8
0
 62
7
100
AcDbPolyline
 90
1
 70
1
 10
162.457087
 20
421.380311
 30
0.0
  0
SPLINE
  5
151
100
AcDbEntity
  8
0
 62
7
100
AcDbSpline
 70
8
 71
3
 72
8
 73
4
 74
0
 40
0
 40
0
 40
0
 40
0
 40
1
 40
1
 40
1
 40
1
 10
187.803399
 20
446.726623
 30
0.0
 10
188.913834
 20
447.837058
 30
0.0
 10
190.701751
 20
447.837058
 30
0.0
 10
191.812191
 20
446.726617
 30
0.0
  0
LWPOLYLINE
  5
152
100
AcDbEntity
  8
0
 62
7
100
AcDbPolyline
 90
2
 70
0
 10
178.783606
 20
437.706830
 30
0.0
 10
187.803399
 20
446.726623
 30
0.0
  0
SPLINE
  5
153
100
AcDbEntity
  8
0
 62
7
100
AcDbSpline
 70
8
 71
3
 72
8
 73
4
 74
0
 40
0
 40
0
 40
0
 40
0
 40
1
 40
1
 40
1
 40
1
 10
200.831978
 20
437.706830
 30
0.0
 10
201.942413
 20
436.596395
 30
0.0
 10
201.942413
 20
434.808479
 30
0.0
 10
200.831978
 20
433.698044
 30
0.0
  0
LWPOLYLINE
  5
154
100
AcDbEntity
  8
0
 62
7
100
AcDbPolyline
 90
2
 70
0
 10
191.812191
 20
446.726617
 30
0.0
 10
200.831978
 20
437.706830
 30
0.0
  0
SPLINE
  5
155
100
AcDbEntity
  8
0
 62
7
100
AcDbSpline
 70
8
 71
3
 72
8
 73
4
 74
0
 40
0
 40
0
 40
0
 40
0
 40
1
 40
1
 40
1
 40
1
 10
191.812185
 20
424.678251
 30
0.0
 10
190.701751
 20
423.567816
 30
0.0
 10
188.913834
 20
423.567816
 30
0.0
 10
187.803399
 20
424.678251
 30
0.0
  0
LWPOLYLINE
  5
156
100
AcDbEntity
  8
0
 62
7
100
AcDbPolyline
 90
2
 70
0
 10
200.831978
 20
433.698044
 30
0.0
 10
191.812185
 20
424.678251
 30
0.0
  0
SPLINE
  5
157
100
AcDbEntity
  8
0
 62
7
100
AcDbSpline
 70
8
 71
3
 72
8
 73
4
 74
0
 40
0
 40
0
 40
0
 40
0
 40
1
 40
1
 40
1
 40
1
 10
178.783612
 20
433.698038
 30
0.0
 10
177.673172
 20
434.808479
 30
0.0
 10
177.673172
 20
436.596395
 30
0.0
 10
178.783606
 20
437.706830
 30
0.0
  0
LWPOLYLINE
  5
158
100
AcDbEntity
  8
0
 62
7
100
AcDbPolyline
 90
2
 70
0
 10
187.803399
 20
424.678251
 30
0.0
 10
178.783612
 20
433.698038
 30
0.0
  0
LWPOLYLINE
  5
159
100
AcDbEntity
  8
0
 62
7
100
AcDbPolyline
 90
1
 70
1
 10
178.783606
 20
437.706830
 30
0.0
  0
SPLINE
  5
15a
100
AcDbEntity
  8
0
 62
7
100
AcDbSpline
 70
8
 71
3
 72
8
 73
4
 74
0
 40
0
 40
0
 40
0
 40
0
 40
1
 40
1
 40
1
 40
1
 10
204.129936
 20
463.053159
 30
0.0
 10
205.240370
 20
464.163594
 30
0.0
 10
207.028293
 20
464.163600
 30
0.0
 10
208.138733
 20
463.053159
 30
0.0
  0
LWPOLYLINE
  5
15b
100
AcDbEntity
  8
0
 62
7
100
AcDbPolyline
 90
2
 70
0
 10
195.110149
 20
454.033373
 30
0.0
 10
204.129936
 20
463.053159
 30
0.0
  0
SPLINE
  5
15c
100
AcDbEntity
  8
0
 62
7
100
AcDbSpline
 70
8
 71
3
 72
8
 73
4
 74
0
 40
0
 40
0
 40
0
 40
0
 40
1
 40
1
 40
1
 40
1
 10
217.158520
 20
454.033373
 30
0.0
 10
218.268955
 20
452.922938
 30
0.0
 10
218.268949
 20
451.135015
 30
0.0
 10
217.158515
 20
450.024580
 30
0.0
  0
LWPOLYLINE
  5
15d
100
AcDbEntity
  8
0
 62
7
100
AcDbPolyline
 90
2
 70
0
 10
208.138733
 20
463.053159
 30
0.0
 10
217.158520
 20
454.033373
 30
0.0
  0
SPLINE
  5
15e
100
AcDbEntity
  8
0
 62
7
100
AcDbSpline
 70
8
 71
3
 72
8
 73
4
 74
0
 40
0
 40
0
 40
0
 40
0
 40
1
 40
1
 40
1
 40
1
 10
208.138728
 20
441.004794
 30
0.0
 10
207.028287
 20
439.894353
 30
0.0
 10
205.240370
 20
439.894353
 30
0.0
 10
204.129936
 20
441.004788
 30
0.0
  0
LWPOLYLINE
  5
15f
100
AcDbEntity
  8
0
 62
7
100
AcDbPolyline
 90
2
 70
0
 10
217.158515
 20
450.024580
 30
0.0
 10
208.138728
 20
441.004794
 30
0.0
  0
SPLINE
  5
160
100
AcDbEntity
  8
0
 62
7
100
AcDbSpline
 70
8
 71
3
 72
8
 73
4
 74
0
 40
0
 40
0
 40
0
 40
0
 40
1
 40
1
 40
1
 40
1
 10
195.110149
 20
450.024575
 30
0.0
 10
193.999708
 20
451.135015
 30
0.0
 10
193.999708
 20
452.922932
 30
0.0
 10
195.110149
 20
454.033373
 30
0.0
  0
LWPOLYLINE
  5
161
100
AcDbEntity
  8
0
 62
7
100
AcDbPolyline
 90
2
 70
0
 10
204.129936
 20
441.004788
 30
0.0
 10
195.110149
 20
450.024575
 30
0.0
  0
LWPOLYLINE
  5
162
100
AcDbEntity
  8
0
 62
7
100
AcDbPolyline
 90
1
 70
1
 10
195.110149
 20
454.033373
 30
0.0
  0
SPLINE
  5
163
100
AcDbEntity
  8
0
 62
7
100
AcDbSpline
 70
8
 71
3
 72
8
 73
4
 74
0
 40
0
 40
0
 40
0
 40
0
 40
1
 40
1
 40
1
 40
1
 10
220.456472
 20
479.379696
 30
0.0
 10
221.566907
 20
480.490131
 30
0.0
 10
223.354829
 20
480.490137
 30
0.0
 10
224.465270
 20
479.379696
 30
0.0
  0
LWPOLYLINE
  5
164
100
AcDbEntity
  8
0
 62
7
100
AcDbPolyline
 90
2
 70
0
 10
211.436685
 20
470.359909
 30
0.0
 10
220.456472
 20
479.379696
 30
0.0
  0
SPLINE
  5
165
100
AcDbEntity
  8
0
 62
7
100
AcDbSpline
 70
8
 71
3
 72
8
 73
4
 74
0
 40
0
 40
0
 40
0
 40
0
 40
1
 40
1
 40
1
 40
1
 10
233.485057
 20
470.359909
 30
0.0
 10
234.595492
 20
469.249474
 30
0.0
 10
234.595486
 20
467.461552
 30
0.0
 10
233.485051
 20
466.351117
 30
0.0
  0
LWPOLYLINE
  5
166
100
AcDbEntity
  8
0
 62
7
100
AcDbPolyline
 90
2
 70
0
 10
224.465270
 20
479.379696
 30
0.0
 10
233.485057
 20
470.359909
 30
0.0
  0
SPLINE
  5
167
100
AcDbEntity
  8
0
 62
7
100
AcDbSpline
 70
8
 71
3
 72
8
 73
4
 74
0
 40
0
 40
0
 40
0
 40
0
 40
1
 40
1
 40
1
 40
1
 10
224.465264
 20
457.331330
 30
0.0
 10
223.354829
 20
456.220895
 30
0.0
 10
221.566907
 20
456.220890
 30
0.0
 10
220.456472
 20
457.331324
 30
0.0
  0
LWPOLYLINE
  5
168
100
AcDbEntity
  8
0
 62
7
100
AcDbPolyline
 90
2
 70
0
 10
233.485051
 20
466.351117
 30
0.0
 10
224.465264
 20
457.331330
 30
0.0
  0
SPLINE
  5
169
100
AcDbEntity
  8
0
 62
7
100
AcDbSpline
 70
8
 71
3
 72
8
 73
4
 74
0
 40
0
 40
0
 40
0
 40
0
 40
1
 40
1
 40
1
 40
1
 10
211.436685
 20
466.351111
 30
0.0
 10
210.326245
 20
467.461552
 30
0.0
 10
210.326250
 20
469.249474
 30
0.0
 10
211.436685
 20
470.359909
 30
0.0
  0
LWPOLYLINE
  5
16a
100
AcDbEntity
  8
0
 62
7
100
AcDbPolyline
 90
2
 70
0
 10
220.456472
 20
457.331324
 30
0.0
 10
211.436685
 20
466.351111
 30
0.0
  0
LWPOLYLINE
  5
16b
100
AcDbEntity
  8
0
 62
7
100
AcDbPolyline
 90
1
 70
1
 10
211.436685
 20
470.359909
 30
0.0
  0
SPLINE
  5
16c
100
AcDbEntity
  8
0
 62
7
100
AcDbSpline
 70
8
 71
3
 72
8
 73
4
 74
0
 40
0
 40
0
 40
0
 40
0
 40
1
 40
1
 40
1
 40
1
 10
236.782992
 20
495.706216
 30
0.0
 10
237.893427
 20
496.816651
 30
0.0
 10
239.681349
 20
496.816656
 30
0.0
 10
240.791790
 20
495.706216
 30
0.0
  0
LWPOLYLINE
  5
16d
100
AcDbEntity
  8
0
 62
7
100
AcDbPolyline
 90
2
 70
0
 10
227.763205
 20
486.686429
 30
0.0
 10
236.782992
 20
495.706216
 30
0.0
  0
SPLINE
  5
16e
100
AcDbEntity
  8
0
 62
7
100
AcDbSpline
 70
8
 71
3
 72
8
 73
4
 74
0
 40
0
 40
0
 40
0
 40
0
 40
1
 40
1
 40
1
 40
1
 10
249.811576
 20
486.686429
 30
0.0
 10
250.922011
 20
485.575994
 30
0.0
 10
250.922006
 20
483.788071
 30
0.0
 10
249.811571
 20
482.677637
 30
0.0
  0
LWPOLYLINE
  5
16f
100
AcDbEntity
  8
0
 62
7
100
AcDbPolyline
 90
2
 70
0
 10
240.791790
 20
495.706216
 30
0.0
 10
249.811576
 20
486.686429
 30
0.0
  0
SPLINE
  5
170
100
AcDbEntity
  8
0
 62
7
100
AcDbSpline
 70
8
 71
3
 72
8
 73
4
 74
0
 40
0
 40
0
 40
0
 40
0
 40
1
 40
1
 40
1
 40
1
 10
240.791784
 20
473.657850
 30
0.0
 10
239.681349
 20
472.547415
 30
0.0
 10
237.893427
 20
472.547409
 30
0.0
 10
236.782992
 20
473.657844
 30
0.0
  0
LWPOLYLINE
  5
171
100
AcDbEntity
  8
0
 62
7
100
AcDbPolyline
 90
2
 70
0
 10
249.811571
 20
482.677637
 30
0.0
 10
240.791784
 20
473.657850
 30
0.0
  0
SPLINE
  5
172
100
AcDbEntity
  8
0
 62
7
100
AcDbSpline
 70
8
 71
3
 72
8
 73
4
 74
0
 40
0
 40
0
 40
0
 40
0
 40
1
 40
1
 40
1
 40
1
 10
227.763205
 20
482.677631
 30
0.0
 10
226.652764
 20
483.788071
 30
0.0
 10
226.652770
 20
485.575994
 30
0.0
 10
227.763205
 20
486.686429
 30
0.0
  0
LWPOLYLINE
  5
173
100
AcDbEntity
  8
0
 62
7
100
AcDbPolyline
 90
2
 70
0
 10
236.782992
 20
473.657844
 30
0.0
 10
227.763205
 20
482.677631
 30
0.0
  0
LWPOLYLINE
  5
174
100
AcDbEntity
  8
0
 62
7
100
AcDbPolyline
 90
1
 70
1
 10
227.763205
 20
486.686429
 30
0.0
  0
SPLINE
  5
175
100
AcDbEntity
  8
0
 62
7
100
AcDbSpline
 70
8
 71
3
 72
8
 73
4
 74
0
 40
0
 40
0
 40
0
 40
0
 40
1
 40
1
 40
1
 40
1
 10
253.109528
 20
512.032752
 30
0.0
 10
254.219963
 20
513.143187
 30
0.0
 10
256.007886
 20
513.143193
 30
0.0
 10
257.118326
 20
512.032752
 30
0.0
  0
LWPOLYLINE
  5
176
100
AcDbEntity
  8
0
 62
7
100
AcDbPolyline
 90
2
 70
0
 10
244.089742
 20
503.012965
 30
0.0
 10
253.109528
 20
512.032752
 30
0.0
  0
SPLINE
  5
177
100
AcDbEntity
  8
0
 62
7
100
AcDbSpline
 70
8
 71
3
 72
8
 73
4
 74
0
 40
0
 40
0
 40
0
 40
0
 40
1
 40
1
 40
1
 40
1
 10
266.138113
 20
503.012965
 30
0.0
 10
267.248548
 20
501.902531
 30
0.0
 10
267.248542
 20
500.114608
 30
0.0
 10
266.138107
 20
499.004173
 30
0.0
  0
LWPOLYLINE
  5
178
100
AcDbEntity
  8
0
 62
7
100
AcDbPolyline
 90
2
 70
0
 10
257.118326
 20
512.032752
 30
0.0
 10
266.138113
 20
503.012965
 30
0.0
  0
SPLINE
  5
179
100
AcDbEntity
  8
0
 62
7
100
AcDbSpline
 70
8
 71
3
 72
8
 73
4
 74
0
 40
0
 40
0
 40
0
 40
0
 40
1
 40
1
 40
1
 40
1
 10
257.118321
 20
489.984386
 30
0.0
 10
256.007886
 20
488.873951
 30
0.0
 10
254.219963
 20
488.873946
 30
0.0
 10
253.109528
 20
489.984381
 30
0.0
  0
LWPOLYLINE
  5
17a
100
AcDbEntity
  8
0
 62
7
100
AcDbPolyline
 90
2
 70
0
 10
266.138107
 20
499.004173
 30
0.0
 10
257.118321
 20
489.984386
 30
0.0
  0
SPLINE
  5
17b
100
AcDbEntity
  8
0
 62
7
100
AcDbSpline
 70
8
 71
3
 72
8
 73
4
 74
0
 40
0
 40
0
 40
0
 40
0
 40
1
 40
1
 40
1
 40
1
 10
244.089742
 20
499.004168
 30
0.0
 10
242.979301
 20
500.114608
 30
0.0
 10
242.979307
 20
501.902531
 30
0.0
 10
244.089742
 20
503.012965
 30
0.0
  0
LWPOLYLINE
  5
17c
100
AcDbEntity
  8
0
 62
7
100
AcDbPolyline
 90
2
 70
0
 10
253.109528
 20
489.984381
 30
0.0
 10
244.089742
 20
499.004168
 30
0.0
  0
LWPOLYLINE
  5
17d
100
AcDbEntity
  8
0
 62
7
100
AcDbPolyline
 90
1
 70
1
 10
244.089742
 20
503.012965
 30
0.0
  0
SPLINE
  5
17e
100
AcDbEntity
  8
0
 62
7
100
AcDbSpline
 70
8
 71
3
 72
8
 73
4
 74
0
 40
0
 40
0
 40
0
 40
0
 40
1
 40
1
 40
1
 40
1
 10
269.436048
 20
528.359272
 30
0.0
 10
270.546483
 20
529.469707
 30
0.0
 10
272.334405
 20
529.469712
 30
0.0
 10
273.444846
 20
528.359272
 30
0.0
  0
LWPOLYLINE
  5
17f
100
AcDbEntity
  8
0
 62
7
100
AcDbPolyline
 90
2
 70
0
 10
260.416261
 20
519.339485
 30
0.0
 10
269.436048
 20
528.359272
 30
0.0
  0
SPLINE
  5
180
100
AcDbEntity
  8
0
 62
7
100
AcDbSpline
 70
8
 71
3
 72
8
 73
4
 74
0
 40
0
 40
0
 40
0
 40
0
 40
1
 40
1
 40
1
 40
1
 10
282.464633
 20
519.339485
 30
0.0
 10
283.575068
 20
518.229050
 30
0.0
 10
283.575062
 20
516.441128
 30
0.0
 10
282.464627
 20
515.330693
 30
0.0
  0
LWPOLYLINE
  5
181
100
AcDbEntity
  8
0
 62
7
100
AcDbPolyline
 90
2
 70
0
 10
273.444846
 20
528.359272
 30
0.0
 10
282.464633
 20
519.339485
 30
0.0
  0
SPLINE
  5
182
100
AcDbEntity
  8
0
 62
7
100
AcDbSpline
 70
8
 71
3
 72
8
 73
4
 74
0
 40
0
 40
0
 40
0
 40
0
 40
1
 40
1
 40
1
 40
1
 10
273.444840
 20
506.310906
 30
0.0
 10
272.334405
 20
505.200471
 30
0.0
 10
270.546483
 20
505.200465
 30
0.0
 10
269.436048
 20
506.310900
 30
0.0
  0
LWPOLYLINE
  5
183
100
AcDbEntity
  8
0
 62
7
100
AcDbPolyline
 90
2
 70
0
 10
282.464627
 20
515.330693
 30
0.0
 10
273.444840
 20
506.310906
 30
0.0
  0
SPLINE
  5
184
100
AcDbEntity
  8
0
 62
7
100
AcDbSpline
 70
8
 71
3
 72
8
 73
4
 74
0
 40
0
 40
0
 40
0
 40
0
 40
1
 40
1
 40
1
 40
1
 10
260.416261
 20
515.330687
 30
0.0
 10
259.305821
 20
516.441128
 30
0.0
 10
259.305826
 20
518.229050
 30
0.0
 10
260.416261
 20
519.339485
 30
0.0
  0
LWPOLYLINE
  5
185
100
AcDbEntity
  8
0
 62
7
100
AcDbPolyline
 90
2
 70
0
 10
269.436048
 20
506.310900
 30
0.0
 10
260.416261
 20
515.330687
 30
0.0
  0
LWPOLYLINE
  5
186
100
AcDbEntity
  8
0
 62
7
100
AcDbPolyline
 90
1
 70
1
 10
260.416261
 20
519.339485
 30
0.0
  0
SPLINE
  5
187
100
AcDbEntity
  8
0
 62
7
100
AcDbSpline
 70
8
 71
3
 72
8
 73
4
 74
0
 40
0
 40
0
 40
0
 40
0
 40
1
 40
1
 40
1
 40
1
 10
285.762585
 20
544.685808
 30
0.0
 10
286.873025
 20
545.796249
 30
0.0
 10
288.660942
 20
545.796249
 30
0.0
 10
289.771382
 20
544.685808
 30
0.0
  0
LWPOLYLINE
  5
188
100
AcDbEntity
  8
0
 62
7
100
AcDbPolyline
 90
2
 70
0
 10
276.742798
 20
535.666022
 30
0.0
 10
285.762585
 20
544.685808
 30
0.0
  0
SPLINE
  5
189
100
AcDbEntity
  8
0
 62
7
100
AcDbSpline
 70
8
 71
3
 72
8
 73
4
 74
0
 40
0
 40
0
 40
0
 40
0
 40
1
 40
1
 40
1
 40
1
 10
298.791169
 20
535.666022
 30
0.0
 10
299.901604
 20
534.555587
 30
0.0
 10
299.901604
 20
532.767670
 30
0.0
 10
298.791164
 20
531.657229
 30
0.0
  0
LWPOLYLINE
  5
18a
100
AcDbEntity
  8
0
 62
7
100
AcDbPolyline
 90
2
 70
0
 10
289.771382
 20
544.685808
 30
0.0
 10
298.791169
 20
535.666022
 30
0.0
  0
SPLINE
  5
18b
100
AcDbEntity
  8
0
 62
7
100
AcDbSpline
 70
8
 71
3
 72
8
 73
4
 74
0
 40
0
 40
0
 40
0
 40
0
 40
1
 40
1
 40
1
 40
1
 10
289.771377
 20
522.637443
 30
0.0
 10
288.660942
 20
521.527008
 30
0.0
 10
286.873019
 20
521.527002
 30
0.0
 10
285.762585
 20
522.637437
 30
0.0
  0
LWPOLYLINE
  5
18c
100
AcDbEntity
  8
0
 62
7
100
AcDbPolyline
 90
2
 70
0
 10
298.791164
 20
531.657229
 30
0.0
 10
289.771377
 20
522.637443
 30
0.0
  0
SPLINE
  5
18d
100
AcDbEntity
  8
0
 62
7
100
AcDbSpline
 70
8
 71
3
 72
8
 73
4
 74
0
 40
0
 40
0
 40
0
 40
0
 40
1
 40
1
 40
1
 40
1
 10
276.742798
 20
531.657224
 30
0.0
 10
275.632357
 20
532.767664
 30
0.0
 10
275.632363
 20
534.555587
 30
0.0
 10
276.742798
 20
535.666022
 30
0.0
  0
LWPOLYLINE
  5
18e
100
AcDbEntity
  8
0
 62
7
100
AcDbPolyline
 90
2
 70
0
 10
285.762585
 20
522.637437
 30
0.0
 10
276.742798
 20
531.657224
 30
0.0
  0
LWPOLYLINE
  5
18f
100
AcDbEntity
  8
0
 62
7
100
AcDbPolyline
 90
1
 70
1
 10
276.742798
 20
535.666022
 30
0.0
  0
SPLINE
  5
190
100
AcDbEntity
  8
0
 62
7
100
AcDbSpline
 70
8
 71
3
 72
8
 73
4
 74
0
 40
0
 40
0
 40
0
 40
0
 40
1
 40
1
 40
1
 40
1
 10
188.084391
 20
413.792591
 30
0.0
 10
189.194826
 20
414.903026
 30
0.0
 10
190.982743
 20
414.903026
 30
0.0
 10
192.093184
 20
413.792585
 30
0.0
  0
LWPOLYLINE
  5
191
100
AcDbEntity
  8
0
 62
7
100
AcDbPolyline
 90
2
 70
0
 10
179.064599
 20
404.772799
 30
0.0
 10
188.084391
 20
413.792591
 30
0.0
  0
SPLINE
  5
192
100
AcDbEntity
  8
0
 62
7
100
AcDbSpline
 70
8
 71
3
 72
8
 73
4
 74
0
 40
0
 40
0
 40
0
 40
0
 40
1
 40
1
 40
1
 40
1
 10
201.112970
 20
404.772799
 30
0.0
 10
202.223405
 20
403.662364
 30
0.0
 10
202.223405
 20
401.874447
 30
0.0
 10
201.112970
 20
400.764012
 30
0.0
  0
LWPOLYLINE
  5
193
100
AcDbEntity
  8
0
 62
7
100
AcDbPolyline
 90
2
 70
0
 10
192.093184
 20
413.792585
 30
0.0
 10
201.112970
 20
404.772799
 30
0.0
  0
SPLINE
  5
194
100
AcDbEntity
  8
0
 62
7
100
AcDbSpline
 70
8
 71
3
 72
8
 73
4
 74
0
 40
0
 40
0
 40
0
 40
0
 40
1
 40
1
 40
1
 40
1
 10
192.093178
 20
391.744220
 30
0.0
 10
190.982743
 20
390.633785
 30
0.0
 10
189.194826
 20
390.633785
 30
0.0
 10
188.084391
 20
391.744220
 30
0.0
  0
LWPOLYLINE
  5
195
100
AcDbEntity
  8
0
 62
7
100
AcDbPolyline
 90
2
 70
0
 10
201.112970
 20
400.764012
 30
0.0
 10
192.093178
 20
391.744220
 30
0.0
  0
SPLINE
  5
196
100
AcDbEntity
  8
0
 62
7
100
AcDbSpline
 70
8
 71
3
 72
8
 73
4
 74
0
 40
0
 40
0
 40
0
 40
0
 40
1
 40
1
 40
1
 40
1
 10
179.064604
 20
400.764006
 30
0.0
 10
177.954164
 20
401.874447
 30
0.0
 10
177.954164
 20
403.662364
 30
0.0
 10
179.064599
 20
404.772799
 30
0.0
  0
LWPOLYLINE
  5
197
100
AcDbEntity
  8
0
 62
7
100
AcDbPolyline
 90
2
 70
0
 10
188.084391
 20
391.744220
 30
0.0
 10
179.064604
 20
400.764006
 30
0.0
  0
LWPOLYLINE
  5
198
100
AcDbEntity
  8
0
 62
7
100
AcDbPolyline
 90
1
 70
1
 10
179.064599
 20
404.772799
 30
0.0
  0
SPLINE
  5
199
100
AcDbEntity
  8
0
 62
7
100
AcDbSpline
 70
8
 71
3
 72
8
 73
4
 74
0
 40
0
 40
0
 40
0
 40
0
 40
1
 40
1
 40
1
 40
1
 10
204.410911
 20
430.119111
 30
0.0
 10
205.521346
 20
431.229546
 30
0.0
 10
207.309263
 20
431.229546
 30
0.0
 10
208.419703
 20
430.119105
 30
0.0
  0
LWPOLYLINE
  5
19a
100
AcDbEntity
  8
0
 62
7
100
AcDbPolyline
 90
2
 70
0
 10
195.391118
 20
421.099318
 30
0.0
 10
204.410911
 20
430.119111
 30
0.0
  0
SPLINE
  5
19b
100
AcDbEntity
  8
0
 62
7
100
AcDbSpline
 70
8
 71
3
 72
8
 73
4
 74
0
 40
0
 40
0
 40
0
 40
0
 40
1
 40
1
 40
1
 40
1
 10
217.439490
 20
421.099318
 30
0.0
 10
218.549925
 20
419.988883
 30
0.0
 10
218.549925
 20
418.200967
 30
0.0
 10
217.439490
 20
417.090532
 30
0.0
  0
LWPOLYLINE
  5
19c
100
AcDbEntity
  8
0
 62
7
100
AcDbPolyline
 90
2
 70
0
 10
208.419703
 20
430.119105
 30
0.0
 10
217.439490
 20
421.099318
 30
0.0
  0
SPLINE
  5
19d
100
AcDbEntity
  8
0
 62
7
100
AcDbSpline
 70
8
 71
3
 72
8
 73
4
 74
0
 40
0
 40
0
 40
0
 40
0
 40
1
 40
1
 40
1
 40
1
 10
208.419697
 20
408.070739
 30
0.0
 10
207.309263
 20
406.960304
 30
0.0
 10
205.521346
 20
406.960304
 30
0.0
 10
204.410911
 20
408.070739
 30
0.0
  0
LWPOLYLINE
  5
19e
100
AcDbEntity
  8
0
 62
7
100
AcDbPolyline
 90
2
 70
0
 10
217.439490
 20
417.090532
 30
0.0
 10
208.419697
 20
408.070739
 30
0.0
  0
SPLINE
  5
19f
100
AcDbEntity
  8
0
 62
7
100
AcDbSpline
 70
8
 71
3
 72
8
 73
4
 74
0
 40
0
 40
0
 40
0
 40
0
 40
1
 40
1
 40
1
 40
1
 10
195.391124
 20
417.090526
 30
0.0
 10
194.280684
 20
418.200967
 30
0.0
 10
194.280684
 20
419.988883
 30
0.0
 10
195.391118
 20
421.099318
 30
0.0
  0
LWPOLYLINE
  5
1a0
100
AcDbEntity
  8
0
 62
7
100
AcDbPolyline
 90
2
 70
0
 10
204.410911
 20
408.070739
 30
0.0
 10
195.391124
 20
417.090526
 30
0.0
  0
LWPOLYLINE
  5
1a1
100
AcDbEntity
  8
0
 62
7
100
AcDbPolyline
 90
1
 70
1
 10
195.391118
 20
421.099318
 30
0.0
  0
SPLINE
  5
1a2
100
AcDbEntity
  8
0
 62
7
100
AcDbSpline
 70
8
 71
3
 72
8
 73
4
 74
0
 40
0
 40
0
 40
0
 40
0
 40
1
 40
1
 40
1
 40
1
 10
220.737448
 20
446.445647
 30
0.0
 10
221.847882
 20
447.556082
 30
0.0
 10
223.635805
 20
447.556088
 30
0.0
 10
224.746245
 20
446.445647
 30
0.0
  0
LWPOLYLINE
  5
1a3
100
AcDbEntity
  8
0
 62
7
100
AcDbPolyline
 90
2
 70
0
 10
211.717661
 20
437.425861
 30
0.0
 10
220.737448
 20
446.445647
 30
0.0
  0
SPLINE
  5
1a4
100
AcDbEntity
  8
0
 62
7
100
AcDbSpline
 70
8
 71
3
 72
8
 73
4
 74
0
 40
0
 40
0
 40
0
 40
0
 40
1
 40
1
 40
1
 40
1
 10
233.766032
 20
437.425861
 30
0.0
 10
234.876467
 20
436.315426
 30
0.0
 10
234.876461
 20
434.527503
 30
0.0
 10
233.766027
 20
433.417068
 30
0.0
  0
LWPOLYLINE
  5
1a5
100
AcDbEntity
  8
0
 62
7
100
AcDbPolyline
 90
2
 70
0
 10
224.746245
 20
446.445647
 30
0.0
 10
233.766032
 20
437.425861
 30
0.0
  0
SPLINE
  5
1a6
100
AcDbEntity
  8
0
 62
7
100
AcDbSpline
 70
8
 71
3
 72
8
 73
4
 74
0
 40
0
 40
0
 40
0
 40
0
 40
1
 40
1
 40
1
 40
1
 10
224.746240
 20
424.397282
 30
0.0
 10
223.635799
 20
423.286841
 30
0.0
 10
221.847882
 20
423.286841
 30
0.0
 10
220.737448
 20
424.397276
 30
0.0
  0
LWPOLYLINE
  5
1a7
100
AcDbEntity
  8
0
 62
7
100
AcDbPolyline
 90
2
 70
0
 10
233.766027
 20
433.417068
 30
0.0
 10
224.746240
 20
424.397282
 30
0.0
  0
SPLINE
  5
1a8
100
AcDbEntity
  8
0
 62
7
100
AcDbSpline
 70
8
 71
3
 72
8
 73
4
 74
0
 40
0
 40
0
 40
0
 40
0
 40
1
 40
1
 40
1
 40
1
 10
211.717661
 20
433.417063
 30
0.0
 10
210.607220
 20
434.527503
 30
0.0
 10
210.607220
 20
436.315420
 30
0.0
 10
211.717661
 20
437.425861
 30
0.0
  0
LWPOLYLINE
  5
1a9
100
AcDbEntity
  8
0
 62
7
100
AcDbPolyline
 90
2
 70
0
 10
220.737448
 20
424.397276
 30
0.0
 10
211.717661
 20
433.417063
 30
0.0
  0
LWPOLYLINE
  5
1aa
100
AcDbEntity
  8
0
 62
7
100
AcDbPolyline
 90
1
 70
1
 10
211.717661
 20
437.425861
 30
0.0
  0
SPLINE
  5
1ab
100
AcDbEntity
  8
0
 62
7
100
AcDbSpline
 70
8
 71
3
 72
8
 73
4
 74
0
 40
0
 40
0
 40
0
 40
0
 40
1
 40
1
 40
1
 40
1
 10
237.063984
 20
462.772184
 30
0.0
 10
238.174419
 20
463.882619
 30
0.0
 10
239.962341
 20
463.882625
 30
0.0
 10
241.072782
 20
462.772184
 30
0.0
  0
LWPOLYLINE
  5
1ac
100
AcDbEntity
  8
0
 62
7
100
AcDbPolyline
 90
2
 70
0
 10
228.044197
 20
453.752397
 30
0.0
 10
237.063984
 20
462.772184
 30
0.0
  0
SPLINE
  5
1ad
100
AcDbEntity
  8
0
 62
7
100
AcDbSpline
 70
8
 71
3
 72
8
 73
4
 74
0
 40
0
 40
0
 40
0
 40
0
 40
1
 40
1
 40
1
 40
1
 10
250.092569
 20
453.752397
 30
0.0
 10
251.203004
 20
452.641962
 30
0.0
 10
251.202998
 20
450.854040
 30
0.0
 10
250.092563
 20
449.743605
 30
0.0
  0
LWPOLYLINE
  5
1ae
100
AcDbEntity
  8
0
 62
7
100
AcDbPolyline
 90
2
 70
0
 10
241.072782
 20
462.772184
 30
0.0
 10
250.092569
 20
453.752397
 30
0.0
  0
SPLINE
  5
1af
100
AcDbEntity
  8
0
 62
7
100
AcDbSpline
 70
8
 71
3
 72
8
 73
4
 74
0
 40
0
 40
0
 40
0
 40
0
 40
1
 40
1
 40
1
 40
1
 10
241.072776
 20
440.723818
 30
0.0
 10
239.962341
 20
439.613383
 30
0.0
 10
238.174419
 20
439.613378
 30
0.0
 10
237.063984
 20
440.723812
 30
0.0
  0
LWPOLYLINE
  5
1b0
100
AcDbEntity
  8
0
 62
7
100
AcDbPolyline
 90
2
 70
0
 10
250.092563
 20
449.743605
 30
0.0
 10
241.072776
 20
440.723818
 30
0.0
  0
SPLINE
  5
1b1
100
AcDbEntity
  8
0
 62
7
100
AcDbSpline
 70
8
 71
3
 72
8
 73
4
 74
0
 40
0
 40
0
 40
0
 40
0
 40
1
 40
1
 40
1
 40
1
 10
228.044197
 20
449.743599
 30
0.0
 10
226.933757
 20
450.854040
 30
0.0
 10
226.933762
 20
452.641962
 30
0.0
 10
228.044197
 20
453.752397
 30
0.0
  0
LWPOLYLINE
  5
1b2
100
AcDbEntity
  8
0
 62
7
100
AcDbPolyline
 90
2
 70
0
 10
237.063984
 20
440.723812
 30
0.0
 10
228.044197
 20
449.743599
 30
0.0
  0
LWPOLYLINE
  5
1b3
100
AcDbEntity
  8
0
 62
7
100
AcDbPolyline
 90
1
 70
1
 10
228.044197
 20
453.752397
 30
0.0
  0
SPLINE
  5
1b4
100
AcDbEntity
  8
0
 62
7
100
AcDbSpline
 70
8
 71
3
 72
8
 73
4
 74
0
 40
0
 40
0
 40
0
 40
0
 40
1
 40
1
 40
1
 40
1
 10
253.390504
 20
479.098704
 30
0.0
 10
254.500939
 20
480.209139
 30
0.0
 10
256.288861
 20
480.209144
 30
0.0
 10
257.399302
 20
479.098704
 30
0.0
  0
LWPOLYLINE
  5
1b5
100
AcDbEntity
  8
0
 62
7
100
AcDbPolyline
 90
2
 70
0
 10
244.370717
 20
470.078917
 30
0.0
 10
253.390504
 20
479.098704
 30
0.0
  0
SPLINE
  5
1b6
100
AcDbEntity
  8
0
 62
7
100
AcDbSpline
 70
8
 71
3
 72
8
 73
4
 74
0
 40
0
 40
0
 40
0
 40
0
 40
1
 40
1
 40
1
 40
1
 10
266.419088
 20
470.078917
 30
0.0
 10
267.529523
 20
468.968482
 30
0.0
 10
267.529518
 20
467.180559
 30
0.0
 10
266.419083
 20
466.070125
 30
0.0
  0
LWPOLYLINE
  5
1b7
100
AcDbEntity
  8
0
 62
7
100
AcDbPolyline
 90
2
 70
0
 10
257.399302
 20
479.098704
 30
0.0
 10
266.419088
 20
470.078917
 30
0.0
  0
SPLINE
  5
1b8
100
AcDbEntity
  8
0
 62
7
100
AcDbSpline
 70
8
 71
3
 72
8
 73
4
 74
0
 40
0
 40
0
 40
0
 40
0
 40
1
 40
1
 40
1
 40
1
 10
257.399296
 20
457.050338
 30
0.0
 10
256.288861
 20
455.939903
 30
0.0
 10
254.500939
 20
455.939897
 30
0.0
 10
253.390504
 20
457.050332
 30
0.0
  0
LWPOLYLINE
  5
1b9
100
AcDbEntity
  8
0
 62
7
100
AcDbPolyline
 90
2
 70
0
 10
266.419083
 20
466.070125
 30
0.0
 10
257.399296
 20
457.050338
 30
0.0
  0
SPLINE
  5
1ba
100
AcDbEntity
  8
0
 62
7
100
AcDbSpline
 70
8
 71
3
 72
8
 73
4
 74
0
 40
0
 40
0
 40
0
 40
0
 40
1
 40
1
 40
1
 40
1
 10
244.370717
 20
466.070119
 30
0.0
 10
243.260276
 20
467.180559
 30
0.0
 10
243.260282
 20
468.968482
 30
0.0
 10
244.370717
 20
470.078917
 30
0.0
  0
LWPOLYLINE
  5
1bb
100
AcDbEntity
  8
0
 62
7
100
AcDbPolyline
 90
2
 70
0
 10
253.390504
 20
457.050332
 30
0.0
 10
244.370717
 20
466.070119
 30
0.0
  0
LWPOLYLINE
  5
1bc
100
AcDbEntity
  8
0
 62
7
100
AcDbPolyline
 90
1
 70
1
 10
244.370717
 20
470.078917
 30
0.0
  0
SPLINE
  5
1bd
100
AcDbEntity
  8
0
 62
7
100
AcDbSpline
 70
8
 71
3
 72
8
 73
4
 74
0
 40
0
 40
0
 40
0
 40
0
 40
1
 40
1
 40
1
 40
1
 10
269.717040
 20
495.425240
 30
0.0
 10
270.827475
 20
496.535675
 30
0.0
 10
272.615398
 20
496.535681
 30
0.0
 10
273.725838
 20
495.425240
 30
0.0
  0
LWPOLYLINE
  5
1be
100
AcDbEntity
  8
0
 62
7
100
AcDbPolyline
 90
2
 70
0
 10
260.697254
 20
486.405453
 30
0.0
 10
269.717040
 20
495.425240
 30
0.0
  0
SPLINE
  5
1bf
100
AcDbEntity
  8
0
 62
7
100
AcDbSpline
 70
8
 71
3
 72
8
 73
4
 74
0
 40
0
 40
0
 40
0
 40
0
 40
1
 40
1
 40
1
 40
1
 10
282.745625
 20
486.405453
 30
0.0
 10
283.856060
 20
485.295019
 30
0.0
 10
283.856054
 20
483.507096
 30
0.0
 10
282.745619
 20
482.396661
 30
0.0
  0
LWPOLYLINE
  5
1c0
100
AcDbEntity
  8
0
 62
7
100
AcDbPolyline
 90
2
 70
0
 10
273.725838
 20
495.425240
 30
0.0
 10
282.745625
 20
486.405453
 30
0.0
  0
SPLINE
  5
1c1
100
AcDbEntity
  8
0
 62
7
100
AcDbSpline
 70
8
 71
3
 72
8
 73
4
 74
0
 40
0
 40
0
 40
0
 40
0
 40
1
 40
1
 40
1
 40
1
 10
273.725833
 20
473.376874
 30
0.0
 10
272.615398
 20
472.266439
 30
0.0
 10
270.827475
 20
472.266434
 30
0.0
 10
269.717040
 20
473.376869
 30
0.0
  0
LWPOLYLINE
  5
1c2
100
AcDbEntity
  8
0
 62
7
100
AcDbPolyline
 90
2
 70
0
 10
282.745619
 20
482.396661
 30
0.0
 10
273.725833
 20
473.376874
 30
0.0
  0
SPLINE
  5
1c3
100
AcDbEntity
  8
0
 62
7
100
AcDbSpline
 70
8
 71
3
 72
8
 73
4
 74
0
 40
0
 40
0
 40
0
 40
0
 40
1
 40
1
 40
1
 40
1
 10
260.697254
 20
482.396656
 30
0.0
 10
259.586813
 20
483.507096
 30
0.0
 10
259.586819
 20
485.295019
 30
0.0
 10
260.697254
 20
486.405453
 30
0.0
  0
LWPOLYLINE
  5
1c4
100
AcDbEntity
  8
0
 62
7
100
AcDbPolyline
 90
2
 70
0
 10
269.717040
 20
473.376869
 30
0.0
 10
260.697254
 20
482.396656
 30
0.0
  0
LWPOLYLINE
  5
1c5
100
AcDbEntity
  8
0
 62
7
100
AcDbPolyline
 90
1
 70
1
 10
260.697254
 20
486.405453
 30
0.0
  0
SPLINE
  5
1c6
100
AcDbEntity
  8
0
 62
7
100
AcDbSpline
 70
8
 71
3
 72
8
 73
4
 74
0
 40
0
 40
0
 40
0
 40
0
 40
1
 40
1
 40
1
 40
1
 10
286.043560
 20
511.751760
 30
0.0
 10
287.153995
 20
512.862195
 30
0.0
 10
288.941917
 20
512.862200
 30
0.0
 10
290.052358
 20
511.751760
 30
0.0
  0
LWPOLYLINE
  5
1c7
100
AcDbEntity
  8
0
 62
7
100
AcDbPolyline
 90
2
 70
0
 10
277.023773
 20
502.731973
 30
0.0
 10
286.043560
 20
511.751760
 30
0.0
  0
SPLINE
  5
1c8
100
AcDbEntity
  8
0
 62
7
100
AcDbSpline
 70
8
 71
3
 72
8
 73
4
 74
0
 40
0
 40
0
 40
0
 40
0
 40
1
 40
1
 40
1
 40
1
 10
299.072145
 20
502.731973
 30
0.0
 10
300.182580
 20
501.621538
 30
0.0
 10
300.182574
 20
499.833616
 30
0.0
 10
299.072139
 20
498.723181
 30
0.0
  0
LWPOLYLINE
  5
1c9
100
AcDbEntity
  8
0
 62
7
100
AcDbPolyline
 90
2
 70
0
 10
290.052358
 20
511.751760
 30
0.0
 10
299.072145
 20
502.731973
 30
0.0
  0
SPLINE
  5
1ca
100
AcDbEntity
  8
0
 62
7
100
AcDbSpline
 70
8
 71
3
 72
8
 73
4
 74
0
 40
0
 40
0
 40
0
 40
0
 40
1
 40
1
 40
1
 40
1
 10
290.052352
 20
489.703394
 30
0.0
 10
288.941917
 20
488.592959
 30
0.0
 10
287.153995
 20
488.592953
 30
0.0
 10
286.043560
 20
489.703388
 30
0.0
  0
LWPOLYLINE
  5
1cb
100
AcDbEntity
  8
0
 62
7
100
AcDbPolyline
 90
2
 70
0
 10
299.072139
 20
498.723181
 30
0.0
 10
290.052352
 20
489.703394
 30
0.0
  0
SPLINE
  5
1cc
100
AcDbEntity
  8
0
 62
7
100
AcDbSpline
 70
8
 71
3
 72
8
 73
4
 74
0
 40
0
 40
0
 40
0
 40
0
 40
1
 40
1
 40
1
 40
1
 10
277.023773
 20
498.723175
 30
0.0
 10
275.913333
 20
499.833616
 30
0.0
 10
275.913338
 20
501.621538
 30
0.0
 10
277.023773
 20
502.731973
 30
0.0
  0
LWPOLYLINE
  5
1cd
100
AcDbEntity
  8
0
 62
7
100
AcDbPolyline
 90
2
 70
0
 10
286.043560
 20
489.703388
 30
0.0
 10
277.023773
 20
498.723175
 30
0.0
  0
LWPOLYLINE
  5
1ce
100
AcDbEntity
  8
0
 62
7
100
AcDbPolyline
 90
1
 70
1
 10
277.023773
 20
502.731973
 30
0.0
  0
SPLINE
  5
1cf
100
AcDbEntity
  8
0
 62
7
100
AcDbSpline
 70
8
 71
3
 72
8
 73
4
 74
0
 40
0
 40
0
 40
0
 40
0
 40
1
 40
1
 40
1
 40
1
 10
302.370097
 20
528.078296
 30
0.0
 10
303.480537
 20
529.188737
 30
0.0
 10
305.268454
 20
529.188737
 30
0.0
 10
306.378894
 20
528.078296
 30
0.0
  0
LWPOLYLINE
  5
1d0
100
AcDbEntity
  8
0
 62
7
100
AcDbPolyline
 90
2
 70
0
 10
293.350310
 20
519.058510
 30
0.0
 10
302.370097
 20
528.078296
 30
0.0
  0
SPLINE
  5
1d1
100
AcDbEntity
  8
0
 62
7
100
AcDbSpline
 70
8
 71
3
 72
8
 73
4
 74
0
 40
0
 40
0
 40
0
 40
0
 40
1
 40
1
 40
1
 40
1
 10
315.398681
 20
519.058510
 30
0.0
 10
316.509116
 20
517.948075
 30
0.0
 10
316.509116
 20
516.160158
 30
0.0
 10
315.398676
 20
515.049717
 30
0.0
  0
LWPOLYLINE
  5
1d2
100
AcDbEntity
  8
0
 62
7
100
AcDbPolyline
 90
2
 70
0
 10
306.378894
 20
528.078296
 30
0.0
 10
315.398681
 20
519.058510
 30
0.0
  0
SPLINE
  5
1d3
100
AcDbEntity
  8
0
 62
7
100
AcDbSpline
 70
8
 71
3
 72
8
 73
4
 74
0
 40
0
 40
0
 40
0
 40
0
 40
1
 40
1
 40
1
 40
1
 10
306.378889
 20
506.029931
 30
0.0
 10
305.268454
 20
504.919496
 30
0.0
 10
303.480531
 20
504.919490
 30
0.0
 10
302.370097
 20
506.029925
 30
0.0
  0
LWPOLYLINE
  5
1d4
100
AcDbEntity
  8
0
 62
7
100
AcDbPolyline
 90
2
 70
0
 10
315.398676
 20
515.049717
 30
0.0
 10
306.378889
 20
506.029931
 30
0.0
  0
SPLINE
  5
1d5
100
AcDbEntity
  8
0
 62
7
100
AcDbSpline
 70
8
 71
3
 72
8
 73
4
 74
0
 40
0
 40
0
 40
0
 40
0
 40
1
 40
1
 40
1
 40
1
 10
293.350310
 20
515.049712
 30
0.0
 10
292.239869
 20
516.160152
 30
0.0
 10
292.239875
 20
517.948075
 30
0.0
 10
293.350310
 20
519.058510
 30
0.0
  0
LWPOLYLINE
  5
1d6
100
AcDbEntity
  8
0
 62
7
100
AcDbPolyline
 90
2
 70
0
 10
302.370097
 20
506.029925
 30
0.0
 10
293.350310
 20
515.049712
 30
0.0
  0
LWPOLYLINE
  5
1d7
100
AcDbEntity
  8
0
 62
7
100
AcDbPolyline
 90
1
 70
1
 10
293.350310
 20
519.058510
 30
0.0
  0
SPLINE
  5
1d8
100
AcDbEntity
  8
0
 62
7
100
AcDbSpline
 70
8
 71
3
 72
8
 73
4
 74
0
 40
0
 40
0
 40
0
 40
0
 40
1
 40
1
 40
1
 40
1
 10
204.691893
 20
397.185089
 30
0.0
 10
205.802328
 20
398.295524
 30
0.0
 10
207.590245
 20
398.295524
 30
0.0
 10
208.700685
 20
397.185084
 30
0.0
  0
LWPOLYLINE
  5
1d9
100
AcDbEntity
  8
0
 62
7
100
AcDbPolyline
 90
2
 70
0
 10
195.672101
 20
388.165297
 30
0.0
 10
204.691893
 20
397.185089
 30
0.0
  0
SPLINE
  5
1da
100
AcDbEntity
  8
0
 62
7
100
AcDbSpline
 70
8
 71
3
 72
8
 73
4
 74
0
 40
0
 40
0
 40
0
 40
0
 40
1
 40
1
 40
1
 40
1
 10
217.720472
 20
388.165297
 30
0.0
 10
218.830907
 20
387.054862
 30
0.0
 10
218.830907
 20
385.266945
 30
0.0
 10
217.720472
 20
384.156510
 30
0.0
  0
LWPOLYLINE
  5
1db
100
AcDbEntity
  8
0
 62
7
100
AcDbPolyline
 90
2
 70
0
 10
208.700685
 20
397.185084
 30
0.0
 10
217.720472
 20
388.165297
 30
0.0
  0
SPLINE
  5
1dc
100
AcDbEntity
  8
0
 62
7
100
AcDbSpline
 70
8
 71
3
 72
8
 73
4
 74
0
 40
0
 40
0
 40
0
 40
0
 40
1
 40
1
 40
1
 40
1
 10
208.700680
 20
375.136718
 30
0.0
 10
207.590245
 20
374.026283
 30
0.0
 10
205.802328
 20
374.026283
 30
0.0
 10
204.691893
 20
375.136718
 30
0.0
  0
LWPOLYLINE
  5
1dd
100
AcDbEntity
  8
0
 62
7
100
AcDbPolyline
 90
2
 70
0
 10
217.720472
 20
384.156510
 30
0.0
 10
208.700680
 20
375.136718
 30
0.0
  0
SPLINE
  5
1de
100
AcDbEntity
  8
0
 62
7
100
AcDbSpline
 70
8
 71
3
 72
8
 73
4
 74
0
 40
0
 40
0
 40
0
 40
0
 40
1
 40
1
 40
1
 40
1
 10
195.672106
 20
384.156505
 30
0.0
 10
194.561666
 20
385.266945
 30
0.0
 10
194.561666
 20
387.054862
 30
0.0
 10
195.672101
 20
388.165297
 30
0.0
  0
LWPOLYLINE
  5
1df
100
AcDbEntity
  8
0
 62
7
100
AcDbPolyline
 90
2
 70
0
 10
204.691893
 20
375.136718
 30
0.0
 10
195.672106
 20
384.156505
 30
0.0
  0
LWPOLYLINE
  5
1e0
100
AcDbEntity
  8
0
 62
7
100
AcDbPolyline
 90
1
 70
1
 10
195.672101
 20
388.165297
 30
0.0
  0
SPLINE
  5
1e1
100
AcDbEntity
  8
0
 62
7
100
AcDbSpline
 70
8
 71
3
 72
8
 73
4
 74
0
 40
0
 40
0
 40
0
 40
0
 40
1
 40
1
 40
1
 40
1
 10
221.018413
 20
413.511609
 30
0.0
 10
222.128848
 20
414.622044
 30
0.0
 10
223.916764
 20
414.622044
 30
0.0
 10
225.027205
 20
413.511603
 30
0.0
  0
LWPOLYLINE
  5
1e2
100
AcDbEntity
  8
0
 62
7
100
AcDbPolyline
 90
2
 70
0
 10
211.998620
 20
404.491816
 30
0.0
 10
221.018413
 20
413.511609
 30
0.0
  0
SPLINE
  5
1e3
100
AcDbEntity
  8
0
 62
7
100
AcDbSpline
 70
8
 71
3
 72
8
 73
4
 74
0
 40
0
 40
0
 40
0
 40
0
 40
1
 40
1
 40
1
 40
1
 10
234.046992
 20
404.491816
 30
0.0
 10
235.157427
 20
403.381382
 30
0.0
 10
235.157427
 20
401.593465
 30
0.0
 10
234.046992
 20
400.483030
 30
0.0
  0
LWPOLYLINE
  5
1e4
100
AcDbEntity
  8
0
 62
7
100
AcDbPolyline
 90
2
 70
0
 10
225.027205
 20
413.511603
 30
0.0
 10
234.046992
 20
404.491816
 30
0.0
  0
SPLINE
  5
1e5
100
AcDbEntity
  8
0
 62
7
100
AcDbSpline
 70
8
 71
3
 72
8
 73
4
 74
0
 40
0
 40
0
 40
0
 40
0
 40
1
 40
1
 40
1
 40
1
 10
225.027199
 20
391.463237
 30
0.0
 10
223.916764
 20
390.352803
 30
0.0
 10
222.128848
 20
390.352803
 30
0.0
 10
221.018413
 20
391.463237
 30
0.0
  0
LWPOLYLINE
  5
1e6
100
AcDbEntity
  8
0
 62
7
100
AcDbPolyline
 90
2
 70
0
 10
234.046992
 20
400.483030
 30
0.0
 10
225.027199
 20
391.463237
 30
0.0
  0
SPLINE
  5
1e7
100
AcDbEntity
  8
0
 62
7
100
AcDbSpline
 70
8
 71
3
 72
8
 73
4
 74
0
 40
0
 40
0
 40
0
 40
0
 40
1
 40
1
 40
1
 40
1
 10
211.998626
 20
400.483024
 30
0.0
 10
210.888185
 20
401.593465
 30
0.0
 10
210.888185
 20
403.381382
 30
0.0
 10
211.998620
 20
404.491816
 30
0.0
  0
LWPOLYLINE
  5
1e8
100
AcDbEntity
  8
0
 62
7
100
AcDbPolyline
 90
2
 70
0
 10
221.018413
 20
391.463237
 30
0.0
 10
211.998626
 20
400.483024
 30
0.0
  0
LWPOLYLINE
  5
1e9
100
AcDbEntity
  8
0
 62
7
100
AcDbPolyline
 90
1
 70
1
 10
211.998620
 20
404.491816
 30
0.0
  0
SPLINE
  5
1ea
100
AcDbEntity
  8
0
 62
7
100
AcDbSpline
 70
8
 71
3
 72
8
 73
4
 74
0
 40
0
 40
0
 40
0
 40
0
 40
1
 40
1
 40
1
 40
1
 10
237.344949
 20
429.838146
 30
0.0
 10
238.455384
 20
430.948580
 30
0.0
 10
240.243307
 20
430.948586
 30
0.0
 10
241.353747
 20
429.838146
 30
0.0
  0
LWPOLYLINE
  5
1eb
100
AcDbEntity
  8
0
 62
7
100
AcDbPolyline
 90
2
 70
0
 10
228.325163
 20
420.818359
 30
0.0
 10
237.344949
 20
429.838146
 30
0.0
  0
SPLINE
  5
1ec
100
AcDbEntity
  8
0
 62
7
100
AcDbSpline
 70
8
 71
3
 72
8
 73
4
 74
0
 40
0
 40
0
 40
0
 40
0
 40
1
 40
1
 40
1
 40
1
 10
250.373534
 20
420.818359
 30
0.0
 10
251.483969
 20
419.707924
 30
0.0
 10
251.483963
 20
417.920001
 30
0.0
 10
250.373528
 20
416.809567
 30
0.0
  0
LWPOLYLINE
  5
1ed
100
AcDbEntity
  8
0
 62
7
100
AcDbPolyline
 90
2
 70
0
 10
241.353747
 20
429.838146
 30
0.0
 10
250.373534
 20
420.818359
 30
0.0
  0
SPLINE
  5
1ee
100
AcDbEntity
  8
0
 62
7
100
AcDbSpline
 70
8
 71
3
 72
8
 73
4
 74
0
 40
0
 40
0
 40
0
 40
0
 40
1
 40
1
 40
1
 40
1
 10
241.353742
 20
407.789780
 30
0.0
 10
240.243301
 20
406.679339
 30
0.0
 10
238.455384
 20
406.679339
 30
0.0
 10
237.344949
 20
407.789774
 30
0.0
  0
LWPOLYLINE
  5
1ef
100
AcDbEntity
  8
0
 62
7
100
AcDbPolyline
 90
2
 70
0
 10
250.373528
 20
416.809567
 30
0.0
 10
241.353742
 20
407.789780
 30
0.0
  0
SPLINE
  5
1f0
100
AcDbEntity
  8
0
 62
7
100
AcDbSpline
 70
8
 71
3
 72
8
 73
4
 74
0
 40
0
 40
0
 40
0
 40
0
 40
1
 40
1
 40
1
 40
1
 10
228.325163
 20
416.809561
 30
0.0
 10
227.214722
 20
417.920001
 30
0.0
 10
227.214722
 20
419.707918
 30
0.0
 10
228.325163
 20
420.818359
 30
0.0
  0
LWPOLYLINE
  5
1f1
100
AcDbEntity
  8
0
 62
7
100
AcDbPolyline
 90
2
 70
0
 10
237.344949
 20
407.789774
 30
0.0
 10
228.325163
 20
416.809561
 30
0.0
  0
LWPOLYLINE
  5
1f2
100
AcDbEntity
  8
0
 62
7
100
AcDbPolyline
 90
1
 70
1
 10
228.325163
 20
420.818359
 30
0.0
  0
SPLINE
  5
1f3
100
AcDbEntity
  8
0
 62
7
100
AcDbSpline
 70
8
 71
3
 72
8
 73
4
 74
0
 40
0
 40
0
 40
0
 40
0
 40
1
 40
1
 40
1
 40
1
 10
253.671486
 20
446.164682
 30
0.0
 10
254.781921
 20
447.275117
 30
0.0
 10
256.569843
 20
447.275123
 30
0.0
 10
257.680284
 20
446.164682
 30
0.0
  0
LWPOLYLINE
  5
1f4
100
AcDbEntity
  8
0
 62
7
100
AcDbPolyline
 90
2
 70
0
 10
244.651699
 20
437.144895
 30
0.0
 10
253.671486
 20
446.164682
 30
0.0
  0
SPLINE
  5
1f5
100
AcDbEntity
  8
0
 62
7
100
AcDbSpline
 70
8
 71
3
 72
8
 73
4
 74
0
 40
0
 40
0
 40
0
 40
0
 40
1
 40
1
 40
1
 40
1
 10
266.700071
 20
437.144895
 30
0.0
 10
267.810506
 20
436.034460
 30
0.0
 10
267.810500
 20
434.246538
 30
0.0
 10
266.700065
 20
433.136103
 30
0.0
  0
LWPOLYLINE
  5
1f6
100
AcDbEntity
  8
0
 62
7
100
AcDbPolyline
 90
2
 70
0
 10
257.680284
 20
446.164682
 30
0.0
 10
266.700071
 20
437.144895
 30
0.0
  0
SPLINE
  5
1f7
100
AcDbEntity
  8
0
 62
7
100
AcDbSpline
 70
8
 71
3
 72
8
 73
4
 74
0
 40
0
 40
0
 40
0
 40
0
 40
1
 40
1
 40
1
 40
1
 10
257.680278
 20
424.116316
 30
0.0
 10
256.569843
 20
423.005881
 30
0.0
 10
254.781921
 20
423.005876
 30
0.0
 10
253.671486
 20
424.116311
 30
0.0
  0
LWPOLYLINE
  5
1f8
100
AcDbEntity
  8
0
 62
7
100
AcDbPolyline
 90
2
 70
0
 10
266.700065
 20
433.136103
 30
0.0
 10
257.680278
 20
424.116316
 30
0.0
  0
SPLINE
  5
1f9
100
AcDbEntity
  8
0
 62
7
100
AcDbSpline
 70
8
 71
3
 72
8
 73
4
 74
0
 40
0
 40
0
 40
0
 40
0
 40
1
 40
1
 40
1
 40
1
 10
244.651699
 20
433.136097
 30
0.0
 10
243.541259
 20
434.246538
 30
0.0
 10
243.541264
 20
436.034460
 30
0.0
 10
244.651699
 20
437.144895
 30
0.0
  0
LWPOLYLINE
  5
1fa
100
AcDbEntity
  8
0
 62
7
100
AcDbPolyline
 90
2
 70
0
 10
253.671486
 20
424.116311
 30
0.0
 10
244.651699
 20
433.136097
 30
0.0
  0
LWPOLYLINE
  5
1fb
100
AcDbEntity
  8
0
 62
7
100
AcDbPolyline
 90
1
 70
1
 10
244.651699
 20
437.144895
 30
0.0
  0
SPLINE
  5
1fc
100
AcDbEntity
  8
0
 62
7
100
AcDbSpline
 70
8
 71
3
 72
8
 73
4
 74
0
 40
0
 40
0
 40
0
 40
0
 40
1
 40
1
 40
1
 40
1
 10
269.998006
 20
462.491202
 30
0.0
 10
271.108440
 20
463.601637
 30
0.0
 10
272.896363
 20
463.601642
 30
0.0
 10
274.006803
 20
462.491202
 30
0.0
  0
LWPOLYLINE
  5
1fd
100
AcDbEntity
  8
0
 62
7
100
AcDbPolyline
 90
2
 70
0
 10
260.978219
 20
453.471415
 30
0.0
 10
269.998006
 20
462.491202
 30
0.0
  0
SPLINE
  5
1fe
100
AcDbEntity
  8
0
 62
7
100
AcDbSpline
 70
8
 71
3
 72
8
 73
4
 74
0
 40
0
 40
0
 40
0
 40
0
 40
1
 40
1
 40
1
 40
1
 10
283.026590
 20
453.471415
 30
0.0
 10
284.137025
 20
452.360980
 30
0.0
 10
284.137020
 20
450.573058
 30
0.0
 10
283.026585
 20
449.462623
 30
0.0
  0
LWPOLYLINE
  5
1ff
100
AcDbEntity
  8
0
 62
7
100
AcDbPolyline
 90
2
 70
0
 10
274.006803
 20
462.491202
 30
0.0
 10
283.026590
 20
453.471415
 30
0.0
  0
SPLINE
  5
200
100
AcDbEntity
  8
0
 62
7
100
AcDbSpline
 70
8
 71
3
 72
8
 73
4
 74
0
 40
0
 40
0
 40
0
 40
0
 40
1
 40
1
 40
1
 40
1
 10
274.006798
 20
440.442836
 30
0.0
 10
272.896363
 20
439.332401
 30
0.0
 10
271.108440
 20
439.332395
 30
0.0
 10
269.998006
 20
440.442830
 30
0.0
  0
LWPOLYLINE
  5
201
100
AcDbEntity
  8
0
 62
7
100
AcDbPolyline
 90
2
 70
0
 10
283.026585
 20
449.462623
 30
0.0
 10
274.006798
 20
440.442836
 30
0.0
  0
SPLINE
  5
202
100
AcDbEntity
  8
0
 62
7
100
AcDbSpline
 70
8
 71
3
 72
8
 73
4
 74
0
 40
0
 40
0
 40
0
 40
0
 40
1
 40
1
 40
1
 40
1
 10
260.978219
 20
449.462617
 30
0.0
 10
259.867778
 20
450.573058
 30
0.0
 10
259.867784
 20
452.360980
 30
0.0
 10
260.978219
 20
453.471415
 30
0.0
  0
LWPOLYLINE
  5
203
100
AcDbEntity
  8
0
 62
7
100
AcDbPolyline
 90
2
 70
0
 10
269.998006
 20
440.442830
 30
0.0
 10
260.978219
 20
449.462617
 30
0.0
  0
LWPOLYLINE
  5
204
100
AcDbEntity
  8
0
 62
7
100
AcDbPolyline
 90
1
 70
1
 10
260.978219
 20
453.471415
 30
0.0
  0
SPLINE
  5
205
100
AcDbEntity
  8
0
 62
7
100
AcDbSpline
 70
8
 71
3
 72
8
 73
4
 74
0
 40
0
 40
0
 40
0
 40
0
 40
1
 40
1
 40
1
 40
1
 10
286.324542
 20
478.817738
 30
0.0
 10
287.434977
 20
479.928173
 30
0.0
 10
289.222900
 20
479.928179
 30
0.0
 10
290.333340
 20
478.817738
 30
0.0
  0
LWPOLYLINE
  5
206
100
AcDbEntity
  8
0
 62
7
100
AcDbPolyline
 90
2
 70
0
 10
277.304755
 20
469.797952
 30
0.0
 10
286.324542
 20
478.817738
 30
0.0
  0
SPLINE
  5
207
100
AcDbEntity
  8
0
 62
7
100
AcDbSpline
 70
8
 71
3
 72
8
 73
4
 74
0
 40
0
 40
0
 40
0
 40
0
 40
1
 40
1
 40
1
 40
1
 10
299.353127
 20
469.797952
 30
0.0
 10
300.463562
 20
468.687517
 30
0.0
 10
300.463556
 20
466.899594
 30
0.0
 10
299.353121
 20
465.789159
 30
0.0
  0
LWPOLYLINE
  5
208
100
AcDbEntity
  8
0
 62
7
100
AcDbPolyline
 90
2
 70
0
 10
290.333340
 20
478.817738
 30
0.0
 10
299.353127
 20
469.797952
 30
0.0
  0
SPLINE
  5
209
100
AcDbEntity
  8
0
 62
7
100
AcDbSpline
 70
8
 71
3
 72
8
 73
4
 74
0
 40
0
 40
0
 40
0
 40
0
 40
1
 40
1
 40
1
 40
1
 10
290.333334
 20
456.769373
 30
0.0
 10
289.222900
 20
455.658938
 30
0.0
 10
287.434977
 20
455.658932
 30
0.0
 10
286.324542
 20
456.769367
 30
0.0
  0
LWPOLYLINE
  5
20a
100
AcDbEntity
  8
0
 62
7
100
AcDbPolyline
 90
2
 70
0
 10
299.353121
 20
465.789159
 30
0.0
 10
290.333334
 20
456.769373
 30
0.0
  0
SPLINE
  5
20b
100
AcDbEntity
  8
0
 62
7
100
AcDbSpline
 70
8
 71
3
 72
8
 73
4
 74
0
 40
0
 40
0
 40
0
 40
0
 40
1
 40
1
 40
1
 40
1
 10
277.304755
 20
465.789154
 30
0.0
 10
276.194315
 20
466.899594
 30
0.0
 10
276.194320
 20
468.687517
 30
0.0
 10
277.304755
 20
469.797952
 30
0.0
  0
LWPOLYLINE
  5
20c
100
AcDbEntity
  8
0
 62
7
100
AcDbPolyline
 90
2
 70
0
 10
286.324542
 20
456.769367
 30
0.0
 10
277.304755
 20
465.789154
 30
0.0
  0
LWPOLYLINE
  5
20d
100
AcDbEntity
  8
0
 62
7
100
AcDbPolyline
 90
1
 70
1
 10
277.304755
 20
469.797952
 30
0.0
  0
SPLINE
  5
20e
100
AcDbEntity
  8
0
 62
7
100
AcDbSpline
 70
8
 71
3
 72
8
 73
4
 74
0
 40
0
 40
0
 40
0
 40
0
 40
1
 40
1
 40
1
 40
1
 10
302.651062
 20
495.144258
 30
0.0
 10
303.761497
 20
496.254693
 30
0.0
 10
305.549419
 20
496.254699
 30
0.0
 10
306.659860
 20
495.144258
 30
0.0
  0
LWPOLYLINE
  5
20f
100
AcDbEntity
  8
0
 62
7
100
AcDbPolyline
 90
2
 70
0
 10
293.631275
 20
486.124471
 30
0.0
 10
302.651062
 20
495.144258
 30
0.0
  0
SPLINE
  5
210
100
AcDbEntity
  8
0
 62
7
100
AcDbSpline
 70
8
 71
3
 72
8
 73
4
 74
0
 40
0
 40
0
 40
0
 40
0
 40
1
 40
1
 40
1
 40
1
 10
315.679647
 20
486.124471
 30
0.0
 10
316.790081
 20
485.014036
 30
0.0
 10
316.790076
 20
483.226114
 30
0.0
 10
315.679641
 20
482.115679
 30
0.0
  0
LWPOLYLINE
  5
211
100
AcDbEntity
  8
0
 62
7
100
AcDbPolyline
 90
2
 70
0
 10
306.659860
 20
495.144258
 30
0.0
 10
315.679647
 20
486.124471
 30
0.0
  0
SPLINE
  5
212
100
AcDbEntity
  8
0
 62
7
100
AcDbSpline
 70
8
 71
3
 72
8
 73
4
 74
0
 40
0
 40
0
 40
0
 40
0
 40
1
 40
1
 40
1
 40
1
 10
306.659854
 20
473.095892
 30
0.0
 10
305.549419
 20
471.985457
 30
0.0
 10
303.761497
 20
471.985452
 30
0.0
 10
302.651062
 20
473.095887
 30
0.0
  0
LWPOLYLINE
  5
213
100
AcDbEntity
  8
0
 62
7
100
AcDbPolyline
 90
2
 70
0
 10
315.679641
 20
482.115679
 30
0.0
 10
306.659854
 20
473.095892
 30
0.0
  0
SPLINE
  5
214
100
AcDbEntity
  8
0
 62
7
100
AcDbSpline
 70
8
 71
3
 72
8
 73
4
 74
0
 40
0
 40
0
 40
0
 40
0
 40
1
 40
1
 40
1
 40
1
 10
293.631275
 20
482.115673
 30
0.0
 10
292.520834
 20
483.226114
 30
0.0
 10
292.520840
 20
485.014036
 30
0.0
 10
293.631275
 20
486.124471
 30
0.0
  0
LWPOLYLINE
  5
215
100
AcDbEntity
  8
0
 62
7
100
AcDbPolyline
 90
2
 70
0
 10
302.651062
 20
473.095887
 30
0.0
 10
293.631275
 20
482.115673
 30
0.0
  0
LWPOLYLINE
  5
216
100
AcDbEntity
  8
0
 62
7
100
AcDbPolyline
 90
1
 70
1
 10
293.631275
 20
486.124471
 30
0.0
  0
SPLINE
  5
217
100
AcDbEntity
  8
0
 62
7
100
AcDbSpline
 70
8
 71
3
 72
8
 73
4
 74
0
 40
0
 40
0
 40
0
 40
0
 40
1
 40
1
 40
1
 40
1
 10
318.977598
 20
511.470795
 30
0.0
 10
320.088039
 20
512.581235
 30
0.0
 10
321.875956
 20
512.581235
 30
0.0
 10
322.986396
 20
511.470795
 30
0.0
  0
LWPOLYLINE
  5
218
100
AcDbEntity
  8
0
 62
7
100
AcDbPolyline
 90
2
 70
0
 10
309.957812
 20
502.451008
 30
0.0
 10
318.977598
 20
511.470795
 30
0.0
  0
SPLINE
  5
219
100
AcDbEntity
  8
0
 62
7
100
AcDbSpline
 70
8
 71
3
 72
8
 73
4
 74
0
 40
0
 40
0
 40
0
 40
0
 40
1
 40
1
 40
1
 40
1
 10
332.006183
 20
502.451008
 30
0.0
 10
333.116618
 20
501.340573
 30
0.0
 10
333.116618
 20
499.552656
 30
0.0
 10
332.006177
 20
498.442216
 30
0.0
  0
LWPOLYLINE
  5
21a
100
AcDbEntity
  8
0
 62
7
100
AcDbPolyline
 90
2
 70
0
 10
322.986396
 20
511.470795
 30
0.0
 10
332.006183
 20
502.451008
 30
0.0
  0
SPLINE
  5
21b
100
AcDbEntity
  8
0
 62
7
100
AcDbSpline
 70
8
 71
3
 72
8
 73
4
 74
0
 40
0
 40
0
 40
0
 40
0
 40
1
 40
1
 40
1
 40
1
 10
322.986391
 20
489.422429
 30
0.0
 10
321.875956
 20
488.311994
 30
0.0
 10
320.088033
 20
488.311988
 30
0.0
 10
318.977598
 20
489.422423
 30
0.0
  0
LWPOLYLINE
  5
21c
100
AcDbEntity
  8
0
 62
7
100
AcDbPolyline
 90
2
 70
0
 10
332.006177
 20
498.442216
 30
0.0
 10
322.986391
 20
489.422429
 30
0.0
  0
SPLINE
  5
21d
100
AcDbEntity
  8
0
 62
7
100
AcDbSpline
 70
8
 71
3
 72
8
 73
4
 74
0
 40
0
 40
0
 40
0
 40
0
 40
1
 40
1
 40
1
 40
1
 10
309.957812
 20
498.442210
 30
0.0
 10
308.847371
 20
499.552650
 30
0.0
 10
308.847377
 20
501.340573
 30
0.0
 10
309.957812
 20
502.451008
 30
0.0
  0
LWPOLYLINE
  5
21e
100
AcDbEntity
  8
0
 62
7
100
AcDbPolyline
 90
2
 70
0
 10
318.977598
 20
489.422423
 30
0.0
 10
309.957812
 20
498.442210
 30
0.0
  0
LWPOLYLINE
  5
21f
100
AcDbEntity
  8
0
 62
7
100
AcDbPolyline
 90
1
 70
1
 10
309.957812
 20
502.451008
 30
0.0
  0
SPLINE
  5
220
100
AcDbEntity
  8
0
 62
7
100
AcDbSpline
 70
8
 71
3
 72
8
 73
4
 74
0
 40
0
 40
0
 40
0
 40
0
 40
1
 40
1
 40
1
 40
1
 10
221.299394
 20
380.577589
 30
0.0
 10
222.409829
 20
381.688024
 30
0.0
 10
224.197745
 20
381.688024
 30
0.0
 10
225.308186
 20
380.577583
 30
0.0
  0
LWPOLYLINE
  5
221
100
AcDbEntity
  8
0
 62
7
100
AcDbPolyline
 90
2
 70
0
 10
212.279601
 20
371.557796
 30
0.0
 10
221.299394
 20
380.577589
 30
0.0
  0
SPLINE
  5
222
100
AcDbEntity
  8
0
 62
7
100
AcDbSpline
 70
8
 71
3
 72
8
 73
4
 74
0
 40
0
 40
0
 40
0
 40
0
 40
1
 40
1
 40
1
 40
1
 10
234.327973
 20
371.557796
 30
0.0
 10
235.438408
 20
370.447361
 30
0.0
 10
235.438408
 20
368.659444
 30
0.0
 10
234.327973
 20
367.549010
 30
0.0
  0
LWPOLYLINE
  5
223
100
AcDbEntity
  8
0
 62
7
100
AcDbPolyline
 90
2
 70
0
 10
225.308186
 20
380.577583
 30
0.0
 10
234.327973
 20
371.557796
 30
0.0
  0
SPLINE
  5
224
100
AcDbEntity
  8
0
 62
7
100
AcDbSpline
 70
8
 71
3
 72
8
 73
4
 74
0
 40
0
 40
0
 40
0
 40
0
 40
1
 40
1
 40
1
 40
1
 10
225.308180
 20
358.529217
 30
0.0
 10
224.197745
 20
357.418782
 30
0.0
 10
222.409829
 20
357.418782
 30
0.0
 10
221.299394
 20
358.529217
 30
0.0
  0
LWPOLYLINE
  5
225
100
AcDbEntity
  8
0
 62
7
100
AcDbPolyline
 90
2
 70
0
 10
234.327973
 20
367.549010
 30
0.0
 10
225.308180
 20
358.529217
 30
0.0
  0
SPLINE
  5
226
100
AcDbEntity
  8
0
 62
7
100
AcDbSpline
 70
8
 71
3
 72
8
 73
4
 74
0
 40
0
 40
0
 40
0
 40
0
 40
1
 40
1
 40
1
 40
1
 10
212.279607
 20
367.549004
 30
0.0
 10
211.169166
 20
368.659444
 30
0.0
 10
211.169166
 20
370.447361
 30
0.0
 10
212.279601
 20
371.557796
 30
0.0
  0
LWPOLYLINE
  5
227
100
AcDbEntity
  8
0
 62
7
100
AcDbPolyline
 90
2
 70
0
 10
221.299394
 20
358.529217
 30
0.0
 10
212.279607
 20
367.549004
 30
0.0
  0
LWPOLYLINE
  5
228
100
AcDbEntity
  8
0
 62
7
100
AcDbPolyline
 90
1
 70
1
 10
212.279601
 20
371.557796
 30
0.0
  0
SPLINE
  5
229
100
AcDbEntity
  8
0
 62
7
100
AcDbSpline
 70
8
 71
3
 72
8
 73
4
 74
0
 40
0
 40
0
 40
0
 40
0
 40
1
 40
1
 40
1
 40
1
 10
237.625913
 20
396.904108
 30
0.0
 10
238.736348
 20
398.014543
 30
0.0
 10
240.524265
 20
398.014543
 30
0.0
 10
241.634706
 20
396.904103
 30
0.0
  0
LWPOLYLINE
  5
22a
100
AcDbEntity
  8
0
 62
7
100
AcDbPolyline
 90
2
 70
0
 10
228.606121
 20
387.884316
 30
0.0
 10
237.625913
 20
396.904108
 30
0.0
  0
SPLINE
  5
22b
100
AcDbEntity
  8
0
 62
7
100
AcDbSpline
 70
8
 71
3
 72
8
 73
4
 74
0
 40
0
 40
0
 40
0
 40
0
 40
1
 40
1
 40
1
 40
1
 10
250.654492
 20
387.884316
 30
0.0
 10
251.764927
 20
386.773881
 30
0.0
 10
251.764927
 20
384.985964
 30
0.0
 10
250.654492
 20
383.875529
 30
0.0
  0
LWPOLYLINE
  5
22c
100
AcDbEntity
  8
0
 62
7
100
AcDbPolyline
 90
2
 70
0
 10
241.634706
 20
396.904103
 30
0.0
 10
250.654492
 20
387.884316
 30
0.0
  0
SPLINE
  5
22d
100
AcDbEntity
  8
0
 62
7
100
AcDbSpline
 70
8
 71
3
 72
8
 73
4
 74
0
 40
0
 40
0
 40
0
 40
0
 40
1
 40
1
 40
1
 40
1
 10
241.634700
 20
374.855737
 30
0.0
 10
240.524265
 20
373.745302
 30
0.0
 10
238.736348
 20
373.745302
 30
0.0
 10
237.625913
 20
374.855737
 30
0.0
  0
LWPOLYLINE
  5
22e
100
AcDbEntity
  8
0
 62
7
100
AcDbPolyline
 90
2
 70
0
 10
250.654492
 20
383.875529
 30
0.0
 10
241.634700
 20
374.855737
 30
0.0
  0
SPLINE
  5
22f
100
AcDbEntity
  8
0
 62
7
100
AcDbSpline
 70
8
 71
3
 72
8
 73
4
 74
0
 40
0
 40
0
 40
0
 40
0
 40
1
 40
1
 40
1
 40
1
 10
228.606127
 20
383.875524
 30
0.0
 10
227.495686
 20
384.985964
 30
0.0
 10
227.495686
 20
386.773881
 30
0.0
 10
228.606121
 20
387.884316
 30
0.0
  0
LWPOLYLINE
  5
230
100
AcDbEntity
  8
0
 62
7
100
AcDbPolyline
 90
2
 70
0
 10
237.625913
 20
374.855737
 30
0.0
 10
228.606127
 20
383.875524
 30
0.0
  0
LWPOLYLINE
  5
231
100
AcDbEntity
  8
0
 62
7
100
AcDbPolyline
 90
1
 70
1
 10
228.606121
 20
387.884316
 30
0.0
  0
SPLINE
  5
232
100
AcDbEntity
  8
0
 62
7
100
AcDbSpline
 70
8
 71
3
 72
8
 73
4
 74
0
 40
0
 40
0
 40
0
 40
0
 40
1
 40
1
 40
1
 40
1
 10
253.952450
 20
413.230645
 30
0.0
 10
255.062885
 20
414.341080
 30
0.0
 10
256.850807
 20
414.341085
 30
0.0
 10
257.961248
 20
413.230645
 30
0.0
  0
LWPOLYLINE
  5
233
100
AcDbEntity
  8
0
 62
7
100
AcDbPolyline
 90
2
 70
0
 10
244.932663
 20
404.210858
 30
0.0
 10
253.952450
 20
413.230645
 30
0.0
  0
SPLINE
  5
234
100
AcDbEntity
  8
0
 62
7
100
AcDbSpline
 70
8
 71
3
 72
8
 73
4
 74
0
 40
0
 40
0
 40
0
 40
0
 40
1
 40
1
 40
1
 40
1
 10
266.981035
 20
404.210858
 30
0.0
 10
268.091470
 20
403.100423
 30
0.0
 10
268.091464
 20
401.312501
 30
0.0
 10
266.981029
 20
400.202066
 30
0.0
  0
LWPOLYLINE
  5
235
100
AcDbEntity
  8
0
 62
7
100
AcDbPolyline
 90
2
 70
0
 10
257.961248
 20
413.230645
 30
0.0
 10
266.981035
 20
404.210858
 30
0.0
  0
SPLINE
  5
236
100
AcDbEntity
  8
0
 62
7
100
AcDbSpline
 70
8
 71
3
 72
8
 73
4
 74
0
 40
0
 40
0
 40
0
 40
0
 40
1
 40
1
 40
1
 40
1
 10
257.961242
 20
391.182279
 30
0.0
 10
256.850802
 20
390.071838
 30
0.0
 10
255.062885
 20
390.071838
 30
0.0
 10
253.952450
 20
391.182273
 30
0.0
  0
LWPOLYLINE
  5
237
100
AcDbEntity
  8
0
 62
7
100
AcDbPolyline
 90
2
 70
0
 10
266.981029
 20
400.202066
 30
0.0
 10
257.961242
 20
391.182279
 30
0.0
  0
SPLINE
  5
238
100
AcDbEntity
  8
0
 62
7
100
AcDbSpline
 70
8
 71
3
 72
8
 73
4
 74
0
 40
0
 40
0
 40
0
 40
0
 40
1
 40
1
 40
1
 40
1
 10
244.932663
 20
400.202060
 30
0.0
 10
243.822223
 20
401.312501
 30
0.0
 10
243.822223
 20
403.100417
 30
0.0
 10
244.932663
 20
404.210858
 30
0.0
  0
LWPOLYLINE
  5
239
100
AcDbEntity
  8
0
 62
7
100
AcDbPolyline
 90
2
 70
0
 10
253.952450
 20
391.182273
 30
0.0
 10
244.932663
 20
400.202060
 30
0.0
  0
LWPOLYLINE
  5
23a
100
AcDbEntity
  8
0
 62
7
100
AcDbPolyline
 90
1
 70
1
 10
244.932663
 20
404.210858
 30
0.0
  0
SPLINE
  5
23b
100
AcDbEntity
  8
0
 62
7
100
AcDbSpline
 70
8
 71
3
 72
8
 73
4
 74
0
 40
0
 40
0
 40
0
 40
0
 40
1
 40
1
 40
1
 40
1
 10
270.278987
 20
429.557181
 30
0.0
 10
271.389422
 20
430.667616
 30
0.0
 10
273.177344
 20
430.667622
 30
0.0
 10
274.287785
 20
429.557181
 30
0.0
  0
LWPOLYLINE
  5
23c
100
AcDbEntity
  8
0
 62
7
100
AcDbPolyline
 90
2
 70
0
 10
261.259200
 20
420.537395
 30
0.0
 10
270.278987
 20
429.557181
 30
0.0
  0
SPLINE
  5
23d
100
AcDbEntity
  8
0
 62
7
100
AcDbSpline
 70
8
 71
3
 72
8
 73
4
 74
0
 40
0
 40
0
 40
0
 40
0
 40
1
 40
1
 40
1
 40
1
 10
283.307571
 20
420.537395
 30
0.0
 10
284.418006
 20
419.426960
 30
0.0
 10
284.418001
 20
417.639037
 30
0.0
 10
283.307566
 20
416.528602
 30
0.0
  0
LWPOLYLINE
  5
23e
100
AcDbEntity
  8
0
 62
7
100
AcDbPolyline
 90
2
 70
0
 10
274.287785
 20
429.557181
 30
0.0
 10
283.307571
 20
420.537395
 30
0.0
  0
SPLINE
  5
23f
100
AcDbEntity
  8
0
 62
7
100
AcDbSpline
 70
8
 71
3
 72
8
 73
4
 74
0
 40
0
 40
0
 40
0
 40
0
 40
1
 40
1
 40
1
 40
1
 10
274.287779
 20
407.508816
 30
0.0
 10
273.177344
 20
406.398381
 30
0.0
 10
271.389422
 20
406.398375
 30
0.0
 10
270.278987
 20
407.508810
 30
0.0
  0
LWPOLYLINE
  5
240
100
AcDbEntity
  8
0
 62
7
100
AcDbPolyline
 90
2
 70
0
 10
283.307566
 20
416.528602
 30
0.0
 10
274.287779
 20
407.508816
 30
0.0
  0
SPLINE
  5
241
100
AcDbEntity
  8
0
 62
7
100
AcDbSpline
 70
8
 71
3
 72
8
 73
4
 74
0
 40
0
 40
0
 40
0
 40
0
 40
1
 40
1
 40
1
 40
1
 10
261.259200
 20
416.528597
 30
0.0
 10
260.148759
 20
417.639037
 30
0.0
 10
260.148765
 20
419.426960
 30
0.0
 10
261.259200
 20
420.537395
 30
0.0
  0
LWPOLYLINE
  5
242
100
AcDbEntity
  8
0
 62
7
100
AcDbPolyline
 90
2
 70
0
 10
270.278987
 20
407.508810
 30
0.0
 10
261.259200
 20
416.528597
 30
0.0
  0
LWPOLYLINE
  5
243
100
AcDbEntity
  8
0
 62
7
100
AcDbPolyline
 90
1
 70
1
 10
261.259200
 20
420.537395
 30
0.0
  0
SPLINE
  5
244
100
AcDbEntity
  8
0
 62
7
100
AcDbSpline
 70
8
 71
3
 72
8
 73
4
 74
0
 40
0
 40
0
 40
0
 40
0
 40
1
 40
1
 40
1
 40
1
 10
286.605506
 20
445.883701
 30
0.0
 10
287.715941
 20
446.994136
 30
0.0
 10
289.503864
 20
446.994142
 30
0.0
 10
290.614304
 20
445.883701
 30
0.0
  0
LWPOLYLINE
  5
245
100
AcDbEntity
  8
0
 62
7
100
AcDbPolyline
 90
2
 70
0
 10
277.585719
 20
436.863914
 30
0.0
 10
286.605506
 20
445.883701
 30
0.0
  0
SPLINE
  5
246
100
AcDbEntity
  8
0
 62
7
100
AcDbSpline
 70
8
 71
3
 72
8
 73
4
 74
0
 40
0
 40
0
 40
0
 40
0
 40
1
 40
1
 40
1
 40
1
 10
299.634091
 20
436.863914
 30
0.0
 10
300.744526
 20
435.753479
 30
0.0
 10
300.744520
 20
433.965557
 30
0.0
 10
299.634085
 20
432.855122
 30
0.0
  0
LWPOLYLINE
  5
247
100
AcDbEntity
  8
0
 62
7
100
AcDbPolyline
 90
2
 70
0
 10
290.614304
 20
445.883701
 30
0.0
 10
299.634091
 20
436.863914
 30
0.0
  0
SPLINE
  5
248
100
AcDbEntity
  8
0
 62
7
100
AcDbSpline
 70
8
 71
3
 72
8
 73
4
 74
0
 40
0
 40
0
 40
0
 40
0
 40
1
 40
1
 40
1
 40
1
 10
290.614299
 20
423.835335
 30
0.0
 10
289.503864
 20
422.724900
 30
0.0
 10
287.715941
 20
422.724895
 30
0.0
 10
286.605506
 20
423.835330
 30
0.0
  0
LWPOLYLINE
  5
249
100
AcDbEntity
  8
0
 62
7
100
AcDbPolyline
 90
2
 70
0
 10
299.634085
 20
432.855122
 30
0.0
 10
290.614299
 20
423.835335
 30
0.0
  0
SPLINE
  5
24a
100
AcDbEntity
  8
0
 62
7
100
AcDbSpline
 70
8
 71
3
 72
8
 73
4
 74
0
 40
0
 40
0
 40
0
 40
0
 40
1
 40
1
 40
1
 40
1
 10
277.585719
 20
432.855116
 30
0.0
 10
276.475279
 20
433.965557
 30
0.0
 10
276.475285
 20
435.753479
 30
0.0
 10
277.585719
 20
436.863914
 30
0.0
  0
LWPOLYLINE
  5
24b
100
AcDbEntity
  8
0
 62
7
100
AcDbPolyline
 90
2
 70
0
 10
286.605506
 20
423.835330
 30
0.0
 10
277.585719
 20
432.855116
 30
0.0
  0
LWPOLYLINE
  5
24c
100
AcDbEntity
  8
0
 62
7
100
AcDbPolyline
 90
1
 70
1
 10
277.585719
 20
436.863914
 30
0.0
  0
SPLINE
  5
24d
100
AcDbEntity
  8
0
 62
7
100
AcDbSpline
 70
8
 71
3
 72
8
 73
4
 74
0
 40
0
 40
0
 40
0
 40
0
 40
1
 40
1
 40
1
 40
1
 10
302.932043
 20
462.210238
 30
0.0
 10
304.042478
 20
463.320673
 30
0.0
 10
305.830400
 20
463.320678
 30
0.0
 10
306.940841
 20
462.210238
 30
0.0
  0
LWPOLYLINE
  5
24e
100
AcDbEntity
  8
0
 62
7
100
AcDbPolyline
 90
2
 70
0
 10
293.912256
 20
453.190451
 30
0.0
 10
302.932043
 20
462.210238
 30
0.0
  0
SPLINE
  5
24f
100
AcDbEntity
  8
0
 62
7
100
AcDbSpline
 70
8
 71
3
 72
8
 73
4
 74
0
 40
0
 40
0
 40
0
 40
0
 40
1
 40
1
 40
1
 40
1
 10
315.960628
 20
453.190451
 30
0.0
 10
317.071062
 20
452.080016
 30
0.0
 10
317.071057
 20
450.292094
 30
0.0
 10
315.960622
 20
449.181659
 30
0.0
  0
LWPOLYLINE
  5
250
100
AcDbEntity
  8
0
 62
7
100
AcDbPolyline
 90
2
 70
0
 10
306.940841
 20
462.210238
 30
0.0
 10
315.960628
 20
453.190451
 30
0.0
  0
SPLINE
  5
251
100
AcDbEntity
  8
0
 62
7
100
AcDbSpline
 70
8
 71
3
 72
8
 73
4
 74
0
 40
0
 40
0
 40
0
 40
0
 40
1
 40
1
 40
1
 40
1
 10
306.940835
 20
440.161872
 30
0.0
 10
305.830400
 20
439.051437
 30
0.0
 10
304.042478
 20
439.051431
 30
0.0
 10
302.932043
 20
440.161866
 30
0.0
  0
LWPOLYLINE
  5
252
100
AcDbEntity
  8
0
 62
7
100
AcDbPolyline
 90
2
 70
0
 10
315.960622
 20
449.181659
 30
0.0
 10
306.940835
 20
440.161872
 30
0.0
  0
SPLINE
  5
253
100
AcDbEntity
  8
0
 62
7
100
AcDbSpline
 70
8
 71
3
 72
8
 73
4
 74
0
 40
0
 40
0
 40
0
 40
0
 40
1
 40
1
 40
1
 40
1
 10
293.912256
 20
449.181653
 30
0.0
 10
292.801815
 20
450.292094
 30
0.0
 10
292.801821
 20
452.080016
 30
0.0
 10
293.912256
 20
453.190451
 30
0.0
  0
LWPOLYLINE
  5
254
100
AcDbEntity
  8
0
 62
7
100
AcDbPolyline
 90
2
 70
0
 10
302.932043
 20
440.161866
 30
0.0
 10
293.912256
 20
449.181653
 30
0.0
  0
LWPOLYLINE
  5
255
100
AcDbEntity
  8
0
 62
7
100
AcDbPolyline
 90
1
 70
1
 10
293.912256
 20
453.190451
 30
0.0
  0
SPLINE
  5
256
100
AcDbEntity
  8
0
 62
7
100
AcDbSpline
 70
8
 71
3
 72
8
 73
4
 74
0
 40
0
 40
0
 40
0
 40
0
 40
1
 40
1
 40
1
 40
1
 10
319.258562
 20
478.536757
 30
0.0
 10
320.368997
 20
479.647192
 30
0.0
 10
322.156920
 20
479.647198
 30
0.0
 10
323.267360
 20
478.536757
 30
0.0
  0
LWPOLYLINE
  5
257
100
AcDbEntity
  8
0
 62
7
100
AcDbPolyline
 90
2
 70
0
 10
310.238776
 20
469.516971
 30
0.0
 10
319.258562
 20
478.536757
 30
0.0
  0
SPLINE
  5
258
100
AcDbEntity
  8
0
 62
7
100
AcDbSpline
 70
8
 71
3
 72
8
 73
4
 74
0
 40
0
 40
0
 40
0
 40
0
 40
1
 40
1
 40
1
 40
1
 10
332.287147
 20
469.516971
 30
0.0
 10
333.397582
 20
468.406536
 30
0.0
 10
333.397576
 20
466.618613
 30
0.0
 10
332.287142
 20
465.508178
 30
0.0
  0
LWPOLYLINE
  5
259
100
AcDbEntity
  8
0
 62
7
100
AcDbPolyline
 90
2
 70
0
 10
323.267360
 20
478.536757
 30
0.0
 10
332.287147
 20
469.516971
 30
0.0
  0
SPLINE
  5
25a
100
AcDbEntity
  8
0
 62
7
100
AcDbSpline
 70
8
 71
3
 72
8
 73
4
 74
0
 40
0
 40
0
 40
0
 40
0
 40
1
 40
1
 40
1
 40
1
 10
323.267355
 20
456.488391
 30
0.0
 10
322.156920
 20
455.377957
 30
0.0
 10
320.368997
 20
455.377951
 30
0.0
 10
319.258562
 20
456.488386
 30
0.0
  0
LWPOLYLINE
  5
25b
100
AcDbEntity
  8
0
 62
7
100
AcDbPolyline
 90
2
 70
0
 10
332.287142
 20
465.508178
 30
0.0
 10
323.267355
 20
456.488391
 30
0.0
  0
SPLINE
  5
25c
100
AcDbEntity
  8
0
 62
7
100
AcDbSpline
 70
8
 71
3
 72
8
 73
4
 74
0
 40
0
 40
0
 40
0
 40
0
 40
1
 40
1
 40
1
 40
1
 10
310.238776
 20
465.508173
 30
0.0
 10
309.128335
 20
466.618613
 30
0.0
 10
309.128341
 20
468.406536
 30
0.0
 10
310.238776
 20
469.516971
 30
0.0
  0
LWPOLYLINE
  5
25d
100
AcDbEntity
  8
0
 62
7
100
AcDbPolyline
 90
2
 70
0
 10
319.258562
 20
456.488386
 30
0.0
 10
310.238776
 20
465.508173
 30
0.0
  0
LWPOLYLINE
  5
25e
100
AcDbEntity
  8
0
 62
7
100
AcDbPolyline
 90
1
 70
1
 10
310.238776
 20
469.516971
 30
0.0
  0
SPLINE
  5
25f
100
AcDbEntity
  8
0
 62
7
100
AcDbSpline
 70
8
 71
3
 72
8
 73
4
 74
0
 40
0
 40
0
 40
0
 40
0
 40
1
 40
1
 40
1
 40
1
 10
335.585099
 20
494.863294
 30
0.0
 10
336.695540
 20
495.973734
 30
0.0
 10
338.483456
 20
495.973734
 30
0.0
 10
339.593897
 20
494.863294
 30
0.0
  0
LWPOLYLINE
  5
260
100
AcDbEntity
  8
0
 62
7
100
AcDbPolyline
 90
2
 70
0
 10
326.565312
 20
485.843507
 30
0.0
 10
335.585099
 20
494.863294
 30
0.0
  0
SPLINE
  5
261
100
AcDbEntity
  8
0
 62
7
100
AcDbSpline
 70
8
 71
3
 72
8
 73
4
 74
0
 40
0
 40
0
 40
0
 40
0
 40
1
 40
1
 40
1
 40
1
 10
348.613684
 20
485.843507
 30
0.0
 10
349.724119
 20
484.733072
 30
0.0
 10
349.724119
 20
482.945155
 30
0.0
 10
348.613678
 20
481.834715
 30
0.0
  0
LWPOLYLINE
  5
262
100
AcDbEntity
  8
0
 62
7
100
AcDbPolyline
 90
2
 70
0
 10
339.593897
 20
494.863294
 30
0.0
 10
348.613684
 20
485.843507
 30
0.0
  0
SPLINE
  5
263
100
AcDbEntity
  8
0
 62
7
100
AcDbSpline
 70
8
 71
3
 72
8
 73
4
 74
0
 40
0
 40
0
 40
0
 40
0
 40
1
 40
1
 40
1
 40
1
 10
339.593891
 20
472.814928
 30
0.0
 10
338.483456
 20
471.704493
 30
0.0
 10
336.695534
 20
471.704488
 30
0.0
 10
335.585099
 20
472.814922
 30
0.0
  0
LWPOLYLINE
  5
264
100
AcDbEntity
  8
0
 62
7
100
AcDbPolyline
 90
2
 70
0
 10
348.613678
 20
481.834715
 30
0.0
 10
339.593891
 20
472.814928
 30
0.0
  0
SPLINE
  5
265
100
AcDbEntity
  8
0
 62
7
100
AcDbSpline
 70
8
 71
3
 72
8
 73
4
 74
0
 40
0
 40
0
 40
0
 40
0
 40
1
 40
1
 40
1
 40
1
 10
326.565312
 20
481.834709
 30
0.0
 10
325.454872
 20
482.945150
 30
0.0
 10
325.454877
 20
484.733072
 30
0.0
 10
326.565312
 20
485.843507
 30
0.0
  0
LWPOLYLINE
  5
266
100
AcDbEntity
  8
0
 62
7
100
AcDbPolyline
 90
2
 70
0
 10
335.585099
 20
472.814922
 30
0.0
 10
326.565312
 20
481.834709
 30
0.0
  0
LWPOLYLINE
  5
267
100
AcDbEntity
  8
0
 62
7
100
AcDbPolyline
 90
1
 70
1
 10
326.565312
 20
485.843507
 30
0.0
  0
SPLINE
  5
268
100
AcDbEntity
  8
0
 62
7
100
AcDbSpline
 70
8
 71
3
 72
8
 73
4
 74
0
 40
0
 40
0
 40
0
 40
0
 40
1
 40
1
 40
1
 40
1
 10
237.906901
 20
363.970082
 30
0.0
 10
239.017336
 20
365.080517
 30
0.0
 10
240.805252
 20
365.080517
 30
0.0
 10
241.915693
 20
363.970076
 30
0.0
  0
LWPOLYLINE
  5
269
100
AcDbEntity
  8
0
 62
7
100
AcDbPolyline
 90
2
 70
0
 10
228.887108
 20
354.950289
 30
0.0
 10
237.906901
 20
363.970082
 30
0.0
  0
SPLINE
  5
26a
100
AcDbEntity
  8
0
 62
7
100
AcDbSpline
 70
8
 71
3
 72
8
 73
4
 74
0
 40
0
 40
0
 40
0
 40
0
 40
1
 40
1
 40
1
 40
1
 10
250.935480
 20
354.950289
 30
0.0
 10
252.045915
 20
353.839854
 30
0.0
 10
252.045915
 20
352.051938
 30
0.0
 10
250.935480
 20
350.941503
 30
0.0
  0
LWPOLYLINE
  5
26b
100
AcDbEntity
  8
0
 62
7
100
AcDbPolyline
 90
2
 70
0
 10
241.915693
 20
363.970076
 30
0.0
 10
250.935480
 20
354.950289
 30
0.0
  0
SPLINE
  5
26c
100
AcDbEntity
  8
0
 62
7
100
AcDbSpline
 70
8
 71
3
 72
8
 73
4
 74
0
 40
0
 40
0
 40
0
 40
0
 40
1
 40
1
 40
1
 40
1
 10
241.915687
 20
341.921710
 30
0.0
 10
240.805252
 20
340.811275
 30
0.0
 10
239.017336
 20
340.811275
 30
0.0
 10
237.906901
 20
341.921710
 30
0.0
  0
LWPOLYLINE
  5
26d
100
AcDbEntity
  8
0
 62
7
100
AcDbPolyline
 90
2
 70
0
 10
250.935480
 20
350.941503
 30
0.0
 10
241.915687
 20
341.921710
 30
0.0
  0
SPLINE
  5
26e
100
AcDbEntity
  8
0
 62
7
100
AcDbSpline
 70
8
 71
3
 72
8
 73
4
 74
0
 40
0
 40
0
 40
0
 40
0
 40
1
 40
1
 40
1
 40
1
 10
228.887114
 20
350.941497
 30
0.0
 10
227.776673
 20
352.051938
 30
0.0
 10
227.776673
 20
353.839854
 30
0.0
 10
228.887108
 20
354.950289
 30
0.0
  0
LWPOLYLINE
  5
26f
100
AcDbEntity
  8
0
 62
7
100
AcDbPolyline
 90
2
 70
0
 10
237.906901
 20
341.921710
 30
0.0
 10
228.887114
 20
350.941497
 30
0.0
  0
LWPOLYLINE
  5
270
100
AcDbEntity
  8
0
 62
7
100
AcDbPolyline
 90
1
 70
1
 10
228.887108
 20
354.950289
 30
0.0
  0
SPLINE
  5
271
100
AcDbEntity
  8
0
 62
7
100
AcDbSpline
 70
8
 71
3
 72
8
 73
4
 74
0
 40
0
 40
0
 40
0
 40
0
 40
1
 40
1
 40
1
 40
1
 10
254.233420
 20
380.296601
 30
0.0
 10
255.343855
 20
381.407036
 30
0.0
 10
257.131772
 20
381.407036
 30
0.0
 10
258.242213
 20
380.296596
 30
0.0
  0
LWPOLYLINE
  5
272
100
AcDbEntity
  8
0
 62
7
100
AcDbPolyline
 90
2
 70
0
 10
245.213628
 20
371.276809
 30
0.0
 10
254.233420
 20
380.296601
 30
0.0
  0
SPLINE
  5
273
100
AcDbEntity
  8
0
 62
7
100
AcDbSpline
 70
8
 71
3
 72
8
 73
4
 74
0
 40
0
 40
0
 40
0
 40
0
 40
1
 40
1
 40
1
 40
1
 10
267.261999
 20
371.276809
 30
0.0
 10
268.372434
 20
370.166374
 30
0.0
 10
268.372434
 20
368.378457
 30
0.0
 10
267.261999
 20
367.268022
 30
0.0
  0
LWPOLYLINE
  5
274
100
AcDbEntity
  8
0
 62
7
100
AcDbPolyline
 90
2
 70
0
 10
258.242213
 20
380.296596
 30
0.0
 10
267.261999
 20
371.276809
 30
0.0
  0
SPLINE
  5
275
100
AcDbEntity
  8
0
 62
7
100
AcDbSpline
 70
8
 71
3
 72
8
 73
4
 74
0
 40
0
 40
0
 40
0
 40
0
 40
1
 40
1
 40
1
 40
1
 10
258.242207
 20
358.248230
 30
0.0
 10
257.131772
 20
357.137795
 30
0.0
 10
255.343855
 20
357.137795
 30
0.0
 10
254.233420
 20
358.248230
 30
0.0
  0
LWPOLYLINE
  5
276
100
AcDbEntity
  8
0
 62
7
100
AcDbPolyline
 90
2
 70
0
 10
267.261999
 20
367.268022
 30
0.0
 10
258.242207
 20
358.248230
 30
0.0
  0
SPLINE
  5
277
100
AcDbEntity
  8
0
 62
7
100
AcDbSpline
 70
8
 71
3
 72
8
 73
4
 74
0
 40
0
 40
0
 40
0
 40
0
 40
1
 40
1
 40
1
 40
1
 10
245.213634
 20
367.268017
 30
0.0
 10
244.103193
 20
368.378457
 30
0.0
 10
244.103193
 20
370.166374
 30
0.0
 10
245.213628
 20
371.276809
 30
0.0
  0
LWPOLYLINE
  5
278
100
AcDbEntity
  8
0
 62
7
100
AcDbPolyline
 90
2
 70
0
 10
254.233420
 20
358.248230
 30
0.0
 10
245.213634
 20
367.268017
 30
0.0
  0
LWPOLYLINE
  5
279
100
AcDbEntity
  8
0
 62
7
100
AcDbPolyline
 90
1
 70
1
 10
245.213628
 20
371.276809
 30
0.0
  0
SPLINE
  5
27a
100
AcDbEntity
  8
0
 62
7
100
AcDbSpline
 70
8
 71
3
 72
8
 73
4
 74
0
 40
0
 40
0
 40
0
 40
0
 40
1
 40
1
 40
1
 40
1
 10
270.559957
 20
396.623138
 30
0.0
 10
271.670392
 20
397.733573
 30
0.0
 10
273.458314
 20
397.733579
 30
0.0
 10
274.568755
 20
396.623138
 30
0.0
  0
LWPOLYLINE
  5
27b
100
AcDbEntity
  8
0
 62
7
100
AcDbPolyline
 90
2
 70
0
 10
261.540170
 20
387.603351
 30
0.0
 10
270.559957
 20
396.623138
 30
0.0
  0
SPLINE
  5
27c
100
AcDbEntity
  8
0
 62
7
100
AcDbSpline
 70
8
 71
3
 72
8
 73
4
 74
0
 40
0
 40
0
 40
0
 40
0
 40
1
 40
1
 40
1
 40
1
 10
283.588542
 20
387.603351
 30
0.0
 10
284.698977
 20
386.492916
 30
0.0
 10
284.698971
 20
384.704994
 30
0.0
 10
283.588536
 20
383.594559
 30
0.0
  0
LWPOLYLINE
  5
27d
100
AcDbEntity
  8
0
 62
7
100
AcDbPolyline
 90
2
 70
0
 10
274.568755
 20
396.623138
 30
0.0
 10
283.588542
 20
387.603351
 30
0.0
  0
SPLINE
  5
27e
100
AcDbEntity
  8
0
 62
7
100
AcDbSpline
 70
8
 71
3
 72
8
 73
4
 74
0
 40
0
 40
0
 40
0
 40
0
 40
1
 40
1
 40
1
 40
1
 10
274.568749
 20
374.574772
 30
0.0
 10
273.458309
 20
373.464332
 30
0.0
 10
271.670392
 20
373.464332
 30
0.0
 10
270.559957
 20
374.574766
 30
0.0
  0
LWPOLYLINE
  5
27f
100
AcDbEntity
  8
0
 62
7
100
AcDbPolyline
 90
2
 70
0
 10
283.588536
 20
383.594559
 30
0.0
 10
274.568749
 20
374.574772
 30
0.0
  0
SPLINE
  5
280
100
AcDbEntity
  8
0
 62
7
100
AcDbSpline
 70
8
 71
3
 72
8
 73
4
 74
0
 40
0
 40
0
 40
0
 40
0
 40
1
 40
1
 40
1
 40
1
 10
261.540170
 20
383.594553
 30
0.0
 10
260.429730
 20
384.704994
 30
0.0
 10
260.429730
 20
386.492911
 30
0.0
 10
261.540170
 20
387.603351
 30
0.0
  0
LWPOLYLINE
  5
281
100
AcDbEntity
  8
0
 62
7
100
AcDbPolyline
 90
2
 70
0
 10
270.559957
 20
374.574766
 30
0.0
 10
261.540170
 20
383.594553
 30
0.0
  0
LWPOLYLINE
  5
282
100
AcDbEntity
  8
0
 62
7
100
AcDbPolyline
 90
1
 70
1
 10
261.540170
 20
387.603351
 30
0.0
  0
SPLINE
  5
283
100
AcDbEntity
  8
0
 62
7
100
AcDbSpline
 70
8
 71
3
 72
8
 73
4
 74
0
 40
0
 40
0
 40
0
 40
0
 40
1
 40
1
 40
1
 40
1
 10
286.886494
 20
412.949675
 30
0.0
 10
287.996928
 20
414.060109
 30
0.0
 10
289.784851
 20
414.060115
 30
0.0
 10
290.895291
 20
412.949675
 30
0.0
  0
LWPOLYLINE
  5
284
100
AcDbEntity
  8
0
 62
7
100
AcDbPolyline
 90
2
 70
0
 10
277.866707
 20
403.929888
 30
0.0
 10
286.886494
 20
412.949675
 30
0.0
  0
SPLINE
  5
285
100
AcDbEntity
  8
0
 62
7
100
AcDbSpline
 70
8
 71
3
 72
8
 73
4
 74
0
 40
0
 40
0
 40
0
 40
0
 40
1
 40
1
 40
1
 40
1
 10
299.915078
 20
403.929888
 30
0.0
 10
301.025513
 20
402.819453
 30
0.0
 10
301.025507
 20
401.031530
 30
0.0
 10
299.915073
 20
399.921095
 30
0.0
  0
LWPOLYLINE
  5
286
100
AcDbEntity
  8
0
 62
7
100
AcDbPolyline
 90
2
 70
0
 10
290.895291
 20
412.949675
 30
0.0
 10
299.915078
 20
403.929888
 30
0.0
  0
SPLINE
  5
287
100
AcDbEntity
  8
0
 62
7
100
AcDbSpline
 70
8
 71
3
 72
8
 73
4
 74
0
 40
0
 40
0
 40
0
 40
0
 40
1
 40
1
 40
1
 40
1
 10
290.895286
 20
390.901309
 30
0.0
 10
289.784851
 20
389.790874
 30
0.0
 10
287.996928
 20
389.790868
 30
0.0
 10
286.886494
 20
390.901303
 30
0.0
  0
LWPOLYLINE
  5
288
100
AcDbEntity
  8
0
 62
7
100
AcDbPolyline
 90
2
 70
0
 10
299.915073
 20
399.921095
 30
0.0
 10
290.895286
 20
390.901309
 30
0.0
  0
SPLINE
  5
289
100
AcDbEntity
  8
0
 62
7
100
AcDbSpline
 70
8
 71
3
 72
8
 73
4
 74
0
 40
0
 40
0
 40
0
 40
0
 40
1
 40
1
 40
1
 40
1
 10
277.866707
 20
399.921090
 30
0.0
 10
276.756266
 20
401.031530
 30
0.0
 10
276.756272
 20
402.819453
 30
0.0
 10
277.866707
 20
403.929888
 30
0.0
  0
LWPOLYLINE
  5
28a
100
AcDbEntity
  8
0
 62
7
100
AcDbPolyline
 90
2
 70
0
 10
286.886494
 20
390.901303
 30
0.0
 10
277.866707
 20
399.921090
 30
0.0
  0
LWPOLYLINE
  5
28b
100
AcDbEntity
  8
0
 62
7
100
AcDbPolyline
 90
1
 70
1
 10
277.866707
 20
403.929888
 30
0.0
  0
SPLINE
  5
28c
100
AcDbEntity
  8
0
 62
7
100
AcDbSpline
 70
8
 71
3
 72
8
 73
4
 74
0
 40
0
 40
0
 40
0
 40
0
 40
1
 40
1
 40
1
 40
1
 10
303.213013
 20
429.276194
 30
0.0
 10
304.323448
 20
430.386629
 30
0.0
 10
306.111371
 20
430.386635
 30
0.0
 10
307.221811
 20
429.276194
 30
0.0
  0
LWPOLYLINE
  5
28d
100
AcDbEntity
  8
0
 62
7
100
AcDbPolyline
 90
2
 70
0
 10
294.193226
 20
420.256407
 30
0.0
 10
303.213013
 20
429.276194
 30
0.0
  0
SPLINE
  5
28e
100
AcDbEntity
  8
0
 62
7
100
AcDbSpline
 70
8
 71
3
 72
8
 73
4
 74
0
 40
0
 40
0
 40
0
 40
0
 40
1
 40
1
 40
1
 40
1
 10
316.241598
 20
420.256407
 30
0.0
 10
317.352033
 20
419.145972
 30
0.0
 10
317.352027
 20
417.358050
 30
0.0
 10
316.241592
 20
416.247615
 30
0.0
  0
LWPOLYLINE
  5
28f
100
AcDbEntity
  8
0
 62
7
100
AcDbPolyline
 90
2
 70
0
 10
307.221811
 20
429.276194
 30
0.0
 10
316.241598
 20
420.256407
 30
0.0
  0
SPLINE
  5
290
100
AcDbEntity
  8
0
 62
7
100
AcDbSpline
 70
8
 71
3
 72
8
 73
4
 74
0
 40
0
 40
0
 40
0
 40
0
 40
1
 40
1
 40
1
 40
1
 10
307.221805
 20
407.227828
 30
0.0
 10
306.111371
 20
406.117393
 30
0.0
 10
304.323448
 20
406.117388
 30
0.0
 10
303.213013
 20
407.227823
 30
0.0
  0
LWPOLYLINE
  5
291
100
AcDbEntity
  8
0
 62
7
100
AcDbPolyline
 90
2
 70
0
 10
316.241592
 20
416.247615
 30
0.0
 10
307.221805
 20
407.227828
 30
0.0
  0
SPLINE
  5
292
100
AcDbEntity
  8
0
 62
7
100
AcDbSpline
 70
8
 71
3
 72
8
 73
4
 74
0
 40
0
 40
0
 40
0
 40
0
 40
1
 40
1
 40
1
 40
1
 10
294.193226
 20
416.247609
 30
0.0
 10
293.082786
 20
417.358050
 30
0.0
 10
293.082791
 20
419.145972
 30
0.0
 10
294.193226
 20
420.256407
 30
0.0
  0
LWPOLYLINE
  5
293
100
AcDbEntity
  8
0
 62
7
100
AcDbPolyline
 90
2
 70
0
 10
303.213013
 20
407.227823
 30
0.0
 10
294.193226
 20
416.247609
 30
0.0
  0
LWPOLYLINE
  5
294
100
AcDbEntity
  8
0
 62
7
100
AcDbPolyline
 90
1
 70
1
 10
294.193226
 20
420.256407
 30
0.0
  0
SPLINE
  5
295
100
AcDbEntity
  8
0
 62
7
100
AcDbSpline
 70
8
 71
3
 72
8
 73
4
 74
0
 40
0
 40
0
 40
0
 40
0
 40
1
 40
1
 40
1
 40
1
 10
319.539550
 20
445.602731
 30
0.0
 10
320.649985
 20
446.713166
 30
0.0
 10
322.437907
 20
446.713171
 30
0.0
 10
323.548348
 20
445.602731
 30
0.0
  0
LWPOLYLINE
  5
296
100
AcDbEntity
  8
0
 62
7
100
AcDbPolyline
 90
2
 70
0
 10
310.519763
 20
436.582944
 30
0.0
 10
319.539550
 20
445.602731
 30
0.0
  0
SPLINE
  5
297
100
AcDbEntity
  8
0
 62
7
100
AcDbSpline
 70
8
 71
3
 72
8
 73
4
 74
0
 40
0
 40
0
 40
0
 40
0
 40
1
 40
1
 40
1
 40
1
 10
332.568134
 20
436.582944
 30
0.0
 10
333.678569
 20
435.472509
 30
0.0
 10
333.678564
 20
433.684587
 30
0.0
 10
332.568129
 20
432.574152
 30
0.0
  0
LWPOLYLINE
  5
298
100
AcDbEntity
  8
0
 62
7
100
AcDbPolyline
 90
2
 70
0
 10
323.548348
 20
445.602731
 30
0.0
 10
332.568134
 20
436.582944
 30
0.0
  0
SPLINE
  5
299
100
AcDbEntity
  8
0
 62
7
100
AcDbSpline
 70
8
 71
3
 72
8
 73
4
 74
0
 40
0
 40
0
 40
0
 40
0
 40
1
 40
1
 40
1
 40
1
 10
323.548342
 20
423.554365
 30
0.0
 10
322.437907
 20
422.443930
 30
0.0
 10
320.649985
 20
422.443924
 30
0.0
 10
319.539550
 20
423.554359
 30
0.0
  0
LWPOLYLINE
  5
29a
100
AcDbEntity
  8
0
 62
7
100
AcDbPolyline
 90
2
 70
0
 10
332.568129
 20
432.574152
 30
0.0
 10
323.548342
 20
423.554365
 30
0.0
  0
SPLINE
  5
29b
100
AcDbEntity
  8
0
 62
7
100
AcDbSpline
 70
8
 71
3
 72
8
 73
4
 74
0
 40
0
 40
0
 40
0
 40
0
 40
1
 40
1
 40
1
 40
1
 10
310.519763
 20
432.574146
 30
0.0
 10
309.409322
 20
433.684587
 30
0.0
 10
309.409328
 20
435.472509
 30
0.0
 10
310.519763
 20
436.582944
 30
0.0
  0
LWPOLYLINE
  5
29c
100
AcDbEntity
  8
0
 62
7
100
AcDbPolyline
 90
2
 70
0
 10
319.539550
 20
423.554359
 30
0.0
 10
310.519763
 20
432.574146
 30
0.0
  0
LWPOLYLINE
  5
29d
100
AcDbEntity
  8
0
 62
7
100
AcDbPolyline
 90
1
 70
1
 10
310.519763
 20
436.582944
 30
0.0
  0
SPLINE
  5
29e
100
AcDbEntity
  8
0
 62
7
100
AcDbSpline
 70
8
 71
3
 72
8
 73
4
 74
0
 40
0
 40
0
 40
0
 40
0
 40
1
 40
1
 40
1
 40
1
 10
335.866069
 20
461.929250
 30
0.0
 10
336.976504
 20
463.039685
 30
0.0
 10
338.764427
 20
463.039691
 30
0.0
 10
339.874867
 20
461.929250
 30
0.0
  0
LWPOLYLINE
  5
29f
100
AcDbEntity
  8
0
 62
7
100
AcDbPolyline
 90
2
 70
0
 10
326.846283
 20
452.909464
 30
0.0
 10
335.866069
 20
461.929250
 30
0.0
  0
SPLINE
  5
2a0
100
AcDbEntity
  8
0
 62
7
100
AcDbSpline
 70
8
 71
3
 72
8
 73
4
 74
0
 40
0
 40
0
 40
0
 40
0
 40
1
 40
1
 40
1
 40
1
 10
348.894654
 20
452.909464
 30
0.0
 10
350.005089
 20
451.799029
 30
0.0
 10
350.005083
 20
450.011106
 30
0.0
 10
348.894648
 20
448.900671
 30
0.0
  0
LWPOLYLINE
  5
2a1
100
AcDbEntity
  8
0
 62
7
100
AcDbPolyline
 90
2
 70
0
 10
339.874867
 20
461.929250
 30
0.0
 10
348.894654
 20
452.909464
 30
0.0
  0
SPLINE
  5
2a2
100
AcDbEntity
  8
0
 62
7
100
AcDbSpline
 70
8
 71
3
 72
8
 73
4
 74
0
 40
0
 40
0
 40
0
 40
0
 40
1
 40
1
 40
1
 40
1
 10
339.874862
 20
439.880885
 30
0.0
 10
338.764427
 20
438.770450
 30
0.0
 10
336.976504
 20
438.770444
 30
0.0
 10
335.866069
 20
439.880879
 30
0.0
  0
LWPOLYLINE
  5
2a3
100
AcDbEntity
  8
0
 62
7
100
AcDbPolyline
 90
2
 70
0
 10
348.894648
 20
448.900671
 30
0.0
 10
339.874862
 20
439.880885
 30
0.0
  0
SPLINE
  5
2a4
100
AcDbEntity
  8
0
 62
7
100
AcDbSpline
 70
8
 71
3
 72
8
 73
4
 74
0
 40
0
 40
0
 40
0
 40
0
 40
1
 40
1
 40
1
 40
1
 10
326.846283
 20
448.900666
 30
0.0
 10
325.735842
 20
450.011106
 30
0.0
 10
325.735848
 20
451.799029
 30
0.0
 10
326.846283
 20
452.909464
 30
0.0
  0
LWPOLYLINE
  5
2a5
100
AcDbEntity
  8
0
 62
7
100
AcDbPolyline
 90
2
 70
0
 10
335.866069
 20
439.880879
 30
0.0
 10
326.846283
 20
448.900666
 30
0.0
  0
LWPOLYLINE
  5
2a6
100
AcDbEntity
  8
0
 62
7
100
AcDbPolyline
 90
1
 70
1
 10
326.846283
 20
452.909464
 30
0.0
  0
SPLINE
  5
2a7
100
AcDbEntity
  8
0
 62
7
100
AcDbSpline
 70
8
 71
3
 72
8
 73
4
 74
0
 40
0
 40
0
 40
0
 40
0
 40
1
 40
1
 40
1
 40
1
 10
352.192606
 20
478.255787
 30
0.0
 10
353.303047
 20
479.366228
 30
0.0
 10
355.090963
 20
479.366228
 30
0.0
 10
356.201404
 20
478.255787
 30
0.0
  0
LWPOLYLINE
  5
2a8
100
AcDbEntity
  8
0
 62
7
100
AcDbPolyline
 90
2
 70
0
 10
343.172819
 20
469.236000
 30
0.0
 10
352.192606
 20
478.255787
 30
0.0
  0
SPLINE
  5
2a9
100
AcDbEntity
  8
0
 62
7
100
AcDbSpline
 70
8
 71
3
 72
8
 73
4
 74
0
 40
0
 40
0
 40
0
 40
0
 40
1
 40
1
 40
1
 40
1
 10
365.221191
 20
469.236000
 30
0.0
 10
366.331626
 20
468.125565
 30
0.0
 10
366.331626
 20
466.337649
 30
0.0
 10
365.221185
 20
465.227208
 30
0.0
  0
LWPOLYLINE
  5
2aa
100
AcDbEntity
  8
0
 62
7
100
AcDbPolyline
 90
2
 70
0
 10
356.201404
 20
478.255787
 30
0.0
 10
365.221191
 20
469.236000
 30
0.0
  0
SPLINE
  5
2ab
100
AcDbEntity
  8
0
 62
7
100
AcDbSpline
 70
8
 71
3
 72
8
 73
4
 74
0
 40
0
 40
0
 40
0
 40
0
 40
1
 40
1
 40
1
 40
1
 10
356.201398
 20
456.207421
 30
0.0
 10
355.090963
 20
455.096986
 30
0.0
 10
353.303041
 20
455.096981
 30
0.0
 10
352.192606
 20
456.207416
 30
0.0
  0
LWPOLYLINE
  5
2ac
100
AcDbEntity
  8
0
 62
7
100
AcDbPolyline
 90
2
 70
0
 10
365.221185
 20
465.227208
 30
0.0
 10
356.201398
 20
456.207421
 30
0.0
  0
SPLINE
  5
2ad
100
AcDbEntity
  8
0
 62
7
100
AcDbSpline
 70
8
 71
3
 72
8
 73
4
 74
0
 40
0
 40
0
 40
0
 40
0
 40
1
 40
1
 40
1
 40
1
 10
343.172819
 20
465.227202
 30
0.0
 10
342.062379
 20
466.337643
 30
0.0
 10
342.062384
 20
468.125565
 30
0.0
 10
343.172819
 20
469.236000
 30
0.0
  0
LWPOLYLINE
  5
2ae
100
AcDbEntity
  8
0
 62
7
100
AcDbPolyline
 90
2
 70
0
 10
352.192606
 20
456.207416
 30
0.0
 10
343.172819
 20
465.227202
 30
0.0
  0
LWPOLYLINE
  5
2af
100
AcDbEntity
  8
0
 62
7
100
AcDbPolyline
 90
1
 70
1
 10
343.172819
 20
469.236000
 30
0.0
  0
SPLINE
  5
2b0
100
AcDbEntity
  8
0
 62
7
100
AcDbSpline
 70
8
 71
3
 72
8
 73
4
 74
0
 40
0
 40
0
 40
0
 40
0
 40
1
 40
1
 40
1
 40
1
 10
254.514408
 20
347.362575
 30
0.0
 10
255.624843
 20
348.473010
 30
0.0
 10
257.412759
 20
348.473010
 30
0.0
 10
258.523200
 20
347.362569
 30
0.0
  0
LWPOLYLINE
  5
2b1
100
AcDbEntity
  8
0
 62
7
100
AcDbPolyline
 90
2
 70
0
 10
245.494615
 20
338.342782
 30
0.0
 10
254.514408
 20
347.362575
 30
0.0
  0
SPLINE
  5
2b2
100
AcDbEntity
  8
0
 62
7
100
AcDbSpline
 70
8
 71
3
 72
8
 73
4
 74
0
 40
0
 40
0
 40
0
 40
0
 40
1
 40
1
 40
1
 40
1
 10
267.542987
 20
338.342782
 30
0.0
 10
268.653422
 20
337.232347
 30
0.0
 10
268.653422
 20
335.444431
 30
0.0
 10
267.542987
 20
334.333996
 30
0.0
  0
LWPOLYLINE
  5
2b3
100
AcDbEntity
  8
0
 62
7
100
AcDbPolyline
 90
2
 70
0
 10
258.523200
 20
347.362569
 30
0.0
 10
267.542987
 20
338.342782
 30
0.0
  0
SPLINE
  5
2b4
100
AcDbEntity
  8
0
 62
7
100
AcDbSpline
 70
8
 71
3
 72
8
 73
4
 74
0
 40
0
 40
0
 40
0
 40
0
 40
1
 40
1
 40
1
 40
1
 10
258.523194
 20
325.314203
 30
0.0
 10
257.412759
 20
324.203768
 30
0.0
 10
255.624843
 20
324.203768
 30
0.0
 10
254.514408
 20
325.314203
 30
0.0
  0
LWPOLYLINE
  5
2b5
100
AcDbEntity
  8
0
 62
7
100
AcDbPolyline
 90
2
 70
0
 10
267.542987
 20
334.333996
 30
0.0
 10
258.523194
 20
325.314203
 30
0.0
  0
SPLINE
  5
2b6
100
AcDbEntity
  8
0
 62
7
100
AcDbSpline
 70
8
 71
3
 72
8
 73
4
 74
0
 40
0
 40
0
 40
0
 40
0
 40
1
 40
1
 40
1
 40
1
 10
245.494621
 20
334.333990
 30
0.0
 10
244.384180
 20
335.444431
 30
0.0
 10
244.384180
 20
337.232347
 30
0.0
 10
245.494615
 20
338.342782
 30
0.0
  0
LWPOLYLINE
  5
2b7
100
AcDbEntity
  8
0
 62
7
100
AcDbPolyline
 90
2
 70
0
 10
254.514408
 20
325.314203
 30
0.0
 10
245.494621
 20
334.333990
 30
0.0
  0
LWPOLYLINE
  5
2b8
100
AcDbEntity
  8
0
 62
7
100
AcDbPolyline
 90
1
 70
1
 10
245.494615
 20
338.342782
 30
0.0
  0
SPLINE
  5
2b9
100
AcDbEntity
  8
0
 62
7
100
AcDbSpline
 70
8
 71
3
 72
8
 73
4
 74
0
 40
0
 40
0
 40
0
 40
0
 40
1
 40
1
 40
1
 40
1
 10
270.840927
 20
363.689094
 30
0.0
 10
271.951362
 20
364.799529
 30
0.0
 10
273.739279
 20
364.799529
 30
0.0
 10
274.849719
 20
363.689089
 30
0.0
  0
LWPOLYLINE
  5
2ba
100
AcDbEntity
  8
0
 62
7
100
AcDbPolyline
 90
2
 70
0
 10
261.821135
 20
354.669302
 30
0.0
 10
270.840927
 20
363.689094
 30
0.0
  0
SPLINE
  5
2bb
100
AcDbEntity
  8
0
 62
7
100
AcDbSpline
 70
8
 71
3
 72
8
 73
4
 74
0
 40
0
 40
0
 40
0
 40
0
 40
1
 40
1
 40
1
 40
1
 10
283.869506
 20
354.669302
 30
0.0
 10
284.979941
 20
353.558867
 30
0.0
 10
284.979941
 20
351.770950
 30
0.0
 10
283.869506
 20
350.660515
 30
0.0
  0
LWPOLYLINE
  5
2bc
100
AcDbEntity
  8
0
 62
7
100
AcDbPolyline
 90
2
 70
0
 10
274.849719
 20
363.689089
 30
0.0
 10
283.869506
 20
354.669302
 30
0.0
  0
SPLINE
  5
2bd
100
AcDbEntity
  8
0
 62
7
100
AcDbSpline
 70
8
 71
3
 72
8
 73
4
 74
0
 40
0
 40
0
 40
0
 40
0
 40
1
 40
1
 40
1
 40
1
 10
274.849714
 20
341.640723
 30
0.0
 10
273.739279
 20
340.530288
 30
0.0
 10
271.951362
 20
340.530288
 30
0.0
 10
270.840927
 20
341.640723
 30
0.0
  0
LWPOLYLINE
  5
2be
100
AcDbEntity
  8
0
 62
7
100
AcDbPolyline
 90
2
 70
0
 10
283.869506
 20
350.660515
 30
0.0
 10
274.849714
 20
341.640723
 30
0.0
  0
SPLINE
  5
2bf
100
AcDbEntity
  8
0
 62
7
100
AcDbSpline
 70
8
 71
3
 72
8
 73
4
 74
0
 40
0
 40
0
 40
0
 40
0
 40
1
 40
1
 40
1
 40
1
 10
261.821140
 20
350.660510
 30
0.0
 10
260.710700
 20
351.770950
 30
0.0
 10
260.710700
 20
353.558867
 30
0.0
 10
261.821135
 20
354.669302
 30
0.0
  0
LWPOLYLINE
  5
2c0
100
AcDbEntity
  8
0
 62
7
100
AcDbPolyline
 90
2
 70
0
 10
270.840927
 20
341.640723
 30
0.0
 10
261.821140
 20
350.660510
 30
0.0
  0
LWPOLYLINE
  5
2c1
100
AcDbEntity
  8
0
 62
7
100
AcDbPolyline
 90
1
 70
1
 10
261.821135
 20
354.669302
 30
0.0
  0
SPLINE
  5
2c2
100
AcDbEntity
  8
0
 62
7
100
AcDbSpline
 70
8
 71
3
 72
8
 73
4
 74
0
 40
0
 40
0
 40
0
 40
0
 40
1
 40
1
 40
1
 40
1
 10
287.167464
 20
380.015631
 30
0.0
 10
288.277899
 20
381.126066
 30
0.0
 10
290.065821
 20
381.126072
 30
0.0
 10
291.176262
 20
380.015631
 30
0.0
  0
LWPOLYLINE
  5
2c3
100
AcDbEntity
  8
0
 62
7
100
AcDbPolyline
 90
2
 70
0
 10
278.147677
 20
370.995844
 30
0.0
 10
287.167464
 20
380.015631
 30
0.0
  0
SPLINE
  5
2c4
100
AcDbEntity
  8
0
 62
7
100
AcDbSpline
 70
8
 71
3
 72
8
 73
4
 74
0
 40
0
 40
0
 40
0
 40
0
 40
1
 40
1
 40
1
 40
1
 10
300.196049
 20
370.995844
 30
0.0
 10
301.306483
 20
369.885409
 30
0.0
 10
301.306478
 20
368.097487
 30
0.0
 10
300.196043
 20
366.987052
 30
0.0
  0
LWPOLYLINE
  5
2c5
100
AcDbEntity
  8
0
 62
7
100
AcDbPolyline
 90
2
 70
0
 10
291.176262
 20
380.015631
 30
0.0
 10
300.196049
 20
370.995844
 30
0.0
  0
SPLINE
  5
2c6
100
AcDbEntity
  8
0
 62
7
100
AcDbSpline
 70
8
 71
3
 72
8
 73
4
 74
0
 40
0
 40
0
 40
0
 40
0
 40
1
 40
1
 40
1
 40
1
 10
291.176256
 20
357.967265
 30
0.0
 10
290.065816
 20
356.856825
 30
0.0
 10
288.277899
 20
356.856825
 30
0.0
 10
287.167464
 20
357.967260
 30
0.0
  0
LWPOLYLINE
  5
2c7
100
AcDbEntity
  8
0
 62
7
100
AcDbPolyline
 90
2
 70
0
 10
300.196043
 20
366.987052
 30
0.0
 10
291.176256
 20
357.967265
 30
0.0
  0
SPLINE
  5
2c8
100
AcDbEntity
  8
0
 62
7
100
AcDbSpline
 70
8
 71
3
 72
8
 73
4
 74
0
 40
0
 40
0
 40
0
 40
0
 40
1
 40
1
 40
1
 40
1
 10
278.147677
 20
366.987046
 30
0.0
 10
277.037236
 20
368.097487
 30
0.0
 10
277.037236
 20
369.885404
 30
0.0
 10
278.147677
 20
370.995844
 30
0.0
  0
LWPOLYLINE
  5
2c9
100
AcDbEntity
  8
0
 62
7
100
AcDbPolyline
 90
2
 70
0
 10
287.167464
 20
357.967260
 30
0.0
 10
278.147677
 20
366.987046
 30
0.0
  0
LWPOLYLINE
  5
2ca
100
AcDbEntity
  8
0
 62
7
100
AcDbPolyline
 90
1
 70
1
 10
278.147677
 20
370.995844
 30
0.0
  0
SPLINE
  5
2cb
100
AcDbEntity
  8
0
 62
7
100
AcDbSpline
 70
8
 71
3
 72
8
 73
4
 74
0
 40
0
 40
0
 40
0
 40
0
 40
1
 40
1
 40
1
 40
1
 10
303.494000
 20
396.342168
 30
0.0
 10
304.604435
 20
397.452603
 30
0.0
 10
306.392358
 20
397.452608
 30
0.0
 10
307.502798
 20
396.342168
 30
0.0
  0
LWPOLYLINE
  5
2cc
100
AcDbEntity
  8
0
 62
7
100
AcDbPolyline
 90
2
 70
0
 10
294.474214
 20
387.322381
 30
0.0
 10
303.494000
 20
396.342168
 30
0.0
  0
SPLINE
  5
2cd
100
AcDbEntity
  8
0
 62
7
100
AcDbSpline
 70
8
 71
3
 72
8
 73
4
 74
0
 40
0
 40
0
 40
0
 40
0
 40
1
 40
1
 40
1
 40
1
 10
316.522585
 20
387.322381
 30
0.0
 10
317.633020
 20
386.211946
 30
0.0
 10
317.633014
 20
384.424023
 30
0.0
 10
316.522580
 20
383.313589
 30
0.0
  0
LWPOLYLINE
  5
2ce
100
AcDbEntity
  8
0
 62
7
100
AcDbPolyline
 90
2
 70
0
 10
307.502798
 20
396.342168
 30
0.0
 10
316.522585
 20
387.322381
 30
0.0
  0
SPLINE
  5
2cf
100
AcDbEntity
  8
0
 62
7
100
AcDbSpline
 70
8
 71
3
 72
8
 73
4
 74
0
 40
0
 40
0
 40
0
 40
0
 40
1
 40
1
 40
1
 40
1
 10
307.502793
 20
374.293802
 30
0.0
 10
306.392358
 20
373.183367
 30
0.0
 10
304.604435
 20
373.183361
 30
0.0
 10
303.494000
 20
374.293796
 30
0.0
  0
LWPOLYLINE
  5
2d0
100
AcDbEntity
  8
0
 62
7
100
AcDbPolyline
 90
2
 70
0
 10
316.522580
 20
383.313589
 30
0.0
 10
307.502793
 20
374.293802
 30
0.0
  0
SPLINE
  5
2d1
100
AcDbEntity
  8
0
 62
7
100
AcDbSpline
 70
8
 71
3
 72
8
 73
4
 74
0
 40
0
 40
0
 40
0
 40
0
 40
1
 40
1
 40
1
 40
1
 10
294.474214
 20
383.313583
 30
0.0
 10
293.363773
 20
384.424023
 30
0.0
 10
293.363779
 20
386.211946
 30
0.0
 10
294.474214
 20
387.322381
 30
0.0
  0
LWPOLYLINE
  5
2d2
100
AcDbEntity
  8
0
 62
7
100
AcDbPolyline
 90
2
 70
0
 10
303.494000
 20
374.293796
 30
0.0
 10
294.474214
 20
383.313583
 30
0.0
  0
LWPOLYLINE
  5
2d3
100
AcDbEntity
  8
0
 62
7
100
AcDbPolyline
 90
1
 70
1
 10
294.474214
 20
387.322381
 30
0.0
  0
SPLINE
  5
2d4
100
AcDbEntity
  8
0
 62
7
100
AcDbSpline
 70
8
 71
3
 72
8
 73
4
 74
0
 40
0
 40
0
 40
0
 40
0
 40
1
 40
1
 40
1
 40
1
 10
319.820520
 20
412.668687
 30
0.0
 10
320.930955
 20
413.779122
 30
0.0
 10
322.718877
 20
413.779128
 30
0.0
 10
323.829318
 20
412.668687
 30
0.0
  0
LWPOLYLINE
  5
2d5
100
AcDbEntity
  8
0
 62
7
100
AcDbPolyline
 90
2
 70
0
 10
310.800733
 20
403.648900
 30
0.0
 10
319.820520
 20
412.668687
 30
0.0
  0
SPLINE
  5
2d6
100
AcDbEntity
  8
0
 62
7
100
AcDbSpline
 70
8
 71
3
 72
8
 73
4
 74
0
 40
0
 40
0
 40
0
 40
0
 40
1
 40
1
 40
1
 40
1
 10
332.849105
 20
403.648900
 30
0.0
 10
333.959540
 20
402.538466
 30
0.0
 10
333.959534
 20
400.750543
 30
0.0
 10
332.849099
 20
399.640108
 30
0.0
  0
LWPOLYLINE
  5
2d7
100
AcDbEntity
  8
0
 62
7
100
AcDbPolyline
 90
2
 70
0
 10
323.829318
 20
412.668687
 30
0.0
 10
332.849105
 20
403.648900
 30
0.0
  0
SPLINE
  5
2d8
100
AcDbEntity
  8
0
 62
7
100
AcDbSpline
 70
8
 71
3
 72
8
 73
4
 74
0
 40
0
 40
0
 40
0
 40
0
 40
1
 40
1
 40
1
 40
1
 10
323.829312
 20
390.620321
 30
0.0
 10
322.718877
 20
389.509887
 30
0.0
 10
320.930955
 20
389.509881
 30
0.0
 10
319.820520
 20
390.620316
 30
0.0
  0
LWPOLYLINE
  5
2d9
100
AcDbEntity
  8
0
 62
7
100
AcDbPolyline
 90
2
 70
0
 10
332.849099
 20
399.640108
 30
0.0
 10
323.829312
 20
390.620321
 30
0.0
  0
SPLINE
  5
2da
100
AcDbEntity
  8
0
 62
7
100
AcDbSpline
 70
8
 71
3
 72
8
 73
4
 74
0
 40
0
 40
0
 40
0
 40
0
 40
1
 40
1
 40
1
 40
1
 10
310.800733
 20
399.640103
 30
0.0
 10
309.690293
 20
400.750543
 30
0.0
 10
309.690298
 20
402.538466
 30
0.0
 10
310.800733
 20
403.648900
 30
0.0
  0
LWPOLYLINE
  5
2db
100
AcDbEntity
  8
0
 62
7
100
AcDbPolyline
 90
2
 70
0
 10
319.820520
 20
390.620316
 30
0.0
 10
310.800733
 20
399.640103
 30
0.0
  0
LWPOLYLINE
  5
2dc
100
AcDbEntity
  8
0
 62
7
100
AcDbPolyline
 90
1
 70
1
 10
310.800733
 20
403.648900
 30
0.0
  0
SPLINE
  5
2dd
100
AcDbEntity
  8
0
 62
7
100
AcDbSpline
 70
8
 71
3
 72
8
 73
4
 74
0
 40
0
 40
0
 40
0
 40
0
 40
1
 40
1
 40
1
 40
1
 10
336.147057
 20
428.995224
 30
0.0
 10
337.257492
 20
430.105659
 30
0.0
 10
339.045414
 20
430.105664
 30
0.0
 10
340.155855
 20
428.995224
 30
0.0
  0
LWPOLYLINE
  5
2de
100
AcDbEntity
  8
0
 62
7
100
AcDbPolyline
 90
2
 70
0
 10
327.127270
 20
419.975437
 30
0.0
 10
336.147057
 20
428.995224
 30
0.0
  0
SPLINE
  5
2df
100
AcDbEntity
  8
0
 62
7
100
AcDbSpline
 70
8
 71
3
 72
8
 73
4
 74
0
 40
0
 40
0
 40
0
 40
0
 40
1
 40
1
 40
1
 40
1
 10
349.175641
 20
419.975437
 30
0.0
 10
350.286076
 20
418.865002
 30
0.0
 10
350.286071
 20
417.077080
 30
0.0
 10
349.175636
 20
415.966645
 30
0.0
  0
LWPOLYLINE
  5
2e0
100
AcDbEntity
  8
0
 62
7
100
AcDbPolyline
 90
2
 70
0
 10
340.155855
 20
428.995224
 30
0.0
 10
349.175641
 20
419.975437
 30
0.0
  0
SPLINE
  5
2e1
100
AcDbEntity
  8
0
 62
7
100
AcDbSpline
 70
8
 71
3
 72
8
 73
4
 74
0
 40
0
 40
0
 40
0
 40
0
 40
1
 40
1
 40
1
 40
1
 10
340.155849
 20
406.946858
 30
0.0
 10
339.045414
 20
405.836423
 30
0.0
 10
337.257492
 20
405.836417
 30
0.0
 10
336.147057
 20
406.946852
 30
0.0
  0
LWPOLYLINE
  5
2e2
100
AcDbEntity
  8
0
 62
7
100
AcDbPolyline
 90
2
 70
0
 10
349.175636
 20
415.966645
 30
0.0
 10
340.155849
 20
406.946858
 30
0.0
  0
SPLINE
  5
2e3
100
AcDbEntity
  8
0
 62
7
100
AcDbSpline
 70
8
 71
3
 72
8
 73
4
 74
0
 40
0
 40
0
 40
0
 40
0
 40
1
 40
1
 40
1
 40
1
 10
327.127270
 20
415.966639
 30
0.0
 10
326.016829
 20
417.077080
 30
0.0
 10
326.016835
 20
418.865002
 30
0.0
 10
327.127270
 20
419.975437
 30
0.0
  0
LWPOLYLINE
  5
2e4
100
AcDbEntity
  8
0
 62
7
100
AcDbPolyline
 90
2
 70
0
 10
336.147057
 20
406.946852
 30
0.0
 10
327.127270
 20
415.966639
 30
0.0
  0
LWPOLYLINE
  5
2e5
100
AcDbEntity
  8
0
 62
7
100
AcDbPolyline
 90
1
 70
1
 10
327.127270
 20
419.975437
 30
0.0
  0
SPLINE
  5
2e6
100
AcDbEntity
  8
0
 62
7
100
AcDbSpline
 70
8
 71
3
 72
8
 73
4
 74
0
 40
0
 40
0
 40
0
 40
0
 40
1
 40
1
 40
1
 40
1
 10
352.473576
 20
445.321743
 30
0.0
 10
353.584011
 20
446.432178
 30
0.0
 10
355.371934
 20
446.432184
 30
0.0
 10
356.482374
 20
445.321743
 30
0.0
  0
LWPOLYLINE
  5
2e7
100
AcDbEntity
  8
0
 62
7
100
AcDbPolyline
 90
2
 70
0
 10
343.453790
 20
436.301957
 30
0.0
 10
352.473576
 20
445.321743
 30
0.0
  0
SPLINE
  5
2e8
100
AcDbEntity
  8
0
 62
7
100
AcDbSpline
 70
8
 71
3
 72
8
 73
4
 74
0
 40
0
 40
0
 40
0
 40
0
 40
1
 40
1
 40
1
 40
1
 10
365.502161
 20
436.301957
 30
0.0
 10
366.612596
 20
435.191522
 30
0.0
 10
366.612590
 20
433.403599
 30
0.0
 10
365.502155
 20
432.293164
 30
0.0
  0
LWPOLYLINE
  5
2e9
100
AcDbEntity
  8
0
 62
7
100
AcDbPolyline
 90
2
 70
0
 10
356.482374
 20
445.321743
 30
0.0
 10
365.502161
 20
436.301957
 30
0.0
  0
SPLINE
  5
2ea
100
AcDbEntity
  8
0
 62
7
100
AcDbSpline
 70
8
 71
3
 72
8
 73
4
 74
0
 40
0
 40
0
 40
0
 40
0
 40
1
 40
1
 40
1
 40
1
 10
356.482369
 20
423.273378
 30
0.0
 10
355.371934
 20
422.162943
 30
0.0
 10
353.584011
 20
422.162937
 30
0.0
 10
352.473576
 20
423.273372
 30
0.0
  0
LWPOLYLINE
  5
2eb
100
AcDbEntity
  8
0
 62
7
100
AcDbPolyline
 90
2
 70
0
 10
365.502155
 20
432.293164
 30
0.0
 10
356.482369
 20
423.273378
 30
0.0
  0
SPLINE
  5
2ec
100
AcDbEntity
  8
0
 62
7
100
AcDbSpline
 70
8
 71
3
 72
8
 73
4
 74
0
 40
0
 40
0
 40
0
 40
0
 40
1
 40
1
 40
1
 40
1
 10
343.453790
 20
432.293159
 30
0.0
 10
342.343349
 20
433.403599
 30
0.0
 10
342.343355
 20
435.191522
 30
0.0
 10
343.453790
 20
436.301957
 30
0.0
  0
LWPOLYLINE
  5
2ed
100
AcDbEntity
  8
0
 62
7
100
AcDbPolyline
 90
2
 70
0
 10
352.473576
 20
423.273372
 30
0.0
 10
343.453790
 20
432.293159
 30
0.0
  0
LWPOLYLINE
  5
2ee
100
AcDbEntity
  8
0
 62
7
100
AcDbPolyline
 90
1
 70
1
 10
343.453790
 20
436.301957
 30
0.0
  0
SPLINE
  5
2ef
100
AcDbEntity
  8
0
 62
7
100
AcDbSpline
 70
8
 71
3
 72
8
 73
4
 74
0
 40
0
 40
0
 40
0
 40
0
 40
1
 40
1
 40
1
 40
1
 10
368.800113
 20
461.648280
 30
0.0
 10
369.910553
 20
462.758721
 30
0.0
 10
371.698470
 20
462.758721
 30
0.0
 10
372.808911
 20
461.648280
 30
0.0
  0
LWPOLYLINE
  5
2f0
100
AcDbEntity
  8
0
 62
7
100
AcDbPolyline
 90
2
 70
0
 10
359.780326
 20
452.628493
 30
0.0
 10
368.800113
 20
461.648280
 30
0.0
  0
SPLINE
  5
2f1
100
AcDbEntity
  8
0
 62
7
100
AcDbSpline
 70
8
 71
3
 72
8
 73
4
 74
0
 40
0
 40
0
 40
0
 40
0
 40
1
 40
1
 40
1
 40
1
 10
381.828698
 20
452.628493
 30
0.0
 10
382.939133
 20
451.518058
 30
0.0
 10
382.939133
 20
449.730142
 30
0.0
 10
381.828692
 20
448.619701
 30
0.0
  0
LWPOLYLINE
  5
2f2
100
AcDbEntity
  8
0
 62
7
100
AcDbPolyline
 90
2
 70
0
 10
372.808911
 20
461.648280
 30
0.0
 10
381.828698
 20
452.628493
 30
0.0
  0
SPLINE
  5
2f3
100
AcDbEntity
  8
0
 62
7
100
AcDbSpline
 70
8
 71
3
 72
8
 73
4
 74
0
 40
0
 40
0
 40
0
 40
0
 40
1
 40
1
 40
1
 40
1
 10
372.808905
 20
439.599914
 30
0.0
 10
371.698470
 20
438.489479
 30
0.0
 10
369.910548
 20
438.489474
 30
0.0
 10
368.800113
 20
439.599909
 30
0.0
  0
LWPOLYLINE
  5
2f4
100
AcDbEntity
  8
0
 62
7
100
AcDbPolyline
 90
2
 70
0
 10
381.828692
 20
448.619701
 30
0.0
 10
372.808905
 20
439.599914
 30
0.0
  0
SPLINE
  5
2f5
100
AcDbEntity
  8
0
 62
7
100
AcDbSpline
 70
8
 71
3
 72
8
 73
4
 74
0
 40
0
 40
0
 40
0
 40
0
 40
1
 40
1
 40
1
 40
1
 10
359.780326
 20
448.619695
 30
0.0
 10
358.669886
 20
449.730136
 30
0.0
 10
358.669891
 20
451.518058
 30
0.0
 10
359.780326
 20
452.628493
 30
0.0
  0
LWPOLYLINE
  5
2f6
100
AcDbEntity
  8
0
 62
7
100
AcDbPolyline
 90
2
 70
0
 10
368.800113
 20
439.599909
 30
0.0
 10
359.780326
 20
448.619695
 30
0.0
  0
LWPOLYLINE
  5
2f7
100
AcDbEntity
  8
0
 62
7
100
AcDbPolyline
 90
1
 70
1
 10
359.780326
 20
452.628493
 30
0.0
  0
SPLINE
  5
2f8
100
AcDbEntity
  8
0
 62
7
100
AcDbSpline
 70
8
 71
3
 72
8
 73
4
 74
0
 40
0
 40
0
 40
0
 40
0
 40
1
 40
1
 40
1
 40
1
 10
271.121915
 20
330.755068
 30
0.0
 10
272.232349
 20
331.865503
 30
0.0
 10
274.020266
 20
331.865503
 30
0.0
 10
275.130707
 20
330.755062
 30
0.0
  0
LWPOLYLINE
  5
2f9
100
AcDbEntity
  8
0
 62
7
100
AcDbPolyline
 90
2
 70
0
 10
262.102122
 20
321.735275
 30
0.0
 10
271.121915
 20
330.755068
 30
0.0
  0
SPLINE
  5
2fa
100
AcDbEntity
  8
0
 62
7
100
AcDbSpline
 70
8
 71
3
 72
8
 73
4
 74
0
 40
0
 40
0
 40
0
 40
0
 40
1
 40
1
 40
1
 40
1
 10
284.150494
 20
321.735275
 30
0.0
 10
285.260928
 20
320.624841
 30
0.0
 10
285.260928
 20
318.836924
 30
0.0
 10
284.150494
 20
317.726489
 30
0.0
  0
LWPOLYLINE
  5
2fb
100
AcDbEntity
  8
0
 62
7
100
AcDbPolyline
 90
2
 70
0
 10
275.130707
 20
330.755062
 30
0.0
 10
284.150494
 20
321.735275
 30
0.0
  0
SPLINE
  5
2fc
100
AcDbEntity
  8
0
 62
7
100
AcDbSpline
 70
8
 71
3
 72
8
 73
4
 74
0
 40
0
 40
0
 40
0
 40
0
 40
1
 40
1
 40
1
 40
1
 10
275.130701
 20
308.706696
 30
0.0
 10
274.020266
 20
307.596261
 30
0.0
 10
272.232349
 20
307.596261
 30
0.0
 10
271.121915
 20
308.706696
 30
0.0
  0
LWPOLYLINE
  5
2fd
100
AcDbEntity
  8
0
 62
7
100
AcDbPolyline
 90
2
 70
0
 10
284.150494
 20
317.726489
 30
0.0
 10
275.130701
 20
308.706696
 30
0.0
  0
SPLINE
  5
2fe
100
AcDbEntity
  8
0
 62
7
100
AcDbSpline
 70
8
 71
3
 72
8
 73
4
 74
0
 40
0
 40
0
 40
0
 40
0
 40
1
 40
1
 40
1
 40
1
 10
262.102128
 20
317.726483
 30
0.0
 10
260.991687
 20
318.836924
 30
0.0
 10
260.991687
 20
320.624841
 30
0.0
 10
262.102122
 20
321.735275
 30
0.0
  0
LWPOLYLINE
  5
2ff
100
AcDbEntity
  8
0
 62
7
100
AcDbPolyline
 90
2
 70
0
 10
271.121915
 20
308.706696
 30
0.0
 10
262.102128
 20
317.726483
 30
0.0
  0
LWPOLYLINE
  5
300
100
AcDbEntity
  8
0
 62
7
100
AcDbPolyline
 90
1
 70
1
 10
262.102122
 20
321.735275
 30
0.0
  0
SPLINE
  5
301
100
AcDbEntity
  8
0
 62
7
100
AcDbSpline
 70
8
 71
3
 72
8
 73
4
 74
0
 40
0
 40
0
 40
0
 40
0
 40
1
 40
1
 40
1
 40
1
 10
287.448434
 20
347.081588
 30
0.0
 10
288.558869
 20
348.192022
 30
0.0
 10
290.346786
 20
348.192022
 30
0.0
 10
291.457226
 20
347.081582
 30
0.0
  0
LWPOLYLINE
  5
302
100
AcDbEntity
  8
0
 62
7
100
AcDbPolyline
 90
2
 70
0
 10
278.428642
 20
338.061795
 30
0.0
 10
287.448434
 20
347.081588
 30
0.0
  0
SPLINE
  5
303
100
AcDbEntity
  8
0
 62
7
100
AcDbSpline
 70
8
 71
3
 72
8
 73
4
 74
0
 40
0
 40
0
 40
0
 40
0
 40
1
 40
1
 40
1
 40
1
 10
300.477013
 20
338.061795
 30
0.0
 10
301.587448
 20
336.951360
 30
0.0
 10
301.587448
 20
335.163443
 30
0.0
 10
300.477013
 20
334.053008
 30
0.0
  0
LWPOLYLINE
  5
304
100
AcDbEntity
  8
0
 62
7
100
AcDbPolyline
 90
2
 70
0
 10
291.457226
 20
347.081582
 30
0.0
 10
300.477013
 20
338.061795
 30
0.0
  0
SPLINE
  5
305
100
AcDbEntity
  8
0
 62
7
100
AcDbSpline
 70
8
 71
3
 72
8
 73
4
 74
0
 40
0
 40
0
 40
0
 40
0
 40
1
 40
1
 40
1
 40
1
 10
291.457221
 20
325.033216
 30
0.0
 10
290.346786
 20
323.922781
 30
0.0
 10
288.558869
 20
323.922781
 30
0.0
 10
287.448434
 20
325.033216
 30
0.0
  0
LWPOLYLINE
  5
306
100
AcDbEntity
  8
0
 62
7
100
AcDbPolyline
 90
2
 70
0
 10
300.477013
 20
334.053008
 30
0.0
 10
291.457221
 20
325.033216
 30
0.0
  0
SPLINE
  5
307
100
AcDbEntity
  8
0
 62
7
100
AcDbSpline
 70
8
 71
3
 72
8
 73
4
 74
0
 40
0
 40
0
 40
0
 40
0
 40
1
 40
1
 40
1
 40
1
 10
278.428647
 20
334.053003
 30
0.0
 10
277.318207
 20
335.163443
 30
0.0
 10
277.318207
 20
336.951360
 30
0.0
 10
278.428642
 20
338.061795
 30
0.0
  0
LWPOLYLINE
  5
308
100
AcDbEntity
  8
0
 62
7
100
AcDbPolyline
 90
2
 70
0
 10
287.448434
 20
325.033216
 30
0.0
 10
278.428647
 20
334.053003
 30
0.0
  0
LWPOLYLINE
  5
309
100
AcDbEntity
  8
0
 62
7
100
AcDbPolyline
 90
1
 70
1
 10
278.428642
 20
338.061795
 30
0.0
  0
SPLINE
  5
30a
100
AcDbEntity
  8
0
 62
7
100
AcDbSpline
 70
8
 71
3
 72
8
 73
4
 74
0
 40
0
 40
0
 40
0
 40
0
 40
1
 40
1
 40
1
 40
1
 10
303.774971
 20
363.408124
 30
0.0
 10
304.885406
 20
364.518559
 30
0.0
 10
306.673328
 20
364.518565
 30
0.0
 10
307.783769
 20
363.408124
 30
0.0
  0
LWPOLYLINE
  5
30b
100
AcDbEntity
  8
0
 62
7
100
AcDbPolyline
 90
2
 70
0
 10
294.755184
 20
354.388337
 30
0.0
 10
303.774971
 20
363.408124
 30
0.0
  0
SPLINE
  5
30c
100
AcDbEntity
  8
0
 62
7
100
AcDbSpline
 70
8
 71
3
 72
8
 73
4
 74
0
 40
0
 40
0
 40
0
 40
0
 40
1
 40
1
 40
1
 40
1
 10
316.803555
 20
354.388337
 30
0.0
 10
317.913990
 20
353.277902
 30
0.0
 10
317.913985
 20
351.489980
 30
0.0
 10
316.803550
 20
350.379545
 30
0.0
  0
LWPOLYLINE
  5
30d
100
AcDbEntity
  8
0
 62
7
100
AcDbPolyline
 90
2
 70
0
 10
307.783769
 20
363.408124
 30
0.0
 10
316.803555
 20
354.388337
 30
0.0
  0
SPLINE
  5
30e
100
AcDbEntity
  8
0
 62
7
100
AcDbSpline
 70
8
 71
3
 72
8
 73
4
 74
0
 40
0
 40
0
 40
0
 40
0
 40
1
 40
1
 40
1
 40
1
 10
307.783763
 20
341.359758
 30
0.0
 10
306.673322
 20
340.249318
 30
0.0
 10
304.885406
 20
340.249318
 30
0.0
 10
303.774971
 20
341.359753
 30
0.0
  0
LWPOLYLINE
  5
30f
100
AcDbEntity
  8
0
 62
7
100
AcDbPolyline
 90
2
 70
0
 10
316.803550
 20
350.379545
 30
0.0
 10
307.783763
 20
341.359758
 30
0.0
  0
SPLINE
  5
310
100
AcDbEntity
  8
0
 62
7
100
AcDbSpline
 70
8
 71
3
 72
8
 73
4
 74
0
 40
0
 40
0
 40
0
 40
0
 40
1
 40
1
 40
1
 40
1
 10
294.755184
 20
350.379539
 30
0.0
 10
293.644743
 20
351.489980
 30
0.0
 10
293.644743
 20
353.277897
 30
0.0
 10
294.755184
 20
354.388337
 30
0.0
  0
LWPOLYLINE
  5
311
100
AcDbEntity
  8
0
 62
7
100
AcDbPolyline
 90
2
 70
0
 10
303.774971
 20
341.359753
 30
0.0
 10
294.755184
 20
350.379539
 30
0.0
  0
LWPOLYLINE
  5
312
100
AcDbEntity
  8
0
 62
7
100
AcDbPolyline
 90
1
 70
1
 10
294.755184
 20
354.388337
 30
0.0
  0
SPLINE
  5
313
100
AcDbEntity
  8
0
 62
7
100
AcDbSpline
 70
8
 71
3
 72
8
 73
4
 74
0
 40
0
 40
0
 40
0
 40
0
 40
1
 40
1
 40
1
 40
1
 10
320.101507
 20
379.734661
 30
0.0
 10
321.211942
 20
380.845096
 30
0.0
 10
322.999865
 20
380.845101
 30
0.0
 10
324.110305
 20
379.734661
 30
0.0
  0
LWPOLYLINE
  5
314
100
AcDbEntity
  8
0
 62
7
100
AcDbPolyline
 90
2
 70
0
 10
311.081721
 20
370.714874
 30
0.0
 10
320.101507
 20
379.734661
 30
0.0
  0
SPLINE
  5
315
100
AcDbEntity
  8
0
 62
7
100
AcDbSpline
 70
8
 71
3
 72
8
 73
4
 74
0
 40
0
 40
0
 40
0
 40
0
 40
1
 40
1
 40
1
 40
1
 10
333.130092
 20
370.714874
 30
0.0
 10
334.240527
 20
369.604439
 30
0.0
 10
334.240521
 20
367.816517
 30
0.0
 10
333.130086
 20
366.706082
 30
0.0
  0
LWPOLYLINE
  5
316
100
AcDbEntity
  8
0
 62
7
100
AcDbPolyline
 90
2
 70
0
 10
324.110305
 20
379.734661
 30
0.0
 10
333.130092
 20
370.714874
 30
0.0
  0
SPLINE
  5
317
100
AcDbEntity
  8
0
 62
7
100
AcDbSpline
 70
8
 71
3
 72
8
 73
4
 74
0
 40
0
 40
0
 40
0
 40
0
 40
1
 40
1
 40
1
 40
1
 10
324.110300
 20
357.686295
 30
0.0
 10
322.999865
 20
356.575860
 30
0.0
 10
321.211942
 20
356.575854
 30
0.0
 10
320.101507
 20
357.686289
 30
0.0
  0
LWPOLYLINE
  5
318
100
AcDbEntity
  8
0
 62
7
100
AcDbPolyline
 90
2
 70
0
 10
333.130086
 20
366.706082
 30
0.0
 10
324.110300
 20
357.686295
 30
0.0
  0
SPLINE
  5
319
100
AcDbEntity
  8
0
 62
7
100
AcDbSpline
 70
8
 71
3
 72
8
 73
4
 74
0
 40
0
 40
0
 40
0
 40
0
 40
1
 40
1
 40
1
 40
1
 10
311.081721
 20
366.706076
 30
0.0
 10
309.971280
 20
367.816517
 30
0.0
 10
309.971286
 20
369.604439
 30
0.0
 10
311.081721
 20
370.714874
 30
0.0
  0
LWPOLYLINE
  5
31a
100
AcDbEntity
  8
0
 62
7
100
AcDbPolyline
 90
2
 70
0
 10
320.101507
 20
357.686289
 30
0.0
 10
311.081721
 20
366.706076
 30
0.0
  0
LWPOLYLINE
  5
31b
100
AcDbEntity
  8
0
 62
7
100
AcDbPolyline
 90
1
 70
1
 10
311.081721
 20
370.714874
 30
0.0
  0
SPLINE
  5
31c
100
AcDbEntity
  8
0
 62
7
100
AcDbSpline
 70
8
 71
3
 72
8
 73
4
 74
0
 40
0
 40
0
 40
0
 40
0
 40
1
 40
1
 40
1
 40
1
 10
336.428027
 20
396.061180
 30
0.0
 10
337.538462
 20
397.171615
 30
0.0
 10
339.326384
 20
397.171621
 30
0.0
 10
340.436825
 20
396.061180
 30
0.0
  0
LWPOLYLINE
  5
31d
100
AcDbEntity
  8
0
 62
7
100
AcDbPolyline
 90
2
 70
0
 10
327.408240
 20
387.041394
 30
0.0
 10
336.428027
 20
396.061180
 30
0.0
  0
SPLINE
  5
31e
100
AcDbEntity
  8
0
 62
7
100
AcDbSpline
 70
8
 71
3
 72
8
 73
4
 74
0
 40
0
 40
0
 40
0
 40
0
 40
1
 40
1
 40
1
 40
1
 10
349.456612
 20
387.041394
 30
0.0
 10
350.567047
 20
385.930959
 30
0.0
 10
350.567041
 20
384.143036
 30
0.0
 10
349.456606
 20
383.032601
 30
0.0
  0
LWPOLYLINE
  5
31f
100
AcDbEntity
  8
0
 62
7
100
AcDbPolyline
 90
2
 70
0
 10
340.436825
 20
396.061180
 30
0.0
 10
349.456612
 20
387.041394
 30
0.0
  0
SPLINE
  5
320
100
AcDbEntity
  8
0
 62
7
100
AcDbSpline
 70
8
 71
3
 72
8
 73
4
 74
0
 40
0
 40
0
 40
0
 40
0
 40
1
 40
1
 40
1
 40
1
 10
340.436819
 20
374.012815
 30
0.0
 10
339.326384
 20
372.902380
 30
0.0
 10
337.538462
 20
372.902374
 30
0.0
 10
336.428027
 20
374.012809
 30
0.0
  0
LWPOLYLINE
  5
321
100
AcDbEntity
  8
0
 62
7
100
AcDbPolyline
 90
2
 70
0
 10
349.456606
 20
383.032601
 30
0.0
 10
340.436819
 20
374.012815
 30
0.0
  0
SPLINE
  5
322
100
AcDbEntity
  8
0
 62
7
100
AcDbSpline
 70
8
 71
3
 72
8
 73
4
 74
0
 40
0
 40
0
 40
0
 40
0
 40
1
 40
1
 40
1
 40
1
 10
327.408240
 20
383.032596
 30
0.0
 10
326.297800
 20
384.143036
 30
0.0
 10
326.297805
 20
385.930959
 30
0.0
 10
327.408240
 20
387.041394
 30
0.0
  0
LWPOLYLINE
  5
323
100
AcDbEntity
  8
0
 62
7
100
AcDbPolyline
 90
2
 70
0
 10
336.428027
 20
374.012809
 30
0.0
 10
327.408240
 20
383.032596
 30
0.0
  0
LWPOLYLINE
  5
324
100
AcDbEntity
  8
0
 62
7
100
AcDbPolyline
 90
1
 70
1
 10
327.408240
 20
387.041394
 30
0.0
  0
SPLINE
  5
325
100
AcDbEntity
  8
0
 62
7
100
AcDbSpline
 70
8
 71
3
 72
8
 73
4
 74
0
 40
0
 40
0
 40
0
 40
0
 40
1
 40
1
 40
1
 40
1
 10
352.754564
 20
412.387717
 30
0.0
 10
353.864999
 20
413.498152
 30
0.0
 10
355.652921
 20
413.498158
 30
0.0
 10
356.763362
 20
412.387717
 30
0.0
  0
LWPOLYLINE
  5
326
100
AcDbEntity
  8
0
 62
7
100
AcDbPolyline
 90
2
 70
0
 10
343.734777
 20
403.367930
 30
0.0
 10
352.754564
 20
412.387717
 30
0.0
  0
SPLINE
  5
327
100
AcDbEntity
  8
0
 62
7
100
AcDbSpline
 70
8
 71
3
 72
8
 73
4
 74
0
 40
0
 40
0
 40
0
 40
0
 40
1
 40
1
 40
1
 40
1
 10
365.783148
 20
403.367930
 30
0.0
 10
366.893583
 20
402.257495
 30
0.0
 10
366.893578
 20
400.469573
 30
0.0
 10
365.783143
 20
399.359138
 30
0.0
  0
LWPOLYLINE
  5
328
100
AcDbEntity
  8
0
 62
7
100
AcDbPolyline
 90
2
 70
0
 10
356.763362
 20
412.387717
 30
0.0
 10
365.783148
 20
403.367930
 30
0.0
  0
SPLINE
  5
329
100
AcDbEntity
  8
0
 62
7
100
AcDbSpline
 70
8
 71
3
 72
8
 73
4
 74
0
 40
0
 40
0
 40
0
 40
0
 40
1
 40
1
 40
1
 40
1
 10
356.763356
 20
390.339351
 30
0.0
 10
355.652921
 20
389.228916
 30
0.0
 10
353.864999
 20
389.228911
 30
0.0
 10
352.754564
 20
390.339345
 30
0.0
  0
LWPOLYLINE
  5
32a
100
AcDbEntity
  8
0
 62
7
100
AcDbPolyline
 90
2
 70
0
 10
365.783143
 20
399.359138
 30
0.0
 10
356.763356
 20
390.339351
 30
0.0
  0
SPLINE
  5
32b
100
AcDbEntity
  8
0
 62
7
100
AcDbSpline
 70
8
 71
3
 72
8
 73
4
 74
0
 40
0
 40
0
 40
0
 40
0
 40
1
 40
1
 40
1
 40
1
 10
343.734777
 20
399.359132
 30
0.0
 10
342.624336
 20
400.469573
 30
0.0
 10
342.624342
 20
402.257495
 30
0.0
 10
343.734777
 20
403.367930
 30
0.0
  0
LWPOLYLINE
  5
32c
100
AcDbEntity
  8
0
 62
7
100
AcDbPolyline
 90
2
 70
0
 10
352.754564
 20
390.339345
 30
0.0
 10
343.734777
 20
399.359132
 30
0.0
  0
LWPOLYLINE
  5
32d
100
AcDbEntity
  8
0
 62
7
100
AcDbPolyline
 90
1
 70
1
 10
343.734777
 20
403.367930
 30
0.0
  0
SPLINE
  5
32e
100
AcDbEntity
  8
0
 62
7
100
AcDbSpline
 70
8
 71
3
 72
8
 73
4
 74
0
 40
0
 40
0
 40
0
 40
0
 40
1
 40
1
 40
1
 40
1
 10
369.081083
 20
428.714237
 30
0.0
 10
370.191518
 20
429.824671
 30
0.0
 10
371.979441
 20
429.824677
 30
0.0
 10
373.089881
 20
428.714237
 30
0.0
  0
LWPOLYLINE
  5
32f
100
AcDbEntity
  8
0
 62
7
100
AcDbPolyline
 90
2
 70
0
 10
360.061296
 20
419.694450
 30
0.0
 10
369.081083
 20
428.714237
 30
0.0
  0
SPLINE
  5
330
100
AcDbEntity
  8
0
 62
7
100
AcDbSpline
 70
8
 71
3
 72
8
 73
4
 74
0
 40
0
 40
0
 40
0
 40
0
 40
1
 40
1
 40
1
 40
1
 10
382.109668
 20
419.694450
 30
0.0
 10
383.220103
 20
418.584015
 30
0.0
 10
383.220097
 20
416.796092
 30
0.0
 10
382.109662
 20
415.685658
 30
0.0
  0
LWPOLYLINE
  5
331
100
AcDbEntity
  8
0
 62
7
100
AcDbPolyline
 90
2
 70
0
 10
373.089881
 20
428.714237
 30
0.0
 10
382.109668
 20
419.694450
 30
0.0
  0
SPLINE
  5
332
100
AcDbEntity
  8
0
 62
7
100
AcDbSpline
 70
8
 71
3
 72
8
 73
4
 74
0
 40
0
 40
0
 40
0
 40
0
 40
1
 40
1
 40
1
 40
1
 10
373.089875
 20
406.665871
 30
0.0
 10
371.979441
 20
405.555436
 30
0.0
 10
370.191518
 20
405.555430
 30
0.0
 10
369.081083
 20
406.665865
 30
0.0
  0
LWPOLYLINE
  5
333
100
AcDbEntity
  8
0
 62
7
100
AcDbPolyline
 90
2
 70
0
 10
382.109662
 20
415.685658
 30
0.0
 10
373.089875
 20
406.665871
 30
0.0
  0
SPLINE
  5
334
100
AcDbEntity
  8
0
 62
7
100
AcDbSpline
 70
8
 71
3
 72
8
 73
4
 74
0
 40
0
 40
0
 40
0
 40
0
 40
1
 40
1
 40
1
 40
1
 10
360.061296
 20
415.685652
 30
0.0
 10
358.950856
 20
416.796092
 30
0.0
 10
358.950862
 20
418.584015
 30
0.0
 10
360.061296
 20
419.694450
 30
0.0
  0
LWPOLYLINE
  5
335
100
AcDbEntity
  8
0
 62
7
100
AcDbPolyline
 90
2
 70
0
 10
369.081083
 20
406.665865
 30
0.0
 10
360.061296
 20
415.685652
 30
0.0
  0
LWPOLYLINE
  5
336
100
AcDbEntity
  8
0
 62
7
100
AcDbPolyline
 90
1
 70
1
 10
360.061296
 20
419.694450
 30
0.0
  0
SPLINE
  5
337
100
AcDbEntity
  8
0
 62
7
100
AcDbSpline
 70
8
 71
3
 72
8
 73
4
 74
0
 40
0
 40
0
 40
0
 40
0
 40
1
 40
1
 40
1
 40
1
 10
385.407620
 20
445.040773
 30
0.0
 10
386.518060
 20
446.151214
 30
0.0
 10
388.305977
 20
446.151214
 30
0.0
 10
389.416418
 20
445.040773
 30
0.0
  0
LWPOLYLINE
  5
338
100
AcDbEntity
  8
0
 62
7
100
AcDbPolyline
 90
2
 70
0
 10
376.387833
 20
436.020986
 30
0.0
 10
385.407620
 20
445.040773
 30
0.0
  0
SPLINE
  5
339
100
AcDbEntity
  8
0
 62
7
100
AcDbSpline
 70
8
 71
3
 72
8
 73
4
 74
0
 40
0
 40
0
 40
0
 40
0
 40
1
 40
1
 40
1
 40
1
 10
398.436205
 20
436.020986
 30
0.0
 10
399.546639
 20
434.910551
 30
0.0
 10
399.546639
 20
433.122635
 30
0.0
 10
398.436199
 20
432.012194
 30
0.0
  0
LWPOLYLINE
  5
33a
100
AcDbEntity
  8
0
 62
7
100
AcDbPolyline
 90
2
 70
0
 10
389.416418
 20
445.040773
 30
0.0
 10
398.436205
 20
436.020986
 30
0.0
  0
SPLINE
  5
33b
100
AcDbEntity
  8
0
 62
7
100
AcDbSpline
 70
8
 71
3
 72
8
 73
4
 74
0
 40
0
 40
0
 40
0
 40
0
 40
1
 40
1
 40
1
 40
1
 10
389.416412
 20
422.992407
 30
0.0
 10
388.305977
 20
421.881972
 30
0.0
 10
386.518055
 20
421.881967
 30
0.0
 10
385.407620
 20
422.992402
 30
0.0
  0
LWPOLYLINE
  5
33c
100
AcDbEntity
  8
0
 62
7
100
AcDbPolyline
 90
2
 70
0
 10
398.436199
 20
432.012194
 30
0.0
 10
389.416412
 20
422.992407
 30
0.0
  0
SPLINE
  5
33d
100
AcDbEntity
  8
0
 62
7
100
AcDbSpline
 70
8
 71
3
 72
8
 73
4
 74
0
 40
0
 40
0
 40
0
 40
0
 40
1
 40
1
 40
1
 40
1
 10
376.387833
 20
432.012188
 30
0.0
 10
375.277392
 20
433.122629
 30
0.0
 10
375.277398
 20
434.910551
 30
0.0
 10
376.387833
 20
436.020986
 30
0.0
  0
LWPOLYLINE
  5
33e
100
AcDbEntity
  8
0
 62
7
100
AcDbPolyline
 90
2
 70
0
 10
385.407620
 20
422.992402
 30
0.0
 10
376.387833
 20
432.012188
 30
0.0
  0
LWPOLYLINE
  5
33f
100
AcDbEntity
  8
0
 62
7
100
AcDbPolyline
 90
1
 70
1
 10
376.387833
 20
436.020986
 30
0.0
  0
SPLINE
  5
340
100
AcDbEntity
  8
0
 62
7
100
AcDbSpline
 70
8
 71
3
 72
8
 73
4
 74
0
 40
0
 40
0
 40
0
 40
0
 40
1
 40
1
 40
1
 40
1
 10
399.701917
 20
590.905510
 30
0.0
 10
415.405854
 20
590.905510
 30
0.0
 10
428.048366
 20
578.262989
 30
0.0
 10
428.048366
 20
562.559061
 30
0.0
  0
LWPOLYLINE
  5
341
100
AcDbEntity
  8
0
 62
7
100
AcDbPolyline
 90
2
 70
0
 10
144.583806
 20
590.905510
 30
0.0
 10
399.701917
 20
590.905510
 30
0.0
  0
SPLINE
  5
342
100
AcDbEntity
  8
0
 62
7
100
AcDbSpline
 70
8
 71
3
 72
8
 73
4
 74
0
 40
0
 40
0
 40
0
 40
0
 40
1
 40
1
 40
1
 40
1
 10
428.048366
 20
307.440950
 30
0.0
 10
428.048366
 20
291.737013
 30
0.0
 10
415.405854
 20
279.094493
 30
0.0
 10
399.701917
 20
279.094493
 30
0.0
  0
LWPOLYLINE
  5
343
100
AcDbEntity
  8
0
 62
7
100
AcDbPolyline
 90
2
 70
0
 10
428.048366
 20
562.559061
 30
0.0
 10
428.048366
 20
307.440950
 30
0.0
  0
SPLINE
  5
344
100
AcDbEntity
  8
0
 62
7
100
AcDbSpline
 70
8
 71
3
 72
8
 73
4
 74
0
 40
0
 40
0
 40
0
 40
0
 40
1
 40
1
 40
1
 40
1
 10
144.583806
 20
279.094493
 30
0.0
 10
128.879870
 20
279.094493
 30
0.0
 10
116.237349
 20
291.737013
 30
0.0
 10
116.237349
 20
307.440950
 30
0.0
  0
LWPOLYLINE
  5
345
100
AcDbEntity
  8
0
 62
7
100
AcDbPolyline
 90
2
 70
0
 10
399.701917
 20
279.094493
 30
0.0
 10
144.583806
 20
279.094493
 30
0.0
  0
SPLINE
  5
346
100
AcDbEntity
  8
0
 62
7
100
AcDbSpline
 70
8
 71
3
 72
8
 73
4
 74
0
 40
0
 40
0
 40
0
 40
0
 40
1
 40
1
 40
1
 40
1
 10
116.237349
 20
562.559061
 30
0.0
 10
116.237349
 20
578.262989
 30
0.0
 10
128.879870
 20
590.905510
 30
0.0
 10
144.583806
 20
590.905510
 30
0.0
  0
LWPOLYLINE
  5
347
100
AcDbEntity
  8
0
 62
7
100
AcDbPolyline
 90
2
 70
0
 10
116.237349
 20
307.440950
 30
0.0
 10
116.237349
 20
562.559061
 30
0.0
  0
SPLINE
  5
348
100
AcDbEntity
  8
0
 62
7
100
AcDbSpline
 70
8
 71
3
 72
8
 73
4
 74
0
 40
0
 40
0
 40
0
 40
0
 40
1
 40
1
 40
1
 40
1
 10
141.749152
 20
569.645668
 30
0.0
 10
141.749152
 20
568.517976
 30
0.0
 10
141.301178
 20
567.436471
 30
0.0
 10
140.503780
 20
566.639073
 30
0.0
  0
SPLINE
  5
349
100
AcDbEntity
  8
0
 62
7
100
AcDbSpline
 70
8
 71
3
 72
8
 73
4
 74
0
 40
0
 40
0
 40
0
 40
0
 40
1
 40
1
 40
1
 40
1
 10
140.503780
 20
566.639073
 30
0.0
 10
139.706381
 20
565.841674
 30
0.0
 10
138.624876
 20
565.393700
 30
0.0
 10
137.497184
 20
565.393700
 30
0.0
  0
SPLINE
  5
34a
100
AcDbEntity
  8
0
 62
7
100
AcDbSpline
 70
8
 71
3
 72
8
 73
4
 74
0
 40
0
 40
0
 40
0
 40
0
 40
1
 40
1
 40
1
 40
1
 10
137.497184
 20
565.393700
 30
0.0
 10
136.369492
 20
565.393700
 30
0.0
 10
135.287987
 20
565.841674
 30
0.0
 10
134.490588
 20
566.639073
 30
0.0
  0
SPLINE
  5
34b
100
AcDbEntity
  8
0
 62
7
100
AcDbSpline
 70
8
 71
3
 72
8
 73
4
 74
0
 40
0
 40
0
 40
0
 40
0
 40
1
 40
1
 40
1
 40
1
 10
134.490588
 20
566.639073
 30
0.0
 10
133.693189
 20
567.436471
 30
0.0
 10
133.245215
 20
568.517976
 30
0.0
 10
133.245215
 20
569.645668
 30
0.0
  0
SPLINE
  5
34c
100
AcDbEntity
  8
0
 62
7
100
AcDbSpline
 70
8
 71
3
 72
8
 73
4
 74
0
 40
0
 40
0
 40
0
 40
0
 40
1
 40
1
 40
1
 40
1
 10
133.245215
 20
569.645668
 30
0.0
 10
133.245215
 20
570.773361
 30
0.0
 10
133.693189
 20
571.854865
 30
0.0
 10
134.490588
 20
572.652264
 30
0.0
  0
SPLINE
  5
34d
100
AcDbEntity
  8
0
 62
7
100
AcDbSpline
 70
8
 71
3
 72
8
 73
4
 74
0
 40
0
 40
0
 40
0
 40
0
 40
1
 40
1
 40
1
 40
1
 10
134.490588
 20
572.652264
 30
0.0
 10
135.287987
 20
573.449663
 30
0.0
 10
136.369492
 20
573.897637
 30
0.0
 10
137.497184
 20
573.897637
 30
0.0
  0
SPLINE
  5
34e
100
AcDbEntity
  8
0
 62
7
100
AcDbSpline
 70
8
 71
3
 72
8
 73
4
 74
0
 40
0
 40
0
 40
0
 40
0
 40
1
 40
1
 40
1
 40
1
 10
137.497184
 20
573.897637
 30
0.0
 10
138.624876
 20
573.897637
 30
0.0
 10
139.706381
 20
573.449663
 30
0.0
 10
140.503780
 20
572.652264
 30
0.0
  0
SPLINE
  5
34f
100
AcDbEntity
  8
0
 62
7
100
AcDbSpline
 70
8
 71
3
 72
8
 73
4
 74
0
 40
0
 40
0
 40
0
 40
0
 40
1
 40
1
 40
1
 40
1
 10
140.503780
 20
572.652264
 30
0.0
 10
141.301178
 20
571.854865
 30
0.0
 10
141.749152
 20
570.773361
 30
0.0
 10
141.749152
 20
569.645668
 30
0.0
  0
LWPOLYLINE
  5
350
100
AcDbEntity
  8
0
 62
7
100
AcDbPolyline
 90
1
 70
1
 10
144.583806
 20
590.905510
 30
0.0
  0
SPLINE
  5
351
100
AcDbEntity
  8
0
 62
7
100
AcDbSpline
 70
8
 71
3
 72
8
 73
4
 74
0
 40
0
 40
0
 40
0
 40
0
 40
1
 40
1
 40
1
 40
1
 10
411.040517
 20
569.645668
 30
0.0
 10
411.040517
 20
568.517976
 30
0.0
 10
410.592543
 20
567.436471
 30
0.0
 10
409.795144
 20
566.639073
 30
0.0
  0
SPLINE
  5
352
100
AcDbEntity
  8
0
 62
7
100
AcDbSpline
 70
8
 71
3
 72
8
 73
4
 74
0
 40
0
 40
0
 40
0
 40
0
 40
1
 40
1
 40
1
 40
1
 10
409.795144
 20
566.639073
 30
0.0
 10
408.997745
 20
565.841674
 30
0.0
 10
407.916240
 20
565.393700
 30
0.0
 10
406.788548
 20
565.393700
 30
0.0
  0
SPLINE
  5
353
100
AcDbEntity
  8
0
 62
7
100
AcDbSpline
 70
8
 71
3
 72
8
 73
4
 74
0
 40
0
 40
0
 40
0
 40
0
 40
1
 40
1
 40
1
 40
1
 10
406.788548
 20
565.393700
 30
0.0
 10
405.660856
 20
565.393700
 30
0.0
 10
404.579351
 20
565.841674
 30
0.0
 10
403.781952
 20
566.639073
 30
0.0
  0
SPLINE
  5
354
100
AcDbEntity
  8
0
 62
7
100
AcDbSpline
 70
8
 71
3
 72
8
 73
4
 74
0
 40
0
 40
0
 40
0
 40
0
 40
1
 40
1
 40
1
 40
1
 10
403.781952
 20
566.639073
 30
0.0
 10
402.984554
 20
567.436471
 30
0.0
 10
402.536580
 20
568.517976
 30
0.0
 10
402.536580
 20
569.645668
 30
0.0
  0
SPLINE
  5
355
100
AcDbEntity
  8
0
 62
7
100
AcDbSpline
 70
8
 71
3
 72
8
 73
4
 74
0
 40
0
 40
0
 40
0
 40
0
 40
1
 40
1
 40
1
 40
1
 10
402.536580
 20
569.645668
 30
0.0
 10
402.536580
 20
570.773361
 30
0.0
 10
402.984554
 20
571.854865
 30
0.0
 10
403.781952
 20
572.652264
 30
0.0
  0
SPLINE
  5
356
100
AcDbEntity
  8
0
 62
7
100
AcDbSpline
 70
8
 71
3
 72
8
 73
4
 74
0
 40
0
 40
0
 40
0
 40
0
 40
1
 40
1
 40
1
 40
1
 10
403.781952
 20
572.652264
 30
0.0
 10
404.579351
 20
573.449663
 30
0.0
 10
405.660856
 20
573.897637
 30
0.0
 10
406.788548
 20
573.897637
 30
0.0
  0
SPLINE
  5
357
100
AcDbEntity
  8
0
 62
7
100
AcDbSpline
 70
8
 71
3
 72
8
 73
4
 74
0
 40
0
 40
0
 40
0
 40
0
 40
1
 40
1
 40
1
 40
1
 10
406.788548
 20
573.897637
 30
0.0
 10
407.916240
 20
573.897637
 30
0.0
 10
408.997745
 20
573.449663
 30
0.0
 10
409.795144
 20
572.652264
 30
0.0
  0
SPLINE
  5
358
100
AcDbEntity
  8
0
 62
7
100
AcDbSpline
 70
8
 71
3
 72
8
 73
4
 74
0
 40
0
 40
0
 40
0
 40
0
 40
1
 40
1
 40
1
 40
1
 10
409.795144
 20
572.652264
 30
0.0
 10
410.592543
 20
571.854865
 30
0.0
 10
411.040517
 20
570.773361
 30
0.0
 10
411.040517
 20
569.645668
 30
0.0
  0
LWPOLYLINE
  5
359
100
AcDbEntity
  8
0
 62
7
100
AcDbPolyline
 90
1
 70
1
 10
141.749152
 20
569.645668
 30
0.0
  0
SPLINE
  5
35a
100
AcDbEntity
  8
0
 62
7
100
AcDbSpline
 70
8
 71
3
 72
8
 73
4
 74
0
 40
0
 40
0
 40
0
 40
0
 40
1
 40
1
 40
1
 40
1
 10
411.040517
 20
300.354321
 30
0.0
 10
411.040517
 20
299.226629
 30
0.0
 10
410.592543
 20
298.145124
 30
0.0
 10
409.795144
 20
297.347726
 30
0.0
  0
SPLINE
  5
35b
100
AcDbEntity
  8
0
 62
7
100
AcDbSpline
 70
8
 71
3
 72
8
 73
4
 74
0
 40
0
 40
0
 40
0
 40
0
 40
1
 40
1
 40
1
 40
1
 10
409.795144
 20
297.347726
 30
0.0
 10
408.997745
 20
296.550327
 30
0.0
 10
407.916240
 20
296.102353
 30
0.0
 10
406.788548
 20
296.102353
 30
0.0
  0
SPLINE
  5
35c
100
AcDbEntity
  8
0
 62
7
100
AcDbSpline
 70
8
 71
3
 72
8
 73
4
 74
0
 40
0
 40
0
 40
0
 40
0
 40
1
 40
1
 40
1
 40
1
 10
406.788548
 20
296.102353
 30
0.0
 10
405.660856
 20
296.102353
 30
0.0
 10
404.579351
 20
296.550327
 30
0.0
 10
403.781952
 20
297.347726
 30
0.0
  0
SPLINE
  5
35d
100
AcDbEntity
  8
0
 62
7
100
AcDbSpline
 70
8
 71
3
 72
8
 73
4
 74
0
 40
0
 40
0
 40
0
 40
0
 40
1
 40
1
 40
1
 40
1
 10
403.781952
 20
297.347726
 30
0.0
 10
402.984554
 20
298.145124
 30
0.0
 10
402.536580
 20
299.226629
 30
0.0
 10
402.536580
 20
300.354321
 30
0.0
  0
SPLINE
  5
35e
100
AcDbEntity
  8
0
 62
7
100
AcDbSpline
 70
8
 71
3
 72
8
 73
4
 74
0
 40
0
 40
0
 40
0
 40
0
 40
1
 40
1
 40
1
 40
1
 10
402.536580
 20
300.354321
 30
0.0
 10
402.536580
 20
301.482013
 30
0.0
 10
402.984554
 20
302.563518
 30
0.0
 10
403.781952
 20
303.360917
 30
0.0
  0
SPLINE
  5
35f
100
AcDbEntity
  8
0
 62
7
100
AcDbSpline
 70
8
 71
3
 72
8
 73
4
 74
0
 40
0
 40
0
 40
0
 40
0
 40
1
 40
1
 40
1
 40
1
 10
403.781952
 20
303.360917
 30
0.0
 10
404.579351
 20
304.158316
 30
0.0
 10
405.660856
 20
304.606290
 30
0.0
 10
406.788548
 20
304.606290
 30
0.0
  0
SPLINE
  5
360
100
AcDbEntity
  8
0
 62
7
100
AcDbSpline
 70
8
 71
3
 72
8
 73
4
 74
0
 40
0
 40
0
 40
0
 40
0
 40
1
 40
1
 40
1
 40
1
 10
406.788548
 20
304.606290
 30
0.0
 10
407.916240
 20
304.606290
 30
0.0
 10
408.997745
 20
304.158316
 30
0.0
 10
409.795144
 20
303.360917
 30
0.0
  0
SPLINE
  5
361
100
AcDbEntity
  8
0
 62
7
100
AcDbSpline
 70
8
 71
3
 72
8
 73
4
 74
0
 40
0
 40
0
 40
0
 40
0
 40
1
 40
1
 40
1
 40
1
 10
409.795144
 20
303.360917
 30
0.0
 10
410.592543
 20
302.563518
 30
0.0
 10
411.040517
 20
301.482013
 30
0.0
 10
411.040517
 20
300.354321
 30
0.0
  0
LWPOLYLINE
  5
362
100
AcDbEntity
  8
0
 62
7
100
AcDbPolyline
 90
1
 70
1
 10
411.040517
 20
569.645668
 30
0.0
  0
SPLINE
  5
363
100
AcDbEntity
  8
0
 62
7
100
AcDbSpline
 70
8
 71
3
 72
8
 73
4
 74
0
 40
0
 40
0
 40
0
 40
0
 40
1
 40
1
 40
1
 40
1
 10
141.749152
 20
300.354321
 30
0.0
 10
141.749152
 20
299.226629
 30
0.0
 10
141.301178
 20
298.145124
 30
0.0
 10
140.503780
 20
297.347726
 30
0.0
  0
SPLINE
  5
364
100
AcDbEntity
  8
0
 62
7
100
AcDbSpline
 70
8
 71
3
 72
8
 73
4
 74
0
 40
0
 40
0
 40
0
 40
0
 40
1
 40
1
 40
1
 40
1
 10
140.503780
 20
297.347726
 30
0.0
 10
139.706381
 20
296.550327
 30
0.0
 10
138.624876
 20
296.102353
 30
0.0
 10
137.497184
 20
296.102353
 30
0.0
  0
SPLINE
  5
365
100
AcDbEntity
  8
0
 62
7
100
AcDbSpline
 70
8
 71
3
 72
8
 73
4
 74
0
 40
0
 40
0
 40
0
 40
0
 40
1
 40
1
 40
1
 40
1
 10
137.497184
 20
296.102353
 30
0.0
 10
136.369492
 20
296.102353
 30
0.0
 10
135.287987
 20
296.550327
 30
0.0
 10
134.490588
 20
297.347726
 30
0.0
  0
SPLINE
  5
366
100
AcDbEntity
  8
0
 62
7
100
AcDbSpline
 70
8
 71
3
 72
8
 73
4
 74
0
 40
0
 40
0
 40
0
 40
0
 40
1
 40
1
 40
1
 40
1
 10
134.490588
 20
297.347726
 30
0.0
 10
133.693189
 20
298.145124
 30
0.0
 10
133.245215
 20
299.226629
 30
0.0
 10
133.245215
 20
300.354321
 30
0.0
  0
SPLINE
  5
367
100
AcDbEntity
  8
0
 62
7
100
AcDbSpline
 70
8
 71
3
 72
8
 73
4
 74
0
 40
0
 40
0
 40
0
 40
0
 40
1
 40
1
 40
1
 40
1
 10
133.245215
 20
300.354321
 30
0.0
 10
133.245215
 20
301.482013
 30
0.0
 10
133.693189
 20
302.563518
 30
0.0
 10
134.490588
 20
303.360917
 30
0.0
  0
SPLINE
  5
368
100
AcDbEntity
  8
0
 62
7
100
AcDbSpline
 70
8
 71
3
 72
8
 73
4
 74
0
 40
0
 40
0
 40
0
 40
0
 40
1
 40
1
 40
1
 40
1
 10
134.490588
 20
303.360917
 30
0.0
 10
135.287987
 20
304.158316
 30
0.0
 10
136.369492
 20
304.606290
 30
0.0
 10
137.497184
 20
304.606290
 30
0.0
  0
SPLINE
  5
369
100
AcDbEntity
  8
0
 62
7
100
AcDbSpline
 70
8
 71
3
 72
8
 73
4
 74
0
 40
0
 40
0
 40
0
 40
0
 40
1
 40
1
 40
1
 40
1
 10
137.497184
 20
304.606290
 30
0.0
 10
138.624876
 20
304.606290
 30
0.0
 10
139.706381
 20
304.158316
 30
0.0
 10
140.503780
 20
303.360917
 30
0.0
  0
SPLINE
  5
36a
100
AcDbEntity
  8
0
 62
7
100
AcDbSpline
 70
8
 71
3
 72
8
 73
4
 74
0
 40
0
 40
0
 40
0
 40
0
 40
1
 40
1
 40
1
 40
1
 10
140.503780
 20
303.360917
 30
0.0
 10
141.301178
 20
302.563518
 30
0.0
 10
141.749152
 20
301.482013
 30
0.0
 10
141.749152
 20
300.354321
 30
0.0
  0
LWPOLYLINE
  5
36b
100
AcDbEntity
  8
0
 62
7
100
AcDbPolyline
 90
1
 70
1
 10
411.040517
 20
300.354321
 30
0.0
  0
LWPOLYLINE
  5
36c
100
AcDbEntity
  8
0
 62
7
100
AcDbPolyline
 90
1
 70
1
 10
141.749152
 20
300.354321
 30
0.0
  0
LWPOLYLINE
  5
36d
100
AcDbEntity
  8
0
 62
7
100
AcDbPolyline
 90
6
 70
1
 10
195.002226
 20
511.218312
 30
0.0
 10
164.224661
 20
503.433978
 30
0.0
 10
142.152710
 20
526.428283
 30
0.0
 10
150.858323
 20
557.206894
 30
0.0
 10
181.635885
 20
564.991203
 30
0.0
 10
203.707834
 20
541.996923
 30
0.0
  0
LWPOLYLINE
  5
36e
100
AcDbEntity
  8
0
 62
7
100
AcDbPolyline
 90
6
 70
1
 10
180.999094
 20
304.998860
 30
0.0
 10
150.218904
 20
313.598438
 30
0.0
 10
142.542567
 20
344.375915
 30
0.0
 10
165.646420
 20
366.553871
 30
0.0
 10
196.426610
 20
357.954321
 30
0.0
 10
204.102944
 20
327.176816
 30
0.0
  0
LWPOLYLINE
  5
36f
100
AcDbEntity
  8
0
 62
7
100
AcDbPolyline
 90
6
 70
1
 10
393.427417
 20
312.793115
 30
0.0
 10
362.649855
 20
305.008781
 30
0.0
 10
340.577915
 20
328.003087
 30
0.0
 10
349.283509
 20
358.781698
 30
0.0
 10
380.061071
 20
366.566003
 30
0.0
 10
402.133011
 20
343.571726
 30
0.0
  0
LWPOLYLINE
  5
370
100
AcDbEntity
  8
0
 62
7
100
AcDbPolyline
 90
6
 70
1
 10
379.031811
 20
503.435083
 30
0.0
 10
348.251613
 20
512.034661
 30
0.0
 10
340.575279
 20
542.812139
 30
0.0
 10
363.679115
 20
564.990094
 30
0.0
 10
394.459313
 20
556.390545
 30
0.0
 10
402.135647
 20
525.613039
 30
0.0
  0
ENDSEC
  0
SECTION
  2
OBJECTS
  0
DICTIONARY
  5
C
330
0
100
AcDbDictionary
  3
ACAD_GROUP
350
D
  3
ACAD_MLINESTYLE
350
17
  0
DICTIONARY
  5
D
330
C
100
AcDbDictionary
  0
DICTIONARY
  5
1A
330
C
100
AcDbDictionary
  0
DICTIONARY
  5
17
330
C
100
AcDbDictionary
  3
STANDARD
350
18
  0
DICTIONARY
  5
19
330
C
100
AcDbDictionary
  0
ENDSEC
  0
EOF
