<?xml version="1.0" encoding="UTF-8" standalone="no"?>
<svg
   xmlns:dc="http://purl.org/dc/elements/1.1/"
   xmlns:cc="http://creativecommons.org/ns#"
   xmlns:rdf="http://www.w3.org/1999/02/22-rdf-syntax-ns#"
   xmlns:svg="http://www.w3.org/2000/svg"
   xmlns="http://www.w3.org/2000/svg"
   width="210mm"
   height="297mm"
   viewBox="0 0 210 297"
   version="1.1"
   id="svg1015">
  <defs
     id="defs1009" />
  <metadata
     id="metadata1012">
    <rdf:RDF>
      <cc:Work
         rdf:about="">
        <dc:format>image/svg+xml</dc:format>
        <dc:type
           rdf:resource="http://purl.org/dc/dcmitype/StillImage" />
        <dc:title></dc:title>
      </cc:Work>
    </rdf:RDF>
  </metadata>
  <path
     style="opacity:1;fill:none;fill-opacity:1;fill-rule:nonzero;stroke:#000000;stroke-width:0;stroke-linejoin:round;stroke-miterlimit:4;stroke-dasharray:none;stroke-opacity:1"
     d="m 51.45249,142.48763 3.181983,-3.18198 c 0.391737,-0.39174 1.022474,-0.39174 1.414213,0 l 3.18198,3.18198 c 0.391737,0.39174 0.391737,1.02247 0,1.41421 l -3.181982,3.18198 c -0.391737,0.39174 -1.022474,0.39174 -1.414211,0 l -3.181981,-3.18198 c -0.391738,-0.39174 -0.391738,-1.02247 -2e-6,-1.41421 z"
     id="path2255" />
  <path
     style="opacity:1;fill:none;fill-opacity:1;fill-rule:nonzero;stroke:#000000;stroke-width:0;stroke-linejoin:round;stroke-miterlimit:4;stroke-dasharray:none;stroke-opacity:1"
     d="m 57.212124,136.728 3.181982,-3.18198 c 0.391737,-0.39174 1.022474,-0.39174 1.414213,0 l 3.18198,3.18198 c 0.391737,0.39173 0.391737,1.02247 0,1.41421 l -3.181982,3.18198 c -0.391737,0.39174 -1.022474,0.39174 -1.414211,0 l -3.18198,-3.18198 c -0.391739,-0.39174 -0.391739,-1.02248 -2e-6,-1.41421 z"
     id="path2257" />
  <path
     style="opacity:1;fill:none;fill-opacity:1;fill-rule:nonzero;stroke:#000000;stroke-width:0;stroke-linejoin:round;stroke-miterlimit:4;stroke-dasharray:none;stroke-opacity:1"
     d="m 62.971765,130.96836 3.18198,-3.18198 c 0.391737,-0.39174 1.022477,-0.39174 1.414215,0 l 3.181981,3.18198 c 0.391736,0.39173 0.391734,1.02247 -2e-6,1.41421 l -3.181981,3.18198 c -0.391738,0.39174 -1.022476,0.39174 -1.414213,0 l -3.18198,-3.18198 c -0.391739,-0.39174 -0.391739,-1.02248 0,-1.41421 z"
     id="path2259" />
  <path
     style="opacity:1;fill:none;fill-opacity:1;fill-rule:nonzero;stroke:#000000;stroke-width:0;stroke-linejoin:round;stroke-miterlimit:4;stroke-dasharray:none;stroke-opacity:1"
     d="m 68.731404,125.20872 3.181981,-3.18198 c 0.391737,-0.39174 1.022476,-0.39174 1.414215,0 l 3.18198,3.18198 c 0.391737,0.39173 0.391735,1.02247 -2e-6,1.41421 l -3.18198,3.18198 c -0.391737,0.39174 -1.022476,0.39174 -1.414213,0 l -3.181981,-3.18198 c -0.391738,-0.39174 -0.391736,-1.02248 0,-1.41421 z"
     id="path2261" />
  <path
     style="opacity:1;fill:none;fill-opacity:1;fill-rule:nonzero;stroke:#000000;stroke-width:0;stroke-linejoin:round;stroke-miterlimit:4;stroke-dasharray:none;stroke-opacity:1"
     d="m 74.491038,119.44908 3.18198,-3.18198 c 0.391737,-0.39173 1.022476,-0.39174 1.414215,0 l 3.18198,3.18198 c 0.391737,0.39174 0.391735,1.02248 -2e-6,1.41422 l -3.18198,3.18198 c -0.391737,0.39173 -1.022476,0.39174 -1.414213,0 l -3.18198,-3.18198 c -0.391739,-0.39174 -0.391737,-1.02248 0,-1.41422 z"
     id="path2263" />
  <path
     style="opacity:1;fill:none;fill-opacity:1;fill-rule:nonzero;stroke:#000000;stroke-width:0;stroke-linejoin:round;stroke-miterlimit:4;stroke-dasharray:none;stroke-opacity:1"
     d="m 80.250677,113.68944 3.18198,-3.18198 c 0.391737,-0.39173 1.022476,-0.39173 1.414215,0 l 3.181981,3.18198 c 0.391736,0.39174 0.391734,1.02248 -2e-6,1.41422 l -3.181981,3.18198 c -0.391737,0.39173 -1.022476,0.39174 -1.414213,0 l -3.18198,-3.18198 c -0.391739,-0.39174 -0.391737,-1.02248 0,-1.41422 z"
     id="path2265" />
  <path
     style="opacity:1;fill:none;fill-opacity:1;fill-rule:nonzero;stroke:#000000;stroke-width:0;stroke-linejoin:round;stroke-miterlimit:4;stroke-dasharray:none;stroke-opacity:1"
     d="m 86.01031,107.92981 3.181981,-3.18198 c 0.391736,-0.39174 1.022476,-0.39174 1.414214,0 l 3.181981,3.18198 c 0.391737,0.39174 0.391735,1.02248 -2e-6,1.41421 l -3.181981,3.18198 c -0.391736,0.39174 -1.022476,0.39174 -1.414212,1e-5 l -3.181981,-3.18198 c -0.391738,-0.39174 -0.391736,-1.02248 0,-1.41422 z"
     id="path2267" />
  <path
     style="opacity:1;fill:none;fill-opacity:1;fill-rule:nonzero;stroke:#000000;stroke-width:0;stroke-linejoin:round;stroke-miterlimit:4;stroke-dasharray:none;stroke-opacity:1"
     d="m 91.76995,102.17017 3.18198,-3.181979 c 0.391739,-0.391738 1.022476,-0.391738 1.414215,0 l 3.18198,3.181979 c 0.391737,0.39174 0.391737,1.02248 -2e-6,1.41421 l -3.18198,3.18198 c -0.391737,0.39174 -1.022476,0.39174 -1.414213,10e-6 l -3.18198,-3.18198 c -0.391739,-0.39174 -0.391737,-1.02248 0,-1.41422 z"
     id="path2269" />
  <path
     style="opacity:1;fill:none;fill-opacity:1;fill-rule:nonzero;stroke:#000000;stroke-width:0;stroke-linejoin:round;stroke-miterlimit:4;stroke-dasharray:none;stroke-opacity:1"
     d="m 57.31125,148.34639 3.181983,-3.18198 c 0.391737,-0.39174 1.022474,-0.39174 1.414213,0 l 3.18198,3.18198 c 0.391737,0.39174 0.391737,1.02247 0,1.41421 l -3.181982,3.18198 c -0.391737,0.39174 -1.022474,0.39174 -1.414211,0 l -3.181981,-3.18198 c -0.391738,-0.39174 -0.391738,-1.02247 -2e-6,-1.41421 z"
     id="path2273" />
  <path
     style="opacity:1;fill:none;fill-opacity:1;fill-rule:nonzero;stroke:#000000;stroke-width:0;stroke-linejoin:round;stroke-miterlimit:4;stroke-dasharray:none;stroke-opacity:1"
     d="m 63.070884,142.58676 3.181982,-3.18198 c 0.391737,-0.39174 1.022474,-0.39174 1.414213,0 l 3.18198,3.18198 c 0.391737,0.39173 0.391737,1.02247 0,1.41421 l -3.181982,3.18198 c -0.391737,0.39174 -1.022474,0.39174 -1.414211,0 l -3.18198,-3.18198 c -0.391739,-0.39174 -0.391739,-1.02248 -2e-6,-1.41421 z"
     id="path2275" />
  <path
     style="opacity:1;fill:none;fill-opacity:1;fill-rule:nonzero;stroke:#000000;stroke-width:0;stroke-linejoin:round;stroke-miterlimit:4;stroke-dasharray:none;stroke-opacity:1"
     d="m 68.830525,136.82712 3.18198,-3.18198 c 0.391737,-0.39174 1.022477,-0.39174 1.414215,0 l 3.181981,3.18198 c 0.391736,0.39173 0.391734,1.02247 -2e-6,1.41421 l -3.181981,3.18198 c -0.391738,0.39174 -1.022476,0.39174 -1.414213,0 l -3.18198,-3.18198 c -0.391739,-0.39174 -0.391739,-1.02248 0,-1.41421 z"
     id="path2277" />
  <path
     style="opacity:1;fill:none;fill-opacity:1;fill-rule:nonzero;stroke:#000000;stroke-width:0;stroke-linejoin:round;stroke-miterlimit:4;stroke-dasharray:none;stroke-opacity:1"
     d="m 74.590164,131.06748 3.181981,-3.18198 c 0.391737,-0.39174 1.022476,-0.39174 1.414215,0 l 3.18198,3.18198 c 0.391737,0.39173 0.391735,1.02247 -2e-6,1.41421 l -3.18198,3.18198 c -0.391737,0.39174 -1.022476,0.39174 -1.414213,0 l -3.181981,-3.18198 c -0.391738,-0.39174 -0.391736,-1.02248 0,-1.41421 z"
     id="path2279" />
  <path
     style="opacity:1;fill:none;fill-opacity:1;fill-rule:nonzero;stroke:#000000;stroke-width:0;stroke-linejoin:round;stroke-miterlimit:4;stroke-dasharray:none;stroke-opacity:1"
     d="m 80.349798,125.30784 3.18198,-3.18198 c 0.391737,-0.39173 1.022476,-0.39174 1.414215,0 l 3.18198,3.18198 c 0.391737,0.39174 0.391735,1.02248 -2e-6,1.41422 l -3.18198,3.18198 c -0.391737,0.39173 -1.022476,0.39174 -1.414213,0 l -3.18198,-3.18198 c -0.391739,-0.39174 -0.391737,-1.02248 0,-1.41422 z"
     id="path2281" />
  <path
     style="opacity:1;fill:none;fill-opacity:1;fill-rule:nonzero;stroke:#000000;stroke-width:0;stroke-linejoin:round;stroke-miterlimit:4;stroke-dasharray:none;stroke-opacity:1"
     d="m 86.109437,119.5482 3.18198,-3.18198 c 0.391737,-0.39173 1.022476,-0.39173 1.414215,0 l 3.181981,3.18198 c 0.391736,0.39174 0.391734,1.02248 -2e-6,1.41422 l -3.181981,3.18198 c -0.391737,0.39173 -1.022476,0.39174 -1.414213,0 l -3.18198,-3.18198 c -0.391739,-0.39174 -0.391737,-1.02248 0,-1.41422 z"
     id="path2283" />
  <path
     style="opacity:1;fill:none;fill-opacity:1;fill-rule:nonzero;stroke:#000000;stroke-width:0;stroke-linejoin:round;stroke-miterlimit:4;stroke-dasharray:none;stroke-opacity:1"
     d="m 91.86907,113.78857 3.181981,-3.18198 c 0.391736,-0.39174 1.022476,-0.39174 1.414214,0 l 3.181981,3.18198 c 0.391734,0.39174 0.391734,1.02248 -2e-6,1.41421 l -3.181981,3.18198 c -0.391736,0.39174 -1.022476,0.39174 -1.414212,1e-5 l -3.181981,-3.18198 c -0.391738,-0.39174 -0.391736,-1.02248 0,-1.41422 z"
     id="path2285" />
  <path
     style="opacity:1;fill:none;fill-opacity:1;fill-rule:nonzero;stroke:#000000;stroke-width:0;stroke-linejoin:round;stroke-miterlimit:4;stroke-dasharray:none;stroke-opacity:1"
     d="m 97.62871,108.02893 3.18198,-3.18198 c 0.39174,-0.39174 1.02248,-0.39174 1.41421,0 l 3.18199,3.18198 c 0.39173,0.39174 0.39173,1.02248 -1e-5,1.41421 l -3.18198,3.18198 c -0.39173,0.39174 -1.02247,0.39174 -1.41421,1e-5 l -3.18198,-3.18198 c -0.391739,-0.39174 -0.391737,-1.02248 0,-1.41422 z"
     id="path2287" />
  <path
     style="opacity:1;fill:none;fill-opacity:1;fill-rule:nonzero;stroke:#000000;stroke-width:0;stroke-linejoin:round;stroke-miterlimit:4;stroke-dasharray:none;stroke-opacity:1"
     d="m 63.170011,154.20515 3.181983,-3.18198 c 0.391737,-0.39174 1.022474,-0.39174 1.414213,0 l 3.18198,3.18198 c 0.391737,0.39174 0.391737,1.02247 0,1.41421 l -3.181982,3.18198 c -0.391737,0.39174 -1.022474,0.39174 -1.414211,0 l -3.181981,-3.18198 c -0.391738,-0.39174 -0.391738,-1.02247 -2e-6,-1.41421 z"
     id="path2291" />
  <path
     style="opacity:1;fill:none;fill-opacity:1;fill-rule:nonzero;stroke:#000000;stroke-width:0;stroke-linejoin:round;stroke-miterlimit:4;stroke-dasharray:none;stroke-opacity:1"
     d="m 68.929645,148.44552 3.181982,-3.18198 c 0.391737,-0.39174 1.022474,-0.39174 1.414213,0 l 3.18198,3.18198 c 0.391737,0.39173 0.391737,1.02247 0,1.41421 l -3.181982,3.18198 c -0.391737,0.39174 -1.022474,0.39174 -1.414211,0 l -3.18198,-3.18198 c -0.391739,-0.39174 -0.391739,-1.02248 -2e-6,-1.41421 z"
     id="path2293" />
  <path
     style="opacity:1;fill:none;fill-opacity:1;fill-rule:nonzero;stroke:#000000;stroke-width:0;stroke-linejoin:round;stroke-miterlimit:4;stroke-dasharray:none;stroke-opacity:1"
     d="m 74.689286,142.68588 3.18198,-3.18198 c 0.391737,-0.39174 1.022477,-0.39174 1.414215,0 l 3.181981,3.18198 c 0.391736,0.39173 0.391734,1.02247 -2e-6,1.41421 l -3.181981,3.18198 c -0.391738,0.39174 -1.022476,0.39174 -1.414213,0 l -3.18198,-3.18198 c -0.391739,-0.39174 -0.391739,-1.02248 0,-1.41421 z"
     id="path2295" />
  <path
     style="opacity:1;fill:none;fill-opacity:1;fill-rule:nonzero;stroke:#000000;stroke-width:0;stroke-linejoin:round;stroke-miterlimit:4;stroke-dasharray:none;stroke-opacity:1"
     d="m 80.448925,136.92624 3.181981,-3.18198 c 0.391737,-0.39174 1.022476,-0.39174 1.414215,0 l 3.18198,3.18198 c 0.391737,0.39173 0.391735,1.02247 -2e-6,1.41421 l -3.18198,3.18198 c -0.391737,0.39174 -1.022476,0.39174 -1.414213,0 l -3.181981,-3.18198 c -0.391738,-0.39174 -0.391736,-1.02248 0,-1.41421 z"
     id="path2297" />
  <path
     style="opacity:1;fill:none;fill-opacity:1;fill-rule:nonzero;stroke:#000000;stroke-width:0;stroke-linejoin:round;stroke-miterlimit:4;stroke-dasharray:none;stroke-opacity:1"
     d="m 86.208559,131.1666 3.18198,-3.18198 c 0.391737,-0.39173 1.022476,-0.39174 1.414215,0 l 3.18198,3.18198 c 0.391737,0.39174 0.391735,1.02248 -2e-6,1.41422 l -3.18198,3.18198 c -0.391737,0.39173 -1.022476,0.39174 -1.414213,0 l -3.18198,-3.18198 c -0.391739,-0.39174 -0.391737,-1.02248 0,-1.41422 z"
     id="path2299" />
  <path
     style="opacity:1;fill:none;fill-opacity:1;fill-rule:nonzero;stroke:#000000;stroke-width:0;stroke-linejoin:round;stroke-miterlimit:4;stroke-dasharray:none;stroke-opacity:1"
     d="m 91.968198,125.40696 3.18198,-3.18198 c 0.391737,-0.39173 1.022476,-0.39173 1.414215,0 l 3.181981,3.18198 c 0.391736,0.39174 0.391736,1.02248 -2e-6,1.41422 l -3.181981,3.18198 c -0.391737,0.39173 -1.022476,0.39174 -1.414213,0 l -3.18198,-3.18198 c -0.391739,-0.39174 -0.391737,-1.02248 0,-1.41422 z"
     id="path2301" />
  <path
     style="opacity:1;fill:none;fill-opacity:1;fill-rule:nonzero;stroke:#000000;stroke-width:0;stroke-linejoin:round;stroke-miterlimit:4;stroke-dasharray:none;stroke-opacity:1"
     d="m 97.727831,119.64733 3.181979,-3.18198 c 0.39174,-0.39174 1.02248,-0.39174 1.41422,0 l 3.18198,3.18198 c 0.39173,0.39174 0.39173,1.02248 -1e-5,1.41421 l -3.18198,3.18198 c -0.39173,0.39174 -1.02247,0.39174 -1.41421,1e-5 l -3.181979,-3.18198 c -0.391738,-0.39174 -0.391736,-1.02248 0,-1.41422 z"
     id="path2303" />
  <path
     style="opacity:1;fill:none;fill-opacity:1;fill-rule:nonzero;stroke:#000000;stroke-width:0;stroke-linejoin:round;stroke-miterlimit:4;stroke-dasharray:none;stroke-opacity:1"
     d="m 103.48747,113.88769 3.18198,-3.18198 c 0.39174,-0.39174 1.02248,-0.39174 1.41422,0 l 3.18198,3.18198 c 0.39173,0.39174 0.39173,1.02248 -10e-6,1.41421 l -3.18198,3.18198 c -0.39173,0.39174 -1.02247,0.39174 -1.41421,1e-5 l -3.18198,-3.18198 c -0.39174,-0.39174 -0.39174,-1.02248 0,-1.41422 z"
     id="path2305" />
  <path
     style="opacity:1;fill:none;fill-opacity:1;fill-rule:nonzero;stroke:#000000;stroke-width:0;stroke-linejoin:round;stroke-miterlimit:4;stroke-dasharray:none;stroke-opacity:1"
     d="m 69.028768,160.06391 3.181983,-3.18198 c 0.391737,-0.39174 1.022474,-0.39174 1.414213,0 l 3.18198,3.18198 c 0.391737,0.39174 0.391737,1.02247 0,1.41421 l -3.181982,3.18198 c -0.391737,0.39174 -1.022474,0.39174 -1.414211,0 l -3.181981,-3.18198 c -0.391738,-0.39174 -0.391738,-1.02247 -2e-6,-1.41421 z"
     id="path2309" />
  <path
     style="opacity:1;fill:none;fill-opacity:1;fill-rule:nonzero;stroke:#000000;stroke-width:0;stroke-linejoin:round;stroke-miterlimit:4;stroke-dasharray:none;stroke-opacity:1"
     d="m 74.788402,154.30428 3.181982,-3.18198 c 0.391737,-0.39174 1.022474,-0.39174 1.414213,0 l 3.18198,3.18198 c 0.391737,0.39173 0.391737,1.02247 0,1.41421 l -3.181982,3.18198 c -0.391737,0.39174 -1.022474,0.39174 -1.414211,0 l -3.18198,-3.18198 c -0.391739,-0.39174 -0.391739,-1.02248 -2e-6,-1.41421 z"
     id="path2311" />
  <path
     style="opacity:1;fill:none;fill-opacity:1;fill-rule:nonzero;stroke:#000000;stroke-width:0;stroke-linejoin:round;stroke-miterlimit:4;stroke-dasharray:none;stroke-opacity:1"
     d="m 80.548043,148.54464 3.18198,-3.18198 c 0.391737,-0.39174 1.022477,-0.39174 1.414215,0 l 3.181981,3.18198 c 0.391736,0.39173 0.391734,1.02247 -2e-6,1.41421 l -3.181981,3.18198 c -0.391738,0.39174 -1.022476,0.39174 -1.414213,0 l -3.18198,-3.18198 c -0.391739,-0.39174 -0.391739,-1.02248 0,-1.41421 z"
     id="path2313" />
  <path
     style="opacity:1;fill:none;fill-opacity:1;fill-rule:nonzero;stroke:#000000;stroke-width:0;stroke-linejoin:round;stroke-miterlimit:4;stroke-dasharray:none;stroke-opacity:1"
     d="m 86.307682,142.785 3.181981,-3.18198 c 0.391737,-0.39174 1.022476,-0.39174 1.414215,0 l 3.18198,3.18198 c 0.391737,0.39173 0.391735,1.02247 -2e-6,1.41421 l -3.18198,3.18198 c -0.391737,0.39174 -1.022476,0.39174 -1.414213,0 l -3.181981,-3.18198 c -0.391738,-0.39174 -0.391736,-1.02248 0,-1.41421 z"
     id="path2315" />
  <path
     style="opacity:1;fill:none;fill-opacity:1;fill-rule:nonzero;stroke:#000000;stroke-width:0;stroke-linejoin:round;stroke-miterlimit:4;stroke-dasharray:none;stroke-opacity:1"
     d="m 92.067316,137.02536 3.18198,-3.18198 c 0.391737,-0.39173 1.022476,-0.39174 1.414215,0 l 3.18198,3.18198 c 0.391739,0.39174 0.391739,1.02248 -2e-6,1.41422 l -3.18198,3.18198 c -0.391737,0.39173 -1.022476,0.39174 -1.414213,0 l -3.18198,-3.18198 c -0.391739,-0.39174 -0.391737,-1.02248 0,-1.41422 z"
     id="path2317" />
  <path
     style="opacity:1;fill:none;fill-opacity:1;fill-rule:nonzero;stroke:#000000;stroke-width:0;stroke-linejoin:round;stroke-miterlimit:4;stroke-dasharray:none;stroke-opacity:1"
     d="m 97.826955,131.26572 3.181985,-3.18198 c 0.39173,-0.39173 1.02247,-0.39173 1.41421,0 l 3.18198,3.18198 c 0.39174,0.39174 0.39174,1.02248 0,1.41422 l -3.18198,3.18198 c -0.39174,0.39173 -1.02248,0.39174 -1.41421,0 l -3.181985,-3.18198 c -0.391739,-0.39174 -0.391737,-1.02248 0,-1.41422 z"
     id="path2319" />
  <path
     style="opacity:1;fill:none;fill-opacity:1;fill-rule:nonzero;stroke:#000000;stroke-width:0;stroke-linejoin:round;stroke-miterlimit:4;stroke-dasharray:none;stroke-opacity:1"
     d="m 103.58659,125.50609 3.18198,-3.18198 c 0.39174,-0.39174 1.02247,-0.39174 1.41421,0 l 3.18198,3.18198 c 0.39174,0.39174 0.39174,1.02248 0,1.41421 l -3.18198,3.18198 c -0.39174,0.39174 -1.02247,0.39174 -1.41421,1e-5 l -3.18198,-3.18198 c -0.39174,-0.39174 -0.39174,-1.02248 0,-1.41422 z"
     id="path2321" />
  <path
     style="opacity:1;fill:none;fill-opacity:1;fill-rule:nonzero;stroke:#000000;stroke-width:0;stroke-linejoin:round;stroke-miterlimit:4;stroke-dasharray:none;stroke-opacity:1"
     d="m 109.34623,119.74645 3.18198,-3.18198 c 0.39174,-0.39174 1.02247,-0.39174 1.41421,0 l 3.18198,3.18198 c 0.39174,0.39174 0.39174,1.02248 0,1.41421 l -3.18198,3.18198 c -0.39174,0.39174 -1.02248,0.39174 -1.41421,1e-5 l -3.18198,-3.18198 c -0.39174,-0.39174 -0.39174,-1.02248 0,-1.41422 z"
     id="path2323" />
  <path
     style="opacity:1;fill:none;fill-opacity:1;fill-rule:nonzero;stroke:#000000;stroke-width:0;stroke-linejoin:round;stroke-miterlimit:4;stroke-dasharray:none;stroke-opacity:1"
     d="m 74.887526,165.92267 3.181983,-3.18198 c 0.391737,-0.39174 1.022474,-0.39174 1.414213,0 l 3.18198,3.18198 c 0.391737,0.39174 0.391737,1.02247 0,1.41421 l -3.181982,3.18198 c -0.391737,0.39174 -1.022474,0.39174 -1.414211,0 l -3.181981,-3.18198 c -0.391738,-0.39174 -0.391738,-1.02247 -2e-6,-1.41421 z"
     id="path2327" />
  <path
     style="opacity:1;fill:none;fill-opacity:1;fill-rule:nonzero;stroke:#000000;stroke-width:0;stroke-linejoin:round;stroke-miterlimit:4;stroke-dasharray:none;stroke-opacity:1"
     d="m 80.64716,160.16304 3.181982,-3.18198 c 0.391737,-0.39174 1.022474,-0.39174 1.414213,0 l 3.18198,3.18198 c 0.391737,0.39173 0.391737,1.02247 0,1.41421 l -3.181982,3.18198 c -0.391737,0.39174 -1.022474,0.39174 -1.414211,0 l -3.18198,-3.18198 c -0.391739,-0.39174 -0.391739,-1.02248 -2e-6,-1.41421 z"
     id="path2329" />
  <path
     style="opacity:1;fill:none;fill-opacity:1;fill-rule:nonzero;stroke:#000000;stroke-width:0;stroke-linejoin:round;stroke-miterlimit:4;stroke-dasharray:none;stroke-opacity:1"
     d="m 86.406801,154.4034 3.18198,-3.18198 c 0.391737,-0.39174 1.022477,-0.39174 1.414215,0 l 3.181981,3.18198 c 0.391736,0.39173 0.391734,1.02247 -2e-6,1.41421 l -3.181981,3.18198 c -0.391738,0.39174 -1.022476,0.39174 -1.414213,0 l -3.18198,-3.18198 c -0.391739,-0.39174 -0.391739,-1.02248 0,-1.41421 z"
     id="path2331" />
  <path
     style="opacity:1;fill:none;fill-opacity:1;fill-rule:nonzero;stroke:#000000;stroke-width:0;stroke-linejoin:round;stroke-miterlimit:4;stroke-dasharray:none;stroke-opacity:1"
     d="m 92.16644,148.64376 3.181981,-3.18198 c 0.391737,-0.39174 1.022476,-0.39174 1.414215,0 l 3.18198,3.18198 c 0.391734,0.39173 0.391734,1.02247 -2e-6,1.41421 l -3.18198,3.18198 c -0.391737,0.39174 -1.022476,0.39174 -1.414213,0 l -3.181981,-3.18198 c -0.391738,-0.39174 -0.391736,-1.02248 0,-1.41421 z"
     id="path2333" />
  <path
     style="opacity:1;fill:none;fill-opacity:1;fill-rule:nonzero;stroke:#000000;stroke-width:0;stroke-linejoin:round;stroke-miterlimit:4;stroke-dasharray:none;stroke-opacity:1"
     d="m 97.926074,142.88412 3.181976,-3.18198 c 0.39174,-0.39173 1.02248,-0.39174 1.41422,0 l 3.18198,3.18198 c 0.39174,0.39174 0.39173,1.02248 0,1.41422 l -3.18198,3.18198 c -0.39174,0.39173 -1.02248,0.39174 -1.41422,0 l -3.181976,-3.18198 c -0.391739,-0.39174 -0.391737,-1.02248 0,-1.41422 z"
     id="path2335" />
  <path
     style="opacity:1;fill:none;fill-opacity:1;fill-rule:nonzero;stroke:#000000;stroke-width:0;stroke-linejoin:round;stroke-miterlimit:4;stroke-dasharray:none;stroke-opacity:1"
     d="m 103.68571,137.12448 3.18198,-3.18198 c 0.39174,-0.39173 1.02248,-0.39173 1.41422,0 l 3.18198,3.18198 c 0.39174,0.39174 0.39173,1.02248 0,1.41422 l -3.18198,3.18198 c -0.39174,0.39173 -1.02248,0.39174 -1.41422,0 l -3.18198,-3.18198 c -0.39174,-0.39174 -0.39173,-1.02248 0,-1.41422 z"
     id="path2337" />
  <path
     style="opacity:1;fill:none;fill-opacity:1;fill-rule:nonzero;stroke:#000000;stroke-width:0;stroke-linejoin:round;stroke-miterlimit:4;stroke-dasharray:none;stroke-opacity:1"
     d="m 109.44535,131.36485 3.18198,-3.18198 c 0.39173,-0.39174 1.02247,-0.39174 1.41421,0 l 3.18198,3.18198 c 0.39174,0.39174 0.39174,1.02248 0,1.41421 l -3.18198,3.18198 c -0.39174,0.39174 -1.02248,0.39174 -1.41421,1e-5 l -3.18198,-3.18198 c -0.39174,-0.39174 -0.39174,-1.02248 0,-1.41422 z"
     id="path2339" />
  <path
     style="opacity:1;fill:none;fill-opacity:1;fill-rule:nonzero;stroke:#000000;stroke-width:0;stroke-linejoin:round;stroke-miterlimit:4;stroke-dasharray:none;stroke-opacity:1"
     d="m 115.20499,125.60521 3.18198,-3.18198 c 0.39173,-0.39174 1.02247,-0.39174 1.41421,0 l 3.18198,3.18198 c 0.39174,0.39174 0.39174,1.02248 0,1.41421 l -3.18198,3.18198 c -0.39174,0.39174 -1.02248,0.39174 -1.41421,1e-5 l -3.18198,-3.18198 c -0.39174,-0.39174 -0.39174,-1.02248 0,-1.41422 z"
     id="path2341" />
  <path
     style="opacity:1;fill:none;fill-opacity:1;fill-rule:nonzero;stroke:#000000;stroke-width:0;stroke-linejoin:round;stroke-miterlimit:4;stroke-dasharray:none;stroke-opacity:1"
     d="m 80.746285,171.78142 3.181983,-3.18198 c 0.391737,-0.39174 1.022474,-0.39174 1.414213,0 l 3.18198,3.18198 c 0.391737,0.39174 0.391737,1.02247 0,1.41421 l -3.181982,3.18198 c -0.391737,0.39174 -1.022474,0.39174 -1.414211,0 l -3.181981,-3.18198 c -0.391738,-0.39174 -0.391738,-1.02247 -2e-6,-1.41421 z"
     id="path2345" />
  <path
     style="opacity:1;fill:none;fill-opacity:1;fill-rule:nonzero;stroke:#000000;stroke-width:0;stroke-linejoin:round;stroke-miterlimit:4;stroke-dasharray:none;stroke-opacity:1"
     d="m 86.505919,166.02179 3.181982,-3.18198 c 0.391737,-0.39174 1.022474,-0.39174 1.414213,0 l 3.18198,3.18198 c 0.391737,0.39173 0.391737,1.02247 0,1.41421 l -3.181982,3.18198 c -0.391737,0.39174 -1.022474,0.39174 -1.414211,0 l -3.18198,-3.18198 c -0.391739,-0.39174 -0.391739,-1.02248 -2e-6,-1.41421 z"
     id="path2347" />
  <path
     style="opacity:1;fill:none;fill-opacity:1;fill-rule:nonzero;stroke:#000000;stroke-width:0;stroke-linejoin:round;stroke-miterlimit:4;stroke-dasharray:none;stroke-opacity:1"
     d="m 92.26556,160.26215 3.18198,-3.18198 c 0.391737,-0.39174 1.022477,-0.39174 1.414215,0 l 3.181985,3.18198 c 0.39173,0.39173 0.39173,1.02247 -1e-5,1.41421 l -3.181977,3.18198 c -0.391738,0.39174 -1.022476,0.39174 -1.414213,0 l -3.18198,-3.18198 c -0.391739,-0.39174 -0.391739,-1.02248 0,-1.41421 z"
     id="path2349" />
  <path
     style="opacity:1;fill:none;fill-opacity:1;fill-rule:nonzero;stroke:#000000;stroke-width:0;stroke-linejoin:round;stroke-miterlimit:4;stroke-dasharray:none;stroke-opacity:1"
     d="m 98.025199,154.50251 3.181981,-3.18198 c 0.39174,-0.39174 1.02248,-0.39174 1.41421,0 l 3.18198,3.18198 c 0.39174,0.39173 0.39174,1.02247 0,1.41421 l -3.18198,3.18198 c -0.39173,0.39174 -1.02247,0.39174 -1.41421,0 l -3.181981,-3.18198 c -0.391738,-0.39174 -0.391736,-1.02248 0,-1.41421 z"
     id="path2351" />
  <path
     style="opacity:1;fill:none;fill-opacity:1;fill-rule:nonzero;stroke:#000000;stroke-width:0;stroke-linejoin:round;stroke-miterlimit:4;stroke-dasharray:none;stroke-opacity:1"
     d="m 103.78483,148.74287 3.18198,-3.18198 c 0.39174,-0.39173 1.02248,-0.39174 1.41422,0 l 3.18198,3.18198 c 0.39173,0.39174 0.39173,1.02248 0,1.41422 l -3.18198,3.18198 c -0.39174,0.39173 -1.02248,0.39174 -1.41422,0 l -3.18198,-3.18198 c -0.39174,-0.39174 -0.39173,-1.02248 0,-1.41422 z"
     id="path2353" />
  <path
     style="opacity:1;fill:none;fill-opacity:1;fill-rule:nonzero;stroke:#000000;stroke-width:0;stroke-linejoin:round;stroke-miterlimit:4;stroke-dasharray:none;stroke-opacity:1"
     d="m 109.54447,142.98323 3.18198,-3.18198 c 0.39174,-0.39173 1.02248,-0.39173 1.41422,0 l 3.18198,3.18198 c 0.39173,0.39174 0.39173,1.02248 0,1.41422 l -3.18198,3.18198 c -0.39174,0.39173 -1.02248,0.39174 -1.41422,0 l -3.18198,-3.18198 c -0.39174,-0.39174 -0.39173,-1.02248 0,-1.41422 z"
     id="path2355" />
  <path
     style="opacity:1;fill:none;fill-opacity:1;fill-rule:nonzero;stroke:#000000;stroke-width:0;stroke-linejoin:round;stroke-miterlimit:4;stroke-dasharray:none;stroke-opacity:1"
     d="m 115.30411,137.2236 3.18198,-3.18198 c 0.39173,-0.39174 1.02247,-0.39174 1.41421,0 l 3.18198,3.18198 c 0.39174,0.39174 0.39174,1.02248 0,1.41421 l -3.18198,3.18198 c -0.39174,0.39174 -1.02248,0.39174 -1.41421,10e-6 l -3.18198,-3.18198 c -0.39174,-0.39174 -0.39174,-1.02248 0,-1.41422 z"
     id="path2357" />
  <path
     style="opacity:1;fill:none;fill-opacity:1;fill-rule:nonzero;stroke:#000000;stroke-width:0;stroke-linejoin:round;stroke-miterlimit:4;stroke-dasharray:none;stroke-opacity:1"
     d="m 121.06374,131.46396 3.18198,-3.18198 c 0.39174,-0.39174 1.02248,-0.39174 1.41422,0 l 3.18198,3.18198 c 0.39174,0.39174 0.39174,1.02248 0,1.41421 l -3.18198,3.18198 c -0.39174,0.39174 -1.02248,0.39174 -1.41422,1e-5 l -3.18198,-3.18198 c -0.39173,-0.39174 -0.39173,-1.02248 0,-1.41422 z"
     id="path2359" />
  <path
     style="opacity:1;fill:none;fill-opacity:1;fill-rule:nonzero;stroke:#000000;stroke-width:0;stroke-linejoin:round;stroke-miterlimit:4;stroke-dasharray:none;stroke-opacity:1"
     d="m 86.605044,177.64018 3.181983,-3.18198 c 0.391737,-0.39174 1.022474,-0.39174 1.414213,0 l 3.18198,3.18198 c 0.391737,0.39174 0.391737,1.02247 0,1.41421 l -3.181982,3.18198 c -0.391737,0.39174 -1.022474,0.39174 -1.414211,0 l -3.181981,-3.18198 c -0.391738,-0.39174 -0.391738,-1.02247 -2e-6,-1.41421 z"
     id="path2363" />
  <path
     style="opacity:1;fill:none;fill-opacity:1;fill-rule:nonzero;stroke:#000000;stroke-width:0;stroke-linejoin:round;stroke-miterlimit:4;stroke-dasharray:none;stroke-opacity:1"
     d="m 92.364678,171.88055 3.181982,-3.18198 c 0.391737,-0.39174 1.022474,-0.39174 1.414213,0 l 3.181977,3.18198 c 0.39174,0.39173 0.39174,1.02247 0,1.41421 l -3.181979,3.18198 c -0.391737,0.39174 -1.022474,0.39174 -1.414211,0 l -3.18198,-3.18198 c -0.391739,-0.39174 -0.391739,-1.02248 -2e-6,-1.41421 z"
     id="path2365" />
  <path
     style="opacity:1;fill:none;fill-opacity:1;fill-rule:nonzero;stroke:#000000;stroke-width:0;stroke-linejoin:round;stroke-miterlimit:4;stroke-dasharray:none;stroke-opacity:1"
     d="m 98.124319,166.12091 3.181981,-3.18198 c 0.39174,-0.39174 1.02248,-0.39174 1.41421,0 l 3.18198,3.18198 c 0.39174,0.39173 0.39174,1.02247 0,1.41421 l -3.18198,3.18198 c -0.39174,0.39174 -1.02247,0.39174 -1.41421,0 l -3.181981,-3.18198 c -0.391739,-0.39174 -0.391739,-1.02248 0,-1.41421 z"
     id="path2367" />
  <path
     style="opacity:1;fill:none;fill-opacity:1;fill-rule:nonzero;stroke:#000000;stroke-width:0;stroke-linejoin:round;stroke-miterlimit:4;stroke-dasharray:none;stroke-opacity:1"
     d="m 103.88396,160.36127 3.18198,-3.18198 c 0.39174,-0.39174 1.02247,-0.39174 1.41421,0 l 3.18198,3.18198 c 0.39174,0.39173 0.39174,1.02247 0,1.41421 l -3.18198,3.18198 c -0.39174,0.39174 -1.02247,0.39174 -1.41421,0 l -3.18198,-3.18198 c -0.39174,-0.39174 -0.39174,-1.02248 0,-1.41421 z"
     id="path2369" />
  <path
     style="opacity:1;fill:none;fill-opacity:1;fill-rule:nonzero;stroke:#000000;stroke-width:0;stroke-linejoin:round;stroke-miterlimit:4;stroke-dasharray:none;stroke-opacity:1"
     d="m 109.64359,154.60163 3.18198,-3.18198 c 0.39174,-0.39173 1.02248,-0.39174 1.41422,0 l 3.18198,3.18198 c 0.39173,0.39174 0.39173,1.02248 0,1.41422 l -3.18199,3.18198 c -0.39173,0.39173 -1.02247,0.39174 -1.41421,0 l -3.18198,-3.18198 c -0.39174,-0.39174 -0.39174,-1.02248 0,-1.41422 z"
     id="path2371" />
  <path
     style="opacity:1;fill:none;fill-opacity:1;fill-rule:nonzero;stroke:#000000;stroke-width:0;stroke-linejoin:round;stroke-miterlimit:4;stroke-dasharray:none;stroke-opacity:1"
     d="m 115.40323,148.84199 3.18198,-3.18198 c 0.39174,-0.39173 1.02248,-0.39173 1.41422,0 l 3.18198,3.18198 c 0.39173,0.39174 0.39173,1.02248 -1e-5,1.41422 l -3.18198,3.18198 c -0.39173,0.39173 -1.02247,0.39174 -1.41421,0 l -3.18198,-3.18198 c -0.39174,-0.39174 -0.39174,-1.02248 0,-1.41422 z"
     id="path2373" />
  <path
     style="opacity:1;fill:none;fill-opacity:1;fill-rule:nonzero;stroke:#000000;stroke-width:0;stroke-linejoin:round;stroke-miterlimit:4;stroke-dasharray:none;stroke-opacity:1"
     d="m 121.16286,143.08236 3.18198,-3.18198 c 0.39174,-0.39174 1.02248,-0.39174 1.41422,0 l 3.18198,3.18198 c 0.39174,0.39174 0.39173,1.02248 0,1.41421 l -3.18198,3.18198 c -0.39174,0.39174 -1.02248,0.39174 -1.41422,1e-5 l -3.18198,-3.18198 c -0.39173,-0.39174 -0.39173,-1.02248 0,-1.41422 z"
     id="path2375" />
  <path
     style="opacity:1;fill:none;fill-opacity:1;fill-rule:nonzero;stroke:#000000;stroke-width:0;stroke-linejoin:round;stroke-miterlimit:4;stroke-dasharray:none;stroke-opacity:1"
     d="m 126.9225,137.32272 3.18198,-3.18198 c 0.39174,-0.39174 1.02248,-0.39174 1.41422,0 l 3.18198,3.18198 c 0.39174,0.39174 0.39174,1.02248 0,1.41421 l -3.18198,3.18198 c -0.39174,0.39174 -1.02248,0.39174 -1.41422,1e-5 l -3.18198,-3.18198 c -0.39174,-0.39174 -0.39173,-1.02248 0,-1.41422 z"
     id="path2377" />
  <path
     style="opacity:1;fill:none;fill-opacity:1;fill-rule:nonzero;stroke:#000000;stroke-width:0;stroke-linejoin:round;stroke-miterlimit:4;stroke-dasharray:none;stroke-opacity:1"
     d="m 92.463804,183.49894 3.181983,-3.18198 c 0.391737,-0.39174 1.022474,-0.39174 1.414213,0 l 3.18198,3.18198 c 0.39174,0.39174 0.39174,1.02247 0,1.41421 l -3.181982,3.18198 c -0.391737,0.39174 -1.022474,0.39174 -1.414211,0 l -3.181981,-3.18198 c -0.391738,-0.39174 -0.391738,-1.02247 -2e-6,-1.41421 z"
     id="path2381" />
  <path
     style="opacity:1;fill:none;fill-opacity:1;fill-rule:nonzero;stroke:#000000;stroke-width:0;stroke-linejoin:round;stroke-miterlimit:4;stroke-dasharray:none;stroke-opacity:1"
     d="m 98.223438,177.73931 3.181982,-3.18198 c 0.39174,-0.39174 1.02247,-0.39174 1.41421,0 l 3.18198,3.18198 c 0.39174,0.39173 0.39174,1.02247 0,1.41421 l -3.18198,3.18198 c -0.39174,0.39174 -1.02247,0.39174 -1.41421,0 l -3.18198,-3.18198 c -0.391739,-0.39174 -0.391739,-1.02248 -2e-6,-1.41421 z"
     id="path2383" />
  <path
     style="opacity:1;fill:none;fill-opacity:1;fill-rule:nonzero;stroke:#000000;stroke-width:0;stroke-linejoin:round;stroke-miterlimit:4;stroke-dasharray:none;stroke-opacity:1"
     d="m 103.98308,171.97967 3.18198,-3.18198 c 0.39174,-0.39174 1.02248,-0.39174 1.41421,0 l 3.18198,3.18198 c 0.39174,0.39173 0.39174,1.02247 0,1.41421 l -3.18198,3.18198 c -0.39174,0.39174 -1.02247,0.39174 -1.41421,0 l -3.18198,-3.18198 c -0.39174,-0.39174 -0.39174,-1.02248 0,-1.41421 z"
     id="path2385" />
  <path
     style="opacity:1;fill:none;fill-opacity:1;fill-rule:nonzero;stroke:#000000;stroke-width:0;stroke-linejoin:round;stroke-miterlimit:4;stroke-dasharray:none;stroke-opacity:1"
     d="m 109.74272,166.22003 3.18198,-3.18198 c 0.39174,-0.39174 1.02247,-0.39174 1.41421,0 l 3.18198,3.18198 c 0.39174,0.39173 0.39174,1.02247 0,1.41421 l -3.18198,3.18198 c -0.39174,0.39174 -1.02247,0.39174 -1.41421,0 l -3.18198,-3.18198 c -0.39174,-0.39174 -0.39174,-1.02248 0,-1.41421 z"
     id="path2387" />
  <path
     style="opacity:1;fill:none;fill-opacity:1;fill-rule:nonzero;stroke:#000000;stroke-width:0;stroke-linejoin:round;stroke-miterlimit:4;stroke-dasharray:none;stroke-opacity:1"
     d="m 115.50235,160.46039 3.18198,-3.18198 c 0.39174,-0.39173 1.02248,-0.39174 1.41422,0 l 3.18198,3.18198 c 0.39173,0.39174 0.39173,1.02248 0,1.41422 l -3.18199,3.18198 c -0.39173,0.39173 -1.02247,0.39174 -1.41421,0 l -3.18198,-3.18198 c -0.39174,-0.39174 -0.39174,-1.02248 0,-1.41422 z"
     id="path2389" />
  <path
     style="opacity:1;fill:none;fill-opacity:1;fill-rule:nonzero;stroke:#000000;stroke-width:0;stroke-linejoin:round;stroke-miterlimit:4;stroke-dasharray:none;stroke-opacity:1"
     d="m 121.26199,154.70075 3.18198,-3.18198 c 0.39174,-0.39173 1.02248,-0.39173 1.41422,0 l 3.18198,3.18198 c 0.39173,0.39174 0.39173,1.02248 -1e-5,1.41422 l -3.18198,3.18198 c -0.39173,0.39173 -1.02247,0.39174 -1.41421,0 l -3.18198,-3.18198 c -0.39174,-0.39174 -0.39174,-1.02248 0,-1.41422 z"
     id="path2391" />
  <path
     style="opacity:1;fill:none;fill-opacity:1;fill-rule:nonzero;stroke:#000000;stroke-width:0;stroke-linejoin:round;stroke-miterlimit:4;stroke-dasharray:none;stroke-opacity:1"
     d="m 127.02162,148.94112 3.18198,-3.18198 c 0.39174,-0.39174 1.02248,-0.39174 1.41422,0 l 3.18198,3.18198 c 0.39174,0.39174 0.39173,1.02248 0,1.41421 l -3.18198,3.18198 c -0.39174,0.39174 -1.02248,0.39174 -1.41422,1e-5 l -3.18198,-3.18198 c -0.39173,-0.39174 -0.39173,-1.02248 0,-1.41422 z"
     id="path2393" />
  <path
     style="opacity:1;fill:none;fill-opacity:1;fill-rule:nonzero;stroke:#000000;stroke-width:0;stroke-linejoin:round;stroke-miterlimit:4;stroke-dasharray:none;stroke-opacity:1"
     d="m 132.78126,143.18148 3.18198,-3.18198 c 0.39174,-0.39174 1.02248,-0.39174 1.41422,0 l 3.18198,3.18198 c 0.39174,0.39174 0.39174,1.02248 0,1.41421 l -3.18198,3.18198 c -0.39174,0.39174 -1.02248,0.39174 -1.41422,1e-5 l -3.18198,-3.18198 c -0.39174,-0.39174 -0.39173,-1.02248 0,-1.41422 z"
     id="path2395" />
  <g
     style="fill:none;stroke:#000000;stroke-width:0;stroke-miterlimit:4;stroke-dasharray:none;stroke-opacity:1"
     id="g2403"
     transform="matrix(0.28222223,0,0,0.28222223,-12.166577,56.702315)">
    <path
       id="rect2401"
       d="M 223.83967,112.8166 H 542.7373 c 19.62992,0 35.43306,15.80315 35.43306,35.43306 v 318.89763 c 0,19.62992 -15.80314,35.43307 -35.43306,35.43307 H 223.83967 c -19.62992,0 -35.43307,-15.80315 -35.43307,-35.43307 V 148.24966 c 0,-19.62991 15.80315,-35.43306 35.43307,-35.43306 z"
       style="opacity:1;fill:none;fill-opacity:1;fill-rule:nonzero;stroke:#000000;stroke-width:0;stroke-linejoin:miter;stroke-miterlimit:4;stroke-dasharray:none;stroke-opacity:1" />
  </g>
  <path
     id="circle2405"
     d="m 50.005951,96.041667 a 1.5,1.5 0 0 1 -1.5,1.5 1.5,1.5 0 0 1 -1.5,-1.5 1.5,1.5 0 0 1 1.5,-1.5 1.5,1.5 0 0 1 1.5,1.5 z"
     style="opacity:1;fill:none;fill-opacity:1;fill-rule:nonzero;stroke:#000000;stroke-width:0;stroke-linejoin:miter;stroke-miterlimit:4;stroke-dasharray:none;stroke-opacity:1" />
  <path
     id="circle2407"
     d="m 145.00596,96.041667 a 1.5,1.5 0 0 1 -1.5,1.5 1.5,1.5 0 0 1 -1.5,-1.5 1.5,1.5 0 0 1 1.5,-1.5 1.5,1.5 0 0 1 1.5,1.5 z"
     style="opacity:1;fill:none;fill-opacity:1;fill-rule:nonzero;stroke:#000000;stroke-width:0;stroke-linejoin:miter;stroke-miterlimit:4;stroke-dasharray:none;stroke-opacity:1" />
  <path
     id="circle2409"
     d="m 145.00596,191.04167 a 1.5,1.5 0 0 1 -1.5,1.5 1.5,1.5 0 0 1 -1.5,-1.5 1.5,1.5 0 0 1 1.5,-1.5 1.5,1.5 0 0 1 1.5,1.5 z"
     style="opacity:1;fill:none;fill-opacity:1;fill-rule:nonzero;stroke:#000000;stroke-width:0;stroke-linejoin:miter;stroke-miterlimit:4;stroke-dasharray:none;stroke-opacity:1" />
  <path
     id="circle2411"
     d="m 50.005951,191.04167 a 1.5,1.5 0 0 1 -1.5,1.5 1.5,1.5 0 0 1 -1.5,-1.5 1.5,1.5 0 0 1 1.5,-1.5 1.5,1.5 0 0 1 1.5,1.5 z"
     style="opacity:1;fill:none;fill-opacity:1;fill-rule:nonzero;stroke:#000000;stroke-width:0;stroke-linejoin:miter;stroke-miterlimit:4;stroke-dasharray:none;stroke-opacity:1" />
  <path
     id="path2431"
     d="m 68.792452,116.65354 -10.857641,2.74614 -7.786494,-8.11188 3.071147,-10.85801 10.85764,-2.746131 7.786493,8.111871 z"
     style="opacity:1;fill:none;fill-opacity:1;fill-rule:nonzero;stroke:#000000;stroke-width:0;stroke-linejoin:miter;stroke-miterlimit:4;stroke-dasharray:none;stroke-opacity:1" />
  <path
     id="path2452"
     d="m 63.852458,189.40318 -10.858567,-3.03374 -2.708041,-10.85761 8.150526,-7.82389 10.858567,3.03373 2.70804,10.85762 z"
     style="opacity:1;fill:none;fill-opacity:1;fill-rule:nonzero;stroke:#000000;stroke-width:0;stroke-linejoin:miter;stroke-miterlimit:4;stroke-dasharray:none;stroke-opacity:1" />
  <path
     id="path2818"
     d="m 138.79245,186.65354 -10.85764,2.74614 -7.78649,-8.11188 3.07114,-10.85801 10.85764,-2.74613 7.78649,8.11187 z"
     style="opacity:1;fill:none;fill-opacity:1;fill-rule:nonzero;stroke:#000000;stroke-width:0;stroke-linejoin:miter;stroke-miterlimit:4;stroke-dasharray:none;stroke-opacity:1" />
  <path
     id="path2820"
     d="m 133.714,119.39929 -10.85857,-3.03374 -2.70804,-10.85761 8.15052,-7.82389 10.85857,3.03373 2.70804,10.85762 z"
     style="opacity:1;fill:none;fill-opacity:1;fill-rule:nonzero;stroke:#000000;stroke-width:0;stroke-linejoin:miter;stroke-miterlimit:4;stroke-dasharray:none;stroke-opacity:1" />
</svg>
