<?xml version="1.0" encoding="UTF-8" standalone="no"?>
<svg
   xmlns:dc="http://purl.org/dc/elements/1.1/"
   xmlns:cc="http://creativecommons.org/ns#"
   xmlns:rdf="http://www.w3.org/1999/02/22-rdf-syntax-ns#"
   xmlns:svg="http://www.w3.org/2000/svg"
   xmlns="http://www.w3.org/2000/svg"
   xmlns:sodipodi="http://sodipodi.sourceforge.net/DTD/sodipodi-0.dtd"
   xmlns:inkscape="http://www.inkscape.org/namespaces/inkscape"
   id="svg1015"
   version="1.1"
   viewBox="0 0 210 297"
   height="297mm"
   width="210mm"
   sodipodi:docname="Face_avant_CTP_proto_1.svg"
   inkscape:version="0.92.3 (2405546, 2018-03-11)">
  <sodipodi:namedview
     pagecolor="#ffffff"
     bordercolor="#666666"
     borderopacity="1"
     objecttolerance="10"
     gridtolerance="10"
     guidetolerance="10"
     inkscape:pageopacity="0"
     inkscape:pageshadow="2"
     inkscape:window-width="1613"
     inkscape:window-height="1022"
     id="namedview89"
     showgrid="false"
     inkscape:zoom="1.1893044"
     inkscape:cx="377.09296"
     inkscape:cy="548.15343"
     inkscape:window-x="67"
     inkscape:window-y="0"
     inkscape:window-maximized="1"
     inkscape:current-layer="svg1015" />
  <defs
     id="defs1009" />
  <metadata
     id="metadata1012">
    <rdf:RDF>
      <cc:Work
         rdf:about="">
        <dc:format>image/svg+xml</dc:format>
        <dc:type
           rdf:resource="http://purl.org/dc/dcmitype/StillImage" />
        <dc:title />
      </cc:Work>
    </rdf:RDF>
  </metadata>
  <g
     id="layer1"
     style="stroke:#000000;stroke-opacity:1;stroke-width:0.254;stroke-miterlimit:4;stroke-dasharray:none">
    <g
       id="g2399"
       style="fill:none;stroke:#000000;stroke-width:0.89999994;stroke-miterlimit:4;stroke-dasharray:none;stroke-opacity:1"
       transform="matrix(0.19956126,-0.19956126,0.19956126,0.19956126,-79.396505,116.39139)">
      <g
         id="g2271"
         style="fill:none;stroke:#000000;stroke-width:0.89999994;stroke-miterlimit:4;stroke-dasharray:none;stroke-opacity:1">
        <path
           style="opacity:1;fill:none;fill-opacity:1;fill-rule:nonzero;stroke:#000000;stroke-width:0.89999994;stroke-linejoin:round;stroke-miterlimit:4;stroke-dasharray:none;stroke-opacity:1"
           d="m 262.45764,393.22571 h 15.94489 c 1.96299,0 3.5433,1.58031 3.5433,3.54331 v 15.94488 c 0,1.96299 -1.58031,3.5433 -3.5433,3.5433 h -15.94489 c -1.96299,0 -3.5433,-1.58031 -3.5433,-3.5433 v -15.94488 c 0,-1.963 1.58031,-3.54331 3.5433,-3.54331 z"
           id="path2255" />
        <path
           style="opacity:1;fill:none;fill-opacity:1;fill-rule:nonzero;stroke:#000000;stroke-width:0.89999994;stroke-linejoin:round;stroke-miterlimit:4;stroke-dasharray:none;stroke-opacity:1"
           d="m 291.31912,393.22571 h 15.94489 c 1.96299,0 3.5433,1.58031 3.5433,3.54331 v 15.94488 c 0,1.96299 -1.58031,3.5433 -3.5433,3.5433 h -15.94489 c -1.96299,0 -3.5433,-1.58031 -3.5433,-3.5433 v -15.94488 c 0,-1.963 1.58031,-3.54331 3.5433,-3.54331 z"
           id="path2257" />
        <path
           style="opacity:1;fill:none;fill-opacity:1;fill-rule:nonzero;stroke:#000000;stroke-width:0.89999994;stroke-linejoin:round;stroke-miterlimit:4;stroke-dasharray:none;stroke-opacity:1"
           d="m 320.18064,393.22571 h 15.94488 c 1.96299,0 3.54331,1.58031 3.54331,3.54331 v 15.94488 c 0,1.96299 -1.58032,3.5433 -3.54331,3.5433 h -15.94488 c -1.963,0 -3.54331,-1.58031 -3.54331,-3.5433 v -15.94488 c 0,-1.963 1.58031,-3.54331 3.54331,-3.54331 z"
           id="path2259" />
        <path
           style="opacity:1;fill:none;fill-opacity:1;fill-rule:nonzero;stroke:#000000;stroke-width:0.89999994;stroke-linejoin:round;stroke-miterlimit:4;stroke-dasharray:none;stroke-opacity:1"
           d="m 349.04215,393.22571 h 15.94488 c 1.96299,0 3.54331,1.58031 3.54331,3.54331 v 15.94488 c 0,1.96299 -1.58032,3.5433 -3.54331,3.5433 h -15.94488 c -1.96299,0 -3.54331,-1.58031 -3.54331,-3.5433 v -15.94488 c 0,-1.963 1.58032,-3.54331 3.54331,-3.54331 z"
           id="path2261" />
        <path
           style="opacity:1;fill:none;fill-opacity:1;fill-rule:nonzero;stroke:#000000;stroke-width:0.89999994;stroke-linejoin:round;stroke-miterlimit:4;stroke-dasharray:none;stroke-opacity:1"
           d="m 377.90363,393.22571 h 15.94488 c 1.96299,0 3.54331,1.58031 3.54331,3.54331 v 15.94488 c 0,1.96299 -1.58032,3.5433 -3.54331,3.5433 h -15.94488 c -1.96299,0 -3.54331,-1.58031 -3.54331,-3.5433 v -15.94488 c 0,-1.963 1.58032,-3.54331 3.54331,-3.54331 z"
           id="path2263" />
        <path
           style="opacity:1;fill:none;fill-opacity:1;fill-rule:nonzero;stroke:#000000;stroke-width:0.89999994;stroke-linejoin:round;stroke-miterlimit:4;stroke-dasharray:none;stroke-opacity:1"
           d="m 406.76514,393.22571 h 15.94488 c 1.96299,0 3.54331,1.58031 3.54331,3.54331 v 15.94488 c 0,1.96299 -1.58032,3.5433 -3.54331,3.5433 h -15.94488 c -1.96299,0 -3.54331,-1.58031 -3.54331,-3.5433 v -15.94488 c 0,-1.963 1.58032,-3.54331 3.54331,-3.54331 z"
           id="path2265" />
        <path
           style="opacity:1;fill:none;fill-opacity:1;fill-rule:nonzero;stroke:#000000;stroke-width:0.89999994;stroke-linejoin:round;stroke-miterlimit:4;stroke-dasharray:none;stroke-opacity:1"
           d="m 435.62662,393.22571 h 15.94488 c 1.96299,0 3.54331,1.58031 3.54331,3.54331 v 15.94488 c 0,1.96299 -1.58032,3.5433 -3.54331,3.5433 h -15.94488 c -1.96299,0 -3.54331,-1.58031 -3.54331,-3.5433 v -15.94488 c 0,-1.963 1.58032,-3.54331 3.54331,-3.54331 z"
           id="path2267" />
        <path
           style="opacity:1;fill:none;fill-opacity:1;fill-rule:nonzero;stroke:#000000;stroke-width:0.89999994;stroke-linejoin:round;stroke-miterlimit:4;stroke-dasharray:none;stroke-opacity:1"
           d="m 464.48813,393.22571 h 15.94488 c 1.963,0 3.54331,1.58031 3.54331,3.54331 v 15.94488 c 0,1.96299 -1.58031,3.5433 -3.54331,3.5433 h -15.94488 c -1.96299,0 -3.54331,-1.58031 -3.54331,-3.5433 v -15.94488 c 0,-1.963 1.58032,-3.54331 3.54331,-3.54331 z"
           id="path2269" />
      </g>
      <g
         transform="translate(0,29.358201)"
         id="g2289"
         style="fill:none;stroke:#000000;stroke-width:0.89999994;stroke-miterlimit:4;stroke-dasharray:none;stroke-opacity:1">
        <path
           style="opacity:1;fill:none;fill-opacity:1;fill-rule:nonzero;stroke:#000000;stroke-width:0.89999994;stroke-linejoin:round;stroke-miterlimit:4;stroke-dasharray:none;stroke-opacity:1"
           d="m 262.45764,393.22571 h 15.94489 c 1.96299,0 3.5433,1.58031 3.5433,3.54331 v 15.94488 c 0,1.96299 -1.58031,3.5433 -3.5433,3.5433 h -15.94489 c -1.96299,0 -3.5433,-1.58031 -3.5433,-3.5433 v -15.94488 c 0,-1.963 1.58031,-3.54331 3.5433,-3.54331 z"
           id="path2273" />
        <path
           style="opacity:1;fill:none;fill-opacity:1;fill-rule:nonzero;stroke:#000000;stroke-width:0.89999994;stroke-linejoin:round;stroke-miterlimit:4;stroke-dasharray:none;stroke-opacity:1"
           d="m 291.31912,393.22571 h 15.94489 c 1.96299,0 3.5433,1.58031 3.5433,3.54331 v 15.94488 c 0,1.96299 -1.58031,3.5433 -3.5433,3.5433 h -15.94489 c -1.96299,0 -3.5433,-1.58031 -3.5433,-3.5433 v -15.94488 c 0,-1.963 1.58031,-3.54331 3.5433,-3.54331 z"
           id="path2275" />
        <path
           style="opacity:1;fill:none;fill-opacity:1;fill-rule:nonzero;stroke:#000000;stroke-width:0.89999994;stroke-linejoin:round;stroke-miterlimit:4;stroke-dasharray:none;stroke-opacity:1"
           d="m 320.18064,393.22571 h 15.94488 c 1.96299,0 3.54331,1.58031 3.54331,3.54331 v 15.94488 c 0,1.96299 -1.58032,3.5433 -3.54331,3.5433 h -15.94488 c -1.963,0 -3.54331,-1.58031 -3.54331,-3.5433 v -15.94488 c 0,-1.963 1.58031,-3.54331 3.54331,-3.54331 z"
           id="path2277" />
        <path
           style="opacity:1;fill:none;fill-opacity:1;fill-rule:nonzero;stroke:#000000;stroke-width:0.89999994;stroke-linejoin:round;stroke-miterlimit:4;stroke-dasharray:none;stroke-opacity:1"
           d="m 349.04215,393.22571 h 15.94488 c 1.96299,0 3.54331,1.58031 3.54331,3.54331 v 15.94488 c 0,1.96299 -1.58032,3.5433 -3.54331,3.5433 h -15.94488 c -1.96299,0 -3.54331,-1.58031 -3.54331,-3.5433 v -15.94488 c 0,-1.963 1.58032,-3.54331 3.54331,-3.54331 z"
           id="path2279" />
        <path
           style="opacity:1;fill:none;fill-opacity:1;fill-rule:nonzero;stroke:#000000;stroke-width:0.89999994;stroke-linejoin:round;stroke-miterlimit:4;stroke-dasharray:none;stroke-opacity:1"
           d="m 377.90363,393.22571 h 15.94488 c 1.96299,0 3.54331,1.58031 3.54331,3.54331 v 15.94488 c 0,1.96299 -1.58032,3.5433 -3.54331,3.5433 h -15.94488 c -1.96299,0 -3.54331,-1.58031 -3.54331,-3.5433 v -15.94488 c 0,-1.963 1.58032,-3.54331 3.54331,-3.54331 z"
           id="path2281" />
        <path
           style="opacity:1;fill:none;fill-opacity:1;fill-rule:nonzero;stroke:#000000;stroke-width:0.89999994;stroke-linejoin:round;stroke-miterlimit:4;stroke-dasharray:none;stroke-opacity:1"
           d="m 406.76514,393.22571 h 15.94488 c 1.96299,0 3.54331,1.58031 3.54331,3.54331 v 15.94488 c 0,1.96299 -1.58032,3.5433 -3.54331,3.5433 h -15.94488 c -1.96299,0 -3.54331,-1.58031 -3.54331,-3.5433 v -15.94488 c 0,-1.963 1.58032,-3.54331 3.54331,-3.54331 z"
           id="path2283" />
        <path
           style="opacity:1;fill:none;fill-opacity:1;fill-rule:nonzero;stroke:#000000;stroke-width:0.89999994;stroke-linejoin:round;stroke-miterlimit:4;stroke-dasharray:none;stroke-opacity:1"
           d="m 435.62662,393.22571 h 15.94488 c 1.96299,0 3.54331,1.58031 3.54331,3.54331 v 15.94488 c 0,1.96299 -1.58032,3.5433 -3.54331,3.5433 h -15.94488 c -1.96299,0 -3.54331,-1.58031 -3.54331,-3.5433 v -15.94488 c 0,-1.963 1.58032,-3.54331 3.54331,-3.54331 z"
           id="path2285" />
        <path
           style="opacity:1;fill:none;fill-opacity:1;fill-rule:nonzero;stroke:#000000;stroke-width:0.89999994;stroke-linejoin:round;stroke-miterlimit:4;stroke-dasharray:none;stroke-opacity:1"
           d="m 464.48813,393.22571 h 15.94488 c 1.963,0 3.54331,1.58031 3.54331,3.54331 v 15.94488 c 0,1.96299 -1.58031,3.5433 -3.54331,3.5433 h -15.94488 c -1.96299,0 -3.54331,-1.58031 -3.54331,-3.5433 v -15.94488 c 0,-1.963 1.58032,-3.54331 3.54331,-3.54331 z"
           id="path2287" />
      </g>
      <g
         id="g2307"
         transform="translate(0,58.71641)"
         style="fill:none;stroke:#000000;stroke-width:0.89999994;stroke-miterlimit:4;stroke-dasharray:none;stroke-opacity:1">
        <path
           style="opacity:1;fill:none;fill-opacity:1;fill-rule:nonzero;stroke:#000000;stroke-width:0.89999994;stroke-linejoin:round;stroke-miterlimit:4;stroke-dasharray:none;stroke-opacity:1"
           d="m 262.45764,393.22571 h 15.94489 c 1.96299,0 3.5433,1.58031 3.5433,3.54331 v 15.94488 c 0,1.96299 -1.58031,3.5433 -3.5433,3.5433 h -15.94489 c -1.96299,0 -3.5433,-1.58031 -3.5433,-3.5433 v -15.94488 c 0,-1.963 1.58031,-3.54331 3.5433,-3.54331 z"
           id="path2291" />
        <path
           style="opacity:1;fill:none;fill-opacity:1;fill-rule:nonzero;stroke:#000000;stroke-width:0.89999994;stroke-linejoin:round;stroke-miterlimit:4;stroke-dasharray:none;stroke-opacity:1"
           d="m 291.31912,393.22571 h 15.94489 c 1.96299,0 3.5433,1.58031 3.5433,3.54331 v 15.94488 c 0,1.96299 -1.58031,3.5433 -3.5433,3.5433 h -15.94489 c -1.96299,0 -3.5433,-1.58031 -3.5433,-3.5433 v -15.94488 c 0,-1.963 1.58031,-3.54331 3.5433,-3.54331 z"
           id="path2293" />
        <path
           style="opacity:1;fill:none;fill-opacity:1;fill-rule:nonzero;stroke:#000000;stroke-width:0.89999994;stroke-linejoin:round;stroke-miterlimit:4;stroke-dasharray:none;stroke-opacity:1"
           d="m 320.18064,393.22571 h 15.94488 c 1.96299,0 3.54331,1.58031 3.54331,3.54331 v 15.94488 c 0,1.96299 -1.58032,3.5433 -3.54331,3.5433 h -15.94488 c -1.963,0 -3.54331,-1.58031 -3.54331,-3.5433 v -15.94488 c 0,-1.963 1.58031,-3.54331 3.54331,-3.54331 z"
           id="path2295" />
        <path
           style="opacity:1;fill:none;fill-opacity:1;fill-rule:nonzero;stroke:#000000;stroke-width:0.89999994;stroke-linejoin:round;stroke-miterlimit:4;stroke-dasharray:none;stroke-opacity:1"
           d="m 349.04215,393.22571 h 15.94488 c 1.96299,0 3.54331,1.58031 3.54331,3.54331 v 15.94488 c 0,1.96299 -1.58032,3.5433 -3.54331,3.5433 h -15.94488 c -1.96299,0 -3.54331,-1.58031 -3.54331,-3.5433 v -15.94488 c 0,-1.963 1.58032,-3.54331 3.54331,-3.54331 z"
           id="path2297" />
        <path
           style="opacity:1;fill:none;fill-opacity:1;fill-rule:nonzero;stroke:#000000;stroke-width:0.89999994;stroke-linejoin:round;stroke-miterlimit:4;stroke-dasharray:none;stroke-opacity:1"
           d="m 377.90363,393.22571 h 15.94488 c 1.96299,0 3.54331,1.58031 3.54331,3.54331 v 15.94488 c 0,1.96299 -1.58032,3.5433 -3.54331,3.5433 h -15.94488 c -1.96299,0 -3.54331,-1.58031 -3.54331,-3.5433 v -15.94488 c 0,-1.963 1.58032,-3.54331 3.54331,-3.54331 z"
           id="path2299" />
        <path
           style="opacity:1;fill:none;fill-opacity:1;fill-rule:nonzero;stroke:#000000;stroke-width:0.89999994;stroke-linejoin:round;stroke-miterlimit:4;stroke-dasharray:none;stroke-opacity:1"
           d="m 406.76514,393.22571 h 15.94488 c 1.96299,0 3.54331,1.58031 3.54331,3.54331 v 15.94488 c 0,1.96299 -1.58032,3.5433 -3.54331,3.5433 h -15.94488 c -1.96299,0 -3.54331,-1.58031 -3.54331,-3.5433 v -15.94488 c 0,-1.963 1.58032,-3.54331 3.54331,-3.54331 z"
           id="path2301" />
        <path
           style="opacity:1;fill:none;fill-opacity:1;fill-rule:nonzero;stroke:#000000;stroke-width:0.89999994;stroke-linejoin:round;stroke-miterlimit:4;stroke-dasharray:none;stroke-opacity:1"
           d="m 435.62662,393.22571 h 15.94488 c 1.96299,0 3.54331,1.58031 3.54331,3.54331 v 15.94488 c 0,1.96299 -1.58032,3.5433 -3.54331,3.5433 h -15.94488 c -1.96299,0 -3.54331,-1.58031 -3.54331,-3.5433 v -15.94488 c 0,-1.963 1.58032,-3.54331 3.54331,-3.54331 z"
           id="path2303" />
        <path
           style="opacity:1;fill:none;fill-opacity:1;fill-rule:nonzero;stroke:#000000;stroke-width:0.89999994;stroke-linejoin:round;stroke-miterlimit:4;stroke-dasharray:none;stroke-opacity:1"
           d="m 464.48813,393.22571 h 15.94488 c 1.963,0 3.54331,1.58031 3.54331,3.54331 v 15.94488 c 0,1.96299 -1.58031,3.5433 -3.54331,3.5433 h -15.94488 c -1.96299,0 -3.54331,-1.58031 -3.54331,-3.5433 v -15.94488 c 0,-1.963 1.58032,-3.54331 3.54331,-3.54331 z"
           id="path2305" />
      </g>
      <g
         transform="translate(0,88.074601)"
         id="g2325"
         style="fill:none;stroke:#000000;stroke-width:0.89999994;stroke-miterlimit:4;stroke-dasharray:none;stroke-opacity:1">
        <path
           style="opacity:1;fill:none;fill-opacity:1;fill-rule:nonzero;stroke:#000000;stroke-width:0.89999994;stroke-linejoin:round;stroke-miterlimit:4;stroke-dasharray:none;stroke-opacity:1"
           d="m 262.45764,393.22571 h 15.94489 c 1.96299,0 3.5433,1.58031 3.5433,3.54331 v 15.94488 c 0,1.96299 -1.58031,3.5433 -3.5433,3.5433 h -15.94489 c -1.96299,0 -3.5433,-1.58031 -3.5433,-3.5433 v -15.94488 c 0,-1.963 1.58031,-3.54331 3.5433,-3.54331 z"
           id="path2309" />
        <path
           style="opacity:1;fill:none;fill-opacity:1;fill-rule:nonzero;stroke:#000000;stroke-width:0.89999994;stroke-linejoin:round;stroke-miterlimit:4;stroke-dasharray:none;stroke-opacity:1"
           d="m 291.31912,393.22571 h 15.94489 c 1.96299,0 3.5433,1.58031 3.5433,3.54331 v 15.94488 c 0,1.96299 -1.58031,3.5433 -3.5433,3.5433 h -15.94489 c -1.96299,0 -3.5433,-1.58031 -3.5433,-3.5433 v -15.94488 c 0,-1.963 1.58031,-3.54331 3.5433,-3.54331 z"
           id="path2311" />
        <path
           style="opacity:1;fill:none;fill-opacity:1;fill-rule:nonzero;stroke:#000000;stroke-width:0.89999994;stroke-linejoin:round;stroke-miterlimit:4;stroke-dasharray:none;stroke-opacity:1"
           d="m 320.18064,393.22571 h 15.94488 c 1.96299,0 3.54331,1.58031 3.54331,3.54331 v 15.94488 c 0,1.96299 -1.58032,3.5433 -3.54331,3.5433 h -15.94488 c -1.963,0 -3.54331,-1.58031 -3.54331,-3.5433 v -15.94488 c 0,-1.963 1.58031,-3.54331 3.54331,-3.54331 z"
           id="path2313" />
        <path
           style="opacity:1;fill:none;fill-opacity:1;fill-rule:nonzero;stroke:#000000;stroke-width:0.89999994;stroke-linejoin:round;stroke-miterlimit:4;stroke-dasharray:none;stroke-opacity:1"
           d="m 349.04215,393.22571 h 15.94488 c 1.96299,0 3.54331,1.58031 3.54331,3.54331 v 15.94488 c 0,1.96299 -1.58032,3.5433 -3.54331,3.5433 h -15.94488 c -1.96299,0 -3.54331,-1.58031 -3.54331,-3.5433 v -15.94488 c 0,-1.963 1.58032,-3.54331 3.54331,-3.54331 z"
           id="path2315" />
        <path
           style="opacity:1;fill:none;fill-opacity:1;fill-rule:nonzero;stroke:#000000;stroke-width:0.89999994;stroke-linejoin:round;stroke-miterlimit:4;stroke-dasharray:none;stroke-opacity:1"
           d="m 377.90363,393.22571 h 15.94488 c 1.96299,0 3.54331,1.58031 3.54331,3.54331 v 15.94488 c 0,1.96299 -1.58032,3.5433 -3.54331,3.5433 h -15.94488 c -1.96299,0 -3.54331,-1.58031 -3.54331,-3.5433 v -15.94488 c 0,-1.963 1.58032,-3.54331 3.54331,-3.54331 z"
           id="path2317" />
        <path
           style="opacity:1;fill:none;fill-opacity:1;fill-rule:nonzero;stroke:#000000;stroke-width:0.89999994;stroke-linejoin:round;stroke-miterlimit:4;stroke-dasharray:none;stroke-opacity:1"
           d="m 406.76514,393.22571 h 15.94488 c 1.96299,0 3.54331,1.58031 3.54331,3.54331 v 15.94488 c 0,1.96299 -1.58032,3.5433 -3.54331,3.5433 h -15.94488 c -1.96299,0 -3.54331,-1.58031 -3.54331,-3.5433 v -15.94488 c 0,-1.963 1.58032,-3.54331 3.54331,-3.54331 z"
           id="path2319" />
        <path
           style="opacity:1;fill:none;fill-opacity:1;fill-rule:nonzero;stroke:#000000;stroke-width:0.89999994;stroke-linejoin:round;stroke-miterlimit:4;stroke-dasharray:none;stroke-opacity:1"
           d="m 435.62662,393.22571 h 15.94488 c 1.96299,0 3.54331,1.58031 3.54331,3.54331 v 15.94488 c 0,1.96299 -1.58032,3.5433 -3.54331,3.5433 h -15.94488 c -1.96299,0 -3.54331,-1.58031 -3.54331,-3.5433 v -15.94488 c 0,-1.963 1.58032,-3.54331 3.54331,-3.54331 z"
           id="path2321" />
        <path
           style="opacity:1;fill:none;fill-opacity:1;fill-rule:nonzero;stroke:#000000;stroke-width:0.89999994;stroke-linejoin:round;stroke-miterlimit:4;stroke-dasharray:none;stroke-opacity:1"
           d="m 464.48813,393.22571 h 15.94488 c 1.963,0 3.54331,1.58031 3.54331,3.54331 v 15.94488 c 0,1.96299 -1.58031,3.5433 -3.54331,3.5433 h -15.94488 c -1.96299,0 -3.54331,-1.58031 -3.54331,-3.5433 v -15.94488 c 0,-1.963 1.58032,-3.54331 3.54331,-3.54331 z"
           id="path2323" />
      </g>
      <g
         id="g2343"
         transform="translate(0,117.43279)"
         style="fill:none;stroke:#000000;stroke-width:0.89999994;stroke-miterlimit:4;stroke-dasharray:none;stroke-opacity:1">
        <path
           style="opacity:1;fill:none;fill-opacity:1;fill-rule:nonzero;stroke:#000000;stroke-width:0.89999994;stroke-linejoin:round;stroke-miterlimit:4;stroke-dasharray:none;stroke-opacity:1"
           d="m 262.45764,393.22571 h 15.94489 c 1.96299,0 3.5433,1.58031 3.5433,3.54331 v 15.94488 c 0,1.96299 -1.58031,3.5433 -3.5433,3.5433 h -15.94489 c -1.96299,0 -3.5433,-1.58031 -3.5433,-3.5433 v -15.94488 c 0,-1.963 1.58031,-3.54331 3.5433,-3.54331 z"
           id="path2327" />
        <path
           style="opacity:1;fill:none;fill-opacity:1;fill-rule:nonzero;stroke:#000000;stroke-width:0.89999994;stroke-linejoin:round;stroke-miterlimit:4;stroke-dasharray:none;stroke-opacity:1"
           d="m 291.31912,393.22571 h 15.94489 c 1.96299,0 3.5433,1.58031 3.5433,3.54331 v 15.94488 c 0,1.96299 -1.58031,3.5433 -3.5433,3.5433 h -15.94489 c -1.96299,0 -3.5433,-1.58031 -3.5433,-3.5433 v -15.94488 c 0,-1.963 1.58031,-3.54331 3.5433,-3.54331 z"
           id="path2329" />
        <path
           style="opacity:1;fill:none;fill-opacity:1;fill-rule:nonzero;stroke:#000000;stroke-width:0.89999994;stroke-linejoin:round;stroke-miterlimit:4;stroke-dasharray:none;stroke-opacity:1"
           d="m 320.18064,393.22571 h 15.94488 c 1.96299,0 3.54331,1.58031 3.54331,3.54331 v 15.94488 c 0,1.96299 -1.58032,3.5433 -3.54331,3.5433 h -15.94488 c -1.963,0 -3.54331,-1.58031 -3.54331,-3.5433 v -15.94488 c 0,-1.963 1.58031,-3.54331 3.54331,-3.54331 z"
           id="path2331" />
        <path
           style="opacity:1;fill:none;fill-opacity:1;fill-rule:nonzero;stroke:#000000;stroke-width:0.89999994;stroke-linejoin:round;stroke-miterlimit:4;stroke-dasharray:none;stroke-opacity:1"
           d="m 349.04215,393.22571 h 15.94488 c 1.96299,0 3.54331,1.58031 3.54331,3.54331 v 15.94488 c 0,1.96299 -1.58032,3.5433 -3.54331,3.5433 h -15.94488 c -1.96299,0 -3.54331,-1.58031 -3.54331,-3.5433 v -15.94488 c 0,-1.963 1.58032,-3.54331 3.54331,-3.54331 z"
           id="path2333" />
        <path
           style="opacity:1;fill:none;fill-opacity:1;fill-rule:nonzero;stroke:#000000;stroke-width:0.89999994;stroke-linejoin:round;stroke-miterlimit:4;stroke-dasharray:none;stroke-opacity:1"
           d="m 377.90363,393.22571 h 15.94488 c 1.96299,0 3.54331,1.58031 3.54331,3.54331 v 15.94488 c 0,1.96299 -1.58032,3.5433 -3.54331,3.5433 h -15.94488 c -1.96299,0 -3.54331,-1.58031 -3.54331,-3.5433 v -15.94488 c 0,-1.963 1.58032,-3.54331 3.54331,-3.54331 z"
           id="path2335" />
        <path
           style="opacity:1;fill:none;fill-opacity:1;fill-rule:nonzero;stroke:#000000;stroke-width:0.89999994;stroke-linejoin:round;stroke-miterlimit:4;stroke-dasharray:none;stroke-opacity:1"
           d="m 406.76514,393.22571 h 15.94488 c 1.96299,0 3.54331,1.58031 3.54331,3.54331 v 15.94488 c 0,1.96299 -1.58032,3.5433 -3.54331,3.5433 h -15.94488 c -1.96299,0 -3.54331,-1.58031 -3.54331,-3.5433 v -15.94488 c 0,-1.963 1.58032,-3.54331 3.54331,-3.54331 z"
           id="path2337" />
        <path
           style="opacity:1;fill:none;fill-opacity:1;fill-rule:nonzero;stroke:#000000;stroke-width:0.89999994;stroke-linejoin:round;stroke-miterlimit:4;stroke-dasharray:none;stroke-opacity:1"
           d="m 435.62662,393.22571 h 15.94488 c 1.96299,0 3.54331,1.58031 3.54331,3.54331 v 15.94488 c 0,1.96299 -1.58032,3.5433 -3.54331,3.5433 h -15.94488 c -1.96299,0 -3.54331,-1.58031 -3.54331,-3.5433 v -15.94488 c 0,-1.963 1.58032,-3.54331 3.54331,-3.54331 z"
           id="path2339" />
        <path
           style="opacity:1;fill:none;fill-opacity:1;fill-rule:nonzero;stroke:#000000;stroke-width:0.89999994;stroke-linejoin:round;stroke-miterlimit:4;stroke-dasharray:none;stroke-opacity:1"
           d="m 464.48813,393.22571 h 15.94488 c 1.963,0 3.54331,1.58031 3.54331,3.54331 v 15.94488 c 0,1.96299 -1.58031,3.5433 -3.54331,3.5433 h -15.94488 c -1.96299,0 -3.54331,-1.58031 -3.54331,-3.5433 v -15.94488 c 0,-1.963 1.58032,-3.54331 3.54331,-3.54331 z"
           id="path2341" />
      </g>
      <g
         transform="translate(0,146.79099)"
         id="g2361"
         style="fill:none;stroke:#000000;stroke-width:0.89999994;stroke-miterlimit:4;stroke-dasharray:none;stroke-opacity:1">
        <path
           style="opacity:1;fill:none;fill-opacity:1;fill-rule:nonzero;stroke:#000000;stroke-width:0.89999994;stroke-linejoin:round;stroke-miterlimit:4;stroke-dasharray:none;stroke-opacity:1"
           d="m 262.45764,393.22571 h 15.94489 c 1.96299,0 3.5433,1.58031 3.5433,3.54331 v 15.94488 c 0,1.96299 -1.58031,3.5433 -3.5433,3.5433 h -15.94489 c -1.96299,0 -3.5433,-1.58031 -3.5433,-3.5433 v -15.94488 c 0,-1.963 1.58031,-3.54331 3.5433,-3.54331 z"
           id="path2345" />
        <path
           style="opacity:1;fill:none;fill-opacity:1;fill-rule:nonzero;stroke:#000000;stroke-width:0.89999994;stroke-linejoin:round;stroke-miterlimit:4;stroke-dasharray:none;stroke-opacity:1"
           d="m 291.31912,393.22571 h 15.94489 c 1.96299,0 3.5433,1.58031 3.5433,3.54331 v 15.94488 c 0,1.96299 -1.58031,3.5433 -3.5433,3.5433 h -15.94489 c -1.96299,0 -3.5433,-1.58031 -3.5433,-3.5433 v -15.94488 c 0,-1.963 1.58031,-3.54331 3.5433,-3.54331 z"
           id="path2347" />
        <path
           style="opacity:1;fill:none;fill-opacity:1;fill-rule:nonzero;stroke:#000000;stroke-width:0.89999994;stroke-linejoin:round;stroke-miterlimit:4;stroke-dasharray:none;stroke-opacity:1"
           d="m 320.18064,393.22571 h 15.94488 c 1.96299,0 3.54331,1.58031 3.54331,3.54331 v 15.94488 c 0,1.96299 -1.58032,3.5433 -3.54331,3.5433 h -15.94488 c -1.963,0 -3.54331,-1.58031 -3.54331,-3.5433 v -15.94488 c 0,-1.963 1.58031,-3.54331 3.54331,-3.54331 z"
           id="path2349" />
        <path
           style="opacity:1;fill:none;fill-opacity:1;fill-rule:nonzero;stroke:#000000;stroke-width:0.89999994;stroke-linejoin:round;stroke-miterlimit:4;stroke-dasharray:none;stroke-opacity:1"
           d="m 349.04215,393.22571 h 15.94488 c 1.96299,0 3.54331,1.58031 3.54331,3.54331 v 15.94488 c 0,1.96299 -1.58032,3.5433 -3.54331,3.5433 h -15.94488 c -1.96299,0 -3.54331,-1.58031 -3.54331,-3.5433 v -15.94488 c 0,-1.963 1.58032,-3.54331 3.54331,-3.54331 z"
           id="path2351" />
        <path
           style="opacity:1;fill:none;fill-opacity:1;fill-rule:nonzero;stroke:#000000;stroke-width:0.89999994;stroke-linejoin:round;stroke-miterlimit:4;stroke-dasharray:none;stroke-opacity:1"
           d="m 377.90363,393.22571 h 15.94488 c 1.96299,0 3.54331,1.58031 3.54331,3.54331 v 15.94488 c 0,1.96299 -1.58032,3.5433 -3.54331,3.5433 h -15.94488 c -1.96299,0 -3.54331,-1.58031 -3.54331,-3.5433 v -15.94488 c 0,-1.963 1.58032,-3.54331 3.54331,-3.54331 z"
           id="path2353" />
        <path
           style="opacity:1;fill:none;fill-opacity:1;fill-rule:nonzero;stroke:#000000;stroke-width:0.89999994;stroke-linejoin:round;stroke-miterlimit:4;stroke-dasharray:none;stroke-opacity:1"
           d="m 406.76514,393.22571 h 15.94488 c 1.96299,0 3.54331,1.58031 3.54331,3.54331 v 15.94488 c 0,1.96299 -1.58032,3.5433 -3.54331,3.5433 h -15.94488 c -1.96299,0 -3.54331,-1.58031 -3.54331,-3.5433 v -15.94488 c 0,-1.963 1.58032,-3.54331 3.54331,-3.54331 z"
           id="path2355" />
        <path
           style="opacity:1;fill:none;fill-opacity:1;fill-rule:nonzero;stroke:#000000;stroke-width:0.89999994;stroke-linejoin:round;stroke-miterlimit:4;stroke-dasharray:none;stroke-opacity:1"
           d="m 435.62662,393.22571 h 15.94488 c 1.96299,0 3.54331,1.58031 3.54331,3.54331 v 15.94488 c 0,1.96299 -1.58032,3.5433 -3.54331,3.5433 h -15.94488 c -1.96299,0 -3.54331,-1.58031 -3.54331,-3.5433 v -15.94488 c 0,-1.963 1.58032,-3.54331 3.54331,-3.54331 z"
           id="path2357" />
        <path
           style="opacity:1;fill:none;fill-opacity:1;fill-rule:nonzero;stroke:#000000;stroke-width:0.89999994;stroke-linejoin:round;stroke-miterlimit:4;stroke-dasharray:none;stroke-opacity:1"
           d="m 464.48813,393.22571 h 15.94488 c 1.963,0 3.54331,1.58031 3.54331,3.54331 v 15.94488 c 0,1.96299 -1.58031,3.5433 -3.54331,3.5433 h -15.94488 c -1.96299,0 -3.54331,-1.58031 -3.54331,-3.5433 v -15.94488 c 0,-1.963 1.58032,-3.54331 3.54331,-3.54331 z"
           id="path2359" />
      </g>
      <g
         id="g2379"
         transform="translate(0,176.14919)"
         style="fill:none;stroke:#000000;stroke-width:0.89999994;stroke-miterlimit:4;stroke-dasharray:none;stroke-opacity:1">
        <path
           style="opacity:1;fill:none;fill-opacity:1;fill-rule:nonzero;stroke:#000000;stroke-width:0.89999994;stroke-linejoin:round;stroke-miterlimit:4;stroke-dasharray:none;stroke-opacity:1"
           d="m 262.45764,393.22571 h 15.94489 c 1.96299,0 3.5433,1.58031 3.5433,3.54331 v 15.94488 c 0,1.96299 -1.58031,3.5433 -3.5433,3.5433 h -15.94489 c -1.96299,0 -3.5433,-1.58031 -3.5433,-3.5433 v -15.94488 c 0,-1.963 1.58031,-3.54331 3.5433,-3.54331 z"
           id="path2363" />
        <path
           style="opacity:1;fill:none;fill-opacity:1;fill-rule:nonzero;stroke:#000000;stroke-width:0.89999994;stroke-linejoin:round;stroke-miterlimit:4;stroke-dasharray:none;stroke-opacity:1"
           d="m 291.31912,393.22571 h 15.94489 c 1.96299,0 3.5433,1.58031 3.5433,3.54331 v 15.94488 c 0,1.96299 -1.58031,3.5433 -3.5433,3.5433 h -15.94489 c -1.96299,0 -3.5433,-1.58031 -3.5433,-3.5433 v -15.94488 c 0,-1.963 1.58031,-3.54331 3.5433,-3.54331 z"
           id="path2365" />
        <path
           style="opacity:1;fill:none;fill-opacity:1;fill-rule:nonzero;stroke:#000000;stroke-width:0.89999994;stroke-linejoin:round;stroke-miterlimit:4;stroke-dasharray:none;stroke-opacity:1"
           d="m 320.18064,393.22571 h 15.94488 c 1.96299,0 3.54331,1.58031 3.54331,3.54331 v 15.94488 c 0,1.96299 -1.58032,3.5433 -3.54331,3.5433 h -15.94488 c -1.963,0 -3.54331,-1.58031 -3.54331,-3.5433 v -15.94488 c 0,-1.963 1.58031,-3.54331 3.54331,-3.54331 z"
           id="path2367" />
        <path
           style="opacity:1;fill:none;fill-opacity:1;fill-rule:nonzero;stroke:#000000;stroke-width:0.89999994;stroke-linejoin:round;stroke-miterlimit:4;stroke-dasharray:none;stroke-opacity:1"
           d="m 349.04215,393.22571 h 15.94488 c 1.96299,0 3.54331,1.58031 3.54331,3.54331 v 15.94488 c 0,1.96299 -1.58032,3.5433 -3.54331,3.5433 h -15.94488 c -1.96299,0 -3.54331,-1.58031 -3.54331,-3.5433 v -15.94488 c 0,-1.963 1.58032,-3.54331 3.54331,-3.54331 z"
           id="path2369" />
        <path
           style="opacity:1;fill:none;fill-opacity:1;fill-rule:nonzero;stroke:#000000;stroke-width:0.89999994;stroke-linejoin:round;stroke-miterlimit:4;stroke-dasharray:none;stroke-opacity:1"
           d="m 377.90363,393.22571 h 15.94488 c 1.96299,0 3.54331,1.58031 3.54331,3.54331 v 15.94488 c 0,1.96299 -1.58032,3.5433 -3.54331,3.5433 h -15.94488 c -1.96299,0 -3.54331,-1.58031 -3.54331,-3.5433 v -15.94488 c 0,-1.963 1.58032,-3.54331 3.54331,-3.54331 z"
           id="path2371" />
        <path
           style="opacity:1;fill:none;fill-opacity:1;fill-rule:nonzero;stroke:#000000;stroke-width:0.89999994;stroke-linejoin:round;stroke-miterlimit:4;stroke-dasharray:none;stroke-opacity:1"
           d="m 406.76514,393.22571 h 15.94488 c 1.96299,0 3.54331,1.58031 3.54331,3.54331 v 15.94488 c 0,1.96299 -1.58032,3.5433 -3.54331,3.5433 h -15.94488 c -1.96299,0 -3.54331,-1.58031 -3.54331,-3.5433 v -15.94488 c 0,-1.963 1.58032,-3.54331 3.54331,-3.54331 z"
           id="path2373" />
        <path
           style="opacity:1;fill:none;fill-opacity:1;fill-rule:nonzero;stroke:#000000;stroke-width:0.89999994;stroke-linejoin:round;stroke-miterlimit:4;stroke-dasharray:none;stroke-opacity:1"
           d="m 435.62662,393.22571 h 15.94488 c 1.96299,0 3.54331,1.58031 3.54331,3.54331 v 15.94488 c 0,1.96299 -1.58032,3.5433 -3.54331,3.5433 h -15.94488 c -1.96299,0 -3.54331,-1.58031 -3.54331,-3.5433 v -15.94488 c 0,-1.963 1.58032,-3.54331 3.54331,-3.54331 z"
           id="path2375" />
        <path
           style="opacity:1;fill:none;fill-opacity:1;fill-rule:nonzero;stroke:#000000;stroke-width:0.89999994;stroke-linejoin:round;stroke-miterlimit:4;stroke-dasharray:none;stroke-opacity:1"
           d="m 464.48813,393.22571 h 15.94488 c 1.963,0 3.54331,1.58031 3.54331,3.54331 v 15.94488 c 0,1.96299 -1.58031,3.5433 -3.54331,3.5433 h -15.94488 c -1.96299,0 -3.54331,-1.58031 -3.54331,-3.5433 v -15.94488 c 0,-1.963 1.58032,-3.54331 3.54331,-3.54331 z"
           id="path2377" />
      </g>
      <g
         transform="translate(0,205.50739)"
         id="g2397"
         style="fill:none;stroke:#000000;stroke-width:0.89999994;stroke-miterlimit:4;stroke-dasharray:none;stroke-opacity:1">
        <path
           style="opacity:1;fill:none;fill-opacity:1;fill-rule:nonzero;stroke:#000000;stroke-width:0.89999994;stroke-linejoin:round;stroke-miterlimit:4;stroke-dasharray:none;stroke-opacity:1"
           d="m 262.45764,393.22571 h 15.94489 c 1.96299,0 3.5433,1.58031 3.5433,3.54331 v 15.94488 c 0,1.96299 -1.58031,3.5433 -3.5433,3.5433 h -15.94489 c -1.96299,0 -3.5433,-1.58031 -3.5433,-3.5433 v -15.94488 c 0,-1.963 1.58031,-3.54331 3.5433,-3.54331 z"
           id="path2381" />
        <path
           style="opacity:1;fill:none;fill-opacity:1;fill-rule:nonzero;stroke:#000000;stroke-width:0.89999994;stroke-linejoin:round;stroke-miterlimit:4;stroke-dasharray:none;stroke-opacity:1"
           d="m 291.31912,393.22571 h 15.94489 c 1.96299,0 3.5433,1.58031 3.5433,3.54331 v 15.94488 c 0,1.96299 -1.58031,3.5433 -3.5433,3.5433 h -15.94489 c -1.96299,0 -3.5433,-1.58031 -3.5433,-3.5433 v -15.94488 c 0,-1.963 1.58031,-3.54331 3.5433,-3.54331 z"
           id="path2383" />
        <path
           style="opacity:1;fill:none;fill-opacity:1;fill-rule:nonzero;stroke:#000000;stroke-width:0.89999994;stroke-linejoin:round;stroke-miterlimit:4;stroke-dasharray:none;stroke-opacity:1"
           d="m 320.18064,393.22571 h 15.94488 c 1.96299,0 3.54331,1.58031 3.54331,3.54331 v 15.94488 c 0,1.96299 -1.58032,3.5433 -3.54331,3.5433 h -15.94488 c -1.963,0 -3.54331,-1.58031 -3.54331,-3.5433 v -15.94488 c 0,-1.963 1.58031,-3.54331 3.54331,-3.54331 z"
           id="path2385" />
        <path
           style="opacity:1;fill:none;fill-opacity:1;fill-rule:nonzero;stroke:#000000;stroke-width:0.89999994;stroke-linejoin:round;stroke-miterlimit:4;stroke-dasharray:none;stroke-opacity:1"
           d="m 349.04215,393.22571 h 15.94488 c 1.96299,0 3.54331,1.58031 3.54331,3.54331 v 15.94488 c 0,1.96299 -1.58032,3.5433 -3.54331,3.5433 h -15.94488 c -1.96299,0 -3.54331,-1.58031 -3.54331,-3.5433 v -15.94488 c 0,-1.963 1.58032,-3.54331 3.54331,-3.54331 z"
           id="path2387" />
        <path
           style="opacity:1;fill:none;fill-opacity:1;fill-rule:nonzero;stroke:#000000;stroke-width:0.89999994;stroke-linejoin:round;stroke-miterlimit:4;stroke-dasharray:none;stroke-opacity:1"
           d="m 377.90363,393.22571 h 15.94488 c 1.96299,0 3.54331,1.58031 3.54331,3.54331 v 15.94488 c 0,1.96299 -1.58032,3.5433 -3.54331,3.5433 h -15.94488 c -1.96299,0 -3.54331,-1.58031 -3.54331,-3.5433 v -15.94488 c 0,-1.963 1.58032,-3.54331 3.54331,-3.54331 z"
           id="path2389" />
        <path
           style="opacity:1;fill:none;fill-opacity:1;fill-rule:nonzero;stroke:#000000;stroke-width:0.89999994;stroke-linejoin:round;stroke-miterlimit:4;stroke-dasharray:none;stroke-opacity:1"
           d="m 406.76514,393.22571 h 15.94488 c 1.96299,0 3.54331,1.58031 3.54331,3.54331 v 15.94488 c 0,1.96299 -1.58032,3.5433 -3.54331,3.5433 h -15.94488 c -1.96299,0 -3.54331,-1.58031 -3.54331,-3.5433 v -15.94488 c 0,-1.963 1.58032,-3.54331 3.54331,-3.54331 z"
           id="path2391" />
        <path
           style="opacity:1;fill:none;fill-opacity:1;fill-rule:nonzero;stroke:#000000;stroke-width:0.89999994;stroke-linejoin:round;stroke-miterlimit:4;stroke-dasharray:none;stroke-opacity:1"
           d="m 435.62662,393.22571 h 15.94488 c 1.96299,0 3.54331,1.58031 3.54331,3.54331 v 15.94488 c 0,1.96299 -1.58032,3.5433 -3.54331,3.5433 h -15.94488 c -1.96299,0 -3.54331,-1.58031 -3.54331,-3.5433 v -15.94488 c 0,-1.963 1.58032,-3.54331 3.54331,-3.54331 z"
           id="path2393" />
        <path
           style="opacity:1;fill:none;fill-opacity:1;fill-rule:nonzero;stroke:#000000;stroke-width:0.89999994;stroke-linejoin:round;stroke-miterlimit:4;stroke-dasharray:none;stroke-opacity:1"
           d="m 464.48813,393.22571 h 15.94488 c 1.963,0 3.54331,1.58031 3.54331,3.54331 v 15.94488 c 0,1.96299 -1.58031,3.5433 -3.54331,3.5433 h -15.94488 c -1.96299,0 -3.54331,-1.58031 -3.54331,-3.5433 v -15.94488 c 0,-1.963 1.58032,-3.54331 3.54331,-3.54331 z"
           id="path2395" />
      </g>
    </g>
    <g
       style="fill:none;stroke:#000000;stroke-width:0.89999998;stroke-miterlimit:4;stroke-dasharray:none;stroke-opacity:1"
       id="g2403"
       transform="matrix(0.28222223,0,0,0.28222223,-12.166577,56.702315)">
      <path
         id="rect2401"
         d="M 223.83967,112.8166 H 542.7373 c 19.62992,0 35.43306,15.80315 35.43306,35.43306 v 318.89763 c 0,19.62992 -15.80314,35.43307 -35.43306,35.43307 H 223.83967 c -19.62992,0 -35.43307,-15.80315 -35.43307,-35.43307 V 148.24966 c 0,-19.62991 15.80315,-35.43306 35.43307,-35.43306 z"
         style="opacity:1;fill:none;fill-opacity:1;fill-rule:nonzero;stroke:#000000;stroke-width:0.89999998;stroke-linejoin:miter;stroke-miterlimit:4;stroke-dasharray:none;stroke-opacity:1" />
    </g>
    <path
       id="circle2405"
       d="m 50.005951,96.041667 a 1.5,1.5 0 0 1 -1.5,1.5 1.5,1.5 0 0 1 -1.5,-1.5 1.5,1.5 0 0 1 1.5,-1.5 1.5,1.5 0 0 1 1.5,1.5 z"
       style="opacity:1;fill:none;fill-opacity:1;fill-rule:nonzero;stroke:#000000;stroke-width:0.254;stroke-linejoin:miter;stroke-miterlimit:4;stroke-dasharray:none;stroke-opacity:1" />
    <path
       id="circle2407"
       d="m 145.00596,96.041667 a 1.5,1.5 0 0 1 -1.5,1.5 1.5,1.5 0 0 1 -1.5,-1.5 1.5,1.5 0 0 1 1.5,-1.5 1.5,1.5 0 0 1 1.5,1.5 z"
       style="opacity:1;fill:none;fill-opacity:1;fill-rule:nonzero;stroke:#000000;stroke-width:0.254;stroke-linejoin:miter;stroke-miterlimit:4;stroke-dasharray:none;stroke-opacity:1" />
    <path
       id="circle2409"
       d="m 145.00596,191.04167 a 1.5,1.5 0 0 1 -1.5,1.5 1.5,1.5 0 0 1 -1.5,-1.5 1.5,1.5 0 0 1 1.5,-1.5 1.5,1.5 0 0 1 1.5,1.5 z"
       style="opacity:1;fill:none;fill-opacity:1;fill-rule:nonzero;stroke:#000000;stroke-width:0.254;stroke-linejoin:miter;stroke-miterlimit:4;stroke-dasharray:none;stroke-opacity:1" />
    <path
       id="circle2411"
       d="m 50.005951,191.04167 a 1.5,1.5 0 0 1 -1.5,1.5 1.5,1.5 0 0 1 -1.5,-1.5 1.5,1.5 0 0 1 1.5,-1.5 1.5,1.5 0 0 1 1.5,1.5 z"
       style="opacity:1;fill:none;fill-opacity:1;fill-rule:nonzero;stroke:#000000;stroke-width:0.254;stroke-linejoin:miter;stroke-miterlimit:4;stroke-dasharray:none;stroke-opacity:1" />
    <path
       id="path2431"
       d="m 68.792452,116.65354 -10.857641,2.74614 -7.786494,-8.11188 3.071147,-10.85801 10.85764,-2.746131 7.786493,8.111871 z"
       style="opacity:1;fill:none;fill-opacity:1;fill-rule:nonzero;stroke:#000000;stroke-width:0.254;stroke-linejoin:miter;stroke-miterlimit:4;stroke-dasharray:none;stroke-opacity:1" />
    <path
       id="path2452"
       d="m 63.852458,189.40318 -10.858567,-3.03374 -2.708041,-10.85761 8.150526,-7.82389 10.858567,3.03373 2.70804,10.85762 z"
       style="opacity:1;fill:none;fill-opacity:1;fill-rule:nonzero;stroke:#000000;stroke-width:0.254;stroke-linejoin:miter;stroke-miterlimit:4;stroke-dasharray:none;stroke-opacity:1" />
    <path
       id="path2818"
       d="m 138.79245,186.65354 -10.85764,2.74614 -7.78649,-8.11188 3.07114,-10.85801 10.85764,-2.74613 7.78649,8.11187 z"
       style="opacity:1;fill:none;fill-opacity:1;fill-rule:nonzero;stroke:#000000;stroke-width:0.254;stroke-linejoin:miter;stroke-miterlimit:4;stroke-dasharray:none;stroke-opacity:1" />
    <path
       id="path2820"
       d="m 133.714,119.39929 -10.85857,-3.03374 -2.70804,-10.85761 8.15052,-7.82389 10.85857,3.03373 2.70804,10.85762 z"
       style="opacity:1;fill:none;fill-opacity:1;fill-rule:nonzero;stroke:#000000;stroke-width:0.254;stroke-linejoin:miter;stroke-miterlimit:4;stroke-dasharray:none;stroke-opacity:1" />
  </g>
</svg>
